<?xml version="1.0" encoding="UTF-8" standalone="no"?>
<!-- Generator: Adobe Illustrator 28.3.0, SVG Export Plug-In . SVG Version: 6.00 Build 0)  -->

<svg
   version="1.1"
   id="Layer_1"
   x="0px"
   y="0px"
   viewBox="0 0 307.39999 307.39999"
   xml:space="preserve"
   sodipodi:docname="BKN.svg"
   width="307.39999"
   height="307.39999"
   inkscape:version="1.4 (86a8ad7, 2024-10-11)"
   xmlns:inkscape="http://www.inkscape.org/namespaces/inkscape"
   xmlns:sodipodi="http://sodipodi.sourceforge.net/DTD/sodipodi-0.dtd"
   xmlns="http://www.w3.org/2000/svg"
   xmlns:svg="http://www.w3.org/2000/svg"><defs
   id="defs10" /><sodipodi:namedview
   id="namedview10"
   pagecolor="#ffffff"
   bordercolor="#000000"
   borderopacity="0.25"
   inkscape:showpageshadow="2"
   inkscape:pageopacity="0.0"
   inkscape:pagecheckerboard="0"
   inkscape:deskcolor="#d1d1d1"
   inkscape:zoom="2.9375"
   inkscape:cx="153.19149"
   inkscape:cy="153.3617"
   inkscape:window-width="3440"
   inkscape:window-height="1377"
   inkscape:window-x="-8"
   inkscape:window-y="-8"
   inkscape:window-maximized="1"
   inkscape:current-layer="Layer_1" />
<style
   type="text/css"
   id="style1">
	.st0{fill:#FFFFFF;}
</style>
<g
   id="g10"
   transform="translate(-46.8,-46.8)">
	<path
   d="m 207.3,303 c 4.4,0 17.8,0 28.9,-9.6 9.9,-9 10.9,-19.5 11.2,-31.4 l -0.1,-33.5 c 0,-10.5 0,-23.3 -10.9,-32.4 -2.3,-1.9 -5,-3.5 -8.2,-4.9 5.1,-3.4 8.5,-8.1 10.5,-14 1.7,-5.2 1.6,-11.8 1.6,-14.3 l -0.1,-29.8 c -0.3,-8.3 -1.2,-17.7 -7.9,-25.3 -5.9,-6.5 -14.8,-9.9 -26,-9.9 -0.1,0 -0.1,0 -0.2,0 L 165.6,98 c -1.2,0 -2.3,0.5 -3.3,1.4 -0.9,0.9 -1.3,2 -1.3,3.2 l 0.3,195.8 c 0,1.6 0.8,3.1 2.2,3.9 0.7,0.5 1.6,0.7 2.6,0.7 z m 15.6,-86.7 c 1.2,3.8 1.4,7.9 1.4,11.8 l 0.1,27.8 c 0,12.7 -0.8,18.6 -5.6,22.3 -2.9,2.1 -6.4,3.3 -15.4,3.6 0,0 -15.5,0 -16.7,0 -1.4,0 -1.9,-0.8 -1.9,-2.2 0,-11.4 -0.2,-74.4 -0.2,-74.9 0,-0.6 0.2,-1.4 1.3,-1.4 5.5,0 10.9,0 16.3,0.5 4.7,0.5 9.8,1.4 13.9,4 3.2,2.1 5.4,4.9 6.8,8.5 z m -37.4,-97.4 h 11.1 c 14.5,0 20.8,2.1 20.8,17 0,0 0,24.4 0,25.1 -0.2,6 -0.3,16.3 -12.2,19.8 -3.3,0.9 -4.9,1.2 -12.2,1.5 h -7.2 c 0,0 -0.1,0 -0.1,0 -1.1,0 -1.4,-0.6 -1.4,-1.5 0,-0.6 -0.1,-60.3 -0.1,-60.3 -0.1,-1 0.3,-1.5 1.3,-1.6 z m 15,-72.1 c -84.8,0 -153.7,69 -153.7,153.7 0,84.7 69,153.7 153.7,153.7 84.7,0 153.7,-69 153.7,-153.7 0,-84.7 -68.9,-153.7 -153.7,-153.7 z M 339.7,163 c 2.6,9.8 4.3,19.9 4.8,30.4 -4.2,8.4 -12.6,15.3 -18.7,18.7 -0.5,-4 -1.2,-8.5 -2.1,-12.6 -0.9,-4.2 -2,-8.4 -3.1,-12.5 4.9,-3.1 9.1,-6.8 12.4,-11.3 3.1,-4.2 5.3,-8.5 6.7,-12.7 z M 200.5,56.4 c 55.2,0 103.2,31.2 127.4,76.8 6,11.3 5.5,25.1 -1.8,35.6 -0.3,0.4 -0.6,0.8 -0.8,1.2 -2.1,2.8 -4.6,5.3 -7.6,7.4 -7.8,-24.7 -18.9,-46.2 -33,-64.1 C 270,94.7 252,79.9 231.1,69.2 219.2,63 207.8,59 197.9,56.4 c 0.9,0 1.7,0 2.6,0 z M 106.8,310 c -30,-25.7 -49.4,-63.6 -50.4,-105.9 6.2,6.6 15.9,15.3 29.4,23.7 15,9.4 36.9,19.4 65.9,24.2 v -9.7 C 125.2,237.7 105.2,228.6 91.3,220 71.4,207.7 60.3,194.4 56.8,189.8 c 1.7,-23.3 9,-45 20.5,-63.9 6.1,-2.3 34.4,-11 70.1,8.5 1.4,0.7 2.8,1.5 4.2,2.3 v -11 c -28,-15.2 -51.9,-14.6 -66,-12 14.1,-18.7 32.7,-33.8 54.1,-43.8 16,-7.5 34.1,-9.4 51.3,-5.3 10.4,2.4 22.8,6.5 35.8,13.1 19.6,10 36.6,24 50.5,41.5 13.8,17.5 24.5,38.6 32,62.9 -4.6,1.9 -9.9,3.3 -15.9,4.2 -13.7,1.9 -29.1,-1.5 -45.1,-7.6 -1,3.7 -1.6,5.3 -3.7,8.8 14.1,5.4 28,8.9 41,8.9 3.1,0 6.1,-0.2 9.1,-0.6 6.3,-0.9 12.1,-2.3 17.2,-4.4 0.9,3.3 1.7,6.7 2.5,10.2 1.1,5.1 2,10.2 2.5,15.2 -14.1,7.2 -34.1,14.6 -59.8,20.1 v 9.7 c 23.3,-4.9 44.2,-11.6 60.5,-19.4 0.2,8.4 -0.4,16.8 -1.8,25.1 -6.9,4.1 -14.9,10.3 -24.3,18.5 -22.8,20.2 -45,37.9 -84.9,50.7 -20.1,6.4 -40.3,7.2 -55.4,6.3 -16.4,-0.9 -31.9,-7.2 -44.4,-17.8 z m 198.7,-24.8 c -1.6,3.6 -3.3,6.9 -5,9.9 -8.4,15.2 -21.3,27.3 -36.9,34.9 -19.1,9.4 -40.6,14.6 -63.2,14.6 -15.4,0 -30.3,-2.4 -44.2,-6.9 1.6,0 3.2,0.1 4.9,0.1 14.2,0 31.2,-1.6 48.3,-7.1 41.7,-13.3 65.6,-32.5 88.4,-52.7 5.8,-5.1 10.7,-9.1 14.8,-12.1 -1.8,6.5 -4.2,12.9 -7.1,19.3 z m 9.1,3.3 c 3.7,-8.2 7.3,-18.3 9.6,-29.9 5.8,-2.9 8.4,-2.7 9.3,-2.4 -4.9,11.6 -11.3,22.5 -18.9,32.3 z m 22.7,-42.6 c -0.3,-0.2 -1.2,-0.3 -3.4,-0.3 -3.6,0.1 -7.8,1.7 -7.8,1.7 1,-7.8 1.3,-16.2 0.8,-25 3.1,-1.8 6,-3.7 8.7,-5.6 3.6,-2.6 6.5,-5.1 8.9,-7.5 -0.9,12.7 -3.3,25 -7.2,36.7 z"
   id="path1" />
	<g
   id="g9">
		<path
   class="st0"
   d="m 185.8,182.3 h 7.2 c 7.3,-0.2 8.9,-0.5 12.2,-1.5 12,-3.6 12.1,-13.8 12.2,-19.8 0,-0.8 0,-25.1 0,-25.1 0,-14.9 -6.3,-17 -20.8,-17 h -11.1 c -1,0.1 -1.4,0.7 -1.4,1.7 0,0 0.1,59.7 0.1,60.3 0,0.9 0.3,1.5 1.4,1.5 0.1,-0.1 0.1,-0.1 0.2,-0.1 z"
   id="path2" />
		<path
   class="st0"
   d="m 222.9,216.3 c -1.4,-3.7 -3.6,-6.4 -6.8,-8.4 -4.1,-2.6 -9.1,-3.5 -13.9,-4 -5.4,-0.6 -10.9,-0.5 -16.3,-0.5 -1.2,0 -1.3,0.8 -1.3,1.4 0,0.5 0.2,63.5 0.2,74.9 0,1.3 0.5,2.2 1.9,2.2 1.2,0 16.7,0 16.7,0 9,-0.3 12.6,-1.5 15.4,-3.6 4.8,-3.7 5.6,-9.7 5.6,-22.3 l -0.1,-27.8 c 0,-3.9 -0.1,-8.1 -1.4,-11.9 z"
   id="path3" />
		<path
   class="st0"
   d="m 317.5,227.2 c -16.3,7.9 -37.2,14.5 -60.5,19.4 v -9.7 c 25.7,-5.5 45.8,-12.9 59.8,-20.1 -0.5,-5.1 -1.4,-10.1 -2.5,-15.2 -0.8,-3.5 -1.6,-6.8 -2.5,-10.2 -5.1,2 -10.9,3.5 -17.2,4.4 -3,0.4 -6,0.6 -9.1,0.6 -13,0 -26.9,-3.5 -41,-8.9 2.1,-3.5 2.6,-5.1 3.7,-8.8 15.9,6.1 31.4,9.5 45.1,7.6 5.9,-0.8 11.2,-2.2 15.9,-4.2 -7.5,-24.3 -18.2,-45.4 -32,-62.9 -13.8,-17.5 -30.8,-31.5 -50.5,-41.5 -13,-6.6 -25.4,-10.7 -35.8,-13.1 -17.2,-4 -35.3,-2.2 -51.3,5.3 -21.4,10 -40,25.2 -54.1,43.8 14.1,-2.6 38,-3.2 66,12 v 11 c -1.4,-0.8 -2.8,-1.6 -4.2,-2.3 -35.7,-19.5 -64,-10.8 -70.1,-8.5 -11.5,18.9 -18.8,40.6 -20.5,63.9 3.5,4.6 14.6,17.8 34.5,30.2 13.9,8.6 33.9,17.8 60.4,22.3 v 9.7 c -29,-4.8 -50.9,-14.8 -65.9,-24.2 -13.5,-8.4 -23.1,-17.1 -29.4,-23.7 1,42.3 20.4,80.2 50.4,105.9 12.4,10.6 28,16.9 44.3,17.9 15,0.8 35.3,0.1 55.4,-6.3 39.9,-12.8 62.1,-30.5 84.9,-50.7 9.3,-8.3 17.4,-14.4 24.3,-18.5 1.5,-8.4 2.1,-16.8 1.9,-25.2 z m -81.3,66.2 c -11.2,9.5 -24.6,9.6 -28.9,9.6 l -41.2,0.1 c -0.9,0 -1.8,-0.3 -2.6,-0.7 -1.4,-0.8 -2.2,-2.3 -2.2,-3.9 L 161,102.6 c 0,-1.2 0.4,-2.3 1.3,-3.2 0.9,-0.9 2.1,-1.4 3.3,-1.4 l 40.5,-0.1 c 0.1,0 0.1,0 0.2,0 11.2,0 20.1,3.4 26,9.9 6.7,7.6 7.6,17 7.9,25.3 l 0.1,29.8 c 0.1,2.5 0.1,9.1 -1.6,14.3 -1.9,5.9 -5.4,10.6 -10.5,14 3.3,1.3 6,3 8.2,4.9 10.9,9.1 10.9,21.9 10.9,32.4 l 0.1,33.5 c -0.2,11.9 -1.3,22.4 -11.2,31.4 z"
   id="path4" />
		<path
   class="st0"
   d="m 297.8,278 c -22.8,20.1 -46.7,39.3 -88.4,52.7 -17.1,5.5 -34.1,7.1 -48.3,7.1 -1.7,0 -3.3,0 -4.9,-0.1 13.9,4.5 28.8,6.9 44.2,6.9 22.7,0 44.1,-5.3 63.2,-14.6 15.6,-7.6 28.5,-19.7 36.9,-34.9 1.7,-3 3.4,-6.3 5,-9.9 2.9,-6.4 5.2,-12.8 7.1,-19.3 -4.1,3 -9,7 -14.8,12.1 z"
   id="path5" />
		<path
   class="st0"
   d="m 339.7,163 c -1.4,4.2 -3.5,8.6 -6.7,12.7 -3.4,4.5 -7.5,8.2 -12.4,11.3 1.1,4.1 2.1,8.2 3.1,12.5 0.9,4.1 1.6,8.6 2.1,12.6 6.1,-3.4 14.4,-10.3 18.7,-18.7 -0.6,-10.5 -2.2,-20.7 -4.8,-30.4 z"
   id="path6" />
		<path
   class="st0"
   d="m 324.2,258.6 c -2.4,11.7 -6,21.8 -9.6,29.9 7.6,-9.9 14,-20.7 18.9,-32.4 -0.9,-0.2 -3.5,-0.4 -9.3,2.5 z"
   id="path7" />
		<path
   class="st0"
   d="m 284.7,113.2 c 14.2,18 25.3,39.5 33,64.1 3,-2.1 5.5,-4.6 7.6,-7.4 0.3,-0.4 0.6,-0.8 0.8,-1.2 7.2,-10.5 7.7,-24.3 1.8,-35.6 -24.2,-45.7 -72.2,-76.8 -127.4,-76.8 -0.9,0 -1.7,0 -2.6,0 9.9,2.7 21.3,6.7 33.2,12.7 20.8,10.8 38.9,25.6 53.6,44.2 z"
   id="path8" />
		<path
   class="st0"
   d="m 337.3,245.9 c 3.9,-11.7 6.3,-24 7.1,-36.7 -2.4,2.4 -5.3,4.9 -8.9,7.5 -2.6,1.9 -5.5,3.8 -8.7,5.6 0.5,8.8 0.2,17.2 -0.8,25 0,0 4.3,-1.5 7.8,-1.7 2.4,-0.1 3.2,0.1 3.5,0.3 z"
   id="path9" />
	</g>
</g>
</svg>
