<?xml version="1.0" encoding="UTF-8" standalone="no"?>
<!-- Generator: Adobe Illustrator 21.0.0, SVG Export Plug-In . SVG Version: 6.00 Build 0)  -->

<svg
   version="1.1"
   id="Layer_2"
   x="0px"
   y="0px"
   viewBox="0 0 348.10001 335.39999"
   xml:space="preserve"
   sodipodi:docname="CHA.svg"
   width="348.10001"
   height="335.39999"
   inkscape:version="1.4 (86a8ad7, 2024-10-11)"
   xmlns:inkscape="http://www.inkscape.org/namespaces/inkscape"
   xmlns:sodipodi="http://sodipodi.sourceforge.net/DTD/sodipodi-0.dtd"
   xmlns="http://www.w3.org/2000/svg"
   xmlns:svg="http://www.w3.org/2000/svg"><defs
   id="defs29" /><sodipodi:namedview
   id="namedview29"
   pagecolor="#ffffff"
   bordercolor="#000000"
   borderopacity="0.25"
   inkscape:showpageshadow="2"
   inkscape:pageopacity="0.0"
   inkscape:pagecheckerboard="0"
   inkscape:deskcolor="#d1d1d1"
   inkscape:zoom="2.9375"
   inkscape:cx="172.93617"
   inkscape:cy="160.51064"
   inkscape:window-width="3440"
   inkscape:window-height="1377"
   inkscape:window-x="-8"
   inkscape:window-y="-8"
   inkscape:window-maximized="1"
   inkscape:current-layer="Layer_2" />
<style
   type="text/css"
   id="style1">
	.st0{fill:#1D1160;}
	.st1{fill:#00788C;}
	.st2{fill:#FFFFFF;}
	.st3{fill:#A1A1A4;}
</style>
<g
   id="Layer_2_1_"
   transform="translate(-27,-39.5)">
	<path
   class="st0"
   d="M 111.8,192.5 H 87.1 v 26.7 l -14.8,7.3 14.8,7.7 V 258 l 16.4,10.1 c 6,-0.8 13.7,-1.8 22.7,-2.7 l 63.3,36.5 11.5,53.1 c 0.1,-0.1 11.6,-53.1 11.6,-53.1 l 63.2,-36.5 c 8.9,0.9 16.6,1.8 22.7,2.7 L 314.8,258 v -23.8 l 14.8,-7.6 -14.8,-7.5 v -26.7 h -24.6 c 0,0 3.8,-3.7 8.7,-12 2,-3.5 4,-7.8 6.3,-12.9 18,-5.4 31.3,-17 36.9,-28.1 15.4,-28.2 27,-62.6 27,-62.6 0,0 -6.6,3.2 -14.7,7.2 6.5,-19.8 10.4,-36.7 10.4,-36.7 0,0 -71,46.9 -126.2,91.1 l -4.8,-2.9 c 0,-0.5 0.2,-4.5 0.2,-4.8 0,0 0.6,-4.7 -7.7,-7.5 -0.6,-0.2 -1,-0.4 -1.5,-0.5 4,-3 10.2,-7.6 14.8,-10.7 7.2,-5 6.4,-10.4 6.4,-10.4 l -26.2,19.5 c -20.3,-6.5 -37.2,0 -37.2,0 l -26.2,-19.5 c 0,0 -0.8,5.4 6.4,10.4 4.5,3.1 10.8,7.7 14.8,10.7 -0.5,0.2 -0.9,0.4 -1.5,0.5 -8.3,2.8 -7.7,7.5 -7.7,7.5 0,0.4 0.1,4.3 0.2,4.8 l -4.8,2.9 c -55.6,-44 -126.5,-91 -126.5,-91 0,0 3.9,16.7 10.4,36.6 C 39.1,79.8 33,76.8 33,76.8 c 0,0 11.6,34.5 27,62.6 5.7,11.2 18.9,22.7 36.9,28.1 0,0 3,6.9 5.6,12 3.2,6.2 9.3,13 9.3,13"
   id="path1" />
	<path
   class="st1"
   d="m 230.8,152.4 c -0.3,0.7 -0.6,1.6 -0.7,2.3 24.8,-16.2 68.2,-44.5 116.9,-76.2 0,0 0.1,1 4.3,-11.4 -51.5,31 -96.9,66.2 -120.5,85.3"
   id="path2" />
	<path
   class="st1"
   d="M 171.2,152.4 C 147.6,133.3 102.1,98.1 50.7,67.1 55,79.7 55,78.6 55,78.6 c 48.7,31.6 92,59.9 116.9,76.2 -0.1,-0.8 -0.4,-1.6 -0.7,-2.4"
   id="path3" />
	<path
   class="st1"
   d="m 201,177.5 c -4.2,-1.7 -14.9,-7 -21.4,-20.9 5.3,4.5 12,6 17.4,0.7 -6.5,-2.9 -7.4,-14.6 -8.7,-17.6 -2.6,-6.3 -6.6,-9.4 -9.9,-10.7 1.6,-0.6 3,-1 4.5,-1.5 3,1.7 8.2,5.5 9.9,13.2 0,0 0.6,-8.8 -3.7,-14.8 8.4,-2 16.9,-1.8 23.8,0 -4.3,6.1 -3.7,14.8 -3.7,14.8 1.7,-7.7 6.7,-11.5 9.9,-13.2 1.4,0.5 2.9,0.9 4.5,1.5 -3.2,1.3 -7.3,4.5 -9.9,10.7 -1.3,3 -2.1,14.8 -8.7,17.6 1.5,9 -0.3,17.3 -4,20.2 m -74.9,16.4 c 0,0 -12.2,-8.8 -19.1,-24.7 l 4.9,1.5 c 15.9,4.2 46.3,8.4 46.3,8.4 -14.7,0.4 -27,1.5 -34.1,2.2 -1.5,-1.8 -3.1,-4.1 -3.8,-5.9 0,0 0.6,5.5 1.8,9 1.6,5.3 4,9.5 4,9.5"
   id="path4" />
	<path
   class="st1"
   d="m 279.8,184.5 v 0 c 1.3,-3.5 1.8,-9 1.8,-9 -0.6,1.8 -2.3,4.1 -3.8,5.9 -7.1,-0.8 -19.5,-1.9 -34.1,-2.3 0,0 30.4,-4.1 46.3,-8.4 l 4.9,-1.5 c -6.9,16 -19.1,24.6 -19.1,24.7 0.1,0 2.5,-4.2 4,-9.4"
   id="path5" />
	<path
   class="st1"
   d="m 163.1,269.4 -31,-17.9 c -2.2,0.2 -4.4,0.5 -6.5,0.6 l 43,24.8 c -2.1,-2.2 -3.9,-4.8 -5.5,-7.5"
   id="path6" />
	<path
   class="st1"
   d="m 238.9,269.4 31,-17.9 c 2.2,0.2 4.4,0.5 6.5,0.6 l -43,24.8 c 2.1,-2.2 3.9,-4.8 5.5,-7.5"
   id="path7" />
	<path
   class="st1"
   d="m 187.3,273.6 c -13.6,-3 -19.4,-9.7 -19.4,-9.7 2.8,5.7 7,10.6 12.3,14.2 -0.1,-0.1 5.7,-1.7 7.1,-4.5"
   id="path8" />
	<path
   class="st1"
   d="m 178.9,258.9 c -0.9,-0.9 -1.9,-1.9 -3,-3 -4.3,1.5 -6.8,3.2 -8.1,4.3 3,2.9 8.8,6.7 19.2,8.9 -1.3,-3.3 -4.5,-6.6 -8.1,-10.2"
   id="path9" />
	<path
   class="st1"
   d="m 200.7,291.2 c -4.5,0.1 -7.7,1.8 -8.9,2.2 -1.1,-2.1 -2.5,-4.3 -3.7,-6.3 3.9,0.5 7.3,-0.3 7.3,-0.3 -1.7,-0.6 -5.8,-1.9 -11.3,-5.6 v 0 c 0.5,-0.2 0.9,-0.5 1.5,-0.6 v 0 c 1.5,-0.7 3,-1.7 4.1,-2.9 1.4,-1.4 2.3,-3.2 2.3,-5.3 0,-6.8 -4.6,-9.1 -9.7,-14.2 -1,-1 -2.1,-2 -3.2,-3.1 4.7,-1.3 11.2,-2.2 19.7,-2.4 l 2,28.9 h 0.3 l 2.1,-28.9 c 8.7,0.2 15,1.1 19.7,2.4 -1.1,1.1 -2.2,2.1 -3.2,3.1 -5.2,5.1 -9.7,7.4 -9.7,14.2 0,2.2 0.9,4 2.3,5.3 1.2,1.2 2.6,2.1 4.1,2.9 v 0 c 0.5,0.3 1,0.5 1.5,0.6 v 0 c -5.5,3.7 -9.8,5.1 -11.3,5.6 0,0 3.4,0.7 7.3,0.3 -1.3,1.9 -2.6,4.1 -3.7,6.3 -1.1,-0.4 -4.3,-2.1 -8.9,-2.2 z"
   id="path10" />
	<path
   class="st1"
   d="m 221.8,278 c 5.2,-3.6 9.4,-8.5 12.3,-14.2 0,0 -5.6,6.7 -19.4,9.7 1.4,2.9 7.1,4.5 7.1,4.5"
   id="path11" />
	<path
   class="st1"
   d="m 215,269.3 c 10.3,-2.1 16.1,-6 19.2,-8.9 -1.3,-1.2 -3.8,-2.9 -8.1,-4.3 -0.9,1 -1.9,2 -3,3 -3.6,3.4 -6.8,6.7 -8.1,10.2"
   id="path12" />
	<path
   class="st2"
   d="m 191.7,158.1 c 0,0 -5,-3.3 -5.8,-10.3 0,0 -6.5,10.9 5.8,10.3"
   id="path13" />
	<path
   class="st2"
   d="m 210.6,158.1 c 0,0 5,-3.3 5.8,-10.3 0.1,0 6.5,10.9 -5.8,10.3"
   id="path14" />
	<path
   class="st2"
   d="m 206.9,301.8 c -0.9,-0.9 -2.2,-2 -6.2,-2 -3.8,0 -5.1,0.9 -6.2,1.8 L 201,327 Z"
   id="path15" />
	<polygon
   class="st2"
   points="246.5,199.1 246.5,189.8 243.9,189.8 243.9,187.1 252.2,187.1 252.2,189.8 249.6,189.8 249.6,199.1 "
   id="polygon15" />
	<polygon
   class="st2"
   points="231.8,199.1 231.8,189.8 229.2,189.8 229.2,187.1 237.6,187.1 237.6,189.8 234.9,189.8 234.9,199.1 "
   id="polygon16" />
	<path
   class="st2"
   d="m 190.9,194.8 h 1.1 v -6.5 l -1.3,-1.3 h -7.9 v 12 h 3 v -4.2 h 2.2 l 1.8,4.2 h 3 z m -1.9,-2.6 h -3.3 v -2.4 h 3.3 z"
   id="path16" />
	<polygon
   class="st2"
   points="258.8,187.1 258.8,199.1 267.7,199.1 267.7,196.4 261.9,196.4 261.9,194.5 267.7,194.5 267.7,191.8 261.9,191.8 261.9,189.8 267.7,189.8 267.7,187.1 "
   id="polygon17" />
	<polygon
   class="st2"
   points="199.5,187.1 199.5,199.1 207.1,199.1 207.1,196.4 202.7,196.4 202.7,187.1 "
   id="polygon18" />
	<path
   class="st2"
   d="m 220.8,187.1 h -7.9 v 10.7 l 1.4,1.4 h 7.9 v -10.7 z m -1.5,9.3 h -3.4 v -6.6 h 3.4 z"
   id="path18" />
	<path
   class="st2"
   d="m 175.6,199.1 v -10.7 l -1.3,-1.4 h -8.1 v 12 h 3 v -3.9 h 3.4 v 3.9 z m -6.4,-9.3 h 3.4 v 2.8 h -3.4 z"
   id="path19" />
	<polygon
   class="st2"
   points="153.2,192.5 153.2,187.1 150.2,187.1 150.2,199.1 153.2,199.1 153.2,195.2 156.6,195.2 156.6,199.1 159.6,199.1 159.6,187.1 156.6,187.1 156.6,192.5 "
   id="polygon19" />
	<path
   class="st2"
   d="m 336.6,102 c 5.8,-13.7 10.2,-23.4 10.2,-23.4 -48.7,31.6 -92,59.9 -116.9,76.2 -0.9,2.7 -2,5.1 -3.2,7.3 l 98,-53.4 -76.5,55.2 3.5,-0.6 40.4,-3.9 c 0,0 27.3,-2.7 42.5,-23.1 7.2,-11 19.4,-43.1 19.4,-43.1 z"
   id="path20" />
	<path
   class="st2"
   d="m 102.5,229.8 9.4,-4.1 v 21.4 c 2.7,-0.4 5.4,-0.7 8.3,-1 v -46.9 h -8.3 c 0,-0.1 0,16.9 0,16.9 l -9.4,4 v -20.8 h -8.3 v 24.3 l -6.8,3.3 6.8,3.4 V 250 c 2.7,-0.5 5.5,-0.9 8.3,-1.4 z"
   id="path21" />
	<path
   class="st2"
   d="m 167.2,229.7 c 2,-0.1 4.1,-0.1 6.2,-0.2 1.6,4 3.1,8.5 4.6,12.4 2.8,-0.1 5.5,-0.2 8.3,-0.2 -1.6,-4 -3,-8.5 -4.6,-12.4 1,0 2.1,0 3.1,-0.1 V 210 l -3.7,-3.6 h -25.4 l 3.1,3.8 v 32.6 c 2.8,-0.2 5.5,-0.3 8.3,-0.5 l 0.1,-12.6 z m 0,-15.7 h 9.4 c 0,2.3 0,5.3 0,7.4 -3.1,0 -6.3,0.1 -9.4,0.2 z"
   id="path22" />
	<path
   class="st2"
   d="m 199.5,214 h 9.5 v 27.6 c 2.9,0 5.8,0.1 8.7,0.1 v -31.5 l -3.8,-3.8 h -26 l 3.1,3.8 v 31.5 c 2.9,0 5.6,-0.1 8.5,-0.1 z"
   id="path23" />
	<path
   class="st2"
   d="m 248.8,235 c -5.3,-0.3 -10.7,-0.6 -16,-0.7 0,-1.9 0,-4 0,-5.9 5.3,0.2 10.7,0.4 16,0.6 v -8.3 c -5.3,-0.2 -10.7,-0.3 -16,-0.4 0,-1.6 0,-4.3 0,-6.3 h 16 v -7.7 h -27.9 l 3.1,3.7 v 31.8 c 8.5,0.3 16.8,0.6 24.8,1.1 z"
   id="path24" />
	<path
   class="st2"
   d="m 269.7,214 h 7.2 v -7.7 h -23.4 v 7.7 h 7.3 v 29.9 c 3,0.3 6.1,0.5 9,0.7 z"
   id="path25" />
	<path
   class="st2"
   d="m 152.7,210.2 -3.8,-3.8 h -25.5 l 3,3.6 v 31 l 3.3,4 c 7.3,-0.7 15,-1.4 23,-1.8 z m -8.3,25.2 c -3.2,0.2 -6.4,0.4 -9.5,0.6 v -22 h 9.5 z"
   id="path26" />
	<path
   class="st2"
   d="m 306.9,230.1 c 2.6,-1.1 5.2,-2.3 7.7,-3.5 -8.3,-3.9 -16.6,-7.3 -24.8,-10.5 v -9.4 h 8.8 v 3.4 h 8.4 v -10.9 h -28.6 l 3.1,3.7 v 19.4 l 17.1,7.4 v 10.9 c 0,0 -4,-0.5 -8.8,-1.1 V 236 l -8.3,-1 v 11.1 c 9,1 17.6,2.3 25.4,3.7 0,-6.1 0,-15.4 0,-19.7"
   id="path27" />
	<polygon
   class="st2"
   points="137.7,196.4 137.7,189.8 140.4,189.8 140.4,190.8 143.5,190.8 143.5,187.1 134.8,187.1 134.8,197.8 136.2,199.1 143.5,199.1 143.5,195.4 140.4,195.4 140.4,196.4 "
   id="polygon27" />
	<path
   class="st2"
   d="M 65.4,102 C 59.6,88.3 55.2,78.6 55.2,78.6 c 48.7,31.6 92,59.9 116.9,76.2 0.9,2.7 2,5.1 3.2,7.3 l -98,-53.5 76.5,55.2 -3.5,-0.6 -40.4,-3.9 c 0,0 -27.3,-2.7 -42.5,-23.1 C 60.2,125.2 48,93.1 48,93.1 Z"
   id="path28" />
	<path
   class="st3"
   d="m 367.1,92.5 c -7.7,20.7 -18.1,42.1 -23.2,51 -8.7,14.8 -26,23.7 -36.1,27 0,0 -4.9,11.9 -10.1,18.4 h 20.7 v 28.2 l 19.7,9.4 -19.7,10 v 23.6 l -19.1,11.7 c 0,0 -15.2,-1.8 -22.7,-2.7 l -60.6,35 c -12.2,54.9 -15,70.8 -15,70.8 0,0 -2.9,-15 -15,-70.8 l -60.6,-34.9 c -7.4,0.7 -22.7,2.7 -22.7,2.7 L 83.6,260.2 v -23.6 l -19.7,-10 19.6,-9.4 V 189 h 20.7 C 99.2,182.7 94.1,170.6 94.1,170.6 88,168.6 82.2,165.8 77,162.5 68.8,157.2 62.2,150.7 57.9,143.6 49.7,129 39.9,107.2 34.7,92.6 31.3,83.6 27,70.1 27,70.1 c 0,0 11.2,5.3 14.8,7.1 -5.4,-16.1 -10,-37.7 -10,-37.7 0,0 77.5,51 132,94.6 l 0.8,-0.6 c 0,-0.9 0,-1.8 0,-2.8 0,-0.6 0,-1.7 0.5,-3 0.6,-1.8 2,-4.1 5.2,-6 -4,-3 -11.2,-7.9 -11.8,-8.6 -5.3,-4.6 -6.2,-9.7 -5.7,-12.3 l 0.9,-5.8 29.5,21.9 c 16,-4.6 27.4,-2.3 35.8,0 l 29.5,-21.9 0.9,5.8 c 0.4,2.5 -0.5,7.7 -5.7,12.3 -0.6,0.6 -7.8,5.6 -11.8,8.6 3.1,1.9 4.5,4.1 5.2,6 0.5,1.3 0.5,2.4 0.5,3 0,0.9 0,1.8 0,2.8 l 0.8,0.6 C 294,89.5 370.3,39.5 370.3,39.5 c 0,0 -3.8,17.7 -10,37.7 3,-1.5 14.8,-7.1 14.8,-7.1 -3.5,10.7 -8,22.4 -8,22.4 m -255.3,100 H 87.1 v 26.7 l -14.8,7.3 14.8,7.7 V 258 l 16.4,10.1 c 6,-0.8 13.7,-1.8 22.7,-2.7 l 63.3,36.5 11.5,53.1 c 0.1,-0.1 11.6,-53.1 11.6,-53.1 l 63.2,-36.5 c 8.9,0.9 16.6,1.8 22.7,2.7 L 314.8,258 v -23.8 l 14.8,-7.6 -14.8,-7.5 v -26.7 h -24.6 c 0,0 3.8,-3.7 8.7,-12 2,-3.5 4,-7.8 6.3,-12.9 18,-5.4 31.3,-17 36.9,-28.1 15.4,-28.2 27,-62.6 27,-62.6 0,0 -6.6,3.2 -14.7,7.2 6.5,-19.8 10.4,-36.7 10.4,-36.7 0,0 -71,46.9 -126.2,91.1 l -4.8,-2.9 c 0,-0.5 0.2,-4.5 0.2,-4.8 0,0 0.6,-4.7 -7.7,-7.5 -0.6,-0.2 -1,-0.4 -1.5,-0.5 4,-3 10.2,-7.6 14.8,-10.7 7.2,-5 6.4,-10.4 6.4,-10.4 l -26.2,19.5 c -20.3,-6.5 -37.2,0 -37.2,0 l -26.2,-19.5 c 0,0 -0.8,5.4 6.4,10.4 4.5,3.1 10.8,7.7 14.8,10.7 -0.5,0.2 -0.9,0.4 -1.5,0.5 -8.3,2.8 -7.7,7.5 -7.7,7.5 0,0.4 0.1,4.3 0.2,4.8 l -4.8,2.9 c -55.6,-44 -126.5,-91 -126.5,-91 0,0 3.9,16.7 10.4,36.6 C 39.1,79.8 33,76.8 33,76.8 c 0,0 11.6,34.5 27,62.6 5.7,11.2 18.9,22.7 36.9,28.1 0,0 3,6.9 5.6,12 3.2,6.2 9.3,13 9.3,13"
   id="path29" />
</g>
</svg>
