<?xml version="1.0" encoding="UTF-8" standalone="no"?>
<!-- Generator: Adobe Illustrator 24.0.1, SVG Export Plug-In . SVG Version: 6.00 Build 0)  -->

<svg
   version="1.1"
   id="Layer_1"
   x="0px"
   y="0px"
   viewBox="0 0 300.20001 300.20001"
   xml:space="preserve"
   sodipodi:docname="DEN.svg"
   width="300.20001"
   height="300.20001"
   inkscape:version="1.4 (86a8ad7, 2024-10-11)"
   xmlns:inkscape="http://www.inkscape.org/namespaces/inkscape"
   xmlns:sodipodi="http://sodipodi.sourceforge.net/DTD/sodipodi-0.dtd"
   xmlns="http://www.w3.org/2000/svg"
   xmlns:svg="http://www.w3.org/2000/svg"><defs
   id="defs14" /><sodipodi:namedview
   id="namedview14"
   pagecolor="#ffffff"
   bordercolor="#000000"
   borderopacity="0.25"
   inkscape:showpageshadow="2"
   inkscape:pageopacity="0.0"
   inkscape:pagecheckerboard="0"
   inkscape:deskcolor="#d1d1d1"
   inkscape:zoom="2.9375"
   inkscape:cx="150.12766"
   inkscape:cy="149.95745"
   inkscape:window-width="3440"
   inkscape:window-height="1377"
   inkscape:window-x="-8"
   inkscape:window-y="-8"
   inkscape:window-maximized="1"
   inkscape:current-layer="Layer_1" />
<style
   type="text/css"
   id="style1">
	.st0{fill:#FFC627;}
	.st1{fill:#8B2332;}
	.st2{fill:#0D2240;}
	.st3{fill:#FFFFFF;}
</style>
<g
   id="g14"
   transform="translate(-49.7,-50)">
	<path
   class="st0"
   d="m 199.8,50 c 40,0 77.7,15.6 106.1,44 28.4,28.4 44,66.1 44,106.1 0,82.8 -67.3,150.1 -150.1,150.1 -40.1,0 -77.9,-15.6 -106.2,-44 C 65.3,277.8 49.7,240.1 49.7,200 49.7,160.1 65.4,122.2 93.6,93.9 122.1,65.6 159.8,50 199.8,50"
   id="path1" />
	<path
   class="st1"
   d="m 199.8,338.3 c 76.1,0 138.1,-62 138.1,-138.3 0,-76.1 -62,-138.2 -138.1,-138.2 -76.2,0 -138.2,62.1 -138.2,138.2 0.1,76.3 62.1,138.3 138.2,138.3"
   id="path2" />
	<path
   class="st2"
   d="m 71.9,200.1 c 0,-70.4 57.4,-127.8 127.9,-127.8 70.5,-0.1 127.9,57.3 127.9,127.8 0,70.5 -57.3,127.9 -127.8,127.9 -70.6,0.1 -128,-57.3 -128,-127.9"
   id="path3" />
	<path
   class="st0"
   d="m 300.6,146.6 2.8,-1.6 -9.2,-14.2 -2.5,1.9 C 276.1,113 248.3,91 221.9,87.7 c 19.9,9.1 42.3,32.3 55.9,50.2 l -14.4,10.3 1.8,2.6 -64.8,42.1 -64.8,-42.1 1.8,-2.6 -14.4,-10.5 c 13.7,-17.8 36.1,-41 55.9,-50.2 -26.4,3.3 -54.2,25.2 -69.7,44.9 l -2.7,-1.9 -9.2,14.2 2.8,1.7 -0.1,0.1 c -11.4,22.4 -19.8,57.1 -11.6,82.4 -0.2,-21.9 11.6,-52 22.1,-72.1 l 15.5,8.8 1.6,-2.4 60.2,37.8 -79.4,51.6 -0.1,-0.2 -10.6,2.8 0.1,0.3 c -0.5,1.9 0.5,5.7 2.7,9.2 2.2,3.6 5.1,5.9 7.2,6.3 l 0.2,0.3 7.1,-8.6 -0.1,-0.2 158.2,-99.5 1.6,2.4 15.5,-8.8 c 10.5,20.1 22.3,50.2 22.2,72.1 8.1,-25 -0.4,-59.7 -11.8,-82.1"
   id="path4" />
	<path
   class="st0"
   d="m 292.4,252.5 -0.1,0.2 -73.1,-47.5 -12.8,7.6 79.3,50 -0.1,0.2 7,8.6 0.2,-0.3 c 2.1,-0.4 5,-2.7 7.2,-6.3 2.2,-3.5 3.2,-7.2 2.7,-9.2 l 0.1,-0.3 z"
   id="path5" />
	<polygon
   class="st0"
   points="199.8,89.4 199.8,173.2 225.3,140.5 251,147.1 212.9,100.4 207.4,107.5 "
   id="polygon5" />
	<polygon
   class="st3"
   points="207.4,107.5 212.9,120 212.9,100.4 "
   id="polygon6" />
	<polygon
   class="st3"
   points="173.8,140.6 199.8,173.2 199.8,89.4 153.5,145.9 "
   id="polygon7" />
	<path
   class="st0"
   d="m 172.6,300.8 c 6.5,-6.3 14.9,-10.1 24,-11 V 277.2 H 162 c 0.7,9.2 4.5,17.4 10.6,23.6"
   id="path7" />
	<path
   class="st0"
   d="m 196.4,312.4 v -14.8 c -6.7,0.8 -13,3.6 -18,8.3 5.4,3.5 11.5,5.8 18,6.5"
   id="path8" />
	<path
   class="st3"
   d="m 204.1,235.4 v 14.8 c 6.7,-0.8 13,-3.6 18,-8.2 -5.2,-3.6 -11.3,-5.9 -18,-6.6"
   id="path9" />
	<path
   class="st3"
   d="m 228.1,247.1 c -6.5,6.2 -14.9,10.1 -23.9,10.9 v 11.4 h 34.6 c -1.1,-8.5 -5,-16.4 -10.7,-22.3"
   id="path10" />
	<path
   class="st3"
   d="m 196.4,250.2 v -14.8 c -6.6,0.7 -12.8,3 -17.9,6.6 5.1,4.6 11.3,7.5 17.9,8.2"
   id="path11" />
	<path
   class="st0"
   d="m 204.1,277.2 v 12.6 c 9,0.9 17.3,4.7 23.9,11 6,-6.2 10,-14.4 10.7,-23.6 z"
   id="path12" />
	<path
   class="st3"
   d="m 161.9,269.4 h 34.5 V 258 c -9,-0.8 -17.3,-4.8 -24,-10.9 -5.6,5.9 -9.5,13.8 -10.5,22.3"
   id="path13" />
	<path
   class="st0"
   d="m 204.1,312.4 c 6.6,-0.7 12.8,-3 18,-6.6 -5,-4.7 -11.3,-7.5 -18,-8.3 z"
   id="path14" />
</g>
</svg>
