<?xml version="1.0" encoding="UTF-8" standalone="no"?>
<!-- Generator: Adobe Illustrator 24.0.1, SVG Export Plug-In . SVG Version: 6.00 Build 0)  -->

<svg
   version="1.1"
   id="Layer_1"
   x="0px"
   y="0px"
   viewBox="0 0 299.89999 299.79999"
   xml:space="preserve"
   sodipodi:docname="GS.svg"
   width="299.89999"
   height="299.79999"
   inkscape:version="1.4 (86a8ad7, 2024-10-11)"
   xmlns:inkscape="http://www.inkscape.org/namespaces/inkscape"
   xmlns:sodipodi="http://sodipodi.sourceforge.net/DTD/sodipodi-0.dtd"
   xmlns="http://www.w3.org/2000/svg"
   xmlns:svg="http://www.w3.org/2000/svg"><defs
   id="defs2" /><sodipodi:namedview
   id="namedview2"
   pagecolor="#ffffff"
   bordercolor="#000000"
   borderopacity="0.25"
   inkscape:showpageshadow="2"
   inkscape:pageopacity="0.0"
   inkscape:pagecheckerboard="0"
   inkscape:deskcolor="#d1d1d1"
   inkscape:zoom="2.9375"
   inkscape:cx="149.78723"
   inkscape:cy="149.95745"
   inkscape:window-width="3440"
   inkscape:window-height="1377"
   inkscape:window-x="-8"
   inkscape:window-y="-8"
   inkscape:window-maximized="1"
   inkscape:current-layer="Layer_1" />
<style
   type="text/css"
   id="style1">
	.st0{fill:#1D428A;}
	.st1{fill:#FDB927;}
</style>
<g
   id="g2"
   transform="translate(-50.1,-50)">
	<path
   class="st0"
   d="m 350,199.9 c 0,82.8 -67.1,149.9 -149.9,149.9 -82.8,0 -150,-67.1 -150,-149.9 C 50.1,117.1 117.2,50 200.1,50 283,50 350,117.1 350,199.9"
   id="path1" />
	<path
   class="st1"
   d="M 298.2,101.8 C 272,75.6 237.1,61.2 200.1,61.2 c -37,0 -71.8,14.4 -98.1,40.6 -26.2,26.2 -40.6,61.1 -40.6,98.1 0,37 14.4,71.8 40.6,98.1 26.2,26.2 61.1,40.6 98.1,40.6 37,0 71.8,-14.4 98.1,-40.6 26.2,-26.2 40.6,-61.1 40.6,-98.1 0,-37 -14.5,-71.8 -40.6,-98.1 m -191,5.3 C 132,82.3 164.9,68.6 200,68.6 c 35,0 68,13.7 92.8,38.5 24.8,24.8 38.5,57.7 38.5,92.8 0,18.9 -3.9,37.1 -11.4,53.8 -15.9,-5.4 -31.5,-11.4 -46.9,-18.3 -2,-0.9 -4,-1.8 -6.1,-2.7 l -6,-2.8 -3,-1.4 -3,-1.4 -6,-3 c -1.9,-1 -3.9,-2 -5.9,-3.1 l -2.9,-1.5 c -1,-0.5 -1.9,-1.1 -2.9,-1.6 l -5.8,-3.2 -5.7,-3.4 c -15.2,-8.9 -29.9,-18.9 -43.7,-29.8 -6.9,-5.5 -13.6,-11.3 -20,-17.3 -3.2,-3.1 -6.3,-6.2 -9.3,-9.3 -0.8,-0.8 -1.5,-1.6 -2.2,-2.4 -0.8,-0.8 -1.4,-1.6 -2.2,-2.5 -0.8,-0.9 -1.4,-1.6 -2.1,-2.5 l -0.1,-0.1 c -0.3,-9.6 -0.4,-15.4 -0.4,-15.4 l -6.5,-1.5 v 8.8 h -5.6 V 130 l -7,1.6 0.1,3.4 -3.3,1.8 c 0.1,2.8 0.2,6.3 0.2,10.7 -2.7,4.6 -31.7,54.9 -53.5,70.3 C 69.5,212 69,206 69,199.9 c -0.1,-35 13.5,-68 38.2,-92.8 m 172.4,157.2 -13.6,0.5 -11,-28.6 2.1,1.1 6.1,3 c 2,1 4,1.9 6.1,2.9 0.6,0.3 1.2,0.6 1.7,0.8 z m -3.3,-17.9 c 5.5,2.5 11,4.9 16.4,7.1 l 4.5,10.1 -13.6,0.5 z m -14.3,18.5 -13.8,0.5 -14.4,-40.8 c 0.9,0.5 1.8,1.1 2.7,1.5 l 3,1.6 c 1.9,1.1 3.9,2.2 5.9,3.3 l 4.5,2.4 z m -17.9,0.6 -12.3,0.4 -18,-53.6 c 2.8,1.8 5.5,3.6 8.3,5.3 l 5.8,3.6 0.8,0.5 z m -16.4,0.5 -12.9,0.5 -21.4,-68.4 c 4.9,3.7 9.9,7.2 15,10.7 z m -17.1,0.6 -12.4,0.4 -25.3,-85.4 c 1.8,1.5 3.6,3.1 5.4,4.6 3.2,2.7 6.4,5.3 9.7,7.8 z m -16.4,0.6 -13.8,0.5 -30.2,-108.1 c 2.7,2.9 5.4,5.8 8.2,8.6 2.9,2.9 6,5.8 8.9,8.6 z m -17.8,0.6 -11.9,0.4 -16.6,-63.5 c -0.5,-16.4 -1,-31.5 -1.3,-43.7 z m -15.9,0.4 -10.3,0.4 c -0.7,-15.1 -1.3,-31 -1.7,-46.4 z m 145.5,9.2 c -0.9,1.3 -1.8,2.4 -2.7,3.6 l -152.5,-3 -0.1,-1.4 z m -4.5,-13.9 -3.5,-7.8 c 5.8,2.3 11.6,4.5 17.5,6.7 -0.1,0.2 -0.3,0.5 -0.4,0.7 z M 139.3,167.6 v 8.1 h -6.2 v 7.5 h 6.2 v 8.1 h -6.2 v 7.5 h 6.2 v 15.1 h -6.2 v 7.5 h 6.2 V 237 h -6.2 v 7.5 h 6.2 V 269 l -5.7,0.2 V 155 h 5.6 v 5.1 H 133 v 7.5 z m -59,86.2 17.1,-57.6 c 6.9,-9.2 14.5,-20.8 22.5,-35.2 L 89.3,270.5 c -3.4,-5.4 -6.4,-11 -9,-16.7 m -2.4,-5.7 c -3,-7.7 -5.3,-15.6 -6.8,-23.8 4.8,-3.8 11.6,-10.1 19.8,-19.9 z m 45.7,-85.7 c 0,11.5 -0.2,25.6 -0.5,40.5 l -17.6,67.2 -12.2,0.4 z m -0.9,57.4 c -0.5,16.6 -1.1,33.9 -1.9,49.8 l -11.3,0.4 z m -23.4,64.3 20.6,0.8 c -0.4,6.3 -0.9,12.4 -1.3,18 -3.9,-3.2 -7.8,-6.5 -11.3,-10.1 -2.8,-2.8 -5.5,-5.7 -8,-8.7 m 100.8,47 c -16.4,0 -32.2,-3 -47,-8.7 -0.6,-8.9 -1.2,-19.7 -1.7,-31.5 l -11.9,-4 v 29.3 c -1.9,-1 -3.8,-2 -5.7,-3.2 v -27.8 l 5.7,0.2 v 0.2 h 6.2 l 11.1,0.4 138.1,4.9 c -0.6,0.6 -1.1,1.2 -1.6,1.7 -25.2,24.9 -58.2,38.5 -93.2,38.5"
   id="path2" />
</g>
</svg>
