<?xml version="1.0" encoding="UTF-8" standalone="no"?>
<!-- Generator: Adobe Illustrator 21.0.0, SVG Export Plug-In . SVG Version: 6.00 Build 0)  -->

<svg
   version="1.1"
   id="Layer_3"
   x="0px"
   y="0px"
   viewBox="0 0 388.80148 240.5"
   xml:space="preserve"
   sodipodi:docname="LAL.svg"
   width="388.80148"
   height="240.5"
   inkscape:version="1.4 (86a8ad7, 2024-10-11)"
   xmlns:inkscape="http://www.inkscape.org/namespaces/inkscape"
   xmlns:sodipodi="http://sodipodi.sourceforge.net/DTD/sodipodi-0.dtd"
   xmlns="http://www.w3.org/2000/svg"
   xmlns:svg="http://www.w3.org/2000/svg"><defs
   id="defs16" /><sodipodi:namedview
   id="namedview16"
   pagecolor="#ffffff"
   bordercolor="#000000"
   borderopacity="0.25"
   inkscape:showpageshadow="2"
   inkscape:pageopacity="0.0"
   inkscape:pagecheckerboard="0"
   inkscape:deskcolor="#d1d1d1"
   inkscape:zoom="2.9375"
   inkscape:cx="191.31915"
   inkscape:cy="119.31915"
   inkscape:window-width="3440"
   inkscape:window-height="1377"
   inkscape:window-x="-8"
   inkscape:window-y="-8"
   inkscape:window-maximized="1"
   inkscape:current-layer="Layer_3" />
<style
   type="text/css"
   id="style1">
	.st0{fill:#FFFFFF;}
	.st1{fill:#FAB624;}
	.st2{fill:#0B1A23;}
	.st3{fill:#542C81;}
</style>
<path
   class="st0"
   d="m 84.6,54.1 c 0,0 33.1,-54.1 100.8,-54.1 67.7,0 99.3,52.5 99.3,52.5 h 91.9 L 373,75.1 c 0,0 -2.7,9 -6.8,9.9 h 6.3 c 0,0 2.1,7.9 -10.5,35.2 h 26.8 c 0,0 1.1,47.8 -56.7,70.4 0,0 -29.9,9.5 -45.2,-6.8 0,0 -30.4,56.7 -101.3,56.7 -70.9,0 -103.1,-58.3 -103.1,-58.3 H 0 L 13.1,158.6 H 4.2 l 10.5,-19.4 h 17.9 l 3.2,-7.4 H 27.4 L 47.9,94 h 11.5 l 4.7,-11.5 h -10 L 69.4,54.1 Z"
   id="path1" />
<path
   class="st1"
   d="m 186.4,227.9 c 58,0 105,-47.7 105,-106.6 0,-58.9 -47,-106.6 -105,-106.6 -58,0 -105,47.7 -105,106.6 0,58.9 47,106.6 105,106.6"
   id="path2" />
<g
   id="g4"
   transform="translate(-8.4,-80.7)">
	<path
   class="st2"
   d="m 277.3,133.1 c -1.3,-1.5 -3.2,-4.7 -16.1,-16 -19,-16.5 -44.1,-24.1 -67.8,-24.1 -17.4,0 -32.7,3.9 -49.5,13.2 -21.6,11.8 -30.4,25.5 -32.6,28.3 -1.6,2.1 -1.9,3.2 -0.8,3.8 0.8,0.4 2.2,-1.2 3.5,-3 6.4,-8.5 14.8,-16.8 23.6,-21.8 2.8,0.4 6.6,4.2 8.1,6.3 -5.7,3.1 -15.1,10.2 -18.6,13 -3.1,2.4 -4.1,3.7 -3.3,4.7 0.7,0.8 3.1,-0.8 5,-2.4 3.4,-2.8 13.5,-9.9 18.5,-12.6 3.4,3.9 2.3,11.3 1.1,13 -0.7,0.9 -0.7,1.8 0,2.2 0.7,0.4 1.5,-0.6 2.5,-2.1 2.4,-3.3 1.4,-11.5 -0.6,-14.4 6.1,-3.7 14.9,-6.3 20.2,-7.5 0.5,0.9 6.9,19.7 8.1,23 0.7,1.9 1.4,4.1 2.7,3.6 0.9,-0.3 0.3,-2.4 -0.5,-4.4 -1,-2.6 -5.8,-18.3 -7.3,-23 1.8,-1 12.3,-3.1 15,-3 -1.3,6.9 3.5,9.7 9.1,13.3 3,1.9 21.5,12.6 25.4,15 2.2,1.4 3.9,2.3 4.4,1.6 0.5,-0.8 -1,-2.3 -3.1,-3.4 -1.7,-1 -18.9,-11 -26.1,-15.6 -5.2,-3.2 -8,-6.8 -6.7,-11.3 1.7,-0.5 6.9,-0.5 12.3,-0.5 36.8,0.3 66.4,21.5 69.7,24.8 1.7,1.7 4,3.2 4.9,2.5 0.7,-0.3 -0.3,-2.3 -1.1,-3.2 M 148.8,118.5 c -1,-1.7 -5.7,-5.9 -8.2,-6.8 5.9,-4.3 19.6,-10.6 24.8,-11.7 0.9,1.5 3.3,7.9 4.1,10.5 -4.5,1 -16.7,5.5 -20.7,8 m 40.3,-11.8 c -4.8,0.3 -13.5,2.2 -16.6,3.1 -0.8,-2.1 -3,-8.6 -3.7,-10.6 8.9,-2.5 19.1,-3.3 27.1,-2.7 -2.3,1.6 -6,8.2 -6.8,10.2 m 23.9,-0.3 c -8,-0.6 -14.5,-0.8 -20.2,-0.2 1.7,-4.1 4.9,-8.1 7.5,-9.7 5.4,0.2 11,1 15.6,1.9 14.3,2.9 36.4,11.5 46,24.3 -12.8,-8.6 -34,-15.3 -48.9,-16.3"
   id="path3" />
	<path
   class="st2"
   d="m 285.3,259.3 c 1.4,-2.5 2.5,-3.9 1.3,-4.6 -1.1,-0.6 -2.1,1.8 -3.4,3.9 -4.3,7.5 -9,13.7 -19.6,23.3 -11.7,10.7 -25.3,16.9 -30,18.5 -4,-11.2 -19.3,-59.2 -19.7,-60.6 -0.6,-2.1 -1.1,-2.7 -1.8,-2.4 -0.8,0.3 -0.3,1.4 0.1,3.2 0.4,1.8 18.6,58.5 19.2,60.6 -3.6,1.8 -18.2,5.9 -28.5,6.2 -9.2,0.3 -19.8,0 -25.2,-1.3 -6.3,-5.1 -20.8,-25.5 -26.2,-36.3 -6.5,-12.8 -10.7,-24.5 -11.8,-29.5 -0.5,-2.4 -1.2,-4.1 -2.4,-3.8 -1.3,0.3 -0.6,2.2 0.2,4.7 2,6.6 5.1,15.9 11.8,29.2 7.1,14.1 19.8,30.5 23.5,35.1 -11.6,-2.5 -25.7,-7.9 -39.1,-17.8 -11.5,-8.6 -21.5,-19.6 -26.5,-27.6 -0.9,-1.4 -1.9,-3.3 -3.1,-2.5 -0.6,0.4 0.1,2 1,3.4 7.3,13 24.9,31.4 47.6,41.6 26.4,11.8 55.1,11.1 81,1.2 22.4,-8.9 41.9,-26.8 51.6,-44.5"
   id="path4" />
</g>
<g
   id="g16"
   transform="translate(-8.4,-80.7)">
	<path
   class="st3"
   d="m 242.7,213 c -9.8,11.9 -15.4,16 -25.3,16 -3.3,0 -5.1,-0.8 -4.2,-2.4 L 225,202.9 h 4.5 c 5,0 4.3,4.2 3,9.9 -0.3,0.8 0.4,0.9 1,0.2 l 11.2,-19.7 c 0.6,-1.3 -0.9,-1.5 -1.6,-0.6 -5.6,7.7 -11.5,7.1 -14.1,7.1 h -2.1 l 12.6,-24.1 h 5.1 c 6.4,0.4 9.4,5.8 7.6,18.9 h 2.7 l 9.3,-18.3 c 0.8,-1.6 -0.9,-3 -2.6,-3 h -62.9 c -3.6,0 -3.8,2.8 -0.3,2.8 2.9,0 2.7,4 0.1,6 l -26.7,21.2 5.4,25 c 0.4,1.9 1.6,2.8 3.7,2.8 H 233 c 2.2,0 3.1,-0.9 3.7,-1.8 l 9.5,-16.2 c 1.1,-2.3 -1.9,-2.1 -3.5,-0.1 m -36.4,-11.5 h -4.6 c -0.3,0 -0.6,0.3 -0.6,0.6 0,0.3 0.3,0.6 0.6,0.6 h 4.6 c 1.6,0 3.1,0.2 2.7,0.9 l -12,22.8 c -1.5,2.8 -4.6,2.1 -5.1,-0.1 l -6,-30.8 21,-16.2 c 2.1,-1.8 6.1,-4.7 8.2,-4.6 h 4.5 c 2.8,0 3.7,1.3 3.2,3 l -0.8,1.6 c -0.5,0.9 -2.2,1 -3.5,1 h -2.7 c -0.3,0 -0.6,0.3 -0.6,0.6 0,0.3 0.3,0.6 0.6,0.6 h 2.6 c 1.1,0 2.6,0 2,0.9 l -9.7,18.5 c -0.6,0.5 -2.6,0.6 -4.4,0.6"
   id="path5" />
	<path
   class="st3"
   d="m 163.2,228.4 c -1.4,0 -2.4,-1 -2.7,-2 -0.5,-1.4 -0.4,-3.7 0.1,-4.7 l 24.3,-43 c 0.4,-0.8 1.4,-2.5 2.6,-2.5 2.2,0 3.1,-2.9 -0.6,-2.9 h -19.4 c -3.6,0 -3.6,2.8 -0.2,2.8 1.4,0 2,1.4 1.6,2.3 l -5.4,9.7 c -0.7,1.1 -2.2,1.2 -3.7,1.2 h -4.6 c -0.3,0 -0.6,0.3 -0.6,0.6 0,0.3 0.3,0.6 0.6,0.6 h 4.6 c 1.3,0 2.3,0.4 1.5,1.9 l -17.9,32.7 c -1.3,1.8 -3.8,2.2 -3.7,-1.3 l 6.4,-47.9 c 0.3,-1.5 -0.1,-2.5 -1.8,-2.5 h -9.7 c -1.2,0 -1.9,0.6 -2.4,1.3 l -3.4,4.3 c -0.5,0.5 -1.4,0.5 -2.5,0.5 h -8.1 c -0.3,0 -0.6,0.3 -0.6,0.6 0,0.3 0.3,0.6 0.6,0.6 h 6.6 c 1.2,0 2.6,0.3 2.1,0.8 l -9.3,11.6 c -0.3,0.3 -1.2,0.4 -1.8,0.4 h -2.7 c -0.3,0 -0.6,0.3 -0.6,0.6 0,0.3 0.3,0.6 0.6,0.6 h 2.2 c 0.7,0 0.7,0.3 0.4,0.6 l -8.7,10.9 c -0.5,0.4 -1.3,0.5 -2.2,0.5 h -7.7 c -0.3,0 -0.6,0.3 -0.6,0.6 0,0.3 0.3,0.6 0.6,0.6 h 6.6 c 1,0 1.8,0.2 1.3,0.9 l -12.3,15.5 c -2.4,3 -13.5,4.4 -15.7,4.4 l 41.8,-78.2 c 0.4,-0.9 2,-2.3 3.5,-2.3 h 8.9 c 4.1,0 4,-2.8 0.4,-2.8 H 87.2 c -3.6,0 -3.7,2.8 0.4,2.8 h 8.3 c 2.4,0 3.1,1.4 2.5,2.6 l -1.2,2.2 c -0.4,0.7 -1,1 -3.2,1 H 79.3 c -0.3,0 -0.6,0.3 -0.6,0.6 0,0.3 0.3,0.6 0.6,0.6 h 14.6 c 0.8,0 2,0.2 1.3,1.7 l -2.1,3.8 c -0.4,0.6 -1.3,0.9 -2.3,0.9 h -6.6 c -0.3,0 -0.6,0.3 -0.6,0.6 0,0.3 0.3,0.6 0.6,0.6 h 6.6 c 1,0 1,0.6 0.4,1.5 l -4.7,8.8 c -0.4,0.8 -1.2,0.9 -2.7,0.9 h -2.7 c -0.3,0 -0.6,0.3 -0.6,0.6 0,0.3 0.3,0.6 0.6,0.6 h 2.7 c 1,0 1.3,0.6 0.8,1.5 l -3.8,7.2 c -0.6,1 -1.4,1.5 -3.9,1.5 H 62.3 c -0.3,0 -0.6,0.3 -0.6,0.6 0,0.3 0.3,0.6 0.6,0.6 h 14.6 c 1.7,0 2.3,0.8 1.6,2 L 71,202.8 c -0.5,0.6 -1.7,0.7 -3.7,0.7 H 52.6 c -0.3,0 -0.6,0.3 -0.6,0.6 0,0.3 0.3,0.6 0.6,0.6 h 14.5 c 1.8,0 2.9,0.1 2.3,1 l -4.3,8.2 c -0.8,1.3 -3.1,1.3 -3.9,1.3 h -4.6 c -0.3,0 -0.6,0.3 -0.6,0.6 0,0.3 0.3,0.6 0.6,0.6 h 4.6 c 1.6,0 2.5,0.3 2.1,1.2 l -5.8,10.9 c -0.5,1 -2.8,1 -4.5,1 H 30.3 c -0.3,0 -0.6,0.3 -0.6,0.6 0,0.3 0.3,0.6 0.6,0.6 h 22.6 c 1.5,0 3.3,0.2 2.7,1.4 l -3.7,7 c -0.4,0.6 -1.6,0.6 -3.4,0.6 h -4.6 c -0.3,0 -0.6,0.3 -0.6,0.6 0,0.3 0.3,0.6 0.6,0.6 h 4.6 c 1.1,0 2.5,0.1 2,1 l -2.3,4.4 c -0.8,1.1 -1.5,2.1 -3.2,2.1 H 33.3 c -4.1,0 -4,2.8 -0.4,2.8 h 66.5 c 2,0 2,-0.3 3,-1.7 l 9.8,-17.2 h 50.4 c 3.7,-1 2.7,-3.8 0.6,-3.9 m -39.6,-5.1 c -0.5,2.9 -3.3,4.7 -6.9,5.6 l -3.7,0.9 3.1,-5.5 c 0.8,-1.5 -1,-2.4 -2.9,-0.2 -12.9,15 -16.9,22.2 -36.8,22.3 H 71 c -1.6,0 -3.3,-0.6 -2.3,-2.2 l 7,-13.1 h 26.7 c 3.6,0 2.7,-2.8 0.6,-2.9 -1.4,0 -3,-0.9 -4,-2.6 -0.3,-0.5 -1,-2.4 0.1,-3.8 l 10.2,-13.6 h 16.8 z m 3.9,-17.1 H 111 l 21,-27.7 z"
   id="path6" />
	<path
   class="st3"
   d="m 379.6,214.7 c -0.3,-1.4 -0.8,-0.5 -1.7,1.2 -0.3,0.5 -1.2,0.5 -2,0.5 h -2.7 c -0.3,0 -0.6,0.3 -0.6,0.6 0,0.3 0.3,0.6 0.6,0.6 h 2.7 c 1,0 1,0.7 0.6,1.7 -1.9,3.9 -3.7,6.5 -6.2,9.7 -0.4,0.5 -1.4,0.9 -2.2,0.9 h -2.7 c -0.3,0 -0.6,0.3 -0.6,0.6 0,0.3 0.3,0.6 0.6,0.6 h 2.7 c 1.3,0 0,0.8 -0.2,1.1 -4.6,6.2 -7.9,9 -11.2,11.7 -0.4,0.3 -2.4,0.2 -3.6,0.2 h -2.7 c -0.3,0 -0.6,0.3 -0.6,0.6 0,0.3 0.3,0.6 0.6,0.6 h 2.6 c 2,0 0.5,1.2 0.2,1.4 -7.3,6 -18,8 -22.9,7.4 -16.1,-2 -19.3,-14.2 -20.5,-19 -0.3,-1 -1,-3.1 -1.3,-4.4 -0.5,-2.6 6.7,-3.2 8.8,-2 3.1,2.1 10,4.1 15.7,4.1 5.1,0 15.7,-3.7 18.7,-12.5 3.2,-9.1 -4.7,-19 -8.2,-22.6 -4.4,-4.4 -8.6,-11.4 -6.8,-16.6 1.3,-3.8 3.5,-5.6 8.3,-5.6 6.1,0 10.6,3.9 10.6,9.6 0,0.5 -0.3,1.1 -0.7,1.1 h -2.2 c -0.3,0 -0.6,0.3 -0.6,0.6 0,0.3 0.3,0.6 0.6,0.6 h 2.1 c 0.6,0 0.9,0.4 0.8,1.2 -0.4,1.9 -0.5,3.2 -1,5 -0.2,1.1 1.4,1.9 1.9,1.1 l 9.7,-17.2 c 0.7,-1.3 -0.9,-1.7 -2,-1.3 -2.7,0.9 -6.9,1.6 -8.5,0.5 -3.6,-2.6 -6.9,-4.2 -11.9,-4.2 -8.6,0 -14.6,2.1 -18.4,9.2 -0.3,0.6 -1.2,0.5 -1.9,0.5 h -1.7 c -0.3,0 -0.6,0.3 -0.6,0.6 0,0.3 0.3,0.6 0.6,0.6 h 1.4 c 0.6,0 1,0.2 0.7,0.9 -0.3,0.6 -0.5,1.3 -0.7,2 -1,3.1 -0.7,7.3 0.9,11.1 0.1,0.3 -0.2,0.4 -0.8,0.4 h -2.7 c -0.3,0 -0.6,0.3 -0.6,0.6 0,0.3 0.3,0.6 0.6,0.6 h 2.7 c 1.2,0 1.5,0.1 2,0.8 1.4,1.9 2.8,3.3 4.4,5.5 0.6,0.7 -1.8,0.9 -3.1,0.9 h -10.3 c -0.3,0 -0.6,0.3 -0.6,0.6 0,0.3 0.3,0.6 0.6,0.6 h 10.5 c 1.7,0 4.6,0 4.9,0.3 2.6,3 5.6,7.5 6.1,11.2 0.1,1.1 -0.3,1.6 -1.6,1.6 h -1.4 c -0.3,0 -0.6,0.3 -0.6,0.6 0,0.3 0.3,0.6 0.6,0.6 h 1.3 c 1.1,0 1.7,0.2 1.4,1 -1.4,4.3 -3.4,7.5 -11.7,7.5 -8.8,0 -10.5,-8.6 -8,-17.5 0.5,-1.8 0,-2.6 -0.8,-1.2 l -6.1,9.6 c -0.2,0.2 -0.7,0.8 -1.7,0.8 h -0.9 c -0.3,0 -0.6,0.3 -0.6,0.6 0,0.3 0.3,0.6 0.6,0.6 0.8,0 1.1,0.4 0.8,0.8 l -2.3,3.4 c -3.6,-8.4 -9.8,-18.7 -13.1,-22.5 l 0.1,-0.2 c 8.1,-0.5 20,-8.1 22,-14.9 3.3,-11.7 -8.1,-16.1 -14.3,-16.1 h -27.4 c -3.6,0 -3.9,2.8 -0.4,2.8 1.9,0 3.5,1.7 2.7,3.3 l -6.1,10.9 c -0.5,0.9 -2.4,0.9 -4.8,0.9 h -2.7 c -0.3,0 -0.6,0.3 -0.6,0.6 0,0.3 0.3,0.6 0.6,0.6 h 2.6 c 1.8,0 3.6,0.1 3.1,1.4 l -7.2,12.9 c -0.4,0.6 -1.3,0.7 -3.7,0.7 h -2.7 c -0.3,0 -0.6,0.3 -0.6,0.6 0,0.3 0.3,0.6 0.6,0.6 h 2.6 c 2,0 2.7,0.3 2.1,1.3 l -9.6,17.3 c -1.2,1.3 -2.5,1.5 -4.8,1.5 -3.4,0 -3.4,2.8 0.2,2.8 h 23.4 c 3.6,0 2.8,-2.9 0.6,-2.9 -1.3,0 -2.6,-2.4 -1.8,-3.7 l 11.9,-22.7 h 1.2 c 5.3,0 6.6,8.8 7.6,18.2 0.1,0.7 -1.2,0.7 -3.8,0.7 h -6.7 c -0.3,0 -0.6,0.3 -0.6,0.6 0,0.3 0.3,0.6 0.6,0.6 h 6.6 c 1.8,0 4.1,0 4.2,0.6 0.5,4.1 0.8,7.9 1.6,11.2 0.3,1.1 -1.6,0.9 -3.6,0.9 H 278 c -0.3,0 -0.6,0.3 -0.6,0.6 0,0.3 0.3,0.6 0.6,0.6 h 8.5 c 2.7,0 4,0 4.1,0.5 3.6,13.4 19.3,23.9 34.5,23.3 13,-0.5 24,-7.6 29.6,-12.1 7.5,-6 18.5,-18.6 23,-27.8 0.8,-2 2.2,-4.2 1.9,-5.7 m -87.8,-17.8 c -1.9,1.5 -4.7,3.2 -5.2,2.7 -0.8,-0.8 -3.2,-2.5 -4.5,-3.1 l 10.8,-19.8 c 0.5,-0.7 1,-1.1 2.2,-1.1 4.2,0 5.6,4.6 3.6,10.3 -1.4,4 -3.6,8.4 -6.9,11"
   id="path7" />
	<path
   class="st3"
   d="m 160,155.7 c -2.2,2.9 -5.1,3.5 -8.4,3.5 h -0.9 l 5.8,-11.4 c 0.3,-0.5 0.9,-0.9 1.7,-0.9 0.7,0 0.6,-1.5 -0.3,-1.5 h -9.1 c -0.8,0 -1.1,1.5 -0.3,1.5 0.8,0 0.9,0.9 0.6,1.6 l -5.1,10.1 c -0.4,0.6 -0.9,0.7 -1.6,0.9 -0.8,0.2 -1.3,1.6 -0.4,1.6 h 14.5 c 1.1,0 1.4,-0.4 1.7,-0.8 l 3,-4.5 c 0,-0.5 -0.8,-0.6 -1.2,-0.1"
   id="path8" />
	<path
   class="st3"
   d="m 304.2,149.9 1.3,-2.4 c 0.6,-1 -0.4,-2.2 -1.8,-2.2 h -16.9 c -1.2,0 -0.9,1.3 -0.4,1.3 1.1,0 1.4,1.3 0.8,2.5 l -5.1,9.4 c -0.8,0.9 -1.3,1.3 -2.4,1.3 -0.9,0 -1.2,1.3 0,1.3 h 17.1 c 0.7,0 1,-0.3 1.3,-0.6 l 2.4,-3.1 c 0.6,-0.8 -0.7,-0.8 -1,-0.4 -3,3 -6.1,2.9 -8.5,2.9 h -2 l 2.4,-5.2 h 0.5 c 1.5,0 3.2,0 3.7,1.2 0.1,0.3 0.9,0.5 1.2,0 l 2,-4 c 0.3,-0.6 -0.6,-0.7 -0.8,-0.3 -0.8,1.4 -4.2,1 -5.2,1 h -0.5 l 3,-5.8 h 3.2 c 2.1,0 3.7,1.5 4.3,3 0.2,0.3 1.2,0.6 1.4,0.1"
   id="path9" />
	<path
   class="st3"
   d="m 367.6,145.9 c -0.4,0.2 -1.5,0.4 -2,0 -1.2,-1 -3.4,-1.7 -4.6,-1.7 -3.4,0 -5.9,0.7 -7.4,3.9 -1.3,2.8 0,5 3.1,6.5 1.3,0.6 3.1,1.4 2.4,3 -0.5,1.2 -1.9,1.3 -3.1,1.3 -1.6,0 -4,-1.2 -4.4,-3.5 -0.1,-0.8 -1,-0.6 -1.3,-0.2 l -2.1,4.1 c -0.3,0.6 0.5,1.2 0.9,0.8 0.7,-0.8 2.3,-0.9 3,-0.4 1,0.7 3.6,1.9 5.2,1.9 3.4,0 5.7,-0.9 7.7,-3.8 1.8,-2.8 0.7,-5.4 -2.5,-6.9 -1.7,-0.8 -3.1,-2.2 -2.4,-3.7 0.5,-1 2,-0.8 2.8,-0.7 1.4,0.2 3.2,1.6 3.4,2.8 0.1,0.5 0.7,0.6 1,0.1 l 1.1,-2.6 c 0.2,-0.7 -0.6,-1.1 -0.8,-0.9"
   id="path10" />
	<path
   class="st3"
   d="m 322.2,155.7 c -2.2,2.9 -5.1,3.5 -8.4,3.5 h -0.9 l 5.8,-11.4 c 0.3,-0.5 0.9,-0.9 1.7,-0.9 0.7,0 0.6,-1.5 -0.3,-1.5 H 311 c -0.8,0 -1.1,1.5 -0.3,1.5 0.8,0 0.9,0.9 0.6,1.6 l -5.1,10.1 c -0.4,0.6 -0.9,0.7 -1.6,0.9 -0.8,0.2 -1.3,1.6 -0.4,1.6 h 14.5 c 1.1,0 1.4,-0.4 1.7,-0.8 l 3,-4.5 c 0,-0.5 -0.8,-0.6 -1.2,-0.1"
   id="path11" />
	<path
   class="st3"
   d="m 344,146.8 c 2.1,0 3.7,1.5 4.3,3 0.1,0.4 1.2,0.7 1.5,0.2 l 1.3,-2.4 c 0.6,-1 -0.4,-2.2 -1.8,-2.2 h -16.9 c -1.2,0 -0.9,1.3 -0.4,1.3 1.1,0 1.4,1.3 0.8,2.5 l -5.1,9.4 c -0.8,0.9 -1.3,1.3 -2.4,1.3 -0.9,0 -1.2,1.3 0,1.3 h 17.1 c 0.7,0 1,-0.3 1.3,-0.6 l 2.4,-3.1 c 0.6,-0.8 -0.7,-0.8 -1,-0.4 -3,3 -6.1,2.9 -8.5,2.9 h -2 l 2.4,-5.2 h 0.5 c 1.5,0 3.2,0 3.7,1.1 0.1,0.3 0.9,0.5 1.2,0 l 2,-4 c 0.3,-0.6 -0.6,-0.7 -0.8,-0.3 -0.8,1.4 -4.2,1 -5.2,1 h -0.5 l 3,-5.8 h 3.2 v 0 z"
   id="path12" />
	<path
   class="st3"
   d="m 260.9,145.4 h -6 c -1.2,0 -0.9,1.3 -0.4,1.3 1.3,0 2.5,1.5 1.8,2.9 l -2.5,4.5 -5.5,-8.1 c -0.4,-0.5 -1.3,-0.8 -2,-0.8 h -5.9 c -1.2,0 -1,1.3 -0.4,1.3 1.3,0 0.9,1 0.6,1.6 l -4.7,9.1 c -0.3,0.7 -1.6,0.8 -2,-0.1 l -3.6,-11.9 c -0.2,-0.5 -2.3,-0.5 -2.9,0 l -9.2,7.6 h -4.7 c -1,0 -1.3,0.4 -1.3,0.9 0,0.5 0.4,1 1.4,1 h 2.5 l -2.5,2.1 c -1.4,1 -2.8,2.5 -3.7,2.5 h -0.6 c -0.9,0 -1.4,0.1 -1.4,0.9 0,0.7 0.4,1 1.2,1 h 7.4 c 1.4,0 1.1,-1.8 0.4,-1.8 -0.8,0 -2.1,-1 -0.9,-2.4 l 2.3,-2.2 h 4.4 c 2.7,0 4.4,3.1 3,4 l -1.2,0.7 c -0.6,0.3 -0.8,1.7 0,1.7 H 239 c 1.1,0 0.9,-1.4 0.4,-1.4 -1.5,0 -0.8,-2.2 -0.5,-2.7 l 3.8,-7.2 5.3,10.3 c 0.4,0.7 0.7,1 1.3,1 h 2.1 c 0.7,0 0.9,-0.4 1.2,-0.9 l 6.1,-10.9 c 1,-2 1.8,-2.6 3,-2.6 0.1,0 0.5,-1.4 -0.8,-1.4 m -40.4,7.5 5.6,-4.6 v 4.6 z"
   id="path13" />
	<path
   class="st3"
   d="m 175.4,144.8 c -5.1,0 -10.3,2.5 -11.3,7.9 -0.9,4.6 2.3,9.5 8,9.5 5.4,0 10.3,-3.5 11.4,-8.7 0.9,-5.2 -3,-8.7 -8.1,-8.7 m 1.4,9.8 c -1.6,3.2 -4.3,5.1 -6,4.2 -1.7,-0.9 -1.8,-4.1 -0.2,-7.4 1.6,-3.2 4.3,-5.1 6,-4.2 1.8,0.9 1.9,4.1 0.2,7.4"
   id="path14" />
	<path
   class="st3"
   d="m 203.6,145.9 c -0.4,0.2 -1.5,0.4 -2,0 -1.2,-1 -3.4,-1.7 -4.6,-1.7 -3.4,0 -5.9,0.7 -7.4,3.9 -1.3,2.8 0,5 3.1,6.5 1.3,0.6 3.1,1.4 2.4,3 -0.5,1.2 -1.9,1.3 -3.1,1.3 -1.6,0 -4,-1.2 -4.4,-3.5 -0.1,-0.8 -1,-0.6 -1.3,-0.2 l -2.1,4.1 c -0.3,0.6 0.5,1.2 0.9,0.8 0.7,-0.8 2.2,-0.9 3,-0.4 1,0.7 3.6,1.9 5.2,1.9 3.4,0 5.7,-0.9 7.7,-3.8 1.8,-2.8 0.7,-5.4 -2.5,-6.9 -1.7,-0.8 -3.1,-2.2 -2.4,-3.7 0.5,-1 2,-0.8 2.8,-0.7 1.4,0.2 3.2,1.6 3.4,2.8 0.1,0.5 0.7,0.6 1,0.1 l 1.1,-2.6 c 0.3,-0.7 -0.5,-1.1 -0.8,-0.9"
   id="path15" />
	<path
   class="st3"
   d="m 278.1,152.5 h -6.5 c -1.2,0 -0.9,1.3 -0.4,1.3 0.5,0 1,0.3 1,1.1 0,2.7 -1.1,3.6 -3.3,3.6 -2.5,0 -3.3,-3.1 -1.7,-6.7 1.1,-2.4 3.9,-4.5 7.3,-4.5 2.1,0 3.7,0.5 4,2.4 0.1,0.5 0.8,0.5 1,0 l 1.6,-2.8 c 0.2,-0.3 -0.1,-0.7 -0.6,-0.7 -0.4,0 -1.3,0.5 -1.9,0.1 -1.3,-1 -4.1,-1.9 -6.3,-1.9 -3.5,0 -8.4,0.8 -11.7,6.5 -3,5.2 1.4,10.6 5.4,10.6 2.3,0 4.8,-1.7 6.3,-2.3 l 1.7,1.1 c 0.3,0.3 0.8,0.7 1.3,0.7 h 0.6 c 0.6,0 0.8,-0.8 1,-1.3 l 2.6,-6.2 c 0.2,-0.5 0,-1 -1.4,-1"
   id="path16" />
</g>
</svg>
