<?xml version="1.0" encoding="UTF-8" standalone="no"?>
<!-- Generator: Adobe Illustrator 27.5.0, SVG Export Plug-In . SVG Version: 6.00 Build 0)  -->

<svg
   version="1.1"
   id="Layer_1"
   x="0px"
   y="0px"
   viewBox="0 0 299.52365 299.70001"
   xml:space="preserve"
   sodipodi:docname="MIN.svg"
   width="299.52365"
   height="299.70001"
   inkscape:version="1.4 (86a8ad7, 2024-10-11)"
   xmlns:inkscape="http://www.inkscape.org/namespaces/inkscape"
   xmlns:sodipodi="http://sodipodi.sourceforge.net/DTD/sodipodi-0.dtd"
   xmlns="http://www.w3.org/2000/svg"
   xmlns:svg="http://www.w3.org/2000/svg"><defs
   id="defs19" /><sodipodi:namedview
   id="namedview19"
   pagecolor="#ffffff"
   bordercolor="#000000"
   borderopacity="0.25"
   inkscape:showpageshadow="2"
   inkscape:pageopacity="0.0"
   inkscape:pagecheckerboard="0"
   inkscape:deskcolor="#d1d1d1"
   inkscape:zoom="2.9375"
   inkscape:cx="149.44681"
   inkscape:cy="149.95745"
   inkscape:window-width="3440"
   inkscape:window-height="1377"
   inkscape:window-x="-8"
   inkscape:window-y="-8"
   inkscape:window-maximized="1"
   inkscape:current-layer="Layer_1" />
<style
   type="text/css"
   id="style1">
	.st0{fill:#A0A2A3;}
	.st1{fill:#0C233F;}
	.st2{fill:#79BC43;}
	.st3{fill:#FFFFFF;}
	.st4{fill:#266092;}
</style>
<g
   id="g8"
   transform="translate(-50.393284,-50)">
	<path
   class="st0"
   d="M 200.2,349.7 C 136.5,349.7 79.6,309.2 58.7,249 31.6,171 73,85.4 151,58.3 166.9,52.8 183.4,50 200.1,50 c 63.7,0 120.6,40.5 141.5,100.7 l 0.7,2 v 0 c 25.7,77.5 -15.7,161.8 -93.1,188.6 -15.8,5.6 -32.3,8.4 -49,8.4"
   id="path1" />
	<path
   class="st1"
   d="m 323.6,132.1 c -18.1,-33 -47.9,-56.9 -84.1,-67.4 -6.2,-1.8 -12.6,-3.2 -19,-4.1 v 0 0 C 151.4,50.4 84.5,93.4 65,160.6 c -10.5,36.1 -6.3,74.1 11.8,107.1 18.1,33 48,56.9 84.1,67.4 6.2,1.8 12.6,3.2 19,4.1 14.1,2.1 28.2,1.9 41.7,-0.2 0.2,0.1 0.3,0.2 0.5,0.3 l 0.2,-0.4 c 52.5,-8.4 97.7,-46.4 113.2,-99.7 10.4,-36.1 6.2,-74.1 -11.9,-107.1 z"
   id="path2" />
	<path
   class="st2"
   d="m 191.7,160.2 c 0,0 -1.9,5.2 -2.1,10.1 0,0 -11.9,1.8 -17.6,5.6 0,0.1 11.8,-11.8 19.7,-15.7"
   id="path3" />
	<path
   class="st3"
   d="m 271.7,159.7 c 1.3,-0.3 2.3,-0.4 3,-0.3 -0.2,-0.6 -0.6,-1.5 -1.4,-2.4 -1,-1.3 -2.6,-2.2 -2.6,-2.2 1.1,1.5 1.1,3.5 1,4.9"
   id="path4" />
	<path
   class="st3"
   d="m 261,165.1 c 1.5,-1.1 2.9,-1.9 4.2,-2.6 -0.2,-0.6 -0.6,-1.3 -1.1,-2.3 -1,-1.8 -3.7,-3.4 -3.7,-3.4 1.1,3.2 0.9,6.5 0.6,8.3"
   id="path5" />
	<path
   class="st0"
   d="m 133.6,245.2 c -10.1,4.1 -34,-1.5 -34,-1.5 24.1,-1.4 47.7,-18.7 47.7,-18.7 0,0 0,0.1 -0.1,0.1 -7.1,10.9 -16.8,17.1 -16.8,17.1 1.2,1.5 2.2,2.4 3.2,3"
   id="path6" />
	<path
   class="st2"
   d="m 253.9,101.3 c 0,0 -5.9,-4.6 -12.7,2.6 7.3,-13.2 11.5,-5.7 12.7,-2.6"
   id="path7" />
	<path
   class="st0"
   d="m 277.4,165 c 0,0 -0.6,-0.4 -0.8,-0.5 -3.8,-2 -10.5,3.8 -14.9,6.3 -4.4,2.4 -10.8,7.6 -14,0.5 -3.1,-7.1 4.1,-18.2 6.6,-25.3 5.5,-15.5 5.7,-24.6 4.5,-29.5 5.1,5.7 6.7,16.8 6.7,16.8 0,0 1.9,-20.7 -8.2,-26.1 0.2,0.7 0,3.3 -0.2,5.3 0,0 0,0 0,0 -4.7,0.9 -15.1,-0.3 -18.5,-2.1 -12.8,13.7 -26.7,32.8 -37.2,50.3 -4.5,9.3 -9,20.1 -10.1,29 0,0 -1.4,-4 -1.8,-9.3 -5.8,2.2 -25.5,11.9 -29.7,41.6 0,0 12.5,-12.9 26.4,-18 0,0 -8.8,23 8,63.7 0,0 6.8,-25 21,-31.3 8.6,42.7 33.8,43.4 41.1,72.4 0,0 7.7,-15 -1.6,-40.6 0,0 3.2,0.9 5.9,4.1 0,0 -0.4,-7.5 -7.4,-23.6 -4.6,-8.6 -6,-20.3 -6,-20.3 -4.1,3.7 -5.1,16.2 -5.1,16.2 -12.5,-33.9 23,-67.5 29.5,-72.5 3.2,-2.4 5.1,-2.5 6.3,-1.9 1.1,-2.5 0.9,-4.1 -0.5,-5.2"
   id="path8" />
</g>
<path
   class="st4"
   d="m 128.10672,44.3 c 8.9,-3.6 18.7,-7.4 28,-10.5 11.8,-4.3 22.3,-6.7 30.5,-7.9 -0.2,-0.1 -0.4,-0.1 -0.6,-0.2 -5.8,-1.7 -11.6,-3 -17.5,-3.8 -16,-2.4 -31.9,-1.6 -47.1,1.8 -0.9,2.8 -2.1,8.3 -0.1,13.3 1.2,3 3.5,5.4 6.8,7.3"
   id="path9" />
<path
   class="st4"
   d="m 57.506716,133.3 c 4.6,-14.3 10.7,-26.4 17.2,-36.5 1,-2 2.6,-5 4.6,-8.6 -24.9,-2.7 -47.5,23.9 -56.2,35.8 -7.2,34.9 0.6,70 19.3,97.9 4.4,-7 11.2,-17.7 11.2,-17.7 -10,-3.5 -20,-12.4 -20,-12.4 5.6,-3.5 11.1,-7.6 16.4,-12 0.3,-16 2.7,-31.6 7.5,-46.5"
   id="path10" />
<path
   class="st4"
   d="m 62.506716,54.4 c 0.6,0 1.3,0 2,0 12.2,-0.7 29.7,-0.2 39.700004,0.2 4.2,-1.9 9.3,-4.1 15,-6.5 -2.5,-2.3 -4.4,-5 -5.6,-8.1 -1.9,-4.9 -1.9,-9.9 -1.2,-13.9 -18.500004,5.5 -35.600004,15.2 -49.900004,28.3"
   id="path11" />
<path
   class="st4"
   d="m 218.40672,259.5 c 13.6,-8.5 25.7,-19.6 35.5,-32.8 -4.9,-24.4 -20.3,-50.7 -40.9,-75 -3.4,8.1 -5.2,17 -5.4,29.9 -0.3,15.4 11.5,25.3 12.2,53.6 0,0 -3.4,-2.4 -4.8,-3 0,0 2.5,12.2 3.4,27.3"
   id="path12" />
<path
   class="st4"
   d="m 109.50672,80.7 c -3.5,1.7 -7.4,3.7 -11.200004,5.8 8.100004,5.3 14.600004,13.4 19.900004,23.1 14.1,-10.9 27.2,-11.1 27.2,-11.1 1.2,-1.5 2.3,-2.9 3.4,-4.3 -4.4,-3 -8.8,-5.8 -13.3,-8.5 -6.2,-2.2 -21,-4.3 -26,-5"
   id="path13" />
<path
   class="st4"
   d="m 176.60672,62.8 c -1.8,-0.2 -3.6,-0.4 -5.5,-0.6 l -1,-0.1 c -1.1,-0.1 -2.3,-0.2 -3.7,-0.3 -7.1,-0.5 -18.5,-1.4 -32.1,-6.1 -2.8,3.1 -5.1,6.3 -6.8,9.1 3.5,3.6 10.2,10.6 13.5,14.3 4.4,2.7 8.8,5.5 13.2,8.5 8.3,-9.9 15.5,-17.6 22.4,-24.8"
   id="path14" />
<path
   class="st4"
   d="m 28.706716,104.4 c 13.2,-13.6 32.9,-28.2 54.9,-23.9 1.7,-3.1 3.5,-6.2 5.1,-9 -6.9,-4.5 -11.1,-7.8 -23,-8.8 -4.9,-0.1 -8.9,0 -11.8,0.2 -10.7,11.8 -19.3,25.8 -25.2,41.5"
   id="path15" />
<path
   class="st4"
   d="m 274.00672,186 c 4.6,-15.7 6,-31.5 4.7,-46.9 -3.6,-16.5 -15.9,-48 -57.6,-65.4 1.3,12.4 -1.4,24.3 -1.4,24.3 0,0 7.7,4.5 9.6,13 0,0 1,0.4 1.8,1.6 2.2,2.6 5,8.7 0.5,20.8 0,0 -2.6,-5.6 -8.2,0.4 -2.4,3.4 -4.5,6.5 -6.3,9.6 20.3,23.4 36.2,49 43,73.9 5.9,-9.5 10.6,-20 13.9,-31.3"
   id="path16" />
<path
   class="st4"
   d="m 198.90672,41.8 c 3.8,1.4 5.8,3.7 7.2,6.9 7.2,3 11.2,9.1 13.3,16 17.4,6.6 35.7,17.1 49.2,33.9 -12.3,-28.5 -34.8,-52.4 -64.2,-66 v 0.2 c -0.4,0 -27.6,-0.6 -61.2,15.7 -0.6,0.3 -1.2,0.7 -1.7,1.1 10.5,3.1 19.3,3.7 25.5,4.1 1.5,0.1 2.8,0.2 3.9,0.3 l 0.9,0.1 c 3.1,0.3 7.1,0.7 11.7,1.4 4.2,-7.8 11.2,-12.8 15.4,-13.7"
   id="path17" />
<path
   class="st4"
   d="m 111.90672,115.2 c -5.5,-10.7 -12.500004,-19.2 -21.400004,-23.7 -2,1.4 -3.7,2.9 -5.2,4.4 -14.2,20 -24.6,45.8 -26.5,76.4 22.7,-20.8 41.600004,-45.6 53.100004,-57.1"
   id="path18" />
<path
   class="st2"
   d="m 124.60672,52.8 -8.9,13 c 0,0 6.8,4.7 12.3,11.1 -9.7,-2 -20.4,-3.8 -20.4,-3.8 l -16.900004,9.2 7.9,-13.2 c 0,0 -5.3,-4.6 -11.5,-8.5 6.8,0.2 19.600004,1.3 19.600004,1.3 z"
   id="path19" />
</svg>
