<?xml version="1.0" encoding="UTF-8" standalone="no"?>
<!-- Generator: Adobe Illustrator 24.0.1, SVG Export Plug-In . SVG Version: 6.00 Build 0)  -->

<svg
   version="1.1"
   id="Layer_1"
   x="0px"
   y="0px"
   viewBox="0 0 393.79999 153"
   xml:space="preserve"
   sodipodi:docname="NO.svg"
   width="393.79999"
   height="153"
   inkscape:version="1.4 (86a8ad7, 2024-10-11)"
   xmlns:inkscape="http://www.inkscape.org/namespaces/inkscape"
   xmlns:sodipodi="http://sodipodi.sourceforge.net/DTD/sodipodi-0.dtd"
   xmlns="http://www.w3.org/2000/svg"
   xmlns:svg="http://www.w3.org/2000/svg"><defs
   id="defs55" /><sodipodi:namedview
   id="namedview55"
   pagecolor="#ffffff"
   bordercolor="#000000"
   borderopacity="0.25"
   inkscape:showpageshadow="2"
   inkscape:pageopacity="0.0"
   inkscape:pagecheckerboard="0"
   inkscape:deskcolor="#d1d1d1"
   inkscape:zoom="2.9375"
   inkscape:cx="196.08511"
   inkscape:cy="74.042553"
   inkscape:window-width="3440"
   inkscape:window-height="1377"
   inkscape:window-x="-8"
   inkscape:window-y="-8"
   inkscape:window-maximized="1"
   inkscape:current-layer="Layer_1" />
<style
   type="text/css"
   id="style1">
	.st0{fill:#B4975A;}
	.st1{fill:#0A2240;}
	.st2{fill:#FFFFFF;}
	.st3{fill:#CE0E2D;}
</style>
<g
   id="g55"
   transform="translate(-3.6,-126)">
	<path
   class="st0"
   d="M 397.4,174.1 394,172 C 341.8,141.6 266,126.5 231.2,126 h -0.5 c -5.7,0 -9.7,2 -11.8,5.9 -1.8,3.3 -1.6,6.6 -0.7,9.5 -0.6,-0.7 -1.5,-1.4 -2.4,-2.1 -2.8,-2.1 -6.1,-3.8 -6.1,-3.8 0,0 0.4,2.7 -0.6,2.4 -0.5,-0.2 -1.1,-0.4 -1.7,-0.7 -2.8,-1.3 -6.9,-3.8 -6.9,-3.8 0,0 -4.2,2.5 -7,3.8 -0.6,0.3 -1.2,0.5 -1.7,0.7 -1,0.3 -0.6,-2.4 -0.6,-2.4 0,0 -3.3,1.7 -6.1,3.8 -0.9,0.7 -1.8,1.4 -2.4,2.1 0.9,-2.8 1.1,-6.1 -0.7,-9.5 -2.1,-3.9 -6,-5.9 -11.8,-5.9 h -0.5 C 135,126.6 59.2,141.6 7,172 l -3.4,2.1 c 0,0 5.1,13.1 17.8,16.8 l -1.7,0.8 c 0,0 7.2,11.6 18.3,14 l -2.1,0.9 c 0,0 7.8,12.7 23,15.3 l -2.2,1.1 c 0,0 10.8,11.7 27.5,12.8 l -2.4,1.8 c 0,0 11,7.3 27.3,9.2 l -2.6,2.3 c 0,0 28.8,10.5 52.9,1.8 6.7,16.7 23,28.1 41.3,28.1 v 0 0 c 18.3,0 34.7,-11.3 41.3,-28.1 24.1,8.8 52.9,-1.8 52.9,-1.8 l -2.6,-2.3 c 16.2,-1.8 27.3,-9.2 27.3,-9.2 l -2.4,-1.8 c 16.6,-1 27.5,-12.8 27.5,-12.8 l -2.2,-1.1 c 15.2,-2.7 23,-15.3 23,-15.3 l -2.1,-0.9 c 11.1,-2.4 18.3,-14 18.3,-14 l -1.7,-0.8 c 12.3,-3.7 17.4,-16.8 17.4,-16.8 z"
   id="path1" />
	<g
   id="g28">
		<g
   id="g27">
			<g
   id="g15">
				<path
   class="st1"
   d="m 391.9,175.7 c -51.1,-29.8 -126.1,-44.9 -160.8,-45.5 -4.2,-0.1 -7,0.9 -8.5,3.7 -2.4,4.5 1,9.6 2.4,11.8 3.1,4.7 7.3,12 7.3,20.8 0,17.1 -13.8,29.7 -30.8,29.7 -0.4,0 -0.7,0 -1.1,0 -0.4,0 -0.7,0 -1.1,0 -17,0 -30.8,-12.6 -30.8,-29.7 0,-8.8 4.2,-16.1 7.3,-20.8 1.5,-2.2 4.9,-7.2 2.4,-11.8 -1.5,-2.7 -4.3,-3.7 -8.5,-3.7 C 135,130.8 60,145.9 8.9,175.7 c 0,0.1 8.2,14.1 24.4,12.9 -2.5,1.2 -5,2.5 -7.5,3.8 0,0.2 7.5,12.3 25.4,10.6 -3,1.4 -5.9,2.8 -8.9,4.3 0,0.2 8.6,12.2 27.5,11.8 -4.3,2.2 -7,3.6 -7,3.6 0,0.1 12.5,12.1 32.6,8.8 -2.2,1.6 -4.4,3.3 -7,5.1 0,0 14.8,8.1 32.2,5.6 -2.2,1.7 -4.5,3.4 -6.7,5.2 0,-0.2 26.6,7.3 45.6,-1.1 16.3,-7.2 25.4,-24.8 27.5,-29.2 3.2,0.7 6,1.1 8.2,1.4 0,0.2 3.5,0.5 5.2,0.5 1.7,0.1 5.2,-0.2 5.2,-0.5 2.1,-0.3 5,-0.7 8.2,-1.4 2.1,4.4 11.1,22.1 27.5,29.2 19,8.4 45.6,0.8 45.6,1.1 -2.2,-1.7 -4.5,-3.5 -6.7,-5.2 17.4,2.5 32.2,-5.6 32.2,-5.6 -2.6,-1.8 -4.8,-3.5 -7,-5.1 20.1,3.3 32.6,-8.7 32.6,-8.8 0,0 -2.6,-1.4 -7,-3.6 18.9,0.3 27.4,-11.7 27.5,-11.8 -3,-1.5 -5.9,-2.9 -8.9,-4.3 17.9,1.8 25.3,-10.4 25.4,-10.6 -2.5,-1.3 -5,-2.5 -7.5,-3.8 16.3,1.1 24.4,-12.8 24.4,-12.9 z"
   id="path2" />
				<path
   class="st2"
   d="m 185.8,208 c 0,0 -45.6,-15.3 -25.8,-63.9 0,0 -48.3,2 -114.4,28.7 0,0 -4.6,1.9 -7.3,2.9 -2.7,1 -7.1,2.7 -13.3,-0.3 0,0 60.5,-31.6 138.2,-39 10.2,-1 11.6,0.6 8.9,4.4 -2.2,3.3 -30,38.6 13.7,67.2 z"
   id="path3" />
				<path
   class="st0"
   d="m 145.3,157.9 c -39.1,5.1 -77.4,18.7 -77.4,18.7 6.5,11.6 24.2,6.7 24.2,6.7 33.1,-9.4 47.9,-12.6 52.7,-13.5 -0.2,-3.7 -0.1,-7.6 0.5,-11.9 z"
   id="path4" />
				<path
   class="st0"
   d="m 145.5,176.9 c -6.5,1.3 -33.9,6.9 -61.5,17.2 0,0 8.7,9.9 26,5 14.5,-4.1 33.2,-10.1 38.7,-11.8 -1.4,-3.1 -2.5,-6.6 -3.2,-10.4 z"
   id="path5" />
				<path
   class="st0"
   d="m 151.6,192.8 c -5.9,1.9 -35.4,11.5 -47.9,16.3 0,0 7.1,9.6 27.8,1.5 14.4,-5.7 22.3,-9 25.8,-10.5 -2.1,-2.2 -4,-4.6 -5.7,-7.3 z"
   id="path6" />
				<path
   class="st0"
   d="m 161.9,204.2 c -5.2,2.2 -24.3,10.6 -35.4,15.9 0,0 13.9,6.8 31.5,-4 l 10.9,-7.2 c -2.4,-1.3 -4.8,-2.8 -7,-4.7 z"
   id="path7" />
				<path
   class="st0"
   d="m 174.2,211.8 c -3.5,2.2 -18,11.3 -25.1,16.6 0,0 12,5 24.4,-6.7 4,-3.8 6.2,-5.9 7.4,-7.2 -2.2,-0.7 -4.4,-1.6 -6.7,-2.7 z"
   id="path8" />
				<g
   id="g14">
					<path
   class="st2"
   d="m 215.2,208 c 0,0 45.6,-15.3 25.8,-63.9 0,0 48.3,2 114.4,28.7 0,0 4.6,1.9 7.3,2.9 2.7,1 7.1,2.7 13.3,-0.3 0,0 -60.5,-31.6 -138.2,-39 -10.3,-1 -11.6,0.6 -8.9,4.4 2.3,3.3 30,38.6 -13.7,67.2 z"
   id="path9" />
					<path
   class="st0"
   d="m 255.7,157.9 c 39.1,5.1 77.4,18.7 77.4,18.7 -6.5,11.6 -24.2,6.7 -24.2,6.7 -33.1,-9.4 -47.9,-12.6 -52.7,-13.5 0.3,-3.7 0.1,-7.6 -0.5,-11.9 z"
   id="path10" />
					<path
   class="st0"
   d="m 255.5,176.9 c 6.5,1.3 33.9,6.9 61.5,17.2 0,0 -8.7,9.9 -26,5 -14.5,-4.1 -33.2,-10.1 -38.7,-11.8 1.4,-3.1 2.5,-6.6 3.2,-10.4 z"
   id="path11" />
					<path
   class="st0"
   d="m 249.4,192.8 c 5.9,1.9 35.4,11.5 47.9,16.3 0,0 -7.1,9.6 -27.8,1.5 -14.4,-5.7 -22.3,-9 -25.8,-10.5 2.1,-2.2 4,-4.6 5.7,-7.3 z"
   id="path12" />
					<path
   class="st0"
   d="m 239.1,204.2 c 5.2,2.2 24.3,10.6 35.4,15.9 0,0 -13.9,6.8 -31.5,-4 l -10.9,-7.2 c 2.4,-1.3 4.8,-2.8 7,-4.7 z"
   id="path13" />
					<path
   class="st0"
   d="m 226.8,211.8 c 3.5,2.2 18,11.3 25.1,16.6 0,0 -12,5 -24.4,-6.7 -4,-3.8 -6.2,-5.9 -7.4,-7.2 2.2,-0.7 4.4,-1.6 6.7,-2.7 z"
   id="path14" />
				</g>
			</g>
			<g
   id="g26">
				<g
   id="g18">
					<g
   id="g16">
						<path
   class="st2"
   d="m 237.9,234.5 c 0,20.7 -16.7,37.4 -37.4,37.4 -20.7,0 -37.4,-16.7 -37.4,-37.4 0,-20.6 16.7,-37.4 37.4,-37.4 20.6,0.1 37.4,16.8 37.4,37.4 z"
   id="path15" />
					</g>
					<g
   id="g17">
						<path
   class="st0"
   d="m 230.1,242.3 c 0,16.4 -13.3,29.7 -29.6,29.7 -16.4,0 -29.6,-13.3 -29.6,-29.7 0,-16.4 13.3,-29.6 29.6,-29.6 16.4,-0.1 29.6,13.2 29.6,29.6 z"
   id="path16" />
					</g>
					<path
   class="st1"
   d="m 200.5,194.2 c -22.2,0 -40.3,18.1 -40.3,40.3 0,22.2 18.1,40.3 40.3,40.3 22.2,0 40.3,-18.1 40.3,-40.3 0,-22.2 -18.1,-40.3 -40.3,-40.3 z m 33.8,33.8 c -2.5,10 -9.3,18.1 -18.2,22.6 0.7,-4.9 2.9,-9.8 5.1,-14.9 3.2,-7.3 6.8,-15.4 5.2,-23.9 4,4.6 6.8,10.1 7.9,16.2 z m -51.5,-23 c 4.5,-2.7 9.7,-4.4 15.2,-4.8 v 54.2 c -2.8,-0.2 -5.4,-0.7 -8,-1.5 -0.3,-6.7 -3,-13 -5.7,-19.1 -4.5,-10.1 -8.3,-19 -1.5,-28.8 z m 6.9,53 c 2.7,0.7 5.4,1.2 8.3,1.4 v 9.6 c -4.5,-0.3 -8.8,-1.5 -12.7,-3.4 1.9,-1.9 3.9,-4.4 4.4,-7.6 z m 13.3,1.3 c 2.9,-0.2 5.6,-0.6 8.3,-1.4 0.6,3.2 2.5,5.8 4.4,7.5 -3.9,1.9 -8.2,3.1 -12.7,3.4 z m 8,-6.5 c -2.6,0.8 -5.2,1.4 -8,1.6 v -54.2 c 5.5,0.4 10.7,2.1 15.2,4.8 6.8,9.9 3,18.7 -1.5,28.8 -2.7,6.1 -5.4,12.3 -5.7,19 z m -36.5,-40.9 c -1.5,8.5 2,16.5 5.2,23.9 2.2,5.1 4.4,10 5.1,15 -8.9,-4.4 -15.7,-12.6 -18.2,-22.8 1.2,-6.1 4,-11.6 7.9,-16.1 z m -7.9,28.7 c 4.3,7.1 10.8,12.6 18.4,15.7 0,0.2 0,0.5 -0.1,0.7 -0.4,2.6 -2.5,4.7 -4,5.8 -7.4,-5.1 -12.7,-13.1 -14.3,-22.2 z m 53.6,22.2 c -1.5,-1.2 -3.6,-3.3 -4,-5.8 0,-0.2 -0.1,-0.5 -0.1,-0.7 7.6,-3.2 14,-8.7 18.4,-15.7 -1.7,9.2 -7,17.1 -14.3,22.2 z"
   id="path17" />
				</g>
				<g
   id="g25">
					<path
   class="st1"
   d="m 212.5,141.9 c 0,0 -0.3,1.3 -1.1,1.3 -0.8,0 -5.6,-2.3 -7.9,-3.6 -1,-0.5 -2.4,-1.3 -2.9,-1.6 0,0 -2.1,1.1 -3.1,1.6 -2.3,1.3 -7.2,3.6 -7.9,3.6 -0.8,0 -1.1,-1.3 -1.1,-1.3 0,0 -12.7,7.7 -12.7,28.8 0,15.8 8.2,22.9 8.2,22.9 l 1.1,4.5 h 14 2.8 14 l 1.1,-4.5 c 0,0 8.2,-7.1 8.2,-22.9 0,-21.1 -12.7,-28.8 -12.7,-28.8 z"
   id="path18" />
					<path
   class="st2"
   d="m 218.5,165.4 c 0,-6.5 -2.7,-11.9 -5.5,-15 0,0 -0.1,1.9 -3.2,-0.2 -2.7,-1.8 -5.9,-2.9 -9.3,-2.9 -3.4,0 -6.6,1.1 -9.3,2.9 -3,2.1 -3.2,0.2 -3.2,0.2 -2.9,3.2 -5.5,8.5 -5.5,15 0,5.4 1.3,8.1 1.8,8.9 2.7,6.9 8.9,11.8 16.2,11.8 7.2,0 13.4,-4.8 16.1,-11.6 0.2,-0.2 1.9,-2.8 1.9,-9.1 z"
   id="path19" />
					<path
   class="st1"
   d="m 207.3,180.2 c 0,0 0,-0.1 -0.1,-0.1 0,0 -1.8,-3.4 1.2,-5.7 0,0 6.6,1.4 6.8,-7.4 0,0 -0.2,-0.9 0.8,-2.8 0,0 -1.7,-1.6 -5.4,1.2 -3.7,2.8 -5.7,10.7 -7.7,8.8 -2,-1.8 -1.3,-12.1 -2.3,-12.5 v 0 c -1,0.4 -0.3,10.7 -2.3,12.5 -2,1.9 -4,-6 -7.7,-8.8 -3.7,-2.8 -5.4,-1.2 -5.4,-1.2 0.9,1.9 0.8,2.8 0.8,2.8 0.2,8.8 6.8,7.4 6.8,7.4 2.9,2.3 1.2,5.7 1.2,5.7 0,0 0,0.1 -0.1,0.1 -7.9,-8.5 -12.5,-7.4 -10.3,2.2 2.2,9.4 10.8,49.6 12.2,58.9 -0.2,8.4 -1.2,11.4 -1.4,12 l -0.9,1.7 1,1.9 c 1.5,2.2 2.6,4.7 2.9,5.6 l 3.3,8.3 3.2,-8.3 c 0.4,-1 1.4,-3.4 2.9,-5.6 l 1,-1.8 -0.9,-1.8 c -0.3,-0.6 -1.2,-3.5 -1.4,-11.6 1.1,-8.4 9.9,-49.8 12.2,-59.4 2.1,-9.5 -2.5,-10.6 -10.4,-2.1 z"
   id="path20" />
					<g
   id="g22">
						<path
   class="st3"
   d="m 195.1,222.1 c -2.8,-15 -5.1,-26.1 -6.9,-34.1 -1.4,-6.1 2.3,-3.7 4.3,0.2 z"
   id="path21" />
						<path
   class="st3"
   d="m 205.9,222.1 c 2.9,-15 5.1,-26.1 6.9,-34.1 1.4,-6.1 -2.3,-3.7 -4.3,0.2 z"
   id="path22" />
					</g>
					<g
   id="g24">
						<path
   class="st3"
   d="m 190.6,171.4 c -0.6,-0.2 -0.9,-0.7 -0.7,-1.3 0.1,-0.2 0.2,-0.4 0.4,-0.5 -0.4,-0.4 -0.8,-0.8 -1.3,-1.2 0,0 -0.9,4.3 2.9,3.9 0,0 -0.1,-0.4 -0.4,-0.9 -0.3,0.1 -0.6,0.1 -0.9,0 z"
   id="path23" />
						<path
   class="st3"
   d="m 212.1,168.4 c -0.5,0.4 -1,0.8 -1.3,1.2 0.2,0.1 0.3,0.3 0.4,0.5 0.2,0.6 -0.2,1.1 -0.7,1.3 -0.3,0.1 -0.6,0 -0.8,-0.1 -0.3,0.5 -0.4,0.9 -0.4,0.9 3.7,0.5 2.8,-3.8 2.8,-3.8 z"
   id="path24" />
					</g>
					<path
   class="st3"
   d="m 202.3,227.7 c 1.2,-23.1 3.1,-39.5 3.1,-41.6 0,-0.7 -0.1,-1.7 -0.4,-2.7 l -1.3,4.4 -0.4,-7.8 c -0.7,-0.9 -1.6,-1.7 -2.8,-2.6 h -0.1 c -1.2,0.8 -2,1.7 -2.7,2.6 l -0.4,7.8 -1.4,-4.4 c -0.3,1 -0.4,2 -0.4,2.7 0,2 1.8,18.4 3.1,41.6 1.2,23.1 -1.6,27.4 -1.6,27.4 1.7,2.4 3.5,6.7 3.5,6.7 0,0 1.8,-4.3 3.5,-6.7 0,0 -2.9,-4.3 -1.7,-27.4 z"
   id="path25" />
				</g>
			</g>
		</g>
	</g>
	<g
   id="g54">
		<g
   id="g53">
			<g
   id="g41">
				<path
   class="st1"
   d="m 391.9,175.7 c -51.1,-29.8 -126.1,-44.9 -160.8,-45.5 -4.2,-0.1 -7,0.9 -8.5,3.7 -2.4,4.5 1,9.6 2.4,11.8 3.1,4.7 7.3,12 7.3,20.8 0,17.1 -13.8,29.7 -30.8,29.7 -0.4,0 -0.7,0 -1.1,0 -0.4,0 -0.7,0 -1.1,0 -17,0 -30.8,-12.6 -30.8,-29.7 0,-8.8 4.2,-16.1 7.3,-20.8 1.5,-2.2 4.9,-7.2 2.4,-11.8 -1.5,-2.7 -4.3,-3.7 -8.5,-3.7 C 135,130.8 60,145.9 8.9,175.7 c 0,0.1 8.2,14.1 24.4,12.9 -2.5,1.2 -5,2.5 -7.5,3.8 0,0.2 7.5,12.3 25.4,10.6 -3,1.4 -5.9,2.8 -8.9,4.3 0,0.2 8.6,12.2 27.5,11.8 -4.3,2.2 -7,3.6 -7,3.6 0,0.1 12.5,12.1 32.6,8.8 -2.2,1.6 -4.4,3.3 -7,5.1 0,0 14.8,8.1 32.2,5.6 -2.2,1.7 -4.5,3.4 -6.7,5.2 0,-0.2 26.6,7.3 45.6,-1.1 16.3,-7.2 25.4,-24.8 27.5,-29.2 3.2,0.7 6,1.1 8.2,1.4 0,0.2 3.5,0.5 5.2,0.5 1.7,0.1 5.2,-0.2 5.2,-0.5 2.1,-0.3 5,-0.7 8.2,-1.4 2.1,4.4 11.1,22.1 27.5,29.2 19,8.4 45.6,0.8 45.6,1.1 -2.2,-1.7 -4.5,-3.5 -6.7,-5.2 17.4,2.5 32.2,-5.6 32.2,-5.6 -2.6,-1.8 -4.8,-3.5 -7,-5.1 20.1,3.3 32.6,-8.7 32.6,-8.8 0,0 -2.6,-1.4 -7,-3.6 18.9,0.3 27.4,-11.7 27.5,-11.8 -3,-1.5 -5.9,-2.9 -8.9,-4.3 17.9,1.8 25.3,-10.4 25.4,-10.6 -2.5,-1.3 -5,-2.5 -7.5,-3.8 16.3,1.1 24.4,-12.8 24.4,-12.9 z"
   id="path28" />
				<path
   class="st2"
   d="m 185.8,208 c 0,0 -45.6,-15.3 -25.8,-63.9 0,0 -48.3,2 -114.4,28.7 0,0 -4.6,1.9 -7.3,2.9 -2.7,1 -7.1,2.7 -13.3,-0.3 0,0 60.5,-31.6 138.2,-39 10.2,-1 11.6,0.6 8.9,4.4 -2.2,3.3 -30,38.6 13.7,67.2 z"
   id="path29" />
				<path
   class="st0"
   d="m 145.3,157.9 c -39.1,5.1 -77.4,18.7 -77.4,18.7 6.5,11.6 24.2,6.7 24.2,6.7 33.1,-9.4 47.9,-12.6 52.7,-13.5 -0.2,-3.7 -0.1,-7.6 0.5,-11.9 z"
   id="path30" />
				<path
   class="st0"
   d="m 145.5,176.9 c -6.5,1.3 -33.9,6.9 -61.5,17.2 0,0 8.7,9.9 26,5 14.5,-4.1 33.2,-10.1 38.7,-11.8 -1.4,-3.1 -2.5,-6.6 -3.2,-10.4 z"
   id="path31" />
				<path
   class="st0"
   d="m 151.6,192.8 c -5.9,1.9 -35.4,11.5 -47.9,16.3 0,0 7.1,9.6 27.8,1.5 14.4,-5.7 22.3,-9 25.8,-10.5 -2.1,-2.2 -4,-4.6 -5.7,-7.3 z"
   id="path32" />
				<path
   class="st0"
   d="m 161.9,204.2 c -5.2,2.2 -24.3,10.6 -35.4,15.9 0,0 13.9,6.8 31.5,-4 l 10.9,-7.2 c -2.4,-1.3 -4.8,-2.8 -7,-4.7 z"
   id="path33" />
				<path
   class="st0"
   d="m 174.2,211.8 c -3.5,2.2 -18,11.3 -25.1,16.6 0,0 12,5 24.4,-6.7 4,-3.8 6.2,-5.9 7.4,-7.2 -2.2,-0.7 -4.4,-1.6 -6.7,-2.7 z"
   id="path34" />
				<g
   id="g40">
					<path
   class="st2"
   d="m 215.2,208 c 0,0 45.6,-15.3 25.8,-63.9 0,0 48.3,2 114.4,28.7 0,0 4.6,1.9 7.3,2.9 2.7,1 7.1,2.7 13.3,-0.3 0,0 -60.5,-31.6 -138.2,-39 -10.3,-1 -11.6,0.6 -8.9,4.4 2.3,3.3 30,38.6 -13.7,67.2 z"
   id="path35" />
					<path
   class="st0"
   d="m 255.7,157.9 c 39.1,5.1 77.4,18.7 77.4,18.7 -6.5,11.6 -24.2,6.7 -24.2,6.7 -33.1,-9.4 -47.9,-12.6 -52.7,-13.5 0.3,-3.7 0.1,-7.6 -0.5,-11.9 z"
   id="path36" />
					<path
   class="st0"
   d="m 255.5,176.9 c 6.5,1.3 33.9,6.9 61.5,17.2 0,0 -8.7,9.9 -26,5 -14.5,-4.1 -33.2,-10.1 -38.7,-11.8 1.4,-3.1 2.5,-6.6 3.2,-10.4 z"
   id="path37" />
					<path
   class="st0"
   d="m 249.4,192.8 c 5.9,1.9 35.4,11.5 47.9,16.3 0,0 -7.1,9.6 -27.8,1.5 -14.4,-5.7 -22.3,-9 -25.8,-10.5 2.1,-2.2 4,-4.6 5.7,-7.3 z"
   id="path38" />
					<path
   class="st0"
   d="m 239.1,204.2 c 5.2,2.2 24.3,10.6 35.4,15.9 0,0 -13.9,6.8 -31.5,-4 l -10.9,-7.2 c 2.4,-1.3 4.8,-2.8 7,-4.7 z"
   id="path39" />
					<path
   class="st0"
   d="m 226.8,211.8 c 3.5,2.2 18,11.3 25.1,16.6 0,0 -12,5 -24.4,-6.7 -4,-3.8 -6.2,-5.9 -7.4,-7.2 2.2,-0.7 4.4,-1.6 6.7,-2.7 z"
   id="path40" />
				</g>
			</g>
			<g
   id="g52">
				<g
   id="g44">
					<g
   id="g42">
						<path
   class="st2"
   d="m 237.9,234.5 c 0,20.7 -16.7,37.4 -37.4,37.4 -20.7,0 -37.4,-16.7 -37.4,-37.4 0,-20.6 16.7,-37.4 37.4,-37.4 20.6,0.1 37.4,16.8 37.4,37.4 z"
   id="path41" />
					</g>
					<g
   id="g43">
						<path
   class="st0"
   d="m 230.1,242.3 c 0,16.4 -13.3,29.7 -29.6,29.7 -16.4,0 -29.6,-13.3 -29.6,-29.7 0,-16.4 13.3,-29.6 29.6,-29.6 16.4,-0.1 29.6,13.2 29.6,29.6 z"
   id="path42" />
					</g>
					<path
   class="st1"
   d="m 200.5,194.2 c -22.2,0 -40.3,18.1 -40.3,40.3 0,22.2 18.1,40.3 40.3,40.3 22.2,0 40.3,-18.1 40.3,-40.3 0,-22.2 -18.1,-40.3 -40.3,-40.3 z m 33.8,33.8 c -2.5,10 -9.3,18.1 -18.2,22.6 0.7,-4.9 2.9,-9.8 5.1,-14.9 3.2,-7.3 6.8,-15.4 5.2,-23.9 4,4.6 6.8,10.1 7.9,16.2 z m -51.5,-23 c 4.5,-2.7 9.7,-4.4 15.2,-4.8 v 54.2 c -2.8,-0.2 -5.4,-0.7 -8,-1.5 -0.3,-6.7 -3,-13 -5.7,-19.1 -4.5,-10.1 -8.3,-19 -1.5,-28.8 z m 6.9,53 c 2.7,0.7 5.4,1.2 8.3,1.4 v 9.6 c -4.5,-0.3 -8.8,-1.5 -12.7,-3.4 1.9,-1.9 3.9,-4.4 4.4,-7.6 z m 13.3,1.3 c 2.9,-0.2 5.6,-0.6 8.3,-1.4 0.6,3.2 2.5,5.8 4.4,7.5 -3.9,1.9 -8.2,3.1 -12.7,3.4 z m 8,-6.5 c -2.6,0.8 -5.2,1.4 -8,1.6 v -54.2 c 5.5,0.4 10.7,2.1 15.2,4.8 6.8,9.9 3,18.7 -1.5,28.8 -2.7,6.1 -5.4,12.3 -5.7,19 z m -36.5,-40.9 c -1.5,8.5 2,16.5 5.2,23.9 2.2,5.1 4.4,10 5.1,15 -8.9,-4.4 -15.7,-12.6 -18.2,-22.8 1.2,-6.1 4,-11.6 7.9,-16.1 z m -7.9,28.7 c 4.3,7.1 10.8,12.6 18.4,15.7 0,0.2 0,0.5 -0.1,0.7 -0.4,2.6 -2.5,4.7 -4,5.8 -7.4,-5.1 -12.7,-13.1 -14.3,-22.2 z m 53.6,22.2 c -1.5,-1.2 -3.6,-3.3 -4,-5.8 0,-0.2 -0.1,-0.5 -0.1,-0.7 7.6,-3.2 14,-8.7 18.4,-15.7 -1.7,9.2 -7,17.1 -14.3,22.2 z"
   id="path43" />
				</g>
				<g
   id="g51">
					<path
   class="st1"
   d="m 212.5,141.9 c 0,0 -0.3,1.3 -1.1,1.3 -0.8,0 -5.6,-2.3 -7.9,-3.6 -1,-0.5 -2.4,-1.3 -2.9,-1.6 0,0 -2.1,1.1 -3.1,1.6 -2.3,1.3 -7.2,3.6 -7.9,3.6 -0.8,0 -1.1,-1.3 -1.1,-1.3 0,0 -12.7,7.7 -12.7,28.8 0,15.8 8.2,22.9 8.2,22.9 l 1.1,4.5 h 14 2.8 14 l 1.1,-4.5 c 0,0 8.2,-7.1 8.2,-22.9 0,-21.1 -12.7,-28.8 -12.7,-28.8 z"
   id="path44" />
					<path
   class="st2"
   d="m 218.5,165.4 c 0,-6.5 -2.7,-11.9 -5.5,-15 0,0 -0.1,1.9 -3.2,-0.2 -2.7,-1.8 -5.9,-2.9 -9.3,-2.9 -3.4,0 -6.6,1.1 -9.3,2.9 -3,2.1 -3.2,0.2 -3.2,0.2 -2.9,3.2 -5.5,8.5 -5.5,15 0,5.4 1.3,8.1 1.8,8.9 2.7,6.9 8.9,11.8 16.2,11.8 7.2,0 13.4,-4.8 16.1,-11.6 0.2,-0.2 1.9,-2.8 1.9,-9.1 z"
   id="path45" />
					<path
   class="st1"
   d="m 207.3,180.2 c 0,0 0,-0.1 -0.1,-0.1 0,0 -1.8,-3.4 1.2,-5.7 0,0 6.6,1.4 6.8,-7.4 0,0 -0.2,-0.9 0.8,-2.8 0,0 -1.7,-1.6 -5.4,1.2 -3.7,2.8 -5.7,10.7 -7.7,8.8 -2,-1.8 -1.3,-12.1 -2.3,-12.5 v 0 c -1,0.4 -0.3,10.7 -2.3,12.5 -2,1.9 -4,-6 -7.7,-8.8 -3.7,-2.8 -5.4,-1.2 -5.4,-1.2 0.9,1.9 0.8,2.8 0.8,2.8 0.2,8.8 6.8,7.4 6.8,7.4 2.9,2.3 1.2,5.7 1.2,5.7 0,0 0,0.1 -0.1,0.1 -7.9,-8.5 -12.5,-7.4 -10.3,2.2 2.2,9.4 10.8,49.6 12.2,58.9 -0.2,8.4 -1.2,11.4 -1.4,12 l -0.9,1.7 1,1.9 c 1.5,2.2 2.6,4.7 2.9,5.6 l 3.3,8.3 3.2,-8.3 c 0.4,-1 1.4,-3.4 2.9,-5.6 l 1,-1.8 -0.9,-1.8 c -0.3,-0.6 -1.2,-3.5 -1.4,-11.6 1.1,-8.4 9.9,-49.8 12.2,-59.4 2.1,-9.5 -2.5,-10.6 -10.4,-2.1 z"
   id="path46" />
					<g
   id="g48">
						<path
   class="st3"
   d="m 195.1,222.1 c -2.8,-15 -5.1,-26.1 -6.9,-34.1 -1.4,-6.1 2.3,-3.7 4.3,0.2 z"
   id="path47" />
						<path
   class="st3"
   d="m 205.9,222.1 c 2.9,-15 5.1,-26.1 6.9,-34.1 1.4,-6.1 -2.3,-3.7 -4.3,0.2 z"
   id="path48" />
					</g>
					<g
   id="g50">
						<path
   class="st3"
   d="m 190.6,171.4 c -0.6,-0.2 -0.9,-0.7 -0.7,-1.3 0.1,-0.2 0.2,-0.4 0.4,-0.5 -0.4,-0.4 -0.8,-0.8 -1.3,-1.2 0,0 -0.9,4.3 2.9,3.9 0,0 -0.1,-0.4 -0.4,-0.9 -0.3,0.1 -0.6,0.1 -0.9,0 z"
   id="path49" />
						<path
   class="st3"
   d="m 212.1,168.4 c -0.5,0.4 -1,0.8 -1.3,1.2 0.2,0.1 0.3,0.3 0.4,0.5 0.2,0.6 -0.2,1.1 -0.7,1.3 -0.3,0.1 -0.6,0 -0.8,-0.1 -0.3,0.5 -0.4,0.9 -0.4,0.9 3.7,0.5 2.8,-3.8 2.8,-3.8 z"
   id="path50" />
					</g>
					<path
   class="st3"
   d="m 202.3,227.7 c 1.2,-23.1 3.1,-39.5 3.1,-41.6 0,-0.7 -0.1,-1.7 -0.4,-2.7 l -1.3,4.4 -0.4,-7.8 c -0.7,-0.9 -1.6,-1.7 -2.8,-2.6 h -0.1 c -1.2,0.8 -2,1.7 -2.7,2.6 l -0.4,7.8 -1.4,-4.4 c -0.3,1 -0.4,2 -0.4,2.7 0,2 1.8,18.4 3.1,41.6 1.2,23.1 -1.6,27.4 -1.6,27.4 1.7,2.4 3.5,6.7 3.5,6.7 0,0 1.8,-4.3 3.5,-6.7 0,0 -2.9,-4.3 -1.7,-27.4 z"
   id="path51" />
				</g>
			</g>
		</g>
	</g>
</g>
</svg>
