<?xml version="1.0" encoding="UTF-8" standalone="no"?>
<!-- Generator: Adobe Illustrator 27.4.0, SVG Export Plug-In . SVG Version: 6.00 Build 0)  -->

<svg
   version="1.1"
   id="Layer_1"
   x="0px"
   y="0px"
   viewBox="0 0 250.60001 307.87021"
   xml:space="preserve"
   sodipodi:docname="PHI.svg"
   width="250.60001"
   height="307.87021"
   inkscape:version="1.4 (86a8ad7, 2024-10-11)"
   xmlns:inkscape="http://www.inkscape.org/namespaces/inkscape"
   xmlns:sodipodi="http://sodipodi.sourceforge.net/DTD/sodipodi-0.dtd"
   xmlns="http://www.w3.org/2000/svg"
   xmlns:svg="http://www.w3.org/2000/svg"><defs
   id="defs17" /><sodipodi:namedview
   id="namedview17"
   pagecolor="#ffffff"
   bordercolor="#000000"
   borderopacity="0.25"
   inkscape:showpageshadow="2"
   inkscape:pageopacity="0.0"
   inkscape:pagecheckerboard="0"
   inkscape:deskcolor="#d1d1d1"
   inkscape:zoom="2.9375"
   inkscape:cx="124.93617"
   inkscape:cy="156.08511"
   inkscape:window-width="3440"
   inkscape:window-height="1377"
   inkscape:window-x="-8"
   inkscape:window-y="-8"
   inkscape:window-maximized="1"
   inkscape:current-layer="Layer_1" />
<style
   type="text/css"
   id="style1">
	.st0{fill:#1D428A;}
	.st1{fill:#C8102E;}
</style>
<g
   id="g17"
   transform="translate(-74.8,-44)">
	<g
   id="g3">
		<g
   id="g2">
			<path
   class="st0"
   d="m 277.4,226.2 c -13.1,0 -26.5,5.2 -33.6,16.2 h -0.2 -0.3 0.3 l 1.3,-19 c 0.8,-12.8 3.7,-47.7 21.5,-47.7 8.6,0 6.6,11.4 7.6,16.5 2.4,12.1 7.6,25.9 24.2,25.9 11.3,0 23.1,-7.5 23.1,-22.7 0,-23.5 -19.7,-39 -43.6,-39 -61.3,0 -86,46.8 -86,103.5 0,49.2 19.1,91.7 71.8,91.7 34.2,0 61.9,-24.3 61.9,-65.2 0,-34.5 -18.3,-60.2 -48,-60.2 z m -18.2,106.2 c -14.6,0 -14,-18.8 -14,-40.4 0,-21.7 2.1,-40.4 14,-40.4 14.7,0 15.5,18.7 15.5,40.4 0,21.6 -3.1,40.4 -15.5,40.4 z"
   id="path1" />
			<path
   class="st1"
   d="m 74.8,155.4 v 73 c 40.9,6 89.8,2 124.3,-48.5 1.4,-2.1 2.3,-0.6 1.4,1.2 -9.6,19.6 -32.5,37.8 -52.2,53.3 -19,14.9 -69.8,68.2 -69.1,115.1 0,3.6 0.2,2.6 3.3,0.3 15.4,-11.5 45.6,-11.8 64.2,-2.9 2.6,1.2 2.8,0.8 2.5,-2.5 -3.6,-36.4 4.6,-76.1 20.2,-99.1 10.7,-16 39.6,-57.1 44.6,-89.4 0.5,-3.3 -1.2,-2.8 -5.4,1.6 -32.7,34.6 -91.9,33.7 -130.1,-2.9 -2.4,-2.3 -3.5,-1.2 -3.7,0.8"
   id="path2" />
		</g>
	</g>
	<g
   id="g16">
		<g
   id="g15">
			<polygon
   class="st0"
   points="156,51.5 149.5,56.1 151.9,63.5 145.7,59 139.5,63.5 141.8,56.1 135.4,51.5 143.3,51.5 145.7,44 148.1,51.5 "
   id="polygon3" />
			<polygon
   class="st0"
   points="202.7,78.6 196.2,83.3 198.6,90.6 192.4,86.1 186.1,90.6 188.5,83.3 182,78.6 190,78.6 192.3,71.2 194.7,78.6 "
   id="polygon4" />
			<polygon
   class="st0"
   points="182.7,57.7 176.2,62.4 178.6,69.7 172.4,65.1 166.1,69.7 168.5,62.3 162.1,57.7 170,57.7 172.3,50.2 174.7,57.7 "
   id="polygon5" />
			<polygon
   class="st0"
   points="210.3,104.3 203.9,109 206.2,116.3 200,111.8 193.8,116.3 196.2,109 189.7,104.3 197.6,104.3 200,96.9 202.3,104.3 "
   id="polygon6" />
			<polygon
   class="st0"
   points="206.9,131.5 200.5,136.2 202.9,143.5 196.6,139 190.5,143.5 192.8,136.1 186.4,131.5 194.3,131.5 196.6,124.1 199,131.5 "
   id="polygon7" />
			<polygon
   class="st0"
   points="191.9,153.2 185.5,157.9 187.8,165.2 181.7,160.7 175.4,165.2 177.8,157.9 171.3,153.2 179.3,153.2 181.6,145.7 184,153.2 "
   id="polygon8" />
			<polygon
   class="st0"
   points="168.3,165.3 161.9,170 164.3,177.3 158.1,172.8 151.9,177.3 154.2,170 147.8,165.3 155.7,165.3 158.1,157.9 160.5,165.3 "
   id="polygon9" />
			<polygon
   class="st0"
   points="87.9,76.2 94.3,80.9 92,88.2 98.2,83.7 104.5,88.2 102.1,80.9 108.6,76.2 100.6,76.2 98.2,68.8 95.8,76.2 "
   id="polygon10" />
			<polygon
   class="st0"
   points="107.4,57.7 113.9,62.4 111.5,69.7 117.7,65.1 124,69.7 121.6,62.3 128.1,57.7 120.1,57.7 117.7,50.2 115.4,57.7 "
   id="polygon11" />
			<polygon
   class="st0"
   points="78.9,101 85.3,105.6 83,113 89.1,108.5 95.4,113 93,105.6 99.5,101 91.6,101 89.1,93.6 86.8,101 "
   id="polygon12" />
			<polygon
   class="st0"
   points="81.3,128.1 87.7,132.8 85.4,140.2 91.5,135.6 97.8,140.2 95.4,132.8 101.8,128.1 93.9,128.1 91.6,120.7 89.2,128.1 "
   id="polygon13" />
			<polygon
   class="st0"
   points="96.3,150.3 102.7,155 100.3,162.3 106.5,157.8 112.8,162.3 110.4,155 116.9,150.3 108.9,150.3 106.5,142.9 104.2,150.3 "
   id="polygon14" />
			<polygon
   class="st0"
   points="119.8,164.4 126.3,169.1 123.9,176.4 130.1,171.9 136.4,176.4 134,169 140.4,164.4 132.5,164.4 130.1,156.9 127.8,164.4 "
   id="polygon15" />
		</g>
	</g>
</g>
</svg>
