<?xml version="1.0" encoding="UTF-8" standalone="no"?>
<!-- Generator: Adobe Illustrator 26.1.0, SVG Export Plug-In . SVG Version: 6.00 Build 0)  -->

<svg
   version="1.1"
   id="Layer_1"
   x="0px"
   y="0px"
   viewBox="0 0 366.44846 254.38577"
   xml:space="preserve"
   sodipodi:docname="UTAH.svg"
   width="366.44846"
   height="254.38577"
   inkscape:version="1.4 (86a8ad7, 2024-10-11)"
   xmlns:inkscape="http://www.inkscape.org/namespaces/inkscape"
   xmlns:sodipodi="http://sodipodi.sourceforge.net/DTD/sodipodi-0.dtd"
   xmlns="http://www.w3.org/2000/svg"
   xmlns:svg="http://www.w3.org/2000/svg"><defs
   id="defs8" /><sodipodi:namedview
   id="namedview8"
   pagecolor="#ffffff"
   bordercolor="#000000"
   borderopacity="0.25"
   inkscape:showpageshadow="2"
   inkscape:pageopacity="0.0"
   inkscape:pagecheckerboard="0"
   inkscape:deskcolor="#d1d1d1"
   inkscape:zoom="2.9375"
   inkscape:cx="182.80851"
   inkscape:cy="126.12766"
   inkscape:window-width="3440"
   inkscape:window-height="1377"
   inkscape:window-x="-8"
   inkscape:window-y="-8"
   inkscape:window-maximized="1"
   inkscape:current-layer="g17" />








<g
   id="g17"
   transform="translate(7.8371122,7.6113281)"><g
     id="g16"
     style="display:inline;fill:#ffffff"><path
       id="path9"
       style="fill:#ffffff"
       sodipodi:type="inkscape:offset"
       inkscape:radius="7.6121464"
       inkscape:original="M 189.40039 0 L 126.80078 134.19922 C 126.60078 134.59922 125.99922 134.69922 125.69922 134.19922 C 123.79922 131.19922 121.70039 128.29922 119.40039 125.69922 C 110.60039 132.29922 103.60039 141.49922 99.900391 152.69922 C 98.400391 157.19922 97.499219 161.9 97.199219 166.5 L 136 166.5 L 179.30078 73.699219 L 316.69922 73.699219 L 351 0.099609375 L 351 0 L 189.40039 0 z "
       d="m 189.40039,-7.6113281 a 7.6129076,7.6129076 0 0 0 -6.89844,4.3925781 l -57.70898,123.7168 a 7.6129076,7.6129076 0 0 0 -9.95899,-0.88867 c -9.96143,7.47107 -17.945118,17.9556 -22.154293,30.68359 -1.713678,5.14103 -2.733662,10.45913 -3.076171,15.71094 a 7.6129076,7.6129076 0 0 0 7.595703,8.10742 H 136 a 7.6129076,7.6129076 0 0 0 6.89844,-4.39258 l 41.25,-88.408203 h 132.55078 a 7.6129076,7.6129076 0 0 0 6.90039,-4.396485 L 357.90039,3.3144531 a 7.6129076,7.6129076 0 0 0 0.71094,-3.21484373 V 0 A 7.6129076,7.6129076 0 0 0 351,-7.6113281 Z" /><path
       id="path10"
       style="fill:#ffffff"
       sodipodi:type="inkscape:offset"
       inkscape:radius="7.4970942"
       inkscape:original="M 0 174.09961 C 0.3 179.99961 1.4003906 185.90078 3.4003906 191.80078 C 6.3003906 200.60078 10.8 208.30039 16.5 214.90039 C 23.3 209.80039 28.900781 203.10078 32.800781 195.30078 C 36.200781 188.60078 38.099609 181.39961 38.599609 174.09961 L 0 174.09961 z "
       d="m 0,166.60156 a 7.4978439,7.4978439 0 0 0 -7.4882812,7.87891 c 0.3340763,6.57017 1.5689265,13.16838 3.7851562,19.71094 3.21527017,9.73565 8.2297306,18.31514 14.529297,25.60937 a 7.4978439,7.4978439 0 0 0 10.171875,1.09766 c 7.73516,-5.80137 14.082381,-13.40219 18.498047,-22.22657 3.864497,-7.62264 6.019054,-15.81256 6.583984,-24.06054 a 7.4978439,7.4978439 0 0 0 -7.480469,-8.00977 z" /><path
       id="path11"
       style="fill:#ffffff"
       sodipodi:type="inkscape:offset"
       inkscape:radius="7.5586729"
       inkscape:original="M 46.199219 174.09961 C 45.699219 182.59961 43.499609 190.89922 39.599609 198.69922 C 35.199609 207.29922 29.200781 214.70039 21.800781 220.40039 C 33.400781 231.00039 48.299609 237.40078 64.099609 238.30078 L 64.099609 174.09961 L 46.199219 174.09961 z "
       d="m 46.199219,166.54102 a 7.5594288,7.5594288 0 0 0 -7.544922,7.11523 c -0.439887,7.47808 -2.360494,14.7388 -5.798828,21.62695 -3.93059,7.67306 -9.217342,14.16018 -15.667969,19.12891 a 7.5594288,7.5594288 0 0 0 -0.486328,11.56836 c 12.86071,11.75203 29.406714,18.86682 46.96875,19.86719 a 7.5594288,7.5594288 0 0 0 7.988281,-7.54688 v -64.20117 a 7.5594288,7.5594288 0 0 0 -7.558594,-7.55859 z" /><path
       id="path12"
       style="fill:#ffffff"
       sodipodi:type="inkscape:offset"
       inkscape:radius="0"
       inkscape:original="M 15.689453 118.00586 A 7.8379691 7.8379691 0 0 0 10.580078 120.66602 C -0.34394036 133.26208 -6.9322975 149.21406 -7.8261719 166.08594 A 7.8379691 7.8379691 0 0 0 0 174.33789 L 38.599609 174.33789 A 7.8379691 7.8379691 0 0 0 46.419922 165.99023 C 46.0763 160.72137 45.056578 155.38263 43.335938 150.2207 A 7.8379691 7.8379691 0 0 0 43.314453 150.16016 C 39.002534 137.56481 31.140023 127.06979 21.236328 119.55664 A 7.8379691 7.8379691 0 0 0 15.689453 118.00586 z "
       d="m 15.689453,118.00586 a 7.8379691,7.8379691 0 0 0 -5.109375,2.66016 C -0.34394036,133.26208 -6.9322975,149.21406 -7.8261719,166.08594 A 7.8379691,7.8379691 0 0 0 0,174.33789 h 38.599609 a 7.8379691,7.8379691 0 0 0 7.820313,-8.34766 C 46.0763,160.72137 45.056578,155.38263 43.335938,150.2207 a 7.8379691,7.8379691 0 0 0 -0.02148,-0.0605 C 39.002534,137.56481 31.140023,127.06979 21.236328,119.55664 a 7.8379691,7.8379691 0 0 0 -5.546875,-1.55078 z" /><path
       id="path13"
       style="fill:#ffffff"
       sodipodi:type="inkscape:offset"
       inkscape:radius="7.6501122"
       inkscape:original="M 64.099609 102.40039 C 58.199609 102.70039 52.3 103.80078 46.5 105.80078 C 37 109.00078 28.700781 114.00039 21.800781 120.40039 C 31.400781 127.80039 38.999609 138.00039 43.099609 150.40039 C 44.799609 155.70039 45.899219 161.19961 46.199219 166.59961 L 64.099609 166.59961 L 64.099609 102.40039 z "
       d="m 63.710937,94.759766 c -6.580769,0.334615 -13.193801,1.568908 -19.679687,3.802734 -10.495344,3.5397 -19.754546,9.10592 -27.433594,16.22852 a 7.6508772,7.6508772 0 0 0 0.533203,11.66796 c 8.446408,6.51078 15.083106,15.41724 18.69336,26.31641 1.515811,4.73594 2.478504,9.60722 2.736328,14.24805 a 7.6508772,7.6508772 0 0 0 7.638672,7.22656 h 17.90039 A 7.6508772,7.6508772 0 0 0 71.75,166.59961 v -64.19922 a 7.6508772,7.6508772 0 0 0 -8.039063,-7.640624 z" /><path
       id="path14"
       style="fill:#ffffff"
       sodipodi:type="inkscape:offset"
       inkscape:radius="7.6501131"
       inkscape:original="M 71.699219 102.30078 L 71.699219 166.5 L 89.599609 166.5 C 89.899609 161.1 90.899219 155.70078 92.699219 150.30078 C 96.799219 138.20078 104.19961 127.79922 114.09961 120.19922 C 102.49961 109.49922 87.499219 103.20078 71.699219 102.30078 z "
       d="m 72.134766,94.662109 a 7.6508781,7.6508781 0 0 0 -8.085938,7.638671 V 166.5 a 7.6508781,7.6508781 0 0 0 7.650391,7.65039 h 17.90039 a 7.6508781,7.6508781 0 0 0 7.638672,-7.22656 c 0.263093,-4.73568 1.132143,-9.43554 2.712891,-14.1836 3.630768,-10.70516 10.124648,-19.80769 18.806638,-26.47265 a 7.6508781,7.6508781 0 0 0 0.5293,-11.69141 C 106.3709,102.66208 89.68351,95.661721 72.134766,94.662109 Z" /><path
       id="path15"
       style="fill:#ffffff"
       sodipodi:type="inkscape:offset"
       inkscape:radius="8.3733597"
       inkscape:original="M 71.699219 174.19922 L 71.699219 238.40039 C 77.599219 238.10039 83.6 237 89.5 235 C 98.9 231.8 107.19961 226.8 114.09961 220.5 C 106.59961 214.8 100.49961 207.40078 96.099609 198.80078 C 92.199609 191.00078 90 182.69922 89.5 174.19922 L 71.699219 174.19922 z "
       d="m 71.699219,165.82617 a 8.374197,8.374197 0 0 0 -8.373047,8.37305 v 64.20117 a 8.374197,8.374197 0 0 0 8.798828,8.36328 c 6.649526,-0.33811 13.412021,-1.57958 20.0625,-3.83398 a 8.374197,8.374197 0 0 0 0.01172,-0.004 c 10.495541,-3.57295 19.806931,-9.17528 27.546871,-16.24219 a 8.374197,8.374197 0 0 0 -0.58007,-12.84961 c -6.4533,-4.9045 -11.73739,-11.29162 -15.59375,-18.81836 -3.38776,-6.78881 -5.279521,-13.94123 -5.712895,-21.30859 A 8.374197,8.374197 0 0 0 89.5,165.82617 Z" /><path
       id="path16"
       style="fill:#ffffff"
       sodipodi:type="inkscape:offset"
       inkscape:radius="8.4559946"
       inkscape:original="M 97.199219 174.09961 C 97.699219 181.39961 99.6 188.60078 103 195.30078 C 106.9 203.20078 112.50039 209.9 119.40039 215 C 129.30039 203.6 135.2 189.19961 136 174.09961 L 97.199219 174.09961 z "
       d="m 97.199219,165.64453 a 8.4568402,8.4568402 0 0 0 -8.435547,9.0332 c 0.572842,8.36349 2.758858,16.67052 6.675781,24.4043 4.481746,9.06317 10.959267,16.82324 18.935547,22.71875 a 8.4568402,8.4568402 0 0 0 11.41016,-1.25586 c 11.12105,-12.80606 17.75703,-28.9884 18.6582,-45.99805 A 8.4568402,8.4568402 0 0 0 136,165.64453 Z" /></g></g><g
   id="g8"
   transform="translate(7.8371122,7.6113281)"><path
     d="M 351,0.1 316.7,73.7 H 179.3 L 136,166.5 H 97.2 c 0.3,-4.6 1.2,-9.3 2.7,-13.8 3.7,-11.2 10.7,-20.4 19.5,-27 2.3,2.6 4.4,5.5 6.3,8.5 0.3,0.5 0.9,0.4 1.1,0 0,0 0,0 0,0 L 189.4,0 H 351 Z"
     id="path1" /><path
     d="m 32.8,195.3 c -3.9,7.8 -9.5,14.5 -16.3,19.6 C 10.8,208.3 6.3,200.6 3.4,191.8 1.4,185.9 0.3,180 0,174.1 h 38.6 c -0.5,7.3 -2.4,14.5 -5.8,21.2"
     id="path2" /><path
     d="m 64.1,174.1 v 64.2 C 48.3,237.4 33.4,231 21.8,220.4 c 7.4,-5.7 13.4,-13.1 17.8,-21.7 3.9,-7.8 6.1,-16.1 6.6,-24.6 z"
     id="path3" /><path
     d="m 35.9,152.7 c 1.5,4.5 2.4,9.2 2.7,13.8 H 0 c 0.8,-15.1 6.7,-29.4 16.5,-40.7 8.7,6.6 15.6,15.8 19.4,26.9"
     id="path4" /><path
     d="m 64.1,102.4 v 64.2 H 46.2 C 45.9,161.2 44.8,155.7 43.1,150.4 39,138 31.4,127.8 21.8,120.4 28.7,114 37,109 46.5,105.8 c 5.8,-2 11.7,-3.1 17.6,-3.4"
     id="path5" /><path
     d="M 89.6,166.5 H 71.7 v -64.2 c 15.8,0.9 30.8,7.2 42.4,17.9 -9.9,7.6 -17.3,18 -21.4,30.1 -1.8,5.4 -2.8,10.8 -3.1,16.2"
     id="path6" /><path
     d="m 114.1,220.5 c -6.9,6.3 -15.2,11.3 -24.6,14.5 -5.9,2 -11.9,3.1 -17.8,3.4 v -64.2 h 17.8 c 0.5,8.5 2.7,16.8 6.6,24.6 4.4,8.6 10.5,16 18,21.7"
     id="path7" /><path
     d="m 136,174.1 c -0.8,15.1 -6.7,29.5 -16.6,40.9 -6.9,-5.1 -12.5,-11.8 -16.4,-19.7 -3.4,-6.7 -5.3,-13.9 -5.8,-21.2 z"
     id="path8" /></g></svg>
