<svg xmlns="http://www.w3.org/2000/svg" width="146" height="100%" viewBox="0 0 191 24" class="GlobalNav_logoIcon__qD8LD" title="CBS Logo"><title>CBS Logo</title> <path fill="currentColor" d="M12.555 23.877c6.508 0 9.762-4.556 9.762-4.556l-3.254-3.254c0 0-2.278 3.254-6.508 3.254-4.068 0-7.322-3.254-7.322-7.322s3.254-7.322 7.322-7.322c4.068 0 6.345 3.254 6.345 3.254l3.254-3.254c0 0-3.254-4.556-9.599-4.556-6.996 0-12.365 5.369-12.365 11.877s5.369 11.877 12.365 11.877z"></path><path fill="currentColor" d="M24.924 23.389h10.25c4.881 0 7.81-2.929 7.81-6.508 0-4.393-4.23-5.532-4.23-5.532s3.091-1.139 3.091-4.718c0-3.254-2.766-6.020-7.322-6.020h-9.599v22.778zM29.805 19.159v-5.532h5.044c1.952 0 3.091 1.139 3.091 2.766s-1.139 2.766-3.091 2.766h-5.044zM29.805 9.397v-4.556h4.393c1.627 0 2.603 0.976 2.603 2.278s-0.976 2.278-2.603 2.278h-4.393z"></path><path fill="currentColor" d="M52.923 23.877c5.369 0 8.623-3.254 8.623-6.996 0-7.972-11.389-6.183-11.389-10.088 0-1.302 0.976-2.278 3.417-2.278 2.603 0 4.23 1.952 4.23 1.952l3.254-3.254c0 0-2.603-3.091-7.647-3.091-5.206 0-8.298 3.091-8.298 6.671 0 7.972 11.389 6.183 11.389 10.088 0 1.464-1.139 2.603-3.742 2.603-3.417 0-5.369-2.441-5.369-2.441l-3.254 3.254c0 0 2.929 3.579 8.786 3.579z"></path><path fill="currentColor" d="M76.838 23.877c5.369 0 8.623-3.254 8.623-6.996 0-7.972-11.389-6.183-11.389-10.088 0-1.302 0.976-2.278 3.417-2.278 2.603 0 4.23 1.952 4.23 1.952l3.254-3.254c0 0-2.603-3.091-7.647-3.091-5.207 0-8.298 3.091-8.298 6.671 0 7.972 11.389 6.183 11.389 10.088 0 1.464-1.139 2.603-3.742 2.603-3.417 0-5.369-2.441-5.369-2.441l-3.254 3.254c0 0 2.929 3.579 8.786 3.579z"></path><path fill="currentColor" d="M88.388 23.389h4.881v-7.484h4.718c4.881 0 8.135-3.254 8.135-7.647s-3.254-7.647-8.135-7.647h-9.599v22.778zM93.27 11.349v-6.183h4.556c1.952 0 3.254 1.302 3.254 3.091s-1.302 3.091-3.254 3.091h-4.556z"></path><path fill="currentColor" d="M120.431 23.877c6.996 0 12.365-5.369 12.365-11.877s-5.369-11.877-12.365-11.877c-6.996 0-12.365 5.369-12.365 11.877s5.369 11.877 12.365 11.877zM120.431 19.322c-4.068 0-7.322-3.254-7.322-7.322s3.254-7.322 7.322-7.322c4.068 0 7.322 3.254 7.322 7.322s-3.254 7.322-7.322 7.322z"></path><path fill="currentColor" d="M136.2 23.389h4.881v-7.484h4.556l4.068 7.484h5.369l-4.718-8.461c0 0 3.905-1.464 3.905-6.671 0-4.556-3.091-7.647-7.972-7.647h-10.088v22.778zM141.081 11.349v-6.183h5.044c1.79 0 3.091 1.302 3.091 3.091s-1.302 3.091-3.091 3.091h-5.044z"></path><path fill="currentColor" d="M161.762 23.389h4.881v-18.223h6.508v-4.556h-17.897v4.556h6.508v18.223z"></path><path fill="currentColor" d="M182.258 23.877c5.369 0 8.623-3.254 8.623-6.996 0-7.972-11.389-6.183-11.389-10.088 0-1.302 0.976-2.278 3.417-2.278 2.603 0 4.23 1.952 4.23 1.952l3.254-3.254c0 0-2.603-3.091-7.647-3.091-5.207 0-8.298 3.091-8.298 6.671 0 7.972 11.389 6.183 11.389 10.088 0 1.464-1.139 2.603-3.742 2.603-3.417 0-5.369-2.441-5.369-2.441l-3.254 3.254c0 0 2.929 3.579 8.786 3.579z"></path></svg>