<?xml version="1.0" encoding="UTF-8" standalone="no"?>
<svg
   viewBox="0 0 425.14 75.269998"
   version="1.1"
   id="svg5"
   sodipodi:docname="CLEGuardiansTV.svg"
   width="425.14001"
   height="75.269997"
   inkscape:version="1.4 (86a8ad7, 2024-10-11)"
   xmlns:inkscape="http://www.inkscape.org/namespaces/inkscape"
   xmlns:sodipodi="http://sodipodi.sourceforge.net/DTD/sodipodi-0.dtd"
   xmlns="http://www.w3.org/2000/svg"
   xmlns:svg="http://www.w3.org/2000/svg">
  <defs
     id="defs5" />
  <sodipodi:namedview
     id="namedview5"
     pagecolor="#ffffff"
     bordercolor="#000000"
     borderopacity="0.25"
     inkscape:showpageshadow="2"
     inkscape:pageopacity="0.0"
     inkscape:pagecheckerboard="0"
     inkscape:deskcolor="#d1d1d1"
     inkscape:zoom="3.87637"
     inkscape:cx="238.10936"
     inkscape:cy="55.335275"
     inkscape:window-width="3440"
     inkscape:window-height="1377"
     inkscape:window-x="-8"
     inkscape:window-y="-8"
     inkscape:window-maximized="1"
     inkscape:current-layer="svg5" />
  <path
     fill="#ffffff"
     d="M 413.97,0 H 11.19 C 8.2,0 5.38,1.19 3.26,3.35 1.15,5.54 0,8.48 0,11.66 v 51.92 c 0,3.18 1.15,6.11 3.25,8.27 2.13,2.2 4.95,3.42 7.94,3.42 h 402.78 c 6.16,0 11.17,-5.24 11.17,-11.69 V 11.65 c 0,-3.16 -1.16,-6.1 -3.27,-8.28 C 419.75,1.19 416.95,0 413.97,0 Z"
     id="path1" />
  <path
     fill="#002b5c"
     d="m 418.96,6.27 c 1.37,1.42 2.11,3.37 2.11,5.38 v 51.92 c 0,4.2 -3.23,7.6 -7.24,7.6 H 11.36 C 9.43,71.17 7.58,70.38 6.18,68.94 4.81,67.53 4.1,65.61 4.1,63.58 V 11.66 C 4.1,9.65 4.81,7.7 6.18,6.28 a 7.229,7.229 0 0 1 5.18,-2.19 h 402.48 c 1.9,0 3.74,0.76 5.12,2.18 z m -95.39,45.38 c -1.24,0.76 -3.4,1.9 -4.81,2.49 -1.35,-0.6 -3.51,-1.73 -4.81,-2.49 v -4.87 c -1.95,0.06 -3.89,0.16 -5.84,0.38 l -0.16,7.41 c 3.13,2.06 6.86,4 10.81,5.68 3.89,-1.63 7.46,-3.41 10.81,-5.68 V 40.62 l -14.81,-8.97 v -7.62 c 1.19,-0.7 3.14,-1.78 4.38,-2.32 1.3,0.54 3.41,1.62 4.65,2.32 v 5.41 c 1.84,-0.17 3.62,-0.38 5.62,-0.76 l 0.22,-11.08 c -1.57,0.11 -3.51,0.43 -5.08,0.7 a 56.458,56.458 0 0 0 -5.41,-2.7 c -3.68,1.63 -6.81,3.41 -10.38,5.68 v 13.95 l 14.81,9.03 z m -36.75,7.28 -0.11,-20.38 c 0,-4.43 -0.05,-6.59 -0.16,-9.24 0.82,2.49 1.57,4.49 3.14,8.54 l 8.33,21.08 c 1.83,-0.22 3.67,-0.55 4.97,-0.87 V 18 c -1.57,-0.48 -3.46,-0.97 -5.41,-1.24 l 0.05,20 c 0,4.21 0,5.73 0.11,7.89 -0.71,-2.11 -1.25,-3.52 -2.76,-7.41 l -7.84,-20.49 c -1.9,0.27 -4.38,0.92 -5.95,1.35 v 39.94 c 1.57,0.38 3.73,0.71 5.62,0.87 z M 276.38,58.05 273.73,20.1 c -2.65,-1.51 -5.46,-2.97 -8.6,-4.43 -3.19,1.46 -6,2.92 -8.6,4.43 l -2.65,37.95 c 1.51,0.33 3.89,0.71 5.73,0.87 l 0.86,-13.08 h 9.3 l 0.87,13.08 c 1.84,-0.22 4.22,-0.55 5.73,-0.87 z M 261.89,23.61 c 1.02,-0.54 2.16,-1.14 3.24,-1.68 1.08,0.54 2.21,1.14 3.24,1.68 l 1.08,16.97 h -8.65 l 1.08,-16.97 z m -18.97,34.87 c 0.86,0.05 1.67,0.05 2.97,0.05 1.3,0 2.17,0 3.03,-0.05 V 17.5 c -0.81,-0.06 -1.84,-0.11 -3.03,-0.11 -1.19,0 -2.16,0.06 -2.97,0.11 z m -6.38,-37.14 c -3.62,-2.27 -6.97,-4.06 -10.81,-5.68 -2,0.86 -3.89,1.73 -5.73,2.7 -1.51,-0.27 -3.51,-0.59 -5.08,-0.7 v 40.77 c 1.62,-0.17 3.67,-0.44 5.24,-0.76 1.79,0.97 3.62,1.84 5.57,2.65 3.84,-1.63 7.19,-3.41 10.81,-5.68 z M 225.73,54.2 c -1.35,-0.54 -3.57,-1.62 -4.81,-2.32 V 24.09 c 1.24,-0.7 3.46,-1.78 4.81,-2.32 1.35,0.54 3.57,1.62 4.81,2.32 v 27.79 c -1.24,0.7 -3.46,1.78 -4.81,2.32 z M 193.1,58.92 V 43.24 h 5.51 l 5.78,15.68 c 1.84,-0.17 4,-0.49 5.84,-0.87 l -6.22,-16.81 c 1.35,-0.92 2.87,-2 4.38,-3.14 V 21.29 c -3.62,-2.27 -6.87,-4.06 -10.65,-5.68 -1.94,0.86 -3.78,1.73 -5.62,2.7 -1.52,-0.27 -3.46,-0.59 -5.03,-0.7 v 40.43 c 1.57,0.38 4,0.71 6,0.87 z m -0.01,-34.88 c 1.24,-0.7 3.35,-1.78 4.65,-2.32 1.3,0.54 3.41,1.62 4.65,2.32 v 11.73 c -1.08,0.76 -2.32,1.57 -3.46,2.27 l -5.84,0.16 z M 179.2,20.1 c -2.65,-1.51 -5.46,-2.97 -8.6,-4.43 -3.19,1.46 -6.01,2.92 -8.6,4.43 l -2.65,37.95 c 1.51,0.33 3.89,0.71 5.73,0.87 l 0.87,-13.08 h 9.3 l 0.87,13.08 c 1.84,-0.22 4.22,-0.55 5.73,-0.87 z m -11.83,3.51 c 1.02,-0.54 2.16,-1.14 3.24,-1.68 1.08,0.54 2.21,1.14 3.24,1.68 l 1.08,16.97 h -8.65 l 1.08,-16.97 z m -12.81,-5.62 c -1.57,-0.48 -4.05,-0.97 -6,-1.24 v 35.09 c -1.25,0.7 -3.41,1.78 -4.76,2.32 -1.35,-0.54 -3.52,-1.62 -4.76,-2.32 V 16.75 c -1.95,0.27 -4.43,0.75 -6,1.24 v 36.59 c 3.62,2.27 6.92,4.06 10.76,5.68 1.94,-0.81 3.78,-1.68 5.51,-2.65 1.56,0.33 3.62,0.6 5.24,0.76 V 17.99 Z M 126.8,17.66 c -1.62,0.16 -3.51,0.38 -5.08,0.7 -2.1,-1.19 -3.73,-1.94 -5.51,-2.7 -3.84,1.63 -7.14,3.41 -10.76,5.68 v 33.29 c 3.62,2.27 6.92,4.06 10.76,5.68 a 51.19,51.19 0 0 0 5.46,-2.65 c 1.57,0.33 3.57,0.6 5.19,0.76 V 38.31 h -9.89 c -0.27,1.73 -0.49,3.46 -0.65,5.19 l 4.81,0.16 v 8.22 c -1.3,0.7 -3.57,1.78 -4.92,2.32 -1.35,-0.54 -3.52,-1.62 -4.76,-2.32 V 24.09 c 1.25,-0.7 3.41,-1.78 4.76,-2.32 1.35,0.54 3.52,1.62 4.76,2.32 v 5.19 c 1.89,-0.1 3.84,-0.32 5.73,-0.59 l 0.11,-11.03 z m 263.96,41.37 9.85,-30.24 h -7.56 l -6.7,22.25 -6.7,-22.25 h -7.56 l 9.85,30.24 z m -29.31,0 V 35.44 h 7.78 v -6.65 h -22.46 v 6.65 h 7.78 v 23.59 z m -19.79,0.81 c 3,0 5.49,-2.49 5.49,-5.49 0,-3 -2.49,-5.49 -5.49,-5.49 -3,0 -5.49,2.48 -5.49,5.49 0,3 2.49,5.49 5.49,5.49 z"
     id="path2" />
  <path
     fill="#e31937"
     d="M 35.32,60.37 C 31.47,58.74 28.21,56.95 24.58,54.67 V 21.31 c 3.63,-2.28 6.89,-4.07 10.74,-5.7 1.79,0.76 3.42,1.52 5.53,2.71 1.57,-0.33 3.42,-0.54 5.05,-0.71 L 45.74,30.2 c -1.9,0.33 -3.8,0.49 -5.7,0.65 v -6.78 c -1.25,-0.71 -3.36,-1.79 -4.72,-2.33 -1.36,0.54 -3.47,1.63 -4.72,2.33 V 51.9 c 1.25,0.71 3.36,1.79 4.72,2.33 1.36,-0.54 3.42,-1.63 4.72,-2.33 v -4.88 c 1.9,-0.22 4.01,-0.38 5.91,-0.38 v 8.03 c -3.63,2.28 -6.84,4.07 -10.63,5.7 z M 68.14,58.58 H 52.52 V 17.94 c 1.57,-0.49 4.07,-0.98 6.02,-1.25 V 53.2 c 3.91,-0.05 6.46,-0.16 10.47,-0.38 -0.16,2.22 -0.43,3.96 -0.87,5.75 z M 94.5,17.62 94.34,28.42 c -1.9,0.33 -3.8,0.49 -5.7,0.65 v -4.99 c -1.25,-0.71 -3.36,-1.79 -4.72,-2.33 -1.36,0.54 -3.47,1.63 -4.72,2.33 V 35.8 h 9.17 c 0,1.79 -0.11,3.53 -0.22,5.32 l -8.95,0.33 v 10.47 c 1.25,0.71 3.36,1.79 4.72,2.33 1.36,-0.54 3.53,-1.63 4.83,-2.33 v -4.5 c 1.95,-0.16 3.96,-0.27 5.91,-0.33 v 7.6 c -3.64,2.28 -6.94,4.07 -10.74,5.7 -3.85,-1.63 -7.11,-3.36 -10.74,-5.64 v -33.5 c 3.63,-2.28 6.89,-4.01 10.74,-5.64 1.79,0.76 3.42,1.52 5.53,2.71 1.57,-0.33 3.42,-0.54 5.05,-0.71 z"
     id="path3" />
</svg>
