<?xml version="1.0" encoding="UTF-8" standalone="no"?>
<svg
   viewBox="0 0 1941.1538 659.52356"
   id="Layer_2"
   version="1.1"
   width="1941.1538"
   height="659.52356"
   xml:space="preserve"
   sodipodi:docname="CW33.svg"
   inkscape:version="1.4 (86a8ad7, 2024-10-11)"
   xmlns:inkscape="http://www.inkscape.org/namespaces/inkscape"
   xmlns:sodipodi="http://sodipodi.sourceforge.net/DTD/sodipodi-0.dtd"
   xmlns="http://www.w3.org/2000/svg"
   xmlns:svg="http://www.w3.org/2000/svg"><sodipodi:namedview
     id="namedview1"
     pagecolor="#ffffff"
     bordercolor="#000000"
     borderopacity="0.25"
     inkscape:showpageshadow="2"
     inkscape:pageopacity="0.0"
     inkscape:pagecheckerboard="0"
     inkscape:deskcolor="#d1d1d1"
     inkscape:zoom="1.6845651"
     inkscape:cx="970.5769"
     inkscape:cy="329.7587"
     inkscape:window-width="3440"
     inkscape:window-height="1377"
     inkscape:window-x="-8"
     inkscape:window-y="-8"
     inkscape:window-maximized="1"
     inkscape:current-layer="Layer_2" /><defs
     id="defs1"><style
       id="style1">.cls-1{fill:#fff;stroke-width:0px;}</style></defs><path
     d="m 860.8125,211.09399 v 247.6875 c 0,22.59375 -10.40625,49 -39.71875,49 -29.3125,0 -40.4375,-26.40625 -40.4375,-49 v -247.6875 h -139.1875 v 247.6875 c 0,22.59375 -10.59375,49 -40.40625,49 -29.8125,0 -39.71875,-26.40625 -39.71875,-49 v -247.6875 h -139.1875 v 219.875 c -0.65625,42.34375 -31.21875,77.6875 -68.1875,78.90625 h -144.625 c -38.71875,0 -70.21875,-35.75 -70.21875,-79.65625 0,-43.90625 31.5,-80.34375 70.21875,-80.34375 h 136 V 211.09399 h -136 C 93.9375,211.09399 0,309.37524 0,430.21899 c 0,120.84375 93.9375,218.375 209.375,218.375 H 349 c 46.75,0 93.84375,-18.90625 129.75,-49.8125 34.15625,33.90625 71.46875,49.8125 116.3125,49.8125 44.84375,0 82.03125,-15.8125 116.0625,-49.5 34.03125,33.6875 71.25,49.5 116.03125,49.5 96.9375,0 172.84375,-79.53125 172.84375,-181.09375 V 211.09399 Z"
     class="cls-1"
     id="path3"
     style="fill:#ff4500;fill-opacity:1" /><g
     id="g1"
     style="fill:#ffffff;fill-opacity:1"><path
       style="font-weight:bold;font-size:233.82px;line-height:0.95;font-family:'F37 Bolton';-inkscape-font-specification:'F37 Bolton Bold';text-align:end;letter-spacing:0px;word-spacing:0px;text-anchor:end;stroke-width:62.5043;stroke-linejoin:round;paint-order:markers stroke fill;fill:#ffffff;fill-opacity:1"
       d="M 921.94575,167.31139 H 886.24332 V 0 h 112.94106 v 32.6689 h -77.23863 v 42.00285 h 66.73793 v 31.96884 h -66.73793 z"
       id="path4" /><path
       style="font-weight:bold;font-size:233.82px;line-height:0.95;font-family:'F37 Bolton';-inkscape-font-specification:'F37 Bolton Bold';text-align:end;letter-spacing:0px;word-spacing:0px;text-anchor:end;stroke-width:62.5043;stroke-linejoin:round;paint-order:markers stroke fill;fill:#ffffff;fill-opacity:1"
       d="M 873.85979,167.31139 H 838.8574 l -12.36751,-38.73597 h -60.6708 L 752.0515,167.31139 H 717.98251 L 777.71991,0 h 42.46955 z M 777.01985,97.53998 h 39.66937 L 801.98823,51.80353 q -2.33349,-7.00049 -3.7336,-14.00096 h -0.93338 q -1.8668,8.40058 -3.96695,14.2343 z"
       id="path2" /><path
       style="font-weight:bold;font-size:233.82px;line-height:0.95;font-family:'F37 Bolton';-inkscape-font-specification:'F37 Bolton Bold';text-align:end;letter-spacing:0px;word-spacing:0px;text-anchor:end;stroke-width:62.5043;stroke-linejoin:round;paint-order:markers stroke fill;fill:#ffffff;fill-opacity:1"
       d="M 579.87249,167.31139 V 0 h 59.50405 q 25.43507,0 44.5697,10.03401 19.13463,10.03402 29.40199,28.70196 10.50073,18.66794 10.50073,44.10301 0,25.20172 -10.03402,44.33634 -10.03401,19.13464 -29.16864,29.63535 -19.13465,10.50072 -45.50313,10.50072 z m 53.6703,-33.13559 q 27.06853,0 40.83613,-12.13416 14.00096,-12.13416 14.00096,-37.80257 0,-51.10348 -54.60372,-51.10348 H 615.57491 V 134.1758 Z"
       id="path1" /><path
       style="font-weight:bold;font-size:233.82px;line-height:0.95;font-family:'F37 Bolton';-inkscape-font-specification:'F37 Bolton Bold';text-align:end;letter-spacing:0px;word-spacing:0px;text-anchor:end;stroke-width:62.5043;stroke-linejoin:round;paint-order:markers stroke fill;fill:#ffffff;fill-opacity:1"
       d="M 566.91811,167.31139 H 523.2818 l -48.30327,-72.80496 -16.33445,17.26785 v 55.53711 H 422.94165 V 0 h 35.70243 v 68.83802 h 0.70005 q 3.26689,-5.36703 5.60038,-7.46718 L 522.81511,0 h 42.93626 l -64.63774,68.60468 z"
       id="text1" /></g><g
     id="g2"
     style="fill:#ffffff;fill-opacity:1"><path
       style="font-weight:bold;font-size:899.568px;line-height:0.95;font-family:'F37 Bolton';-inkscape-font-specification:'F37 Bolton Bold';text-align:end;letter-spacing:0px;word-spacing:0px;text-anchor:end;stroke-width:234.602;stroke-linejoin:round;paint-order:markers stroke fill;fill:#ffffff;fill-opacity:1"
       d="m 1253.2713,659.52354 c -140.2417,0 -217.7209,-77.60669 -217.7209,-229.09185 h 112.733 c 0,37.43913 8.8924,67.74701 26.6772,90.92362 17.7849,22.58233 44.1753,33.8735 79.1712,33.8735 31.5538,0 56.51,-9.21121 74.8685,-27.63364 18.9322,-18.42244 28.3983,-42.78761 28.3983,-73.09547 0,-81.83545 -75.4987,-94.48923 -122.199,-94.48923 h -24.0956 v -87.35799 h 13.7689 c 30.3113,0 115.3147,-6.93167 115.3147,-84.68376 0,-24.95942 -8.0319,-44.27326 -24.0957,-57.94152 -15.49,-13.66825 -36.1434,-20.50237 -61.9601,-20.50237 -62.7881,0 -95.5218,40.98648 -95.5218,112.3174 h -113.5935 c 0,-70.1241 18.6454,-123.60858 55.9362,-160.45344 37.2908,-37.43913 89.7848,-56.1587 157.4819,-56.1587 105.9815,0 199.6491,48.60006 199.6491,162.23625 0,68.66594 -36.2125,122.8376 -92.0794,141.73386 v 3.56563 c 53.0044,15.14609 110.1511,54.5796 110.1511,154.21359 0,129.8591 -95.5577,192.54412 -222.8841,192.54412 z"
       id="text4" /><path
       style="font-weight:bold;font-size:899.568px;line-height:0.95;font-family:'F37 Bolton';-inkscape-font-specification:'F37 Bolton Bold';text-align:end;letter-spacing:0px;word-spacing:0px;text-anchor:end;stroke-width:234.602;stroke-linejoin:round;paint-order:markers stroke fill;fill:#ffffff;fill-opacity:1"
       d="m 1718.2697,659.52354 c -140.2417,0 -217.7209,-77.60669 -217.7209,-229.09185 h 112.733 c 0,37.43913 8.8924,67.74701 26.6772,90.92362 17.7849,22.58233 44.1753,33.8735 79.1712,33.8735 31.5538,0 56.51,-9.21121 74.8685,-27.63364 18.9322,-18.42244 28.3983,-42.78761 28.3983,-73.09547 0,-81.83545 -75.4987,-94.48923 -122.199,-94.48923 h -24.0956 v -87.35799 h 13.7689 c 30.3113,0 115.3147,-6.93167 115.3147,-84.68376 0,-24.95942 -8.0319,-44.27326 -24.0957,-57.94152 -15.49,-13.66825 -36.1434,-20.50237 -61.9601,-20.50237 -62.7881,0 -95.5218,40.98648 -95.5218,112.3174 h -113.5935 c 0,-70.1241 18.6454,-123.60858 55.9362,-160.45344 37.2908,-37.43913 89.7848,-56.1587 157.4819,-56.1587 105.9815,0 199.6491,48.60006 199.6491,162.23625 0,68.66594 -36.2125,122.8376 -92.0794,141.73386 v 3.56563 c 53.0044,15.14609 110.1511,54.5796 110.1511,154.21359 0,129.8591 -95.5577,192.54412 -222.8841,192.54412 z"
       id="text4-0" /></g></svg>
