<?xml version="1.0" encoding="UTF-8" standalone="no"?>
<svg
   viewBox="0 0 339.77 75.269998"
   version="1.1"
   id="svg3"
   sodipodi:docname="DBACKS.TV.svg"
   width="339.76999"
   height="75.269997"
   inkscape:version="1.4 (86a8ad7, 2024-10-11)"
   xmlns:inkscape="http://www.inkscape.org/namespaces/inkscape"
   xmlns:sodipodi="http://sodipodi.sourceforge.net/DTD/sodipodi-0.dtd"
   xmlns="http://www.w3.org/2000/svg"
   xmlns:svg="http://www.w3.org/2000/svg">
  <defs
     id="defs3" />
  <sodipodi:namedview
     id="namedview3"
     pagecolor="#ffffff"
     bordercolor="#000000"
     borderopacity="0.25"
     inkscape:showpageshadow="2"
     inkscape:pageopacity="0.0"
     inkscape:pagecheckerboard="0"
     inkscape:deskcolor="#d1d1d1"
     inkscape:zoom="4.8120789"
     inkscape:cx="202.82294"
     inkscape:cy="53.926796"
     inkscape:window-width="3440"
     inkscape:window-height="1377"
     inkscape:window-x="-8"
     inkscape:window-y="-8"
     inkscape:window-maximized="1"
     inkscape:current-layer="svg3" />
  <path
     fill="#ffffff"
     d="M 328.6,0 H 11.19 C 8.2,0 5.38,1.19 3.26,3.35 1.15,5.54 0,8.48 0,11.66 v 51.92 c 0,3.18 1.15,6.11 3.25,8.27 2.13,2.2 4.95,3.42 7.94,3.42 H 328.6 c 6.16,0 11.17,-5.24 11.17,-11.69 V 11.65 c 0,-3.16 -1.16,-6.1 -3.27,-8.28 C 334.38,1.19 331.58,0 328.6,0 Z"
     id="path1" />
  <path
     d="m 333.58,6.27 c 1.37,1.42 2.11,3.37 2.11,5.38 v 51.92 c 0,4.2 -3.23,7.6 -7.24,7.6 H 11.34 C 9.41,71.17 7.56,70.38 6.16,68.94 4.79,67.53 4.08,65.61 4.08,63.58 V 11.66 C 4.08,9.65 4.79,7.7 6.16,6.28 7.56,4.86 9.41,4.09 11.34,4.09 h 317.12 c 1.9,0 3.74,0.76 5.12,2.18 z m -28.78,51.34 9.85,-30.24 h -7.56 l -6.7,22.25 -6.7,-22.25 h -7.56 l 9.85,30.24 z m -29.31,0 V 34.02 h 7.78 v -6.65 h -22.46 v 6.65 h 7.78 v 23.59 z m -25.27,-4.68 c 0,3 2.49,5.49 5.49,5.49 3,0 5.49,-2.49 5.49,-5.49 0,-3 -2.49,-5.49 -5.49,-5.49 -3,0 -5.49,2.48 -5.49,5.49 z m -36.14,-0.41 c 3.7,3.24 10,5.9 16.82,5.9 9.6,0 16.13,-5.49 16.13,-13.41 0,-5.14 -3.06,-8.49 -7.8,-10.46 -4.11,-1.79 -9.08,-2.31 -12.43,-3.64 -1.39,-0.52 -2.43,-1.39 -2.43,-2.66 0,-1.68 2.02,-3.24 6.01,-3.24 4.28,0 7.98,1.73 10.52,3.7 l 4.39,-7.28 c -3,-2.43 -8.09,-5.09 -14.91,-5.09 -9.54,0 -15.61,5.84 -15.61,12.66 0,4.51 2.95,7.87 6.42,9.6 4.11,2.08 9.71,2.77 13.01,4.1 1.9,0.81 2.83,1.62 2.83,3.12 0,1.79 -1.91,3.64 -6.01,3.64 -4.45,0 -8.96,-2.08 -12.08,-5.03 z m -33.3,5.1 h 9.25 V 39.01 l 12.37,18.61 h 11.1 L 199.39,36.81 212.92,17.15 h -11.1 L 190.03,34.61 V 17.15 h -9.25 z m -22.7,-41.26 c -11.79,0 -21.04,9.25 -21.04,21.04 0,11.79 9.25,21.04 21.04,21.04 7.74,0 14.45,-3.99 18.09,-10.12 l -8.09,-4.86 c -1.91,3.53 -5.61,5.9 -10,5.9 -6.65,0 -11.56,-5.32 -11.56,-11.97 0,-6.65 4.91,-11.97 11.56,-11.97 3.99,0 7.4,1.96 9.42,4.97 l 8.09,-4.86 c -3.76,-5.61 -10.18,-9.19 -17.52,-9.19 z m -49.7,41.25 1.97,-6.36 h 15.15 l 1.97,6.36 h 10.12 L 123.72,17.14 H 112.39 L 98.52,57.61 Z m 4.7,-15.03 4.86,-15.43 4.86,15.43 z M 66.14,57.62 h 18.27 c 7.63,0 12.95,-4.51 12.95,-12.31 0,-4.68 -2.54,-7.86 -5.43,-9.25 1.85,-0.99 3.99,-3.93 3.99,-7.46 0,-7.11 -5.32,-11.45 -12.6,-11.45 H 66.15 V 57.61 Z M 75.4,33.1 v -7.52 h 7.57 c 2.31,0 3.7,1.62 3.7,3.76 0,2.14 -1.39,3.76 -3.7,3.76 z m 0,8.21 h 8.79 c 2.43,0 3.93,1.61 3.93,3.87 0,2.26 -1.5,3.99 -3.93,3.99 H 75.4 Z m -33.88,16.3 c 11.15,0 19.42,-8.79 19.42,-20.23 0,-11.44 -8.26,-20.23 -19.42,-20.23 H 25.1 v 40.46 z m -7.17,-8.9 V 26.05 h 6.94 c 6.36,0 10.64,4.39 10.64,11.33 0,6.94 -4.28,11.33 -10.64,11.33 z"
     id="path2" />
</svg>
