<?xml version="1.0" encoding="UTF-8" standalone="no"?>
<!-- Created with Inkscape (http://www.inkscape.org/) -->

<svg
   version="1.1"
   width="300"
   height="111.33295"
   id="svg204"
   sodipodi:docname="ESPNDeportes.svg"
   inkscape:version="1.4 (86a8ad7, 2024-10-11)"
   xmlns:inkscape="http://www.inkscape.org/namespaces/inkscape"
   xmlns:sodipodi="http://sodipodi.sourceforge.net/DTD/sodipodi-0.dtd"
   xmlns="http://www.w3.org/2000/svg"
   xmlns:svg="http://www.w3.org/2000/svg"
   xmlns:rdf="http://www.w3.org/1999/02/22-rdf-syntax-ns#"
   xmlns:cc="http://creativecommons.org/ns#"
   xmlns:dc="http://purl.org/dc/elements/1.1/">
  <sodipodi:namedview
     id="namedview1"
     pagecolor="#ffffff"
     bordercolor="#000000"
     borderopacity="0.25"
     inkscape:showpageshadow="2"
     inkscape:pageopacity="0.0"
     inkscape:pagecheckerboard="0"
     inkscape:deskcolor="#d1d1d1"
     inkscape:zoom="3.7313773"
     inkscape:cx="164.8185"
     inkscape:cy="99.561091"
     inkscape:window-width="3440"
     inkscape:window-height="1377"
     inkscape:window-x="-8"
     inkscape:window-y="-8"
     inkscape:window-maximized="1"
     inkscape:current-layer="svg204" />
  <defs
     id="defs206" />
  <metadata
     id="metadata209">
    <rdf:RDF>
      <cc:Work
         rdf:about="">
        <dc:format>image/svg+xml</dc:format>
        <dc:type
           rdf:resource="http://purl.org/dc/dcmitype/StillImage" />
      </cc:Work>
    </rdf:RDF>
  </metadata>
  <g
     transform="matrix(12.66817,0,0,-12.66817,263.76777,24.606657)"
     id="g120296"
     style="fill:#cc0000;fill-opacity:1">
    <path
       d="M 0,0 H 1.592 L 1.23,-2.964 h -1.59 z"
       id="path120298"
       style="fill:#cc0000;fill-opacity:1;fill-rule:nonzero;stroke:none" />
  </g>
  <g
     transform="matrix(12.66817,0,0,-12.66817,222.9902,24.469841)"
     id="g120300"
     style="fill:#cc0000;fill-opacity:1">
    <path
       d="M 0,0 H 1.6 L 1.235,-2.975 h -1.592 z"
       id="path120302"
       style="fill:#cc0000;fill-opacity:1;fill-rule:nonzero;stroke:none" />
  </g>
  <g
     transform="matrix(12.66817,0,0,-12.66817,223.75916,17.876109)"
     id="g120304"
     style="fill:#cc0000;fill-opacity:1">
    <path
       d="m 0,0 h 4.842 c 0,0 0.088,0.421 0.041,0.685 C 4.834,0.954 4.717,1.133 4.519,1.264 4.25,1.439 3.781,1.411 3.791,1.407 L 0.194,1.411 Z"
       id="path120306"
       style="fill:#cc0000;fill-opacity:1;fill-rule:nonzero;stroke:none" />
  </g>
  <g
     transform="matrix(12.66817,0,0,-12.66817,96.606201,17.789966)"
     id="g120308"
     style="fill:#cc0000;fill-opacity:1">
    <path
       d="m 0,0 c 0,0 0.024,0.482 0.148,0.729 0.113,0.233 0.263,0.406 0.515,0.544 0.148,0.081 0.414,0.131 0.414,0.131 h 7.716 c 0,0 0.32,-0.006 0.462,-0.063 C 9.405,1.277 9.619,1.183 9.74,0.915 9.848,0.639 9.818,0.56 9.818,0.293 V 0 Z"
       id="path120310"
       style="fill:#cc0000;fill-opacity:1;fill-rule:nonzero;stroke:none" />
  </g>
  <g
     transform="matrix(12.66817,0,0,-12.66817,160.77555,24.469841)"
     id="g120312"
     style="fill:#cc0000;fill-opacity:1">
    <path
       d="M 0,0 H 4.653 C 4.653,0 4.608,-0.536 4.487,-0.728 4.356,-0.922 4.245,-1.031 4.028,-1.079 3.819,-1.132 3.494,-1.132 3.494,-1.132 H 1.465 L 1.258,-2.975 h -1.623 z"
       id="path120314"
       style="fill:#cc0000;fill-opacity:1;fill-rule:nonzero;stroke:none" />
  </g>
  <g
     transform="matrix(12.66817,0,0,-12.66817,95.734631,24.469841)"
     id="g120316"
     style="fill:#cc0000;fill-opacity:1">
    <path
       d="m 0,0 h 3.94 c 0,0 0.356,0 0.515,-0.094 0.17,-0.111 0.248,-0.25 0.298,-0.469 C 4.803,-0.774 4.671,-1.867 4.588,-2.134 4.504,-2.395 4.407,-2.65 4.004,-2.847 3.635,-3.032 3.081,-2.975 3.081,-2.975 h -3.409 l 0.193,1.307 h 3.198 l 0.075,0.559 H 0.931 c 0,0 -0.364,-0.061 -0.698,0.227 C 0.028,-0.7 0.004,-0.435 -0.009,-0.32 -0.019,-0.249 0,0 0,0"
       id="path120318"
       style="fill:#cc0000;fill-opacity:1;fill-rule:nonzero;stroke:none" />
  </g>
  <g
     transform="matrix(12.66817,0,0,-12.66817,37.107607,24.222761)"
     id="g120320"
     style="fill:#cc0000;fill-opacity:1">
    <path
       d="M 0,0 H 4.296 L 4.16,-1.145 H 1.478 L 1.41,-1.688 H 4.092 L 3.925,-2.994 h -4.293 z"
       id="path120322"
       style="fill:#cc0000;fill-opacity:1;fill-rule:nonzero;stroke:none" />
  </g>
  <g
     transform="matrix(12.66817,0,0,-12.66817,40.286051,3.8852e-6)"
     id="g120324"
     style="fill:#cc0000;fill-opacity:1">
    <path
       d="M 0,0 H 4.293 L 4.106,-1.404 H -0.17 Z"
       id="path120326"
       style="fill:#cc0000;fill-opacity:1;fill-rule:nonzero;stroke:none" />
  </g>
  <g
     transform="matrix(12.66817,0,0,-12.66817,14.720417,103.21387)"
     id="g120328"
     style="fill:#ffffff">
    <path
       d="M 0,0 C 0.508,0 0.697,0.046 0.922,0.241 1.035,0.337 1.125,0.475 1.195,0.611 1.293,0.838 1.33,1.141 1.301,1.424 1.271,1.69 1.155,1.933 0.974,2.077 0.805,2.207 0.625,2.265 0.303,2.265 H -0.174 L -0.45,0 Z M 0.38,2.813 C 0.854,2.813 1.155,2.729 1.414,2.518 1.722,2.265 1.894,1.911 1.948,1.421 2.018,0.708 1.787,0.081 1.312,-0.271 1.005,-0.493 0.729,-0.56 0.118,-0.56 h -1.28 l 0.414,3.373 z"
       id="path120330"
       style="fill:#ffffff;fill-opacity:1;fill-rule:nonzero;stroke:none" />
  </g>
  <g
     transform="matrix(12.66817,0,0,-12.66817,99.242447,88.318735)"
     id="g120332"
     style="fill:#231f20">
    <path
       d="M 0,0 C 0.379,0 0.555,0.066 0.669,0.264 0.728,0.371 0.759,0.515 0.75,0.651 0.713,0.932 0.514,1.089 0.203,1.089 H -0.374 L -0.512,0 Z m -0.732,-1.735 h -0.636 l 0.419,3.373 H 0.243 C 0.922,1.638 1.329,1.302 1.396,0.684 1.44,0.251 1.28,-0.142 0.964,-0.354 0.759,-0.489 0.519,-0.547 0.088,-0.547 h -0.663 z"
       id="path120334"
       style="fill:#ffffff;fill-opacity:1;fill-rule:nonzero;stroke:none" />
  </g>
  <g
     transform="matrix(12.66817,0,0,-12.66817,139.72105,73.522313)"
     id="g120336"
     style="fill:#ffffff">
    <path
       d="m 0,0 c -0.647,0 -1.088,-0.673 -1,-1.513 0.059,-0.572 0.401,-0.918 0.903,-0.918 0.655,0 1.078,0.647 0.985,1.527 C 0.829,-0.335 0.5,0 0,0 m -0.097,-2.984 c -0.883,0 -1.447,0.545 -1.549,1.486 -0.128,1.185 0.555,2.056 1.599,2.056 0.867,0 1.489,-0.579 1.583,-1.481 0.121,-1.181 -0.566,-2.061 -1.633,-2.061"
       id="path120338"
       style="fill:#ffffff;fill-opacity:1;fill-rule:nonzero;stroke:none" />
  </g>
  <g
     transform="matrix(12.66817,0,0,-12.66817,180.00203,87.192484)"
     id="g120340"
     style="fill:#ffffff">
    <path
       d="M 0,0 C 0.459,0 0.68,0.205 0.64,0.595 0.614,0.874 0.411,1.015 0.046,1.015 H -0.6 L -0.735,0 Z m -0.96,-1.824 h -0.638 l 0.416,3.373 H 0.032 C 0.56,1.549 0.833,1.465 1.044,1.227 1.185,1.079 1.272,0.874 1.294,0.651 1.353,0.104 1.084,-0.288 0.56,-0.416 L 1.132,-1.824 H 0.475 l -0.531,1.326 h -0.74 z"
       id="path120342"
       style="fill:#ffffff;fill-opacity:1;fill-rule:nonzero;stroke:none" />
  </g>
  <g
     transform="matrix(12.66817,0,0,-12.66817,230.15532,74.932229)"
     id="g120344"
     style="fill:#ffffff">
    <path
       d="m 0,0 h -0.919 l -0.35,-2.792 H -1.907 L -1.562,0 h -0.962 l 0.068,0.581 h 2.527 z"
       id="path120346"
       style="fill:#ffffff;fill-opacity:1;fill-rule:nonzero;stroke:none" />
  </g>
  <g
     transform="matrix(12.66817,0,0,-12.66817,264.41131,74.932229)"
     id="g120348"
     style="fill:#ffffff">
    <path
       d="m 0,0 h -1.765 l -0.094,-0.75 h 1.625 L -0.309,-1.311 H -1.93 L -2.045,-2.206 H -0.1 l -0.08,-0.586 h -2.571 l 0.413,3.373 h 2.413 z"
       id="path120350"
       style="fill:#ffffff;fill-opacity:1;fill-rule:nonzero;stroke:none" />
  </g>
  <g
     transform="matrix(12.66817,0,0,-12.66817,293.2352,79.472502)"
     id="g120352"
     style="fill:#ffffff">
    <path
       d="m 0,0 c -0.121,0.304 -0.389,0.47 -0.746,0.47 -0.343,0 -0.557,-0.154 -0.531,-0.391 0.017,-0.185 0.102,-0.254 0.476,-0.393 l 0.485,-0.181 c 0.274,-0.1 0.396,-0.169 0.521,-0.277 0.185,-0.152 0.279,-0.343 0.304,-0.588 0.073,-0.68 -0.448,-1.155 -1.276,-1.155 -0.42,0 -0.764,0.114 -1.046,0.353 -0.217,0.182 -0.297,0.3 -0.414,0.612 l 0.59,0.239 c 0.1,-0.414 0.408,-0.65 0.846,-0.65 0.386,0 0.621,0.197 0.592,0.489 -0.02,0.209 -0.148,0.348 -0.41,0.436 l -0.368,0.123 c -0.377,0.128 -0.587,0.244 -0.744,0.418 -0.138,0.144 -0.222,0.324 -0.24,0.52 -0.068,0.592 0.424,1.002 1.166,1.002 0.321,0 0.625,-0.088 0.866,-0.24 C 0.277,0.661 0.367,0.562 0.534,0.293 Z"
       id="path120354"
       style="fill:#ffffff;fill-opacity:1;fill-rule:nonzero;stroke:none" />
  </g>
  <g
     transform="matrix(12.66817,0,0,-12.66817,42.592925,84.533385)"
     id="g120356"
     style="fill:#cc0000;fill-opacity:1">
    <path
       d="M 0,0 H 3.008 L 2.915,-0.804 H 1.032 L 0.985,-1.183 H 2.862 L 2.749,-2.097 h -3.016 z"
       id="path120358"
       style="fill:#cc0000;fill-opacity:1;fill-rule:nonzero;stroke:none" />
  </g>
  <g
     transform="matrix(12.66817,0,0,-12.66817,44.783251,67.473211)"
     id="g120360"
     style="fill:#cc0000;fill-opacity:1">
    <path
       d="M 0,0 H 3.006 L 2.881,-0.989 h -3.006 z"
       id="path120362"
       style="fill:#cc0000;fill-opacity:1;fill-rule:nonzero;stroke:none" />
  </g>
</svg>
