<?xml version="1.0" encoding="UTF-8" standalone="no"?>
<!-- Generator: Adobe Illustrator 20.1.0, SVG Export Plug-In . SVG Version: 6.00 Build 0)  -->

<svg
   version="1.1"
   id="Layer_1"
   x="0px"
   y="0px"
   viewBox="0 0 60.599998 12"
   xml:space="preserve"
   sodipodi:docname="ESPN+White.svg"
   width="60.599998"
   height="12"
   inkscape:version="1.4 (86a8ad7, 2024-10-11)"
   xmlns:inkscape="http://www.inkscape.org/namespaces/inkscape"
   xmlns:sodipodi="http://sodipodi.sourceforge.net/DTD/sodipodi-0.dtd"
   xmlns="http://www.w3.org/2000/svg"
   xmlns:svg="http://www.w3.org/2000/svg"><defs
   id="defs11" /><sodipodi:namedview
   id="namedview11"
   pagecolor="#ffffff"
   bordercolor="#000000"
   borderopacity="0.25"
   inkscape:showpageshadow="2"
   inkscape:pageopacity="0.0"
   inkscape:pagecheckerboard="0"
   inkscape:deskcolor="#d1d1d1"
   inkscape:zoom="25.75"
   inkscape:cx="28.699029"
   inkscape:cy="4.2135922"
   inkscape:window-width="3440"
   inkscape:window-height="1377"
   inkscape:window-x="-8"
   inkscape:window-y="-8"
   inkscape:window-maximized="1"
   inkscape:current-layer="Layer_1" />
<style
   type="text/css"
   id="style1">
	.st0{fill:#FFFFFF;}
	.st1{fill:#F9B300;}
</style>
<g
   id="g6"
   transform="translate(-1.7,-2)">
	<g
   id="g5">
		<path
   class="st0"
   d="m 35.2,2 h -8.6 -9.1 c -1.8,0 -3,1 -3.2,2.4 -0.1,0.5 -0.1,1 -0.1,1 h 23.5 c 0,0 0,-0.3 0.1,-0.6 C 38.1,3.3 37.5,2 35.2,2"
   id="path1" />
		<path
   class="st0"
   d="m 37.7,6.7 c 0,0 -0.1,0.5 -0.1,1 -0.1,1 -0.9,1.8 -2.3,1.8 h -5 L 29.6,14 h -4 l 0.9,-7.3 z"
   id="path2" />
		<polygon
   class="st0"
   points="13.5,5.4 2.8,5.4 3.2,2 13.9,2 "
   id="polygon2" />
		<polygon
   class="st0"
   points="12.4,14 12.8,10.8 6.1,10.8 6.3,9.4 13,9.4 13.3,6.7 2.6,6.7 1.7,14 "
   id="polygon3" />
		<path
   class="st0"
   d="m 39,2 h 8.7 c 1.4,0 2.8,0.6 2.5,2.8 -0.1,0.4 -0.1,0.5 -0.1,0.5 H 38.6 Z"
   id="path3" />
		<polygon
   class="st0"
   points="42.5,6.7 38.5,6.6 37.6,14 41.6,14 "
   id="polygon4" />
		<polygon
   class="st0"
   points="50.1,6.7 46.1,6.6 45.1,14 49.1,14 "
   id="polygon5" />
		<path
   class="st0"
   d="m 22.9,6.7 c -0.7,0 -7.4,0 -8.8,0 -0.3,1.9 0.7,2.8 2,2.8 0.7,0 5.4,0 5.4,0 l -0.2,1.4 H 13.5 L 13.2,14 c 0,0 8.5,0 8.8,0 0.3,0 2.3,-0.1 2.9,-1.7 0.2,-0.5 0.4,-2.4 0.5,-2.8 0.3,-2.3 -1.3,-2.8 -2.5,-2.8"
   id="path5" />
	</g>
	<polygon
   class="st1"
   points="56.5,3.5 56.1,6.5 53.1,6.5 52.8,9.5 55.8,9.5 55.4,12.5 58.5,12.5 58.9,9.5 61.9,9.5 62.3,6.5 59.3,6.5 59.7,3.5 "
   id="polygon6" />
</g>
<g
   id="g11"
   transform="translate(-1.7,-2)">
	<g
   id="g10">
		<path
   class="st0"
   d="M 38.5,-140 H 21.3 3.1 c -3.6,0 -6,1.9 -6.4,4.8 -0.1,1 -0.2,2 -0.2,2 h 47.1 c 0,0 0.1,-0.7 0.2,-1.3 0.3,-2.9 -0.9,-5.5 -5.3,-5.5"
   id="path6" />
		<path
   class="st0"
   d="m 43.3,-130.7 c 0,0 -0.1,0.9 -0.2,2 -0.3,2.1 -1.8,3.6 -4.7,3.6 h -10 l -1.1,9.1 h -8 l 1.8,-14.7 z"
   id="path7" />
		<polygon
   class="st0"
   points="-5.1,-133.3 -26.4,-133.3 -25.6,-140 -4.2,-140 "
   id="polygon7" />
		<polygon
   class="st0"
   points="-7.2,-116 -6.4,-122.4 -19.8,-122.4 -19.5,-125.1 -6.1,-125.1 -5.4,-130.7 -26.7,-130.7 -28.6,-116 "
   id="polygon8" />
		<path
   class="st0"
   d="m 46.1,-140 h 17.4 c 2.8,0 5.6,1.3 5,5.7 -0.1,0.8 -0.1,1 -0.1,1 H 45.3 Z"
   id="path8" />
		<polygon
   class="st0"
   points="52.9,-130.7 44.9,-130.7 43.1,-116 51.1,-116 "
   id="polygon9" />
		<polygon
   class="st0"
   points="68.1,-130.7 60.1,-130.7 58.3,-116 66.3,-116 "
   id="polygon10" />
		<path
   class="st0"
   d="m 13.8,-130.7 c -1.4,0 -14.8,0 -17.5,0 -0.6,3.8 1.3,5.6 4,5.6 1.5,0 10.8,0 10.8,0 l -0.3,2.8 H -4.8 l -0.8,6.4 c 0,0 16.9,0 17.6,0 0.6,0 4.5,-0.1 5.9,-3.4 0.4,-1.1 0.8,-4.8 0.9,-5.6 0.7,-4.7 -2.5,-5.8 -5,-5.8"
   id="path10" />
	</g>
	<polygon
   class="st1"
   points="81,-137 80.2,-131 74.3,-131 73.6,-125.1 79.5,-125.1 78.8,-119 85.1,-119 85.9,-125.1 91.8,-125.1 92.6,-131 86.6,-131 87.3,-137 "
   id="polygon11" />
</g>
</svg>
