<?xml version="1.0" encoding="UTF-8" standalone="no"?>
<svg
   version="1.1"
   viewBox="0 0 103.7 70.400003"
   id="svg7"
   sodipodi:docname="JazzPlus.svg"
   width="103.7"
   height="70.400002"
   inkscape:version="1.4 (86a8ad7, 2024-10-11)"
   xmlns:inkscape="http://www.inkscape.org/namespaces/inkscape"
   xmlns:sodipodi="http://sodipodi.sourceforge.net/DTD/sodipodi-0.dtd"
   xmlns="http://www.w3.org/2000/svg"
   xmlns:svg="http://www.w3.org/2000/svg">
  <sodipodi:namedview
     id="namedview7"
     pagecolor="#ffffff"
     bordercolor="#000000"
     borderopacity="0.25"
     inkscape:showpageshadow="2"
     inkscape:pageopacity="0.0"
     inkscape:pagecheckerboard="0"
     inkscape:deskcolor="#d1d1d1"
     inkscape:zoom="4.6150824"
     inkscape:cx="112.67405"
     inkscape:cy="83.53047"
     inkscape:window-width="3440"
     inkscape:window-height="1377"
     inkscape:window-x="-8"
     inkscape:window-y="-8"
     inkscape:window-maximized="1"
     inkscape:current-layer="svg7" />
  <defs
     id="defs1">
    <style
       id="style1">
      .cls-1 {
        fill: #7ab2e0;
      }

      .cls-2 {
        fill: #fff;
      }
    </style>
  </defs>
  <!-- Generator: Adobe Illustrator 28.7.1, SVG Export Plug-In . SVG Version: 1.2.0 Build 142)  -->
  <path
     id="Vector_Smart_Object"
     class="cls-2"
     d="M 103.7,0 93.6,21.7 H 53 L 40.2,49.1 H 28.7 c 0,-1.4 0.4,-2.7 0.8,-4.1 1.1,-3.3 3.2,-6 5.8,-8 0.7,0.8 1.3,1.6 1.9,2.5 0,0 0.3,0 0.3,0 v 0 L 55.9,0 Z M 11.4,51.4 H 0 c 0,1.7 0.4,3.5 1,5.2 0.9,2.6 2.2,4.9 3.9,6.8 2,-1.5 3.7,-3.5 4.8,-5.8 1,-2 1.6,-4.1 1.7,-6.3 v 0 z m 2.3,0 c 0,2.5 -0.8,5 -2,7.3 -1.3,2.5 -3.1,4.7 -5.2,6.4 3.4,3.1 7.8,5 12.5,5.3 v -19 z M 4.9,37.1 C 2,40.4 0.3,44.7 0,49.1 H 11.4 C 11.4,47.7 11,46.4 10.6,45 9.5,41.7 7.5,39 4.9,37.1 Z m 8.9,-5.9 c -2.8,0.9 -5.3,2.4 -7.3,4.3 2.8,2.2 5.1,5.2 6.3,8.9 0.5,1.6 0.8,3.2 0.9,4.8 H 19 v -19 c -1.7,0 -3.5,0.4 -5.2,1 z m 13.6,13.2 c 1.2,-3.6 3.4,-6.6 6.3,-8.9 -3.4,-3.1 -7.8,-5 -12.5,-5.3 v 19 h 5.3 c 0,-1.6 0.4,-3.2 0.9,-4.8 z m 1,14.3 c -1.1,-2.3 -1.8,-4.8 -2,-7.3 h -5.3 v 19 c 1.8,0 3.5,-0.4 5.3,-1 2.8,-0.9 5.2,-2.4 7.3,-4.3 -2.2,-1.7 -4,-3.9 -5.3,-6.4 z m 0.3,-7.3 c 0,2.2 0.7,4.3 1.7,6.3 1,2 2.8,4.3 4.9,5.8 2.9,-3.3 4.6,-7.6 4.9,-12.1 z" />
  <polygon
     class="cls-1"
     points="140.7,47.8 127.2,47.8 127.2,34.3 120.9,34.3 120.9,47.8 107.4,47.8 107.4,54 120.9,54 120.9,67.5 127.2,67.5 127.2,54 140.7,54 "
     id="polygon1"
     transform="translate(-52.1,-0.6)" />
</svg>
