<?xml version="1.0" encoding="UTF-8" standalone="no"?>
<!-- Generator: Adobe Illustrator 24.3.0, SVG Export Plug-In . SVG Version: 6.00 Build 0)  -->

<svg
   version="1.1"
   id="Layer_1"
   x="0px"
   y="0px"
   viewBox="0 0 115.673 33.995998"
   xml:space="preserve"
   sodipodi:docname="KATU.svg"
   width="115.673"
   height="33.995998"
   inkscape:version="1.4 (86a8ad7, 2024-10-11)"
   xmlns:inkscape="http://www.inkscape.org/namespaces/inkscape"
   xmlns:sodipodi="http://sodipodi.sourceforge.net/DTD/sodipodi-0.dtd"
   xmlns="http://www.w3.org/2000/svg"
   xmlns:svg="http://www.w3.org/2000/svg"><defs
   id="defs8" /><sodipodi:namedview
   id="namedview8"
   pagecolor="#ffffff"
   bordercolor="#000000"
   borderopacity="0.25"
   inkscape:showpageshadow="2"
   inkscape:pageopacity="0.0"
   inkscape:pagecheckerboard="0"
   inkscape:deskcolor="#d1d1d1"
   inkscape:zoom="13.847508"
   inkscape:cx="62.177253"
   inkscape:cy="15.706797"
   inkscape:window-width="3440"
   inkscape:window-height="1377"
   inkscape:window-x="-8"
   inkscape:window-y="-8"
   inkscape:window-maximized="1"
   inkscape:current-layer="Layer_1" />
<style
   type="text/css"
   id="style1">
	.st0{fill:none;}
	.st1{fill:#FFFFFF;}
</style>

<g
   id="g8"
   style="fill:#ffffff"
   transform="translate(0,-13.002)">
	<polygon
   class="st1"
   points="15.1,21.567 14.658,21.567 9.889,21.567 9.801,21.567 9.713,21.656 4.68,27.66 4.68,21.832 4.68,21.567 4.503,21.567 0.177,21.567 0,21.567 0,21.832 0,37.638 0,37.814 0.177,37.814 4.503,37.814 4.68,37.814 4.68,37.638 4.68,32.693 6.269,30.927 10.331,37.726 10.419,37.814 10.507,37.814 15.629,37.814 15.982,37.814 15.805,37.549 9.537,27.484 14.835,21.921 "
   id="polygon1"
   style="fill:#ffffff" />
	<polygon
   class="st1"
   points="31.7,21.832 31.7,25.276 31.7,25.453 31.876,25.453 36.379,25.453 36.379,37.638 36.379,37.814 36.556,37.814 40.882,37.814 41.059,37.814 41.059,37.638 41.059,25.453 45.474,25.453 45.651,25.453 45.651,25.276 45.651,21.832 45.651,21.567 45.474,21.567 31.876,21.567 31.7,21.567 "
   id="polygon2"
   style="fill:#ffffff" />
	<path
   class="st1"
   d="m 27.814,21.744 v -0.088 h -4.945 v 0.088 l -5.475,15.894 -0.088,0.265 h 4.503 v -0.177 l 0.618,-2.119 h 5.651 l 0.618,2.119 v 0.177 h 4.591 l -0.088,-0.265 z m -4.503,10.949 2.031,-7.152 2.031,7.152 z"
   id="path2"
   style="fill:#ffffff" />
	<path
   class="st1"
   d="m 57.924,21.567 h -0.177 v 0.177 9.977 c 0,1.06 -0.177,1.766 -0.618,2.207 -0.442,0.53 -1.148,0.707 -2.119,0.707 -0.972,0 -1.766,-0.265 -2.207,-0.707 -0.442,-0.442 -0.618,-1.236 -0.618,-2.207 v -9.889 -0.177 h -0.177 -4.326 -0.177 v 0.177 10.331 c 0,2.207 0.707,3.797 2.207,4.856 1.236,0.883 3.091,1.413 5.298,1.413 2.207,0 4.062,-0.442 5.298,-1.413 1.501,-1.06 2.207,-2.649 2.207,-4.856 V 21.832 21.655 h -0.177 -4.415 z"
   id="path3"
   style="fill:#ffffff" />
	<g
   id="g7"
   style="fill:#ffffff">
		<g
   id="g6"
   style="fill:#ffffff">
			<path
   class="st1"
   d="m 97.482,27.042 c -0.177,-0.088 -0.353,-0.088 -0.442,-0.088 -0.883,0 -1.677,0.707 -1.677,1.677 0,0.795 0.53,1.413 1.237,1.589 0.177,0 0.265,0.088 0.442,0.088 0.883,0 1.677,-0.707 1.677,-1.677 0,-0.706 -0.53,-1.412 -1.237,-1.589 z"
   id="path4"
   style="fill:#ffffff" />
			<path
   class="st1"
   d="m 104.37,17.329 c -2.031,0 -3.886,0.53 -5.474,1.413 -3.444,1.942 -5.828,5.651 -5.828,9.889 0,2.384 0.795,4.68 2.031,6.534 2.031,2.914 5.386,4.768 9.272,4.768 6.269,0 11.302,-5.033 11.302,-11.302 -0.001,-6.18 -5.035,-11.302 -11.303,-11.302 z m -3.797,14.746 h -1.854 v -0.707 c 0,0 -0.618,0.795 -1.854,0.795 -0.265,0 -0.53,0 -0.795,-0.088 -1.325,-0.353 -2.561,-1.677 -2.561,-3.356 0,-1.942 1.589,-3.532 3.532,-3.532 0.353,0 0.707,0.088 0.972,0.177 1.413,0.442 2.472,1.766 2.472,3.356 v 3.356 z m 3.885,0.088 c -1.942,0 -3.532,-1.589 -3.532,-3.532 v -6.004 h 1.854 v 3.267 c 0,0 0.707,-0.707 1.766,-0.707 1.854,0 3.444,1.589 3.444,3.532 -10e-4,1.855 -1.59,3.444 -3.532,3.444 z m 7.417,0 c -1.942,0 -3.532,-1.589 -3.532,-3.532 0,-1.943 1.589,-3.532 3.532,-3.532 1.677,0 3.091,1.148 3.444,2.737 h -1.942 c -0.265,-0.53 -0.883,-0.883 -1.501,-0.883 -0.883,0 -1.677,0.707 -1.677,1.677 0,0.883 0.707,1.677 1.677,1.677 0.618,0 1.148,-0.353 1.501,-0.883 h 1.942 c -0.442,1.592 -1.855,2.739 -3.444,2.739 z"
   id="path5"
   style="fill:#ffffff" />
			<path
   class="st1"
   d="m 104.458,26.954 c -0.883,0 -1.677,0.707 -1.677,1.677 0,0.883 0.707,1.677 1.677,1.677 0.883,0 1.677,-0.707 1.677,-1.677 0,-0.882 -0.706,-1.677 -1.677,-1.677 z"
   id="path6"
   style="fill:#ffffff" />
		</g>
		<path
   class="st1"
   d="m 97.835,18.565 -24.9,-5.563 -10.242,27.55 28.962,6.446 3.179,-10.949 c -1.589,-2.031 -2.561,-4.591 -2.561,-7.417 0.088,-4.239 2.295,-7.948 5.562,-10.067 z m -5.209,15.1 -4.856,5.474 H 69.58 l 0.088,-0.353 c 0.795,-4.945 4.68,-7.24 8.123,-9.36 0.265,-0.177 0.618,-0.353 0.972,-0.53 1.854,-1.06 4.15,-2.296 3.886,-4.238 0,-0.265 -0.265,-1.325 -1.766,-1.325 -0.618,0 -1.236,0.177 -1.677,0.618 -0.795,0.707 -0.972,1.589 -1.148,2.649 0,0.177 -0.088,0.353 -0.088,0.53 l -0.088,0.265 H 71.878 V 27.13 c 0.265,-2.384 1.236,-4.503 2.649,-6.004 1.501,-1.589 3.532,-2.561 6.004,-2.826 0.442,0 0.972,-0.088 1.413,-0.088 3.444,0 5.21,1.148 6.093,2.119 0.972,1.06 1.413,2.472 1.237,4.238 -0.353,4.062 -3.532,5.739 -6.534,7.417 -1.148,0.618 -2.119,1.148 -3.091,1.766 1.148,0 2.737,0 4.503,0 3.886,0 7.77,0 7.77,0 h 0.707 v -0.089 h -0.003 z"
   id="path7"
   style="fill:#ffffff" />
	</g>
</g>
</svg>
