<?xml version="1.0" encoding="UTF-8" standalone="no"?>
<svg
   version="1.1"
   width="446.71527"
   height="273.58865"
   viewBox="0 0 446.71525 273.58866"
   xml:space="preserve"
   id="svg5"
   sodipodi:docname="KCAL.svg"
   inkscape:version="1.4 (86a8ad7, 2024-10-11)"
   xmlns:inkscape="http://www.inkscape.org/namespaces/inkscape"
   xmlns:sodipodi="http://sodipodi.sourceforge.net/DTD/sodipodi-0.dtd"
   xmlns="http://www.w3.org/2000/svg"
   xmlns:svg="http://www.w3.org/2000/svg"><sodipodi:namedview
   id="namedview5"
   pagecolor="#ffffff"
   bordercolor="#000000"
   borderopacity="0.25"
   inkscape:showpageshadow="2"
   inkscape:pageopacity="0.0"
   inkscape:pagecheckerboard="0"
   inkscape:deskcolor="#d1d1d1"
   inkscape:zoom="0.92995524"
   inkscape:cx="825.8462"
   inkscape:cy="162.91107"
   inkscape:window-width="3440"
   inkscape:window-height="1377"
   inkscape:window-x="-8"
   inkscape:window-y="-8"
   inkscape:window-maximized="1"
   inkscape:current-layer="g5" />
<desc
   id="desc1">Created with Fabric.js 5.3.0</desc>
<defs
   id="defs1">


</defs>
<g
   vector-effect="non-scaling-stroke"
   id="g5"
   transform="matrix(2.1405212,0,0,2.1405212,531.97024,137.33197)">
		<g
   transform="matrix(1.0778932,0,0,0.66015059,-144.17639,-0.25118031)"
   id="lbWFQfmshx3notglYYvKR"
   style="display:inline">
<path
   style="opacity:1;fill:#000000;fill-rule:nonzero;stroke:#9d61d4;stroke-width:0;stroke-linecap:butt;stroke-linejoin:miter;stroke-miterlimit:4;stroke-dasharray:none;stroke-dashoffset:0"
   vector-effect="non-scaling-stroke"
   d="M -96.80672,-96.80672 H 96.80673 V 96.80673 H -96.80672 Z"
   stroke-linecap="round"
   id="path1" />
</g>
		<g
   transform="matrix(1.7799385,0,0,1.7799385,-144.19147,-23.976468)"
   id="pvJHq3keNZkFsJGKMq-5I">
<path
   style="opacity:1;fill:#ffffff;fill-rule:nonzero;stroke:none;stroke-width:1;stroke-linecap:butt;stroke-linejoin:miter;stroke-miterlimit:4;stroke-dasharray:none;stroke-dashoffset:0"
   vector-effect="non-scaling-stroke"
   d="m -46.026,12.6 h 5.4 V 5.22 l 3.24,-3.42 7.38,10.8 h 6.3 l -10.08,-14.76 9.36,-10.44 h -6.48 l -9.72,10.8 v -10.8 h -5.4 z M -4.042,4.5 c -0.504,0.684 -1.116,1.26 -1.836,1.8 -1.26,0.9 -3.024,1.8 -5.364,1.8 -4.5,0 -8.1,-3.6 -8.1,-8.1 0,-4.5 3.6,-8.1 8.1,-8.1 2.268,0 3.996,0.9 5.184,1.8 0.684,0.54 1.296,1.116 1.836,1.8 l 3.6,-3.6 c -0.756,-0.936 -1.62,-1.764 -2.664,-2.52 -1.764,-1.26 -4.464,-2.52 -7.956,-2.52 -7.776,0 -13.68,5.94 -13.68,13.14 0,7.2 5.904,13.14 13.68,13.14 3.6,0 6.264,-1.26 8.1,-2.52 1.044,-0.756 1.944,-1.584 2.7,-2.52 z M 10.422,1.98 13.41,-6.3 h 0.144 l 2.988,8.28 z M 0.702,12.6 h 5.76 l 2.16,-5.76 h 9.72 l 2.16,5.76 h 5.76 l -9.72,-25.2 h -6.12 z m 28.224,0 h 17.1 V 7.56 h -11.7 V -12.6 h -5.4 z"
   stroke-linecap="round"
   id="path2" />
</g>
		<g
   transform="matrix(2.1824667,0,0,2.1824667,-144.17639,26.653251)"
   id="DuQEnc_Gxmq-AJBfKaneV">
<path
   style="opacity:1;fill:#ffffff;fill-rule:nonzero;stroke:none;stroke-width:1;stroke-linecap:butt;stroke-linejoin:miter;stroke-miterlimit:4;stroke-dasharray:none;stroke-dashoffset:0"
   vector-effect="non-scaling-stroke"
   d="m -37.544,9.1 h 3.9 V -2.21 l 8.84,11.31 h 3.51 V -9.1 h -3.9 V 2.21 l -8.84,-11.31 h -3.51 z m 18.916,0 h 13.78 V 5.46 h -9.88 v -3.9 h 7.54 v -3.51 h -7.54 v -3.51 h 9.62 V -9.1 h -13.52 z m 21.306,0 h 3.77 L 10.14,-2.73 h 0.156 L 13.988,9.1 h 3.77 l 5.98,-18.2 h -4.03 l -3.77,12.22 h -0.13 L 12.038,-9.1 H 8.398 L 4.628,3.12 H 4.498 L 0.728,-9.1 h -4.03 z M 23.634,6.63 c 0.468,0.546 1.04,1.014 1.742,1.43 1.17,0.728 2.912,1.43 5.278,1.43 4.29,0 6.89,-2.6 6.89,-5.59 0,-6.344 -9.1,-4.966 -9.1,-8.06 0,-1.04 0.754,-1.82 2.73,-1.82 1.04,0 1.872,0.39 2.47,0.78 0.338,0.234 0.624,0.494 0.91,0.78 l 2.6,-2.6 C 36.712,-7.462 36.218,-7.878 35.62,-8.242 34.606,-8.866 33.046,-9.49 31.044,-9.49 c -4.16,0 -6.63,2.47 -6.63,5.33 0,6.344 9.1,4.966 9.1,8.06 0,1.17 -0.91,2.08 -2.99,2.08 C 29.146,5.98 28.08,5.512 27.352,5.018 26.91,4.732 26.546,4.394 26.234,4.03 Z"
   stroke-linecap="round"
   id="path3" />
</g>
		
		
</g>
</svg>
