<?xml version="1.0" encoding="UTF-8" standalone="no"?>
<!-- Created with Inkscape (http://www.inkscape.org/) -->

<svg
   width="320mm"
   height="122mm"
   viewBox="0 0 320 122"
   version="1.1"
   id="svg679"
   inkscape:version="1.4 (86a8ad7, 2024-10-11)"
   sodipodi:docname="KNTV.svg"
   xmlns:inkscape="http://www.inkscape.org/namespaces/inkscape"
   xmlns:sodipodi="http://sodipodi.sourceforge.net/DTD/sodipodi-0.dtd"
   xmlns="http://www.w3.org/2000/svg"
   xmlns:svg="http://www.w3.org/2000/svg">
  <sodipodi:namedview
     id="namedview681"
     pagecolor="#ffffff"
     bordercolor="#000000"
     borderopacity="0.25"
     inkscape:showpageshadow="2"
     inkscape:pageopacity="0.0"
     inkscape:pagecheckerboard="0"
     inkscape:deskcolor="#d1d1d1"
     inkscape:document-units="mm"
     showgrid="false"
     inkscape:zoom="1.16"
     inkscape:cx="643.10344"
     inkscape:cy="364.22413"
     inkscape:window-width="3440"
     inkscape:window-height="1377"
     inkscape:window-x="-8"
     inkscape:window-y="-8"
     inkscape:window-maximized="1"
     inkscape:current-layer="layer1" />
  <defs
     id="defs676" />
  <g
     inkscape:label="Layer 1"
     inkscape:groupmode="layer"
     id="layer1">
    <path
       d="M 0,80.212484 H 319.62462 V 78.331702 H 0 Z"
       style="fill:#ffffff;fill-opacity:1;fill-rule:nonzero;stroke:none;stroke-width:0.0611498"
       id="path90"
       inkscape:connector-curvature="0" />
    <path
       d="m 291.56636,109.00936 8.00534,-16.126765 8.00594,16.126765 z m 10.71791,-20.764444 h -5.42576 l -0.12934,0.254959 -17.15769,33.501975 h 5.46054 l 4.26715,-8.53132 h 20.49746 l 4.22323,8.53132 h 5.50752 z m -57.33445,18.453264 h 21.02827 v -4.46117 h -21.02827 v -9.530925 l 25.16303,0.0018 v -4.463008 h -30.05677 v 33.756933 h 30.59611 v -4.46117 h -25.70237 z m -30.26176,-3.69322 H 201.13738 V 92.707924 h 13.55068 c 1.54542,-0.0018 2.84985,0.05884 3.90291,0.17651 1.24586,0.174058 2.27269,0.438824 3.0573,0.777134 1.72662,0.82065 2.52771,2.110154 2.54906,4.170663 -0.0213,2.097896 -0.82427,3.400269 -2.55944,4.224599 -0.77423,0.33218 -1.80106,0.59511 -3.05851,0.77162 -1.01279,0.11767 -2.31478,0.17651 -3.89132,0.17651 z m 6.86625,3.81274 c 1.29527,-0.34138 2.46975,-0.85927 3.5039,-1.55182 1.158,-0.75507 2.08537,-1.71546 2.7504,-2.86155 0.73702,-1.31892 1.09943,-2.834578 1.09943,-4.524294 0,-1.967352 -0.43806,-3.673615 -1.33189,-5.083857 -0.80291,-1.225151 -1.93833,-2.198408 -3.37516,-2.920383 -1.25196,-0.630043 -2.69305,-1.063351 -4.31962,-1.309729 -1.28308,-0.214509 -2.71563,-0.319925 -4.294,-0.319925 l -19.3419,-0.0012 v 33.755098 h 4.89191 v -14.53389 h 12.14253 l 10.51535,14.53573 h 6.06639 l -10.83627,-14.69569 c 0.85172,-0.0919 1.69429,-0.25496 2.52893,-0.48846 z m -64.5265,2.19166 8.00594,-16.124926 8.00595,16.124926 z m 5.29337,-20.764444 -0.12996,0.254959 -17.15708,33.500135 h 5.46054 l 4.26716,-8.52948 h 20.49746 l 4.22262,8.53132 h 5.50751 L 167.74694,88.244916 Z M 101.80985,104.01499 88.363501,88.244916 h -6.405 l 17.407225,20.193244 v 13.56369 h 4.888864 v -13.56798 l 17.40722,-20.188954 h -6.40744 z m -47.773805,4.99437 8.007043,-16.126765 8.004725,16.126765 z m 5.29349,-20.764444 -0.131602,0.254959 -17.156406,33.500135 h 5.460784 l 4.266542,-8.52948 h 20.498562 l 4.223835,8.53132 h 5.506909 L 64.753834,88.244916 Z M 26.25715,116.54536 c -0.755019,0.36528 -1.711193,0.62759 -2.874197,0.7753 -0.938054,0.14647 -2.06988,0.22002 -3.399018,0.22002 l -14.8570496,-0.002 V 106.51861 H 20.431028 c 2.797505,-0.002 4.87733,0.45169 6.226541,1.28337 1.508573,0.95365 2.234794,2.33509 2.248339,4.3864 -0.02117,2.15428 -0.853919,3.50262 -2.648758,4.35698 z M 5.1268854,92.524059 H 19.354966 l 2.046025,0.09193 c 1.402352,0.08642 2.549858,0.279474 3.426717,0.563851 2.093187,0.703589 3.015012,1.965513 3.044114,4.158405 -0.0219,1.899322 -0.895651,3.139185 -2.898052,3.988025 -0.821033,0.33954 -1.828457,0.58898 -3.026969,0.73423 -0.993819,0.11952 -2.129245,0.17651 -3.401886,0.17651 H 5.1268854 Z M 31.457475,106.21156 c -0.609689,-0.5804 -1.314617,-1.09645 -2.11753,-1.56469 l -0.969048,-0.4707 0.812187,-0.41859 c 0.689004,-0.42412 1.255985,-0.86846 1.736696,-1.34773 1.236949,-1.30789 1.846821,-3.045414 1.843222,-5.119407 0,-2.058671 -0.501211,-3.82561 -1.52767,-5.240142 -0.904193,-1.17183 -2.151148,-2.062348 -3.709812,-2.688713 -1.218768,-0.499499 -2.656873,-0.82494 -4.310837,-0.979386 -0.603222,-0.06068 -1.258121,-0.107867 -1.954507,-0.137286 H 0.23546664 V 122.00185 H 17.422179 c 1.022189,-0.002 1.910884,-0.0147 2.669502,-0.0453 0.987351,-0.0294 1.894411,-0.0754 2.711662,-0.13606 2.108256,-0.21513 3.883755,-0.59695 5.345655,-1.15712 1.763602,-0.65395 3.149481,-1.60698 4.112793,-2.864 1.092047,-1.48195 1.625899,-3.32611 1.623946,-5.47672 0,-1.31892 -0.235931,-2.54407 -0.710419,-3.66074 -0.419455,-0.90523 -0.993818,-1.72098 -1.717843,-2.4503"
       style="fill:#ffffff;fill-opacity:1;fill-rule:nonzero;stroke:none;stroke-width:0.0611498"
       id="path92"
       inkscape:connector-curvature="0" />
    <g
       id="g26"
       transform="matrix(0.1865199,0,0,0.18384574,-4.3421779,-155.86345)">
      <path
         id="path1-2"
         style="fill:#ffffff;fill-opacity:1;stroke-width:11.8284"
         d="m 1492.9062,847.79492 c -30.2025,0.14781 -57.3805,17.58006 -70.2714,43.44922 -12.8634,-25.68905 -39.728,-43.1384 -69.7266,-43.44141 -6.4767,-0.0654 -13.0884,0.62515 -19.7012,2.1211 -46.973,10.50268 -68.2643,57.4747 -58.5175,96.29101 -12.2906,-7.41834 -26.057,-11.4637 -39.6856,-11.75195 -19.7737,-0.41823 -39.5231,6.30555 -54.6777,19.98633 -0.01,0.008 -0.018,0.0169 -0.027,0.0254 -14.286,12.95004 -24.5169,33.13437 -25.5332,56.75388 -0.9475,22.02 6.7236,41.6958 24.7793,58.9277 -32.6217,2.3994 -60.8342,26.7604 -69.2344,54.9161 l -0.01,0.019 c -8.0353,27.0431 -3.0705,54.0901 12.1504,73.5703 15.2208,19.4802 39.9938,30.9766 68.0156,30.9766 h 464.4629 c 28.0611,0 52.8466,-11.4941 68.0586,-30.9825 15.212,-19.4883 20.1412,-46.531 12.1094,-73.5624 v 0 c -8.3834,-28.1916 -36.8748,-52.613 -69.1914,-54.9902 19.7159,-18.8519 25.5688,-39.2152 24.7227,-58.8711 -1.0169,-23.6196 -11.2484,-43.80397 -25.5352,-56.75388 -0.01,-0.008 -0.018,-0.0169 -0.027,-0.0254 -15.1539,-13.68016 -34.9023,-20.40456 -54.6758,-19.98633 -13.6285,0.28826 -27.395,4.33363 -39.6856,11.75195 9.7473,-38.81701 -11.5452,-85.79022 -58.5195,-96.29101 -6.4694,-1.46394 -12.9377,-2.15995 -19.2813,-2.12891 z" />
      <path
         d="m 1550.4487,950.6036 -86.3472,197.2384 -24.6421,-171.41348 c -3.1547,-23.26171 36.4704,-37.6533 36.4704,-37.6533 -3.6467,-8.08234 -16.1646,-7.88599 -16.1646,-7.88599 h -26.8114 c -4.2382,-42.18713 34.0066,-72.84277 75.3078,-63.47823 40.6104,9.06764 55.3958,53.22775 42.1871,83.1926 z"
         fill="#6e55dc"
         id="path1"
         style="fill:#6e55dc;fill-opacity:1;stroke-width:11.8284" />
      <path
         d="m 1390.0747,1211.7153 -168.357,-112.1734 c -42.8779,-28.5844 -85.2626,0.5915 -94.2321,30.6557 -13.2087,44.4546 16.4604,81.5177 62.985,81.5177 z"
         fill="#fccc12"
         id="path2-8"
         style="fill:#fccc12;fill-opacity:1;stroke-width:11.8284" />
      <path
         d="m 1412.1465,933.64879 c 6.2098,-43.5675 -32.8238,-75.79986 -75.011,-66.23897 -40.6116,9.06882 -55.397,53.22774 -42.1883,83.19378 l 86.3473,197.2372 30.852,-214.29019 z"
         fill="#ef1541"
         id="path3-9"
         style="fill:#ef1541;fill-opacity:1;stroke-width:11.8284" />
      <path
         d="m 1374.395,1180.2707 -82.8969,-188.95851 c -19.4187,-43.76504 -70.774,-49.18599 -99.1622,-23.55861 -20.0089,18.13766 -35.4851,67.42182 9.1671,97.28852 z"
         fill="#ff7112"
         id="path4-7"
         style="fill:#ff7112;fill-opacity:1;stroke-width:11.8284" />
      <path
         d="m 1654.9336,1211.7153 c 46.6239,0 76.1949,-37.0619 62.9862,-81.5165 -8.9695,-30.1624 -51.3554,-59.3395 -94.2333,-30.6557 l -168.357,112.1722 z"
         fill="#05ac3f"
         id="path5-3"
         style="fill:#05ac3f;fill-opacity:1;stroke-width:11.8284" />
      <path
         d="m 1643.8918,1065.0421 c 44.6521,-29.8667 29.1771,-79.15086 9.167,-97.28852 -28.3881,-25.62738 -79.7423,-20.20643 -99.1609,23.55861 l -82.8969,188.95851 z"
         fill="#069de0"
         id="path6"
         style="fill:#069de0;fill-opacity:1;stroke-width:11.8284" />
    </g>
    <path
       d="M 0.148001,0.32452769 49.013325,40.427855 V 2.1558194 H 64.715397 V 72.474234 L 16.042462,31.538 V 69.960805 H 0.148001 V 0.32452769"
       style="fill:#ffffff;fill-opacity:1;fill-rule:nonzero;stroke:none;stroke-width:0.0611498"
       id="path108"
       inkscape:connector-curvature="0" />
    <path
       d="M 87.369012,58.550779 H 101.5475 c 2.19154,0 4.2458,-0.704815 6.16218,-2.127927 2.40263,-1.751617 3.59358,-3.986798 3.59358,-6.69206 0,-2.705261 -1.12871,-4.866283 -3.38431,-6.495937 -1.92431,-1.483175 -3.90292,-2.226601 -5.95901,-2.226601 H 87.369012 v 17.542525 m 0,-29.173801 h 12.163886 c 2.440462,-0.271507 4.455682,-1.147315 6.056622,-2.613329 1.58264,-1.464789 2.38312,-3.323047 2.38312,-5.579679 0,-2.254793 -0.92311,-4.081795 -2.75041,-5.474876 -1.84316,-1.39921 -3.84434,-2.103411 -6.020625,-2.103411 H 87.369012 Z M 71.469383,2.1729801 h 32.200107 c 5.05054,-0.060675 8.59836,0.6557839 12.46955,2.9185446 5.4337,3.1477624 8.71002,8.1409133 8.71002,14.0245813 0,4.17863 -1.5259,7.873696 -4.58441,11.093166 -1.01036,1.097059 -2.53992,2.292792 -4.57221,3.594553 4.54475,1.902999 7.96018,4.592939 10.25971,8.0594 1.87855,2.852353 2.8224,6.116563 2.8224,9.785888 0,4.896315 -2.05548,9.637571 -6.16096,13.10342 -4.10181,3.467687 -7.65939,5.171499 -14.3902,5.199079 H 71.469383 V 2.1729801"
       style="fill:#ffffff;fill-opacity:1;fill-rule:nonzero;stroke:none;stroke-width:0.0611498"
       id="path110"
       inkscape:connector-curvature="0" />
    <path
       d="m 187.91006,16.451907 c -2.2434,-1.315858 -4.56977,-2.263373 -6.97668,-2.851127 -2.41423,-0.583464 -4.94377,-0.88255 -7.59106,-0.88255 -6.99682,0 -13.04917,1.975319 -18.13998,5.916763 -5.36475,4.152277 -8.04438,9.388128 -8.04438,15.715523 0,7.483903 2.71197,13.570436 8.1481,18.265112 5.02858,4.288949 11.10961,6.426069 18.2382,6.426069 5.09691,0 9.88694,-1.174895 14.3658,-3.5492 v 13.729785 c -2.64668,0.745264 -5.33791,1.333631 -8.08526,1.780422 -2.74552,0.43576 -5.4398,0.661913 -8.07977,0.661913 -11.32986,0 -20.90563,-3.50875 -28.74196,-10.518283 -7.83023,-7.011371 -11.74413,-15.789068 -11.74413,-26.342285 0,-8.986077 4.08412,-17.72026 12.25663,-24.667279 8.17128,-6.9408897 17.816,-9.63879667 28.93964,-9.63879667 2.50513,0 5.06213,0.20286397 7.67221,0.61226917 2.61435,0.4100182 5.20368,1.0547701 7.78264,1.9422234 V 16.451907"
       style="fill:#ffffff;fill-opacity:1;fill-rule:nonzero;stroke:none;stroke-width:0.0611498"
       id="path112"
       inkscape:connector-curvature="0" />
  </g>
</svg>
