<?xml version="1.0" encoding="UTF-8" standalone="no"?>
<svg
   id="Layer_1"
   version="1.1"
   viewBox="0 0 1736.62394 690.60421"
   sodipodi:docname="KUNP16.svg"
   inkscape:version="1.4 (86a8ad7, 2024-10-11)"
   xmlns:inkscape="http://www.inkscape.org/namespaces/inkscape"
   xmlns:sodipodi="http://sodipodi.sourceforge.net/DTD/sodipodi-0.dtd"
   xmlns="http://www.w3.org/2000/svg"
   xmlns:svg="http://www.w3.org/2000/svg">
  <sodipodi:namedview
     id="namedview12"
     pagecolor="#ffffff"
     bordercolor="#000000"
     borderopacity="0.25"
     inkscape:showpageshadow="2"
     inkscape:pageopacity="0.0"
     inkscape:pagecheckerboard="0"
     inkscape:deskcolor="#d1d1d1"
     inkscape:zoom="1.7014087"
     inkscape:cx="868.10416"
     inkscape:cy="705.00402"
     inkscape:window-width="3440"
     inkscape:window-height="1377"
     inkscape:window-x="-8"
     inkscape:window-y="-8"
     inkscape:window-maximized="1"
     inkscape:current-layer="Layer_1" />
  <!-- Generator: Adobe Illustrator 29.0.0, SVG Export Plug-In . SVG Version: 2.1.0 Build 186)  -->
  <defs
     id="defs1">
    <style
       id="style1">
      .st0 {
        fill: #f14043;
      }
    </style>
  </defs>
  <path
     class="st0"
     d="M131.36119,0v146.88574h1.19413L249.58608,0h161.81279l-154.64801,166.59018,179.72647,259.73662h-163.60442l-105.08947-165.99268-36.42225,40.00551v125.98717H0V0h131.36119Z"
     id="path1" />
  <path
     class="st0"
     d="M585.7591,0v237.64478c0,36.22625,5.16852,60.70721,15.52455,73.44287,10.34653,12.74343,26.46772,19.10694,48.36442,19.10694,22.69019,0,38.70863-6.86689,48.06653-20.59982,9.3484-13.73379,14.03167-34.33361,14.03167-61.79946V0h131.36119v264.514c0,56.92882-15.6273,99.81734-46.8724,128.67418-31.25374,28.86548-80.3089,43.28915-147.18362,43.28915-129.77506,0-194.65352-57.51682-194.65352-172.56082V0h131.36119Z"
     id="path2" />
  <path
     class="st0"
     d="M1041.49706,0l124.19641,227.49339h1.19499V0h124.19295v426.32679h-127.77793l-130.76196-232.8674h-1.19499v232.8674h-124.19641V0h134.34694Z"
     id="path3" />
  <path
     class="st0"
     d="M1584.36418,0c44.18539,0,80.60851,13.73292,109.26763,41.19964,28.66084,27.46671,42.99213,62.3037,42.99213,104.49197,0,48.96191-14.73192,86.48591-44.18539,112.55299-29.46384,26.07572-71.65124,39.10926-126.58467,39.10926h-74.0395v128.97293h-131.36119V0h223.911ZM1546.74607,195.84765c23.08306,0,39.80087-3.37689,50.15691-10.15054,10.34567-6.76415,15.52455-18.51031,15.52455-35.22899,0-13.52743-3.98389-23.78071-11.9413-30.75035-7.96777-6.96014-23.49232-10.44928-46.57365-10.44928h-62.0982v86.57916h54.9317Z"
     id="path4" />
  <path
     d="M331.75827,686.28272v-192.83945h102.36101c18.90662,0,33.57983,4.86114,44.02393,14.58427,10.44065,9.72314,15.66529,23.40857,15.66529,41.05285,0,18.72876-5.89985,32.77252-17.69091,42.13301-11.79538,9.36395-27.68343,14.04462-47.66935,14.04462h-76.70406v81.02469h-19.98592ZM351.74419,511.80853v75.08339h78.59412c13.50411,0,23.85583-2.83552,31.05946-8.50742,7.20018-5.6719,10.80329-15.43734,10.80329-29.3041,0-12.96447-3.24047-22.41735-9.72227-28.35864-6.48267-5.94216-15.93555-8.91323-28.3595-8.91323h-82.3751Z"
     id="path5"
     style="fill:#ffffff" />
  <path
     d="M494.73929,616.06133c0-13.14147,2.83638-25.3418,8.50828-36.59667,5.6719-11.25055,14.49102-20.39173,26.46772-27.41318,11.97238-7.02231,26.87353-10.5339,44.69914-10.5339,24.48441,0,43.88837,6.98,58.20325,20.93224,14.31402,13.95569,21.47102,31.82706,21.47102,53.61151,0,22.50974-7.2494,40.55897-21.74128,54.15115-14.4962,13.59737-33.80691,20.39173-57.933,20.39173-24.1304,0-43.44111-6.84099-57.933-20.52643-14.4962-13.68112-21.74214-31.68804-21.74214-54.01646ZM514.72607,616.06133c0,17.28509,5.44395,31.24078,16.33963,41.86275,10.89223,10.62629,25.3418,15.93468,43.34873,15.93468,17.8256,0,32.22855-5.22032,43.21317-15.66443,10.9803-10.44065,16.47519-24.48527,16.47519-42.13301,0-11.3438-2.47719-21.47189-7.42726-30.38512-4.95439-8.91237-11.93007-15.70674-20.93138-20.39087-9.00562-4.67981-19.53866-7.02231-31.59997-7.02231-17.8256,0-32.18625,5.31271-43.07847,15.93468-10.89568,10.62629-16.33963,24.57766-16.33963,41.86362Z"
     id="path6"
     style="fill:#ffffff" />
  <path
     d="M668.69888,686.28272v-140.44365h19.98592v32.14048h.54051c5.57865-12.78315,12.73566-22.05471,21.47189-27.81899,8.73105-5.75997,19.58097-8.64298,32.54457-8.64298,5.40165,0,9.27156.36351,11.61406,1.08102v20.52643c-6.48267-1.08102-12.51721-1.62067-18.09586-1.62067-13.86762,0-25.34612,4.77307-34.43549,14.31402-9.09455,9.54613-13.63967,22.05816-13.63967,37.54213v72.92222h-19.98592Z"
     id="path7"
     style="fill:#ffffff" />
  <path
     d="M860.56437,686.82323c-8.10247,1.08016-15.39504,1.6198-21.87684,1.6198-14.04462,0-23.86015-2.47288-29.4388-7.42726-5.58297-4.95007-8.37272-13.72774-8.37272-26.33302v-93.7189h-30.24956v-15.12478h30.24956v-44.29332h19.98592v44.29332h39.70244v15.12478h-39.70244v92.63874c0,6.66312,1.39272,11.3438,4.18679,14.04462,2.78889,2.70082,8.14478,4.05123,16.06938,4.05123,4.49849,0,8.28034-.13556,11.3438-.40495,3.05915-.27025,5.76083-.67521,8.10247-1.21572v16.74545Z"
     id="path8"
     style="fill:#ffffff" />
  <path
     d="M881.18923,686.28272v-194.46011h19.98678v194.46011h-19.98678Z"
     id="path9"
     style="fill:#ffffff" />
  <path
     d="M1082.50156,685.20257c-2.34163.53965-4.90776,1.03785-7.69838,1.48511-2.79407.44726-5.71594.67521-8.77595.67521-7.38409,0-12.87553-1.75536-16.47433-5.26609-3.6057-3.51159-5.40165-10.0357-5.40165-19.58183h-.54224c-6.30307,10.08664-14.89942,17.28596-25.79251,21.60745-10.89654,4.32063-24.08291,6.4818-39.56602,6.4818-16.92763,0-30.29705-3.8276-40.10826-11.4785-9.81552-7.65089-14.71983-17.86791-14.71983-30.65451,0-7.02231,1.39272-13.1881,4.18679-18.50081,2.78889-5.30926,6.97569-9.76544,12.55865-13.36942,5.57865-3.59966,12.51203-6.38855,20.79668-8.37272,8.27947-1.97899,20.12148-3.3294,35.51478-4.05123,15.39676-.71751,26.1517-1.75536,32.27518-3.10577,6.12002-1.35041,9.94676-3.05915,11.48022-5.13139,1.52655-2.06793,2.29328-5.44395,2.29328-10.12809,0-10.26365-3.55735-17.42065-10.66514-21.47189-7.11815-4.05123-19.04391-6.07685-35.78763-6.07685-16.56758,0-28.53996,2.38826-35.92146,7.15701-7.38495,4.77307-11.43619,12.6519-12.1537,23.6322h-18.36525c1.6198-17.10377,7.96691-29.3041,19.04046-36.5958,11.07355-7.29257,27.05054-10.93885,47.93874-10.93885,22.32496,0,38.62315,3.37603,48.88766,10.12809,10.26105,6.75206,15.39331,16.97339,15.39331,30.65451v74.54375c0,5.22378.81163,9.09369,2.43143,11.61319,1.6198,2.52382,4.59002,3.78098,8.91064,3.78098l10.26451-.53965v13.50411ZM1042.528,610.65968c-3.77839,2.52296-8.68615,4.36725-14.71638,5.53634-6.03713,1.17341-12.92389,2.02562-20.66371,2.56613l-27.54701,2.43057c-11.88431,1.08016-20.88993,3.60398-27.00909,7.56196-6.12348,3.96316-9.18263,10.08578-9.18263,18.36611,0,9.18263,3.3294,16.20494,9.99253,21.06607,6.65967,4.862,16.83438,7.29257,30.51982,7.29257,15.66615,0,29.34641-3.95885,41.05113-11.88345,11.70472-7.92115,17.55535-18.45418,17.55535-31.59997v-21.33633Z"
     id="path10"
     style="fill:#ffffff" />
  <path
     d="M1214.40325,686.28272v-91.28833c0-11.88345-3.46928-20.97369-10.3992-27.27848-6.93338-6.30048-17.69004-9.45288-32.27518-9.45288-18.54657,0-32.63782,4.45619-42.26684,13.36942-9.63593,8.91237-14.45044,21.38295-14.45044,37.40657v77.24371h-19.98678v-140.44365h19.98678v27.54874h.54051c3.41747-9.0013,10.6686-16.56413,21.74128-22.68674,11.07441-6.11916,23.26956-9.18349,36.5958-9.18349,20.16465,0,35.28857,4.81969,45.37521,14.44958,10.08146,9.63506,15.12392,23.72545,15.12392,42.26857v88.047h-19.98505Z"
     id="path11"
     style="fill:#ffffff" />
  <path
     d="M1383.22713,686.28272v-28.08839h-.53878c-4.50367,9.72314-11.93094,17.55535-22.28179,23.49664-10.35603,5.94216-22.10565,8.91323-35.24712,8.91323-16.20494,0-30.11314-3.28796-41.72806-9.85783-11.61319-6.57074-20.25617-15.61867-25.92721-27.14379-5.67276-11.52081-8.50828-24.03715-8.50828-37.54127,0-22.3241,6.88675-40.33102,20.66199-54.01732,13.77351-13.68112,32.27518-20.52643,55.50157-20.52643,12.06218,0,23.40425,2.97108,34.0314,8.91323,10.62197,5.94129,18.45332,13.77437,23.4975,23.4975h.53878v-82.10571h19.98678v194.46011h-19.98678ZM1268.98267,616.06133c0,17.28509,5.08563,31.24078,15.26034,41.86275,10.16953,10.62629,23.90159,15.93468,41.18755,15.93468,17.28423,0,31.41693-5.22032,42.40326-15.66443,10.97943-10.44065,16.47433-24.48527,16.47433-42.13301,0-17.64428-5.53634-31.68891-16.61075-42.13301-11.07268-10.44065-25.252-15.66529-42.53796-15.66529-16.56758,0-30.07169,5.5372-40.51234,16.60989-10.4441,11.07355-15.66443,24.80561-15.66443,41.18841Z"
     id="path12"
     style="fill:#ffffff" />
</svg>
