<?xml version="1.0" encoding="UTF-8" standalone="no"?>
<svg
   viewBox="0 0 889.72227 202.56094"
   version="1.1"
   id="svg9"
   sodipodi:docname="MLBTVFreeGame.svg"
   width="889.72229"
   height="202.56096"
   inkscape:version="1.4 (86a8ad7, 2024-10-11)"
   xmlns:inkscape="http://www.inkscape.org/namespaces/inkscape"
   xmlns:sodipodi="http://sodipodi.sourceforge.net/DTD/sodipodi-0.dtd"
   xmlns="http://www.w3.org/2000/svg"
   xmlns:svg="http://www.w3.org/2000/svg"
   xmlns:rdf="http://www.w3.org/1999/02/22-rdf-syntax-ns#"
   xmlns:cc="http://creativecommons.org/ns#"
   xmlns:dc="http://purl.org/dc/elements/1.1/">
  <sodipodi:namedview
     id="namedview9"
     pagecolor="#ffffff"
     bordercolor="#000000"
     borderopacity="0.25"
     inkscape:showpageshadow="2"
     inkscape:pageopacity="0.0"
     inkscape:pagecheckerboard="0"
     inkscape:deskcolor="#d1d1d1"
     inkscape:zoom="0.86743483"
     inkscape:cx="493.98524"
     inkscape:cy="222.4951"
     inkscape:window-width="2401"
     inkscape:window-height="1212"
     inkscape:window-x="52"
     inkscape:window-y="51"
     inkscape:window-maximized="0"
     inkscape:current-layer="svg9" />
  <defs
     id="defs1">
    <rect
       x="77.239232"
       y="240.94029"
       width="940.70468"
       height="140.64457"
       id="rect1" />
    <style
       id="style1">.cls-1{fill:#fff;}.cls-2{fill:#bc0022;}.cls-3{fill:#041e42;}</style>
  </defs>
  <title
     id="title1">MLBTV-19-ondark-RGB</title>
  <g
     id="Layer_2"
     data-name="Layer 2"
     style="display:inline"
     transform="matrix(1.5663702,0,0,1.5663702,363.07688,1.6344708e-4)">
    <g
       id="Artwork">
      <path
         class="cls-1"
         d="M 321.54,0 H 12.22 A 12.3,12.3 0 0 0 3.56,3.52 12.15,12.15 0 0 0 0,12.23 v 54.5 A 12.1,12.1 0 0 0 3.54,75.41 12.25,12.25 0 0 0 12.22,79 H 321.54 A 12.25,12.25 0 0 0 333.73,66.73 V 12.23 A 12.14,12.14 0 0 0 321.54,0 Z"
         id="path1" />
      <path
         class="cls-2"
         d="m 329.44,12.23 a 7.84,7.84 0 0 0 -7.9,-7.94 H 287.41 L 307,37 l 1.81,0.23 1.09,1.49 v 1.4 l 1.23,0.26 1.13,1.55 v 1.35 l 1.29,0.22 1.28,1.41 V 48 a 21.16,21.16 0 0 0 5.17,3.5 c 1.73,0.67 1.92,3.41 3,4.9 1.3,2.15 3.09,3 2.71,4.22 -0.88,3.21 -4.17,8.63 -7.23,8.89 h -12.13 v 5.2 h 15.19 a 7.93,7.93 0 0 0 7.9,-8 V 12.23"
         id="path2" />
      <path
         class="cls-3"
         d="m 246,69.56 h -5.88 c 0,-14.66 5,-22.77 10.89,-24.38 0.82,-0.15 0.43,-4.16 -0.6,-5.37 0,0 -2.88,0 -3.49,0 -0.61,0 -0.23,-1 -0.23,-1 l 2.78,-5.94 -0.47,-1.7 h -10.18 l 8.45,-5.9 c 0.39,-15.57 16.35,-16.78 26,-10.35 5.73,3.79 6.13,11.29 5.73,16.48 -0.08,0.33 -1.49,0.11 -1.49,0.11 0,0 -1,5.68 1.57,5.68 h 11.23 c 4.58,-0.18 9,2.92 9,2.92 L 300.39,36.18 275.75,4.29 H 12.22 a 8.08,8.08 0 0 0 -5.66,2.3 7.94,7.94 0 0 0 -2.27,5.64 v 54.5 a 7.85,7.85 0 0 0 2.27,5.63 8,8 0 0 0 5.66,2.34 H 249 c -1.21,-2.08 -2.6,-4.45 -3,-5.14"
         id="path3" />
      <path
         class="cls-1"
         d="m 334.74,78.35 c 0,-0.61 -0.36,-0.7 -0.88,-0.7 h -1.12 v 2.28 h 0.48 V 79 h 0.39 l 0.53,0.91 h 0.54 L 334.13,79 a 0.6,0.6 0 0 0 0.61,-0.67 m -0.88,0.26 h -0.64 v -0.56 h 0.53 c 0.23,0 0.52,0 0.52,0.26 0,0.26 -0.14,0.3 -0.41,0.3"
         id="path4" />
      <path
         class="cls-1"
         d="m 333.66,76.6 a 2.2,2.2 0 1 0 2.19,2.21 2.17,2.17 0 0 0 -2.19,-2.21 m 0,3.92 a 1.72,1.72 0 1 1 1.72,-1.71 1.69,1.69 0 0 1 -1.72,1.71"
         id="path5" />
      <path
         class="cls-1"
         d="m 141.75,38 c 2.41,-1.29 4.7,-5 4.7,-8.39 0,-7 -5.93,-12.62 -14.32,-12.62 H 111.24 V 62.8 h 21.3 c 8.45,0 15.78,-4.45 15.78,-13.61 0,-5.52 -2.4,-9.19 -6.57,-11.19 z m -21.24,-3.12 v -9.22 h 12.06 a 4.63,4.63 0 0 1 0,9.26 z m 0,19.26 V 43.32 h 12.59 a 5.43,5.43 0 1 1 0,10.86 z"
         id="path6" />
      <polygon
         class="cls-1"
         points="66.44,62.8 66.44,17.03 57.19,17.03 42.32,41.87 27.46,17.03 18.2,17.03 18.2,62.8 27.59,62.8 27.59,35.48 39.75,55.81 44.89,55.81 57.06,35.48 57.06,62.8 "
         id="polygon6" />
      <polygon
         class="cls-1"
         points="83.46,53.53 83.46,17.03 74.08,17.03 74.08,62.8 104.43,62.8 104.43,53.53 "
         id="polygon7" />
      <path
         class="cls-1"
         d="m 158.89,52.31 a 5.53,5.53 0 1 0 5.53,5.53 5.53,5.53 0 0 0 -5.53,-5.53 z"
         id="path7" />
      <path
         class="cls-1"
         d="m 173.25,37.65 h -10 v -8.16 h 29.43 v 8.16 H 182.57 V 63.1 h -9.32 z"
         id="path8" />
      <path
         class="cls-1"
         d="m 195.72,29.49 h 10.37 l 7.63,21.27 7.68,-21.27 h 10.18 l -13.64,33.85 h -8.64 z"
         id="path9" />
    </g>
  </g>
  <metadata
     id="metadata9">
    <rdf:RDF>
      <cc:Work
         rdf:about="">
        <dc:title>MLBTV-19-ondark-RGB</dc:title>
      </cc:Work>
    </rdf:RDF>
  </metadata>
  <text
     xml:space="preserve"
     style="font-style:normal;font-variant:normal;font-weight:bold;font-stretch:normal;font-size:149.605px;line-height:0.9;font-family:Sans;-inkscape-font-specification:'Sans Bold';text-align:start;letter-spacing:-7.93844px;word-spacing:6.39564px;writing-mode:lr-tb;direction:ltr;text-anchor:start;fill:#ffffff;stroke-width:2.80508"
     x="183.57231"
     y="109.31322"
     id="text9"
     transform="scale(0.90967608,1.0992924)"><tspan
       sodipodi:role="line"
       x="179.60309"
       y="109.31322"
       id="tspan10"
       style="font-style:normal;font-variant:normal;font-weight:bold;font-stretch:normal;font-size:149.605px;line-height:0.9;font-family:Sans;-inkscape-font-specification:'Sans Bold';text-align:center;letter-spacing:-7.93844px;word-spacing:6.39564px;text-anchor:middle;fill:#ffffff;stroke-width:2.80508"
       dx="0">FREE</tspan></text>
  <text
     xml:space="preserve"
     id="text1"
     style="font-weight:bold;font-size:85.3333px;line-height:0.9;font-family:Sans;-inkscape-font-specification:'Sans Bold';text-align:center;letter-spacing:-1.28px;word-spacing:10.45px;writing-mode:lr-tb;direction:ltr;white-space:pre;shape-inside:url(#rect1);fill:#ffffff;fill-opacity:1"
     transform="translate(-104.90701,-102.60137)"><tspan
       x="101.85517"
       y="303.85828"
       id="tspan2"><tspan
         dx="0 0 0 0 -10.449999 10.450015 0 -10.450006 10.449985 0 0 -10.449984 10.450015"
         id="tspan1">GAME OF THE DAY</tspan></tspan></text>
</svg>
