<?xml version="1.0" encoding="UTF-8" standalone="no"?>
<!-- Created with Inkscape (http://www.inkscape.org/) -->

<svg
   version="1.1"
   id="svg1"
   width="1000"
   height="600.68744"
   viewBox="0 0 1000 600.68744"
   xml:space="preserve"
   sodipodi:docname="MNMT.svg"
   inkscape:version="1.4 (86a8ad7, 2024-10-11)"
   xmlns:inkscape="http://www.inkscape.org/namespaces/inkscape"
   xmlns:sodipodi="http://sodipodi.sourceforge.net/DTD/sodipodi-0.dtd"
   xmlns="http://www.w3.org/2000/svg"
   xmlns:svg="http://www.w3.org/2000/svg"><sodipodi:namedview
     id="namedview1"
     pagecolor="#ffffff"
     bordercolor="#000000"
     borderopacity="0.25"
     inkscape:showpageshadow="2"
     inkscape:pageopacity="0.0"
     inkscape:pagecheckerboard="0"
     inkscape:deskcolor="#d1d1d1"
     inkscape:zoom="1.9560922"
     inkscape:cx="499.97644"
     inkscape:cy="300.34372"
     inkscape:window-width="3440"
     inkscape:window-height="1377"
     inkscape:window-x="-8"
     inkscape:window-y="-8"
     inkscape:window-maximized="1"
     inkscape:current-layer="svg1" /><defs
     id="defs1" /><path
     id="rect4-4"
     style="fill:#ffffff;fill-opacity:1;stroke-width:54.0015"
     d="m 213.52358,0 v 38.11227 298.72855 38.15318 0.0424 h 179.94159 v -71.56703 l 30.22701,71.56703 h 152.6357 l 30.22701,-71.56703 V 375.0364 H 786.484 L 779.96188,61.42505 766.7373,28.18017 753.54728,61.42505 747.419,336.84188 H 644.7494 V 136.20035 L 550.96897,336.84142 H 449.05109 L 355.27068,136.20035 V 336.84142 H 251.71807 V 38.11227 h 182.7467 L 500.01556,214.00092 565.56637,38.11227 H 690.5487 L 708.4396,0 H 538.95137 L 500.01556,105.20656 461.07966,0 Z" /><g
     id="g39"
     style="fill:#d22031;fill-opacity:1"
     transform="matrix(0.35374236,0,0,0.35374236,-0.1761365,-0.36688)"><path
       style="font-weight:bold;font-size:74.6667px;font-family:'Termina Test';-inkscape-font-specification:'Termina Test Bold';letter-spacing:0px;fill:#d22031;fill-opacity:1;stroke-width:282.244"
       d="m 2693.2509,1424.9844 v -152.6786 h -58.1087 v 199.3933 h 192.2719 v -46.7147 z"
       id="path11" /><path
       style="font-weight:bold;font-size:74.6667px;font-family:'Termina Test';-inkscape-font-specification:'Termina Test Bold';letter-spacing:0px;fill:#d22031;fill-opacity:1;stroke-width:282.244"
       d="m 2534.424,1471.6991 h 61.812 l -103.1147,-199.3933 h -63.521 l -103.1147,199.3933 h 60.9573 l 18.7998,-38.1694 h 109.3815 z m -108.2419,-79.4722 34.7513,-70.6422 34.4665,70.6422 z"
       id="path10" /><path
       style="font-weight:bold;font-size:74.6667px;font-family:'Termina Test';-inkscape-font-specification:'Termina Test Bold';letter-spacing:0px;fill:#d22031;fill-opacity:1;stroke-width:282.244"
       d="m 2337.3302,1272.3058 h -223.3203 v 46.4304 h 82.3208 v 152.9629 h 58.109 v -152.9629 h 82.8905 z"
       id="path9" /><path
       style="font-weight:bold;font-size:74.6667px;font-family:'Termina Test';-inkscape-font-specification:'Termina Test Bold';letter-spacing:0px;fill:#d22031;fill-opacity:1;stroke-width:282.244"
       d="m 2012.9946,1272.3058 v 121.9149 l -118.2118,-121.9149 h -61.5269 v 199.3933 h 56.1148 v -131.0298 l 128.7511,131.0298 h 50.9877 v -199.3933 z"
       id="path8" /><path
       style="font-weight:bold;font-size:74.6667px;font-family:'Termina Test';-inkscape-font-specification:'Termina Test Bold';letter-spacing:0px;fill:#d22031;fill-opacity:1;stroke-width:282.244"
       d="m 1625.702,1427.2629 v -35.3211 h 125.6176 v -42.4423 H 1625.702 v -32.7573 h 152.3931 v -44.4364 h -209.6476 v 199.3933 h 212.7809 v -44.4362 z"
       id="path7" /><path
       style="font-weight:bold;font-size:74.6667px;font-family:'Termina Test';-inkscape-font-specification:'Termina Test Bold';letter-spacing:0px;fill:#d22031;fill-opacity:1;stroke-width:282.244"
       d="m 1442.9006,1272.3058 -75.4844,95.7087 -74.9149,-95.7087 h -63.521 v 199.3933 h 56.1149 v -127.3266 l 79.4724,97.4176 h 2.8486 l 79.4723,-97.4176 v 127.3266 h 57.8241 v -199.3933 z"
       id="path6" /><path
       style="font-weight:bold;font-size:74.6667px;font-family:'Termina Test';-inkscape-font-specification:'Termina Test Bold';letter-spacing:0px;fill:#d22031;fill-opacity:1;stroke-width:282.244"
       d="m 1110.5803,1272.3058 v 100.8362 c 0,34.7515 -19.0848,57.2541 -57.5391,57.2541 -38.4535,0 -57.82313,-22.5026 -57.82313,-57.2541 v -100.8362 h -58.10878 v 105.3938 c 0,60.6724 41.58765,100.551 115.93191,100.551 74.3452,0 115.648,-39.8786 115.648,-100.551 v -105.3938 z"
       id="path5" /><path
       style="font-weight:bold;font-size:74.6667px;font-family:'Termina Test';-inkscape-font-specification:'Termina Test Bold';letter-spacing:0px;fill:#d22031;fill-opacity:1;stroke-width:282.244"
       d="m 820.6324,1272.3058 v 121.9149 L 702.42069,1272.3058 h -61.52708 v 199.3933 h 56.11502 v -131.0298 l 128.75107,131.0298 h 50.98762 v -199.3933 z"
       id="path4" /><path
       style="font-weight:bold;font-size:74.6667px;font-family:'Termina Test';-inkscape-font-specification:'Termina Test Bold';letter-spacing:0px;fill:#d22031;fill-opacity:1;stroke-width:282.244"
       d="m 458.47267,1478.2506 c 78.90273,0 130.17532,-38.7391 130.17532,-106.2479 0,-67.5087 -51.27259,-106.2481 -130.17532,-106.2481 -78.9027,0 -129.89038,38.7394 -129.89038,106.2481 0,67.5088 50.98768,106.2479 129.89038,106.2479 z m 0,-47.2845 c -43.86649,0 -70.927,-21.3636 -70.927,-58.9634 0,-37.5996 27.34537,-58.9634 70.927,-58.9634 43.86654,0 70.92703,21.3638 70.92703,58.9634 0,37.5998 -27.06059,58.9634 -70.92703,58.9634 z"
       id="path3" /><path
       style="font-weight:bold;font-size:74.6667px;font-family:'Termina Test';-inkscape-font-specification:'Termina Test Bold';letter-spacing:0px;fill:#d22031;fill-opacity:1;stroke-width:282.244"
       d="m 214.41834,1272.3058 -75.48452,95.7087 -74.914937,-95.7087 H 0.49792312 v 199.3933 H 56.612864 v -127.3266 l 79.472466,97.4176 h 2.84849 l 79.47242,-97.4176 v 127.3266 h 57.82401 v -199.3933 z"
       id="path2" /></g><g
     id="g37"
     transform="matrix(0.35374236,0,0,0.35374236,-0.1761365,-0.36688)"
     style="fill:#ffffff;fill-opacity:1"><path
       style="font-weight:600;font-size:98.8603px;font-family:'Termina Test';-inkscape-font-specification:'Termina Test Semi-Bold';letter-spacing:0px;fill:#ffffff;fill-opacity:1;stroke-width:150.897"
       d="m 2446.9841,1695.7797 -52.5399,-64.5708 49.6463,-42.0319 h -31.9809 l -63.3523,54.0628 v -54.0628 h -24.3664 v 106.6027 h 24.3664 v -26.4983 l 27.8691,-23.605 41.1181,50.1033 z"
       id="path35" /><path
       style="font-weight:600;font-size:98.8603px;font-family:'Termina Test';-inkscape-font-specification:'Termina Test Semi-Bold';letter-spacing:0px;fill:#ffffff;fill-opacity:1;stroke-width:150.897"
       d="m 2289.8355,1695.7797 -32.8945,-37.92 c 17.6655,-4.1121 29.6966,-15.3815 29.6966,-33.5039 0,-23.148 -19.6456,-35.1788 -45.687,-35.1788 h -73.556 v 106.6027 h 24.2138 v -36.245 h 38.5294 l 30.6106,36.245 z m -98.3795,-56.3471 v -29.8489 h 48.124 c 12.7921,0 22.2342,3.046 22.2342,14.9245 0,11.8785 -9.4421,14.9244 -22.2342,14.9244 z"
       id="path34" /><path
       style="font-weight:600;font-size:98.8603px;font-family:'Termina Test';-inkscape-font-specification:'Termina Test Semi-Bold';letter-spacing:0px;fill:#ffffff;fill-opacity:1;stroke-width:150.897"
       d="m 2062.4825,1699.1301 c 41.5752,0 67.7689,-21.016 67.7689,-56.6519 0,-35.6355 -26.1937,-56.6517 -67.7689,-56.6517 -41.5749,0 -67.7688,21.0162 -67.7688,56.6517 0,35.6359 26.1939,56.6519 67.7688,56.6519 z m 0,-21.016 c -26.4986,0 -42.9458,-12.7925 -42.9458,-35.6359 0,-22.8434 16.5996,-35.6355 42.9458,-35.6355 26.346,0 42.9456,12.7921 42.9456,35.6355 0,22.8434 -16.5996,35.6359 -42.9456,35.6359 z"
       id="path33" /><path
       style="font-weight:600;font-size:98.8603px;font-family:'Termina Test';-inkscape-font-specification:'Termina Test Semi-Bold';letter-spacing:0px;fill:#ffffff;fill-opacity:1;stroke-width:150.897"
       d="m 1948.4315,1589.177 -26.3461,78.8861 -28.3257,-78.8861 h -23.6051 l -28.4783,78.8861 -26.1936,-78.8861 h -25.5849 l 38.9863,106.6027 h 24.5188 l 28.3257,-80.4091 28.0214,80.4091 h 24.8231 l 38.9862,-106.6027 z"
       id="path32" /><path
       style="font-weight:600;font-size:98.8603px;font-family:'Termina Test';-inkscape-font-specification:'Termina Test Semi-Bold';letter-spacing:0px;fill:#ffffff;fill-opacity:1;stroke-width:150.897"
       d="m 1770.0158,1589.177 h -117.2635 v 21.0159 h 46.2963 v 85.5868 h 24.3664 v -85.5868 h 46.6008 z"
       id="path31" /><path
       style="font-weight:600;font-size:98.8603px;font-family:'Termina Test';-inkscape-font-specification:'Termina Test Semi-Bold';letter-spacing:0px;fill:#ffffff;fill-opacity:1;stroke-width:150.897"
       d="m 1542.5636,1675.373 v -23.4527 h 70.2057 v -20.4068 h -70.2057 v -21.9298 h 84.0643 v -20.4067 h -108.2782 v 106.6027 h 109.8009 v -20.4067 z"
       id="path30" /><path
       style="font-weight:600;font-size:98.8603px;font-family:'Termina Test';-inkscape-font-specification:'Termina Test Semi-Bold';letter-spacing:0px;fill:#ffffff;fill-opacity:1;stroke-width:150.897"
       d="m 1450.8713,1589.177 v 73.0988 l -71.8807,-73.0988 h -25.8895 v 106.6027 h 23.6052 v -77.0586 l 76.4493,77.0586 h 21.3208 V 1589.177 Z"
       id="path29" /><path
       style="font-weight:600;font-size:98.8603px;font-family:'Termina Test';-inkscape-font-specification:'Termina Test Semi-Bold';letter-spacing:0px;fill:#ffffff;fill-opacity:1;stroke-width:150.897"
       d="m 1202.8112,1630.1427 c -21.1683,-1.6751 -36.3972,-2.5887 -36.3972,-11.7262 0,-9.7465 17.6655,-12.3352 32.133,-12.1832 17.361,0.1525 31.8286,3.8072 43.5548,12.7924 l 13.4016,-16.9041 c -13.5537,-10.5081 -33.6559,-16.2951 -56.9564,-16.2951 -32.8944,0 -56.6517,12.1833 -56.6517,34.4177 0,22.8435 28.3258,29.544 58.784,32.133 24.5183,2.1319 35.4834,4.5686 35.4834,13.4016 0,8.8326 -10.9651,12.9445 -32.59,12.9445 -21.7774,0 -38.6815,-5.6347 -51.7785,-17.6657 l -14.0108,16.5996 c 16.2948,13.8583 38.2248,21.4729 65.1803,21.4729 37.7676,0 57.7173,-14.6196 57.7173,-35.6358 0,-23.4526 -23.9092,-30.6102 -57.8698,-33.3516 z"
       id="path28" /><path
       style="font-weight:600;font-size:98.8603px;font-family:'Termina Test';-inkscape-font-specification:'Termina Test Semi-Bold';letter-spacing:0px;fill:#ffffff;fill-opacity:1;stroke-width:150.897"
       d="m 1117.2241,1589.177 h -117.263 v 21.0159 h 46.2961 v 85.5868 h 24.366 v -85.5868 h 46.6009 z"
       id="path27" /><path
       style="font-weight:600;font-size:98.8603px;font-family:'Termina Test';-inkscape-font-specification:'Termina Test Semi-Bold';letter-spacing:0px;fill:#ffffff;fill-opacity:1;stroke-width:150.897"
       d="m 979.78191,1695.7797 -32.89461,-37.92 c 17.66559,-4.1121 29.69653,-15.3815 29.69653,-33.5039 0,-23.148 -19.64543,-35.1788 -45.68694,-35.1788 h -73.55593 v 106.6027 H 881.555 v -36.245 h 38.52931 l 30.61023,36.245 z m -98.3792,-56.3471 v -29.8489 h 48.12356 c 12.79234,0 22.23426,3.046 22.23426,14.9245 0,11.8785 -9.44192,14.9244 -22.23426,14.9244 z"
       id="path26" /><path
       style="font-weight:600;font-size:98.8603px;font-family:'Termina Test';-inkscape-font-specification:'Termina Test Semi-Bold';letter-spacing:0px;fill:#ffffff;fill-opacity:1;stroke-width:150.897"
       d="m 752.43167,1699.1301 c 41.57509,0 67.76892,-21.016 67.76892,-56.6519 0,-35.6355 -26.19383,-56.6517 -67.76892,-56.6517 -41.57507,0 -67.76892,21.0162 -67.76892,56.6517 0,35.6359 26.19385,56.6519 67.76892,56.6519 z m 0,-21.016 c -26.49839,0 -42.94572,-12.7925 -42.94572,-35.6359 0,-22.8434 16.59961,-35.6355 42.94572,-35.6355 26.34612,0 42.94569,12.7921 42.94569,35.6355 0,22.8434 -16.59957,35.6359 -42.94569,35.6359 z"
       id="path25" /><path
       style="font-weight:600;font-size:98.8603px;font-family:'Termina Test';-inkscape-font-specification:'Termina Test Semi-Bold';letter-spacing:0px;fill:#ffffff;fill-opacity:1;stroke-width:150.897"
       d="m 611.68607,1589.177 h -72.94676 v 106.6027 h 24.36635 v -34.4175 h 48.58041 c 27.41214,0 45.68691,-12.4877 45.68691,-36.0925 0,-23.3007 -18.27477,-36.0927 -45.68691,-36.0927 z m -1.97977,52.0831 h -46.60064 v -31.6764 h 46.60064 c 13.70608,0 22.84346,3.6549 22.84346,15.8382 0,12.1831 -9.13738,15.8382 -22.84346,15.8382 z"
       id="path24" /><path
       style="font-weight:600;font-size:98.8603px;font-family:'Termina Test';-inkscape-font-specification:'Termina Test Semi-Bold';letter-spacing:0px;fill:#ffffff;fill-opacity:1;stroke-width:150.897"
       d="m 445.95558,1630.1427 c -21.16827,-1.6751 -36.39723,-2.5887 -36.39723,-11.7262 0,-9.7465 17.66558,-12.3352 32.13313,-12.1832 17.36101,0.1525 31.82853,3.8072 43.55485,12.7924 l 13.40148,-16.9041 c -13.55377,-10.5081 -33.656,-16.2951 -56.95633,-16.2951 -32.89459,0 -56.65179,12.1833 -56.65179,34.4177 0,22.8435 28.3259,29.544 58.78386,32.133 24.51862,2.1319 35.48348,4.5686 35.48348,13.4016 0,8.8326 -10.96486,12.9445 -32.58999,12.9445 -21.77743,0 -38.68158,-5.6347 -51.77851,-17.6657 l -14.01064,16.5996 c 16.29499,13.8583 38.22469,21.4729 65.17999,21.4729 37.76783,0 57.71778,-14.6196 57.71778,-35.6358 0,-23.4526 -23.90948,-30.6102 -57.87008,-33.3516 z"
       id="text3" /></g></svg>
