<?xml version="1.0" encoding="UTF-8" standalone="no"?>
<svg
   height="43.917702"
   width="69.841301"
   viewBox="0 0 69.8413 43.894165"
   version="1.1"
   id="svg2"
   sodipodi:docname="NESN.svg"
   inkscape:version="1.4 (86a8ad7, 2024-10-11)"
   xmlns:inkscape="http://www.inkscape.org/namespaces/inkscape"
   xmlns:sodipodi="http://sodipodi.sourceforge.net/DTD/sodipodi-0.dtd"
   xmlns="http://www.w3.org/2000/svg"
   xmlns:svg="http://www.w3.org/2000/svg">
  <defs
     id="defs2" />
  <sodipodi:namedview
     id="namedview2"
     pagecolor="#ffffff"
     bordercolor="#000000"
     borderopacity="0.25"
     inkscape:showpageshadow="2"
     inkscape:pageopacity="0.0"
     inkscape:pagecheckerboard="0"
     inkscape:deskcolor="#d1d1d1"
     inkscape:zoom="6.2968916"
     inkscape:cx="34.858469"
     inkscape:cy="48.516001"
     inkscape:window-width="1147"
     inkscape:window-height="1211"
     inkscape:window-x="178"
     inkscape:window-y="65"
     inkscape:window-maximized="0"
     inkscape:current-layer="svg2" />
  <path
     d="m 52.9911,16.208098 c 1.3892,-1.9089 8.9301,-12.6708595 8.9301,-12.6708595 2.092,-2.89711101 5.1953,-4.26321801 7.9201,-3.25809201 0,0 -1.401,0.565854 -8.5769,10.31705151 l -5.9368,8.3503 c -1.5088,2.3198 -4.2466,3.5337 -6.18,3.5337 h -0.2178 c -2.2229,0.0279 -4.5003,-1.3039 -6.1483,-3.5856 0,0 -4.5411,-6.4708 -7.3894,-10.4991595 -0.9618,-1.27626 -1.7967,-2.35366 -2.519,-3.26157 -0.3897,-0.48994 -0.8784,-0.89683 -1.4457,-1.1614 -0.4186,-0.19513 -0.8909,-0.3282 -1.4193,-0.35346 -1.9999,-0.09587 -3.1802,1.63567 -3.6992,2.39717 -0.0555,0.08133 -0.1039,0.15235 -0.1444,0.20807 -1.3887,1.90845 -8.9295,12.6703495 -8.9295,12.6703495 -2.092,2.8971 -5.1952,4.2633 -7.92055,3.2581 0,0 1.40135,-0.5658 8.57685,-10.3165 l 5.9368,-8.3507295 c 1.5088,-2.31954 4.2465,-3.5338169 6.18,-3.5338169 h 0.22 c 2.2233,-0.02826101 4.4981,1.3034869 6.1461,3.5855869 l 7.3895,10.4996595 c 0,0 0.5462,0.7229 0.802,1.0574 0.7284,-0.9529 1.5383,-2.0315 2.4409,-3.2581 l 5.9368,-8.3510495 c 1.9962,-3.06936701 6.1464,-4.24018101 7.7343,-3.11631101 0,0 -1.3709,0.312296 -4.8912,5.15007101 -1.1538,1.58523 -6.8989,9.7614895 -8.8134,12.4880895 0.5793,0.4258 1.2991,0.7637 2.1745,0.8059 2,0.0963 3.1811,-1.6366 3.6997,-2.3975 0.0554,-0.0814 0.1033,-0.1516 0.1438,-0.2073 z"
     fill="white"
     id="path1"
     style="fill:#7d88a4;fill-opacity:1" />
  <path
     d="m 14.5137,3.4854185 c 1.9967,-3.06976701 6.1468,-4.24010501 7.7344,-3.11631401 0,0 -1.371,0.312296 -4.8912,5.15007401 -1.3888,1.90845 -9.43638,13.3758195 -9.43638,13.3758195 -2.09202,2.8971 -5.19527,4.2629 -7.92052,3.2577 0,0 1.40133,-0.5658 8.57686,-10.3166 z"
     fill="white"
     id="path2"
     style="fill:#7d88a4;fill-opacity:1" />
  <path
     d="m 63.0326,28.855298 v 7.3557 l 1.6079,3.4763 -1.6079,-1.7963 v 0.0262 l -8.1824,-9.0619 H 53.002 v 14.9224 h 3.0612 v -9.0991 l 8.1831,9.0991 h 1.8467 v -14.9224 z"
     fill="white"
     id="path3"
     style="fill:#7d88a4;fill-opacity:1" />
  <path
     d="m 14.9842,39.704598 -1.5979,-3.4583 v -7.391 h 3.0604 v 14.9224 h -1.8473 l -8.18248,-9.0991 v 9.0991 H 3.35547 v -14.9224 H 5.2032 l 7.9415,8.7944 z"
     fill="white"
     id="path4"
     style="fill:#7d88a4;fill-opacity:1" />
  <path
     d="m 25.0856,37.525098 h 5.7063 v -2.6323 h -5.7063 v -3.1911 h 6.3293 v -2.8464 h -9.4881 v 14.9224 h 9.7031 v -2.8475 h -6.5443 z"
     fill="white"
     id="path5"
     style="fill:#7d88a4;fill-opacity:1" />
  <path
     d="m 41.7953,43.867698 c -1.2571,0 -2.3222,-0.1568 -3.2751,-0.4489 -0.6572,-0.2015 -1.1931,-0.4871 -1.7508,-0.8051 l -0.0643,-0.0367 1.6669,-2.7405 c 0.4876,0.3246 1.0184,0.546 1.6479,0.7577 l 0.0471,0.0158 c 0.7408,0.2491 1.3662,0.3467 1.9599,0.3467 0.3374,0 0.5015,-0.0341 0.7628,-0.0944 0.2718,-0.0627 0.5198,-0.1584 0.737,-0.2843 0.2184,-0.127 0.3972,-0.2915 0.5314,-0.4892 0.1352,-0.1993 0.2038,-0.4369 0.2038,-0.7064 0,-0.453 -0.1763,-0.8159 -0.5239,-1.0788 -0.3408,-0.2571 -0.7737,-0.4789 -1.2867,-0.6592 -0.5126,-0.1799 -1.0717,-0.3616 -1.6617,-0.5401 -0.5889,-0.1778 -1.1446,-0.4209 -1.6517,-0.7226 -0.5044,-0.2996 -0.9297,-0.7008 -1.264,-1.1922 -0.3329,-0.4888 -0.5017,-1.1449 -0.5017,-1.9497 0,-0.7785 0.1555,-1.4707 0.4625,-2.0573 0.3073,-0.5869 0.7225,-1.0853 1.2345,-1.4815 0.5126,-0.3964 1.1124,-0.6978 1.7824,-0.8962 0.6796,-0.201 1.2185,-0.2364 2.0995,-0.2364 0.9031,0 1.6896,0.1389 2.828,0.5433 0.461,0.1637 0.9446,0.4013 1.3705,0.6105 0.0594,0.0291 0.1177,0.0578 0.1747,0.0856 l -1.5283,2.5319 c -0.4286,-0.3225 -0.8895,-0.5328 -1.3433,-0.6604 -0.5559,-0.1561 -1.0836,-0.2628 -1.5783,-0.2628 -0.2989,0 -0.4888,0.0295 -0.7347,0.0839 -0.2512,0.0561 -0.492,0.1446 -0.7153,0.2631 -0.226,0.1201 -0.412,0.2811 -0.5528,0.4786 -0.1425,0.1995 -0.2148,0.4444 -0.2148,0.7279 0,0.4541 0.173,0.8068 0.5143,1.0484 0.3332,0.2362 0.7591,0.4405 1.2658,0.6069 0.5036,0.1657 1.0522,0.3333 1.6304,0.4985 0.5741,0.1641 1.1191,0.4001 1.6198,0.7016 0.4975,0.3001 0.9157,0.7079 1.243,1.2124 0.3264,0.503 0.4918,1.1872 0.4918,2.0334 0,0.8061 -0.1522,1.5195 -0.4525,2.1202 -0.3003,0.6008 -0.7121,1.1059 -1.2237,1.5016 -0.5124,0.3963 -1.1153,0.6944 -1.7923,0.8856 -0.6635,0.1876 -1.2039,0.2891 -2.1581,0.2891 z"
     fill="white"
     id="path6"
     style="fill:#7d88a4;fill-opacity:1" />
</svg>
