<?xml version="1.0" encoding="UTF-8" standalone="no"?>
<svg
   viewBox="0 0 324.27 75.269996"
   version="1.1"
   id="svg5"
   sodipodi:docname="RockiesTV.svg"
   width="324.26999"
   height="75.269997"
   inkscape:version="1.4 (86a8ad7, 2024-10-11)"
   xmlns:inkscape="http://www.inkscape.org/namespaces/inkscape"
   xmlns:sodipodi="http://sodipodi.sourceforge.net/DTD/sodipodi-0.dtd"
   xmlns="http://www.w3.org/2000/svg"
   xmlns:svg="http://www.w3.org/2000/svg">
  <defs
     id="defs5" />
  <sodipodi:namedview
     id="namedview5"
     pagecolor="#ffffff"
     bordercolor="#000000"
     borderopacity="0.25"
     inkscape:showpageshadow="2"
     inkscape:pageopacity="0.0"
     inkscape:pagecheckerboard="0"
     inkscape:deskcolor="#d1d1d1"
     inkscape:zoom="3.5936473"
     inkscape:cx="217.60622"
     inkscape:cy="126.75145"
     inkscape:window-width="3440"
     inkscape:window-height="1377"
     inkscape:window-x="-8"
     inkscape:window-y="-8"
     inkscape:window-maximized="1"
     inkscape:current-layer="svg5" />
  <path
     fill="#ffffff"
     d="M 313.11,0 H 11.19 C 8.2,0 5.38,1.19 3.26,3.35 1.15,5.54 0,8.48 0,11.66 v 51.92 c 0,3.18 1.15,6.11 3.25,8.27 2.13,2.2 4.95,3.42 7.94,3.42 H 313.1 c 6.16,0 11.17,-5.24 11.17,-11.69 V 11.65 C 324.27,8.49 323.11,5.55 321,3.37 318.88,1.19 316.08,0 313.1,0 Z"
     id="path1" />
  <path
     fill="#33006f"
     d="m 318.23,6.27 c 1.37,1.42 2.11,3.37 2.11,5.38 v 51.92 c 0,4.2 -3.23,7.6 -7.24,7.6 H 11.19 C 9.26,71.17 7.41,70.38 6.01,68.94 4.64,67.53 3.93,65.61 3.93,63.58 V 11.66 C 3.93,9.65 4.64,7.7 6.01,6.28 a 7.229,7.229 0 0 1 5.18,-2.19 h 301.92 c 1.9,0 3.74,0.76 5.12,2.18 z m -263.7,48 c -2.28,-2.24 -6.44,-14.03 -9.88,-14.8 1.26,-0.63 9.2,-2.48 9.23,-11.06 -0.03,-9.28 -8.62,-12.28 -17.21,-12.28 -1.83,0 -5.15,0.13 -8.54,0.34 -4.29,0.27 -6.5,0.47 -9.77,0.74 v 3.15 c 4.62,0 5.58,1.07 5.58,6.11 v 23.42 c 0,4.9 -1.07,5.91 -5.58,5.91 v 3.15 H 38.7 V 55.8 c -4.19,0 -5.74,-0.61 -5.74,-5.57 v -8.99 h 2.84 c 0,0 10.49,17.72 10.77,17.72 h 12.52 v -3.14 c 0,0 -2.36,0.39 -4.57,-1.53 z M 32.96,19.34 h 2.63 c 5.21,0 7.95,3.49 7.95,8.79 0,6.91 -2.79,9.93 -10.58,9.8 z m 41.69,2.02 c -12.91,0 -18.57,9.6 -18.57,19.5 0,8.19 4.1,19.03 17.35,19.03 14.33,0 18.29,-11.84 18.29,-19.67 0,-7.83 -3.96,-18.85 -17.06,-18.85 z M 64.48,38.14 c 0,-10.19 4.48,-13.96 8.72,-13.96 5.98,0 10.13,7.72 10.13,18.85 0,9.48 -3.72,14.02 -8.39,14.02 -6.18,0 -10.46,-7.78 -10.46,-18.91 z m 38.17,2.18 c 0,-9.6 4.29,-15.55 10.55,-15.55 2.36,0 4.43,0.94 6.08,2.65 1.65,1.71 2.83,4.18 3.34,7.19 h 2.22 L 124.42,22.3 h -1.74 c -0.19,0.59 -0.42,0.82 -0.85,0.82 -1.18,0 -3.96,-1.77 -9,-1.77 -5.47,0 -10.13,2 -13.38,5.54 -3.3,3.59 -5.19,8.48 -5.19,14.37 0,4.07 1.18,8.66 3.86,12.31 2.68,3.65 7.02,6.3 13.34,6.3 1.65,0 3.15,-0.24 4.57,-0.41 1.46,-0.24 2.83,-0.41 4.1,-0.41 0.56,0 1.08,0 1.5,0.12 0.47,0.06 0.95,0.18 1.37,0.35 l 0.14,-0.41 c 1.36,-4.01 2.5,-8.36 2.87,-11.72 h -2.22 c -2.258,6.065 -5.655,9.066 -10.08,9.07 -6.595,-0.007 -11.06,-6.545 -11.06,-16.14 z m 54.94,12.96 c -2.45,-3.06 -5.61,-9.31 -8.53,-12.96 -0.57,-0.71 -2.63,-3.55 -3.19,-4.2 3.25,-3.83 6.06,-7.41 7.72,-8.59 2.21,-1.64 4.5,-2.47 7.38,-2.47 v -2.77 h -13.52 v 2.77 c 2.59,0 1.76,2.06 1.76,2.06 L 138.89,39.55 V 30.6 c 0,-4.6 0.94,-5.54 4.38,-5.54 v -2.77 h -16.68 v 2.77 c 3.34,0 4.38,1.24 4.38,4.83 v 20.5 c 0,4.48 -0.66,5.77 -4.38,5.77 v 2.77 h 16.68 v -2.77 c -3.92,0 -4.38,-1.53 -4.38,-5.71 v -8.54 c 0.75,0 1.69,0.88 3.39,3 3.82,4.77 6.22,8.6 6.22,9.6 0,1.12 -0.61,1.65 -3.21,1.65 v 2.77 h 17.58 V 56.16 C 160,55.98 159.29,55.4 157.59,53.27 Z m 10.64,-22.55 v 20.15 c 0,3.77 -0.71,5.3 -4.05,5.3 v 2.77 h 16.26 v -2.77 c -4,0 -4.29,-2 -4.29,-5.66 V 30.73 c 0,-4.13 0.52,-5.66 4.29,-5.66 V 22.3 h -16.26 v 2.77 c 3.39,0 4.05,1.53 4.05,5.66 z m 30.16,24.56 c -2.54,0 -2.82,-0.24 -2.82,-3.36 v -9.48 h 4.11 c 3.44,0 4.2,0.88 4.2,4.18 h 2.22 V 34.32 h -2.22 c 0,3.59 -0.89,4.48 -4.24,4.48 h -4.06 V 25.96 h 9.24 c 2.31,0 3.02,1.12 3.44,5.12 h 2.21 l -0.42,-8.78 h -27.1 v 2.77 c 3.34,0 4.71,0.41 4.71,5.42 v 20.26 c 0,4.18 -0.75,5.42 -5.04,5.42 v 2.77 h 28.75 l 0.61,-9.78 h -2.22 c -0.7,3.89 -1.79,6.13 -5.89,6.13 z m 22.75,-27.21 c 0,-2.2 1.71,-3.74 4.18,-3.74 3.42,0 6.75,2.73 8.04,7.84 h 2.23 L 234.78,21.6 h -1.57 c -0.24,0.59 -0.52,0.77 -1.04,0.77 -1.38,0 -3.85,-1.19 -7.37,-1.19 -7.79,0 -10.12,6.06 -10.12,10.28 0,11.53 15.12,12.3 15.12,20.14 0,3.09 -2,5.29 -4.9,5.29 -3.95,0 -7.08,-3.33 -8.41,-9.03 h -2.24 l 1.29,11.76 h 1.52 c 0.1,-0.36 0.43,-0.89 1.19,-0.89 0.81,0 4.28,1.31 7.65,1.31 6.61,0 11.13,-4.57 11.13,-11.29 0,-12.78 -15.88,-14.5 -15.88,-20.68 z m 27.79,31.4 c 2.91,0 5.31,-2.4 5.31,-5.31 0,-2.91 -2.4,-5.31 -5.31,-5.31 -2.91,0 -5.31,2.4 -5.31,5.31 0,2.91 2.4,5.31 5.31,5.31 z M 268.06,58.7 V 35.91 h 7.52 v -6.43 h -21.71 v 6.43 h 7.51 V 58.7 Z m 19.79,0 h 8.52 l 9.52,-29.22 h -7.31 l -6.47,21.5 -6.47,-21.5 h -7.31 z"
     id="path2" />
</svg>
