<?xml version="1.0" encoding="UTF-8" standalone="no"?>
<svg
   class="nesn-icon"
   fill="none"
   height="18.347097"
   viewBox="0 0 129.19726 26.072191"
   width="90.43808"
   version="1.1"
   id="svg36"
   sodipodi:docname="SportsNetPIT.svg"
   inkscape:version="1.4 (86a8ad7, 2024-10-11)"
   xmlns:inkscape="http://www.inkscape.org/namespaces/inkscape"
   xmlns:sodipodi="http://sodipodi.sourceforge.net/DTD/sodipodi-0.dtd"
   xmlns="http://www.w3.org/2000/svg"
   xmlns:svg="http://www.w3.org/2000/svg">
  <defs
     id="defs36" />
  <sodipodi:namedview
     id="namedview36"
     pagecolor="#ffffff"
     bordercolor="#000000"
     borderopacity="0.25"
     inkscape:showpageshadow="2"
     inkscape:pageopacity="0.0"
     inkscape:pagecheckerboard="0"
     inkscape:deskcolor="#d1d1d1"
     inkscape:zoom="7.288162"
     inkscape:cx="129.66232"
     inkscape:cy="-4.0476598"
     inkscape:window-width="3440"
     inkscape:window-height="1377"
     inkscape:window-x="-8"
     inkscape:window-y="-8"
     inkscape:window-maximized="1"
     inkscape:current-layer="svg36" />
  <path
     d="m 29.197255,14.944354 h 3.94171 c 2.31508,0 4.42601,0.6146 4.42601,3.4748 0,2.8602 -2.28684,3.5182 -4.45641,3.5182 h -1.53977 v 3.8548 h -2.37154 v -10.8456 z m 4.00035,5.1448 c 1.48113,0 2.03709,-0.5711 2.03709,-1.6114 0,-1.0403 -0.54293,-1.5832 -2.03709,-1.5832 h -1.62664 v 3.1946 z"
     fill="#ffb71b"
     id="path4" />
  <path
     d="m 39.725855,14.944354 h 2.3737 v 10.8457 h -2.3737 z"
     fill="#ffb71b"
     id="path5" />
  <path
     d="m 47.465955,16.937954 h -3.2251 v -1.9936 h 8.8521 v 1.9936 h -3.2403 v 8.8521 h -2.3889 v -8.8521 z"
     fill="#ffb71b"
     id="path6" />
  <path
     d="m 57.549355,16.937954 h -3.2251 v -1.9936 h 8.8521 v 1.9936 h -3.2403 v 8.8521 h -2.3889 v -8.8521 z"
     fill="#ffb71b"
     id="path7" />
  <path
     d="m 64.218755,23.329254 1.8026,-1.0707 c 0.6015,1.1879 1.6852,1.846 2.9318,1.846 1.0989,0 1.8916,-0.4105 1.8916,-1.2466 0,-0.8361 -0.7775,-1.1728 -2.1978,-1.568 -1.935,-0.5429 -3.9569,-1.0403 -3.9569,-3.3119 0,-2.0219 1.5832,-3.2403 3.9135,-3.2403 2.3302,0 3.5464,1.0707 4.3087,2.2283 l -1.657,1.2596 c -0.5712,-0.923 -1.6115,-1.5398 -2.6669,-1.5398 -1.0555,0 -1.568,0.4387 -1.568,1.0837 0,0.8644 0.8057,1.1727 2.2282,1.568 1.9046,0.5125 3.9286,1.1141 3.9286,3.3575 0,1.7439 -1.3182,3.2989 -4.3391,3.2989 -2.3455,0 -3.8114,-1.1141 -4.6171,-2.6669 z"
     fill="#ffb71b"
     id="path8" />
  <path
     d="m 75.535655,14.944354 h 4.3392 c 1.9936,0 3.87,0.4843 3.87,2.6821 0,1.5398 -0.9686,2.2716 -2.0675,2.491 v 0.0282 c 1.3183,0.2346 2.3607,0.923 2.3607,2.6539 0,2.1848 -1.9198,2.9905 -3.9439,2.9905 h -4.5585 z m 4.1046,4.4694 c 1.2466,0 1.8178,-0.4691 1.8178,-1.3052 0,-0.8361 -0.5126,-1.3182 -1.7874,-1.3182 h -1.7873 v 2.6234 h 1.7591 z m 0.1607,4.5585 c 1.3183,0 1.9047,-0.5277 1.9047,-1.4507 0,-0.923 -0.6885,-1.4225 -2.0089,-1.4225 h -1.8177 v 2.8732 h 1.9198 z"
     fill="#ffb71b"
     id="path9" />
  <path
     d="m 86.251055,21.643954 v -6.6977 h 2.3889 v 6.6391 c 0,1.568 0.6016,2.4475 2.0219,2.4475 1.4203,0 1.9937,-0.8643 1.9937,-2.4475 v -6.6391 h 2.3454 v 6.6847 c 0,2.6669 -1.3486,4.3391 -4.3673,4.3391 -3.0187,0 -4.3826,-1.6701 -4.3826,-4.3239 z"
     fill="#ffb71b"
     id="path10" />
  <path
     d="m 97.639655,14.944354 h 4.074195 c 2.6669,0 4.2653,0.9534 4.2653,3.3575 0,1.7157 -0.8057,2.6539 -2.2564,3.0926 l 2.4193,4.3977 h -2.5214 l -2.2564,-4.0894 h -1.376895 v 4.0894 h -2.3455 v -10.8456 z m 3.972195,4.9103 c 1.3768,0 2.0371,-0.3953 2.0371,-1.4942 0,-1.0989 -0.6603,-1.4659 -2.0371,-1.4659 h -1.626695 v 2.9601 z"
     fill="#ffb71b"
     id="path11" />
  <path
     d="m 107.89895,20.323254 c 0,-3.4009 1.8916,-5.5835 4.9386,-5.5835 2.0523,0 3.6941,0.8209 4.3825,3.4726 l -2.1847,0.6016 c -0.4539,-1.5094 -1.1424,-2.0957 -2.213,-2.0957 -0.8796,0 -2.5214,0.5125 -2.5214,3.5616 0,3.0491 1.4659,3.7962 2.6234,3.7962 1.1576,0 2.0089,-0.7471 2.2282,-1.9502 h -1.8915 v -1.7743 h 4.1632 v 5.438 h -1.9198 v -1.4941 h -0.0283 c -0.2345,0.645 -1.1879,1.7004 -2.8297,1.7004 -3.2837,0 -4.7496,-2.4041 -4.7496,-5.6726 z"
     fill="#ffb71b"
     id="path12" />
  <path
     d="m 120.15415,14.944354 h 2.3889 v 4.2067 h 4.2653 v -4.2067 h 2.3889 v 10.8457 h -2.3889 v -4.6324 h -4.2653 v 4.6324 h -2.3889 z"
     fill="#ffb71b"
     id="path13" />
  <path
     d="m 34.352975,5.7254535 c -2.52139,-0.8079 -3.25544,-1.2357 -3.25544,-2.5019 0,-1.101 0.99032,-1.8416 2.46276,-1.8416 1.47244,0 2.50619,0.6689 3.05998,2.1022 l 0.05212,0.1347 1.22486,-0.5712 -0.04126,-0.1173 c -0.46258,-1.3073 -1.58103,-2.86879996 -4.27833,-2.86879996 -2.21952,0 -3.893932,1.39209996 -3.893932,3.24019996 0,2.0241 1.294362,2.7864 4.015552,3.642 2.63215,0.8383 3.07518,1.4746 3.07518,2.5822 0,1.2662005 -1.09455,2.0545005 -2.85367,2.0545005 -1.66789,0 -2.82109,-0.8492 -3.33579,-2.4541005 l -0.04343,-0.1346 -1.281332,0.4669 0.03475,0.1216 c 0.603744,2.0675005 2.312904,3.3011005 4.575854,3.3011005 2.5518,0 4.3348,-1.4138 4.3348,-3.4357005 0,-2.0219 -1.41163,-2.9471 -3.85267,-3.7246 z"
     fill="#ffffff"
     id="path15"
     style="fill:#ffffff">
    <path
       d="M90.9569 70.2212H93.3458V74.4279H97.6111V70.2212H100V81.0669H97.6111V76.4345H93.3458V81.0669H90.9569V70.2212Z"
       fill="#FFB71B"
       id="path14"
       style="fill:#ffffff" />
  </path>
  <path
     d="m 45.307255,0.29395354 h -4.1546 V 12.657654 h 1.4312 V 7.2978535 h 2.6105 c 2.8905,0 4.4824,-1.2662 4.4824,-3.5682 0,-2.302 -1.5506,-3.43569996 -4.3673,-3.43569996 z m 2.9362,3.46829996 c 0,1.5658 -0.8883,2.2347 -2.9688,2.2347 h -2.6908 v -4.3696 h 2.6756 c 2.0653,0 2.9862,0.6581 2.9862,2.1349 z"
     fill="#ffffff"
     id="path16"
     style="fill:#ffffff" />
  <path
     d="m 56.958655,0.06345354 c -3.0817,0 -5.2339,2.63649996 -5.2339,6.41099996 0,3.7745005 2.1522,6.4110005 5.2339,6.4110005 3.0817,0 5.2339,-2.6365 5.2339,-6.4110005 0,-3.7745 -2.1522,-6.41099996 -5.2339,-6.41099996 z m 3.8027,6.41099996 c 0,3.0947 -1.492,5.0927005 -3.8027,5.0927005 -2.3108,0 -3.8028,-2.0001005 -3.8028,-5.0927005 0,-3.0925 1.492,-5.0775 3.8028,-5.0775 2.3107,0 3.8027,1.9936 3.8027,5.0775 z"
     fill="#ffffff"
     id="path17"
     style="fill:#ffffff" />
  <path
     d="m 73.613655,3.6970535 c 0,-2.1956 -1.5397,-3.40309996 -4.3348,-3.40309996 h -4.1871 V 12.657654 h 1.416 V 7.2326535 h 2.7907 l 2.9579,5.4250005 h 1.618 l -3.0774,-5.5944005 c 1.872,-0.4083 2.8189,-1.5376 2.8189,-3.364 z m -1.4311,0.05 c 0,1.531 -0.8926,2.1847 -2.9862,2.1847 h -2.6908 v -4.3044 h 2.6756 c 2.1044,0 3.0014,0.6342 3.0014,2.1197 z"
     fill="#ffffff"
     id="path18"
     style="fill:#ffffff" />
  <path
     d="m 75.383655,1.6426535 h 3.9048 V 12.657654 h 1.4312 V 1.6426535 h 3.907 V 0.29395354 h -9.243 z"
     fill="#ffffff"
     id="path19"
     style="fill:#ffffff" />
  <path
     d="m 90.822555,5.7254535 c -2.5214,-0.8079 -3.2554,-1.2357 -3.2554,-2.5019 0,-1.101 0.9903,-1.8416 2.4627,-1.8416 1.4725,0 2.5062,0.6689 3.06,2.1022 l 0.0521,0.1347 1.2249,-0.5712 -0.0413,-0.1173 c -0.4625,-1.3073 -1.581,-2.86879996 -4.2783,-2.86879996 -2.2195,0 -3.8939,1.39209996 -3.8939,3.24019996 0,2.0241 1.2943,2.7864 4.0155,3.642 2.6322,0.8383 3.0752,1.4746 3.0752,2.5822 0,1.2662005 -1.0945,2.0545005 -2.8537,2.0545005 -1.6678,0 -2.821,-0.8492 -3.3357,-2.4541005 l -0.0435,-0.1346 -1.2813,0.4669 0.0347,0.1216 c 0.6016,2.0675005 2.3129,3.3011005 4.5737,3.3011005 2.5518,0 4.3348,-1.4138 4.3348,-3.4357005 0,-2.0219 -1.4116,-2.9471 -3.8526,-3.7246 z"
     fill="#ffffff"
     id="path20"
     style="fill:#ffffff" />
  <path
     d="M 105.56215,9.9994535 99.070855,0.29395354 h -1.4507 V 12.657654 h 1.3682 V 2.6416535 l 6.701995,10.0160005 h 1.2379 V 0.29395354 h -1.3661 z"
     fill="#ffffff"
     id="path21"
     style="fill:#ffffff" />
  <path
     d="m 111.84725,6.7896535 h 4.5259 v -1.3161 h -4.5259 v -3.8309 h 6.0613 V 0.29395354 h -7.4947 V 12.657654 h 7.8378 v -1.3334 h -6.4044 z"
     fill="#ffffff"
     id="path22"
     style="fill:#ffffff" />
  <path
     d="M 119.93915,0.29395354 V 1.6426535 h 3.9069 V 12.657654 h 1.4312 V 1.6426535 h 3.9048 V 0.29395354 Z"
     fill="#ffffff"
     id="path23"
     style="fill:#ffffff" />
  <g
     id="g36"
     transform="matrix(0.53516363,0,0,0.53516363,27.857621,-17.618403)">
    <path
       d="m -32.345898,32.604122 c -0.8079,2.840641 -11.8099,41.167481 -11.8099,41.167481 -1.2075,4.3044 -4.2653,7.2471 -7.8986,7.2428 0,0 2.5496,-4.4325 6.7736,-18.981 l 8.4177,-29.429281 z"
       fill="#ffb71b"
       id="path1" />
    <path
       d="m -14.363798,32.688698 c -4.3631,-0.345307 -14.5616,-0.04995 -14.5616,-0.04995 l -6.4088,21.561055 4.7757,0.1173 5.1709,-17.68018 c 0,0 6.3002,0.05429 8.1918,0.18026 8.9996998,0.59722 13.6406996,8.41762 9.9009997,16.56822 -3.6745997,8.0115 -12.7394997,13.3193 -21.4524997,12.6156 0.0044,-0.0239 -1.1249,4.0851 -1.1249,4.0851 0,0 3.3792,0.2367 5.5379,-0.05 5.045,-0.6667 9.5339,-2.8406 13.4605,-6.0027 5.1534997,-4.1523 8.9127996,-9.2147 9.5468994,-16.1034 0.82310004,-8.94108 -5.9396997,-14.678824 -13.0390994,-15.241305 z"
       fill="#ffb71b"
       id="path2" />
    <path
       d="m -26.658098,62.428703 c 6.6716,0.0043 11.5624,-3.1034 14.9134,-8.7109 2.3801998,-3.9808 1.5658,-8.789 -1.8612,-11.42548 -2.8081,-2.15872 -6.0483,-1.98063 -9.4493,-1.85467 -0.3844,1.40077 -0.7688,2.81245 -1.2118,4.43035 1.1771,0 2.0957,-0.0673 3.0014,0.013 2.5083,0.2194 4.704,1.0729 5.653,3.6334 0.8926,2.4084 -0.2693,4.3304 -1.8894,5.9766 -2.2195,2.2543 -4.9451,3.4444 -8.1332,3.4639 -3.1968,0.0196 -10.7436,0.0434 -10.7436,0.0434 0,0 -2.5105,7.8813 -3.9938,13.037 -2.8602,9.0649 -3.8635,9.977 -3.8635,9.977 3.6354,0.0065 6.6911,-2.9362 7.8986,-7.2428 0,0 0.3844,-1.3725 1.0077,-3.5942 l 2.4953,-7.7119 c 0.9947,-0.0086 4.6432,-0.039 6.1808,-0.039 z"
       fill="#ffb71b"
       id="path3" />
    <path
       d="m -32.345898,32.604122 c -0.8079,2.840641 -11.8099,41.167481 -11.8099,41.167481 -1.2075,4.3044 -4.2653,7.2471 -7.8986,7.2428 0,0 2.5496,-4.4325 6.7736,-18.981 l 8.4177,-29.429281 z"
       fill="#ffb71b"
       id="path24" />
    <path
       d="m -14.363798,32.688698 c -4.3631,-0.345307 -14.5616,-0.04995 -14.5616,-0.04995 l -6.4088,21.561055 4.7757,0.1173 5.1709,-17.68018 c 0,0 6.3002,0.05429 8.1918,0.18026 8.9996998,0.59722 13.6406996,8.41762 9.9009997,16.56822 -3.6745997,8.0115 -12.7394997,13.3193 -21.4524997,12.6156 0.0044,-0.0239 -1.1249,4.0851 -1.1249,4.0851 0,0 3.3792,0.2367 5.5379,-0.05 5.045,-0.6667 9.5339,-2.8406 13.4605,-6.0027 5.1534997,-4.1523 8.9127996,-9.2147 9.5468994,-16.1034 0.82310004,-8.94108 -5.9396997,-14.678824 -13.0390994,-15.241305 z"
       fill="#ffb71b"
       id="path25" />
    <path
       d="m -26.658098,62.428703 c 6.6716,0.0043 11.5624,-3.1034 14.9134,-8.7109 2.3801998,-3.9808 1.5658,-8.789 -1.8612,-11.42548 -2.8081,-2.15872 -6.0483,-1.98063 -9.4493,-1.85467 -0.3844,1.40077 -0.7688,2.81245 -1.2118,4.43035 1.1771,0 2.0957,-0.0673 3.0014,0.013 2.5083,0.2194 4.704,1.0729 5.653,3.6334 0.8926,2.4084 -0.2693,4.3304 -1.8894,5.9766 -2.2195,2.2543 -4.9451,3.4444 -8.1332,3.4639 -3.1968,0.0196 -10.7436,0.0434 -10.7436,0.0434 0,0 -2.5105,7.8813 -3.9938,13.037 -2.8602,9.0649 -3.8635,9.977 -3.8635,9.977 3.6354,0.0065 6.6911,-2.9362 7.8986,-7.2428 0,0 0.3844,-1.3725 1.0077,-3.5942 l 2.4953,-7.7119 c 0.9947,-0.0086 4.6432,-0.039 6.1808,-0.039 z"
       fill="#ffb71b"
       id="path26" />
  </g>
  <path
     d="m 34.352975,5.7254535 c -2.52139,-0.8079 -3.25544,-1.2357 -3.25544,-2.5019 0,-1.101 0.99032,-1.8416 2.46276,-1.8416 1.47244,0 2.50619,0.6689 3.05998,2.1022 l 0.05212,0.1347 1.22486,-0.5712 -0.04126,-0.1173 c -0.46258,-1.3073 -1.58103,-2.86879996 -4.27833,-2.86879996 -2.21952,0 -3.893932,1.39209996 -3.893932,3.24019996 0,2.0241 1.294362,2.7864 4.015552,3.642 2.63215,0.8383 3.07518,1.4746 3.07518,2.5822 0,1.2662005 -1.09455,2.0545005 -2.85367,2.0545005 -1.66789,0 -2.82109,-0.8492 -3.33579,-2.4541005 l -0.04343,-0.1346 -1.281332,0.4669 0.03475,0.1216 c 0.603744,2.0675005 2.312904,3.3011005 4.575854,3.3011005 2.5518,0 4.3348,-1.4138 4.3348,-3.4357005 0,-2.0219 -1.41163,-2.9471 -3.85267,-3.7246 z"
     fill="#ffffff"
     id="path27"
     style="fill:#ffffff" />
  <path
     d="m 45.307255,0.29395354 h -4.1546 V 12.657654 h 1.4312 V 7.2978535 h 2.6105 c 2.8905,0 4.4824,-1.2662 4.4824,-3.5682 0,-2.302 -1.5506,-3.43569996 -4.3673,-3.43569996 z m 2.9362,3.46829996 c 0,1.5658 -0.8883,2.2347 -2.9688,2.2347 h -2.6908 v -4.3696 h 2.6756 c 2.0653,0 2.9862,0.6581 2.9862,2.1349 z"
     fill="#ffffff"
     id="path28"
     style="fill:#ffffff" />
  <path
     d="m 56.958655,0.06345354 c -3.0817,0 -5.2339,2.63649996 -5.2339,6.41099996 0,3.7745005 2.1522,6.4110005 5.2339,6.4110005 3.0817,0 5.2339,-2.6365 5.2339,-6.4110005 0,-3.7745 -2.1522,-6.41099996 -5.2339,-6.41099996 z m 3.8027,6.41099996 c 0,3.0947 -1.492,5.0927005 -3.8027,5.0927005 -2.3108,0 -3.8028,-2.0001005 -3.8028,-5.0927005 0,-3.0925 1.492,-5.0775 3.8028,-5.0775 2.3107,0 3.8027,1.9936 3.8027,5.0775 z"
     fill="#ffffff"
     id="path29"
     style="fill:#ffffff" />
  <path
     d="m 73.613655,3.6970535 c 0,-2.1956 -1.5397,-3.40309996 -4.3348,-3.40309996 h -4.1871 V 12.657654 h 1.416 V 7.2326535 h 2.7907 l 2.9579,5.4250005 h 1.618 l -3.0774,-5.5944005 c 1.872,-0.4083 2.8189,-1.5376 2.8189,-3.364 z m -1.4311,0.05 c 0,1.531 -0.8926,2.1847 -2.9862,2.1847 h -2.6908 v -4.3044 h 2.6756 c 2.1044,0 3.0014,0.6342 3.0014,2.1197 z"
     fill="#ffffff"
     id="path30"
     style="fill:#ffffff" />
  <path
     d="m 75.383655,1.6426535 h 3.9048 V 12.657654 h 1.4312 V 1.6426535 h 3.907 V 0.29395354 h -9.243 z"
     fill="#ffffff"
     id="path31"
     style="fill:#ffffff" />
  <path
     d="m 90.822555,5.7254535 c -2.5214,-0.8079 -3.2554,-1.2357 -3.2554,-2.5019 0,-1.101 0.9903,-1.8416 2.4627,-1.8416 1.4725,0 2.5062,0.6689 3.06,2.1022 l 0.0521,0.1347 1.2249,-0.5712 -0.0413,-0.1173 c -0.4625,-1.3073 -1.581,-2.86879996 -4.2783,-2.86879996 -2.2195,0 -3.8939,1.39209996 -3.8939,3.24019996 0,2.0241 1.2943,2.7864 4.0155,3.642 2.6322,0.8383 3.0752,1.4746 3.0752,2.5822 0,1.2662005 -1.0945,2.0545005 -2.8537,2.0545005 -1.6678,0 -2.821,-0.8492 -3.3357,-2.4541005 l -0.0435,-0.1346 -1.2813,0.4669 0.0347,0.1216 c 0.6016,2.0675005 2.3129,3.3011005 4.5737,3.3011005 2.5518,0 4.3348,-1.4138 4.3348,-3.4357005 0,-2.0219 -1.4116,-2.9471 -3.8526,-3.7246 z"
     fill="#ffffff"
     id="path32"
     style="fill:#ffffff" />
  <path
     d="M 105.56215,9.9994535 99.070855,0.29395354 h -1.4507 V 12.657654 h 1.3682 V 2.6416535 l 6.701995,10.0160005 h 1.2379 V 0.29395354 h -1.3661 z"
     fill="#ffffff"
     id="path33"
     style="fill:#ffffff" />
  <path
     d="m 111.84725,6.7896535 h 4.5259 v -1.3161 h -4.5259 v -3.8309 h 6.0613 V 0.29395354 h -7.4947 V 12.657654 h 7.8378 v -1.3334 h -6.4044 z"
     fill="#ffffff"
     id="path34"
     style="fill:#ffffff" />
  <path
     d="M 119.93915,0.29395354 V 1.6426535 h 3.9069 V 12.657654 h 1.4312 V 1.6426535 h 3.9048 V 0.29395354 Z"
     fill="#ffffff"
     id="path35"
     style="fill:#ffffff" />
</svg>
