<?xml version="1.0" encoding="UTF-8" standalone="no"?>
<!-- Generator: Adobe Illustrator 16.0.0, SVG Export Plug-In . SVG Version: 6.00 Build 0)  -->

<svg
   version="1.1"
   id="Layer_1"
   x="0px"
   y="0px"
   width="660.974956059"
   height="151.291662541"
   viewBox="0 0 734.71 168.169"
   enable-background="new 0 0 734.71 168.169"
   xml:space="preserve"
   inkscape:version="1.4 (86a8ad7, 2024-10-11)"
   sodipodi:docname="Sportsnet360.svg"
   xmlns:inkscape="http://www.inkscape.org/namespaces/inkscape"
   xmlns:sodipodi="http://sodipodi.sourceforge.net/DTD/sodipodi-0.dtd"
   xmlns="http://www.w3.org/2000/svg"
   xmlns:svg="http://www.w3.org/2000/svg"
   xmlns:rdf="http://www.w3.org/1999/02/22-rdf-syntax-ns#"
   xmlns:cc="http://creativecommons.org/ns#"
   xmlns:dc="http://purl.org/dc/elements/1.1/"><metadata
   id="metadata47"><rdf:RDF><cc:Work
       rdf:about=""><dc:format>image/svg+xml</dc:format><dc:type
         rdf:resource="http://purl.org/dc/dcmitype/StillImage" /></cc:Work></rdf:RDF></metadata><defs
   id="defs45" /><sodipodi:namedview
   pagecolor="#ffffff"
   bordercolor="#666666"
   borderopacity="1"
   objecttolerance="10"
   gridtolerance="10"
   guidetolerance="10"
   inkscape:pageopacity="0"
   inkscape:pageshadow="2"
   inkscape:window-width="3440"
   inkscape:window-height="1377"
   id="namedview43"
   showgrid="false"
   inkscape:zoom="1.5570769"
   inkscape:cx="367.99724"
   inkscape:cy="84.453119"
   inkscape:window-x="-8"
   inkscape:window-y="-8"
   inkscape:window-maximized="1"
   inkscape:current-layer="Layer_1"
   inkscape:showpageshadow="2"
   inkscape:pagecheckerboard="0"
   inkscape:deskcolor="#d1d1d1" />
<path
   d="M163.958,162.729c22.715-23.078,77.373-2.222,83.019-2.765c2.879-0.271,4.193-4.398-1.542-6.688  c-54.25-21.604-134.347-27.136-178.326-19.202c-4.83,1.336-6.506,5.578,1.134,6.506c7.686,0.931,27.25,2.382,55.224,9  c15.531,3.673,26.979,8.64,36.75,14.035C161.509,164.248,162.664,164.045,163.958,162.729"
   id="path3"
   fill="#02598B" />
<path
   d="M251.646,142.167l4.579-21.878c-85.241-25.777-166.81-24.438-252.82,6.166  c-4.353,1.497-5.737,7.823,3.219,6.395c13.261-2.064,66.696-9.228,114.303-9.454c38.246-0.228,84.539,7.843,123.282,20.676  C248.699,145.34,250.898,144.683,251.646,142.167"
   id="path5"
   fill="#D91F34" />
<rect
   x="2.429"
   y="-0.114"
   width="732.281"
   height="168.283"
   id="rect7"
   fill="none" />
<path
   d="M244.892,6.415l-13.806,65.066h-0.409L211.837,6.415h-69.938l-6.212,28.884h10.18l-12.627,59.442  c1.926-0.022,3.853-0.068,5.758-0.068c9.837,0,19.653,0.409,29.47,1.18l13.081-61.484h0.274l18.905,65.36  c18.659,3.016,37.543,7.389,56.834,13.238c0.114,0.022,0.205,0.069,0.319,0.114L280.394,6.415H244.892z"
   id="path9"
   fill="#231F20"
   style="fill:#ffffff" />
<path
   d="M130.632,35.319c3.739-20.016-6.326-31.466-47.609-31.466c-38.835,0-60.396,9.568-64.883,30.787  c-1.156,5.532-1.02,12.378,3.242,16.937c10.61,11.425,56.02,16.006,60.236,22.17c0.816,1.225,1.177,2.699,0.771,4.467  c-1.633,7.777-11.199,9.793-19.679,9.793c-5.396,0-8.706-1.336-10.859-3.898c-1.996-2.562-2.268-6.438-1.271-11.813H8.913  c-2.788,16.731-3.65,31.514,38.609,33.508c20.901-5.079,41.531-8.343,62.161-9.974c9.114-5.375,14.146-12.673,16.006-21.401  c1.996-9.408-0.794-14.646-3.831-18.002c-10.474-11.539-54.432-15.869-59.465-21.921c-0.974-1.065-1.134-2.947-0.794-4.421  c1.043-4.987,6.281-8.206,14.895-8.206c5.124,0,9.022,0.657,11.402,2.697c2.542,2.019,3.561,5.35,2.676,10.745H130.632z"
   id="path11"
   fill="#231F20"
   style="fill:#ffffff" />


<rect
   x="2.429"
   y="-0.114"
   width="732.281"
   height="168.283"
   id="rect17"
   fill="none" />


<path
   d="M334.666,136.998c-26.025,0-21.378-14.758-21.378-14.758l2.585-9.748h-42.1l-6.938,34.322  c0,0,11.947,21.333,63.975,21.333c36.184,0,45.092-7.503,45.092-7.503c7.889-10.042,17.593-20.11,29.29-29.926l7.822-37.133  c-8.071-8.117-19.407-10.859-33.145-11.879l0.114-0.454c13.082-1.337,26.796-2.902,37.293-8.888l10.791-51.348  c0,0-10.836-21.129-61.89-21.129c-52.844,0-68.193,21.378-68.193,21.378l-6.167,28.564l40.24-0.066l1.202-5.601  c0,0,2.833-13.15,23.895-13.15c22.352,0,21.175,12.81,21.175,12.81s2.425,26.685-34.188,26.685l-17.639,0.021l-5.781,26.57  l22.444,0.091c0,0,26.094-0.386,19.453,22.783C357.629,137.406,334.666,136.998,334.666,136.998"
   id="path23"
   fill="#495965" />
<path
   d="M665.678,44.23c-0.023-0.023-7.006,33.188-7.006,33.188c14.329,1.702,27.976,3.764,43.664,6.575  l13.216-62.729c0,0-9.771-21.264-61.685-21.264C602.2,0,583.27,21.31,583.27,21.31l-10.973,52.099  c14.375-0.5,28.635-0.365,44.843,0.497l6.304-29.721c0,0,2.788-13.058,23.894-13.058c21.082,0,18.363,13.127,18.363,13.127"
   id="path25"
   fill="#495965" />
<path
   d="M606.485,123.917l5.689-26.071c-15.937-2.017-30.218-2.993-44.388-3.378l-11.085,52.347  c0,0,9.837,21.287,61.528,21.287c51.959,0,70.754-21.287,70.754-21.287l6.801-32.328c-14.714-3.808-29.335-7.346-42.917-10.065  l-4.17,19.496c0,0-3.65,13.127-23.737,13.127C603.811,137.043,606.485,123.917,606.485,123.917"
   id="path27"
   fill="#495965" />
<path
   d="M568.897,21.264c0,0-9.659-21.378-57.788-21.378c-52.028,0-70.596,21.649-70.596,21.649l-20.562,97.257  c24.006-16.708,54.93-30.898,95.035-38.698c13.738-2.676,28.633-4.647,44.659-5.803c-3.67-4.853-11.607-11.517-27.702-12.356  c-31.309-2.199-57.539,11.879-57.539,11.879l6.28-29.652c0,0,2.676-13.104,23.917-13.104c22.512,0,18.114,14.986,18.114,14.986  l0.046,0.045h40.874L568.897,21.264z"
   id="path29"
   fill="#495965" />
<path
   d="M482.274,137.021c-21.244,0-18.431-13.104-18.431-13.104l2.901-13.806  c-19.542,7.051-36.092,15.869-50.376,25.619l-2.356,11.108c0,0,10.02,21.196,61.641,21.196c51.733,0,70.664-21.15,70.664-21.15  l11.087-52.527c-11.767,0.112-21.016,0.771-31.537,2.017c-3.559,0.408-10.925,1.293-14.349,1.836l-5.418,25.594  C506.1,123.803,503.312,137.021,482.274,137.021"
   id="path31"
   fill="#495965" />
<polygon
   points="719.067,12.242 725.777,12.242 725.777,13.241 722.989,13.241 722.989,20.516 721.855,20.516   721.855,13.241 719.067,13.241 "
   id="polygon33"
   fill="#495965" />
<path
   d="M733.622,20.539v-4.896c0-0.249,0.022-1.293,0.022-2.064h-0.022l-2.313,6.96h-1.111l-2.334-6.96h-0.022  c0,0.771,0.022,1.816,0.022,2.064v4.896h-1.091v-8.297h1.611l2.358,7.006h0.044l2.336-7.006h1.588v8.297H733.622z"
   id="path35"
   fill="#495965" />


<rect
   x="2.429"
   y="-0.114"
   width="732.281"
   height="168.283"
   id="rect41"
   fill="none" />
</svg>
