<?xml version="1.0" encoding="UTF-8" standalone="no"?>
<!-- Generator: Adobe Illustrator 18.0.0, SVG Export Plug-In . SVG Version: 6.00 Build 0)  -->

<svg
   version="1.1"
   id="Layer_1"
   x="0px"
   y="0px"
   viewBox="0 0 113.88314 50.574434"
   enable-background="new 0 0 122 50.6"
   xml:space="preserve"
   sodipodi:docname="SportsnetOne.svg"
   width="113.88314"
   height="50.574432"
   inkscape:version="1.4 (86a8ad7, 2024-10-11)"
   xmlns:inkscape="http://www.inkscape.org/namespaces/inkscape"
   xmlns:sodipodi="http://sodipodi.sourceforge.net/DTD/sodipodi-0.dtd"
   xmlns="http://www.w3.org/2000/svg"
   xmlns:svg="http://www.w3.org/2000/svg"><defs
   id="defs9" /><sodipodi:namedview
   id="namedview9"
   pagecolor="#ffffff"
   bordercolor="#000000"
   borderopacity="0.25"
   inkscape:showpageshadow="2"
   inkscape:pageopacity="0.0"
   inkscape:pagecheckerboard="0"
   inkscape:deskcolor="#d1d1d1"
   inkscape:zoom="11.610672"
   inkscape:cx="49.867913"
   inkscape:cy="36.044424"
   inkscape:window-width="3440"
   inkscape:window-height="1377"
   inkscape:window-x="-8"
   inkscape:window-y="-8"
   inkscape:window-maximized="1"
   inkscape:current-layer="g9" />
<g
   id="g9"
   transform="translate(-0.01686114)">
	<g
   id="g1">
		<path
   fill="#5b6770"
   d="m 90.7,5.9 c 3.8,-1.4 7.2,-2.7 11.2,-5.1 h 12 l -6.7,31.6 h -13 L 98.7,11 c -4.1,2.4 -6.2,3.3 -10,4.3 z"
   id="path1" />
	</g>
	<path
   fill="#00558c"
   d="m 51.2,50.2 c 7.1,-7.2 24.2,-0.7 25.9,-0.9 0.9,-0.1 1.3,-1.4 -0.5,-2.1 -16.9,-6.7 -41.9,-8.5 -55.7,-6 -1.5,0.4 -2,1.7 0.4,2 2.4,0.3 8.5,0.8 17.2,2.8 4.8,1.1 8.4,2.7 11.5,4.4 0.4,0.3 0.8,0.2 1.2,-0.2"
   id="path2" />
	<path
   fill="#c8102e"
   d="M 78.6,43.8 80,37 C 53.4,28.9 27.9,29.4 1.1,38.9 c -1.4,0.5 -1.8,2.4 1,2 4.1,-0.6 20.8,-2.9 35.7,-3 11.9,-0.1 26.4,2.5 38.5,6.5 1.4,0.4 2,0.2 2.3,-0.6 z"
   id="path3" />
	<g
   id="g5"
   style="fill:#ffffff">
		<path
   d="M 76.5,0.8 72.2,21.1 H 72 L 66.1,0.8 H 44.3 l -1.9,9 h 3.2 l -3.9,18.6 c 0.6,0 1.2,0 1.8,0 3.1,0 6.1,0.1 9.2,0.4 L 56.8,9.6 h 0.1 L 62.8,30 c 5.8,0.9 11.7,2.3 17.7,4.1 0,0 0.1,0 0.1,0 l 7,-33.3 H 76.5 Z"
   id="path4"
   style="fill:#ffffff" />
		<path
   d="M 40.8,9.8 C 42,3.6 38.8,0 25.9,0 13.8,0 7.1,3 5.7,9.6 c -0.4,1.7 -0.3,3.9 1,5.3 3.3,3.6 17.5,5 18.8,6.9 0.3,0.4 0.4,0.8 0.2,1.4 -0.5,2.4 -3.5,3.1 -6.1,3.1 -1.7,0 -2.7,-0.4 -3.4,-1.2 -0.6,-0.8 -0.7,-2 -0.4,-3.7 h -13 c -0.9,5.2 -1.1,9.8 12.1,10.5 6.5,-1.6 13,-2.6 19.4,-3.1 2.8,-1.7 4.4,-4 5,-6.7 0.6,-2.9 -0.2,-4.6 -1.2,-5.6 -3.3,-3.6 -17,-5 -18.6,-6.8 -0.3,-0.3 -0.4,-0.9 -0.3,-1.4 0.3,-1.6 2,-2.6 4.7,-2.6 1.6,0 2.8,0.2 3.6,0.8 0.8,0.6 1.1,1.7 0.8,3.4 h 12.5 z"
   id="path5"
   style="fill:#ffffff" />
	</g>
	
</g>
</svg>
