<?xml version="1.0" encoding="UTF-8" standalone="no"?>
<svg
   class="nesn-icon"
   fill="none"
   height="56.891232"
   viewBox="0 0 132.10628 80.845434"
   width="92.474396"
   version="1.1"
   id="svg36"
   sodipodi:docname="SportsNetPITPlus.svg"
   inkscape:version="1.4 (86a8ad7, 2024-10-11)"
   xmlns:inkscape="http://www.inkscape.org/namespaces/inkscape"
   xmlns:sodipodi="http://sodipodi.sourceforge.net/DTD/sodipodi-0.dtd"
   xmlns="http://www.w3.org/2000/svg"
   xmlns:svg="http://www.w3.org/2000/svg">
  <defs
     id="defs36" />
  <sodipodi:namedview
     id="namedview36"
     pagecolor="#ffffff"
     bordercolor="#000000"
     borderopacity="0.25"
     inkscape:showpageshadow="2"
     inkscape:pageopacity="0.0"
     inkscape:pagecheckerboard="0"
     inkscape:deskcolor="#d1d1d1"
     inkscape:zoom="7.288162"
     inkscape:cx="5.7627698"
     inkscape:cy="28.608036"
     inkscape:window-width="3440"
     inkscape:window-height="1377"
     inkscape:window-x="-8"
     inkscape:window-y="-8"
     inkscape:window-maximized="1"
     inkscape:current-layer="svg36" />
  <g
     id="g36"
     transform="translate(0,-0.21379732)">
    <g
       id="g35">
      <path
         d="M 45.385,0.0825195 C 44.5771,2.92316 33.5751,41.25 33.5751,41.25 c -1.2075,4.3044 -4.2653,7.2471 -7.8986,7.2428 0,0 2.5496,-4.4325 6.7736,-18.981 L 40.8678,0.0825195 Z"
         fill="#ffb71b"
         id="path1" />
      <path
         d="M 63.3671,0.167095 C 59.004,-0.178212 48.8055,0.117145 48.8055,0.117145 L 42.3967,21.6782 47.1724,21.7955 52.3433,4.11532 c 0,0 6.3002,0.05429 8.1918,0.18026 8.9997,0.59722 13.6407,8.41762 9.901,16.56822 -3.6746,8.0115 -12.7395,13.3193 -21.4525,12.6156 0.0044,-0.0239 -1.1249,4.0851 -1.1249,4.0851 0,0 3.3792,0.2367 5.5379,-0.05 5.045,-0.6667 9.5339,-2.8406 13.4605,-6.0027 5.1535,-4.1523 8.9128,-9.2147 9.5469,-16.1034 C 77.2271,6.46732 70.4643,0.729576 63.3649,0.167095 Z"
         fill="#ffb71b"
         id="path2" />
      <path
         d="M 51.0728,29.9071 C 57.7444,29.9114 62.6352,26.8037 65.9862,21.1962 68.3664,17.2154 67.552,12.4072 64.125,9.77072 61.3169,7.612 58.0767,7.79009 54.6757,7.91605 c -0.3844,1.40077 -0.7688,2.81245 -1.2118,4.43035 1.1771,0 2.0957,-0.0673 3.0014,0.013 2.5083,0.2194 4.704,1.0729 5.653,3.6334 0.8926,2.4084 -0.2693,4.3304 -1.8894,5.9766 -2.2195,2.2543 -4.9451,3.4444 -8.1332,3.4639 -3.1968,0.0196 -10.7436,0.0434 -10.7436,0.0434 0,0 -2.5105,7.8813 -3.9938,13.037 -2.8602,9.0649 -3.8635,9.977 -3.8635,9.977 3.6354,0.0065 6.6911,-2.9362 7.8986,-7.2428 0,0 0.3844,-1.3725 1.0077,-3.5942 l 2.4953,-7.7119 c 0.9947,-0.0086 4.6432,-0.039 6.1808,-0.039 z"
         fill="#ffb71b"
         id="path3" />
      <path
         d="m 0,70.2212 h 3.94171 c 2.31508,0 4.42601,0.6146 4.42601,3.4748 0,2.8602 -2.28684,3.5182 -4.45641,3.5182 H 2.37154 V 81.069 H 0 V 70.2234 Z m 4.00035,5.1448 c 1.48113,0 2.03709,-0.5711 2.03709,-1.6114 0,-1.0403 -0.54293,-1.5832 -2.03709,-1.5832 H 2.37371 v 3.1946 z"
         fill="#ffb71b"
         id="path4" />
      <path
         d="m 10.5286,70.2212 h 2.3737 v 10.8457 h -2.3737 z"
         fill="#ffb71b"
         id="path5" />
      <path
         d="m 18.2687,72.2148 h -3.2251 v -1.9936 h 8.8521 v 1.9936 h -3.2403 v 8.8521 h -2.3889 v -8.8521 z"
         fill="#ffb71b"
         id="path6" />
      <path
         d="M 28.3521,72.2148 H 25.127 v -1.9936 h 8.8521 v 1.9936 h -3.2403 v 8.8521 h -2.3889 v -8.8521 z"
         fill="#ffb71b"
         id="path7" />
      <path
         d="m 35.0215,78.6061 1.8026,-1.0707 c 0.6015,1.1879 1.6852,1.846 2.9318,1.846 1.0989,0 1.8916,-0.4105 1.8916,-1.2466 0,-0.8361 -0.7775,-1.1728 -2.1978,-1.568 -1.935,-0.5429 -3.9569,-1.0403 -3.9569,-3.3119 0,-2.0219 1.5832,-3.2403 3.9135,-3.2403 2.3302,0 3.5464,1.0707 4.3087,2.2283 l -1.657,1.2596 c -0.5712,-0.923 -1.6115,-1.5398 -2.6669,-1.5398 -1.0555,0 -1.568,0.4387 -1.568,1.0837 0,0.8644 0.8057,1.1727 2.2282,1.568 1.9046,0.5125 3.9286,1.1141 3.9286,3.3575 0,1.7439 -1.3182,3.2989 -4.3391,3.2989 -2.3455,0 -3.8114,-1.1141 -4.6171,-2.6669 z"
         fill="#ffb71b"
         id="path8" />
      <path
         d="m 46.3384,70.2212 h 4.3392 c 1.9936,0 3.87,0.4843 3.87,2.6821 0,1.5398 -0.9686,2.2716 -2.0675,2.491 v 0.0282 c 1.3183,0.2346 2.3607,0.923 2.3607,2.6539 0,2.1848 -1.9198,2.9905 -3.9439,2.9905 h -4.5585 z m 4.1046,4.4694 c 1.2466,0 1.8178,-0.4691 1.8178,-1.3052 0,-0.8361 -0.5126,-1.3182 -1.7874,-1.3182 h -1.7873 v 2.6234 h 1.7591 z m 0.1607,4.5585 c 1.3183,0 1.9047,-0.5277 1.9047,-1.4507 0,-0.923 -0.6885,-1.4225 -2.0089,-1.4225 h -1.8177 v 2.8732 h 1.9198 z"
         fill="#ffb71b"
         id="path9" />
      <path
         d="m 57.0538,76.9208 v -6.6977 h 2.3889 v 6.6391 c 0,1.568 0.6016,2.4475 2.0219,2.4475 1.4203,0 1.9937,-0.8643 1.9937,-2.4475 v -6.6391 h 2.3454 v 6.6847 c 0,2.6669 -1.3486,4.3391 -4.3673,4.3391 -3.0187,0 -4.3826,-1.6701 -4.3826,-4.3239 z"
         fill="#ffb71b"
         id="path10" />
      <path
         d="m 68.4424,70.2212 h 4.0742 c 2.6669,0 4.2653,0.9534 4.2653,3.3575 0,1.7157 -0.8057,2.6539 -2.2564,3.0926 l 2.4193,4.3977 H 74.4234 L 72.167,76.9796 H 70.7901 V 81.069 H 68.4446 V 70.2234 Z m 3.9722,4.9103 c 1.3768,0 2.0371,-0.3953 2.0371,-1.4942 0,-1.0989 -0.6603,-1.4659 -2.0371,-1.4659 h -1.6267 v 2.9601 z"
         fill="#ffb71b"
         id="path11" />
      <path
         d="m 78.7017,75.6001 c 0,-3.4009 1.8916,-5.5835 4.9386,-5.5835 2.0523,0 3.6941,0.8209 4.3825,3.4726 l -2.1847,0.6016 c -0.4539,-1.5094 -1.1424,-2.0957 -2.213,-2.0957 -0.8796,0 -2.5214,0.5125 -2.5214,3.5616 0,3.0491 1.4659,3.7962 2.6234,3.7962 1.1576,0 2.0089,-0.7471 2.2282,-1.9502 h -1.8915 v -1.7743 h 4.1632 v 5.438 h -1.9198 v -1.4941 h -0.0283 c -0.2345,0.645 -1.1879,1.7004 -2.8297,1.7004 -3.2837,0 -4.7496,-2.4041 -4.7496,-5.6726 z"
         fill="#ffb71b"
         id="path12" />
      <path
         d="m 90.9569,70.2212 h 2.3889 v 4.2067 h 4.2653 V 70.2212 H 100 v 10.8457 h -2.3889 v -4.6324 h -4.2653 v 4.6324 h -2.3889 z"
         fill="#ffb71b"
         id="path13" />
      <path
         d="M 5.15572,61.0023 C 2.63433,60.1944 1.90028,59.7666 1.90028,58.5004 c 0,-1.101 0.99032,-1.8416 2.46276,-1.8416 1.47244,0 2.50619,0.6689 3.05998,2.1022 L 7.47514,58.8957 8.7,58.3245 8.65874,58.2072 C 8.19616,56.8999 7.07771,55.3384 4.38041,55.3384 c -2.21952,0 -3.893932,1.3921 -3.893932,3.2402 0,2.0241 1.294362,2.7864 4.015552,3.642 2.63215,0.8383 3.07518,1.4746 3.07518,2.5822 0,1.2662 -1.09455,2.0545 -2.85367,2.0545 -1.66789,0 -2.82109,-0.8492 -3.33579,-2.4541 L 1.34432,64.2686 0.0629883,64.7355 0.0977361,64.8571 C 0.70148,66.9246 2.41064,68.1582 4.67359,68.1582 c 2.5518,0 4.3348,-1.4138 4.3348,-3.4357 0,-2.0219 -1.41163,-2.9471 -3.85267,-3.7246 z"
         fill="#ffffff"
         id="path15">
        <path
           d="M90.9569 70.2212H93.3458V74.4279H97.6111V70.2212H100V81.0669H97.6111V76.4345H93.3458V81.0669H90.9569V70.2212Z"
           fill="#FFB71B"
           id="path14" />
      </path>
      <path
         d="m 16.11,55.5708 h -4.1546 v 12.3637 h 1.4312 v -5.3598 h 2.6105 c 2.8905,0 4.4824,-1.2662 4.4824,-3.5682 0,-2.302 -1.5506,-3.4357 -4.3673,-3.4357 z m 2.9362,3.4683 c 0,1.5658 -0.8883,2.2347 -2.9688,2.2347 h -2.6908 v -4.3696 h 2.6756 c 2.0653,0 2.9862,0.6581 2.9862,2.1349 z"
         fill="#ffffff"
         id="path16" />
      <path
         d="m 27.7614,55.3403 c -3.0817,0 -5.2339,2.6365 -5.2339,6.411 0,3.7745 2.1522,6.411 5.2339,6.411 3.0817,0 5.2339,-2.6365 5.2339,-6.411 0,-3.7745 -2.1522,-6.411 -5.2339,-6.411 z m 3.8027,6.411 c 0,3.0947 -1.492,5.0927 -3.8027,5.0927 -2.3108,0 -3.8028,-2.0001 -3.8028,-5.0927 0,-3.0925 1.492,-5.0775 3.8028,-5.0775 2.3107,0 3.8027,1.9936 3.8027,5.0775 z"
         fill="#ffffff"
         id="path17" />
      <path
         d="m 44.4164,58.9739 c 0,-2.1956 -1.5397,-3.4031 -4.3348,-3.4031 h -4.1871 v 12.3637 h 1.416 v -5.425 h 2.7907 l 2.9579,5.425 h 1.618 l -3.0774,-5.5944 c 1.872,-0.4083 2.8189,-1.5376 2.8189,-3.364 z m -1.4311,0.05 c 0,1.531 -0.8926,2.1847 -2.9862,2.1847 h -2.6908 v -4.3044 h 2.6756 c 2.1044,0 3.0014,0.6342 3.0014,2.1197 z"
         fill="#ffffff"
         id="path18" />
      <path
         d="m 46.1864,56.9195 h 3.9048 v 11.015 h 1.4312 v -11.015 h 3.907 v -1.3487 h -9.243 z"
         fill="#ffffff"
         id="path19" />
      <path
         d="m 61.6253,61.0023 c -2.5214,-0.8079 -3.2554,-1.2357 -3.2554,-2.5019 0,-1.101 0.9903,-1.8416 2.4627,-1.8416 1.4725,0 2.5062,0.6689 3.06,2.1022 l 0.0521,0.1347 1.2249,-0.5712 -0.0413,-0.1173 c -0.4625,-1.3073 -1.581,-2.8688 -4.2783,-2.8688 -2.2195,0 -3.8939,1.3921 -3.8939,3.2402 0,2.0241 1.2943,2.7864 4.0155,3.642 2.6322,0.8383 3.0752,1.4746 3.0752,2.5822 0,1.2662 -1.0945,2.0545 -2.8537,2.0545 -1.6678,0 -2.821,-0.8492 -3.3357,-2.4541 l -0.0435,-0.1346 -1.2813,0.4669 0.0347,0.1216 c 0.6016,2.0675 2.3129,3.3011 4.5737,3.3011 2.5518,0 4.3348,-1.4138 4.3348,-3.4357 0,-2.0219 -1.4116,-2.9471 -3.8526,-3.7246 z"
         fill="#ffffff"
         id="path20" />
      <path
         d="m 76.3649,65.2763 -6.4913,-9.7055 h -1.4507 v 12.3637 h 1.3682 v -10.016 l 6.702,10.016 H 77.731 V 55.5708 h -1.3661 z"
         fill="#ffffff"
         id="path21" />
      <path
         d="m 82.65,62.0665 h 4.5259 V 60.7504 H 82.65 v -3.8309 h 6.0613 v -1.3487 h -7.4947 v 12.3637 h 7.8378 V 66.6011 H 82.65 Z"
         fill="#ffffff"
         id="path22" />
      <path
         d="m 90.7419,55.5708 v 1.3487 h 3.9069 v 11.015 H 96.08 v -11.015 h 3.9048 v -1.3487 z"
         fill="#ffffff"
         id="path23" />
      <path
         d="M 45.385,0.0825195 C 44.5771,2.92316 33.5751,41.25 33.5751,41.25 c -1.2075,4.3044 -4.2653,7.2471 -7.8986,7.2428 0,0 2.5496,-4.4325 6.7736,-18.981 L 40.8678,0.0825195 Z"
         fill="#ffb71b"
         id="path24" />
      <path
         d="M 63.3671,0.167095 C 59.004,-0.178212 48.8055,0.117145 48.8055,0.117145 L 42.3967,21.6782 47.1724,21.7955 52.3433,4.11532 c 0,0 6.3002,0.05429 8.1918,0.18026 8.9997,0.59722 13.6407,8.41762 9.901,16.56822 -3.6746,8.0115 -12.7395,13.3193 -21.4525,12.6156 0.0044,-0.0239 -1.1249,4.0851 -1.1249,4.0851 0,0 3.3792,0.2367 5.5379,-0.05 5.045,-0.6667 9.5339,-2.8406 13.4605,-6.0027 5.1535,-4.1523 8.9128,-9.2147 9.5469,-16.1034 C 77.2271,6.46732 70.4643,0.729576 63.3649,0.167095 Z"
         fill="#ffb71b"
         id="path25" />
      <path
         d="M 51.0728,29.9071 C 57.7444,29.9114 62.6352,26.8037 65.9862,21.1962 68.3664,17.2154 67.552,12.4072 64.125,9.77072 61.3169,7.612 58.0767,7.79009 54.6757,7.91605 c -0.3844,1.40077 -0.7688,2.81245 -1.2118,4.43035 1.1771,0 2.0957,-0.0673 3.0014,0.013 2.5083,0.2194 4.704,1.0729 5.653,3.6334 0.8926,2.4084 -0.2693,4.3304 -1.8894,5.9766 -2.2195,2.2543 -4.9451,3.4444 -8.1332,3.4639 -3.1968,0.0196 -10.7436,0.0434 -10.7436,0.0434 0,0 -2.5105,7.8813 -3.9938,13.037 -2.8602,9.0649 -3.8635,9.977 -3.8635,9.977 3.6354,0.0065 6.6911,-2.9362 7.8986,-7.2428 0,0 0.3844,-1.3725 1.0077,-3.5942 l 2.4953,-7.7119 c 0.9947,-0.0086 4.6432,-0.039 6.1808,-0.039 z"
         fill="#ffb71b"
         id="path26" />
      <path
         d="M 5.15572,61.0023 C 2.63433,60.1944 1.90028,59.7666 1.90028,58.5004 c 0,-1.101 0.99032,-1.8416 2.46276,-1.8416 1.47244,0 2.50619,0.6689 3.05998,2.1022 L 7.47514,58.8957 8.7,58.3245 8.65874,58.2072 C 8.19616,56.8999 7.07771,55.3384 4.38041,55.3384 c -2.21952,0 -3.893932,1.3921 -3.893932,3.2402 0,2.0241 1.294362,2.7864 4.015552,3.642 2.63215,0.8383 3.07518,1.4746 3.07518,2.5822 0,1.2662 -1.09455,2.0545 -2.85367,2.0545 -1.66789,0 -2.82109,-0.8492 -3.33579,-2.4541 L 1.34432,64.2686 0.0629883,64.7355 0.0977361,64.8571 C 0.70148,66.9246 2.41064,68.1582 4.67359,68.1582 c 2.5518,0 4.3348,-1.4138 4.3348,-3.4357 0,-2.0219 -1.41163,-2.9471 -3.85267,-3.7246 z"
         fill="#ffffff"
         id="path27" />
      <path
         d="m 16.11,55.5708 h -4.1546 v 12.3637 h 1.4312 v -5.3598 h 2.6105 c 2.8905,0 4.4824,-1.2662 4.4824,-3.5682 0,-2.302 -1.5506,-3.4357 -4.3673,-3.4357 z m 2.9362,3.4683 c 0,1.5658 -0.8883,2.2347 -2.9688,2.2347 h -2.6908 v -4.3696 h 2.6756 c 2.0653,0 2.9862,0.6581 2.9862,2.1349 z"
         fill="#ffffff"
         id="path28" />
      <path
         d="m 27.7614,55.3403 c -3.0817,0 -5.2339,2.6365 -5.2339,6.411 0,3.7745 2.1522,6.411 5.2339,6.411 3.0817,0 5.2339,-2.6365 5.2339,-6.411 0,-3.7745 -2.1522,-6.411 -5.2339,-6.411 z m 3.8027,6.411 c 0,3.0947 -1.492,5.0927 -3.8027,5.0927 -2.3108,0 -3.8028,-2.0001 -3.8028,-5.0927 0,-3.0925 1.492,-5.0775 3.8028,-5.0775 2.3107,0 3.8027,1.9936 3.8027,5.0775 z"
         fill="#ffffff"
         id="path29" />
      <path
         d="m 44.4164,58.9739 c 0,-2.1956 -1.5397,-3.4031 -4.3348,-3.4031 h -4.1871 v 12.3637 h 1.416 v -5.425 h 2.7907 l 2.9579,5.425 h 1.618 l -3.0774,-5.5944 c 1.872,-0.4083 2.8189,-1.5376 2.8189,-3.364 z m -1.4311,0.05 c 0,1.531 -0.8926,2.1847 -2.9862,2.1847 h -2.6908 v -4.3044 h 2.6756 c 2.1044,0 3.0014,0.6342 3.0014,2.1197 z"
         fill="#ffffff"
         id="path30" />
      <path
         d="m 46.1864,56.9195 h 3.9048 v 11.015 h 1.4312 v -11.015 h 3.907 v -1.3487 h -9.243 z"
         fill="#ffffff"
         id="path31" />
      <path
         d="m 61.6253,61.0023 c -2.5214,-0.8079 -3.2554,-1.2357 -3.2554,-2.5019 0,-1.101 0.9903,-1.8416 2.4627,-1.8416 1.4725,0 2.5062,0.6689 3.06,2.1022 l 0.0521,0.1347 1.2249,-0.5712 -0.0413,-0.1173 c -0.4625,-1.3073 -1.581,-2.8688 -4.2783,-2.8688 -2.2195,0 -3.8939,1.3921 -3.8939,3.2402 0,2.0241 1.2943,2.7864 4.0155,3.642 2.6322,0.8383 3.0752,1.4746 3.0752,2.5822 0,1.2662 -1.0945,2.0545 -2.8537,2.0545 -1.6678,0 -2.821,-0.8492 -3.3357,-2.4541 l -0.0435,-0.1346 -1.2813,0.4669 0.0347,0.1216 c 0.6016,2.0675 2.3129,3.3011 4.5737,3.3011 2.5518,0 4.3348,-1.4138 4.3348,-3.4357 0,-2.0219 -1.4116,-2.9471 -3.8526,-3.7246 z"
         fill="#ffffff"
         id="path32" />
      <path
         d="m 76.3649,65.2763 -6.4913,-9.7055 h -1.4507 v 12.3637 h 1.3682 v -10.016 l 6.702,10.016 H 77.731 V 55.5708 h -1.3661 z"
         fill="#ffffff"
         id="path33" />
      <path
         d="m 82.65,62.0665 h 4.5259 V 60.7504 H 82.65 v -3.8309 h 6.0613 v -1.3487 h -7.4947 v 12.3637 h 7.8378 V 66.6011 H 82.65 Z"
         fill="#ffffff"
         id="path34" />
      <path
         d="m 90.7419,55.5708 v 1.3487 h 3.9069 v 11.015 H 96.08 v -11.015 h 3.9048 v -1.3487 z"
         fill="#ffffff"
         id="path35" />
    </g>
  </g>
  <polygon
     class="cls-1"
     points="140.7,54 140.7,47.8 127.2,47.8 127.2,34.3 120.9,34.3 120.9,47.8 107.4,47.8 107.4,54 120.9,54 120.9,67.5 127.2,67.5 127.2,54 "
     id="polygon1"
     transform="matrix(1.4285714,0,0,1.4285714,-68.893718,-35.195493)"
     style="fill:#ffffff" />
</svg>
