<?xml version="1.0" encoding="UTF-8" standalone="no"?>
<svg
   id="Layer_1"
   version="1.1"
   viewBox="0 0 117 40"
   sodipodi:docname="SunsLive.svg"
   inkscape:version="1.4 (86a8ad7, 2024-10-11)"
   xmlns:inkscape="http://www.inkscape.org/namespaces/inkscape"
   xmlns:sodipodi="http://sodipodi.sourceforge.net/DTD/sodipodi-0.dtd"
   xmlns="http://www.w3.org/2000/svg"
   xmlns:svg="http://www.w3.org/2000/svg">
  <sodipodi:namedview
     id="namedview10"
     pagecolor="#ffffff"
     bordercolor="#000000"
     borderopacity="0.25"
     inkscape:showpageshadow="2"
     inkscape:pageopacity="0.0"
     inkscape:pagecheckerboard="0"
     inkscape:deskcolor="#d1d1d1"
     inkscape:zoom="9.9599314"
     inkscape:cx="68.976379"
     inkscape:cy="33.182959"
     inkscape:window-width="3440"
     inkscape:window-height="1377"
     inkscape:window-x="-8"
     inkscape:window-y="-8"
     inkscape:window-maximized="1"
     inkscape:current-layer="Layer_1" />
  <!-- Generator: Adobe Illustrator 29.3.1, SVG Export Plug-In . SVG Version: 2.1.0 Build 151)  -->
  <defs
     id="defs1">
    <style
       id="style1">
      .st0 {
        fill: #ff9e18;
      }

      .st1 {
        fill: #061922;
      }

      .st2 {
        fill: #d2451e;
      }

      .st3 {
        fill: #fa4b0a;
      }

      .st4 {
        fill: #ff4d00;
      }
    </style>
  </defs>
  <path
     d="M56.1,10.8l-2.9,16.2h9.5l-.6,2.9h-12.7l3.4-19h3.1,0Z"
     id="path1"
     style="fill:#ffffff" />
  <path
     d="M68.1,10.8h3.2l-3.4,19h-3.2l3.4-19Z"
     id="path2"
     style="fill:#ffffff" />
  <path
     d="M77.4,10.8l2.7,14.7,8-14.7h3.5l-10.6,19h-3l-3.9-19h3.5,0Z"
     id="path3"
     style="fill:#ffffff" />
  <path
     d="M93.8,10.8h12.8l-.5,2.8h-9.5l-.9,5h8l-.5,2.9h-8l-1,5.6h9.5l-.5,2.8h-12.8s3.3-19,3.3-19Z"
     id="path4"
     style="fill:#ffffff" />
  <path
     d="M114.2,11.1l-2.8,15.8c-.6,3.5-3.7,6.1-7.4,6.1h-63.4l-.5,1.4h63.8c4.3,0,8.1-3,8.9-7.3l3-17c-.5.3-1,.7-1.7,1h0ZM107.2,6.3v-.7h-61.3l-.3,1.4h61.5v-.7h0Z"
     id="path5"
     style="fill:#ffffff" />
  <path
     class="st3"
     d="M112.5,9.5c1.8,0,3.1-1.4,3.1-3.1s-1.4-3.1-3.1-3.1-3.1,1.4-3.1,3.1,1.4,3.1,3.1,3.1Z"
     id="path6" />
  <path
     class="st0"
     d="M36.2.3l-4.7,4.6L23.8.9l-1.4,7.5-7.2,1.5,4.2,2.6-4.2,2.2,3.5.3-14.6,11.3,14.8-7.8L3.1,30.4l16.9-8.9L1.9,35.1l20-10.5L1,39.7l23.2-12.6-15.7,12.6,19.1-10.8-.3,2.2,3.2-1.8,7.2,6.8,3.8-11.4,4.9-.7-2.2-6.5,4.4-3.9-6-2.5,1.7-6.9-5.5,2.6-2.6-6.2v-.2Z"
     id="path7" />
  <path
     class="st4"
     d="M43.4,17.4c-.2,6.3-5.6,11.2-12,10.9-6.4-.2-11.3-5.6-11-11.9.2-6.3,5.6-11.2,12-10.9,6.4.2,11.3,5.6,11,11.9Z"
     id="path8" />
  <path
     class="st2"
     d="M33.2,26.9c-6.4-.2-11.3-5.6-11-11.9.2-3,1.4-5.5,3.2-7.5-3,2-5,5.3-5.1,9.1-.2,6.3,4.7,11.6,11,11.9,3.4.2,6.6-1.2,8.9-3.4-2,1.3-4.3,2-6.9,1.9h0Z"
     id="path9" />
  <path
     class="st1"
     d="M43.4,17v-1.2c-.6-.5-1.5-.8-2.4-1h-.6c0-.8-.3-1.5-.5-2.2h.4l2.4.2c0-.3-.2-.6-.4-.9-.9-.2-1.9-.2-2.7-.3-.3-.7-.6-1.4-1-2.2.6-.2,1.1-.4,1.5-.8-.2-.2-.5-.4-.7-.6-.4.3-.9.6-1.5.6,0,0-.2-.2-.2-.3-.8-1-1.7-1.9-2.7-2.6-.9-.2-1.8-.4-2.7-.5h-.2c1.8.7,3.3,1.8,4.6,3.3-1.2,0-2.7-.6-3.9-1-.4-.2-.8-.2-1.2-.3-2.3-.6-4.1-.7-5.5-.6-1,.6-1.9,1.3-2.7,2.2,1.5-.6,4.3-1.7,8-.6.4,0,.8.2,1.2.3,1.6.5,3.3,1,4.8,1,.4.6.8,1.3,1.1,2h-.9c-7.4-.2-13.8,2.1-17.3,5.6,0,.7,0,1.4.2,2.1,1-1.4,2.5-2.7,4.3-3.7,3.5-2,8.4-3,13.4-3h.6c.2.7.5,1.5.6,2.3-3.2.2-5.4,2.2-7.8,4.3-2.2,2-4.8,3.8-8.8,5,.4.5.8.9,1.2,1.3,3.6-1.5,6.1-3.7,8.2-5.6,2.3-2.1,4.3-4.1,7.3-4.1v2.5c-.4,4.5-3,8.3-6.6,10.1,1,0,1.9-.3,2.7-.6.3-.2.6-.5.9-.7,2.4-2.3,3.8-5.4,4.1-8.8v-2.6h.5c.9,0,1.7.6,2.3,1.2h0Z"
     id="path10" />
</svg>
