<?xml version="1.0" encoding="UTF-8" standalone="no"?>
<svg
   version="1.1"
   id="Layer_1"
   x="0px"
   y="0px"
   width="1000.001"
   height="844"
   viewBox="0 0 1000.001 844"
   enable-background="new 0 0 1000 844"
   xml:space="preserve"
   sodipodi:docname="Tele.svg"
   inkscape:version="1.4 (86a8ad7, 2024-10-11)"
   xmlns:inkscape="http://www.inkscape.org/namespaces/inkscape"
   xmlns:sodipodi="http://sodipodi.sourceforge.net/DTD/sodipodi-0.dtd"
   xmlns="http://www.w3.org/2000/svg"
   xmlns:svg="http://www.w3.org/2000/svg"
   xmlns:rdf="http://www.w3.org/1999/02/22-rdf-syntax-ns#"
   xmlns:cc="http://creativecommons.org/ns#"
   xmlns:dc="http://purl.org/dc/elements/1.1/"><metadata
   id="metadata33"><rdf:RDF><cc:Work
       rdf:about=""><dc:format>image/svg+xml</dc:format><dc:type
         rdf:resource="http://purl.org/dc/dcmitype/StillImage" /></cc:Work></rdf:RDF></metadata><defs
   id="defs31">
	
	
	
	
	
	
	
	
	
	
	
	
</defs><sodipodi:namedview
   pagecolor="#ffffff"
   bordercolor="#666666"
   borderopacity="1"
   objecttolerance="10"
   gridtolerance="10"
   guidetolerance="10"
   inkscape:pageopacity="0"
   inkscape:pageshadow="2"
   inkscape:window-width="3440"
   inkscape:window-height="1377"
   id="namedview29"
   showgrid="false"
   inkscape:zoom="0.58503839"
   inkscape:cx="425.6131"
   inkscape:cy="421.33987"
   inkscape:window-x="-8"
   inkscape:window-y="-8"
   inkscape:window-maximized="1"
   inkscape:current-layer="Layer_1"
   inkscape:document-rotation="0"
   inkscape:showpageshadow="2"
   inkscape:pagecheckerboard="0"
   inkscape:deskcolor="#d1d1d1" />

<g
   id="g104"
   style="fill:#ffffff;fill-opacity:1"><path
     fill-rule="evenodd"
     clip-rule="evenodd"
     d="m 116.957,840.777 h 74.818 v -4.774 c 0,-8.529 -5.048,-13.574 -13.661,-13.574 h -37.91 v -31.967 h 36.979 v -18.598 h -36.979 v -28.613 h 35.726 c 8.615,0 13.661,-5.035 13.661,-13.563 v -4.774 h -72.635 v 115.863 z"
     id="path8"
     style="fill:#ffffff;fill-opacity:1" /><path
     fill-rule="evenodd"
     clip-rule="evenodd"
     d="m 306.353,840.777 h 74.818 v -4.774 c 0,-8.529 -5.048,-13.574 -13.661,-13.574 H 329.6 v -31.967 h 36.977 V 771.864 H 329.6 v -28.613 h 35.726 c 8.613,0 13.661,-5.035 13.661,-13.563 v -4.774 h -72.635 v 115.863 z"
     id="path10"
     style="fill:#ffffff;fill-opacity:1" /><path
     fill-rule="evenodd"
     clip-rule="evenodd"
     d="m 806.233,743.013 c 32.731,-4.265 44.429,9.146 44.429,40.613 0,31.055 -14.16,41.602 -44.412,39.096 l -0.369,-0.033 v -79.622 z m -23.599,97.764 h 35.367 c 37.321,0 56.603,-22.418 56.603,-58.876 0,-61.979 -44.428,-59.679 -91.97,-57.01 z"
     id="path12"
     style="fill:#ffffff;fill-opacity:1" /><path
     fill-rule="evenodd"
     clip-rule="evenodd"
     d="m 450.746,816.353 h 25 l 25.6,-50.781 v 75.206 h 22.623 V 724.913 h -16.216 c -10.796,0 -13.103,6.283 -17.483,14.627 l -27.156,55.197 -26.62,-55.187 c -4.24,-8.235 -6.508,-14.638 -17.13,-14.638 h -15.886 v 115.864 h 22.157 v -75.239 z"
     id="path14"
     style="fill:#ffffff;fill-opacity:1" /><path
     fill-rule="evenodd"
     clip-rule="evenodd"
     d="m 735.97,840.777 h 20.883 V 738.574 c 0,-8.604 -5.04,-13.661 -13.574,-13.661 h -8.784 v 78.961 l -39.969,-64.659 c -3.553,-5.751 -7.937,-14.302 -15.755,-14.302 h -14.03 v 115.864 h 22.157 v -75.868 z"
     id="path16"
     style="fill:#ffffff;fill-opacity:1" /><path
     fill-rule="evenodd"
     clip-rule="evenodd"
     d="m 286.108,840.777 v -4.774 c 0,-8.529 -5.048,-13.574 -13.661,-13.574 h -35.726 v -83.854 c 0,-8.604 -5.04,-13.661 -13.572,-13.661 h -9.676 v 115.864 h 72.635 z"
     id="path18"
     style="fill:#ffffff;fill-opacity:1" /><path
     fill-rule="evenodd"
     clip-rule="evenodd"
     d="m 947.401,741.146 c 22.743,0 27.935,24.664 27.935,42.861 0,18.543 -5.518,41.416 -28.174,41.416 -22.683,0 -28.174,-24.338 -28.174,-42.621 0,-18.489 5.649,-41.656 28.413,-41.656 z m 0.245,-19.076 c -35.981,0 -53.082,27.594 -53.082,60.97 0,34.419 15.489,60.96 52.838,60.96 37.288,0 52.599,-26.692 52.599,-60.96 -10e-4,-33.115 -16.369,-60.97 -52.355,-60.97 z"
     id="path20"
     style="fill:#ffffff;fill-opacity:1" /><path
     fill-rule="evenodd"
     clip-rule="evenodd"
     d="m 549.555,724.913 v 73.633 c 0,29.645 13.173,45.041 44.092,45.041 29.91,0 45.66,-15.494 45.66,-45.041 0,-19.998 0,-39.984 0,-59.972 0,-8.604 -5.046,-13.661 -13.574,-13.661 h -9.364 c 0,25.564 0,51.14 0,76.704 0,12.868 -9.038,22.417 -22.108,22.417 -13.623,0 -21.767,-9.027 -21.767,-22.417 v -63.043 c 0,-8.615 -5.04,-13.661 -13.568,-13.661 z"
     id="path22"
     style="fill:#ffffff;fill-opacity:1" /><path
     fill-rule="evenodd"
     clip-rule="evenodd"
     d="m 60.273,840.777 v -96.788 h 23.356 c 8.613,0 13.661,-5.046 13.661,-13.574 v -5.502 H 13.661 C 5.048,724.913 0,729.948 0,738.487 v 5.502 h 37.022 v 96.788 z"
     id="path24"
     style="fill:#ffffff;fill-opacity:1" /></g><g
   id="g93"><path
     fill-rule="evenodd"
     clip-rule="evenodd"
     fill="#a71916"
     d="m 624.153,324.724 c 2.426,142.063 -94.829,278.554 -230.352,321.012 -13.642,3.44 -18.62,4.818 -18.62,-4.697 V 241.865 H 192.508 c -2.889,0 -5.255,-2.366 -5.255,-5.257 V 5.255 C 187.253,2.366 189.616,0 192.508,0 h 103.868 c 197.852,0 327.777,169.358 327.777,324.724 z"
     id="path2"
     style="fill:#911010;fill-opacity:1" /><path
     fill-rule="evenodd"
     clip-rule="evenodd"
     fill="#ff0000"
     d="m 375.22,324.724 c -2.422,142.063 94.83,278.554 230.353,321.012 13.645,3.44 18.619,4.818 18.619,-4.697 V 241.865 h 182.677 c 2.887,0 5.252,-2.366 5.252,-5.257 V 5.255 C 812.121,2.366 809.761,0 806.869,0 H 703 C 505.148,0 375.22,169.358 375.22,324.724 Z"
     id="path4"
     style="fill:#eb1010;fill-opacity:1" /><path
     id="path2-85"
     d="m 499.68664,71.53515 c -78.65055,63.73475 -124.46875,160.92821 -124.46875,253.18946 -0.0378,2.21973 -0.0496,4.43762 -0.0391,6.65429 0.47244,98.88293 48.91222,194.37596 124.50781,256.54688 75.56407,-62.14471 123.99386,-157.5837 124.50391,-256.42188 v -0.4414 c 0.008,-2.11143 -0.003,-4.22371 -0.0391,-6.33789 0,-92.26078 -45.81588,-189.4547 -124.46484,-253.18946 z"
     style="fill:#c31010;fill-opacity:1" /></g></svg>
