<?xml version="1.0" encoding="UTF-8" standalone="no"?>
<svg
   height="186.6"
   width="484.1"
   viewBox="0 0 484.1 186.5"
   version="1.1"
   id="svg2"
   sodipodi:docname="truTV.svg"
   inkscape:version="1.4 (86a8ad7, 2024-10-11)"
   xmlns:inkscape="http://www.inkscape.org/namespaces/inkscape"
   xmlns:sodipodi="http://sodipodi.sourceforge.net/DTD/sodipodi-0.dtd"
   xmlns="http://www.w3.org/2000/svg"
   xmlns:svg="http://www.w3.org/2000/svg">
  <defs
     id="defs2" />
  <sodipodi:namedview
     id="namedview2"
     pagecolor="#ffffff"
     bordercolor="#000000"
     borderopacity="0.25"
     inkscape:showpageshadow="2"
     inkscape:pageopacity="0.0"
     inkscape:pagecheckerboard="0"
     inkscape:deskcolor="#d1d1d1"
     inkscape:zoom="3.1484458"
     inkscape:cx="132.12868"
     inkscape:cy="93.855832"
     inkscape:window-width="3440"
     inkscape:window-height="1377"
     inkscape:window-x="-8"
     inkscape:window-y="-8"
     inkscape:window-maximized="1"
     inkscape:current-layer="svg2" />
  <path
     fill="#c8de47"
     d="m418.2 0c-36.4 0-66 29.5-66 65.9s29.5 65.9 66 65.9c36.4 0 65.9-29.5 65.9-65.9s-29.5-65.9-65.9-65.9z"
     id="path1" />
  <path
     d="m25.199 3.3008v39.5h-25.199v37.199h25.199v104.5h48.701v-104.5h25.2v-37.199h-25.2v-39.5l-48.701-0.0002zm80.901 39.5v141.8h48.7l0.1-64.1c0-19.9 10.6-28.5 36.6-28.5h7.7v-49.199h-5.5c-18.4 0-32.2 5.698-42.6 23.898v-23.898h-45zm100.2 0v91.499c0 33 21.9 52.3 52.5 52.3 11.7 0 32-2.5 41.7-23v21.1h45v-141.9l-48.5 0.001v73.999c0 11.6-5.6 24.4-21.3 24.4-16.2 0-21.3-13.2-21.3-24.2l0.1-74.199h-48.2zm170.9 0l-2 11.199h14.1l-6.6 38h13l6.6-38h13.4l1.9-11.199h-40.4zm43.4 0l5 49.199h14.5l26.6-49.199h-13.7l-17.2 33.299-2.6-33.299h-12.6z"
     id="path2"
     style="fill:#ffffff" />
  <path
     d="m 377.2,42.8008 -2,11.199 h 14.1 l -6.6,38 h 13 l 6.6,-38 h 13.4 l 1.9,-11.199 z m 43.4,0 5,49.199 h 14.5 l 26.6,-49.199 H 453 l -17.2,33.299 -2.6,-33.299 z"
     id="path3"
     style="fill:#000000"
     sodipodi:nodetypes="ccccccccccccccccc" />
</svg>
