<?xml version="1.0" encoding="UTF-8" standalone="no"?>
<svg
   class="logo-sizes shrink-0 fill-mainHeader-logo-color group-hover:fill-mainHeader-logo-color-hover"
   fill="#000000"
   height="19.851223"
   viewBox="0 0 90 19.851223"
   width="90"
   version="1.1"
   id="svg4"
   sodipodi:docname="TUDN.svg"
   inkscape:version="1.4 (86a8ad7, 2024-10-11)"
   xmlns:inkscape="http://www.inkscape.org/namespaces/inkscape"
   xmlns:sodipodi="http://sodipodi.sourceforge.net/DTD/sodipodi-0.dtd"
   xmlns="http://www.w3.org/2000/svg"
   xmlns:svg="http://www.w3.org/2000/svg">
  <defs
     id="defs4" />
  <sodipodi:namedview
     id="namedview4"
     pagecolor="#ffffff"
     bordercolor="#000000"
     borderopacity="0.25"
     inkscape:showpageshadow="2"
     inkscape:pageopacity="0.0"
     inkscape:pagecheckerboard="0"
     inkscape:deskcolor="#d1d1d1"
     inkscape:zoom="4.5416667"
     inkscape:cx="63.633027"
     inkscape:cy="47.889908"
     inkscape:window-width="1377"
     inkscape:window-height="1211"
     inkscape:window-x="1986"
     inkscape:window-y="38"
     inkscape:window-maximized="0"
     inkscape:current-layer="svg4" />
  <path
     d="M 0,0 H 20.275 V 2.246 H 0 Z M 20.274,5.297 H 0 V 3.05 H 20.274 Z M 9.635,7.578 V 19.482 H 7.336 V 5.297 Z m 3.184,3.122 v 8.782 H 10.52 V 8.449 Z M 67.135,0.029 V 19.446 H 69.47 V 2.207 h 1.668 l 11.196,14.046 h 0.408 V 0.029 H 80.444 V 10.264 L 72.25,0.029 Z"
     id="path1"
     style="fill:#00ffb0;fill-opacity:1" />
  <path
     d="m 70.286,3.037 v 16.409 h 2.336 V 8.921 l 8.415,10.525 h 4.931 V 0.029 H 83.632 V 17.123 H 81.89 L 70.731,3.042 Z M 44.813,19.43 c 0.016,-4.327 0.01,-9.156 0.01,-13.483 V 5.51 c 0.134,0.105 0.22,0.16 0.291,0.23 0.542,0.527 1.07,1.07 1.627,1.581 0.24,0.223 0.34,0.449 0.338,0.777 -0.014,2.87 0,5.742 -0.018,8.613 -0.002,0.407 0.096,0.534 0.529,0.53 2.432,-0.02 4.864,-0.007 7.296,-0.01 3.807,-0.006 7.019,-2.679 7.635,-6.348 0.666,-3.964 -2.088,-7.79 -6.16,-8.535 A 9.026,9.026 0 0 0 54.793,2.198 C 51.653,2.183 48.511,2.191 45.37,2.191 H 44.852 V 0.055 c 0.173,-0.007 0.322,-0.02 0.472,-0.02 3.196,-0.001 6.392,-0.013 9.589,0.003 2.529,0.013 4.858,0.629 6.794,2.316 1.54,1.342 2.438,3.041 2.82,5.006 0.425,2.187 0.388,4.358 -0.489,6.441 -1.28,3.042 -3.648,4.81 -6.911,5.447 A 11.24,11.24 0 0 1 55.061,19.43 Z M 22.63,0.034 h 2.222 v 0.513 c 0,3.225 -0.034,6.45 0.01,9.674 0.04,2.882 1.317,5.134 3.877,6.598 4.535,2.591 10.39,-0.066 11.322,-5.118 a 9.091,9.091 0 0 0 0.156,-1.617 c 0.014,-3.17 0.007,-6.34 0.007,-9.511 V 0.045 h 2.201 c 0.007,0.138 0.02,0.281 0.02,0.424 0,3.415 0.053,6.832 -0.014,10.245 -0.09,4.482 -2.875,8.127 -7.69,8.928 -2.54,0.42 -5.01,0.262 -7.31,-0.975 -2.634,-1.416 -4.12,-3.648 -4.629,-6.515 C 22.674,11.435 22.64,10.695 22.636,9.964 22.618,6.834 22.628,3.704 22.628,0.575 22.63,0.412 22.63,0.25 22.63,0.035 Z"
     id="path2"
     style="fill:#00ffb0;fill-opacity:1" />
  <path
     d="m 25.817,0.027 h 2.2 v 0.495 c 0,3.306 -0.002,6.612 0,9.918 0,2.26 1.375,3.983 3.633,4.42 2.714,0.526 5.048,-1.172 5.336,-3.575 0.034,-0.282 0.069,-0.566 0.069,-0.85 0.005,-3.292 0.003,-6.585 0.003,-9.877 v -0.52 h 2.197 c 0.014,0.11 0.038,0.213 0.038,0.316 -0.002,3.415 0.019,6.83 -0.018,10.245 -0.031,2.92 -2.32,5.583 -5.228,6.173 -3.775,0.766 -7.25,-1.407 -8.12,-5.084 A 4.095,4.095 0 0 1 25.803,10.763 C 25.793,7.281 25.795,3.798 25.795,0.315 c 0,-0.082 0.011,-0.163 0.021,-0.288 z m 24.361,14.17 c 0.009,-0.776 -0.036,-2.644 0.016,-3.416 L 48.04,8.593 v 7.706 c 0.13,0.008 0.226,0.018 0.322,0.018 2.32,0 4.642,0.003 6.963,-0.006 0.316,-0.002 0.638,-0.04 0.948,-0.103 3.814,-0.794 6.126,-4.384 5.226,-8.104 C 60.82,5.297 58.199,3.162 55.253,3.121 51.89,3.073 48.526,3.105 45.163,3.104 c -0.094,0 -0.188,0.017 -0.34,0.03 0,0.572 0.03,1.625 -0.01,2.175 l 10.133,0.02 c 0.55,0.002 1.118,0.042 1.646,0.18 2.346,0.611 3.706,3.035 3.057,5.379 -0.52,1.88 -2.012,3.148 -3.999,3.25 l -5.472,0.06 z M 88.296,0.023 h 0.216 l 0.033,0.008 c 0.064,0.01 0.13,0.015 0.194,0.028 0.355,0.075 0.65,0.252 0.885,0.523 0.18,0.209 0.298,0.449 0.345,0.72 C 89.983,1.381 89.99,1.461 90,1.54 v 0.083 l -0.01,0.112 a 1.52,1.52 0 0 1 -0.344,0.824 c -0.25,0.3 -0.567,0.488 -0.956,0.558 -0.081,0.015 -0.165,0.02 -0.247,0.03 H 88.358 L 88.32,3.142 C 88.24,3.132 88.16,3.126 88.08,3.111 A 1.551,1.551 0 0 1 87.345,2.749 1.527,1.527 0 0 1 86.84,1.884 C 86.827,1.82 86.819,1.755 86.809,1.691 V 1.479 l 0.006,-0.03 C 86.832,1.239 86.89,1.04 86.995,0.855 A 1.57,1.57 0 0 1 88.1,0.053 c 0.063,-0.013 0.13,-0.02 0.196,-0.03 z m -1.242,1.558 c -0.004,0.73 0.597,1.32 1.345,1.324 0.743,0.004 1.35,-0.59 1.353,-1.319 C 89.755,0.86 89.153,0.268 88.41,0.264 a 1.331,1.331 0 0 0 -1.355,1.317 z"
     id="path3"
     style="fill:#00ffb0;fill-opacity:1" />
  <path
     d="M 88.065,1.816 V 2.439 H 87.811 V 0.74 c 0.007,-0.001 0.012,-0.004 0.017,-0.004 0.248,0.002 0.495,-0.003 0.742,0.01 a 0.49,0.49 0 0 1 0.4,0.22 c 0.06,0.09 0.073,0.195 0.076,0.3 0.003,0.171 -0.034,0.329 -0.174,0.427 -0.057,0.04 -0.126,0.06 -0.19,0.09 l -0.04,0.012 0.37,0.646 C 88.925,2.441 88.847,2.443 88.769,2.44 88.758,2.439 88.745,2.42 88.736,2.405 A 113.89,113.89 0 0 1 88.419,1.853 c -0.015,-0.027 -0.03,-0.039 -0.06,-0.038 -0.097,0.003 -0.193,0 -0.294,0 z m 0.002,-0.243 c 0.146,0 0.289,0.007 0.432,-0.003 a 0.38,0.38 0 0 0 0.18,-0.066 c 0.099,-0.067 0.13,-0.16 0.106,-0.32 a 0.23,0.23 0 0 0 -0.2,-0.198 C 88.415,0.963 88.242,0.964 88.068,0.956 v 0.617 z"
     id="path4"
     style="fill:#00ffb0;fill-opacity:1" />
</svg>
