<?xml version="1.0" encoding="UTF-8" standalone="no"?>
<svg
   viewBox="0 0 235.16 75.269997"
   version="1.1"
   id="svg4"
   sodipodi:docname="TwinsTV.svg"
   width="235.16"
   height="75.269997"
   inkscape:version="1.4 (86a8ad7, 2024-10-11)"
   xmlns:inkscape="http://www.inkscape.org/namespaces/inkscape"
   xmlns:sodipodi="http://sodipodi.sourceforge.net/DTD/sodipodi-0.dtd"
   xmlns="http://www.w3.org/2000/svg"
   xmlns:svg="http://www.w3.org/2000/svg">
  <defs
     id="defs4" />
  <sodipodi:namedview
     id="namedview4"
     pagecolor="#ffffff"
     bordercolor="#000000"
     borderopacity="0.25"
     inkscape:showpageshadow="2"
     inkscape:pageopacity="0.0"
     inkscape:pagecheckerboard="0"
     inkscape:deskcolor="#d1d1d1"
     inkscape:zoom="3.9073103"
     inkscape:cx="241.85435"
     inkscape:cy="125.53392"
     inkscape:window-width="3440"
     inkscape:window-height="1377"
     inkscape:window-x="-8"
     inkscape:window-y="-8"
     inkscape:window-maximized="1"
     inkscape:current-layer="svg4" />
  <path
     fill="#ffffff"
     d="M 231.89,3.37 C 229.77,1.19 226.97,0 223.99,0 H 11.19 C 8.2,0 5.38,1.19 3.26,3.35 1.15,5.54 0,8.48 0,11.66 v 51.92 c 0,3.18 1.15,6.11 3.25,8.27 2.13,2.2 4.95,3.42 7.94,3.42 h 212.8 c 6.16,0 11.17,-5.24 11.17,-11.69 V 11.65 c 0,-3.16 -1.16,-6.1 -3.27,-8.28 z"
     id="path1" />
  <path
     fill="#031f40"
     d="m 228.98,6.27 c 1.37,1.42 2.11,3.37 2.11,5.38 v 51.92 c 0,4.2 -3.23,7.6 -7.24,7.6 H 64.461 C 77.934,62.47 96.837,56.902 122.08,50.38 l 0.6,-3.35 L 100,52.5 C 78.268,57.729 58.209,63.609 46.293,71.17 H 11.33 C 9.4,71.17 7.55,70.38 6.15,68.94 4.78,67.53 4.07,65.61 4.07,63.58 V 11.66 C 4.07,9.65 4.78,7.7 6.15,6.28 a 7.229,7.229 0 0 1 5.18,-2.19 h 212.53 c 1.9,0 3.74,0.76 5.12,2.18 z M 56.31,22.35 c 4.41,-0.46 8.05,-1.52 10.05,-3.49 l 1.86,-4.98 c -3.26,2.63 -7.62,3.26 -11.85,3.26 -4.67,0 -11.34,-0.83 -16.47,-0.74 -8.82,0.17 -14.95,3.12 -17.72,11.02 l 5.1,5.44 c 1.78,-6.59 5.1,-8.9 12.23,-9.51 0.24,-0.02 0.52,-0.04 0.82,-0.06 -0.54,3.21 -1.01,5.67 -1.56,8.54 -0.95,4.93 -2.18,11.02 -3.52,17.84 -1.32,6.7 -2.43,11.22 -4.64,16.69 3.09,-1.55 6.76,-3.21 9.68,-4.44 -0.09,-3.21 0.17,-5.76 1.23,-11.6 1.17,-6.41 2.38,-12.4 3.35,-17.38 0.7,-3.6 1.35,-6.8 2.04,-10 3.41,-0.16 7.06,-0.35 9.41,-0.59 z m 36.11,-4.41 c 2.46,0 4.3,-1.86 4.3,-4.21 0,-2.15 -1.55,-3.66 -3.78,-3.66 -2.49,0 -4.24,1.95 -4.24,4.27 0,2.18 1.55,3.61 3.72,3.61 z m 39.31,-0.63 c 0,-0.69 0.09,-1.69 0.52,-2.81 l -7.22,1.4 c -0.06,5.93 -2.55,13.66 -5.24,18.44 -1.49,2.61 -2.69,3.75 -3.64,4.04 -0.49,0.14 -0.94,0.06 -1.23,-0.31 -0.32,-0.4 -0.34,-1.03 -0.14,-2.18 0.46,-2.55 1.63,-6.27 2.18,-8.99 0.66,-3.38 0.2,-5.73 -1.23,-7.27 -1.37,-1.43 -3.44,-1.92 -5.38,-1.55 -2.39,0.44 -4.27,2.09 -5.46,3.84 0,-0.75 -0.02,-1.48 -0.07,-2.12 l -5.13,1 c 0.23,2.55 0,4.67 -0.8,8.36 l -2.61,12.08 c -1.17,1.96 -2.36,3.03 -3.58,3.3 -0.89,0.2 -1.43,-0.11 -1.72,-0.49 -0.4,-0.51 -0.49,-1.32 -0.09,-3.38 l 2.2,-11 c 0.74,-3.75 1.23,-5.96 1.6,-7.9 l -6.96,1.37 c 0.32,1.4 0.06,3.61 -1.32,5.18 -1.58,1.85 -4.05,2.09 -4.55,0.53 0.24,-1.43 0.47,-3.2 0.66,-4.71 l -6.84,1.32 c 0.31,2.49 0.23,4.61 -0.46,8.22 -0.54,2.86 -1.57,7.56 -2.92,10.82 -0.89,2.15 -2.06,4.04 -3.61,4.47 -0.72,0.17 -1.4,0 -1.83,-0.54 -0.49,-0.63 -0.46,-1.58 -0.14,-3.29 0.52,-2.52 1.35,-6.5 2.32,-11.2 0.54,-2.75 1.09,-5.56 1.55,-7.47 l -7.22,1.37 c 0.31,2.43 0.11,4.81 -0.49,7.82 -0.86,4.44 -1.6,7.79 -2.03,9.76 -0.14,0.6 -0.27,1.2 -0.39,1.81 -1.2,2.94 -2.68,4.6 -4.08,4.92 -0.69,0.17 -1.35,0 -1.78,-0.51 -0.49,-0.6 -0.57,-1.58 -0.26,-3.46 0.4,-2.38 1.12,-5.61 2.29,-11.45 0.63,-3.15 1.15,-5.7 1.66,-7.87 l -7.24,1.4 c 0.29,2.43 0.29,4.18 -0.46,7.85 -0.63,3.01 -1.58,7.42 -2,9.97 -0.49,2.75 -0.26,5.3 1.32,7.16 1.55,1.8 4.01,2.43 6.39,1.86 2.17,-0.53 4.34,-2.08 6.06,-4.92 1.55,1.65 3.99,2.4 6.76,1.6 3.58,-1 6.33,-4.12 8.33,-8.48 1.36,-2.94 2.39,-6.49 3.38,-11.15 1.97,0.42 4.43,-0.39 6.1,-2.37 l -1.89,9.31 c -0.54,2.72 -0.2,4.41 0.69,5.67 1.4,1.92 3.78,2.18 5.67,1.75 1.54,-0.34 3.05,-1.2 4.4,-2.49 l 5.5,-1.32 3.17,-14.68 c 1.32,-4.16 3.26,-6.59 4.94,-6.94 0.66,-0.14 1.23,0.03 1.58,0.4 0.43,0.46 0.54,1.29 0.29,2.78 -0.4,2.38 -1.52,5.93 -2.15,8.96 -0.69,3.21 -0.26,5.1 0.77,6.36 1.23,1.49 3.29,1.98 5.33,1.49 3.26,-0.77 5.81,-3.89 7.79,-7.56 1.87,-3.43 3.58,-7.99 4.73,-11.88 1.61,3.49 3.72,5.9 3.72,8.7 0,3.61 -3.26,4.78 -6.61,3.49 l -1,5.21 c 6.53,1.6 13.23,-1.52 13.23,-8.59 0,-6.3 -5.35,-9.71 -5.35,-15.12 z m 27.94,18.26 v 24.28 h 8.61 V 35.57 h 9.32 v -7.79 h -27.22 v 7.79 z m 32.71,24.5 h 7.99 l 12.61,-32.29 h -9.41 l -7.1,20.29 -7.06,-20.29 h -9.59 z"
     id="path2" />
  <path
     fill="#e20e32"
     d="m 136.68,57.92 c -1.33,-1.33 -3.17,-2.12 -5.83,-2.56 V 54.9 c 2.66,-0.43 4.5,-1.23 5.83,-2.58 1.38,-1.33 2.17,-3.17 2.61,-5.83 h 0.46 c 0.44,2.66 1.23,4.5 2.61,5.83 1.33,1.36 3.17,2.15 5.83,2.58 v 0.46 c -2.66,0.43 -4.5,1.23 -5.83,2.56 -1.38,1.33 -2.17,3.2 -2.61,5.86 h -0.46 c -0.43,-2.66 -1.23,-4.53 -2.61,-5.86"
     id="path3" />
</svg>
