<?xml version="1.0" encoding="UTF-8" standalone="no"?>
<!-- Generator: Adobe Illustrator 16.0.0, SVG Export Plug-In . SVG Version: 6.00 Build 0)  -->

<svg
   version="1.1"
   id="svg2"
   sodipodi:docname="Universo.svg"
   inkscape:version="1.4 (86a8ad7, 2024-10-11)"
   x="0px"
   y="0px"
   width="1001px"
   height="536.604px"
   viewBox="0 0 1001 536.604"
   enable-background="new 0 0 1001 536.604"
   xml:space="preserve"
   xmlns:inkscape="http://www.inkscape.org/namespaces/inkscape"
   xmlns:sodipodi="http://sodipodi.sourceforge.net/DTD/sodipodi-0.dtd"
   xmlns="http://www.w3.org/2000/svg"
   xmlns:svg="http://www.w3.org/2000/svg"><defs
   id="defs2" />
<sodipodi:namedview
   fit-margin-top="0.5"
   fit-margin-left="0.5"
   showgrid="false"
   inkscape:cy="288.60042"
   inkscape:cx="1373.3399"
   inkscape:zoom="0.6531522"
   borderopacity="1.0"
   bordercolor="#666666"
   pagecolor="#ffffff"
   id="base"
   inkscape:window-maximized="1"
   inkscape:window-y="-8"
   inkscape:window-x="-8"
   inkscape:window-height="1377"
   inkscape:window-width="3440"
   fit-margin-right="0.5"
   inkscape:current-layer="g2"
   inkscape:pageshadow="2"
   inkscape:document-units="px"
   inkscape:pageopacity="0.0"
   fit-margin-bottom="0.5"
   inkscape:showpageshadow="2"
   inkscape:pagecheckerboard="0"
   inkscape:deskcolor="#d1d1d1">
	
		<inkscape:grid
   type="xygrid"
   originy="-27.986638px"
   originx="-8.9937746px"
   enabled="true"
   visible="true"
   empspacing="5"
   id="grid2996"
   snapvisiblegridlinesonly="true"
   spacingy="1"
   spacingx="1"
   units="px">
		</inkscape:grid>
</sodipodi:namedview>
<g
   id="g3096"
   transform="matrix(1.5020458,0,0,1.4942623,-1862.9831,1468.2964)">
</g>
<g
   id="g2">
	<g
   id="g1">
		<g
   id="g3745"
   transform="matrix(1.7336863,0,0,1.7336866,-62.484404,1660.1254)">
			<path
   id="path3719"
   inkscape:connector-curvature="0"
   fill="#FFFFFF"
   d="M332.119-930.943     c-5.394-13.438-18.537-27.952-43.154-25.958c-31.355,3.401-41.128,33.38-36.389,51.264c-12.489-8.436-33.724-12.146-52.261,3.693     c-23.933,23.933-11.133,56.3,2.026,64.064c-14.5-1.34-37.417,8.435-42.487,34.002c-5.394,31.745,18.865,50.251,42.487,50.251     h261.929c27.315,0,42.47-23.572,40.77-45.805c-2.681-29.015-29.295-40.148-43.811-37.762     c12.129-6.751,28.328-38.463,3.694-63.395c-19.551-18.554-44.479-11.803-53.242-3.71c4.723-15.498-3.024-47.537-34.737-52.606     c-2.191-0.244-4.301-0.377-6.313-0.377C346.422-957.277,335.536-939.624,332.119-930.943" />
		</g>
		<path
   id="path3098"
   inkscape:connector-curvature="0"
   fill="#F37021"
   d="M390.949,131.513l84.144,191.322L301.551,204.654    c-43.467-28.701-34.654-77.88-10.566-99.501C325.092,76.507,373.321,86.474,390.949,131.513" />
		<path
   id="path3100"
   inkscape:connector-curvature="0"
   fill="#CC004C"
   d="M506.259,86.463L475.656,300.55L388.612,96.974    c-18.778-50.867,23.485-84.251,51.733-84.796C472.7,8.638,513.32,33.2,506.259,86.463" />
		<path
   id="path3102"
   inkscape:connector-curvature="0"
   fill="#6460AA"
   d="M638.55,96.391l-86.442,204.175L524.461,116.27    c-2.354-28.102,15.273-28.647,21.734-33.875c-1.15-4.085-10.019-4.085-10.019-4.085h-16.479    c-1.697-48.034,35.913-69.111,66.515-66.769C619.115,12.685,656.178,50.807,638.55,96.391" />
		<path
   id="path3104"
   inkscape:connector-curvature="0"
   fill="#0089D0"
   d="M726.754,203.429L553.322,322.263l81.68-189.034    c24.689-59.635,82.336-47.98,102.92-25.161C760.258,130.288,766.772,175.382,726.754,203.429" />
		<path
   id="path3106"
   inkscape:connector-curvature="0"
   fill="#0DB14B"
   d="M744.979,343.258H544.394L707.314,230.36    c40.019-26.305,82.391-2.342,93.559,32.187C812.589,301.105,786.146,343.258,744.979,343.258" />
		<path
   id="path3108"
   inkscape:connector-curvature="0"
   fill="#FCB711"
   d="M225.708,260.178    c15.329-39.812,57.646-53.808,95.256-29.845l162.921,112.898H286.31C245.142,343.231,212.788,305.816,225.708,260.178" />
	</g>
	<g
   id="g3046"
   style="fill:#ffffff">
		<path
   id="path3110"
   sodipodi:nodetypes="ccccccccccc"
   inkscape:connector-curvature="0"
   fill="#272425"
   d="M0.5,377.328v93.018    c0,46.389,31.94,62.645,65.349,62.645c39.743,0,65.331-20.897,65.331-62.645v-93.018H95.54v86.951    c0,24.768-11.104,34.628-29.302,34.628c-18.869,0-29.34-10.24-29.34-32.606v-88.973H0.5z"
   style="fill:#ffffff" />
		<path
   id="path3112"
   sodipodi:nodetypes="ccccccccc"
   inkscape:connector-curvature="0"
   fill="#272425"
   d="M147.104,530.504V372.273    l89.984,80.885v-75.829h33.87v158.736l-90.49-86.215v80.654H147.104z"
   style="fill:#ffffff" />
		<path
   id="path3114"
   sodipodi:nodetypes="ccccc"
   inkscape:connector-curvature="0"
   fill="#272425"
   d="M288.652,530.504V377.328    h34.983v153.176H288.652z"
   style="fill:#ffffff" />
		<path
   id="path3116"
   sodipodi:nodetypes="ccccccc"
   inkscape:connector-curvature="0"
   fill="#272425"
   d="M335.782,377.328h38.343    l34.884,83.045l34.879-83.045h38.498l-73.373,158.775L335.782,377.328z"
   style="fill:#ffffff" />
		<path
   id="path3118"
   sodipodi:nodetypes="ccccccccccccc"
   inkscape:connector-curvature="0"
   fill="#272425"
   d="M494.402,530.504    V377.328h97.062v32.354h-62.181v26.288h56.619v30.331h-56.619v31.344h62.181v32.859H494.402z"
   style="fill:#ffffff" />
		<path
   id="path3120"
   inkscape:connector-curvature="0"
   fill="#272425"
   d="M607.636,377.313v153.124h34.88v-57.796l44.192,57.796    h40.214l-50.378-63.762c21.746-9.101,35.858-20.58,35.858-44.16c0-28.533-20.538-45.202-50.663-45.202H607.636z M642.516,406.637    h13.163c11.866,0,20.802,7.431,20.802,17.93c0,13.609-9.699,20.486-21.812,20.486h-12.153V406.637z"
   style="fill:#ffffff" />
		<path
   id="path3124"
   sodipodi:nodetypes="ccccccccccccccc"
   inkscape:connector-curvature="0"
   fill="#272425"
   d="M732.506,521.909    v-35.387c0,0,21.093,15.008,43.896,15.008c11.911,0,18.213-5.452,18.213-14.306c0-13.609-15.649-17.923-31.061-24.654    c-16.07-7.501-34.143-20.248-34.143-43.521c0-25.875,22.483-44.019,53.923-44.019c22.652,0,36.123,8.363,36.123,8.363v33.641    c0,0-17.699-12.401-36.067-12.401c-11.891,0-19.094,5.065-19.094,13.563c0,11.618,13.709,16.635,28.438,22.821    c23.604,9.955,36.985,21.308,36.985,44.555c0,25.502-20.389,47.596-54.693,47.596C750.964,533.169,732.506,521.91,732.506,521.909    L732.506,521.909z"
   style="fill:#ffffff" />
		<path
   id="path3126"
   inkscape:connector-curvature="0"
   fill="#272425"
   d="M918.352,373.978c-47.576,0-82.243,33.546-82.243,79.778    c0,48.825,38.844,80.411,82.527,80.411c42.14,0,81.864-31.438,81.864-79.969C1000.5,408.998,966.491,373.978,918.352,373.978    L918.352,373.978z M918.415,407.722c20.397,0,42.653,14.472,42.653,46.888c0,30.198-21.938,45.498-42.527,45.498    c-23.62,0-42.938-17.391-42.938-46.225C875.603,424.543,895.268,407.722,918.415,407.722L918.415,407.722z"
   style="fill:#ffffff" />
	</g>
</g>
</svg>
