<?xml version="1.0" encoding="UTF-8" standalone="no"?>
<svg
   id="Layer_1"
   data-name="Layer 1"
   version="1.1"
   viewBox="0 0 977.20001 117"
   sodipodi:docname="Victory+.svg"
   width="977.20001"
   height="117"
   inkscape:version="1.4 (86a8ad7, 2024-10-11)"
   xmlns:inkscape="http://www.inkscape.org/namespaces/inkscape"
   xmlns:sodipodi="http://sodipodi.sourceforge.net/DTD/sodipodi-0.dtd"
   xmlns="http://www.w3.org/2000/svg"
   xmlns:svg="http://www.w3.org/2000/svg">
  <sodipodi:namedview
     id="namedview11"
     pagecolor="#ffffff"
     bordercolor="#000000"
     borderopacity="0.25"
     inkscape:showpageshadow="2"
     inkscape:pageopacity="0.0"
     inkscape:pagecheckerboard="0"
     inkscape:deskcolor="#d1d1d1"
     inkscape:zoom="1.1666191"
     inkscape:cx="596.59574"
     inkscape:cy="75.860234"
     inkscape:window-width="2558"
     inkscape:window-height="1211"
     inkscape:window-x="260"
     inkscape:window-y="150"
     inkscape:window-maximized="0"
     inkscape:current-layer="Layer_1" />
  <defs
     id="defs1">
    <style
       id="style1">
      .cls-1 {
        clip-path: url(#clippath);
      }

      .cls-2 {
        fill: none;
      }

      .cls-2, .cls-3 {
        stroke-width: 0px;
      }

      .cls-3 {
        fill: #000;
      }
    </style>
    <clipPath
       id="clippath">
      <rect
         class="cls-2"
         width="984"
         height="117.1"
         id="rect1"
         x="0"
         y="0" />
    </clipPath>
  </defs>
  <g
     class="cls-1"
     clip-path="url(#clippath)"
     id="g8"
     style="fill:#ffffff">
    <g
       id="g7"
       style="fill:#ffffff">
      <path
         class="cls-3"
         d="M 16.7,17.9 C 13.7,12.1 8.6,4.4 2.6,1.4 L 0,0.2 h 65 v 0.6 c 0.6,5 1.1,10 1.7,15 1.1,8.9 2.1,17.7 3.1,26.6 0.8,7.1 1.5,14.2 2.4,21.3 6.1,-7.2 12.1,-14.5 18.1,-21.6 7.5,-8.9 15,-17.7 22.4,-26.6 4.2,-5 8.4,-10 12.6,-15 l 0.2,-0.2 h 46 l -0.9,1.1 C 154.4,20.6 138.1,39.8 122,59.1 105.9,78.3 89.7,97.6 73.6,116.8 L 73.4,117 H 32.5 v -0.6 C 31,103.7 29.5,91.1 28.1,78.4 26.8,65.7 25.2,53 23.9,40.3 23.3,32.9 20.1,24.5 16.7,18 v 0 z"
         id="path1"
         style="fill:#ffffff" />
      <path
         class="cls-3"
         d="m 234.2,38.9 c 2.4,-6.6 4.8,-14.2 4.9,-21.3 0,-6.7 -2.1,-12.3 -7.7,-16.3 l -1.6,-1.2 h 124 L 353.5,1 c -3.2,8.9 -6.5,17.7 -9.7,26.6 l -0.2,0.4 h -61.3 c -1.2,3.2 -2.3,6.3 -3.4,9.6 -2.3,6.4 -4.7,12.8 -7.1,19.2 -2.8,7.6 -5.6,15.3 -8.4,22.9 -1.7,4.7 0.3,9.1 5.7,9.1 h 73.3 l -0.3,0.9 c -3.2,8.9 -6.5,17.7 -9.6,26.6 l -0.2,0.4 h -95.5 c -7.3,0 -14.7,-2.7 -18.7,-9.1 -4.1,-6.6 -3.6,-14.7 -1.1,-21.7 3,-8.2 6.1,-16.4 9.1,-24.7 2.7,-7.5 5.5,-15 8.2,-22.5 v 0 z"
         id="path2"
         style="fill:#ffffff" />
      <path
         class="cls-3"
         d="M 224.3,0.2 224,1.1 c -4.7,12.9 -9.3,25.7 -14,38.5 -4.7,12.8 -9.4,25.7 -14,38.5 0,0.2 -0.2,0.4 -0.2,0.7 0,0.1 0,0.3 -0.1,0.4 -1.3,3.5 -2.6,7.1 -3.9,10.6 -3.2,8.9 -6.4,17.8 -9.7,26.6 v 0.3 c -0.3,0 -0.5,0 -0.6,0 h -43.6 l 0.3,-0.9 c 0.1,-0.3 0.2,-0.6 0.3,-0.9 4.5,-12.6 9.1,-25.1 13.7,-37.7 4.7,-12.8 9.4,-25.7 14,-38.5 0.1,-0.3 0.2,-0.6 0.4,-1 0,0 0,0 0,0 1.3,-3.5 2.6,-7.1 3.9,-10.6 3.2,-8.9 6.4,-17.8 9.7,-26.6 V 0.2 c 0.3,0 0.5,0 0.6,0 h 43.6 v 0 z"
         id="path3"
         style="fill:#ffffff" />
      <path
         class="cls-3"
         d="M 647,17.5 C 647,11 645,5.3 639.6,1.3 L 638,0.1 h 117.6 c 6.7,0 13.2,2.2 17.4,7.5 5.4,6.7 5.1,15.6 2.3,23.3 -2.6,7.1 -5.2,14.2 -7.8,21.4 -4.8,13 -17.1,24.2 -30.2,28.5 1.9,5.8 3.7,11.5 5.6,17.3 2,6 4.1,11.9 6.2,17.9 l 0.3,0.9 h -44.7 l -0.2,-0.4 c -2,-5.7 -4,-11.4 -5.9,-17.1 -1.9,-5.5 -3.6,-11.1 -5.5,-16.6 h -22.8 c -2,5.6 -4.1,11.1 -6.1,16.6 -2.1,5.7 -4.1,11.4 -6.1,17.1 l -0.2,0.4 h -44 l 0.3,-0.9 c 4.6,-12.9 9.3,-25.7 14,-38.5 4.7,-12.9 9.4,-25.7 14.1,-38.5 2.4,-6.7 4.4,-14.3 4.5,-21.4 v 0 z m 66.2,37.3 c 5.5,0 11.1,-4.6 13,-9.6 1,-2.7 1.9,-5.4 2.9,-8 1.8,-4.8 -0.4,-9.1 -5.7,-9.1 h -32.9 c -3.3,8.9 -6.5,17.8 -9.7,26.7 z"
         id="path4"
         style="fill:#ffffff" />
      <path
         class="cls-3"
         d="M 483.3,26.6 C 487.1,16.1 494.7,6.8 503.9,0 H 365.2 L 365,0.4 c -3.2,8.9 -6.5,17.7 -9.7,26.6 l -0.3,0.9 h 44.2 c -5.2,14.5 -10.6,29 -15.9,43.5 -5.4,14.8 -10.8,29.6 -16.1,44.4 l -0.3,0.9 H 411 l 0.2,-0.4 c 5.3,-14.8 10.7,-29.6 16.1,-44.4 5.3,-14.7 10.8,-29.3 16.1,-44 h 39.4 c 0.2,-0.5 0.3,-0.9 0.5,-1.4 z"
         id="path5"
         style="fill:#ffffff" />
      <path
         class="cls-3"
         d="m 859.5,73.3 -12.3,41 -1.5,2.6 v 0 c 0,0.1 -43.5,0.1 -43.5,0.1 l 0.3,-0.9 c 2.2,-6 4.4,-12 6.5,-18 2.1,-6 6.2,-18 8.4,-23.9 C 814.5,64.9 800.5,31 797.5,21.1 794.4,10.9 784.6,2.9 774.6,0.4 h 57.3 l 17.7,44 42,-44 h 36.1 l -68.1,72.9 z"
         id="path6"
         style="fill:#ffffff" />
      <path
         class="cls-3"
         d="m 634.2,20.5 c 0,-0.6 -0.2,-1.2 -0.3,-1.9 -0.2,-0.9 -0.4,-1.8 -0.7,-2.6 C 632.4,13.3 631,10.8 629.3,8.6 624.9,3 618,0 609.8,0 h -73.9 c -17.6,0 -36.3,13.6 -42.6,31.1 -0.6,1.6 -2.8,7.8 -2.8,7.8 0,0 -0.4,1.1 -0.5,1.4 -0.7,2.1 -1.5,4.1 -2.2,6.2 l -0.9,2.5 c -0.1,0.3 -0.2,0.5 -0.3,0.7 -0.9,2.3 -1.7,4.7 -2.6,7.1 -2.3,6.4 -4.6,12.7 -6.9,19.1 l -2.4,6.5 c -1.5,4.2 -2.2,8.5 -2,12.4 0,0.6 0,1.1 0.1,1.7 0,0.4 0,0.8 0.2,1.2 0,0.6 0.2,1.1 0.3,1.7 v 0 c 0.1,0.7 0.3,1.2 0.5,1.8 0.1,0.3 0.2,0.6 0.3,0.9 v 0 c 0,0 0.3,0.7 0.3,0.7 l 1.2,3 h 0.3 c 0.5,0.9 1.1,1.8 1.8,2.6 4.5,5.5 11.4,8.6 19.5,8.6 h 73.9 c 17.6,0 36.3,-13.6 42.6,-31.1 l 3.1,-8.5 v 0 c 1.4,-3.9 2.8,-7.8 4.2,-11.6 l 0.3,-0.9 c 0.5,-1.2 0.9,-2.5 1.3,-3.7 l 0.3,-0.9 c 2.4,-6.7 4.8,-13.3 7.2,-19.9 l 2.1,-5.7 c 0.8,-2.3 1.4,-4.6 1.8,-6.8 v -0.4 c 0,0 0,0 0,0 0,-0.4 0,-0.7 0.1,-1.1 0.2,-2 0.2,-3.9 0,-5.8 v 0 z m -48.5,16 c 0,0.2 0,0.4 0,0.6 0,0.6 -0.2,1.1 -0.4,1.7 -1.1,3.1 -2.3,6.2 -3.4,9.3 -2.1,5.9 -4.2,11.8 -6.4,17.6 -0.4,1.2 -0.9,2.4 -1.3,3.7 -1,2.8 -2,5.5 -3,8.3 v 0 c -1.9,5.3 -6.9,8.8 -12.5,8.8 h -31.5 c -3.6,0 -5.6,-2.1 -5.8,-5 0,-0.4 0,-0.8 0,-1.2 0,-0.2 0,-0.4 0,-0.6 0,-0.6 0.2,-1.1 0.4,-1.7 1.1,-3 2.2,-6 3.3,-9 2.2,-6 4.3,-12 6.5,-17.9 0.4,-1.2 0.9,-2.4 1.3,-3.7 1,-2.8 2,-5.5 3,-8.3 1.7,-4.7 7,-8.8 12,-8.8 h 32 c 3.6,0 5.6,2.1 5.8,5 0,0.4 0,0.8 0,1.2 z"
         id="path7"
         style="fill:#ffffff" />
    </g>
  </g>
  <path
     class="cls-3"
     d="m 903.5,107.2 h -6.9 c -0.4,0 -0.8,-0.2 -1.1,-0.5 -0.3,-0.3 -0.4,-0.7 -0.4,-1.1 0,-0.8 0.7,-1.5 1.5,-1.6 0.1,0 13.8,-1.5 19.4,-4.1 0.3,-0.2 0.5,-0.5 0.6,-0.7 l 11.5,-24.6 c 0.3,-0.6 0.9,-1 1.5,-1 h 24.5 l 10.8,-24.399998 h -22.7 c -0.5,0 -1,-0.2 -1.3,-0.7 -0.3,-0.4 -0.3,-1 0,-1.5 L 951.7,23.8 c 0.1,-0.3 0.1,-0.6 0,-1 -0.2,-0.5 -0.6,-0.9 -1.1,-1 -5.3,-1.6 -14.8,-3 -16.8,-3.1 -0.4,0 -0.8,-0.2 -1,-0.5 -0.3,-0.3 -0.4,-0.7 -0.3,-1.1 0,-0.9 0.8,-1.5 1.7,-1.5 h 28.5 c 0.5,0 1,0.3 1.3,0.7 0.3,0.4 0.3,1 0,1.5 l -10.8,23.200002 h 22.5 c 0.4,0 0.8,0.1 1.1,0.4 0.3,0.3 0.4,0.7 0.4,1.1 0,0.2 0,0.4 -0.2,0.6 L 960.3,80.9 c -0.3,0.6 -0.9,1 -1.5,1 h -24.6 l -11.3,24.4 c -0.3,0.6 -0.9,1 -1.5,1 h -17.7 c 0,-0.1 0,-0.2 0,-0.2 z"
     id="path8"
     style="fill:#ffffff" />
  <path
     class="cls-3"
     d="m 962.5,15.9 c 0.5,0 0.9,0.2 1.1,0.6 0.2,0.4 0.3,0.9 0,1.3 l -10.9,23.400002 h 22.8 c 0.8,0 1.3,0.6 1.3,1.3 0,0.2 0,0.4 -0.1,0.6 L 960,80.9 c -0.2,0.5 -0.8,0.9 -1.4,0.9 h -24.8 l -11.4,24.5 c -0.2,0.5 -0.8,0.9 -1.3,0.9 h -17.7 c 0,-0.1 -6.9,-0.1 -6.9,-0.1 -0.8,0 -1.3,-0.6 -1.3,-1.4 0,-0.7 0.6,-1.3 1.4,-1.4 0.4,0 13.9,-1.5 19.4,-4.1 0.4,-0.2 0.6,-0.5 0.7,-0.8 l 11.5,-24.6 c 0.2,-0.5 0.8,-0.9 1.3,-0.9 h 24.7 l 11,-24.799998 h -23 c -0.5,0 -0.9,-0.2 -1.1,-0.6 -0.2,-0.4 -0.3,-0.9 0,-1.3 L 951.9,24 c 0.2,-0.3 0.1,-0.8 0,-1.2 -0.2,-0.6 -0.7,-1 -1.3,-1.1 -5.3,-1.6 -14.8,-3 -16.8,-3.1 -0.7,0 -1.3,-0.7 -1.2,-1.4 0.1,-0.7 0.7,-1.3 1.5,-1.3 h 28.5 m -0.1,-0.4 H 934 c -1,0 -1.8,0.7 -1.9,1.7 0,0.5 0,0.9 0.4,1.3 0.3,0.3 0.7,0.6 1.2,0.6 1.9,0.1 11.4,1.5 16.7,3.1 0.4,0.1 0.8,0.5 1,0.9 0.1,0.3 0.1,0.6 0,0.8 l -10.8,23.200002 c -0.3,0.5 -0.2,1.2 0,1.7 0.3,0.5 0.8,0.8 1.4,0.8 h 22.4 c 0,0 -10.6,23.999998 -10.6,23.999998 h -24.4 c -0.7,0 -1.4,0.4 -1.7,1.1 l -11.5,24.6 c 0,0.2 -0.3,0.4 -0.5,0.6 -5.5,2.6 -19.2,4.1 -19.3,4.1 -0.9,0 -1.7,0.9 -1.7,1.8 0,0.5 0.1,0.9 0.5,1.3 0.3,0.3 0.8,0.5 1.2,0.5 H 921 c 0.7,0.1 1.4,-0.3 1.7,-1 L 934,82.4 h 24.5 c 0.7,0 1.4,-0.5 1.7,-1.1 l 16.7,-37.799998 c 0.1,-0.2 0.2,-0.4 0.2,-0.7 0,-0.5 -0.1,-0.9 -0.4,-1.3 -0.3,-0.3 -0.8,-0.5 -1.2,-0.5 h -22.2 c 0,0 10.7,-22.800002 10.7,-22.800002 0.3,-0.5 0.2,-1.2 0,-1.7 -0.3,-0.5 -0.8,-0.8 -1.4,-0.8 z"
     id="path9"
     style="fill:#ffffff" />
</svg>
