<?xml version="1.0" encoding="UTF-8" standalone="no"?>
<svg
   version="1.1"
   width="1755.7998"
   height="200.5174"
   viewBox="0 0 1755.7998 200.5174"
   xml:space="preserve"
   id="svg2"
   sodipodi:docname="WLNY.svg"
   inkscape:version="1.4 (86a8ad7, 2024-10-11)"
   xmlns:inkscape="http://www.inkscape.org/namespaces/inkscape"
   xmlns:sodipodi="http://sodipodi.sourceforge.net/DTD/sodipodi-0.dtd"
   xmlns="http://www.w3.org/2000/svg"
   xmlns:svg="http://www.w3.org/2000/svg"><sodipodi:namedview
   id="namedview2"
   pagecolor="#ffffff"
   bordercolor="#000000"
   borderopacity="0.25"
   inkscape:showpageshadow="2"
   inkscape:pageopacity="0.0"
   inkscape:pagecheckerboard="0"
   inkscape:deskcolor="#d1d1d1"
   inkscape:zoom="0.93119956"
   inkscape:cx="1051.3321"
   inkscape:cy="19.866848"
   inkscape:window-width="3440"
   inkscape:window-height="1377"
   inkscape:window-x="-8"
   inkscape:window-y="-8"
   inkscape:window-maximized="1"
   inkscape:current-layer="svg2" />
<desc
   id="desc1">Created with Fabric.js 5.3.0</desc>
<defs
   id="defs1">



		
		
</defs>
<g
   transform="matrix(1.722995,0,0,1.722995,718.78734,100.25871)"
   id="VlPTixFwC7Okd1VUKRSmm">
<path
   style="opacity:1;fill:#ffffff;fill-rule:nonzero;stroke:#000000;stroke-width:0;stroke-linecap:butt;stroke-linejoin:miter;stroke-miterlimit:4;stroke-dasharray:none;stroke-dashoffset:0"
   transform="translate(-417.1732,-58.188618)"
   d="M 30.62731,3.28711 71.58672,55.31663 V 3.28711 h 35.42435 v 109.5941 H 76.01476 L 35.43749,60.85169 v 52.02952 H 0 V 3.28711 Z m 170.62439,-0.5 v 29.16544 h -51.79487 v 13.58974 h 38.97436 v 25.38462 h -38.97436 v 12.82051 h 53.58974 v 28.85525 H 114.32862 V 2.78711 Z m 410.38022,56.24892 c -0.31139,32.11744 -27.09075,57.3206 -62.81139,57.34119 -35.72064,0.0206 -61.34342,-27.81044 -61.03203,-58.68233 0.31139,-30.87189 25.8452,-58.201 62.27758,-57.68778 36.43239,0.51322 61.87723,26.91148 61.56584,59.02892 z m -61.9217,-27.71219 c -15.12456,-0.21185 -26.86834,12.6299 -26.86834,26.86478 0,14.23488 11.20997,26.30415 26.86834,26.51601 15.65836,0.21185 26.51245,-12.59692 26.51245,-27.00973 0,-14.41281 -11.38789,-26.1592 -26.51245,-26.37105 z M 242.02359,2.78711 257.14815,64.95373 274.94174,2.78711 h 28.29181 l 17.79359,62.16662 15.48043,-62.16662 h 37.36655 L 337.93106,113.10267 H 307.32608 L 289.17661,53.3879 271.20508,113.10267 H 240.6001 L 204.12323,2.78711 Z m 431.76767,0 c 20.99645,0 41.28114,16.25915 40.5694,39.39082 -0.71174,23.13167 -17.43772,31.6726 -17.43772,31.6726 l 21.88612,39.25214 H 681.62045 L 665.60622,81.85765 h -11.74377 v 31.24502 H 618.4532 V 2.78711 c 0.0302,0 34.35087,0 55.33806,0 z m -19.75087,30.13816 v 18.68327 h 14.59075 c 0,0 10.32028,0.17794 10.49822,-8.8968 0.17794,-9.07473 -8.8968,-9.78648 -8.8968,-9.78648 z M 428.60946,2.78711 446.93686,45.55872 465.62013,2.78711 h 38.43416 l -39.50178,71.06342 v 39.25214 H 429.49913 V 73.85053 L 390.17529,2.78711 Z M 761.56681,3.32059 V 40.92806 L 792.55569,3.32059 h 38.95745 l -36.8325,45.57604 39.66577,64.20843 h -39.66577 l -23.72863,-37.64653 -9.3852,10.97892 v 26.66762 H 725.9713 V 3.3206 Z"
   stroke-linecap="round"
   id="path1" />
</g><g
   transform="matrix(1.722995,0,0,1.722995,1598.3685,102.36069)"
   id="wup5eVR83lpzGtDJSFHpX">
<path
   style="opacity:1;fill:#006aff;fill-rule:nonzero;stroke:#000000;stroke-width:0;stroke-linecap:butt;stroke-linejoin:miter;stroke-miterlimit:4;stroke-dasharray:none;stroke-dashoffset:0"
   d="M -82.65275,-56.58557 H -8.8066 v 29.60225 h -41.79487 l -1.53846,11.06575 c 0,0 8.92308,-3.12821 15.89744,-2.82051 6.97436,0.30769 34.10256,6.10256 34.10256,36.15385 0,30.05128 -28.2906,39.10256 -42.00855,39.18803 -13.71795,0.08547 -16.19658,0.03256 -27.47863,-4.32642 C -82.90916,47.91841 -91.3707,38.95422 -91.3707,38.95422 l 19.24915,-20.54959 c 0,0 7.45428,8.5075 18.99274,8.25109 11.53846,-0.25641 13.27818,-7.46347 12.78375,-11.29124 -0.49444,-3.82777 -4.61538,-8.46154 -11.79487,-8.97436 -7.17949,-0.51282 -10.76923,4.87179 -10.76923,4.87179 L -87.52454,6.39012 Z m 93.51064,-0.0359 h 73.84615 v 29.60225 H 42.90917 l -1.53846,11.06575 c 0,0 8.92308,-3.12821 15.89744,-2.82051 6.97436,0.30769 34.10256,6.10256 34.10256,36.15385 0,30.05128 -28.2906,39.10256 -42.00855,39.18803 C 35.64421,56.65337 33.16558,56.60046 21.88353,52.24148 10.60148,47.88251 2.13994,38.91832 2.13994,38.91832 L 21.38909,18.36873 c 0,0 7.45428,8.5075 18.99274,8.25109 C 51.92029,26.36341 53.66001,19.15635 53.16558,15.32858 52.67114,11.50081 48.5502,6.86704 41.37071,6.35422 34.19122,5.8414 30.60148,11.22601 30.60148,11.22601 L 5.9861,6.35422 Z"
   stroke-linecap="round"
   id="path2" />
</g>
</svg>
