<svg width="150" height="150" viewBox="0 0 150 150" fill="none" xmlns="http://www.w3.org/2000/svg">
<g clip-path="url(#clip0_167_1945)">
<path d="M75.009 150.018C116.435 150.018 150.018 116.435 150.018 75.009C150.018 33.5827 116.435 0 75.009 0C33.5827 0 0 33.5827 0 75.009C0 116.435 33.5827 150.018 75.009 150.018Z" fill="#0C2032"/>
<path d="M75.009 4.00867C35.7891 4.00867 4.00867 35.7891 4.00867 75.009C4.00867 114.229 35.7891 145.991 74.991 145.991C114.193 145.991 145.973 114.211 145.973 75.009C145.973 35.8072 114.211 4.00867 75.009 4.00867ZM75.009 143.481C37.1795 143.481 6.5186 112.821 6.5186 74.991C6.5186 37.1614 37.1795 6.5186 75.009 6.5186C112.839 6.5186 143.499 37.1795 143.499 75.009C143.499 112.839 112.839 143.499 75.009 143.499V143.481Z" fill="#DFDEDE"/>
<path d="M75.009 137.252C77.2628 137.252 79.0899 135.425 79.0899 133.171C79.0899 130.917 77.2628 129.09 75.009 129.09C72.7552 129.09 70.9281 130.917 70.9281 133.171C70.9281 135.425 72.7552 137.252 75.009 137.252Z" fill="#DFDEDE"/>
<path d="M42.8675 107.114C34.6515 98.8985 29.5775 87.5406 29.5775 75.009C29.5775 66.3416 32.0152 58.234 36.2225 51.3362C36.2766 51.2459 36.3308 51.0654 36.3308 50.957C36.3308 50.307 36.4392 49.6569 36.5294 49.061C36.692 47.9957 36.8545 46.9122 37.1253 45.8649C37.1614 45.7566 37.1253 45.7385 37.0531 45.8288C30.6248 54.1531 27.1398 64.3012 27.1398 75.009C27.1398 88.299 32.5749 100.325 41.3507 109.01C41.441 109.083 41.5493 109.083 41.6215 108.992C42.0368 108.433 42.4702 107.891 42.8855 107.421C42.9578 107.331 42.9578 107.205 42.8855 107.114H42.8675Z" fill="#DFDEDE"/>
<path d="M49.4222 34.5251C47.2373 35.9155 45.1427 37.4865 43.2106 39.2199C43.1745 39.238 43.1564 39.2741 43.1203 39.2922C43.0481 39.3644 42.9578 39.4366 42.8855 39.5088C42.2897 40.0686 41.748 40.7006 41.2604 41.441C40.4117 42.7411 39.8339 44.1856 39.4908 45.7024C39.4005 46.1177 39.3283 46.533 39.2741 46.9664C39.238 47.1831 39.22 47.3817 39.2019 47.5984C39.2019 47.6526 39.2561 47.6706 39.2922 47.6345C39.5992 47.147 40.1409 46.6414 40.4659 46.2802C40.9534 45.7746 41.4952 45.3413 42.091 44.9801C43.1564 44.3481 44.3843 44.0231 45.6302 44.0051C47.2192 43.987 48.6999 44.4926 50.1987 44.926C53.1239 45.7385 56.1033 47.0025 59.1911 46.822C60.0217 46.7678 60.8343 46.6233 61.6468 46.4066C64.2109 45.7024 66.6667 44.2579 68.8155 42.8494C69.0322 42.7049 69.2489 42.5605 69.4655 42.398C70.8018 41.4771 72.1019 40.4839 73.2575 39.3644C73.6006 39.0213 73.5284 38.8949 73.0589 39.0394C70.2059 39.9603 67.2445 39.6352 64.4276 38.624C61.8274 37.7031 59.3716 36.6919 56.6089 36.2947C55.4713 36.1322 54.2976 36.0419 53.1058 36.0419C52.3655 36.0599 51.6793 36.1863 51.2821 36.2586C51.2279 36.2586 51.1737 36.2766 51.1196 36.2947C51.0293 36.3127 50.8848 36.3489 50.8307 36.2947C50.7945 36.2586 50.7765 36.2225 50.7765 36.1683C50.7765 36.0961 50.8126 36.0238 50.8668 35.9697C51.1376 35.7349 52.7628 35.1029 53.774 34.7237C54.2254 34.5612 54.6768 34.3626 55.1102 34.1459C61.1232 31.2026 67.8765 29.5594 75.0091 29.5594C100.09 29.5594 120.441 49.8917 120.441 74.991C120.441 100.09 100.108 120.423 75.0091 120.423C64.7165 120.423 55.2366 116.992 47.6165 111.231C47.5262 111.159 47.5443 111.087 47.6526 111.069C50.7223 110.437 53.9004 110.094 57.1506 110.094C65.0416 110.094 72.4811 112.062 78.9816 115.547C79.3428 115.746 79.7761 115.764 80.1553 115.601C80.2817 115.547 80.4262 115.475 80.5526 115.403C82.4847 114.391 84.489 113.471 86.4934 112.568C86.6017 112.514 86.692 112.477 86.692 112.477C86.692 112.477 86.7823 112.441 86.8906 112.405C87.7754 112.008 88.6602 111.629 89.5269 111.231C89.6353 111.177 89.7075 111.141 89.7075 111.141C89.7075 111.141 89.7797 111.105 89.8881 111.051C93.0661 109.624 96.208 108.162 99.1513 106.338C99.2416 106.284 99.3319 106.23 99.3319 106.23C99.3319 106.23 99.4222 106.176 99.5125 106.121C100 105.814 100.47 105.507 100.957 105.182C102.709 103.973 104.37 102.6 105.887 101.083C114.193 92.7591 113.543 78.2774 104.261 71.0545C102.149 69.4113 99.7472 68.1473 97.454 66.7389C96.84 66.3597 96.19 66.0527 95.6122 65.7458C95.5038 65.6916 95.4858 65.5471 95.576 65.4568C98.0499 62.8025 100.596 60.437 102.654 57.7104C106.302 52.8891 106.501 49.8555 103.25 45.5038C99.6389 40.6826 94.8177 37.5045 88.913 36.0238C86.5656 35.4279 84.5793 36.0599 82.5027 37.2156C78.6205 39.3824 72.463 45.3593 70.1878 48.5735C67.5876 52.221 66.2333 56.4283 66.3417 61.3759C66.5042 67.9126 66.3958 90.809 66.3958 102.582C66.3958 102.763 66.2333 102.907 66.0528 102.889C64.861 102.781 60.6537 102.672 55.8686 103.81C53.6837 104.334 50.3431 105.58 47.1651 107.584C46.9845 107.692 46.7859 107.819 46.6053 107.927C46.0275 108.288 45.4496 108.685 44.8718 109.101C44.2218 109.57 43.5717 110.094 42.9397 110.636C42.3619 111.141 41.8021 111.683 41.2785 112.261C41.1882 112.369 41.0798 112.459 40.9896 112.568C40.484 113.146 40.0145 113.741 39.5811 114.373C39.5269 114.446 39.5811 114.518 39.6353 114.554C39.6533 114.554 39.6894 114.554 39.7256 114.554C40.484 114.211 41.2424 113.85 42.0008 113.453C42.1452 113.38 42.2716 113.308 42.4161 113.254C43.1022 112.911 43.8065 112.55 44.5107 112.225C44.619 112.17 44.7635 112.189 44.8538 112.261C53.0878 118.924 63.5428 122.914 74.9368 122.914C101.336 122.914 122.806 101.445 122.806 75.0451C122.806 48.6457 101.336 27.1759 74.9368 27.1759C65.8361 27.1759 57.0062 29.74 49.35 34.5793L49.4222 34.5251ZM85.6086 45.1607C89.7797 46.1177 94.6371 48.3929 95.9733 52.853C96.822 55.706 96.5872 58.4146 94.8718 60.9606C93.6981 62.6941 91.2965 64.8429 88.5699 66.757C86.6739 68.0932 79.108 72.0477 75.3883 73.2936C75.2799 73.3297 75.1896 73.2575 75.1896 73.1491C75.2438 63.2539 75.2799 54.0809 75.2619 49.5666C75.2438 44.0412 81.961 44.312 85.6086 45.1426V45.1607ZM74.8285 101.986C74.9549 101.932 75.0813 101.86 75.0993 101.842C75.0993 101.842 75.0993 101.806 75.0993 101.788C75.0993 95.7385 75.1355 84.0556 75.1716 76.598C75.1716 76.3272 76.3092 75.8758 77.5912 75.4424C81.9249 73.9617 84.814 73.5464 86.71 73.8173C88.3352 74.0339 89.8881 74.5937 91.3507 75.2799C98.5735 78.6566 102.311 89.5811 99.35 96.8761C98.4652 99.0791 96.6775 101.047 94.5107 102.564C94.3662 102.672 94.2218 102.763 94.0593 102.871C93.969 102.925 93.8787 102.979 93.8787 102.979C93.8787 102.979 93.7884 103.034 93.6981 103.088C91.5313 104.442 89.0394 105.345 86.6739 105.616C86.6378 105.616 86.6017 105.616 86.5656 105.616C86.4031 105.616 86.2405 105.652 86.078 105.652C85.9877 105.652 85.9155 105.652 85.8433 105.652C85.735 105.652 85.6085 105.652 85.5002 105.652C85.3377 105.652 85.1752 105.652 84.9946 105.652C84.9585 105.652 84.9404 105.652 84.9043 105.652C84.7057 105.652 84.489 105.634 84.2904 105.616C84.1459 105.616 83.9834 105.58 83.839 105.562C83.7306 105.562 83.6223 105.544 83.5139 105.525C80.1553 105.092 76.7064 104.099 73.4562 103.286C73.4562 103.286 73.1311 103.214 72.8964 103.16C72.77 103.124 72.6075 103.106 72.6075 103.07C72.6075 103.07 72.6075 103.034 72.6436 103.016C72.6797 102.997 74.2326 102.257 74.8104 101.986H74.8285Z" fill="#DFDEDE"/>
<path d="M56.5548 50.3792C56.5548 50.3792 56.3742 50.5237 56.3381 50.5417C56.3381 50.5417 56.302 50.5598 56.2839 50.5778L49.7653 55.8324C49.3319 56.1755 49.0791 56.6992 49.0791 57.2589V66.7028C49.0791 66.8111 49.043 66.9917 49.025 67.1C47.5804 71.6685 45.54 75.9841 42.9397 79.8303C42.8675 79.9386 42.7953 80.1372 42.7953 80.2817V82.7736C42.7953 82.918 42.8495 82.9903 42.9217 82.918C42.9578 82.8819 42.9939 82.8458 43.03 82.8097C45.4316 79.5594 47.4179 75.948 49.0069 72.1199C49.043 72.0116 49.0791 72.0296 49.0791 72.1199V87.0531C49.0791 87.1795 48.9889 87.3601 48.8805 87.4323L48.6638 87.5767C48.5555 87.649 48.5013 87.7754 48.5013 87.9198C48.5555 89.238 48.4291 98.0318 48.5013 101.752C48.5013 101.824 48.5013 101.896 48.4652 101.968C48.411 102.077 47.6165 103.774 47.6165 103.774C47.5624 103.9 47.6887 104.009 47.7971 103.955C49.1514 103.196 50.5598 102.456 52.0224 101.788C52.2572 101.679 52.4919 101.589 52.7267 101.499C53.4128 101.264 54.099 101.047 54.7852 100.867C55.6339 100.632 56.5006 100.451 57.3673 100.307C57.4576 100.307 57.5118 100.217 57.5118 100.144C57.584 96.6414 57.6562 89.5811 57.7104 88.2449C57.7104 88.1004 57.6562 87.9921 57.5479 87.9018L55.995 86.8364C55.8867 86.7642 55.9047 86.692 56.0311 86.692H63.4706C63.6151 86.6739 63.7234 86.5656 63.7234 86.4211V81.8346C63.7234 81.6901 63.6151 81.5818 63.4706 81.5818H57.9813C57.8368 81.5818 57.7285 81.4735 57.7285 81.329V75.0993C57.7285 74.9729 57.6743 74.8646 57.566 74.7923L55.995 73.6367C55.8867 73.5645 55.9047 73.4922 56.0492 73.4922H63.4706C63.6151 73.4922 63.7234 73.3839 63.7234 73.2394V68.653C63.7234 68.5085 63.6151 68.4002 63.4706 68.4002H57.9813C57.8368 68.4002 57.7285 68.2918 57.7285 68.1474V62.4233C57.7285 62.2969 57.6743 62.1885 57.584 62.1163L55.9769 60.8342C55.8686 60.744 55.8867 60.6898 56.0311 60.6898H63.4706C63.6151 60.6898 63.7234 60.5814 63.7234 60.437V55.8505C63.7234 55.706 63.6151 55.5977 63.4706 55.5977C62.5136 55.5977 58.9744 55.5977 57.9813 55.5977C57.8368 55.5977 57.7285 55.4894 57.7285 55.3449V50.1986C57.7285 49.8555 57.3493 49.6569 57.0965 49.8736L56.5548 50.307V50.3792Z" fill="#DFDEDE"/>
<path d="M105.959 30.6067L111.123 24.2326C111.123 24.2326 111.322 24.1242 111.412 24.1965L112.351 24.9549C112.351 24.9549 112.459 25.1535 112.387 25.2438L108.072 30.5706C108.072 30.5706 108.017 30.7873 108.108 30.8595L113.037 34.8501C113.037 34.8501 113.146 35.0488 113.073 35.139L112.496 35.8613C112.496 35.8613 112.297 35.9697 112.207 35.8974L106.031 30.8956C106.031 30.8956 105.923 30.697 105.995 30.6067H105.959Z" fill="#DFDEDE"/>
<path d="M51.8058 123.799C51.9141 123.853 51.9322 123.98 51.878 124.088L47.7971 131.221C47.7429 131.329 47.6165 131.347 47.5082 131.293L43.1926 128.837C41.3327 127.772 40.791 126.418 41.441 125.262L41.4952 125.153C41.9105 124.413 42.7592 123.998 43.8426 124.287C43.951 124.323 43.969 124.287 43.8787 124.215C42.9578 123.366 42.9398 122.355 43.2648 121.777L43.319 121.668C44.0051 120.459 45.558 120.26 47.4179 121.325L51.7516 123.799H51.8058ZM43.7885 127.609L46.7859 129.325C46.8943 129.379 47.0207 129.343 47.0748 129.252L48.068 127.519C48.1221 127.411 48.086 127.284 47.9957 127.23L45.0705 125.551C44.0412 124.955 43.3009 125.19 42.9939 125.731V125.767C42.6509 126.327 42.7592 127.013 43.8065 127.609H43.7885ZM45.6122 124.558L48.5375 126.237C48.6458 126.291 48.7722 126.255 48.8264 126.165L49.8376 124.413C49.8917 124.305 49.8556 124.178 49.7653 124.124L46.7679 122.409C45.7386 121.813 45.0705 122.084 44.7455 122.644V122.68C44.4024 123.239 44.5649 123.962 45.6122 124.558Z" fill="#DFDEDE"/>
<path d="M31.6722 107.421L30.9499 109.281C30.9138 109.39 30.9499 109.552 31.0041 109.642L34.0196 113.182C34.0196 113.182 34.2543 113.326 34.3627 113.29L36.2948 112.839C36.4031 112.82 36.5656 112.857 36.6379 112.947L37.4865 113.922C37.4865 113.922 37.5227 114.103 37.4143 114.121L28.2413 116.107C28.133 116.125 27.9705 116.089 27.8982 115.999L27.2843 115.294C27.2843 115.294 27.176 115.042 27.2301 114.933L30.5526 106.103C30.5887 105.995 30.679 105.977 30.7693 106.067L31.6361 107.078C31.6361 107.078 31.7444 107.331 31.6902 107.439L31.6722 107.421ZM29.09 114.518L32.6653 113.687C32.7737 113.669 32.8098 113.561 32.7375 113.489L30.5165 110.906C30.5165 110.906 30.354 110.834 30.2998 110.943L28.9636 114.391C28.9275 114.5 28.9636 114.572 29.09 114.536V114.518Z" fill="#DFDEDE"/>
<path d="M21.7588 95.5941L24.5757 94.4565C24.684 94.4204 24.8104 94.4565 24.8466 94.5648L25.298 95.6844C25.3341 95.7927 25.298 95.9191 25.1896 95.9552L22.3547 97.0928C22.2463 97.1289 22.1199 97.2553 22.0658 97.3637L19.1044 102.961C19.0502 103.07 18.978 103.052 18.9238 102.961L18.3641 101.571C18.328 101.463 18.328 101.3 18.3821 101.192L20.6573 96.9664C20.7115 96.8581 20.6573 96.7497 20.549 96.7317L16.0708 95.4496C15.9625 95.4135 15.8361 95.3052 15.8 95.1968L15.2402 93.8064C15.2041 93.6981 15.2402 93.6439 15.3666 93.68L21.3977 95.6121C21.506 95.6482 21.6866 95.6482 21.7949 95.6121L21.7588 95.5941Z" fill="#DFDEDE"/>
<path d="M14.7346 66.1069L16.757 66.4681C16.8653 66.4861 16.9737 66.4139 16.9917 66.3055L17.714 62.2608C17.7321 62.1524 17.8404 62.0802 17.9488 62.0982L18.7974 62.2608C18.9058 62.2788 18.978 62.3872 18.96 62.4955L18.2377 66.5403C18.2196 66.6486 18.2918 66.757 18.4002 66.775L21.4518 67.3348C21.5602 67.3529 21.6324 67.4612 21.6144 67.5695L21.3977 68.7432C21.3796 68.8516 21.2713 68.9238 21.1629 68.9058L13.0734 67.4431C12.965 67.4251 12.8928 67.3167 12.9108 67.2084L14.211 60.0578C14.229 59.9495 14.3374 59.8772 14.4457 59.8953L15.3666 60.0578C15.4749 60.0759 15.5472 60.1842 15.5291 60.2925L14.5179 65.8722C14.4999 65.9805 14.5721 66.0889 14.6804 66.1069H14.7346Z" fill="#DFDEDE"/>
<path d="M28.3857 48.6638C26.8689 51.3182 23.9798 51.9502 21.9755 50.8126L21.7227 50.6681C19.7003 49.5125 18.7974 46.7136 20.3142 44.0592C21.831 41.3868 24.7021 40.7367 26.7245 41.8924L26.9773 42.0368C28.9635 43.1744 29.9025 45.9913 28.3857 48.6638ZM25.948 43.3369C24.5034 42.5063 22.5894 42.8314 21.506 44.7454C20.4225 46.6594 21.1087 48.4471 22.5713 49.2777L22.7519 49.3861C24.1965 50.2167 26.1105 49.9097 27.212 47.9957C28.3135 46.0816 27.5912 44.2759 26.1286 43.4453L25.948 43.3369Z" fill="#DFDEDE"/>
<path d="M40.5743 33.9834C38.2269 35.9516 35.3016 35.5363 33.821 33.7847L33.6404 33.5681C32.1417 31.7804 32.2681 28.8552 34.5974 26.887C36.9448 24.9187 39.852 25.2979 41.3688 27.0675L41.5494 27.2842C43.0301 29.0357 42.9217 31.9971 40.5743 33.9834ZM40.1409 28.1329C39.0575 26.8508 37.1796 26.4897 35.4822 27.9162C33.8029 29.3427 33.839 31.2568 34.9044 32.5388L35.0308 32.7013C36.1142 33.9834 38.0102 34.3626 39.6895 32.9541C41.3688 31.5276 41.3327 29.5955 40.2493 28.3135L40.1229 28.1509L40.1409 28.1329Z" fill="#DFDEDE"/>
<path d="M54.7671 17.5695L57.1506 24.0159C57.1868 24.1242 57.1506 24.2506 57.0242 24.2867L55.8867 24.7021C55.7783 24.7382 55.6519 24.7021 55.6158 24.5757L53.2323 18.1293C53.1962 18.0209 53.0698 17.9668 52.9614 18.0029L49.8195 19.1585C49.7111 19.1947 49.5847 19.1585 49.5486 19.0321L49.2236 18.1654C49.1875 18.0571 49.2236 17.9307 49.35 17.8945L57.5479 14.861C57.6562 14.8248 57.7826 14.861 57.8188 14.9874L58.1438 15.8541C58.1799 15.9624 58.1438 16.0888 58.0174 16.125L54.8755 17.2806C54.7671 17.3167 54.7129 17.4431 54.7491 17.5515L54.7671 17.5695Z" fill="#DFDEDE"/>
<path d="M70.6031 21.1629C70.4948 21.1629 70.3864 21.0726 70.3864 20.9642L70.3142 12.7483C70.3142 12.6399 70.4045 12.5316 70.5128 12.5316L75.4785 12.4955C77.6273 12.4774 78.783 13.3803 78.783 14.7165V14.8248C78.783 15.6735 78.2774 16.45 77.194 16.7569C77.0856 16.7931 77.0856 16.8292 77.194 16.8472C78.4218 17.1181 78.9455 17.9668 78.9455 18.6529V18.7613C78.9455 20.1697 77.7176 21.1087 75.5688 21.1267L70.567 21.1809L70.6031 21.1629ZM75.6049 13.8498L72.156 13.8859C72.0477 13.8859 71.9574 13.9762 71.9574 14.1026V16.1069C71.9755 16.2152 72.0657 16.3055 72.1921 16.3055L75.5688 16.2694C76.7606 16.2694 77.2662 15.6916 77.2662 15.0596V15.0235C77.2662 14.3734 76.8148 13.8317 75.623 13.8498H75.6049ZM75.5688 17.3889L72.1921 17.4251C72.0838 17.4251 71.9935 17.5153 71.9935 17.6417V19.6641C72.0116 19.7725 72.1019 19.8628 72.2283 19.8628L75.6772 19.8266C76.8689 19.8266 77.3023 19.2488 77.3023 18.5988V18.5626C77.3023 17.9126 76.7967 17.3709 75.5869 17.3889H75.5688Z" fill="#DFDEDE"/>
<path d="M118.779 43.1744L125.731 38.7865C125.822 38.7324 125.966 38.7504 126.02 38.8588L126.67 39.87C126.725 39.9602 126.706 40.1047 126.598 40.1589L120.784 43.8245C120.693 43.8786 120.657 44.0231 120.712 44.1134L124.088 49.4763C124.142 49.5666 124.124 49.7111 124.016 49.7652L123.221 50.2528C123.131 50.3069 122.987 50.2889 122.933 50.1805L118.689 43.4453C118.635 43.355 118.653 43.2105 118.761 43.1563L118.779 43.1744Z" fill="#DFDEDE"/>
<path d="M135.139 79.4691C135.807 78.7107 136.403 77.6273 136.421 76.1827C136.439 73.8714 134.886 72.5713 133.225 72.5532H133.063C131.437 72.5352 129.885 73.8172 129.866 76.2369C129.866 77.5731 130.444 78.7107 131.076 79.4691C131.149 79.5594 131.149 79.6858 131.076 79.7761L130.354 80.4622C130.354 80.4622 130.137 80.5345 130.065 80.4622C129.198 79.4872 128.512 77.9523 128.53 76.1466C128.566 72.8783 130.715 70.9281 133.045 70.9462H133.333C135.663 70.9823 137.848 73.1672 137.812 76.3272C137.794 78.0607 137.089 79.6316 136.186 80.5525C136.114 80.6428 135.97 80.6248 135.898 80.5525L135.175 79.8302C135.175 79.8302 135.085 79.6136 135.175 79.5233L135.139 79.4691Z" fill="#DFDEDE"/>
<path d="M127.049 90.1047L134.76 92.9397C134.868 92.9758 134.922 93.1022 134.886 93.2105L134.471 94.3481C134.435 94.4565 134.308 94.5106 134.2 94.4745L127.754 92.091C127.645 92.0549 127.519 92.091 127.483 92.2174L125.298 98.1582C125.262 98.2665 125.135 98.3207 125.027 98.2846L124.16 97.9595C124.052 97.9234 123.998 97.797 124.034 97.6887L126.779 90.2311C126.815 90.1228 126.941 90.0686 127.049 90.1047Z" fill="#DFDEDE"/>
<path d="M121.994 108.342L125.695 111.448C125.695 111.448 125.804 111.647 125.713 111.737L124.955 112.64C124.955 112.64 124.756 112.748 124.666 112.658L120.946 109.534C119.718 108.505 118.328 108.703 117.046 110.238C115.728 111.809 115.908 113.055 117.136 114.084L120.856 117.208C120.856 117.208 120.964 117.407 120.874 117.497L120.098 118.418C120.098 118.418 119.899 118.526 119.809 118.436L116.107 115.33C114.464 113.958 113.976 111.755 116.071 109.263C118.057 106.898 120.278 106.88 121.994 108.324V108.342Z" fill="#DFDEDE"/>
<path d="M105.327 119.628C105.417 119.574 105.562 119.61 105.616 119.7L109.823 126.761C109.877 126.851 109.841 126.995 109.751 127.049L105.489 129.595C103.648 130.697 102.203 130.498 101.517 129.361L101.463 129.252C101.029 128.512 101.083 127.591 101.842 126.779C101.914 126.688 101.896 126.67 101.788 126.706C100.596 127.104 99.7111 126.616 99.368 126.038L99.3138 125.93C98.5916 124.72 99.1874 123.294 101.029 122.192L105.327 119.628ZM102.961 125.388L105.85 123.655C105.941 123.601 105.977 123.474 105.923 123.366L104.893 121.632C104.839 121.542 104.713 121.506 104.605 121.56L101.643 123.33C100.614 123.944 100.524 124.648 100.867 125.208V125.244C101.228 125.804 101.914 126.02 102.961 125.388ZM104.713 128.476L107.674 126.706C107.765 126.652 107.801 126.526 107.746 126.417L106.717 124.702C106.663 124.612 106.537 124.576 106.428 124.63L103.539 126.363C102.51 126.977 102.347 127.718 102.691 128.259V128.295C103.052 128.855 103.702 129.09 104.731 128.476H104.713Z" fill="#DFDEDE"/>
<path d="M96.3344 16.5042C96.3163 16.3958 96.208 16.2694 96.0997 16.2333L95.2149 15.9263C95.1065 15.8902 94.944 15.9263 94.8718 15.9986L87.9018 22.3005C87.9018 22.3005 87.8295 22.463 87.9379 22.5172L89.1658 22.9505C89.2741 22.9866 89.4366 22.9505 89.5088 22.8783L90.9534 21.506C90.9534 21.506 91.1881 21.3976 91.2965 21.4337L95.6844 22.9866C95.7927 23.0228 95.901 23.1492 95.9191 23.2575L96.2261 25.2438C96.2261 25.3521 96.3525 25.4785 96.4608 25.5146L97.7067 25.948C97.8151 25.9841 97.8873 25.9299 97.8693 25.8035L96.3344 16.5042ZM95.4857 21.6504L92.2716 20.5128C92.1632 20.4767 92.1452 20.3864 92.2355 20.2961L94.9079 17.7862C94.9079 17.7862 95.0704 17.732 95.0885 17.8584L95.6482 21.524C95.6482 21.6324 95.5941 21.7046 95.4857 21.6685V21.6504Z" fill="#DFDEDE"/>
</g>
<defs>
<clipPath id="clip0_167_1945">
<rect width="150" height="150" fill="white"/>
</clipPath>
</defs>
</svg>
