<?xml version="1.0" encoding="UTF-8"?>
<svg id="Layer_2" data-name="Layer 2" xmlns="http://www.w3.org/2000/svg" version="1.1" viewBox="0 0 625 625">
  <defs>
    <style>
      .cls-1 {
        fill: #000;
      }

      .cls-1, .cls-2 {
        stroke-width: 0px;
      }

      .cls-2 {
        fill: #36e882;
      }
    </style>
  </defs>
  <g id="Layer_1-2" data-name="Layer 1-2">
    <g>
      <path class="cls-1" d="M209.4,301.8c-7.4,2-15.5,2.2-28.2,2.2s-16-.3-21.3-.3c-9.4,0-14,.3-14,.3l1.3-2.1c2.9-4.6,3.6-5.6,3.6-42.8s-.6-36.6-3.6-41.6l-1.3-2.1s4.9.3,12.5.3,15.3-.3,19.7-.3c23.5,0,45.8.9,45.8,21.2s-14.9,20.4-24.2,21.4c13.8.4,27.5,5.6,27.5,21.5s-9.4,20.2-17.8,22.3h0s0,0,0,0ZM180.4,226.6c-3.7,0-5.7.3-5.7.3v26.2s1.7.3,6.2.3,6.2-.4,8.7-1c5.5-1.4,9.4-5.4,9.4-12.7,0-10.9-7.6-13.1-18.6-13.1ZM182,264.4c-4.1,0-7.3.3-7.3.3v27.7s1.4.3,7.6.3,8.6-.4,11.3-1.5c4.5-1.5,8.2-4.8,8.2-12.9s-8-13.8-19.8-13.8h0,0Z"/>
      <path class="cls-1" d="M144.3,304.9l2.1-3.4c2.7-4.4,3.4-5.5,3.4-42.4s-.6-36.4-3.3-41l-2.2-3.6h1.6c0,0,4.9.4,12.4.4s6.3,0,10.1-.1c3.7,0,7.4-.1,9.6-.1,20.8,0,46.7,0,46.7,22.1s-10.9,19-18.8,21c14.1,2,22.1,9.8,22.1,21.8s-12.9,21.7-18.4,23.1c-7.9,2.1-16.8,2.3-28.4,2.3s-6.5,0-10.5-.1c-4.1,0-8.1-.1-10.8-.1-9.3,0-13.9.3-14,.3h-1.6c0,0,0,0,0,0h0ZM159.9,302.9c2.7,0,6.8,0,10.8.1,4,0,8,.1,10.5.1,13.6,0,20.9-.3,28-2.2,5.2-1.3,17.1-6,17.1-21.6s-16.7-20.4-26.6-20.7v-1.7c7-.8,23.4-4.3,23.4-20.5s-19.5-20.4-45-20.4-5.9,0-9.6.1c-3.8,0-7.8.1-10.2.1-5,0-8.9,0-10.9-.2l.6,1c3,5,3.6,5.9,3.6,41.8s-.7,38.5-3.7,43.2l-.5.9c2.1,0,6.3-.2,12.5-.2h0ZM182.2,293.4c-6.2,0-7.7-.3-7.7-.3h-.7v-29.2h.8c0,0,3.2-.3,7.4-.3,10.2,0,20.6,1.8,20.6,14.6s-2.8,11.7-8.7,13.7c-2.5,1.1-6.2,1.5-11.6,1.5h0ZM175.5,291.6c.9,0,2.9.2,6.7.2s8.6-.4,11-1.4c5.2-1.8,7.6-5.6,7.6-12.2s-5.5-13-18.9-13-5.3.1-6.4.2v26.2h0s0,0,0,0ZM180.8,254.1c-4.5,0-6.2-.3-6.3-.3h-.7v-27.8h.8c0,0,2.1-.4,5.8-.4,10.1,0,19.5,1.7,19.5,13.9s-3.6,11.8-10.1,13.5c-2.6.6-6,1-9,1h0,0ZM175.5,252.3c.9,0,2.6.2,5.3.2s6-.4,8.5-1c5.7-1.4,8.8-5.6,8.8-11.9,0-10.1-6.8-12.2-17.8-12.2s-4,0-4.9.2v24.7h0s0,0,0,0Z"/>
      <path class="cls-1" d="M291.5,305.5c-31.9,0-48.1-16.1-48.1-44.3s12.9-46.8,47.8-46.8,48.1,16.1,48.1,44.3-12.9,46.8-47.8,46.8ZM291.5,227.2c-14.5,0-21.1,10.2-21.1,33s6.5,32.5,20.8,32.5,21.1-10.2,21.1-33-6.5-32.5-20.8-32.5Z"/>
      <path class="cls-1" d="M291.5,306.3c-31.6,0-49-16-49-45.1s18.2-47.6,48.7-47.6,49,16,49,45.1-18.2,47.6-48.7,47.6h0,0ZM291.2,215.2c-29.4,0-47,17.2-47,46s16.3,43.5,47.2,43.5,47-17.2,47-46-16.3-43.5-47.2-43.5h0ZM291.2,293.6c-15,0-21.6-10.3-21.6-33.4s7-33.9,21.9-33.9,21.6,10.3,21.6,33.4-7,33.9-21.9,33.9h0ZM291.5,228c-14,0-20.2,9.9-20.2,32.2s6,31.7,19.9,31.7,20.2-9.9,20.2-32.2-6-31.7-19.9-31.7Z"/>
      <path class="cls-1" d="M383.9,304.8c-18.5,0-27.5-3.7-27.5-3.7,0,0,.3-2.9.3-9.7s-.3-12-.3-12c5,6.3,11.9,12.4,25.8,12.4s17.3-1.9,17.3-9.8-4.6-8.4-11.4-11.7l-11.7-5.7c-11.2-5.4-20.1-12-20.1-24.8s12.8-25.1,36.7-25.1,25.9,3.6,25.9,3.6c0,0-.3,3-.3,10.1s.3,11.4.3,11.4c-5.7-7.2-12.9-12.2-24.2-12.2s-15.3,2.2-15.3,8.7,4.9,7.8,12.6,11.5l10.2,4.8c12.5,5.8,20.6,12.3,20.6,25.9,0,20.5-17,26.2-38.8,26.2h0s0,0,0,0Z"/>
      <path class="cls-1" d="M383.9,305.6c-18.4,0-27.4-3.6-27.9-3.8l-.6-.3v-.6c0,0,.3-2.9.3-9.6s-.3-11.9-.3-12l-.2-2.7,1.8,2.2c4.7,6,11.4,12.1,25.1,12.1s16.5-2.8,16.5-9-3.7-7.5-11-10.9l-11.7-5.7c-10.1-4.8-20.5-11.7-20.5-25.6s13-25.9,37.5-25.9,25.9,3.5,26.3,3.7l.6.2v.6c0,0-.4,3.1-.4,10s.3,11.3.3,11.4l.2,2.8-1.8-2.2c-6.5-8.2-13.8-11.8-23.5-11.8s-14.5,4.5-14.5,7.9c0,5,3.8,6.8,10.8,10.2l11.4,5.4c12.7,5.9,21.1,12.7,21.1,26.7s-13,27-39.7,27h0s0,0,0,0ZM357.3,300.5c2.2.8,11.1,3.4,26.6,3.4,25.9,0,37.9-8.1,37.9-25.4s-7.7-19.4-20.1-25.2l-11.4-5.4c-7.1-3.4-11.8-5.7-11.8-11.7s5.3-9.5,16.2-9.5,16.8,3.2,23.2,10.5c0-1.9-.2-5-.2-8.9s.2-8.3.2-9.5c-2.2-.8-10.7-3.3-25-3.3-23.7,0-35.8,8.1-35.8,24.2s9.4,19.2,19.6,24.1l11.7,5.7c6.7,3.1,11.9,5.6,11.9,12.4s-10.4,10.6-18.2,10.6c-12.9,0-19.9-5.1-24.8-10.7,0,2.1.2,5.4.2,9.5s-.2,8-.2,9.1h0s0,0,0,0Z"/>
      <path class="cls-2" d="M489.7,258.6c-.2,0-.8,0-1.5-.2-9.3-1-17-7.9-18-16.7v-.2l-2.3-32.4-2.3,32.4v.2c-1,8.9-8.7,15.7-18,16.7-.7,0-1.2.1-1.5.2l-7.5.8,7.5.8c.2,0,.8,0,1.5.2,9.3,1,17,7.9,18,16.7v.2l2.3,32.4,2.3-32.4v-.2c1-8.9,8.7-15.7,18-16.7.7,0,1.2-.1,1.5-.2l7.5-.8-7.5-.8Z"/>
      <path class="cls-1" d="M42.8,268v-19.1h13.1v2.8h-9.4v5.3h8.9v2.8h-8.9v8.3s-3.7,0-3.7,0Z"/>
      <path class="cls-1" d="M564.3,258.9c0-6,3.4-10,9.5-10s7.9,2.7,8.4,6.8l-3.8.5c-.3-2.7-2-4.5-4.8-4.5s-5.5,2.8-5.5,7.1,2,7.2,5.6,7.2,4.3-1.7,4.8-4.4l3.7.7c-.8,3.8-3.6,6.5-8.6,6.5s-9.4-4.3-9.4-10h0Z"/>
      <path class="cls-1" d="M131,328c-2.3,4.3-3.2,5.6-3.2,42.8v43.7s-3.8-.3-13.2-.3-18.2.3-18.2.3l-26.5-55.3c-2.2-4.6-3.6-9.3-3.8-9.8v21.5c0,36.1.5,36.6,3.2,41.6l1.2,2.1s-4.2-.3-13.7-.3-14.1.3-14.1.3l1.2-2.1c2.3-4.3,3.3-5.6,3.3-42.8s-.5-36.6-3.3-41.6l-1.2-2.1s5.6.3,18.8.3,17.1-.3,17.1-.3l26.3,55.1c2.6,5.4,3.8,10.1,3.8,10.1v-21.5c0-36.1-.5-36.6-3.2-41.6l-1.2-2.1s4.2.3,13.7.3,14.1-.3,14.1-.3l-1.2,2.1h0Z"/>
      <path class="cls-1" d="M221.3,414.2c-10.4,0-19.2.3-19.2.3,1.7-1.1,4.2-3.2,4.2-7.8s-1.4-9.2-3.1-15.9l-1-4.1h-25.7l-1,4.1c-1.7,6.7-3.3,12.2-3.3,15.9s2.5,6.7,4.2,7.8c0,0-6.7-.3-16-.3s-15.3.3-15.3.3c4.8-4.5,7.2-12,12.1-29.4l14.7-51.7c.4-1.5.8-3,.8-4.6s-.6-2.3-.9-2.6h43.9s-.8.9-.8,2.6.3,3.1.7,4.6l13.6,51.7c4.6,17.5,6.8,24.9,11.6,29.4,0,0-7.7-.3-19.3-.3ZM191,342.1c-1.3-5.4-1.7-8.2-1.9-9-.1.6-.4,3.2-1.9,9l-7.4,30.3h18.6l-7.6-30.3h0Z"/>
      <path class="cls-1" d="M317.4,346.7s-.9-1.4-4.6-3.5c-3.1-1.8-8-3.1-14.1-3.1h-6.5v30.6c0,36.1.5,36.6,3.3,41.6l1.2,2.1s-5.4-.3-17.8-.3-17.9.3-17.9.3l1.2-2.1c2.6-4.7,3.2-5.6,3.2-42.8v-29.4h-6.5c-6.1,0-10.9,1.4-14.1,3.1-3.4,2-4.5,3.2-4.6,3.5,0-.1.3-3.8.3-10.9s-.1-9.8-.1-9.8h76.9s-.1,3-.1,9.8.3,10.7.3,10.9h0s0,0,0,0Z"/>
      <path class="cls-1" d="M350.7,414.2c-12.5,0-17.9.3-17.9.3l1.2-2.1c2.6-4.7,3.3-5.6,3.3-42.8s-.5-36.6-3.3-41.6l-1.2-2.1s5,.3,17.8.3,17.9-.3,17.9-.3l-1.2,2.1c-2.6,4.7-3.2,5.6-3.2,42.8s.5,36.6,3.2,41.6l1.2,2.1s-5.4-.3-17.8-.3Z"/>
      <path class="cls-1" d="M431.5,415.9c-30,0-44.8-15.5-44.8-44.5s15.5-46.5,44.5-46.5,44.8,15.5,44.8,44.5-15.5,46.5-44.5,46.5ZM431.5,339.4c-12.8,0-16,10.5-16,31.1s3.3,30.9,15.8,30.9,16-10.5,16-31.1-3.3-30.9-15.8-30.9Z"/>
      <path class="cls-1" d="M580.8,328c-2.3,4.3-3.2,5.6-3.2,42.8v43.7s-3.8-.3-13.2-.3-18.2.3-18.2.3l-26.5-55.3c-2.2-4.6-3.6-9.3-3.8-9.8v21.5c0,36.1.5,36.6,3.2,41.6l1.2,2.1s-4.2-.3-13.7-.3-14.1.3-14.1.3l1.2-2.1c2.3-4.3,3.3-5.6,3.3-42.8s-.5-36.6-3.3-41.6l-1.2-2.1s5.6.3,18.8.3,17.1-.3,17.1-.3l26.3,55.1c2.6,5.4,3.8,10.1,3.8,10.1v-21.5c0-36.1-.5-36.6-3.2-41.6l-1.2-2.1s4.2.3,13.7.3,14.1-.3,14.1-.3l-1.2,2.1h0s0,0,0,0Z"/>
    </g>
  </g>
</svg>