<svg width="150" height="150" viewBox="0 0 150 150" fill="none" xmlns="http://www.w3.org/2000/svg">
<g clip-path="url(#clip0_68_455)">
<path d="M74.6825 0.232624C74.645 0.255124 73.5575 5.84262 72.2675 12.6451C70.97 19.4476 69.8975 25.0276 69.89 25.0426C69.8825 25.0576 69.725 25.0951 69.545 25.1176C69.365 25.1476 68.8475 25.2376 68.3975 25.3201C67.9475 25.4026 67.1525 25.5826 66.635 25.7101C66.1175 25.8376 65.3975 26.0401 65.03 26.1526L64.355 26.3551C51.125 11.2276 47.2475 6.83262 47.2025 6.82512C47.165 6.82512 47.1275 6.86262 47.1275 6.91512C47.1275 6.96762 49.0325 12.3451 51.3575 18.8701C53.69 25.3951 55.6025 30.7951 55.6175 30.8626C55.64 30.9526 55.565 31.0426 55.325 31.2226C55.145 31.3576 54.71 31.7101 54.3575 32.0176C54.0125 32.3176 53.4425 32.8351 53.0975 33.1576L52.475 33.7501C32.2475 29.7376 26.3 28.5601 26.21 28.5451C26.0825 28.5226 26.045 28.5376 26.0525 28.6051C26.06 28.6576 30.68 31.6726 36.3125 35.3101C41.945 38.9476 46.5725 41.9401 46.6025 41.9701C46.625 41.9926 46.5725 42.1651 46.475 42.3601L46.31 42.7126C25.37 42.7126 23 42.7276 23 42.7876C23 42.8251 23.165 43.1776 23.375 43.5601C23.5775 43.9501 23.9225 44.6326 24.14 45.0826C24.3575 45.5401 24.7025 46.3051 24.9125 46.7926C25.1225 47.2801 25.46 48.1126 25.6625 48.6526C25.865 49.1851 26.18 50.0926 26.36 50.6626C26.5475 51.2326 26.8175 52.1476 26.975 52.7026C27.125 53.2576 27.365 54.1876 27.4925 54.7726C27.6275 55.3576 27.83 56.3626 27.95 57.0001C28.0625 57.6301 28.2275 58.6876 28.31 59.3401C28.4 59.9926 28.5125 60.9826 28.5575 61.5376C28.61 62.0851 28.685 62.9626 28.7225 63.4876C28.775 64.1776 28.805 72.3001 28.835 93.9151C28.865 120.923 28.88 123.458 28.97 124.013C29.03 124.35 29.1425 124.95 29.225 125.355C29.3075 125.76 29.48 126.405 29.6 126.788C29.72 127.17 29.93 127.763 30.065 128.1C30.1925 128.43 30.515 129.12 30.77 129.623C31.0325 130.125 31.445 130.853 31.7 131.235C31.955 131.618 32.39 132.225 32.6675 132.578C32.945 132.93 33.5375 133.598 33.995 134.055C34.4525 134.52 35.165 135.18 35.5775 135.518C35.9975 135.855 36.71 136.373 37.16 136.673C37.61 136.973 38.5025 137.475 39.14 137.783C39.77 138.098 40.565 138.458 40.9025 138.578C41.2325 138.705 41.8625 138.915 42.2975 139.043C42.7325 139.178 43.565 139.373 44.15 139.493C44.735 139.605 46.265 139.905 47.555 140.16C48.8375 140.415 50.7425 140.805 51.7775 141.038C52.8125 141.27 54.4925 141.668 55.5125 141.915C56.5325 142.17 58.025 142.56 58.8275 142.778C59.63 143.003 60.695 143.303 61.1975 143.46C61.7 143.61 62.735 143.94 63.5075 144.195C64.2725 144.443 65.435 144.855 66.0875 145.095C66.74 145.343 67.7 145.725 68.2175 145.95C68.735 146.168 69.5675 146.558 70.07 146.813C70.5725 147.06 71.3225 147.473 71.7425 147.72C72.1625 147.968 72.77 148.373 73.0925 148.613C73.415 148.86 73.9175 149.265 74.2025 149.528L74.72 150C75.4775 149.295 75.9425 148.898 76.2575 148.665C76.565 148.44 77.12 148.065 77.4875 147.833C77.855 147.608 78.62 147.18 79.19 146.895C79.7525 146.603 80.7125 146.16 81.3125 145.905C81.9125 145.65 82.7525 145.313 83.165 145.155C83.585 144.998 84.35 144.72 84.8675 144.54C85.385 144.353 86.3825 144.03 87.0875 143.805C87.7925 143.588 89.0375 143.22 89.855 142.988C90.6725 142.755 92.315 142.32 93.5 142.02C94.685 141.728 96.4625 141.3 97.4525 141.083C98.435 140.865 100.115 140.505 101.188 140.288C102.26 140.07 103.677 139.793 104.345 139.673C105.02 139.553 105.972 139.343 106.475 139.215C106.977 139.088 107.728 138.863 108.147 138.713C108.567 138.563 109.19 138.315 109.542 138.158C109.895 138 110.525 137.693 110.945 137.46C111.357 137.235 112.017 136.838 112.4 136.583C112.783 136.32 113.397 135.878 113.765 135.585C114.132 135.293 114.837 134.648 115.317 134.16C115.805 133.673 116.412 133.013 116.66 132.698C116.915 132.375 117.298 131.858 117.522 131.543C117.74 131.22 118.092 130.658 118.302 130.29C118.512 129.923 118.842 129.278 119.03 128.858C119.217 128.438 119.48 127.785 119.615 127.395C119.75 127.013 119.96 126.3 120.08 125.813C120.2 125.325 120.358 124.545 120.433 124.073L120.575 123.225C120.635 71.1676 120.657 63.7876 120.717 63.1201C120.755 62.6326 120.845 61.6951 120.913 61.0351C120.98 60.3676 121.1 59.3551 121.183 58.7776C121.265 58.2001 121.407 57.3451 121.49 56.8726C121.58 56.4076 121.76 55.5301 121.895 54.9226C122.03 54.3226 122.27 53.3326 122.435 52.7326C122.6 52.1251 122.938 51.0301 123.185 50.2951C123.433 49.5601 123.8 48.5326 124.01 48.0076C124.212 47.4901 124.535 46.7251 124.723 46.3051C124.903 45.8851 125.368 44.9251 125.75 44.1751C126.125 43.4176 126.44 42.7801 126.44 42.7576C126.44 42.7276 121.19 42.7126 114.77 42.7126H103.1L102.74 41.9776C117.552 32.4226 122.21 29.4151 122.645 29.1376C123.14 28.8151 123.41 28.6051 123.372 28.5751C123.335 28.5376 118.183 29.5351 110.105 31.1326L96.905 33.7501C95.795 32.6851 95.15 32.1076 94.745 31.7701C94.3475 31.4326 93.95 31.1176 93.875 31.0726L93.7325 30.9826C100.655 11.5126 102.29 6.84012 102.253 6.81012C102.215 6.78012 101.607 7.42512 100.835 8.31012C100.092 9.15762 96.23 13.5676 92.255 18.1126C85.325 26.0251 85.0175 26.3701 84.8675 26.3101C84.785 26.2801 84.305 26.1301 83.81 25.9876C83.3075 25.8451 82.4975 25.6351 82.01 25.5301C81.53 25.4251 80.765 25.2751 80.315 25.2001L79.49 25.0576C75.8975 6.18012 74.825 0.585124 74.795 0.442624C74.765 0.285124 74.72 0.202624 74.6825 0.232624Z" fill="black"/>
<path d="M72.8976 29.6551C72.7101 29.6626 72.4476 29.6851 72.305 29.7001L72.0501 29.7301V36.6151C72.2601 36.5626 73.4451 36.5251 74.8251 36.5026L77.3376 36.4651V29.7001C76.2725 29.6326 75.35 29.6176 74.6 29.6251C73.85 29.6251 73.0776 29.6401 72.8976 29.6551ZM67.4301 30.5551C66.9726 30.6751 66.0876 30.9451 65.4501 31.1626C64.8201 31.3726 64.0551 31.6426 63.7626 31.7701L63.2376 31.9876C63.2376 36.9001 63.2526 38.3251 63.2826 38.3251C63.3051 38.3176 63.5826 38.2426 63.9051 38.1451C64.2201 38.0401 64.8651 37.8676 65.3301 37.7401C65.7951 37.6201 66.7026 37.4176 67.3326 37.2901L68.4876 37.0651L68.5251 30.3376C68.3076 30.3451 67.8801 30.4426 67.4301 30.5551ZM80.8851 30.4201C80.8701 30.4576 80.8625 31.9726 80.87 33.7726L80.8925 37.0576C82.865 37.4626 83.8101 37.6726 84.2601 37.7926C84.7101 37.9126 85.3176 38.0851 85.6026 38.1676C85.8801 38.2576 86.1201 38.3251 86.1276 38.3251C86.1426 38.3251 86.1426 36.8926 86.1276 35.1451L86.1126 31.9651C85.0776 31.5526 84.3651 31.2901 83.87 31.1251C83.3675 30.9601 82.5425 30.7126 82.0476 30.5776C81.545 30.4501 81.08 30.3451 81.0275 30.3451C80.9675 30.3451 80.9001 30.3751 80.8851 30.4201ZM58.7826 34.2976C58.3401 34.5976 57.6726 35.0776 57.3051 35.3776C56.9376 35.6701 56.2401 36.3076 55.7526 36.7951C55.2651 37.2826 54.7701 37.8076 54.6426 37.9576L54.4251 38.2276L54.4551 42.4651C55.2501 41.9251 55.7976 41.5801 56.1876 41.3476C56.5701 41.1226 57.4851 40.6351 58.2201 40.2676C58.9551 39.9001 59.5926 39.6001 59.6301 39.6001C59.6901 39.6001 59.7126 38.9776 59.7126 36.6751C59.7126 34.8676 59.6901 33.7501 59.6526 33.7501C59.6226 33.7501 59.2326 33.9976 58.7826 34.2976ZM89.6676 36.6451V39.5401C90.7326 40.0351 91.3775 40.3501 91.7976 40.5676C92.2175 40.7851 92.8551 41.1376 93.2301 41.3551C93.5976 41.5726 94.1376 41.9176 94.4301 42.1126C94.7226 42.3076 94.9701 42.4651 94.9926 42.4651C95.0076 42.4651 95.0151 41.5276 95.0151 40.3801V38.2951C94.5051 37.6801 93.9801 37.1251 93.5226 36.6751C93.0576 36.2176 92.375 35.6026 92.0075 35.3101C91.64 35.0176 91.0026 34.5526 90.5826 34.2676C90.1626 33.9901 89.7876 33.7576 89.7501 33.7576C89.6901 33.7501 89.6676 34.3726 89.6676 36.6451ZM44.1801 57.5926C44.1651 57.6301 44.1576 72.6751 44.1651 91.0201L44.1801 124.38L51.8076 124.41C51.8076 89.2951 51.8301 83.1676 51.8751 83.1826C51.9051 83.1901 55.0251 91.4026 58.8051 101.445C62.5776 111.48 66.0726 120.75 66.5601 122.055L67.4601 124.418L72.9276 124.38L72.9576 57.5176H65.3001C65.3001 94.7701 65.2851 98.9401 65.2251 98.9251C65.1801 98.9101 61.6701 89.5951 57.4251 78.2251L49.7001 57.5476C44.7876 57.5176 44.2026 57.5326 44.1801 57.5926ZM79.8876 71.9401C79.8876 84.6976 79.8951 86.4226 79.9776 86.9101C80.0301 87.2101 80.1276 87.6376 80.1876 87.8551C80.2551 88.0726 80.4276 88.5001 80.5775 88.8001C80.7276 89.1001 80.9826 89.5426 81.1476 89.7751C81.3126 90.0076 81.6126 90.3826 81.8151 90.6001C82.0176 90.8176 82.3701 91.1476 82.5951 91.3426C82.8276 91.5301 83.2476 91.8226 83.5326 91.9951C83.8176 92.1676 84.2675 92.3926 84.5375 92.4976C84.8 92.5951 85.2575 92.7376 85.535 92.8051C86.015 92.9251 86.2776 92.9326 89.1126 92.9551L92.1651 92.9701V85.1776H87.5451V57.5176H79.8876V71.9401ZM97.5726 87.0601V116.61H87.5451V106.013H79.8876C79.8876 115.778 79.91 117.863 79.955 118.185C79.9925 118.44 80.0901 118.89 80.1651 119.175C80.2476 119.453 80.4351 119.933 80.5851 120.24C80.7276 120.54 81.0201 121.02 81.2301 121.305C81.4401 121.59 81.7926 122.003 82.0101 122.22C82.2276 122.438 82.6401 122.79 82.9251 123.008C83.2101 123.218 83.7126 123.525 84.0501 123.683C84.3876 123.848 84.9276 124.05 85.265 124.14C85.6026 124.223 86.1726 124.32 86.5401 124.35C86.9076 124.38 89.6001 124.41 92.5251 124.41C95.4501 124.41 98.1576 124.38 98.5476 124.35C98.9301 124.32 99.5001 124.23 99.8226 124.148C100.138 124.065 100.648 123.885 100.948 123.743C101.248 123.608 101.668 123.368 101.885 123.225C102.103 123.075 102.47 122.79 102.71 122.588C102.943 122.385 103.28 122.048 103.46 121.838C103.64 121.628 103.933 121.238 104.105 120.968C104.285 120.698 104.518 120.293 104.623 120.053C104.728 119.82 104.863 119.453 104.93 119.235C104.998 119.018 105.095 118.59 105.14 118.29C105.215 117.81 105.23 113.693 105.23 87.6301V57.5176H97.5726V87.0601Z" fill="#A7F0F6"/>
</g>
<defs>
<clipPath id="clip0_68_455">
<rect width="150" height="150" fill="white"/>
</clipPath>
</defs>
</svg>
