<svg width="150" height="150" viewBox="0 0 150 150" fill="none" xmlns="http://www.w3.org/2000/svg">
<g clip-path="url(#clip0_68_459)">
<path d="M44.6245 18.6226C27.9595 28.8751 14.257 37.3201 14.167 37.4026L14.002 37.5376C13.9945 110.873 14.002 112.508 14.137 112.635C14.2195 112.71 27.907 121.148 44.5645 131.393C73.3495 149.093 74.8645 150.015 75.1645 149.985C75.427 149.963 81.157 146.468 105.727 131.363C122.362 121.133 136.035 112.688 136.117 112.59C136.252 112.425 136.259 110.858 136.259 75.0376C136.259 39.2251 136.252 37.6501 136.117 37.4851C136.035 37.3876 122.347 28.9201 105.689 18.6826C87.922 7.74762 75.307 0.0376213 75.1645 0.0226213C74.962 -0.00737875 70.3645 2.79762 44.6245 18.6226Z" fill="#0F1922"/>
<path d="M71.9245 5.82761C70.2295 6.87011 67.747 8.40012 66.4045 9.22511C65.062 10.0501 60.457 12.8851 56.167 15.5251C51.877 18.1576 47.107 21.0901 45.562 22.0351C44.0245 22.9876 42.532 23.9026 42.247 24.0826C41.962 24.2626 40.4245 25.2001 38.842 26.1751C37.2595 27.1426 35.8345 28.0201 35.6845 28.1176C35.527 28.2151 34.0345 29.1376 32.362 30.1651C30.6895 31.1926 28.7845 32.3626 28.1245 32.7676C27.4645 33.1726 25.552 34.3426 23.8795 35.3776C22.207 36.4051 20.0395 37.7326 19.0645 38.3326L17.287 39.4276L17.3245 110.648C20.1745 112.41 21.8995 113.468 23.002 114.143C24.1045 114.825 25.687 115.793 26.5195 116.31C27.3595 116.82 29.737 118.283 31.807 119.558C33.8695 120.825 36.1045 122.198 36.7645 122.603C37.4245 123.015 38.767 123.84 39.742 124.44C40.7245 125.04 42.322 126.03 43.3045 126.63C44.287 127.23 45.622 128.055 46.282 128.46C46.942 128.865 48.292 129.698 49.282 130.305C50.272 130.913 51.622 131.745 52.282 132.15C52.942 132.563 54.292 133.388 55.282 133.995C56.272 134.603 57.952 135.63 59.002 136.283C60.0595 136.935 62.2045 138.248 63.7645 139.215C65.3245 140.175 67.147 141.293 67.807 141.698C68.467 142.103 70.3645 143.273 72.0295 144.293C74.062 145.545 75.0895 146.138 75.187 146.1C75.262 146.078 76.297 145.455 77.4895 144.728C78.6745 143.993 80.0995 143.115 80.647 142.778C81.1945 142.44 83.017 141.323 84.6895 140.295C86.362 139.268 89.3845 137.408 91.4095 136.163C93.4345 134.918 95.902 133.403 96.892 132.795C97.882 132.188 99.787 131.01 101.129 130.185C102.472 129.36 104.377 128.183 105.367 127.575C106.357 126.968 109.079 125.295 111.412 123.863C113.744 122.43 117.449 120.15 119.647 118.8C121.852 117.443 125.249 115.35 127.214 114.15C129.172 112.943 131.249 111.66 131.834 111.308C132.412 110.948 132.899 110.618 132.914 110.573C132.922 110.528 132.922 94.4926 132.914 74.9401L132.892 39.3826C131.617 38.6176 129.344 37.2226 127.012 35.7901C124.679 34.3576 121.762 32.5576 120.532 31.8001C119.302 31.0426 117.479 29.9251 116.489 29.3176C115.499 28.7101 114.149 27.8776 113.489 27.4726C112.829 27.0676 111.479 26.2351 110.489 25.6276C109.499 25.0201 107.804 23.9851 106.732 23.3176C105.652 22.6576 103.979 21.6301 103.012 21.0301C102.044 20.4376 100.709 19.6201 100.049 19.2151C99.3895 18.8026 98.2795 18.1276 97.5895 17.7001C96.8995 17.2726 95.782 16.5901 95.107 16.1776C94.4395 15.7651 91.5145 13.9651 88.6045 12.1801C85.702 10.3876 82.4245 8.37762 81.3295 7.70262C80.227 7.02012 78.397 5.90261 77.2645 5.19761C76.132 4.50011 75.1645 3.93011 75.1045 3.93011C75.052 3.93011 73.6195 4.78511 71.9245 5.82761Z" fill="#8DB6E1"/>
<path d="M74.527 6.93012C74.2195 7.12512 72.7045 8.05512 71.167 9.00762C69.6295 9.95262 66.997 11.5651 65.3245 12.5926C63.652 13.6201 61.2595 15.0976 60.007 15.8701C58.7545 16.6426 56.8645 17.7976 55.807 18.4501C54.7495 19.0951 50.6995 21.5851 46.807 23.9851C42.907 26.3776 37.2595 29.8576 34.2445 31.7101C31.2295 33.5626 27.9895 35.5501 27.0445 36.1351C26.0995 36.7201 24.0145 37.9951 22.4245 38.9701L19.522 40.7476L19.5145 109.29C20.2345 109.74 21.232 110.355 22.1995 110.955C23.167 111.548 24.772 112.53 25.762 113.138C26.752 113.745 29.2195 115.268 31.2445 116.513C33.2695 117.758 35.737 119.273 36.727 119.88C37.717 120.488 39.637 121.673 41.002 122.505C42.367 123.345 43.702 124.17 43.9645 124.335C44.227 124.5 45.487 125.273 46.762 126.06C48.0445 126.84 49.9495 128.01 51.007 128.663C52.0645 129.308 53.5945 130.253 54.4045 130.748C55.222 131.25 56.0095 131.738 56.167 131.835C56.317 131.94 58.6795 133.388 61.4095 135.06C64.132 136.733 68.1145 139.178 70.2445 140.49C72.382 141.803 74.3395 143.018 74.6095 143.183L75.0895 143.49C77.0695 142.275 78.442 141.435 79.4095 140.843C80.377 140.243 82.5145 138.93 84.1645 137.91C85.8145 136.898 89.5645 134.595 92.4895 132.795C95.4145 130.995 99.157 128.693 100.807 127.68C102.457 126.668 104.692 125.295 105.772 124.635C106.845 123.968 107.947 123.293 108.21 123.128C108.472 122.963 109.807 122.145 111.172 121.305C112.537 120.465 115.11 118.883 116.887 117.788C118.672 116.693 121.14 115.178 122.37 114.42C123.6 113.663 125.565 112.455 126.735 111.735C127.897 111.023 129.277 110.175 129.795 109.86L130.732 109.29L130.74 40.7926C129.645 40.1176 128.542 39.4351 127.575 38.8426C126.6 38.2426 125.272 37.4251 124.612 37.0201C123.952 36.6076 122.602 35.7826 121.612 35.1751C120.622 34.5676 119.272 33.7351 118.612 33.3301C117.952 32.9251 116.617 32.1001 115.65 31.5076C114.682 30.9151 112.845 29.7826 111.57 28.9951C110.295 28.2151 108.382 27.0376 107.332 26.3926C106.275 25.7401 103.897 24.2776 102.052 23.1451C100.2 22.0126 98.2945 20.8351 97.807 20.5351C97.327 20.2351 95.902 19.3651 94.6495 18.5926C93.397 17.8201 90.697 16.1626 88.6495 14.9026C86.602 13.6426 84.1195 12.1201 83.1295 11.5126C82.1395 10.9051 79.9345 9.54012 78.2245 8.49012C76.522 7.44012 75.1195 6.57762 75.1045 6.57762C75.097 6.58512 74.8345 6.74262 74.527 6.93012Z" fill="#0F1922"/>
<path d="M63.817 22.1101L62.3245 23.0251V48.1276C81.892 48.1276 87.652 48.1051 87.7495 48.0901L87.9295 48.0451V23.0251C87.5845 22.7926 86.9095 22.3801 86.2045 21.9526C85.507 21.5326 84.8995 21.1801 84.8695 21.1801C84.832 21.1801 84.8095 26.4976 84.8095 33.0076V44.8426H65.3695L65.3095 21.1951L63.817 22.1101Z" fill="#F46C22"/>
<path d="M56.9394 26.1376L55.2894 27.1501V79.3726L58.6044 81.4051L58.6419 54.7876H91.5294C91.5969 55.0651 91.6044 61.0576 91.5894 68.2801C91.5819 75.5101 91.5894 81.4201 91.6119 81.4201C91.6269 81.4201 92.3319 81.0076 93.1719 80.4976C94.0044 79.9876 94.7319 79.5451 94.7844 79.5151C94.8669 79.4626 94.8894 74.0176 94.8894 53.2651V27.0751C92.3769 25.5526 91.6419 25.1176 91.6269 25.1251C91.6194 25.1401 91.6119 31.0726 91.6119 38.3251C91.6119 45.5701 91.5894 51.5551 91.5669 51.6151C91.5294 51.7276 89.6319 51.7351 75.0894 51.7351H58.6419L58.5969 25.1176L56.9394 26.1376Z" fill="#8DB6E1"/>
<path d="M98.572 53.2651C98.572 66.3226 98.587 77.0026 98.6095 77.0026C98.632 77.0026 99.3295 76.5901 100.17 76.0801L101.692 75.1576V56.3476L104.767 53.2651L101.692 50.1751L101.647 31.3501C99.322 29.9326 98.632 29.5201 98.6095 29.5201C98.587 29.5201 98.572 40.2001 98.572 53.2651ZM50.062 30.5026L48.5695 31.4026L48.562 50.0926L45.4045 53.2651L48.562 56.4301V75.1201C50.812 76.4851 51.517 76.8976 51.577 76.9051C51.667 76.9201 51.682 73.1551 51.682 53.2651C51.682 40.2451 51.6595 29.6026 51.622 29.6026C51.592 29.6026 50.887 30.0076 50.062 30.5026ZM62.347 70.9951L62.3695 83.5126L65.3695 85.3501L65.407 61.7626L84.8095 61.7251C84.8095 80.0326 84.832 85.3501 84.8695 85.3501C84.8995 85.3501 85.6045 84.9376 86.4295 84.4426L87.922 83.5426L87.9295 58.4776H62.3245L62.347 70.9951Z" fill="#F46C22"/>
<path d="M30.7269 98.1001V105.323H33.5244V99.2251L38.2869 99.2626L38.3244 105.323H41.1219V90.8851H38.3244V96.8176H33.5244V90.8851H30.7269V98.1001ZM45.0069 92.0701L43.8069 93.2476L43.8444 102.953L46.2069 105.323H52.3644L54.8019 102.878L54.8094 93.3301L52.3644 90.8851H46.1994L45.0069 92.0701ZM57.8469 96.7351C57.8469 99.9601 57.8319 102.638 57.8169 102.698C57.8019 102.75 58.3569 103.365 59.0394 104.055L60.2844 105.323H65.5644C67.3869 103.485 67.9194 102.9 67.9269 102.833C67.9419 102.765 67.9419 100.05 67.9344 96.7951L67.9269 90.8851H65.1294V101.91L64.1244 102.9L61.7244 102.908L60.6444 101.835V90.8851H57.8469V96.7351ZM71.5644 91.9051L70.5294 92.9326L70.5669 97.1776L72.6069 99.2251H77.0094L77.6919 99.9076L77.6694 102.233L76.9644 102.915C72.2244 102.923 70.8294 102.938 70.8069 102.953C70.7844 102.968 70.7769 103.508 70.7844 104.153L70.8069 105.323H78.4494L80.4894 103.275V98.8651L78.4494 96.8176H74.0469L73.3719 96.1351V93.9676L74.0469 93.2851L80.0094 93.2926V90.8851H72.6069L71.5644 91.9051ZM82.4094 92.1076V93.3301H86.2869L86.3244 105.323H89.1294L89.1669 93.3301C91.8369 93.3001 92.6919 93.2926 92.7894 93.2926C92.9694 93.2926 92.9694 93.2776 92.9694 92.0851V90.8851H82.4094V92.1076ZM95.7294 92.0701L94.5294 93.2476L94.5669 102.953L96.9294 105.323H103.087L105.532 102.878V93.3301L103.087 90.8851H96.9294L95.7294 92.0701ZM108.329 98.1001V105.323H110.969V94.2526C111.314 94.2526 111.449 94.6051 112.919 98.8876C113.797 101.43 114.652 103.92 114.824 104.415L115.132 105.323H119.527V90.8851H116.887V101.955C116.564 101.918 116.339 101.318 114.652 96.4201L112.762 90.9226L108.329 90.8776V98.1001Z" fill="white"/>
<path d="M47.167 93.7801L46.657 94.2751L46.642 101.91L47.6845 102.915H50.9245L52.0045 101.835V94.3726L50.9245 93.2926H47.6695L47.167 93.7801ZM97.882 93.7876L97.3795 94.2751L97.3645 101.91L98.3695 102.893L101.647 102.908L102.727 101.835V94.3726L101.647 93.2926L98.377 93.3001L97.882 93.7876Z" fill="#0F1922"/>
<path d="M52.087 109.253C52.087 109.298 52.087 111.188 52.087 113.46C52.087 115.733 52.087 117.668 52.087 117.758C52.087 117.915 52.1395 117.915 55.462 117.915H58.8445L60.562 116.19L60.577 110.978L58.762 109.17C53.2495 109.17 52.087 109.2 52.087 109.253ZM65.6545 113.28C64.5745 115.845 63.922 117.488 63.922 117.653L63.9295 117.915L65.9695 117.923L66.6895 116.145L71.002 116.19C71.542 117.495 71.737 117.9 71.7895 117.93C71.842 117.96 71.9395 117.968 72.007 117.953C72.0745 117.938 72.4945 117.923 72.9445 117.923L73.7695 117.915C73.762 117.315 73.3495 116.273 72.0595 113.22L70.3645 109.208L67.3945 109.17L65.6545 113.28ZM78.0895 109.913L77.332 110.655L77.3695 112.898L78.9295 114.465H82.927C83.3245 114.87 83.362 114.975 83.362 115.305C83.362 115.635 83.3245 115.748 83.1445 115.928L82.927 116.153H77.527V117.915H84.0445L85.4395 116.513L85.4545 114.105L83.9695 112.62H79.8895C79.4995 112.23 79.447 112.103 79.447 111.818C79.447 111.525 79.4845 111.413 79.6645 111.24L79.8895 111.023L85.0495 111.015V109.17H78.847L78.0895 109.913ZM89.767 113.543V117.915H91.852V114.465H96.007V117.915C97.402 117.945 97.8895 117.945 97.987 117.938L98.167 117.915V109.17H96.007V112.62H91.852V109.17H89.767V113.543Z" fill="white"/>
<path d="M54.1869 113.565L54.2019 116.108L57.6819 116.153L58.4919 115.388L58.4844 111.78L57.7269 111.015H54.1644L54.1869 113.565ZM68.0994 112.62C67.7394 113.498 67.4469 114.263 67.4469 114.308C67.4469 114.353 67.9644 114.383 68.8494 114.383H70.2444C70.1844 114.105 69.9069 113.355 69.5769 112.538C69.2319 111.683 68.9319 111.045 68.8644 111.03C68.7894 111.015 68.5644 111.48 68.0994 112.62Z" fill="#0F1922"/>
<path d="M75.0445 122.985C75.0445 123.023 74.6845 124.373 74.2495 125.993C73.807 127.62 73.4245 128.963 73.387 128.993C73.357 129.015 72.2845 129.323 71.0095 129.668C69.727 130.005 68.407 130.365 68.062 130.455C67.7245 130.553 67.4395 130.658 67.447 130.688C67.447 130.725 67.477 130.748 67.507 130.748C67.537 130.748 68.8645 131.1 70.4545 131.535C72.0445 131.963 73.372 132.33 73.3945 132.353C73.417 132.375 73.5445 132.773 73.672 133.238C73.807 133.695 74.077 134.708 74.287 135.48C74.4895 136.253 74.752 137.22 74.872 137.625C74.992 138.038 75.112 138.345 75.142 138.308C75.1645 138.278 75.547 136.928 75.9745 135.323C76.402 133.71 76.7845 132.375 76.8145 132.353C76.8445 132.33 78.2095 131.955 79.8445 131.513C81.472 131.07 82.807 130.688 82.807 130.665C82.807 130.65 82.1695 130.455 81.3895 130.245C80.6095 130.035 79.2595 129.675 78.397 129.443C77.5345 129.21 76.807 129.008 76.792 128.985C76.7695 128.963 76.402 127.628 75.9745 126.015C75.5395 124.403 75.157 123.053 75.1195 123.008C75.0745 122.963 75.0445 122.955 75.0445 122.985Z" fill="#F46C22"/>
</g>
<defs>
<clipPath id="clip0_68_459">
<rect width="150" height="150" fill="white"/>
</clipPath>
</defs>
</svg>
