<svg width="150" height="150" viewBox="0 0 150 150" fill="none" xmlns="http://www.w3.org/2000/svg">
<path d="M133.126 8.27746L133.123 8.27666C132.821 8.20686 102.52 1.22541 75.489 1.22541C48.4585 1.22541 18.1571 8.20693 17.8513 8.27789L12.7987 9.45715V84.9757C12.7987 105.809 24.8873 125.196 43.5943 134.366L75.4883 150L107.384 134.366C126.09 125.197 138.177 105.809 138.177 84.9757V9.45715L133.126 8.27746Z" fill="#62CBC9"/>
<path d="M75.4801 1.22361C48.4495 1.22361 18.149 8.20522 17.8432 8.27616L12.7915 9.45518V52.6533C12.7911 52.6537 12.7907 52.6541 12.7903 52.6545L12.7915 78.6779C35.2651 41.2517 106.351 41.5453 119.676 5.62119C118.441 5.40461 117.141 5.18322 115.785 4.96061C115.785 4.96093 115.785 4.96149 115.785 4.96181C104.621 3.13041 89.6042 1.22408 75.4778 1.22408L75.4801 1.22361ZM115.762 5.0079C115.429 5.66337 115.077 6.29162 114.716 6.90722C115.078 6.29287 115.429 5.66346 115.762 5.0079ZM75.4801 5.6637C88.6581 5.6637 102.596 7.34759 113.348 9.05625C94.9642 35.6366 47.5835 21.7083 17.2283 48.3278V12.9779L18.8493 12.5992C19.1453 12.5306 48.8661 5.66366 75.4766 5.66366L75.4801 5.6637ZM121.854 6.01012C107.157 48.166 30.2033 46.4446 13.005 89.6451C13.6728 97.3269 15.9673 104.713 19.6084 111.351C19.6093 111.354 19.6092 111.355 19.6108 111.356C33.5929 61.9695 112.428 55.9211 124.929 6.5841V6.58291C124.692 6.53715 121.965 6.02996 121.865 6.01191C121.863 6.0111 121.862 6.01072 121.859 6.01072L121.854 6.01012ZM127.157 7.01829C115.921 59.2494 33.8749 67.6724 23.2819 117.181C26.9929 122.321 31.5834 126.836 36.8905 130.461C37.4673 130.821 38.0518 131.186 38.6429 131.557C38.6421 131.573 38.6394 131.588 38.6369 131.604C40.23 132.604 41.8808 133.527 43.5883 134.363L75.4823 149.998L107.378 134.363C126.084 125.194 138.172 105.808 138.172 84.974V9.45545L133.119 8.27644L133.117 8.27525C133.065 8.26325 132.106 8.04368 130.436 7.69111C130.313 8.46432 130.174 9.23006 130.02 9.9918C130.173 9.23034 130.314 8.46401 130.436 7.69111C130.436 7.69073 130.436 7.69032 130.436 7.68992C130.234 7.64661 127.457 7.07752 127.173 7.02216C127.168 7.02135 127.163 7.0194 127.158 7.01859L127.157 7.01829ZM114.485 7.29183C114.129 7.88216 113.76 8.45634 113.378 9.01078C113.76 8.45669 114.128 7.88085 114.485 7.29183ZM129.797 11.0093C129.721 11.354 129.651 11.7011 129.57 12.0438C131.151 12.3795 132.059 12.5884 132.109 12.5992L133.729 12.9791V84.974C133.729 104.125 122.618 121.947 105.421 130.377L75.4806 145.053L45.5397 130.377C43.4442 129.35 41.4405 128.181 39.5347 126.889C49.163 84.9208 119.212 59.3304 129.799 11.0103L129.797 11.0093ZM39.0506 129.285C38.9184 130.052 38.8041 130.825 38.7137 131.603C38.7137 131.604 38.7138 131.604 38.7137 131.605C38.6969 131.594 38.6803 131.583 38.6636 131.572C38.6804 131.583 38.6968 131.593 38.7137 131.603C38.8039 130.824 38.919 130.053 39.0506 129.285Z" fill="#081F2C"/>
<path d="M75.4883 5.66796C67.8293 5.66796 59.9168 6.23832 52.5188 7.05053V133.8L75.4883 145.059L98.4577 133.8V7.05053C91.0599 6.23951 83.1472 5.6691 75.4883 5.6691" fill="#CF3339"/>
<path d="M62.5303 21.2272V68.4285H70.8587V52.6808L73.8952 47.5455L81.3205 68.4281H90.4326L79.1236 38.5769L89.2339 21.2277H80.1479L70.858 38.4325V21.2277H62.5295L62.5303 21.2272ZM114.363 60.2696L112.175 67.0009H105.096L110.824 71.1627L108.637 77.8951L114.363 73.7334L120.089 77.8951L117.902 71.1627L123.628 67.0009H116.551L114.363 60.2696ZM75.714 75.1521C71.2426 75.1521 67.6148 76.7614 65.5019 79.6758C63.271 82.6984 62.6935 85.3953 62.6935 92.7919V105.681C62.6935 112.663 63.1869 115.384 64.9883 118.337C67.0904 121.818 70.9244 123.735 75.7843 123.735C84.4373 123.735 89.0113 118.254 89.0113 107.888V105.687H80.6258L80.6139 106.289C80.5441 109.683 80.4748 110.651 80.2197 111.735C79.5326 114.484 78.0578 115.819 75.7138 115.819C73.8992 115.819 72.3388 114.81 71.7432 113.259C71.2102 111.795 71.0217 110.065 71.0217 106.646V91.3441C71.0217 87.6608 71.2211 86.4233 72.0538 85.013C72.7108 83.758 74.0112 83.0671 75.7139 83.0671C78.8737 83.0671 80.4753 85.5508 80.4753 90.4482V93.3963H88.8046V90.0348C88.8046 80.7164 83.9107 75.1521 75.714 75.1521ZM114.363 82.8294L112.175 89.5606H105.096L110.824 93.7224L108.637 100.455L114.363 96.2931L120.089 100.455L117.902 93.7224L123.628 89.5606H116.551L114.363 82.8294Z" fill="white"/>
</svg>
