<svg width="150" height="150" viewBox="0 0 150 150" fill="none" xmlns="http://www.w3.org/2000/svg">
<g clip-path="url(#clip0_68_472)">
<path d="M38.9407 101.756C38.9407 123.283 63.0606 136.922 79.8276 148.168C96.5692 137.049 120.715 123.334 120.715 101.73C120.715 75.6744 120.715 2.23918 120.715 2.23918L38.9407 34.9619C38.9407 34.9619 38.9407 82.4429 38.9407 101.756Z" fill="url(#paint0_radial_68_472)"/>
<path d="M79.8276 150L78.988 149.44C77.436 148.397 75.8331 147.354 74.1284 146.234C57.7685 135.472 37.4141 122.087 37.4141 101.756C37.4141 82.4685 37.4141 34.9875 37.4141 34.9875V33.9442L122.241 0.00012207V101.73C122.241 122.29 101.683 135.7 85.1452 146.489C83.5932 147.507 82.1175 148.474 80.6673 149.415L79.8276 150ZM40.4672 36.0053C40.4672 43.0282 40.4672 84.1479 40.4672 101.756C40.4672 120.458 60.0584 133.334 75.8076 143.665C77.207 144.58 78.53 145.446 79.8276 146.336C80.998 145.548 82.2193 144.759 83.466 143.945C99.3679 133.563 119.188 120.636 119.188 101.73V4.50395L40.4672 36.0053Z" fill="white"/>
<path d="M110.588 48.7026C110.512 46.9469 109.977 45.2421 108.96 43.8171C108.96 43.8171 108.96 43.7916 108.934 43.7916C107.153 41.2726 106.034 40.2038 104.838 37.354C104.787 37.2268 104.838 37.0487 104.965 36.9977C106.059 36.3362 107.28 35.6746 108.324 34.8604C108.731 34.5296 109.138 34.1734 109.468 33.7662C109.01 32.6975 108.425 31.5779 108.374 30.4329C108.476 30.102 108.883 29.7459 108.68 29.3896C107.84 28.3718 107.001 27.3031 106.517 26.0817C106.441 25.471 106.364 24.6059 106.339 24.4532C105.652 22.5703 104.151 21.4506 102.37 20.9672C100.207 20.382 97.6375 20.7381 95.7801 21.8323C90.9714 24.7076 92.0908 27.4303 84.8905 29.6949C96.289 36.7433 105.194 47.7866 109.545 60.84C109.825 59.9494 110.079 59.0589 110.283 58.2955C110.715 54.9622 110.741 52.1632 110.588 48.7026Z" fill="url(#paint1_linear_68_472)"/>
<path d="M110.283 58.2954C110.258 58.5754 110.232 58.8553 110.181 59.1351C107.713 77.1759 96.0349 93.5119 79.8277 101.781C74.4847 99.4408 69.5741 96.3106 65.2234 92.5194C70.999 91.578 74.8663 88.5755 74.9935 88.4736C70.1848 90.4075 66.2157 90.8909 62.9335 90.4075C60.4655 88.0156 58.2266 85.4202 56.242 82.6466C61.8903 85.2166 67.8186 82.9011 67.8186 82.9011C60.6436 82.6212 56.0893 81.5525 52.7817 77.1759C51.7385 75.2929 50.7972 73.3591 49.9576 71.3743C55.8349 74.5551 62.3229 74.9368 62.3229 74.9368C52.3492 73.3591 48.0239 66.9468 46.8281 61.2471C52.68 66.6415 58.6845 67.1504 58.6845 67.1504C49.754 63.6898 45.8613 57.5576 45.6068 52.2395C63.595 67.5576 89.8522 69.7713 110.283 58.2954Z" fill="url(#paint2_linear_68_472)"/>
<path d="M110.232 58.6008C110.181 58.9571 110.232 58.8044 110.156 59.1606C108.349 72.0614 101.912 84.1989 92.3455 93.003C88.6054 96.4635 84.3055 99.4658 79.802 101.781C81.6085 97.1501 82.6262 92.2905 82.9569 87.2778C87.3841 82.265 95.7039 79.6696 95.7039 79.6696C91.6331 79.8986 87.0787 81.8834 83.0842 84.1479C83.1605 79.5933 82.6771 74.8604 81.6848 70.4839C87.1042 67.7612 93.9738 67.3541 93.9738 67.3541C90.1319 66.6161 85.4504 67.3286 81.176 68.4482C79.8275 63.2828 77.6902 58.27 74.9679 53.7663C81.3541 52.6721 89.0888 55.3438 89.2923 55.4202C85.0687 52.6212 78.5808 51.5016 73.2377 51.069C70.5153 47.0487 67.3095 43.4354 63.6966 40.2548C71.5585 38.9316 81.9392 42.5957 82.2446 42.7229C74.4845 38.8043 68.1237 37.6848 59.4222 36.8451C56.4708 34.7076 53.2904 32.8501 49.9574 31.2979C56.8524 29.7712 63.6966 31.7306 64.18 31.8578C54.4862 27.8629 38.0246 26.8196 28 26.1071C35.5311 20.8909 57.2341 24.2496 57.7683 24.2496C54.2063 22.4176 46.09 21.8832 38.2535 21.7306C46.4462 19.0333 55.6312 18.1173 64.1546 19.3641C85.5521 22.3667 103.515 38.0156 110.232 58.6008Z" fill="url(#paint3_linear_68_472)"/>
<path d="M58.7097 116.158H57.1832L60.9233 107.176L64.638 116.158H63.1115L60.9233 110.611L58.7097 116.158Z" fill="white"/>
<path d="M69.0651 109.975L74.2046 116.107L74.5354 116.489V116.107V107.507H73.1615V112.647L69.0397 107.532L68.9888 107.507H67.7167V116.158H69.0651V109.975Z" fill="white"/>
<path d="M80.4382 116.107C80.8707 116.235 81.3286 116.311 81.7867 116.311C82.2701 116.311 82.7535 116.235 83.1861 116.107C84.9925 115.547 86.2137 113.893 86.2137 111.832C86.2137 111.578 86.1883 111.349 86.1628 111.146L86.1374 111.069H81.5322V112.418H84.6363C84.5091 113.893 83.3387 114.912 81.7358 114.912C80.1328 114.912 78.8353 113.537 78.8353 111.858C78.8353 110.153 80.1328 108.779 81.7358 108.779C82.2192 108.779 82.7026 108.932 83.1351 109.161V107.583C82.6772 107.43 82.2192 107.354 81.7358 107.354C79.2932 107.354 77.2832 109.364 77.2832 111.858C77.3596 113.842 78.6572 115.547 80.4382 116.107Z" fill="white"/>
<path d="M94.2538 116.158V114.759H90.4883V112.545H93.8977V111.171H90.4883V108.881H94.1776V107.507H89.0381V116.158H94.2538Z" fill="white"/>
<path d="M102.828 114.759H99.3676V107.507H97.9174V116.158H102.828V114.759Z" fill="white"/>
<path d="M70.3628 128.55C70.8971 128.55 71.3805 128.448 71.8894 128.27L71.9656 128.245V126.616L71.813 126.718C71.3805 126.998 70.8971 127.125 70.3628 127.125C68.7598 127.125 67.4623 125.751 67.4623 124.071C67.4623 122.366 68.7598 120.993 70.3628 120.993C70.8717 120.993 71.3551 121.145 71.813 121.4L71.9656 121.502V119.848L71.8894 119.822C71.3805 119.644 70.8717 119.542 70.3628 119.542C67.9202 119.542 65.9103 121.553 65.9103 124.046C65.9103 126.54 67.9202 128.55 70.3628 128.55Z" fill="white"/>
<path d="M76.5707 119.721H75.1205V128.398H76.5707V119.721Z" fill="white"/>
<path d="M81.7357 128.398H83.186V121.12H85.2723V119.721H79.6494V121.12H81.7357V128.398Z" fill="white"/>
<path d="M92.4728 119.721L90.6918 123.283L88.8853 119.721H87.2825L89.9539 124.759V128.398H91.4042V124.759L94.0757 119.721H92.4728Z" fill="white"/>
<path d="M75.5276 137.455H76.4436V135.013H78.6572V134.148H76.4436V132.876H78.7589V131.986H75.5276V137.455Z" fill="white"/>
<path d="M83.466 131.909C81.914 131.909 80.6674 133.181 80.6674 134.733C80.6674 136.285 81.914 137.557 83.466 137.557C83.7968 137.557 84.1022 137.506 84.4329 137.38L84.4837 137.355V136.336L84.382 136.387C84.1022 136.565 83.7968 136.642 83.466 136.642C82.4483 136.642 81.6342 135.776 81.6342 134.708C81.6342 133.639 82.4483 132.774 83.466 132.774C83.7968 132.774 84.1022 132.876 84.382 133.028L84.4837 133.079V132.036L84.4329 132.011C84.1022 131.96 83.7968 131.909 83.466 131.909Z" fill="white"/>
</g>
<defs>
<radialGradient id="paint0_radial_68_472" cx="0" cy="0" r="1" gradientUnits="userSpaceOnUse" gradientTransform="translate(120.03 1.225) scale(108.088 108.097)">
<stop offset="0.3825" stop-color="#1F191A"/>
<stop offset="1" stop-color="#070606"/>
</radialGradient>
<linearGradient id="paint1_linear_68_472" x1="93.9601" y1="47.8875" x2="117.799" y2="28.8179" gradientUnits="userSpaceOnUse">
<stop offset="0.1676" stop-color="#E17263"/>
<stop offset="0.6307" stop-color="#FCC9BF"/>
</linearGradient>
<linearGradient id="paint2_linear_68_472" x1="100.895" y1="84.9068" x2="61.5481" y2="57.0338" gradientUnits="userSpaceOnUse">
<stop offset="0.0919912" stop-color="#E17263"/>
<stop offset="1" stop-color="#FCC9BF"/>
</linearGradient>
<linearGradient id="paint3_linear_68_472" x1="120.522" y1="89.5744" x2="71.1085" y2="56.7796" gradientUnits="userSpaceOnUse">
<stop stop-color="#E17263"/>
<stop offset="1" stop-color="#FCC9BF"/>
</linearGradient>
<clipPath id="clip0_68_472">
<rect width="150" height="150" fill="white"/>
</clipPath>
</defs>
</svg>
