<?xml version="1.0" encoding="utf-8"?>
<!-- Generator: Adobe Illustrator 28.3.0, SVG Export Plug-In . SVG Version: 6.00 Build 0)  -->
<svg version="1.1" id="Layer_2_00000176024443830163142760000007280703934246239635_"
	 xmlns="http://www.w3.org/2000/svg" xmlns:xlink="http://www.w3.org/1999/xlink" x="0px" y="0px" viewBox="0 0 200 200"
	 style="enable-background:new 0 0 200 200;" xml:space="preserve">
<style type="text/css">
	.st0{fill:#B4A269;}
	.st1{fill:#00416B;}
	.st2{fill:#AB0033;}
	.st3{fill:#FFFFFF;}
</style>
<g id="Art">
	<g>
		<g>
			<polygon class="st0" points="100,200 100,200 100,200 			"/>
			<path class="st0" d="M100,0C39.9,19.8,23.5,43.9,23.5,43.9C23.5,166.2,100,200,100,200s76.4-33.8,76.4-156.1
				C176.5,43.9,160.1,19.8,100,0z"/>
		</g>
		<g>
			<polygon class="st0" points="100,200 100,200 100,200 			"/>
			<path class="st0" d="M100,0C39.9,19.8,23.5,43.9,23.5,43.9C23.5,166.2,100,200,100,200s76.4-33.8,76.4-156.1
				C176.5,43.9,160.1,19.8,100,0z"/>
		</g>
		<path class="st1" d="M100,6.6C49.1,21.9,29.9,46.2,29.9,46.2c0,111.2,69.7,145.5,70.1,145.7c0.4-0.3,70.1-34.5,70.1-145.7
			C170.1,46.2,150.9,21.9,100,6.6z"/>
		<path class="st2" d="M100,6.6C49.1,21.9,29.9,46.2,29.9,46.2c0,16.8,1.6,31.8,4.3,45.2l95-73.8C120.9,13.8,111.2,10,100,6.6
			L100,6.6z"/>
		<polygon class="st0" points="113.2,128.4 108.6,127.6 124.4,138.5 		"/>
		<polygon class="st0" points="117.7,125.2 113.2,124.4 128.9,135.4 		"/>
		<polygon class="st0" points="115.3,116.4 115.3,116.4 115.3,116.4 121,116.4 112.8,110.7 107.7,113.1 119.4,121.3 		"/>
		<polygon class="st0" points="132.7,108.8 131.6,110.7 135.7,113 140.2,105.2 122.1,105.2 128.5,108.8 		"/>
		<path class="st0" d="M60.2,115.4l-2.5,1.4c-1.8,3.7-3.1,7.7-3.9,11.9c0.7,1.7,1.5,3.4,2.3,5.1h4.2l-2.7,3.2
			c2.8,5.5,5.8,10.7,9,15.5c5.1,7.5,10.8,14.2,16.9,19.9c5.1,4.7,10.5,8.8,16.4,12.2l0,0v-29.2l0,0l-9.2,2.4L84.6,138l14-9.8l0,0
			V123l-7-4.9l3.6-2.5l4.9,2.3l0,0V94.6c5.1-4.5,22.5,0.8,29.7,6.3c-7.5-6.1-17-10-27.3-10.5l-2.4,4.2l0,0l0,0l0,0l-2.4-4.2
			c-10.3,0.5-19.8,4.4-27.3,10.5l0.3,0.5H52.2L60.2,115.4L60.2,115.4z M82.3,125.2l4.5-0.8l-15.7,11L82.3,125.2L82.3,125.2z
			 M75.6,138.6l11.2-10.2l4.5-0.8L75.6,138.6L75.6,138.6z M92.3,113.1l-11.7,8.2l4.1-4.9H79l8.1-5.7L92.3,113.1L92.3,113.1z
			 M77.9,105.2l-6.4,3.7h-4.3l1.1,1.8l-4,2.3l-4.5-7.8L77.9,105.2L77.9,105.2z"/>
		<polygon class="st3" points="89.9,137.3 92.5,145.4 94.7,138.2 105.3,138.2 107.6,145.4 110.1,137.3 105.6,134.2 102.1,134.2 
			100,136.3 100,136.3 100,136.3 97.9,134.2 94.4,134.2 		"/>
		<polygon class="st3" points="93.5,153.9 93.5,153.9 106.5,153.9 103.6,144.5 101.3,151.7 98.7,151.7 98.7,151.7 96.5,144.5 		"/>
		<path class="st3" d="M79.4,27.9h-2.7v9.7l-3-9.7h-2.7c-0.2,0-0.3,0.1-0.3,0.3v19.5c0,0.2,0.1,0.3,0.3,0.3h2.7v-9.5l3,9.5h2.7
			c0.2,0,0.3-0.1,0.3-0.3V28.2C79.7,28.1,79.6,27.9,79.4,27.9z"/>
		<path class="st3" d="M120.3,46.9l2,1.1c0,0,0.1,0,0.1,0h4.4c0,0,0.1,0,0.1,0l2-1.2c0.1,0,0.1-0.1,0.1-0.2v-5.9l-3,1.8v2.4
			c0,0.1-0.1,0.3-0.3,0.3h-2.4c-0.1,0-0.3-0.1-0.3-0.3V31.1c0-0.1,0.1-0.3,0.3-0.3h2.5c0.1,0,0.3,0.1,0.3,0.3v3l3-1.7v-3.2
			c0-0.1-0.1-0.2-0.2-0.3l-2-1c0,0-0.1,0-0.1,0h-4.4c0,0-0.1,0-0.1,0l-1.9,1c-0.1,0-0.2,0.2-0.2,0.3v17.4
			C120.2,46.7,120.3,46.8,120.3,46.9L120.3,46.9z"/>
		<path class="st3" d="M52.7,81.1l2.4-1.4c0.1-0.1,0.2-0.2,0.2-0.3v-7.1l-3.6,2.1v2.9c0,0.2-0.1,0.3-0.3,0.3h-2.9
			c-0.1,0-0.2,0-0.2-0.1c-0.1-0.1-0.1-0.1-0.1-0.2V61.1c0-0.2,0.1-0.3,0.3-0.3h2.9c0.2,0,0.3,0.1,0.3,0.3v3.6l3.6-2v-3.8
			c0-0.1-0.1-0.2-0.2-0.3l-2.4-1.2c0,0-0.1,0-0.2,0h-5.2c-0.1,0-0.1,0-0.2,0l-2.3,1.2c-0.1,0.1-0.2,0.2-0.2,0.3v20.7
			c0,0.2,0.1,0.3,0.2,0.3l2.3,1.3c0,0,0.1,0,0.2,0h5.2C52.6,81.2,52.7,81.2,52.7,81.1L52.7,81.1z"/>
		<path class="st3" d="M61.6,79.7l2.4,1.4c0,0,0.1,0,0.2,0h5.1c0.1,0,0.2,0,0.2,0l2.4-1.4c0.1-0.1,0.2-0.2,0.2-0.3V58.8
			c0-0.1-0.1-0.2-0.2-0.3l-2.4-1.2c0,0-0.1,0-0.1,0h-5.1c-0.1,0-0.1,0-0.2,0l-2.4,1.2c-0.1,0.1-0.2,0.2-0.2,0.3v20.6
			C61.4,79.5,61.5,79.6,61.6,79.7L61.6,79.7z M65.2,60.8h2.9c0.2,0,0.3,0.1,0.3,0.3v16.3c0,0.2-0.1,0.3-0.3,0.3h-2.9
			c-0.2,0-0.3-0.1-0.3-0.3V61.1C64.9,60.9,65,60.8,65.2,60.8z"/>
		<path class="st3" d="M78.2,79.7l2.4,1.4c0,0,0.1,0,0.2,0h5.1c0.1,0,0.2,0,0.2,0l2.4-1.4c0.1-0.1,0.2-0.2,0.2-0.3V57.5
			c0-0.2-0.1-0.3-0.3-0.3h-3.2v20c0,0.2-0.1,0.3-0.3,0.3h-2.9c-0.2,0-0.3-0.1-0.3-0.3v-20h-3.2c-0.2,0-0.4,0.1-0.4,0.4v21.8
			C78.1,79.5,78.1,79.6,78.2,79.7L78.2,79.7z"/>
		<path class="st3" d="M95,81.1h3.2v-10l3.5-1.3v11.4h3.2c0.2,0,0.4-0.1,0.4-0.4V69c0-0.2-0.1-0.3-0.2-0.3l-2.4-1.3l2.4-1.4
			c0.1-0.1,0.2-0.2,0.2-0.3v-6.8c0-0.1-0.1-0.2-0.2-0.3l-2.4-1.2c0,0-0.1,0-0.2,0H95c-0.2,0-0.4,0.1-0.4,0.4v23.2
			C94.7,81,94.8,81.1,95,81.1L95,81.1z M98.2,61.1c0-0.2,0.1-0.3,0.3-0.3h2.9c0.2,0,0.3,0.1,0.3,0.3v4.1l-3.5,1.4V61.1z"/>
		<path class="st3" d="M111.8,81.1h3.2l0-10l3.5-1.3v11.4h3.2c0.2,0,0.4-0.1,0.4-0.4v-22c0-0.1-0.1-0.2-0.2-0.3l-2.4-1.2
			c0,0-0.1,0-0.2,0h-5.1c0,0,0,0-0.1,0c0,0-0.1,0-0.1,0l-2.4,1.4c-0.1,0.1-0.2,0.2-0.2,0.3v21.8C111.4,81,111.5,81.1,111.8,81.1
			L111.8,81.1z M115,61.4c0-0.2,0.1-0.3,0.2-0.4c0.1-0.1,0.2-0.2,0.4-0.2h2.6c0.2,0,0.3,0.1,0.3,0.3v4.1l-3.5,1.4
			C115,66.6,115,61.4,115,61.4z"/>
		<path class="st3" d="M138.5,58.5l-2.4-1.2c0,0-0.1,0-0.2,0h-5.1c-0.1,0-0.1,0-0.2,0l-2.4,1.2c-0.1,0.1-0.2,0.2-0.2,0.3v20.6
			c0,0.1,0.1,0.2,0.2,0.3l2.4,1.4c0,0,0.1,0,0.2,0h5.1c0.1,0,0.2,0,0.2,0l2.4-1.4c0.1-0.1,0.2-0.2,0.2-0.3V67.3h-5.3v5h1.8v5
			c0,0.2-0.1,0.3-0.3,0.3h-2.9c-0.2,0-0.3-0.1-0.3-0.3V61.1c0-0.2,0.1-0.3,0.3-0.3h2.9c0.2,0,0.3,0.1,0.3,0.3v3.6l3.6-2v-3.8
			C138.7,58.7,138.6,58.6,138.5,58.5z"/>
		<path class="st3" d="M155,57.2h-7.6c-0.1,0-0.1,0-0.2,0l-2.3,1.2c-0.1,0.1-0.2,0.2-0.2,0.3v22c0,0.2,0.1,0.3,0.3,0.3h10
			c0.2,0,0.4-0.1,0.4-0.4v-3.2h-6.8c-0.2,0-0.3-0.1-0.3-0.3v-6.2h4.4v-3.8h-4.4v-6.3c0-0.2,0.1-0.3,0.3-0.3h6.8v-3.2
			C155.3,57.4,155.2,57.2,155,57.2z"/>
		<g>
			<polygon class="st3" points="116.1,27.7 104.6,27.7 100,16.1 95.4,27.7 83.9,27.7 93,35.8 90,48 			"/>
			<polygon class="st0" points="107.2,36.9 100.9,41.7 110,48.4 			"/>
		</g>
	</g>
</g>
</svg>
