<svg width="150" height="150" viewBox="0 0 150 150" fill="none" xmlns="http://www.w3.org/2000/svg">
<g clip-path="url(#clip0_68_330)">
<path d="M68.5343 0.0523932C68.1782 0.11269 66.8339 0.28353 65.5498 0.434272C64.2656 0.585014 62.2793 0.886497 61.1406 1.10256C59.997 1.32365 57.9555 1.77587 56.6011 2.11755C55.2418 2.45421 53.0247 3.09737 51.6703 3.54457C50.316 3.99178 47.9785 4.85603 46.4787 5.46904C44.9839 6.08206 42.7067 7.1071 41.4225 7.75027C40.1384 8.39343 37.9765 9.58931 36.6222 10.4083C35.2679 11.2274 33.2213 12.5439 32.0827 13.3378C30.939 14.1317 29.063 15.5486 27.9093 16.4883C26.7556 17.4279 24.9097 19.0107 23.8062 20.0106C22.6976 21.0105 20.7063 23.0556 19.377 24.5529C18.0427 26.0503 16.3172 28.0954 15.5347 29.0953C14.7572 30.0902 13.1972 32.3161 12.0736 34.0296C10.95 35.748 9.19442 38.7829 8.17616 40.7778C7.15289 42.7726 5.76846 45.8025 5.09631 47.5159C4.42416 49.2293 3.47111 52.0331 2.97953 53.7415C2.48796 55.455 1.91112 57.6759 1.69543 58.6758C1.48475 59.6707 1.14366 61.4243 0.948034 62.565C0.747392 63.7056 0.451445 65.9265 0.290931 67.4942C0.130417 69.0669 0 72.4536 0 75.0212C0 77.5889 0.135433 80.9755 0.295947 82.5483C0.456461 84.116 0.867777 86.9198 1.20887 88.7739C1.54996 90.628 2.24719 93.6077 2.75883 95.3915C3.26545 97.1752 4.16332 99.9187 4.74518 101.486C5.32705 103.059 6.48074 105.742 7.29835 107.456C8.12099 109.169 9.5305 111.797 10.4284 113.295C11.3313 114.792 12.6455 116.837 13.3527 117.837C14.065 118.837 15.4093 120.646 16.3473 121.857C17.2803 123.073 19.8034 125.821 21.9502 127.972C24.0971 130.122 26.8459 132.67 28.0598 133.635C29.2737 134.604 31.7265 136.368 33.5072 137.559C35.2929 138.755 38.2123 140.488 39.993 141.418C41.7787 142.347 44.4623 143.624 45.9621 144.252C47.4619 144.88 49.7642 145.764 51.0835 146.211C52.4077 146.659 54.8555 147.372 56.5359 147.789C58.2113 148.206 60.5738 148.724 61.7877 148.94C63.0016 149.151 65.1033 149.478 66.4577 149.663C67.8973 149.859 71.4637 150 75.0201 150C78.5313 150 82.1629 149.859 83.5825 149.669C84.9368 149.483 87.0385 149.156 88.2524 148.94C89.4663 148.724 91.6232 148.272 93.0528 147.93C94.4773 147.588 96.9302 146.88 98.5002 146.357C100.07 145.83 102.578 144.885 104.078 144.257C105.578 143.624 108.261 142.347 110.047 141.418C111.828 140.483 114.572 138.875 116.142 137.84C117.712 136.805 120.225 134.981 121.719 133.785C123.219 132.589 125.487 130.615 126.756 129.394C128.025 128.173 130.011 126.118 131.165 124.826C132.318 123.535 133.924 121.61 134.721 120.545C135.524 119.485 136.883 117.566 137.741 116.279C138.599 114.993 140.013 112.656 140.881 111.089C141.754 109.521 143.098 106.777 143.87 104.994C144.643 103.205 145.746 100.291 146.328 98.5018C146.91 96.718 147.612 94.3262 147.898 93.1856C148.179 92.045 148.601 90.1155 148.831 88.9045C149.062 87.6886 149.418 85.2968 149.624 83.5834C149.834 81.8046 150 78.1315 150 75.0212C150 71.8808 149.839 68.1977 149.624 66.3285C149.413 64.5447 148.962 61.6856 148.616 59.9722C148.269 58.2588 147.562 55.4248 147.046 53.6812C146.529 51.9326 145.691 49.4203 145.18 48.0988C144.673 46.7823 143.339 43.8328 142.22 41.5465C141.107 39.2653 139.1 35.7581 137.766 33.7532C136.432 31.7483 134.41 28.9546 133.266 27.5426C132.123 26.1307 129.82 23.5982 128.145 21.9099C126.465 20.2216 123.666 17.7042 121.915 16.3124C120.165 14.9205 117.451 12.9458 115.881 11.9258C114.316 10.9008 111.572 9.30291 109.786 8.36831C108.001 7.43873 104.966 6.04186 103.04 5.26805C101.114 4.49425 98.139 3.44408 96.4235 2.93658C94.7131 2.42909 92.1749 1.77085 90.7805 1.47439C89.391 1.18296 87.0536 0.755854 85.5939 0.529742C83.8232 0.253382 80.633 0.0875662 76.0584 0.0322943C72.2763 -0.017953 68.8904 -0.0079035 68.5343 0.0523932Z" fill="white"/>
<path d="M70.6109 0.83121C70.1093 0.891507 68.4189 1.06235 66.8489 1.21309C65.2788 1.36383 62.535 1.77083 60.7493 2.11754C58.9686 2.45922 56.28 3.10238 54.7852 3.53954C53.2854 3.97166 50.7172 4.81581 49.077 5.41376C47.4317 6.00667 44.2816 7.3935 42.0696 8.49894C39.8575 9.59935 36.9983 11.1671 35.7142 11.976C34.4301 12.79 32.0926 14.4181 30.5226 15.5938C28.9526 16.7696 26.3844 18.9001 24.8143 20.3271C23.2443 21.7592 20.947 24.0806 19.708 25.4925C18.469 26.8995 16.6633 29.1053 15.6952 30.3916C14.7271 31.673 13.1972 33.8939 12.2943 35.3209C11.3864 36.7479 9.85146 39.4914 8.87333 41.4209C7.90021 43.3454 6.55089 46.325 5.87874 48.0334C5.20659 49.7469 4.26859 52.4904 3.8021 54.1335C3.33059 55.7765 2.69355 58.3442 2.38256 59.8415C2.07658 61.3389 1.65021 63.8513 1.43452 65.419C1.22385 66.9917 0.983078 70.2578 0.897805 72.6847C0.807516 75.2674 0.867708 78.5486 1.04829 80.5987C1.21382 82.5282 1.59002 85.5631 1.88597 87.3469C2.18191 89.1306 2.75876 91.8741 3.16506 93.4419C3.57136 95.0146 4.36891 97.6425 4.93573 99.2806C5.50254 100.924 6.39038 103.26 6.90703 104.471C7.4287 105.687 8.46703 107.848 9.22445 109.275C9.97686 110.702 11.276 112.978 12.1187 114.335C12.9564 115.686 14.6919 118.199 15.9761 119.912C17.3254 121.711 20.014 124.736 22.3414 127.077C24.5585 129.303 27.4829 132.007 28.8372 133.082C30.1915 134.162 32.6444 135.936 34.2846 137.026C35.9249 138.117 39.4863 140.106 42.2 141.448C44.9086 142.785 48.2945 144.287 49.7241 144.789C51.1486 145.287 53.3707 145.995 54.6548 146.362C55.9389 146.724 58.0407 147.252 59.3248 147.533C60.6089 147.814 62.826 148.231 64.2505 148.458C65.7553 148.699 69.3619 148.935 72.8129 149.02C76.3844 149.106 80.031 149.05 81.897 148.88C83.6075 148.724 86.0603 148.412 87.3444 148.196C88.6285 147.975 91.1366 147.438 92.9223 146.995C94.708 146.558 97.3916 145.784 98.8914 145.282C100.386 144.779 103.075 143.724 104.855 142.935C106.641 142.152 109.27 140.86 110.694 140.076C112.124 139.287 114.516 137.83 116.011 136.835C117.511 135.84 120.079 133.946 121.719 132.625C123.365 131.303 126.279 128.6 128.205 126.615C130.136 124.63 132.644 121.786 133.783 120.294C134.922 118.797 136.712 116.234 137.766 114.591C138.819 112.953 140.53 109.858 141.578 107.717C142.621 105.577 143.905 102.657 144.437 101.23C144.964 99.8032 145.776 97.3511 146.243 95.7784C146.704 94.2106 147.331 91.6983 147.637 90.2009C147.938 88.7035 148.36 86.2515 148.575 84.7541C148.791 83.2517 149.037 79.9856 149.127 77.4884C149.227 74.7499 149.172 71.4989 148.992 69.3131C148.826 67.3133 148.455 64.2784 148.174 62.5649C147.888 60.8515 147.251 57.907 146.755 56.0127C146.258 54.1234 145.305 51.0885 144.633 49.2695C143.966 47.4506 142.451 44.0338 141.272 41.6772C140.093 39.3256 138.277 36.1048 137.234 34.527C136.196 32.9492 134.35 30.3816 133.136 28.8239C131.922 27.2663 129.354 24.4122 127.428 22.4827C125.502 20.5532 122.492 17.865 120.736 16.5083C118.981 15.1517 116.297 13.2523 114.767 12.2876C113.242 11.3178 110.473 9.75512 108.618 8.81047C106.762 7.8608 103.963 6.57447 102.393 5.94135C100.823 5.31326 97.9634 4.33344 96.0372 3.77067C94.1111 3.2079 91.0714 2.46424 89.2907 2.11754C87.5049 1.77586 84.9367 1.36383 83.5824 1.20806C82.2281 1.0523 78.9576 0.876433 76.3192 0.826186C73.6757 0.770914 71.1075 0.770914 70.6109 0.83121Z" fill="#633394"/>
<path d="M69.703 4.08222C68.133 4.20281 65.6802 4.48419 64.2506 4.71031C62.826 4.94144 60.8999 5.28312 59.9719 5.48411C59.0439 5.68008 56.8268 6.25792 55.0411 6.77547C53.2604 7.28799 50.4564 8.24268 48.8162 8.90092C47.1759 9.55414 44.7833 10.6093 43.4992 11.2525C42.2101 11.8906 39.8776 13.187 38.3076 14.1266C36.7375 15.0713 34.1091 16.8551 32.4689 18.0962C30.8286 19.3373 28.436 21.3019 27.1519 22.4626C25.8678 23.6234 23.7911 25.7086 22.5371 27.0904C21.2831 28.4772 19.4572 30.663 18.4791 31.9493C17.501 33.2306 15.9259 35.5068 14.9729 37.0092C14.0249 38.5066 12.6204 40.9586 11.8529 42.456C11.0855 43.9534 9.9418 46.4657 9.30476 48.0335C8.66772 49.6062 7.7849 51.998 7.33847 53.3546C6.89705 54.7113 6.24998 57.0478 5.90388 58.5452C5.55777 60.0425 5.09128 62.4343 4.87057 63.8613C4.64986 65.2883 4.33385 67.9766 4.16832 69.8307C3.99276 71.7954 3.92755 74.8303 4.02286 77.0964C4.10813 79.237 4.35893 82.3925 4.58466 84.1009C4.81038 85.8143 5.23173 88.3267 5.51764 89.6834C5.80356 91.04 6.44059 93.5172 6.93217 95.1955C7.42374 96.8737 8.31158 99.5017 8.91351 101.034C9.51543 102.567 10.7193 105.225 11.5921 106.938C12.4649 108.652 13.8643 111.159 14.707 112.516C15.5497 113.872 17.2452 116.324 18.4841 117.968C19.7181 119.606 22.0556 122.339 23.6808 124.037C25.306 125.731 27.6836 128.002 28.9677 129.077C30.2518 130.152 32.178 131.68 33.2464 132.469C34.3198 133.263 36.3914 134.645 37.8561 135.539C39.3158 136.433 41.7085 137.765 43.1731 138.499C44.6328 139.227 47.0556 140.328 48.5554 140.941C50.0552 141.554 52.6234 142.463 54.2636 142.96C55.9039 143.453 58.4169 144.111 59.8415 144.423C61.271 144.729 63.6035 145.156 65.0331 145.367C66.4576 145.583 69.9588 145.825 72.813 145.91C76.0835 146.005 79.2486 145.95 81.3754 145.749C83.2313 145.578 86.266 145.156 88.122 144.815C89.9779 144.473 92.9524 143.774 94.7381 143.267C96.5238 142.754 99.3228 141.8 100.963 141.142C102.608 140.488 105.202 139.328 106.737 138.559C108.271 137.795 110.724 136.433 112.184 135.539C113.649 134.645 115.72 133.263 116.794 132.469C117.862 131.68 119.788 130.152 121.072 129.077C122.357 127.997 124.739 125.731 126.369 124.032C127.995 122.339 130.387 119.535 131.686 117.802C132.986 116.073 134.942 113.154 136.04 111.315C137.139 109.481 138.614 106.747 139.316 105.25C140.018 103.753 141.137 101.039 141.794 99.2203C142.456 97.3963 143.344 94.5372 143.77 92.859C144.191 91.1858 144.778 88.4121 145.069 86.6987C145.36 84.9853 145.731 81.89 145.887 79.8198C146.042 77.7145 146.092 74.4032 145.997 72.2978C145.907 70.2276 145.601 66.9013 145.32 64.9014C145.039 62.9016 144.527 60.1028 144.181 58.6758C143.835 57.2488 143.183 54.9123 142.727 53.4853C142.27 52.0583 141.433 49.7218 140.871 48.2947C140.304 46.8677 139.06 44.1795 138.112 42.3254C137.159 40.4712 135.448 37.5519 134.305 35.8385C133.161 34.125 131.531 31.8488 130.683 30.7786C129.83 29.7083 128.255 27.8994 127.182 26.7588C126.104 25.6182 124.172 23.7038 122.888 22.5129C121.604 21.317 119.211 19.3272 117.571 18.0911C115.931 16.8551 113.303 15.0713 111.733 14.1266C110.162 13.187 107.945 11.9459 106.802 11.3781C105.663 10.8053 103.677 9.90084 102.393 9.3632C101.109 8.83058 99.067 8.05677 97.8531 7.63972C96.6392 7.22769 94.3017 6.54433 92.6615 6.12728C91.0212 5.7052 88.2775 5.12736 86.567 4.84597C84.8515 4.56459 81.8168 4.21286 79.8204 4.06212C77.824 3.9164 75.3712 3.81088 74.373 3.83098C73.3748 3.85108 71.273 3.96665 69.703 4.08222Z" fill="white"/>
<path d="M71.5188 7.05685C70.947 7.11715 69.1963 7.28799 67.6263 7.44375C66.0563 7.60454 63.3125 8.02662 61.5268 8.38338C59.7461 8.74013 56.9421 9.43857 55.3019 9.93601C53.6616 10.4335 51.0332 11.3681 49.4632 12.0112C47.8932 12.6544 45.3852 13.8051 43.8854 14.5738C42.3856 15.3376 39.7622 16.8852 38.0467 18.0057C36.3362 19.1262 33.768 20.9854 32.3384 22.131C30.9139 23.2817 28.5312 25.4323 27.0515 26.9145C25.5667 28.3968 23.4149 30.7786 22.2662 32.2056C21.1175 33.6326 19.2565 36.2053 18.1279 37.9137C16.9993 39.6271 15.1634 42.8982 14.0449 45.1794C12.9313 47.4657 11.5318 50.7317 10.9399 52.4452C10.348 54.1586 9.52039 56.9624 9.09904 58.6758C8.67769 60.3842 8.0858 63.4242 7.78484 65.419C7.35346 68.258 7.23307 70.303 7.22304 74.7599C7.21802 78.7546 7.34844 81.4479 7.65944 83.714C7.90021 85.4978 8.3968 88.3016 8.76297 89.9396C9.12914 91.5827 9.92669 94.4418 10.5336 96.3009C11.1406 98.1551 12.3294 101.19 13.1771 103.044C14.0198 104.898 15.5798 107.878 16.6382 109.662C17.6966 111.445 19.5726 114.249 20.8065 115.887C22.0405 117.53 24.3228 120.204 25.8827 121.832C27.4377 123.455 29.8755 125.771 31.3001 126.972C32.7297 128.173 35.4734 130.213 37.3996 131.504C39.3258 132.79 42.7718 134.76 45.0541 135.881C47.3364 137.001 50.3711 138.343 51.8007 138.865C53.2252 139.388 56.1446 140.257 58.2864 140.8C60.4283 141.343 63.5784 142.001 65.2888 142.257C67.6665 142.619 69.9437 142.734 74.8896 142.739C78.8823 142.744 82.2732 142.614 83.7128 142.408C84.9969 142.222 87.214 141.835 88.6436 141.554C90.0681 141.267 92.6063 140.629 94.2866 140.137C95.962 139.644 98.5302 138.765 99.9899 138.182C101.455 137.599 104.113 136.378 105.894 135.474C107.679 134.569 110.714 132.775 112.64 131.494C114.567 130.208 117.31 128.173 118.74 126.972C120.164 125.771 122.602 123.455 124.157 121.832C125.717 120.204 128 117.53 129.233 115.887C130.467 114.249 132.343 111.445 133.402 109.662C134.46 107.878 135.995 104.959 136.808 103.175C137.62 101.391 138.809 98.356 139.451 96.4266C140.093 94.5021 140.911 91.5827 141.277 89.9396C141.643 88.3016 142.115 85.6134 142.325 83.9753C142.541 82.3322 142.797 79.4128 142.892 77.4884C143.003 75.3428 142.947 72.4687 142.752 70.092C142.576 67.9515 142.145 64.6201 141.794 62.6956C141.443 60.7711 140.871 58.1985 140.53 56.9875C140.189 55.7766 139.491 53.5556 138.975 52.0583C138.458 50.5609 137.119 47.4657 136 45.1794C134.882 42.8982 133.402 40.1547 132.72 39.0844C132.037 38.0142 130.498 35.7932 129.294 34.1552C127.894 32.2408 125.602 29.6681 122.923 27C120.425 24.5178 117.531 21.9401 115.755 20.6236C114.115 19.4076 111.717 17.7645 110.433 16.9756C109.149 16.1868 106.992 14.9859 105.633 14.3075C104.279 13.6242 101.946 12.569 100.446 11.956C98.9465 11.3429 96.3783 10.4335 94.7381 9.93099C93.0978 9.43354 90.5296 8.7753 89.0298 8.4688C87.53 8.15726 84.9618 7.74021 83.3215 7.53922C81.6813 7.33321 78.5864 7.11715 76.4445 7.06187C74.3077 7.0066 72.0906 7.00158 71.5188 7.05685Z" fill="#633394"/>
<path d="M70.6111 11.765L69.1815 11.8504C66.4628 20.5884 65.6703 23.2415 65.6753 23.3822C65.6753 23.5379 66.3023 23.6133 67.1701 23.5681C68.6398 23.4927 68.6699 23.4776 68.9758 22.528C69.2417 21.7039 69.4273 21.5431 70.27 21.3773C70.8117 21.2718 71.7547 21.1813 72.3617 21.1813C73.3749 21.1813 73.4953 21.2517 73.8514 22.0858C74.2377 22.9802 74.2678 22.9953 75.7977 22.9953C76.6554 22.9953 77.3577 22.9098 77.3627 22.7993C77.3627 22.6938 76.224 20.1211 74.8296 17.0812C73.4351 14.0412 72.2363 11.5841 72.166 11.6193C72.0958 11.6494 71.3936 11.7148 70.6111 11.765ZM84.5156 12.3931C84.4253 12.5891 83.7832 15.0813 83.081 17.9354C82.3837 20.7894 81.832 23.151 81.852 23.1862C81.8771 23.2214 82.5091 23.4224 83.2565 23.6384C84.0089 23.8545 84.666 23.9449 84.7212 23.8394C84.7714 23.7339 85.1526 22.2717 85.5639 20.5884C85.9702 18.9102 86.3665 17.5384 86.4367 17.5434C86.5069 17.5434 87.3346 19.272 88.2726 21.3773L89.973 25.2011C92.0446 25.8041 92.7118 25.9197 92.787 25.8493C92.8623 25.779 93.5043 23.4425 94.2166 20.6588C94.9239 17.8751 95.5107 15.423 95.5158 15.212C95.5208 14.9959 95.2098 14.7447 94.8085 14.6492C94.4122 14.5537 93.8003 14.398 93.4391 14.3025C92.8071 14.1367 92.777 14.197 92.0146 17.1415C91.5882 18.7946 91.1167 20.1463 90.9762 20.1412C90.8358 20.1412 90.0232 18.5886 89.1805 16.6993C88.3378 14.81 87.5202 13.1167 87.3647 12.9408C87.2092 12.7599 86.6775 12.5438 86.1759 12.4584C85.6793 12.373 85.1375 12.2424 84.972 12.172C84.8115 12.1017 84.6058 12.2022 84.5156 12.3931ZM53.4963 15.3828C52.8643 15.5989 52.3677 15.8803 52.3978 16.0109C52.4229 16.1416 53.2204 18.5534 54.1684 21.3723C55.1115 24.1912 55.899 26.5377 55.919 26.5829C55.9341 26.6281 57.2934 26.2362 58.9337 25.7036C60.5739 25.176 61.9784 24.6987 62.0487 24.6434C62.1189 24.5881 62.0035 24.0153 61.7878 23.3721C61.5721 22.729 61.3414 22.2014 61.2712 22.2064C61.1959 22.2064 60.4385 22.4476 59.5808 22.734C58.728 23.0254 57.9957 23.2616 57.9606 23.2566C57.9255 23.2566 57.2834 21.3874 56.536 19.1011C55.7836 16.8149 55.0563 14.9557 54.9108 14.9708C54.7704 14.9808 54.1333 15.1668 53.4963 15.3828Z" fill="white"/>
<path d="M70.7462 16.3124C70.686 16.4933 70.5054 17.1616 70.3499 17.8047C70.1944 18.4479 70.1041 19.0056 70.1443 19.0508C70.1844 19.091 70.7011 19.0307 71.2879 18.9202L72.3564 18.7142C71.5036 16.5887 71.1676 15.9757 71.0572 15.9807C70.9469 15.9858 70.8064 16.1365 70.7462 16.3124Z" fill="#633394"/>
<path d="M103.175 19.3121C102.839 19.8397 101.51 22.0205 100.211 24.161C98.3749 27.2009 97.9285 28.1205 98.1793 28.3516C98.3549 28.5124 99.4333 29.1807 100.577 29.8389C101.716 30.4972 103.12 31.1052 103.692 31.1906C104.259 31.276 105.197 31.2258 105.764 31.075C106.335 30.9243 107.208 30.5374 107.7 30.2057C108.191 29.8791 108.868 29.2058 109.205 28.7033C109.536 28.2059 109.932 27.3266 110.087 26.7588C110.283 26.0201 110.278 25.3468 110.072 24.4223C109.912 23.7088 109.511 22.7189 109.179 22.2164C108.813 21.6637 107.635 20.7291 106.18 19.8297L103.782 18.3524M42.461 20.7492C42.0296 20.9452 40.7756 21.6788 39.6771 22.3772L37.6707 23.6434C42.3406 31.0851 43.71 33.2758 43.725 33.3211C43.7401 33.3613 44.3069 33.0698 44.979 32.6678C45.6562 32.2709 46.208 31.8589 46.213 31.7533C46.218 31.6478 45.8117 30.9142 45.3151 30.1304C44.8135 29.3415 44.5226 28.6481 44.663 28.5727C44.8085 28.5024 45.7716 28.8692 46.8049 29.3867L48.6859 30.3314C51.0083 28.7687 51.5952 28.2461 51.4849 28.1607C51.3695 28.0753 50.1957 27.608 48.8715 27.1206C47.5473 26.6382 46.4688 26.1809 46.4788 26.1106C46.4889 26.0402 46.6695 25.7438 46.8801 25.4624C47.0958 25.176 47.2664 24.563 47.2613 24.1007C47.2613 23.6334 47.0958 22.935 46.8952 22.543C46.6945 22.1511 46.2581 21.5632 45.9221 21.2366C45.576 20.905 44.8637 20.5934 44.2768 20.5231C43.6749 20.4477 42.9124 20.5432 42.461 20.7492Z" fill="white"/>
<path d="M103.391 24.7439C102.558 26.1357 101.846 27.3617 101.811 27.4723C101.771 27.5778 102.152 27.8391 102.653 28.0552C103.15 28.2712 103.882 28.4471 104.274 28.4521C104.665 28.4571 105.307 28.226 105.698 27.9346C106.094 27.6431 106.591 27.0552 106.802 26.6281C107.017 26.201 107.193 25.4423 107.193 24.9398C107.193 24.2514 106.977 23.8193 106.285 23.1259C105.783 22.6234 105.272 22.2164 105.141 22.2164C105.016 22.2164 104.229 23.357 103.391 24.7439ZM42.3304 23.548C41.9743 23.6937 41.6533 23.8595 41.6181 23.9198C41.578 23.9851 41.8439 24.558 42.2 25.2011C42.7618 26.2161 42.9173 26.3367 43.3687 26.1106C43.6547 25.9649 44.0008 25.6182 44.1462 25.3318C44.2867 25.0453 44.4071 24.6936 44.4071 24.5529C44.4071 24.4072 44.1713 24.0605 43.8854 23.7741C43.5995 23.4877 43.2785 23.2616 43.1731 23.2716C43.0678 23.2817 42.6866 23.4073 42.3304 23.548Z" fill="#633394"/>
<path d="M68.9205 27.2964C67.4959 27.4924 65.4544 27.8441 64.381 28.0803C63.3126 28.3165 61.2108 28.9144 59.711 29.4068C58.2163 29.9043 55.7032 30.9343 54.1332 31.7031C52.5632 32.4669 50.2307 33.7783 48.9466 34.6175C47.6625 35.4516 45.7363 36.8434 44.6629 37.7026C43.5945 38.5669 41.6081 40.4361 40.2538 41.8581C38.8994 43.2851 37.0034 45.5462 36.0453 46.8878C35.0872 48.2345 33.7179 50.385 33.0006 51.6663C32.2833 52.9527 31.1747 55.2892 30.5377 56.8569C29.9006 58.4296 29.078 60.8214 28.7169 62.1781C28.3557 63.5347 27.8792 65.6351 27.6484 66.846C27.4227 68.062 27.1769 71.0366 27.1017 73.4636C27.0014 76.6693 27.0766 78.7245 27.3726 80.9906C27.5983 82.704 28.125 85.4475 28.5463 87.0856C28.9677 88.7287 29.6799 91.0049 30.1314 92.1455C30.5828 93.2911 31.5409 95.3915 32.2582 96.8185C32.9805 98.2455 34.2295 100.396 35.0321 101.597C35.8346 102.803 37.4348 104.903 38.5834 106.27C39.7321 107.637 41.7787 109.727 43.123 110.913C44.4723 112.099 46.7997 113.892 48.2945 114.892C49.7943 115.897 52.4227 117.4 54.1332 118.229C55.8487 119.058 58.5323 120.143 60.1023 120.646C61.6723 121.148 64.1252 121.796 65.5497 122.088C66.9793 122.379 69.6629 122.741 71.5188 122.892C73.9014 123.088 75.9179 123.088 78.3908 122.892C80.317 122.741 83.0608 122.379 84.4903 122.093C85.9149 121.806 88.4831 121.108 90.1986 120.54C91.9091 119.972 94.5977 118.882 96.1677 118.113C97.7327 117.344 100.246 115.892 101.746 114.892C103.24 113.887 105.578 112.089 106.932 110.893C108.286 109.702 110.373 107.561 111.562 106.144C112.751 104.727 114.336 102.632 115.083 101.486C115.826 100.346 116.859 98.6525 117.366 97.728C117.877 96.7984 118.76 94.9292 119.322 93.5725C119.884 92.2158 120.656 90.0602 121.032 88.7739C121.413 87.4876 121.955 85.2717 122.246 83.8447C122.552 82.3021 122.833 79.5636 122.928 77.0965C123.034 74.4585 122.973 71.8104 122.773 69.8307C122.597 68.1173 122.071 65.1979 121.604 63.3438C121.133 61.4897 120.27 58.7462 119.683 57.2488C119.096 55.7464 117.942 53.3195 117.12 51.8523C116.297 50.385 114.868 48.1189 113.94 46.8125C113.012 45.5111 111.141 43.2801 109.786 41.8581C108.432 40.4361 106.446 38.5669 105.377 37.7026C104.304 36.8434 102.378 35.4465 101.093 34.6074C99.8093 33.7683 97.5923 32.5121 96.1677 31.8187C94.7381 31.1253 92.6364 30.2108 91.4927 29.7887C90.3541 29.3666 88.1922 28.7184 86.6974 28.3516C85.1976 27.9798 82.5993 27.4974 80.9239 27.2814C79.2435 27.0653 76.4446 26.8995 74.694 26.9146C72.9484 26.9296 70.3501 27.1005 68.9205 27.2964Z" fill="white"/>
<path d="M70.6109 30.266C69.397 30.3967 67.4107 30.6931 66.1968 30.9343C64.9879 31.1705 62.7658 31.7634 61.271 32.2508C59.7712 32.7382 57.7548 33.512 56.7867 33.9693C55.8186 34.4265 55.0361 34.8586 55.0461 34.934C55.0561 35.0043 55.6129 35.4616 56.2851 35.954L57.509 36.8434C59.9217 35.9188 61.7275 35.3109 63.0868 34.8938C64.4412 34.4818 66.5429 33.9642 67.7568 33.7482C68.9707 33.5271 71.4787 33.2809 73.3346 33.1954C75.3561 33.105 77.7939 33.1703 79.4291 33.3562C80.9289 33.5321 83.3216 33.9441 84.7512 34.2758C86.1757 34.6074 88.4229 35.3008 89.7421 35.8133C91.0614 36.3258 92.2602 36.7479 92.4057 36.7479C92.5461 36.7479 93.1832 36.366 93.8202 35.9038C94.4572 35.4415 94.9839 35.0043 94.994 34.934C95.004 34.8586 94.2215 34.4265 93.2534 33.9693C92.2853 33.507 90.7955 32.8889 89.9378 32.5925C89.08 32.301 87.2742 31.7785 85.9149 31.4418C84.5606 31.1001 82.6043 30.6982 81.571 30.5424C80.5377 30.3866 78.145 30.2108 76.254 30.1454C74.3629 30.0851 71.8248 30.1404 70.6109 30.266Z" fill="#00A7E1"/>
<path d="M114.973 31.5122C114.331 31.9142 113.493 32.7031 113.107 33.2658C112.721 33.8236 112.284 34.8386 112.134 35.5169C111.948 36.346 111.943 37.1499 112.119 37.979C112.259 38.6573 112.726 39.7075 113.157 40.3155C113.588 40.9235 114.316 41.6923 114.782 42.0289C115.244 42.3706 116.031 42.7776 116.533 42.9434C117.029 43.1093 117.937 43.2399 118.544 43.2399C119.151 43.2349 119.969 43.1093 120.36 42.9585C120.751 42.8078 121.524 42.3706 122.076 41.9887C122.632 41.6018 123.355 40.823 123.691 40.2502C124.027 39.6824 124.373 38.6875 124.463 38.0443C124.554 37.4012 124.503 36.4113 124.353 35.8385C124.197 35.2707 123.721 34.2456 123.284 33.5673C122.768 32.7533 122.035 32.075 121.138 31.5624C119.984 30.9042 119.497 30.7836 117.957 30.7836C116.412 30.7786 115.971 30.8891 114.973 31.5122ZM29.7452 31.3363C29.3188 31.4971 28.5614 31.9242 28.0598 32.296C27.5582 32.6629 27.0014 33.1452 26.8108 33.3663C26.6252 33.5824 26.1888 34.3461 25.8427 35.0596C25.4263 35.9138 25.2106 36.8032 25.2157 37.6574C25.2157 38.3709 25.4314 39.4211 25.6872 39.9889C25.948 40.5617 26.6452 41.4662 27.2421 42.0038C27.8792 42.5817 28.8724 43.1394 29.6799 43.3756C30.5578 43.6368 31.4155 43.7122 32.0826 43.6017C32.6495 43.5062 33.5273 43.2248 34.0289 42.9736C34.5255 42.7274 35.4334 41.9586 36.0503 41.2601C36.6623 40.5617 37.2893 39.5819 37.4448 39.0844C37.6003 38.582 37.6805 37.4564 37.6254 36.5771C37.5501 35.3109 37.3645 34.7481 36.7375 33.8537C36.3011 33.2357 35.4434 32.3764 34.8314 31.9493C33.9285 31.3162 33.4219 31.1605 32.1228 31.1102C31.245 31.0801 30.1715 31.1806 29.7452 31.3363Z" fill="white"/>
<path d="M116.819 34.0949C116.312 34.3511 115.74 34.9541 115.46 35.5169C115.194 36.0495 114.973 36.753 114.968 37.0745C114.963 37.3911 115.234 38.0644 115.565 38.5619C115.896 39.0643 116.453 39.6221 116.804 39.808C117.175 40.004 117.927 40.0944 118.61 40.0241C119.538 39.9286 119.949 39.7175 120.621 38.9739C121.253 38.2704 121.464 37.8082 121.459 37.0745C121.459 36.5369 121.248 35.748 120.992 35.3209C120.731 34.8938 120.094 34.3361 119.568 34.0899C119.041 33.8386 118.404 33.6376 118.153 33.6376C117.902 33.6427 117.305 33.8487 116.819 34.0949ZM29.359 35.1601C28.5313 36.0143 28.3758 36.351 28.3508 37.366C28.3207 38.4111 28.436 38.6825 29.2286 39.4713C30.0211 40.2703 30.297 40.3808 31.4306 40.3808C32.484 40.3808 32.8803 40.2451 33.5223 39.6673C33.9637 39.2754 34.4352 38.6021 34.5757 38.175C34.7663 37.577 34.7211 37.1298 34.36 36.2555C34.1042 35.6274 33.5775 34.8988 33.1812 34.6325C32.7749 34.3612 32.0125 34.1552 31.4005 34.1552C30.5026 34.1552 30.1816 34.3109 29.359 35.1601Z" fill="#633394"/>
<path d="M68.143 35.1802C66.7184 35.4314 65.023 35.7882 64.3809 35.9641C63.7389 36.1399 62.2541 36.6223 61.0754 37.0343L58.9335 37.788C61.7475 40.8029 63.2373 42.5816 64.0599 43.6871C64.8825 44.7925 66.0964 46.6366 66.7585 47.7772C67.4207 48.9178 68.4239 50.9026 68.9907 52.1889C69.5575 53.4702 70.3801 55.6308 70.8115 56.9875C71.2429 58.3442 71.8448 60.6204 72.1458 62.0474C72.4518 63.4744 72.838 65.7958 73.0136 67.2028L73.3346 69.7654H76.7054C77.202 65.7958 77.5882 63.4744 77.8942 62.0474C78.1951 60.6204 78.7971 58.3442 79.2285 56.9875C79.6598 55.6308 80.4825 53.4702 81.0493 52.1889C81.6161 50.9026 82.6193 48.9178 83.2814 47.7772C83.9435 46.6366 85.1775 44.7674 86.0252 43.6217C86.8729 42.4811 88.3627 40.7325 89.3358 39.7326C90.5296 38.5015 90.9961 37.8584 90.7804 37.7328C90.5998 37.6272 89.2305 37.1348 87.7307 36.6374C86.2359 36.1399 83.6376 35.4917 81.9622 35.2003C79.705 34.8084 77.844 34.6777 74.8244 34.6928C72.1307 34.7079 69.8534 34.8737 68.143 35.1802ZM50.3561 37.4916C48.8663 38.4714 47.5019 39.4613 47.3213 39.6974C47.0354 40.0693 47.1959 40.1798 48.6857 40.6421L50.3711 41.1596C52.0816 39.9989 53.3958 39.195 54.394 38.6221L56.2098 37.582C54.1984 36.1399 53.4911 35.7178 53.3406 35.7178C53.1901 35.7128 51.8458 36.5118 50.3561 37.4916ZM95.1293 36.6474L93.8302 37.572C96.4435 39.0593 97.7577 39.8683 98.4349 40.3255L99.6689 41.1596C102.844 40.1798 103.005 40.0693 102.719 39.6974C102.538 39.4613 101.169 38.4664 99.6689 37.4815C98.1691 36.5017 96.8248 35.7028 96.6843 35.7078C96.5439 35.7178 95.8416 36.1399 95.1293 36.6474ZM55.8035 39.4211C55.026 39.8532 53.8422 40.5667 53.165 41.0089L51.9361 41.8078C56.1546 44.4207 57.8551 45.7974 59.7361 47.6465C61.5368 49.4152 63.0417 51.189 64.0248 52.7064C64.8575 53.9928 65.976 56.0629 66.5178 57.3141C67.0545 58.5602 67.7768 60.6606 68.1229 61.9821C68.469 63.3036 68.8201 65.1426 68.9104 66.0672C69.0007 66.9967 69.1261 68.2529 69.1913 68.8609L69.3117 69.9613H71.6492C71.6442 68.0519 71.4636 66.3887 71.2429 65.0321C71.0272 63.6754 70.5507 61.3992 70.1895 59.9722C69.8234 58.5452 69.1462 56.3845 68.6797 55.1685C68.2082 53.9576 67.3003 51.9125 66.6532 50.6312C66.0112 49.3449 64.7772 47.2446 63.9195 45.9582C63.0617 44.6769 61.3864 42.5866 60.1925 41.3204C58.9987 40.0542 57.845 38.9337 57.6193 38.8282C57.3685 38.7076 56.6863 38.9337 55.8035 39.4211ZM90.6901 40.4461C89.6819 41.4812 88.3878 42.9082 87.8109 43.6217C87.2341 44.3352 86.2359 45.7371 85.5938 46.7371C84.9518 47.737 83.9285 49.5459 83.3216 50.7619C82.7146 51.9728 81.8418 53.9576 81.3803 55.1685C80.9189 56.3845 80.2367 58.5452 79.8605 59.9722C79.4893 61.3992 79.0027 63.7357 78.787 65.1627C78.5713 66.5897 78.3958 68.2529 78.3958 68.8609L78.3908 69.9613H80.7283C80.9439 67.6499 81.1295 66.042 81.28 64.9014C81.4305 63.7608 81.9371 61.6605 82.4036 60.2284C82.8701 58.8014 83.6325 56.8769 84.099 55.9474C84.5605 55.0228 85.4785 53.4451 86.1356 52.4451C86.7927 51.4452 88.3276 49.5961 89.5415 48.3349C90.7604 47.0687 92.516 45.4809 93.4389 44.7975C94.3669 44.1142 95.8266 43.1796 96.6843 42.7173L98.2393 41.8731C96.2278 40.5868 95.0039 39.8482 94.2214 39.3959C93.4339 38.9487 92.7317 38.5769 92.6564 38.5719C92.5812 38.5669 91.6984 39.411 90.6901 40.4461Z" fill="#00A7E1"/>
<path fill-rule="evenodd" clip-rule="evenodd" d="M43.2032 43.2449L44.4121 44.4006L43.6647 45.1794C43.2533 45.6115 42.2752 46.8376 41.4827 47.9078C40.6952 48.9781 39.4512 50.9026 38.7188 52.1889C37.9865 53.4702 36.908 55.7464 36.3262 57.2488C35.7393 58.7462 34.9969 61.0224 34.6709 62.3087C34.3499 63.59 33.9385 65.6954 33.768 66.9767C33.5724 68.4238 33.4921 71.0417 33.5674 73.8555C33.6627 77.609 33.8081 78.9305 34.4 81.5082C34.7963 83.2216 35.4133 85.4375 35.7694 86.4374C36.1255 87.4373 36.9181 89.3065 37.525 90.5878C38.137 91.8741 39.4963 94.2106 40.5447 95.7784C41.6332 97.4064 43.5694 99.7881 45.0491 101.326C46.4787 102.808 48.6005 104.732 49.7642 105.607C50.9279 106.481 52.8541 107.777 54.0479 108.486C55.2367 109.194 57.3785 110.27 58.8031 110.873C60.2327 111.476 62.51 112.27 63.8643 112.636C65.2186 113.003 67.3806 113.475 68.6647 113.686C69.9989 113.908 72.6926 114.073 74.9548 114.073C77.1318 114.073 79.7602 113.948 80.7935 113.792C81.8268 113.636 83.8432 113.224 85.2678 112.872C86.6974 112.526 88.9145 111.822 90.1986 111.315C91.4827 110.802 93.4088 109.918 94.4773 109.34C95.5507 108.762 97.4769 107.581 98.761 106.717C100.16 105.773 102.403 103.838 104.359 101.888C106.747 99.5067 108.151 97.8335 109.596 95.6477C110.684 94.0097 112.059 91.6129 112.655 90.3316C113.247 89.0452 114.065 87.0052 114.476 85.7892C114.883 84.5783 115.479 82.4176 115.8 80.9906C116.302 78.7395 116.382 77.6341 116.392 72.6847C116.397 68.1323 116.307 66.5043 115.926 64.6402C115.66 63.3589 115.048 61.0827 114.557 59.5803C114.065 58.0829 113.092 55.6911 112.395 54.2641C111.697 52.8371 110.463 50.6765 109.651 49.4605C108.838 48.2495 107.659 46.6416 107.032 45.8929C106.405 45.1442 105.889 44.4458 105.884 44.3353C105.884 44.2297 106.084 43.9433 106.34 43.6971C106.782 43.27 106.867 43.3203 108.116 44.7322C108.838 45.5512 110.017 46.9783 110.734 47.9078C111.457 48.8324 112.47 50.2644 112.992 51.0835C113.513 51.9025 114.506 53.7164 115.204 55.1083C115.901 56.4951 116.889 58.8617 117.401 60.3591C117.907 61.8615 118.554 64.1377 118.84 65.419C119.121 66.7053 119.492 69.0418 119.663 70.6095C119.843 72.2928 119.909 74.8504 119.818 76.8352C119.733 78.6943 119.472 81.3222 119.236 82.6739C119.006 84.0306 118.414 86.4826 117.922 88.1257C117.421 89.819 116.262 92.6781 115.249 94.7433C114.266 96.7381 112.811 99.3107 112.008 100.451C111.211 101.592 109.651 103.567 108.547 104.838C107.444 106.109 105.493 108.029 104.208 109.104C102.924 110.174 100.762 111.782 99.408 112.676C98.0537 113.566 95.7162 114.872 94.2214 115.576C92.7216 116.284 90.3842 117.224 89.0298 117.671C87.6755 118.113 85.4584 118.721 84.0991 119.023C82.2682 119.425 80.332 119.601 76.575 119.706C73.3446 119.797 70.6761 119.736 69.1813 119.54C67.8972 119.369 65.7403 118.957 64.381 118.626C63.0266 118.294 60.7493 117.586 59.3248 117.053C57.8952 116.52 55.8537 115.641 54.7852 115.103C53.7118 114.566 51.7857 113.435 50.5015 112.591C49.2174 111.747 47.1157 110.174 45.8316 109.094C44.5475 108.019 42.7969 106.345 41.9391 105.376C41.0814 104.406 39.5916 102.552 38.6285 101.255C37.6103 99.8936 36.0503 97.2456 34.9367 94.9995C33.7529 92.6228 32.6544 89.9497 32.1127 88.1257C31.6261 86.4826 31.0142 83.9753 30.7584 82.5483C30.4123 80.6389 30.2919 78.6441 30.2919 75.0212C30.2919 71.3984 30.4123 69.4036 30.7584 67.4942C31.0142 66.0672 31.6312 63.5598 32.1277 61.9168C32.6243 60.2787 33.6727 57.5905 34.4502 55.9474C35.2327 54.3093 36.3513 52.204 36.9331 51.2794C37.515 50.3499 38.5834 48.8324 39.3007 47.9078C40.023 46.9783 41.1968 45.5512 41.909 44.7322M76.3192 71.4085C80.1815 71.4788 82.4137 71.6496 84.4903 72.0265C86.4867 72.3933 87.4397 72.6898 87.6604 73.0063C87.836 73.2576 88.2022 74.0464 88.4731 74.76C88.7439 75.4735 89.0348 76.6141 89.2907 78.5235H75.1504C65.8958 78.5235 61.0102 78.433 61.0102 78.2672C61.0102 78.1215 61.1406 77.3929 61.3011 76.6442C61.4566 75.8955 61.8679 74.6695 62.209 73.9208C62.8009 72.6043 62.8761 72.5441 64.1903 72.2878C64.9377 72.137 66.3071 71.9059 67.2351 71.7753C68.1631 71.6396 69.392 71.4788 69.9588 71.4185C70.5306 71.3582 73.3898 71.3532 76.3192 71.4085ZM59.3248 80.0962C60.6139 80.1063 60.6189 80.1113 59.9718 80.5283C59.6157 80.7595 58.2112 82.0659 56.8519 83.4326C54.7652 85.5279 54.1733 86.3218 51.8007 91.0149L48.1691 90.834C46.1677 90.7335 44.5074 90.6079 44.4672 90.5527C44.4321 90.5024 44.7732 89.9045 45.2247 89.2261C45.6761 88.5478 46.9452 87.1208 48.0387 86.0505C49.1322 84.9802 50.6621 83.7241 51.4345 83.2668C52.207 82.8045 54.0027 81.9001 55.4323 81.2569C57.4287 80.3525 58.3216 80.0862 59.3248 80.0962ZM66.0714 80.0761C67.4959 80.0711 68.7449 80.1565 68.8503 80.267C68.9506 80.3776 68.7449 81.0258 68.3938 81.7041C68.0427 82.3825 67.4759 83.8999 67.1398 85.0757C66.7987 86.2515 66.3623 88.0654 65.8105 90.9848L53.7469 90.9797L54.0228 90.2662C54.1783 89.8743 54.6398 88.9096 55.0561 88.1257C55.4724 87.3419 56.3101 86.1108 56.9171 85.3923C57.529 84.6737 58.4921 83.6688 59.0639 83.1512C59.6358 82.6387 60.8597 81.7393 61.7877 81.1514C63.468 80.0912 63.4831 80.0862 66.0714 80.0761ZM70.9269 80.0811H79.4291L79.9207 80.9253C80.1916 81.3876 80.7233 82.6437 81.1095 83.714C81.4907 84.7843 82.0274 86.5932 82.3033 87.7338C82.5742 88.8794 82.7999 90.1306 82.8049 91.241H75.1504C67.6665 91.241 67.4959 91.226 67.4959 90.7185C67.4959 90.4321 67.6665 89.412 67.8721 88.4473C68.0778 87.4876 68.4991 85.8797 68.8051 84.8797C69.1111 83.8848 69.713 82.3925 70.1444 81.5735M84.1643 80.0862C86.5619 80.0912 86.9381 80.1615 87.9915 80.7745C88.6336 81.1514 89.8625 82.0106 90.7152 82.6839C91.573 83.3573 92.817 84.5984 93.4841 85.4325C94.1462 86.2716 95.1093 87.774 95.6159 88.7739C96.1275 89.7738 96.5489 90.6783 96.5489 90.7838C96.5539 90.8893 93.8402 90.9798 84.4903 90.9848L84.1392 88.9699C83.9486 87.8644 83.4971 86.0254 83.136 84.8797C82.7798 83.7391 82.2632 82.3674 81.9973 81.8348C81.7265 81.2971 81.5058 80.6841 81.5058 80.468C81.5058 80.1515 81.9722 80.0811 84.1643 80.0862ZM89.712 80.0811L91.3824 80.0761C92.8621 80.0761 93.3336 80.2168 95.5206 81.3122C96.8749 81.9905 98.9064 83.2467 100.035 84.1009C101.164 84.9601 102.608 86.2414 103.245 86.955C103.882 87.6685 104.74 88.7488 105.146 89.3568C105.558 89.9648 105.864 90.5024 105.829 90.5527C105.793 90.6079 104.128 90.7335 98.5001 91.0149L97.4417 88.8543C96.8599 87.6685 95.8266 85.9952 95.1444 85.141C94.4672 84.2868 93.5443 83.2517 93.0928 82.8447C92.6414 82.4377 91.6984 81.6488 90.9911 81.0911M43.8854 87.8644C44.0308 87.8644 44.1462 87.9247 44.1462 87.9951C44.1462 88.0654 43.8402 88.6232 43.464 89.2261C43.0878 89.8341 42.7317 90.3868 42.6815 90.4622C42.6263 90.5326 42.4608 90.4723 42.3204 90.3316C42.1448 90.1557 42.3204 89.7035 42.842 88.9699C43.2784 88.3619 43.7449 87.8644 43.8854 87.8644ZM106.506 88.1207C106.671 88.1157 107.078 88.4975 107.414 88.9648C107.75 89.4271 107.92 89.8994 107.8 90.01C107.68 90.1155 107.273 89.7386 106.892 89.1658C106.516 88.593 106.34 88.1207 106.506 88.1207ZM42.0696 92.2309L51.9913 92.447C57.4538 92.5676 67.9875 92.6681 75.4113 92.6681C82.83 92.6681 93.1932 92.5776 107.97 92.2761L107.514 93.0751C107.268 93.5122 106.742 94.2709 105.633 95.6477H44.407L43.6897 94.7583C43.2985 94.2709 42.7718 93.5022 42.521 93.0499M75.02 96.9491C98.0888 96.9491 104.083 97.0144 104.088 97.2707C104.093 97.4516 102.869 98.7932 98.6306 102.913H51.4094L48.6757 100.255C47.1709 98.7932 45.947 97.4516 45.952 97.2707C45.957 97.0144 51.9512 96.9491 75.02 96.9491Z" fill="#633394"/>
<path d="M54.4293 104.798C54.5848 104.974 56.0444 105.783 57.6696 106.587C59.2898 107.396 61.7276 108.411 63.087 108.848C64.4413 109.285 66.543 109.853 67.7569 110.109C69.4373 110.461 71.1578 110.571 75.0202 110.571C78.8825 110.571 80.603 110.461 82.2834 110.109C83.4973 109.853 85.599 109.29 86.9533 108.853C88.3127 108.421 90.7505 107.401 92.3707 106.592C93.9959 105.783 95.4556 104.969 95.6161 104.783C95.8518 104.511 92.0898 104.451 75.0252 104.461C58.3418 104.471 54.1985 104.536 54.4293 104.798Z" fill="#00A7E1"/>
<path d="M49.6489 122.153C49.5084 122.49 48.5002 124.751 47.4117 127.178C46.3283 129.605 45.4404 131.675 45.4404 131.78C45.4404 131.891 45.9972 132.213 46.6744 132.504C47.3515 132.79 47.9936 133.027 48.104 133.022C48.2093 133.017 48.2946 132.926 48.2895 132.821C48.2845 132.715 48.5755 131.956 48.9366 131.132L49.5937 129.64C51.5048 130.464 52.4679 130.765 52.9645 130.841C53.6467 130.946 54.1032 130.831 54.7853 130.374C55.2819 130.042 55.9541 129.243 56.2751 128.6C56.6011 127.962 56.867 127.087 56.867 126.66C56.872 126.228 56.6062 125.469 56.2751 124.972C55.8437 124.314 55.0662 123.761 53.4812 122.982C52.2723 122.389 50.9731 121.821 50.5969 121.726C50.0301 121.575 49.8646 121.651 49.6489 122.153ZM96.4236 122.987C95.1395 123.58 93.9456 124.153 93.7651 124.258C93.5293 124.399 94.061 125.821 95.7715 129.575C97.6575 133.72 98.1892 134.685 98.5604 134.604C98.8112 134.549 100.13 133.991 101.485 133.353C102.839 132.72 103.983 132.182 104.023 132.152C104.063 132.127 103.892 131.64 103.642 131.067C103.391 130.499 103.155 129.972 103.115 129.901C103.075 129.831 102.368 130.092 101.55 130.479C100.727 130.866 99.9699 131.188 99.8646 131.193C99.7542 131.198 99.5486 130.821 99.4081 130.353C99.2125 129.725 99.2275 129.464 99.4733 129.323C99.6489 129.218 100.291 128.926 100.898 128.67C101.505 128.419 102.006 128.158 102.006 128.087C102.011 128.012 101.836 127.52 101.62 126.982C101.405 126.449 101.078 126.012 100.898 126.017C100.722 126.017 100.05 126.253 99.4081 126.54C98.7661 126.826 98.1842 127.062 98.109 127.067C98.0387 127.067 97.808 126.711 97.5923 126.278C97.3766 125.841 97.2612 125.454 97.3315 125.414C97.4067 125.374 98.1039 125.057 98.8915 124.711C99.674 124.364 100.351 124.078 100.386 124.073C100.426 124.068 100.281 123.565 100.065 122.962C99.7943 122.213 99.5235 121.867 99.2125 121.882C98.9617 121.892 97.7077 122.389 96.4236 122.987Z" fill="white"/>
<path d="M51.1186 126.173C50.8076 126.831 50.5668 127.414 50.5919 127.469C50.6119 127.525 51.1136 127.71 51.7004 127.891C52.7137 128.198 52.7939 128.183 53.2654 127.565C53.5413 127.208 53.762 126.711 53.757 126.464C53.752 126.213 53.3658 125.776 52.9043 125.49C52.4378 125.208 51.9763 124.972 51.876 124.972C51.7707 124.972 51.4346 125.51 51.1186 126.173Z" fill="#633394"/>
<path d="M60.9099 126.982C60.8196 127.52 60.3681 130.022 59.9067 132.549L59.064 137.142C60.9751 137.564 61.6472 137.685 61.7877 137.685C61.9331 137.685 62.1689 136.956 62.3144 136.062C62.4598 135.172 62.6354 134.413 62.7006 134.378C62.7708 134.343 62.9113 134.358 63.0216 134.413C63.127 134.469 63.5383 135.343 63.9295 136.358C64.4663 137.755 64.7823 138.237 65.2237 138.338C65.5447 138.413 66.3623 138.559 67.0345 138.664C67.7116 138.77 68.2634 138.825 68.2684 138.79C68.2734 138.755 67.7467 137.674 67.1047 136.388C66.4626 135.102 65.936 133.966 65.936 133.861C65.936 133.75 66.3122 133.549 66.7736 133.403C67.2702 133.253 67.8571 132.775 68.2132 132.238C68.6246 131.605 68.8051 130.956 68.8001 130.097C68.7951 129.188 68.6346 128.675 68.1882 128.148C67.8521 127.756 67.2401 127.298 66.8238 127.128C66.4075 126.957 65.1334 126.635 63.9947 126.409C62.8511 126.183 61.7275 126.002 61.4917 126.007C61.2058 126.007 61.0152 126.319 60.9099 126.982ZM83.0608 127.007C80.9741 127.429 80.8587 127.489 80.9239 128.092C80.959 128.444 81.4105 130.951 81.9271 133.665C82.4388 136.373 82.8752 138.629 82.8952 138.669C82.9153 138.715 84.1593 138.509 85.6591 138.212C87.4097 137.865 88.7289 137.443 89.3559 137.031C89.8876 136.68 90.6099 135.891 90.956 135.288C91.3021 134.68 91.6683 133.775 91.7636 133.273C91.8639 132.775 91.8087 131.78 91.6482 131.067C91.4777 130.313 91.0062 129.349 90.5196 128.761C90.0581 128.208 89.2104 127.52 88.6436 127.243C88.0718 126.962 87.0786 126.695 86.4366 126.645C85.7945 126.6 84.2746 126.761 83.0608 127.007ZM73.465 133.534V139.242H76.3192V127.826H73.465" fill="white"/>
<path d="M63.5033 129.449C63.418 129.771 63.3528 130.353 63.3478 130.745C63.3478 131.243 63.5033 131.499 63.8644 131.59C64.1503 131.66 64.677 131.544 65.0332 131.328C65.4445 131.077 65.6802 130.705 65.6802 130.288C65.6802 129.906 65.4395 129.484 65.0984 129.253C64.7774 129.037 64.3209 128.861 64.0851 128.861C63.8494 128.861 63.5835 129.127 63.5033 129.449ZM84.6861 129.278C84.2747 129.354 84.1393 129.519 84.2246 129.836C84.2948 130.087 84.5356 131.283 84.7563 132.494C84.982 133.71 85.2178 134.906 85.283 135.157C85.3733 135.509 85.5839 135.579 86.241 135.474C86.7075 135.393 87.4098 135.016 87.806 134.63C88.1973 134.243 88.5885 133.574 88.6638 133.147C88.739 132.715 88.6487 131.911 88.4631 131.353C88.2776 130.796 87.8311 130.127 87.475 129.866C87.1188 129.605 86.4768 129.338 86.0454 129.283C85.619 129.223 85.0071 129.223 84.6861 129.278Z" fill="#633394"/>
</g>
<defs>
<clipPath id="clip0_68_330">
<rect width="150" height="150" fill="white"/>
</clipPath>
</defs>
</svg>
