<svg width="150" height="150" viewBox="0 0 150 150" fill="none" xmlns="http://www.w3.org/2000/svg">
<g clip-path="url(#clip0_68_363)">
<path d="M75.0211 150.469C116.123 150.469 149.442 116.881 149.442 75.4478C149.442 34.0146 116.123 0.426422 75.0211 0.426422C33.9195 0.426422 0.599976 34.0146 0.599976 75.4478C0.599976 116.881 33.9195 150.469 75.0211 150.469Z" fill="#971E1F"/>
<mask id="mask0_68_363" style="mask-type:luminance" maskUnits="userSpaceOnUse" x="0" y="0" width="150" height="150">
<path d="M0 150H150V0H0V150Z" fill="white"/>
</mask>
<g mask="url(#mask0_68_363)">
<path d="M21.3348 48.1967L22.2468 48.5951C22.81 48.8419 22.8036 49.1773 22.5364 49.7951L20.5956 54.3048L18.3236 53.3128L20.2676 48.8015C20.5332 48.1838 20.7716 47.9499 21.3348 48.1967ZM25.4004 56.4096L22.0708 54.9515L24.4004 49.5386C24.9684 48.2193 24.7716 47.3983 23.578 46.8757L21.6724 46.0419C20.4804 45.5193 19.7492 45.9338 19.1812 47.2548L16.0004 54.637L24.5508 58.3806L25.4004 56.4096Z" fill="white"/>
<path d="M37.5387 35.0761L32.6443 40.3358L28.3371 36.2616L33.2299 31.002L37.5387 35.0761ZM34.0219 41.4374L38.7179 36.3907C39.9163 35.102 39.9707 34.3794 38.6923 33.1713L35.1083 29.7826C33.8315 28.5729 33.1179 28.6729 31.9195 29.9616L27.2219 35.01C26.0235 36.2971 25.9707 37.0197 27.2491 38.2294L30.8315 41.6181C32.1099 42.8261 32.8219 42.7261 34.0219 41.4374Z" fill="white"/>
<path d="M51.1447 19.8477L51.6471 20.8574C51.9223 21.4106 51.7047 21.6638 51.1079 21.9654L46.7463 24.1703L45.5815 21.8267L49.9415 19.6219C50.5399 19.3203 50.8695 19.2945 51.1447 19.8477ZM51.5927 23.5122L52.6919 22.9574C53.9671 22.3122 54.3367 21.5541 53.7559 20.3832L52.7751 18.4122C52.1911 17.2412 51.3671 17.0864 50.0919 17.7316L42.9559 21.3396L47.1351 29.7396L49.0391 28.7767L47.4599 25.6025L49.2999 24.6719L54.2391 26.1477L57.0151 24.7445L51.5927 23.5122Z" fill="white"/>
<path d="M60.3304 14.0566L60.5896 15.7115L64.8184 15.0405L66.0072 22.6679L68.148 22.3292L66.9592 14.7018L71.2056 14.0292L70.948 12.3728L60.3304 14.0566Z" fill="white"/>
<path d="M88.3559 21.3199L81.4279 20.3666L82.4519 12.8053L80.3031 12.5102L79.0439 21.8215L88.1175 23.0699L88.3559 21.3199Z" fill="white"/>
<path d="M98.3473 22.819L101.864 20.2819L102.026 24.6045L98.3473 22.819ZM103.658 19.1303L101.77 18.2142L92.9729 24.3755L94.9265 25.3239L96.7889 23.9432L102.112 26.5255L102.237 28.8706L104.434 29.9351L103.658 19.1303Z" fill="white"/>
<path d="M115.443 32.4552C115.638 32.2664 115.979 31.9132 116.451 31.3568C116.417 31.7423 116.422 32.0906 116.44 32.4519L117.008 41.4552L118.032 42.5326L124.768 36.0374L123.419 34.6181L119.881 38.0294C119.672 38.2294 119.307 38.6342 118.782 39.2148C118.832 38.7132 118.816 38.2229 118.777 37.7326L118.213 29.1294L117.19 28.0503L110.453 34.5455L111.801 35.9664L115.443 32.4552Z" fill="white"/>
<path d="M126.014 53.0319L124.88 50.4513L130.282 48.04L131.84 51.5868C132.667 53.4674 132.158 54.8303 130.424 55.6029C128.31 56.5481 127.126 55.5626 126.014 53.0319ZM124.603 54.1803C125.274 55.711 125.936 56.811 126.814 57.4158C128.067 58.2884 129.696 58.3981 131.298 57.6835C133.941 56.5029 134.763 54.1045 133.35 50.8916L130.922 45.3626L122.4 49.169L124.603 54.1803Z" fill="white"/>
<path d="M23.978 96.1127L25.9076 99.9659L19.0692 103.447L20.0468 105.397L26.8852 101.916L28.8212 105.787L30.306 105.03L25.4628 95.3578L23.978 96.1127Z" fill="white"/>
<path d="M42.164 122.592L36.9048 118.291L39.18 115.462L37.4968 114.086L31.6248 121.379L33.308 122.758L35.8344 119.618L41.0936 123.923L38.5672 127.062L40.2648 128.449L46.1368 121.153L44.4392 119.763L42.164 122.592Z" fill="white"/>
<path d="M66.8395 130.787L65.5307 136.593L58.5547 134.997L59.8635 129.19L66.8395 130.787ZM67.0651 129.121L60.3707 127.589C58.6635 127.197 58.0171 127.516 57.6299 129.239L56.5403 134.069C56.1531 135.792 56.5995 136.361 58.3083 136.752L65.0027 138.285C66.7115 138.676 67.3579 138.356 67.7451 136.634L68.8331 131.803C69.2203 130.081 68.7755 129.513 67.0651 129.121Z" fill="white"/>
<path d="M89.8598 129.405C90.511 129.253 90.839 129.308 90.9766 129.913L91.2278 131.013C91.3654 131.616 91.095 131.808 90.4438 131.96L85.6918 133.065L85.1062 130.51L89.8598 129.405ZM91.7526 133.3C93.143 132.978 93.679 132.331 93.3878 131.052L92.8966 128.903C92.6038 127.628 91.839 127.281 90.4486 127.605L82.6694 129.413L84.7622 138.57L86.839 138.087L86.047 134.626L88.055 134.16L92.5078 136.77L95.535 136.066L90.5542 133.579L91.7526 133.3Z" fill="white"/>
<path d="M111.458 115.78L114.506 119.643C114.685 119.87 115.051 120.275 115.578 120.856C115.087 120.761 114.602 120.73 114.114 120.725L105.562 120.509L104.402 121.438L110.205 128.791L111.733 127.569L108.595 123.593C108.426 123.378 108.107 123.004 107.602 122.478C107.979 122.549 108.323 122.575 108.683 122.591L117.627 122.84L118.789 121.911L112.984 114.556L111.458 115.78Z" fill="white"/>
<path d="M132.151 97.7811L130.998 97.2166C129.42 96.4456 128.761 96.7714 127.996 98.3601L125.457 103.636L123.652 102.754L126.319 97.2166L127.278 97.6859L127.708 95.7504L127.529 95.6617C126.081 94.9536 125.407 95.3536 124.682 96.8617L122.372 101.662C121.606 103.25 121.767 103.958 123.345 104.729L124.271 105.183C125.849 105.954 126.5 105.644 127.263 104.054L129.804 98.7795L131.721 99.7166L128.842 105.697L127.85 105.212L127.374 107.125L127.601 107.236C129.177 108.007 129.836 107.681 130.599 106.092L133.116 100.865C133.881 99.2746 133.727 98.5536 132.151 97.7811Z" fill="white"/>
<path d="M21.8941 74.083H18.5981V75.2072H20.3773V75.983H18.5981V77.6023H17.6157V73.3394H21.8941V74.083ZM19.7741 65.9217C19.6861 75.3152 10.2349 75.3588 10.2349 75.3588C10.2349 75.3588 19.7309 75.5814 19.7309 85.0217C19.7741 75.5378 29.4893 75.5378 29.2701 75.4926C29.0493 75.4491 19.6861 75.3588 19.7741 65.9217ZM132.592 74.7523L131.608 74.9088V74.0991H128.952V76.8007H131.608V75.8846L132.592 76.0926V76.5943C132.592 77.3959 132.339 77.6023 131.542 77.6023H129.019C128.222 77.6023 127.968 77.3959 127.968 76.5943V74.3475C127.968 73.5459 128.222 73.3394 129.019 73.3394H131.542C132.339 73.3394 132.592 73.5459 132.592 74.3475V74.7523ZM130.3 65.9217C130.212 75.3152 120.761 75.3588 120.761 75.3588C120.761 75.3588 130.257 75.5814 130.257 85.0217C130.3 75.5378 140.016 75.5378 139.796 75.4926C139.577 75.4491 130.212 75.3588 130.3 65.9217Z" fill="white"/>
<path d="M49.5055 39.776C45.2047 37.9276 42.9727 38.6389 42.9727 38.6389C42.9727 38.6389 47.8335 40.2776 46.8095 44.7179C46.0655 47.9534 45.4255 51.905 45.2927 55.555C44.9647 61.2598 45.5343 65.2147 41.5535 70.6373L43.7103 73.6711C44.6735 72.9131 45.7471 71.3469 46.3775 70.405C50.8143 71.4486 53.0255 70.8308 53.0255 70.8308C53.0255 70.8308 47.9551 68.6808 48.1679 64.9808C48.4175 60.6018 48.6319 56.7018 48.7999 53.3647C49.3935 43.1986 52.9839 38.1598 60.2223 41.6824L62.3871 38.7324C56.2943 35.6502 52.1487 37.2002 49.5055 39.776Z" fill="white"/>
<path d="M33.5633 61.7092C29.0065 62.7608 27.6161 64.6592 27.6161 64.6592C27.6161 64.6592 32.5025 63.106 34.2641 67.3043C35.5489 70.364 37.3361 73.9382 39.3553 76.9721C42.4161 81.7802 45.1825 84.6431 45.1249 91.3882L48.6401 92.5672C48.9761 91.3818 48.9313 89.4769 48.8929 88.3414C53.0897 86.5576 54.5185 84.7479 54.5185 84.7479C54.5185 84.7479 49.1649 86.0124 47.1777 82.8931C44.8273 79.2027 42.7265 75.9205 40.9185 73.1205C35.4673 64.5447 35.4353 58.3414 43.3473 56.9011L43.3761 53.2334C36.6497 54.3495 34.2001 58.0592 33.5633 61.7092Z" fill="white"/>
<path d="M33.455 88.901C30.383 92.4527 30.3654 94.8123 30.3654 94.8123C30.3654 94.8123 33.4134 90.6591 37.2854 93.0107C40.1078 94.7268 43.639 96.5591 47.0422 97.8172C52.3206 99.893 56.2278 100.569 60.1158 106.061L63.6454 104.932C63.2262 103.774 62.0806 102.259 61.3862 101.362C63.7414 97.4333 63.8422 95.122 63.8422 95.122C63.8422 95.122 60.247 99.3172 56.823 97.9704C52.7686 96.3785 49.1542 94.9688 46.0598 93.7752C36.6502 90.0672 33.007 85.0656 38.567 79.2139L36.4518 76.2301C31.6614 81.1172 31.8438 85.5704 33.455 88.901Z" fill="white"/>
<path d="M49.223 110.962C48.8086 115.655 50.1702 117.576 50.1702 117.576C50.1702 117.576 50.2134 112.409 54.7174 112.018C58.0022 111.733 61.927 111.125 65.4118 110.125C70.895 108.676 74.4486 106.909 80.7974 109.049L82.9958 106.042C81.9814 105.354 80.1702 104.809 79.087 104.496C78.6998 99.9198 77.4342 97.9892 77.4342 97.9892C77.4342 97.9892 76.9718 103.513 73.415 104.455C69.207 105.568 65.4614 106.57 62.2614 107.438C52.487 110.012 46.6246 108.126 47.7094 100.097L44.2582 98.9343C43.2326 105.728 45.9766 109.223 49.223 110.962Z" fill="white"/>
<path d="M74.8425 119.467C77.2441 123.512 79.4649 124.257 79.4649 124.257C79.4649 124.257 76.4889 120.053 79.9049 117.067C82.3945 114.89 85.2153 112.072 87.4521 109.199C91.0441 104.777 92.8873 101.241 99.2697 99.2122L99.2969 95.4783C98.0745 95.5219 96.2921 96.1525 95.2313 96.5412C92.2521 93.0702 90.1033 92.259 90.1033 92.259C90.1033 92.259 92.9497 97.0009 90.6217 99.8686C87.8665 103.264 85.4185 106.293 83.3369 108.891C76.9305 116.765 71.0873 118.714 67.2825 111.573L63.8137 112.68C66.9449 118.783 71.2025 119.985 74.8425 119.467Z" fill="white"/>
<path d="M100.53 111.168C104.829 113.017 107.063 112.306 107.063 112.306C107.063 112.306 102.202 110.667 103.226 106.228C103.97 102.991 104.608 99.0395 104.743 95.3895C105.071 89.6846 104.5 85.7298 108.48 80.3072L106.325 77.2717C105.362 78.0298 104.287 79.5975 103.656 80.5395C99.2211 79.4959 97.0083 80.1137 97.0083 80.1137C97.0083 80.1137 102.079 82.2637 101.868 85.9653C101.616 90.3427 101.404 94.2427 101.234 97.5782C100.644 107.746 97.0515 112.785 89.8131 109.262L87.6483 112.21C93.7395 115.294 97.8851 113.744 100.53 111.168Z" fill="white"/>
<path d="M116.472 89.2353C121.028 88.1821 122.419 86.2837 122.419 86.2837C122.419 86.2837 117.531 87.8385 115.769 83.6418C114.486 80.5789 112.7 77.0047 110.68 73.9724C107.617 69.1643 104.852 66.3014 104.91 59.5547L101.395 58.3772C101.057 59.5611 101.102 61.4659 101.14 62.6014C96.9453 64.3869 95.5149 66.1966 95.5149 66.1966C95.5149 66.1966 100.87 64.9321 102.857 68.0514C105.208 71.7401 107.31 75.0224 109.116 77.824C114.566 86.3998 114.6 92.603 106.689 94.0434L106.659 97.7111C113.385 96.5966 115.835 92.8853 116.472 89.2353Z" fill="white"/>
<path d="M116.579 62.0433C119.653 58.4917 119.67 56.1321 119.67 56.1321C119.67 56.1321 116.621 60.2853 112.75 57.9321C109.926 56.2175 106.397 54.3853 102.994 53.1288C97.712 51.0514 93.8064 50.3756 89.9184 44.8837L86.3904 46.0127C86.808 47.1692 87.9536 48.6853 88.648 49.5804C86.2944 53.5111 86.192 55.8208 86.192 55.8208C86.192 55.8208 89.7856 51.6272 93.2128 52.9724C97.2656 54.5643 100.882 55.9756 103.976 57.1692C113.386 60.8772 117.029 65.8772 111.469 71.7288L113.582 74.7143C118.373 69.8272 118.19 65.374 116.579 62.0433Z" fill="white"/>
<path d="M100.811 39.9808C101.227 35.2889 99.8637 33.3679 99.8637 33.3679C99.8637 33.3679 99.8205 38.5341 95.3165 38.9244C92.0317 39.2099 88.1069 39.8195 84.6221 40.8179C79.1389 42.2663 75.5837 44.0357 69.2381 41.8953L67.0397 44.9002C68.0525 45.5889 69.8637 46.1357 70.9469 46.4486C71.3341 51.0228 72.5997 52.9534 72.5997 52.9534C72.5997 52.9534 73.0621 47.4292 76.6189 46.4889C80.8269 45.3744 84.5725 44.3744 87.7725 43.5066C97.5485 40.9308 103.409 42.8163 102.324 50.847L105.776 52.0082C106.801 45.2163 104.059 41.7211 100.811 39.9808Z" fill="white"/>
<path d="M75.1908 31.4752C72.7892 27.4332 70.5684 26.6848 70.5684 26.6848C70.5684 26.6848 73.5444 30.8913 70.13 33.8768C67.6388 36.0542 64.818 38.8719 62.5812 41.7445C58.9908 46.1671 57.146 49.7026 50.7636 51.7316L50.738 55.4655C51.9588 55.4219 53.7428 54.7897 54.802 54.4026C57.7828 57.8735 59.9316 58.6848 59.9316 58.6848C59.9316 58.6848 57.0852 53.9429 59.4132 51.0735C62.1684 47.68 64.6148 44.651 66.6964 42.0542C73.1044 34.1768 78.946 32.23 82.7508 39.3687L86.2212 38.2655C83.09 32.1606 78.8324 30.959 75.1908 31.4752Z" fill="white"/>
<path d="M75.2962 81.1075C75.2962 75.5366 69.693 75.4059 69.693 75.4059C69.693 75.4059 75.2706 75.3801 75.3218 69.835C75.2706 75.4059 80.797 75.4591 80.925 75.485C81.0562 75.5108 75.3218 75.5108 75.2962 81.1075ZM90.869 75.2446C90.869 75.2446 88.9618 79.3188 88.5826 77.8075C87.6706 74.172 85.437 70.6188 77.5522 67.9495C79.069 67.3575 80.9874 67.0946 83.3602 67.6075C89.7506 68.9866 89.5922 75.6946 89.6226 75.6979C89.6226 75.6979 91.637 73.2656 90.9138 69.2059C89.653 62.1204 80.101 60.9317 80.101 60.9317C80.101 60.9317 83.3538 64.0204 81.813 63.9156C78.0994 63.6656 74.0562 64.7091 69.1026 71.4495C69.0098 69.8108 69.3554 67.8882 70.5746 65.7704C73.8514 60.0704 80.1314 62.2962 80.1426 62.2656C80.1426 62.2656 78.4706 59.585 74.4178 59.0237C67.3442 58.043 63.2706 66.8317 63.2706 66.8317C63.2706 66.8317 67.1874 64.6672 66.6146 66.114C65.2306 69.5979 64.9666 73.7946 69.7938 80.6269C68.2194 80.2075 66.5122 79.2833 64.8898 77.4608C60.5266 72.5591 64.5666 67.2253 64.541 67.2043C64.541 67.2043 61.4946 67.9785 59.7122 71.6914C56.6018 78.1704 63.6354 84.7914 63.6354 84.7914C63.6354 84.7914 62.805 80.3672 63.9906 81.364C66.8498 83.7656 70.7266 85.3172 78.6626 82.8027C77.781 84.1817 76.3842 85.5317 74.165 86.522C68.1906 89.193 64.4066 83.6704 64.3794 83.6866C64.3794 83.6866 64.1682 86.8479 67.1202 89.7043C72.2722 94.6898 80.693 89.9914 80.693 89.9914C80.693 89.9914 76.261 89.4204 77.5666 88.5914C80.717 86.593 83.3794 83.3543 83.4594 74.9688C84.4882 76.2414 85.3298 77.9979 85.5794 80.4317C86.2514 86.985 79.8722 88.9059 79.8818 88.9366C79.8818 88.9366 82.797 90.1156 86.4034 88.1688C92.6994 84.7704 90.869 75.2446 90.869 75.2446Z" fill="white"/>
</g>
<path fill-rule="evenodd" clip-rule="evenodd" d="M75.0211 6.60706C37.3239 6.60706 6.74334 37.4166 6.74334 75.4478C6.74334 113.479 37.3239 144.288 75.0211 144.288C112.718 144.288 143.299 113.479 143.299 75.4478C143.299 37.4166 112.718 6.60706 75.0211 6.60706ZM3.69934 75.4478C3.69934 35.7585 35.6197 3.56306 75.0211 3.56306C114.423 3.56306 146.343 35.7585 146.343 75.4478C146.343 115.137 114.423 147.332 75.0211 147.332C35.6197 147.332 3.69934 115.137 3.69934 75.4478Z" fill="white"/>
</g>
<defs>
<clipPath id="clip0_68_363">
<rect width="150" height="150" fill="white"/>
</clipPath>
</defs>
</svg>
