<svg width="150" height="150" viewBox="0 0 150 150" fill="none" xmlns="http://www.w3.org/2000/svg">
<g clip-path="url(#clip0_68_290)">
<path d="M73.55 149.325C63.125 144 55.1 139.35 48.35 134.475C40.1 128.625 33.575 122.475 28.4 115.8C18.5 102.525 14 87.1501 14 65.9251V15.6751L15.5 14.7751C32.6 5.10012 53.15 0.00012207 74.975 0.00012207C96.725 0.00012207 117.275 5.10012 134.375 14.7751L135.875 15.6751V65.9251C135.875 87.2251 131.375 102.525 121.4 115.8C109.625 131.175 92 141.375 76.25 149.325L74.9 150L73.55 149.325Z" fill="white"/>
<path d="M132.875 17.4001V65.9251C132.875 74.4751 132.125 81.8251 130.775 88.2001C123.2 87.9001 116.45 87.5251 112.475 87.2251C110.6 87.0751 110.525 86.9251 110.3 85.9501C108.95 79.8751 103.7 75.4501 97.325 75.4501C90.875 75.4501 85.625 79.8001 84.275 85.9501C84.05 86.9251 83.9 87.0751 82.1 87.2251C78.125 87.5251 71.225 87.9001 63.65 88.2001C63.5 86.9501 63.425 85.6501 63.425 84.3001C63.425 65.1001 80.225 49.4251 100.7 51.2251C105.05 52.2751 108.95 53.7751 112.325 55.5751C105.575 45.7501 92 38.9251 75.95 39.1501C56.3 39.3001 36.5 49.8001 17 67.6501V17.4001C33.125 8.25011 53.15 2.92511 74.975 2.92511C96.725 2.92511 116.75 8.17511 132.875 17.4001Z" fill="#FC1896"/>
<path d="M111.5 67.0501C112.775 67.0501 113.15 67.2751 113.675 67.6501C114.5 68.3251 115.475 69.3001 116.15 70.2751C110.9 70.2001 83.6 70.2001 78.35 70.2001C79.1 69.3001 80.075 68.3251 80.825 67.6501C81.35 67.2001 81.65 67.0501 83 67.0501C87.425 66.9751 107.075 66.9751 111.5 67.0501Z" fill="#FD9F28"/>
<path d="M97.25 61.3501C101.525 61.3501 105.125 62.3251 108.5 63.9751C99.5 63.9001 95 63.9001 86 63.9751C89.375 62.3251 92.975 61.3501 97.25 61.3501Z" fill="#FD9F28"/>
<path fill-rule="evenodd" clip-rule="evenodd" d="M130.25 90.2251C127.925 99.8251 124.025 107.4 119.075 114C108.5 127.725 92.975 137.475 74.975 146.625V142.95C82.1 139.125 89.375 135.15 96.275 130.425C73.25 133.05 51.65 120.6 47 105.225C61.25 124.725 91.325 128.25 107.975 121.05C111.125 118.125 115.925 113.025 118.775 108.525C112.4 114.3 103.025 116.7 94.175 116.7C59.45 116.7 45.8 85.2751 60.275 70.9501C53.975 84.8251 59.375 104.4 76.025 110.4C70.475 106.125 65.525 99.3001 63.95 90.2251H130.25ZM105.275 99.5251C101.375 99.6751 93.05 99.6751 89.225 99.5251C91.4 101.175 94.175 102.075 97.175 102.075C100.25 102.075 103.025 101.175 105.275 99.5251ZM110.15 92.4751V92.3251C101.3 92.4751 93.2 92.5501 84.425 92.4751C84.725 93.4501 85.4 94.8751 85.7 95.4001C86 96.0001 86.075 96.0001 86.675 96.0001C89.45 96.1501 104.975 96.1501 107.825 96.0001C108.425 96.0001 108.425 96.0001 108.8 95.4001C109.1 94.8751 109.775 93.4501 110.075 92.4751H110.15Z" fill="#21C6D9"/>
<path d="M74.9751 142.95V146.7C56.9751 137.625 41.375 127.8 30.8 114C25.175 106.575 21.8 99.0751 19.625 90.2251C18.425 85.5751 17.675 80.4751 17.3 74.7001C43.7001 50.1001 77.975 45.5251 100.7 51.2251C80.225 49.4251 63.425 65.0251 63.425 84.3001C63.425 86.4001 63.6 88.3751 63.95 90.2251C65.525 99.3751 70.475 106.125 76.025 110.4C59.375 104.4 53.975 84.8251 60.275 70.9501C45.8 85.3501 59.4501 116.7 94.175 116.7C103.025 116.7 112.475 114.375 118.775 108.525C115.925 113.1 111.125 118.2 107.975 121.05C91.3251 128.25 61.25 124.725 47 105.3C51.65 120.675 73.25 133.05 96.275 130.5C89.45 135.15 82.1001 139.2 74.9751 142.95Z" fill="#032E62"/>
<path d="M63.95 90.2251C63.875 89.9251 63.8 89.6251 63.8 89.4001C63.8 89.6251 63.875 89.8501 63.95 90.2251Z" fill="#FD9F28"/>
<path fill-rule="evenodd" clip-rule="evenodd" d="M125 32.7001C125 37.5001 123.65 42.4501 119.525 42.3001C115.4 42.1501 112.475 37.1251 112.475 30.2251C112.475 25.8001 113.75 20.6251 118.175 20.6251C122.975 20.6251 125 26.8501 125 32.7001ZM121.7 32.3251C121.7 26.5501 120.5 23.3251 118.55 23.2501C116.75 23.2501 115.7 26.0251 115.7 30.6001C115.7 36.6001 117.35 39.6001 119.225 39.6001C120.875 39.6001 121.7 37.0501 121.7 32.3251Z" fill="white"/>
<path d="M110 25.2751V36.6751C107.075 37.4251 99.65 35.1751 99.65 25.4251C99.65 19.8751 102.125 16.1251 105.95 16.1251C107.075 16.1251 108.275 16.4251 109.475 17.1001V19.6501C108.5 19.0501 107.525 18.7501 106.7 18.7501C104.225 18.7501 102.95 21.5251 102.95 25.5001C102.95 30.6001 105.125 33.6001 107.3 33.8251V24.3001L110 25.2751Z" fill="white"/>
<path d="M97.925 30.4501V32.9251C95.225 32.2501 92.075 31.5751 89.9 31.2001V24.3751C89.45 24.3251 89.025 24.2501 88.625 24.1501L88.1 21.7501C88.7 21.8001 89.3 21.9001 89.9 22.0501V12.6751C92.375 12.9751 95.225 13.4251 97.85 14.0251V16.3501C96.5 16.0501 94.775 15.6751 93.05 15.3751V22.5751C94.7 22.8751 96.2 23.1751 97.175 23.4001V25.8001C96.125 25.5751 94.7 25.2751 93.05 24.9751V29.3251C94.475 29.6251 96.5 30.0751 97.925 30.4501Z" fill="white"/>
<path d="M83 30.2251V11.9251C83.9 12.0001 85.325 12.0751 86.15 12.1501V30.6001C85.4 30.4501 83.825 30.3001 83 30.2251Z" fill="white"/>
<path fill-rule="evenodd" clip-rule="evenodd" d="M80.225 20.8501C80.225 23.7001 79.475 26.0251 78.05 27.6001C76.7 29.1751 74.825 29.8501 71.675 30.0001C70.925 30.0751 69.875 30.0751 69.125 30.1501V11.7751C69.8 11.7001 70.625 11.7001 71.675 11.7001C74.9 11.6251 76.85 12.4501 78.125 13.9501C79.55 15.5251 80.3 18.0751 80.225 20.8501ZM77 20.8501C77 18.1501 76.475 16.2001 75.5 15.1501C74.75 14.2501 73.7 14.0251 72.725 13.9501C72.575 13.9501 72.5 13.9501 72.35 13.9501V27.7501C72.55 27.7001 72.7 27.6751 72.8 27.6751C73.85 27.6751 74.675 27.3751 75.425 26.6251C76.4 25.5001 77 23.5501 77 20.8501Z" fill="white"/>
<path d="M59.9 12.6751V31.2001L58.025 31.5751L52.025 21.6001V32.9251C51.275 33.1501 50.075 33.5251 49.4 33.6751V14.6251L51.35 14.1751L57.275 24.0001V13.0501L59.9 12.6751Z" fill="white"/>
<path d="M24.65 41.2501C28.55 41.9251 30.35 39.4501 30.425 37.0501C30.575 33.0001 25.7 32.2501 25.7 27.3001C25.7 22.6501 29.975 19.8001 33.65 20.6251V23.1751C30.725 22.4251 28.7 24.1501 28.625 26.4001C28.625 30.0001 33.35 31.1251 33.35 36.1501C33.35 40.4251 29.825 44.4751 24.65 44.0251V41.2501Z" fill="white"/>
<path fill-rule="evenodd" clip-rule="evenodd" d="M43.5501 32.3251C41.9501 33.0251 40.375 33.7251 38.825 34.4251L37.925 38.0251C37.025 38.4751 35.825 39.0751 34.925 39.5251L40.85 17.0251L42.95 16.3501L47.3001 34.2751C46.5501 34.5751 45.05 35.0251 44.15 35.4001L43.5501 32.3251ZM43.1751 30.1501L41.6 22.4251L39.4251 31.7251C40.7001 31.2001 42.0501 30.6001 43.1751 30.1501Z" fill="white"/>
<path d="M50.5249 99.3751C43.5499 91.8751 40.0249 75.9751 55.0249 63.1501C36.2749 70.8001 29.8999 98.7001 44.8249 122.85C39.7249 118.65 34.6999 113.325 31.5499 108.375C25.7749 81.0001 44.5249 60.3001 68.2249 55.8001C47.3749 65.3251 44.2999 82.7251 50.5249 99.3751Z" fill="#21C6D9"/>
<path d="M63.575 88.2751C63.425 86.9251 63.35 85.5501 63.35 84.1501C63.35 83.7001 63.35 83.2501 63.425 82.8001C66.575 82.6501 69.2 82.4251 71 82.2751C72.8 82.1251 72.8 82.2001 73.1 80.7751C73.25 80.1001 73.475 79.4251 73.7 78.6751C74.15 77.4001 74.15 77.4001 76.025 77.4001C78.125 77.3251 80.525 77.2501 83.3 77.1751C83.9 77.1751 84.275 77.1001 84.8 76.8001C85.175 76.6501 85.7 76.2001 86.075 75.9001C82.4 75.8251 78.35 75.9001 74.825 75.8251C75.2 74.9251 75.725 74.0251 76.25 73.2001C76.775 72.3751 76.85 72.3751 78.5 72.3001C87.875 72.1501 106.7 72.1501 116.075 72.3001C117.725 72.3001 117.8 72.3751 118.325 73.2001C118.775 74.0251 119.3 74.9251 119.675 75.8251C116.225 75.9001 112.175 75.9001 108.5 75.9001C108.875 76.2001 109.4 76.6501 109.7 76.8001C110.3 77.1001 110.6 77.1751 111.275 77.1751C114.05 77.2501 116.45 77.3251 118.55 77.4001C120.35 77.4001 120.425 77.4001 120.8 78.6751C121.1 79.4251 121.25 80.1001 121.4 80.7751C121.775 82.2001 121.775 82.1251 123.5 82.2751C125.45 82.4251 128.3 82.6501 131.75 82.8751C131.45 84.7501 131.15 86.4751 130.775 88.2001C123.2 87.9001 116.45 87.5251 112.475 87.2251C110.6 87.0751 110.525 86.9251 110.3 85.9501C108.95 79.8751 103.7 75.4501 97.325 75.4501C90.875 75.4501 85.625 79.8751 84.275 85.9501C84.05 86.9251 83.9 87.0751 82.1 87.2251C78.125 87.5251 71.3 87.9001 63.575 88.2751Z" fill="#FD9F28"/>
</g>
<defs>
<clipPath id="clip0_68_290">
<rect width="150" height="150" fill="white"/>
</clipPath>
</defs>
</svg>
