<svg width="150" height="150" viewBox="0 0 150 150" fill="none" xmlns="http://www.w3.org/2000/svg">
<g clip-path="url(#clip0_68_351)">
<path d="M108.555 21.8216L109.508 15.7881L111.018 6.21062L103.536 12.3706L94.713 19.6445H87.2141L86.0079 17.518C83.5364 13.1723 80.8709 8.82651 78.0704 4.61577L75.0084 0L71.9465 4.61577C69.1544 8.82651 66.4805 13.1723 64.009 17.518L62.8027 19.6445H55.3038L46.4806 12.3706L38.9986 6.21062L40.5085 15.7881L41.4617 21.8216H26V101.901L26.0169 101.977V102.053C26.9785 113.96 35.0931 125.436 50.1499 136.153C59.9854 143.148 71.491 148.397 71.9718 148.616L72.7309 148.962L73.4901 149.308L75.0084 150L76.5268 149.308L77.2859 148.962L78.0451 148.616C78.5259 148.397 90.0484 143.14 99.8669 136.153C114.915 125.444 123.038 113.977 123.992 102.062V102.003V101.994V101.91V101.766L124 101.623V21.8216H108.53H108.555ZM43.503 34.69H38.8721V62.7053L49.5426 49.9888C49.2221 47.7357 48.9015 45.4827 48.581 43.2296C48.3954 41.7276 50.791 39.3564 52.1913 39.1708C50.8163 39.348 47.7543 37.9979 47.4929 36.3186L44.161 15.1975L55.2279 24.3193H49.6607L49.9306 26.0239C50.2259 28.3613 53.0601 30.0068 56.1052 29.6861C58.661 29.4161 60.7108 27.8803 61.2506 25.9563C62.0689 27.779 64.3211 28.9942 66.8938 28.8845C69.3822 28.7663 72.1995 27.3234 72.1826 25.0619V18.1002C70.5547 18.4969 68.8339 18.885 67.2228 19.3154C69.6521 15.0371 72.2501 10.8011 75.0253 6.63254C77.8005 10.8095 80.3985 15.0371 82.8279 19.3154C81.2167 18.8766 79.496 18.4969 77.868 18.1002V25.0619C77.8511 27.3234 80.6684 28.7663 83.1568 28.8845C85.7211 28.9942 87.9733 27.779 88.8 25.9563C89.3398 27.8803 91.3896 29.4161 93.9454 29.6861C96.9821 29.9983 99.8163 28.3613 100.12 26.0239L100.39 24.3193H94.8227L105.89 15.1975L102.558 36.3186C102.296 37.9894 99.2343 39.3396 97.8594 39.1708C99.2596 39.348 101.655 41.7192 101.47 43.2296C101.149 45.4827 100.829 47.7357 100.508 49.9888L111.179 62.7053V34.69H106.548L107.416 29.1714H116.695V101.463C115.919 111.116 108.834 120.77 95.6325 130.161C86.2863 136.811 75.0337 141.916 75.0337 141.916C75.0337 141.916 63.7812 136.811 54.435 130.161C41.2339 120.77 34.1484 111.116 33.3724 101.463V29.1714H42.6511L43.5199 34.69H43.503ZM120.348 101.615V101.69L120.339 101.758C119.479 112.542 111.879 123.107 97.7413 133.157C88.2095 139.941 76.9991 145.055 76.5268 145.266L75.7676 145.612L75.0084 145.958L74.2493 145.612L73.4901 145.266C73.0177 145.055 61.8158 139.941 52.2756 133.157C38.1467 123.107 30.5466 112.542 29.6777 101.758V101.682L29.6693 101.606V25.5007H42.0437L42.3305 27.3402H31.5166V101.615C32.3433 111.833 39.6819 121.943 53.3469 131.663C62.7268 138.338 73.7853 143.384 74.2493 143.595L75.0084 143.941L75.7676 143.595C76.2315 143.384 87.2901 138.338 96.67 131.663C110.335 121.943 117.682 111.833 118.5 101.615V101.539V27.3402H107.678L107.965 25.5007H120.339V101.615H120.348Z" fill="white"/>
<path d="M75.0085 41.7276C76.6196 41.7276 77.9946 40.4365 77.9946 38.8164C77.9946 35.9811 75.0338 33.0108 75.0085 33.0192C74.9832 33.0192 72.0225 35.9811 72.0225 38.8164C72.0225 40.4365 73.389 41.7276 75.0085 41.7276Z" fill="white"/>
<path d="M87.6191 41.4829C87.695 40.31 90.3436 38.2088 91.7439 38.3607C90.3689 38.2173 88.0661 35.6689 88.142 34.5128C88.0408 35.6689 85.3837 37.8038 84.0004 37.7447C85.409 37.8038 87.7203 40.3184 87.6191 41.4829Z" fill="white"/>
<path d="M62.4063 41.4829C62.3051 40.3184 64.6163 37.8038 66.025 37.7447C64.6416 37.8038 61.9845 35.6689 61.8833 34.5128C61.9592 35.6689 59.6564 38.2173 58.2815 38.3607C59.6817 38.2088 62.3388 40.31 62.4063 41.4829Z" fill="white"/>
<path d="M65.6116 109.724V105.69H70.2004V102.931H65.6116V98.1126H70.3438V95.3533H62.5665V109.926C62.5665 112.407 63.7896 113.631 66.2696 113.631L70.4028 113.403V110.644L66.7588 110.871C65.9912 110.871 65.6201 110.5 65.6201 109.732L65.6116 109.724Z" fill="white"/>
<path d="M76.4931 95.3533H73.448V113.285H76.4931V95.3533Z" fill="white"/>
<path d="M84.0173 105.623H85.6115V109.935C85.6115 110.728 85.2235 111.125 84.4728 111.125C84.1438 111.125 83.7136 111.091 83.7136 111.091C82.9207 111.091 82.6002 110.576 82.6002 109.783V99.024C82.6002 98.2308 82.9713 97.8595 83.7642 97.8595H84.3884C85.156 97.8595 85.5272 98.2308 85.5272 99.024V101.142L88.5132 99.6484V98.8552C88.5132 96.4081 87.3154 95.1845 84.8439 95.1845H83.2497C80.7782 95.1845 79.5551 96.4081 79.5551 98.889V109.935C79.5551 112.407 80.736 113.496 83.2834 113.648C83.4943 113.673 84.8692 113.791 84.8692 113.791C87.4082 114.112 88.5638 112.568 88.5638 110.095V103.024H84.0088V105.64L84.0173 105.623Z" fill="white"/>
<path d="M53.8361 105.699H55.2026C56.0883 105.699 56.4848 106.095 56.4848 106.981V114.787L59.5299 114.34V106.813C59.5299 105.302 59.0153 104.534 57.7669 104.197C58.8804 103.741 59.5046 102.889 59.5046 101.125V99.0662C59.5046 96.5853 58.2815 95.3617 55.8015 95.3617H50.791V115.892L53.8361 115.268V105.707V105.699ZM53.8361 98.0536H55.3207C56.0883 98.0536 56.4595 98.4248 56.4595 99.1927V101.707C56.4595 102.534 56.063 102.931 55.2111 102.931H53.8446V98.0536H53.8361Z" fill="white"/>
<path d="M91.6174 114.61L94.6625 115.107V98.0282H96.3411C97.1087 98.0282 97.4799 98.3995 97.4799 99.1927V115.664L100.466 116.348V99.0155C100.466 96.5347 99.2681 95.3448 96.7966 95.3448H91.6174V114.601V114.61Z" fill="white"/>
<path d="M62.4231 69.245C63.9246 78.7466 75.0169 82.0798 75.0169 82.0798C75.0169 82.0798 86.1091 78.7466 87.6106 69.245L88.9012 53.0856L77.8764 54.9167C77.5306 58.4355 77.2269 61.9459 76.881 65.5322H73.1611C72.8153 61.9374 72.5032 58.4355 72.1658 54.9167L61.141 53.0856L62.4316 69.245H62.4231ZM78.0535 74.4599H71.9718L71.7609 73.0085C71.7609 73.0085 73.1527 73.5486 75.0084 73.5486C76.8642 73.5486 78.256 73.0085 78.256 73.0085L78.0451 74.4599H78.0535ZM73.6504 68.0637C73.6504 68.0637 74.1059 68.8063 75.0169 68.8063C75.9279 68.8063 76.3834 68.0637 76.3834 68.0637L80.5166 70.2155L80.2129 70.7977C80.2129 70.7977 77.6993 70.3167 76.6533 70.3167C75.6073 70.3167 75.0169 70.7808 75.0169 70.7808C75.0169 70.7808 74.4264 70.3167 73.3804 70.3167C72.3345 70.3167 69.8208 70.7977 69.8208 70.7977L69.5171 70.2155L73.6504 68.0637Z" fill="white"/>
<path d="M71.7693 73.017L71.9802 74.4684H78.0619L78.2728 73.017C78.2728 73.017 76.881 73.557 75.0253 73.557C73.1695 73.557 71.7777 73.017 71.7777 73.017H71.7693Z" fill="#292431"/>
<path d="M107.391 29.1714L106.522 34.69H111.153V62.7053L100.483 49.9888C93.2285 48.8411 85.9151 48.1829 78.5934 48.0226C78.315 50.3432 78.0789 52.6384 77.8596 54.9167L88.8843 53.0856L87.5937 69.245C86.0923 78.7466 75 82.0798 75 82.0798C75 82.0798 63.9078 78.7466 62.4063 69.245L61.1157 53.0856L72.1405 54.9167C71.9212 52.6384 71.6766 50.3432 71.4066 48.0226C64.0849 48.1829 56.7716 48.8327 49.5173 49.9888L38.8468 62.7053V34.69H43.4777L42.6089 29.1714H33.3302V101.463C34.1062 111.116 41.1918 120.77 54.3929 130.161C63.739 136.811 74.9916 141.916 74.9916 141.916C74.9916 141.916 86.2441 136.811 95.5903 130.161C108.791 120.77 115.877 111.116 116.653 101.463V29.1714H107.374H107.391ZM38.8637 69.8526L52.8155 53.2122C53.5156 53.1109 54.2157 53.0181 54.9158 52.9337L38.8637 87.3706V69.8442V69.8526ZM42.2799 110.593C40.2977 107.412 39.1505 104.273 38.8721 101.226V98.2561L57.8091 57.6255L58.0453 60.5873L42.2799 110.601V110.593ZM59.5215 114.331L56.4764 114.778V106.973C56.4764 106.087 56.0799 105.69 55.1942 105.69H53.8277V115.251L50.7826 115.875V95.3448H55.7931C58.2646 95.3448 59.4961 96.5684 59.4961 99.0493V101.108C59.4961 102.872 58.8719 103.724 57.7585 104.18C59.0069 104.517 59.5215 105.294 59.5215 106.796V114.323V114.331ZM61.0735 91.5392C60.9386 91.6742 60.7277 91.7586 60.3565 91.7586H58.7032C58.3152 91.7586 58.0959 91.7079 57.9356 91.556C57.7501 91.3704 57.6826 91.0835 57.6741 90.265H58.6695C58.6864 90.7206 58.7032 90.8219 58.7454 90.8641C58.7876 90.9063 58.8466 90.9232 59.0491 90.9232H59.9685C60.1625 90.9232 60.2384 90.9063 60.2806 90.8725C60.3228 90.8219 60.3397 90.6953 60.3397 90.4169C60.3397 90.189 60.3397 90.1046 60.2722 90.0456C60.23 90.0034 60.1372 89.9865 59.9601 89.9696L58.6189 89.8262C58.3068 89.7924 58.1128 89.7249 57.9694 89.5899C57.7922 89.4043 57.7332 89.1342 57.7332 88.5182C57.7332 87.936 57.8175 87.6069 58.0284 87.3959C58.1634 87.2609 58.3827 87.1765 58.7285 87.1765H60.2638C60.6602 87.1765 60.8795 87.2272 61.0229 87.3706C61.2169 87.5647 61.276 87.8178 61.2928 88.6195H60.3059C60.2975 88.206 60.2722 88.1048 60.23 88.0626C60.1878 88.0204 60.1372 88.0119 59.9516 88.0119H59.0997C58.931 88.0119 58.8635 88.0119 58.8213 88.0541C58.7792 88.0963 58.7623 88.2229 58.7623 88.476C58.7623 88.7039 58.7623 88.7883 58.8298 88.8389C58.8719 88.8811 58.9394 88.8895 59.1419 88.9148L60.4831 89.0583C60.7952 89.092 60.9807 89.1511 61.1157 89.2861C61.2928 89.4633 61.3603 89.7418 61.3603 90.3662C61.3603 90.9907 61.276 91.3198 61.0651 91.5307L61.0735 91.5392ZM88.471 90.9316H89.0193V87.9866H88.471V87.1681H92.309V88.6954H91.3896V87.9782H90.04V89.0161H91.1365V89.7924H90.04V90.94H91.4233V90.1384H92.3428V91.7586H88.471V90.9316ZM83.6377 90.9316H84.1859V87.9866H83.6377V87.1681H85.7886V87.9866H85.2066V90.9316H86.455V90.0962H87.3744V91.7501H83.6461V90.9232L83.6377 90.9316ZM78.256 87.1681H82.4989V88.8473H81.6385V87.9782H80.8878V90.9316H81.4782V91.7586H79.2767V90.9316H79.8671V87.9782H79.1248V88.8473H78.2644V87.1681H78.256ZM72.925 87.1681H77.1679V88.8473H76.3075V87.9782H75.5567V90.9316H76.1472V91.7586H73.9456V90.9316H74.5361V87.9782H73.7854V88.8473H72.925V87.1681ZM67.5939 90.9316H68.041L69.1713 87.4803C69.2557 87.2272 69.3484 87.1512 69.6015 87.1512H70.3438C70.5969 87.1512 70.6896 87.2187 70.774 87.4803L71.9043 90.9316H72.3429V91.7586H70.2763V90.9485H70.7993L70.6222 90.3493H69.2388L69.0701 90.9485H69.5931V91.7586H67.6024V90.9316H67.5939ZM62.6425 90.9316H63.1908V87.9866H62.6425V87.1681H66.4805V88.6954H65.5611V87.9782H64.2114V89.0161H65.308V89.7924H64.2114V90.94H65.5948V90.1384H66.5142V91.7586H62.6425V90.9316ZM62.5666 109.918V95.3448H70.3438V98.1042H65.6117V102.922H70.2004V105.682H65.6117V109.715C65.6117 110.483 65.9828 110.855 66.7504 110.855L70.3944 110.627V113.386L66.2612 113.614C63.7812 113.614 62.5581 112.39 62.5581 109.909L62.5666 109.918ZM73.9034 120.736H69.9895V122.381H73.5154V124.322H69.9895V127.908H67.8639V118.787H73.895V120.727L73.9034 120.736ZM73.4479 113.276V95.3448H76.493V113.276H73.4479ZM83.1231 125.681C83.1231 127.25 82.3471 128.027 80.7781 128.027H78.3235C76.7545 128.027 75.9785 127.25 75.9785 125.681V121.031C75.9785 119.462 76.7545 118.685 78.3235 118.685H80.7613C82.3302 118.685 83.0809 119.445 83.0809 121.006V121.597L80.9974 122.263V121.31C80.9974 120.803 80.7613 120.567 80.2804 120.567H78.8465C78.3404 120.567 78.1042 120.803 78.1042 121.31V125.385C78.1042 125.892 78.3404 126.128 78.8465 126.128H80.3142C80.8034 126.128 81.0312 125.892 81.0312 125.385V124.432L83.1147 125.098V125.672L83.1231 125.681ZM88.5722 110.078C88.5722 112.551 87.4166 114.095 84.8776 113.774C84.8776 113.774 83.4943 113.656 83.2918 113.631C80.7444 113.487 79.5635 112.399 79.5635 109.918V98.8721C79.5635 96.3996 80.7866 95.1676 83.2581 95.1676H84.8523C87.3238 95.1676 88.5216 96.3912 88.5216 98.8383V99.6315L85.5356 101.125V99.0071C85.5356 98.2139 85.1644 97.8426 84.3968 97.8426H83.7726C82.9797 97.8426 82.6086 98.2139 82.6086 99.0071V109.766C82.6086 110.559 82.9291 111.074 83.722 111.074C83.722 111.074 84.1522 111.099 84.4812 111.108C85.2319 111.108 85.6199 110.711 85.6199 109.918V105.606H84.0257V102.99H88.5807V110.061L88.5722 110.078ZM100.466 116.356L97.4798 115.673V99.2012C97.4798 98.3995 97.1086 98.0367 96.341 98.0367H94.6624V115.116L91.6173 114.618V95.3617H96.7965C99.2765 95.3617 100.466 96.56 100.466 99.0324V116.365V116.356ZM111.162 101.226C110.883 104.273 109.736 107.42 107.754 110.593L91.9885 60.5789L92.2247 57.617L111.162 98.2476V101.218V101.226ZM111.162 87.3791L95.1095 52.9422C95.8096 53.0266 96.5097 53.1278 97.2099 53.2206L111.162 69.8611V87.3875V87.3791Z" fill="#292431"/>
<path d="M69.8209 70.7977C69.8209 70.7977 72.3346 70.3167 73.3805 70.3167C74.4265 70.3167 75.017 70.7808 75.017 70.7808C75.017 70.7808 75.6074 70.3167 76.6534 70.3167C77.6993 70.3167 80.213 70.7977 80.213 70.7977L80.5167 70.2155L76.3835 68.0637C76.3835 68.0637 75.928 68.8063 75.017 68.8063C74.106 68.8063 73.6505 68.0637 73.6505 68.0637L69.5172 70.2155L69.8209 70.7977Z" fill="#292431"/>
<path d="M55.3129 98.0536H53.8278V102.931H55.1948C56.047 102.931 56.4436 102.534 56.4436 101.707V99.1927C56.4436 98.4249 56.0724 98.0536 55.3045 98.0536H55.3129Z" fill="#292431"/>
<path d="M69.9643 88.0626H69.8799L69.4496 89.5561H70.3947L69.9643 88.0626Z" fill="#292431"/>
<path d="M38.8638 101.226C39.1421 104.273 40.2893 107.42 42.2716 110.593L58.0369 60.5789L57.8008 57.617L38.8638 98.2476V101.218V101.226Z" fill="#2E4079"/>
<path d="M111.162 69.8526L97.2097 53.2122C96.5096 53.1109 95.8095 53.0181 95.1094 52.9337L111.162 87.3706V69.8442V69.8526Z" fill="#2E4079"/>
<path d="M111.162 101.226V98.2561L92.2247 57.6255L91.9885 60.5873L107.754 110.601C109.736 107.42 110.883 104.281 111.162 101.235V101.226Z" fill="#2E4079"/>
<path d="M38.8638 87.3791L54.9159 52.9422C54.2158 53.0266 53.5157 53.1278 52.8156 53.2206L38.8638 69.8611V87.3875V87.3791Z" fill="#2E4079"/>
<path d="M107.973 25.5007L107.686 27.3402H118.509V101.615C117.682 111.833 110.343 121.943 96.6784 131.663C87.2985 138.338 76.24 143.384 75.776 143.595L75.0169 143.941L74.2577 143.595C73.7938 143.384 62.7352 138.338 53.3553 131.663C39.6903 121.943 32.3433 111.833 31.525 101.615V101.539V101.463V27.3318H42.3474L42.0606 25.4922H29.6777V101.682L29.6862 101.758C30.5466 112.542 38.1467 123.107 52.284 133.157C61.8158 139.941 73.0262 145.055 73.4985 145.266L74.2577 145.612L75.0169 145.958L75.776 145.612L76.5352 145.266C77.0076 145.055 88.2095 139.941 97.7497 133.157C111.879 123.107 119.479 112.542 120.348 101.758V101.69L120.356 101.615V25.5007H107.982H107.973Z" fill="#A8855B"/>
<path d="M65.6033 90.9316H64.22V89.784H65.3081V89.0161H64.22V87.9782H65.5696V88.6954H66.4806V87.1681H62.6426V87.9866H63.1993V90.9316H62.6426V91.7501H66.5143V90.1384H65.6033V90.9316Z" fill="#A8855B"/>
<path d="M60.4831 89.0583L59.1419 88.9148C58.9395 88.8895 58.872 88.8811 58.8298 88.8389C58.7708 88.7883 58.7623 88.7039 58.7623 88.476C58.7623 88.2313 58.7792 88.1047 58.8214 88.0541C58.8636 88.0119 58.931 88.0119 59.0997 88.0119H59.9517C60.1373 88.0119 60.1963 88.0204 60.2301 88.0626C60.2722 88.1047 60.2975 88.206 60.306 88.6195H61.2929C61.276 87.8094 61.217 87.5647 61.023 87.3706C60.8796 87.2272 60.6603 87.1765 60.2638 87.1765H58.7286C58.3828 87.1765 58.1634 87.2525 58.0285 87.3959C57.8176 87.6069 57.7332 87.936 57.7332 88.5182C57.7332 89.1427 57.7923 89.4127 57.9694 89.5899C58.1128 89.7249 58.3068 89.7924 58.6189 89.8262L59.9601 89.9696C60.1457 89.9865 60.2385 90.0118 60.2722 90.0456C60.3313 90.1046 60.3397 90.189 60.3397 90.4169C60.3397 90.6953 60.3228 90.8135 60.2807 90.8725C60.2385 90.9147 60.1541 90.9232 59.9686 90.9232H59.0491C58.8551 90.9232 58.7876 90.9063 58.7455 90.8641C58.7033 90.8219 58.6864 90.7206 58.6695 90.265H57.6742C57.6742 91.0835 57.7501 91.3619 57.9357 91.556C58.096 91.7079 58.3153 91.7586 58.7033 91.7586H60.3566C60.7193 91.7586 60.9302 91.6826 61.0736 91.5392C61.2845 91.3282 61.3688 90.9991 61.3688 90.3747C61.3688 89.7502 61.2929 89.4718 61.1242 89.2946C60.9892 89.1595 60.8036 89.1005 60.4915 89.0667L60.4831 89.0583Z" fill="#A8855B"/>
<path d="M70.2678 91.7501H72.3345V90.9232H71.8958L70.7655 87.4719C70.6812 87.2187 70.5884 87.1428 70.3353 87.1428H69.593C69.34 87.1428 69.2472 87.2103 69.1628 87.4719L68.0325 90.9232H67.5854V91.7501H69.5762V90.94H69.0532L69.2219 90.3409H70.6052L70.7824 90.94H70.2594V91.7501H70.2678ZM69.4496 89.5561L69.8798 88.0626H69.9642L70.3944 89.5561H69.4496Z" fill="#A8855B"/>
<path d="M91.4233 90.9316H90.0399V89.784H91.1365V89.0161H90.0399V87.9782H91.3895V88.6954H92.309V87.1681H88.4709V87.9866H89.0192V90.9316H88.4709V91.7501H92.3427V90.1384H91.4233V90.9316Z" fill="#A8855B"/>
<path d="M73.9456 90.9316V91.7501H76.1472V90.9316H75.5567V87.9697H76.3074V88.8473H77.1678V87.1681H72.9249V88.8473H73.7853V87.9697H74.536V90.9316H73.9456Z" fill="#A8855B"/>
<path d="M86.4465 90.9316H85.2065V87.9866H85.7885V87.1681H83.6376V87.9866H84.1859V90.9316H83.6376V91.7501H87.3659V90.1046H86.4465V90.9316Z" fill="#A8855B"/>
<path d="M82.4989 88.8473V87.1681H78.256V88.8473H79.1248V87.9697H79.8671V90.9316H79.2851V91.7501H81.4782V90.9316H80.8878V87.9697H81.6385V88.8473H82.4989Z" fill="#A8855B"/>
<path d="M105.873 15.2059L94.8058 24.3277H100.373L100.103 26.0323C99.8078 28.3697 96.9736 30.0152 93.9285 29.6945C91.3727 29.4245 89.3229 27.8887 88.7831 25.9648C87.9648 27.7875 85.7126 29.0026 83.1399 28.8929C80.6515 28.7748 77.8342 27.3318 77.851 25.0703V18.1087C79.479 18.5053 81.1998 18.8935 82.8109 19.3238C80.3816 15.0456 77.7836 10.8095 75.0084 6.64098C72.2332 10.818 69.6352 15.0456 67.2058 19.3238C68.817 18.885 70.5377 18.5053 72.1657 18.1087V25.0703C72.1826 27.3318 69.3652 28.7748 66.8769 28.8929C64.3126 29.0026 62.0604 27.7875 61.2337 25.9648C60.6939 27.8887 58.6441 29.4245 56.0883 29.6945C53.0516 30.0068 50.2174 28.3697 49.9137 26.0323L49.6438 24.3277H55.211L44.144 15.2059L47.4759 36.3271C47.7374 37.9979 50.7994 39.348 52.1743 39.1792C50.7741 39.3564 48.3785 41.7276 48.5641 43.2381C48.8846 45.4911 49.2052 47.7442 49.5257 49.9972C56.78 48.8496 64.0933 48.1914 71.415 48.0311C72.1151 53.9379 72.5706 59.6253 73.1526 65.5491H76.8726C77.4462 59.6338 77.9101 53.9463 78.6102 48.0311C85.932 48.1914 93.2453 48.8411 100.5 49.9972C100.82 47.7442 101.141 45.4911 101.461 43.2381C101.647 41.736 99.2511 39.3649 97.8509 39.1792C99.2258 39.3564 102.288 38.0063 102.549 36.3271L105.881 15.2059H105.873ZM62.4062 41.4829C62.3303 40.31 59.6817 38.2088 58.2814 38.3607C59.6564 38.2173 61.9592 35.6689 61.8832 34.5128C61.9845 35.6689 64.6415 37.8038 66.0249 37.7447C64.6162 37.8038 62.305 40.3184 62.4062 41.4829ZM75.0084 41.7276C73.3973 41.7276 72.0223 40.4365 72.0223 38.8164C72.0223 35.9811 74.9831 33.0108 75.0084 33.0192C75.0337 33.0192 77.9944 35.9811 77.9944 38.8164C77.9944 40.4365 76.6279 41.7276 75.0084 41.7276ZM87.619 41.4829C87.7202 40.3184 85.409 37.8038 84.0003 37.7447C85.3837 37.8038 88.0408 35.6689 88.142 34.5128C88.0661 35.6689 90.3689 38.2173 91.7438 38.3607C90.3436 38.2088 87.6865 40.31 87.619 41.4829Z" fill="#A8855B"/>
<path d="M81.0312 125.394C81.0312 125.9 80.795 126.136 80.3142 126.136H78.8465C78.3404 126.136 78.1042 125.9 78.1042 125.394V121.318C78.1042 120.812 78.3404 120.576 78.8465 120.576H80.2805C80.7697 120.576 80.9974 120.812 80.9974 121.318V122.272L83.0809 121.605V121.014C83.0809 119.445 82.3218 118.694 80.7613 118.694H78.3235C76.7546 118.694 75.9785 119.47 75.9785 121.04V125.689C75.9785 127.259 76.7546 128.035 78.3235 128.035H80.7781C82.3471 128.035 83.1231 127.259 83.1231 125.689V125.115L81.0396 124.449V125.402L81.0312 125.394Z" fill="#A8855B"/>
<path d="M67.8723 127.908H69.9895V124.322H73.5239V122.381H69.9895V120.736H73.9035V118.795H67.8723V127.908Z" fill="#A8855B"/>
</g>
<defs>
<clipPath id="clip0_68_351">
<rect width="150" height="150" fill="white"/>
</clipPath>
</defs>
</svg>
