<svg width="150" height="150" viewBox="0 0 150 150" fill="none" xmlns="http://www.w3.org/2000/svg">
<g clip-path="url(#clip0_167_2492)">
<path d="M129.778 61.9418C126.783 54.8412 122.484 48.4811 117.009 43.0067C114.691 40.6881 112.227 38.5949 109.603 36.7111L121.775 22.1877H88.333L74.8723 7.77698L61.4116 22.1877H27.9691L40.1417 36.7111C37.5172 38.5949 35.0376 40.6881 32.7351 43.0067C27.2606 48.4811 22.9616 54.8573 19.9667 61.9418C16.8592 69.2841 15.2812 77.0932 15.2812 85.1439C15.2812 93.1945 16.8592 100.988 19.9667 108.346C22.9616 115.447 27.2606 121.807 32.7351 127.281C38.2095 132.756 44.5857 137.055 51.6703 140.049C59.0125 143.157 66.8216 144.735 74.8723 144.735C82.923 144.735 90.716 143.157 98.0743 140.049C105.175 137.055 111.535 132.756 117.009 127.281C122.484 121.807 126.783 115.43 129.778 108.346C132.885 101.004 134.463 93.1945 134.463 85.1439C134.463 77.0932 132.885 69.3002 129.778 61.9418Z" fill="#000033"/>
<path d="M74.8723 0L71.0079 4.13804L59.1252 16.8742H16.6337L23.9116 25.5689L32.5902 35.9221C31.3504 36.9848 30.1428 38.0957 28.9996 39.255C23.0421 45.2125 18.3727 52.1522 15.1041 59.8808C11.7228 67.8832 10 76.3847 10 85.1277C10 93.8708 11.7228 102.388 15.1041 110.375C18.3727 118.103 23.0421 125.043 28.9996 131C34.9571 136.958 41.8967 141.627 49.6254 144.896C57.6277 148.277 66.1292 150 74.8723 150C83.6153 150 92.1329 148.277 100.119 144.896C107.848 141.627 114.787 136.958 120.745 131C126.702 125.043 131.372 118.103 134.64 110.375C138.022 102.372 139.745 93.8708 139.745 85.1277C139.745 76.3847 138.022 67.8832 134.64 59.8808C131.372 52.1522 126.702 45.2125 120.745 39.255C119.586 38.0957 118.394 36.9848 117.154 35.9221L125.833 25.5689L133.111 16.8742H90.6355L78.7527 4.13804L74.8884 0L74.8723 0ZM74.8723 7.76084L88.333 22.1715H121.775L109.603 36.6949C112.227 38.5788 114.707 40.672 117.009 42.9906C122.484 48.465 126.783 54.8411 129.778 61.9257C132.885 69.2679 134.463 77.0771 134.463 85.1277C134.463 93.1784 132.885 100.971 129.778 108.33C126.783 115.43 122.484 121.79 117.009 127.265C111.535 132.739 105.159 137.038 98.0743 140.033C90.7321 143.141 82.9229 144.719 74.8723 144.719C66.8216 144.719 59.0285 143.141 51.6702 140.033C44.5696 137.038 38.2095 132.739 32.7351 127.265C27.2606 121.79 22.9616 115.414 19.9667 108.33C16.8592 100.988 15.2812 93.1784 15.2812 85.1277C15.2812 77.0771 16.8592 69.284 19.9667 61.9257C22.9616 54.825 27.2606 48.465 32.7351 42.9906C35.0537 40.672 37.5172 38.5788 40.1417 36.6949L27.9691 22.1715H61.4115" fill="#000033"/>
<path d="M74.8724 4.76599L73.391 6.36002L60.5422 20.1267H23.6218L26.4235 23.4757L37.2275 36.3568C35.1504 37.9669 33.1699 39.7059 31.3183 41.5575C25.6667 47.2091 21.2227 53.8106 18.1152 61.1529C14.8949 68.7527 13.2687 76.8195 13.2687 85.1438C13.2687 93.4682 14.8949 101.535 18.1152 109.135C21.2227 116.477 25.6667 123.062 31.3183 128.714C36.9698 134.366 43.5714 138.81 50.9136 141.917C58.5134 145.137 66.5802 146.764 74.9046 146.764C83.229 146.764 91.2957 145.137 98.8955 141.917C106.238 138.81 112.823 134.366 118.475 128.714C124.126 123.062 128.57 116.461 131.678 109.135C134.898 101.535 136.524 93.4682 136.524 85.1438C136.524 76.8195 134.898 68.7527 131.678 61.1529C128.57 53.8106 124.126 47.2252 118.475 41.5575C116.623 39.7059 114.643 37.9669 112.566 36.3568L123.37 23.4757L126.171 20.1267H89.2509L76.402 6.36002L74.9207 4.76599H74.8724ZM74.8724 7.76084L88.3331 22.1715H121.776L109.603 36.6949C112.227 38.5788 114.707 40.672 117.01 42.9906C122.484 48.465 126.783 54.8411 129.778 61.9257C132.885 69.2679 134.463 77.0771 134.463 85.1277C134.463 93.1784 132.885 100.971 129.778 108.33C126.783 115.43 122.484 121.79 117.01 127.265C111.535 132.739 105.159 137.038 98.0744 140.033C90.7322 143.141 82.923 144.719 74.8724 144.719C66.8217 144.719 59.0287 143.141 51.6703 140.033C44.5697 137.038 38.2096 132.739 32.7352 127.265C27.2607 121.79 22.9617 115.414 19.9668 108.33C16.8593 100.988 15.2813 93.1784 15.2813 85.1277C15.2813 77.0771 16.8593 69.284 19.9668 61.9257C22.9617 54.825 27.2607 48.465 32.7352 42.9906C35.0538 40.672 37.5173 38.5788 40.1418 36.6949L27.9692 22.1715H61.4117" fill="#AD1229"/>
<path d="M126.863 84.8057C126.863 91.8259 125.495 98.6367 122.774 105.045C122.291 106.188 121.775 107.283 121.26 108.314L118.668 106.993C119.167 106.027 119.65 104.997 120.101 103.918C122.661 97.8639 123.965 91.4233 123.965 84.7896C123.965 78.1558 122.661 71.7153 120.101 65.6612C119.344 63.874 118.491 62.135 117.541 60.4766L119.215 57.6105C120.552 59.8003 121.759 62.1189 122.774 64.5341C125.495 70.9585 126.863 77.7694 126.863 84.8057Z" fill="#FCB81A"/>
<path d="M32.236 60.4927C31.286 62.1672 30.4165 63.9062 29.6598 65.6773C27.0997 71.7314 25.7955 78.1719 25.7955 84.8057C25.7955 91.4394 27.0997 97.8639 29.6598 103.934C30.1106 105.013 30.5937 106.043 31.0928 107.009L28.5005 108.33C27.9691 107.299 27.47 106.204 26.987 105.061C24.2658 98.6528 22.8972 91.8259 22.8972 84.8057C22.8972 77.7855 24.2658 70.9585 26.987 64.5341C28.0013 62.135 29.1928 59.8003 30.5453 57.6105" fill="#FCB81A"/>
<path d="M57.8049 92.8885C59.8981 90.3767 63.9717 85.7395 64.181 81.9879C64.2615 80.6354 63.9395 78.7999 62.7963 77.9787C62.7963 77.9787 60.3972 77.7533 59.4955 77.3668C58.4972 76.9482 57.7405 76.2075 57.032 75.4347C56.5812 74.9516 56.1786 74.4203 55.6634 74.0178C55.0032 73.4542 54.2465 73.2127 53.699 73.0356C53.3931 72.939 48.0797 72.3432 46.695 69.3484C46.5017 68.9458 45.9543 68.9297 45.745 69.3162C44.634 71.4093 42.9917 74.5169 42.8789 77.7211C42.8145 79.4117 43.9577 83.0023 44.9077 84.4031C45.0204 84.5641 45.1331 84.7412 45.2458 84.9023C46.1314 83.9845 47.178 83.1794 48.4017 82.5354C49.722 81.843 51.0584 81.36 52.4753 81.1023C52.7813 81.0379 52.9423 81.4888 52.6686 81.6337C50.1245 83.115 48.0153 85.6268 47.4517 88.4607C49.6415 92.1479 51.5737 95.8673 52.1211 96.5274C53.3287 97.9443 56.5973 94.3215 57.7888 92.8885" fill="#FCB81A"/>
<path d="M103.066 69.3484C101.681 72.3271 96.3676 72.9229 96.0616 73.0356C95.5303 73.2127 94.7735 73.4542 94.0973 74.0178C93.5981 74.4364 93.1795 74.9516 92.7287 75.4347C92.0202 76.2236 91.2634 76.9482 90.2652 77.3668C89.3474 77.7533 86.9483 77.9787 86.9483 77.9787C85.8051 78.7999 85.4831 80.6515 85.5636 81.9879C85.7729 85.7395 89.8465 90.3767 91.9397 92.8885C93.1312 94.3215 96.3998 97.9443 97.6074 96.5274C98.1709 95.8673 100.103 92.1479 102.277 88.4607C101.729 85.6429 99.62 83.115 97.0599 81.6337C96.7862 81.4888 96.9472 81.0379 97.2531 81.1023C98.67 81.36 100.006 81.843 101.327 82.5354C102.55 83.1794 103.597 83.9845 104.483 84.9023C104.595 84.7251 104.708 84.5641 104.821 84.4031C105.771 83.0023 106.914 79.4117 106.85 77.7211C106.737 74.5169 105.094 71.4093 103.983 69.3162C103.774 68.9297 103.227 68.9458 103.034 69.3484" fill="#FCB81A"/>
<path d="M74.8723 98.991C73.0689 98.9588 71.6037 97.4936 71.6037 95.6902L73.6003 78.5101L74.3731 63.7935C74.3892 63.5359 74.5985 63.3265 74.8562 63.3104C75.1138 63.3265 75.3231 63.5359 75.3553 63.7935L76.1282 78.5101L78.1247 95.6902C78.1247 97.4936 76.6756 98.9749 74.8562 98.991M95.2404 41.638C93.1795 42.5236 91.2634 43.7795 89.2346 44.7617C89.2185 44.7617 89.2024 44.7617 89.1863 44.7617C84.6136 43.2804 79.8315 42.5236 74.9206 42.4914C74.9206 42.4914 74.8884 42.4914 74.8723 42.4914C74.8562 42.4914 74.84 42.4914 74.8239 42.4914C69.913 42.5236 65.131 43.2804 60.5582 44.7617C60.5421 44.7617 60.526 44.7617 60.5099 44.7617C58.4811 43.7795 56.565 42.5236 54.5041 41.638C40.7857 35.745 34.2808 45.6312 34.2969 51.3955C34.2969 58.4156 38.8214 62.9079 44.4085 64.3731C44.7145 64.4536 45.0204 64.2765 45.1009 63.9867C47.1941 57.0309 39.4815 58.786 39.3044 51.8141C39.1434 44.7939 47.6127 42.1855 54.8744 46.7744C55.9371 47.2896 56.9515 47.9659 57.8854 48.8353C58.9641 49.8336 59.8819 50.9446 60.5904 52.1844C60.7514 52.4581 60.3972 52.7641 60.1556 52.5547C58.9319 51.5082 57.4667 50.7031 55.921 50.2362C50.1728 53.3115 46.8076 64.2765 47.2263 66.2892C47.5644 67.9476 53.3609 71.4416 54.9871 70.9425C54.9871 70.9425 57.6921 70.3789 59.6404 70.2662C60.7353 70.1857 61.8302 70.1857 62.8768 70.556C64.0683 70.9586 65.2759 71.7797 65.9682 72.8263C66.1292 73.0517 66.258 73.2933 66.3547 73.5509C66.7411 74.5492 67.1275 75.5796 67.2563 76.6423C67.4817 78.5423 67.4656 80.088 67.1275 81.6176C66.5479 84.6125 64.6157 88.2836 62.6674 91.4234C60.7192 94.547 58.7387 97.1554 58.0786 98.041C57.8531 98.3469 57.4023 98.991 57.0642 99.5223C56.7744 99.9732 56.5489 100.44 56.3879 100.939C55.5346 103.596 56.9354 105.448 58.3362 106.575C58.4167 106.494 58.4972 106.398 58.5777 106.317C59.6243 105.254 60.7514 104.385 62.0234 103.709C62.2971 103.564 62.5869 103.934 62.3776 104.16C61.1861 105.48 60.2683 107.122 59.7853 108.829C59.8014 108.942 59.8014 109.07 59.8014 109.183V109.215C59.8014 112.725 61.9912 115.817 64.8733 116.702C68.8826 117.91 70.702 116.783 71.8774 115.43L74.1799 112.758C74.3087 112.613 74.3731 112.419 74.3731 112.21V111.115C74.3731 110.681 74.196 110.262 73.8901 109.94L73.1655 109.215C72.296 108.346 71.1206 107.863 69.8969 107.863H69.8808C69.3656 107.863 68.8826 107.782 68.4478 107.637C66.5479 107.026 62.603 102.694 65.2759 97.7029C65.3564 97.5419 65.6301 97.6385 65.5818 97.8156C65.3564 99.3613 65.6301 101.132 66.5801 102.356C67.3207 101.471 68.5283 100.907 69.8969 100.907C70.2351 100.907 70.5088 100.907 71.0079 101.213C71.4266 101.454 71.7808 101.793 72.0706 102.163C72.7308 102.984 73.7291 103.515 74.8562 103.532H74.9045H74.9528C76.0799 103.515 77.0781 102.984 77.7383 102.163C78.0281 101.793 78.3984 101.454 78.801 101.213C79.3001 100.907 79.5738 100.907 79.912 100.907C81.2806 100.907 82.4882 101.487 83.2288 102.356C84.1788 101.116 84.4525 99.3613 84.2271 97.8156C84.1788 97.6385 84.4364 97.5419 84.5331 97.7029C87.2059 102.71 83.261 107.026 81.3611 107.637C80.9103 107.782 80.4272 107.863 79.912 107.863H79.8959C78.6722 107.863 77.4968 108.346 76.6273 109.215L75.9027 109.94C75.5968 110.246 75.4197 110.681 75.4197 111.115V112.21C75.4197 112.403 75.4841 112.597 75.6129 112.758L77.9154 115.43C79.0908 116.799 80.9103 117.926 84.9195 116.702C87.8016 115.833 89.9914 112.725 89.9914 109.215V109.183C89.9914 109.07 89.9914 108.942 90.0075 108.829C89.5245 107.122 88.6067 105.48 87.4152 104.16C87.2059 103.934 87.4957 103.564 87.7694 103.709C89.0414 104.385 90.1685 105.254 91.2151 106.317C91.2956 106.398 91.3761 106.494 91.4566 106.575C92.8574 105.448 94.2422 103.612 93.3888 100.939C93.2278 100.44 92.9862 99.9732 92.7125 99.5223C92.3744 98.9749 91.9236 98.3308 91.6981 98.041C91.038 97.1554 89.0575 94.5631 87.1093 91.4234C85.161 88.2836 83.2288 84.6286 82.6492 81.6176C82.3111 80.088 82.295 78.5423 82.5204 76.6423C82.6492 75.5796 83.0356 74.5492 83.4221 73.5509C83.5187 73.2933 83.6475 73.0517 83.8085 72.8263C84.5009 71.7797 85.7084 70.9586 86.8999 70.556C87.9626 70.2018 89.0414 70.2018 90.1363 70.2662C92.0846 70.395 94.7896 70.9425 94.7896 70.9425C96.4158 71.4416 102.196 67.9476 102.55 66.2892C102.969 64.2926 99.6039 53.3276 93.8557 50.2362C92.3261 50.7031 90.8448 51.5082 89.6211 52.5547C89.3957 52.7641 89.0253 52.4581 89.1863 52.1844C89.8948 50.9446 90.7965 49.8336 91.8914 48.8353C92.8252 47.9659 93.8396 47.2896 94.9023 46.7744C102.164 42.2016 110.633 44.7939 110.472 51.8141C110.295 58.7699 102.599 57.0148 104.676 63.9867C104.756 64.2765 105.078 64.4536 105.368 64.3731C110.955 62.9079 115.48 58.4156 115.48 51.3955C115.48 45.6312 108.991 35.745 95.2726 41.638" fill="#FCB81A"/>
<path d="M83.1645 119.23C82.8264 119.263 82.4882 119.279 82.134 119.279C81.3451 119.279 80.5722 119.15 79.8154 118.924C78.9621 118.651 78.0604 118.554 77.1587 118.554H72.5859C71.6843 118.554 70.7826 118.667 69.9292 118.924C69.1886 119.15 68.3996 119.279 67.6106 119.279C67.2725 119.279 66.9183 119.263 66.5801 119.23C65.9039 119.166 65.3886 119.874 65.6946 120.502C66.7572 122.692 68.9953 124.19 71.5876 124.19H78.1409C80.7332 124.19 82.9713 122.692 84.034 120.502C84.3399 119.89 83.8408 119.166 83.1484 119.23" fill="#FCB81A"/>
<path d="M35.0537 119.665C34.4418 119.73 33.8622 119.601 33.3469 119.279C32.8156 118.957 32.3325 118.49 31.8656 117.878C31.286 117.121 30.9317 116.429 30.8351 115.801C30.7224 115.173 30.8351 114.593 31.1572 114.046C31.4631 113.498 31.9622 112.983 32.6224 112.468L36.4867 109.505C36.6316 109.392 36.7443 109.392 36.8409 109.505L38.2256 111.325C38.3061 111.437 38.29 111.55 38.1612 111.647L34.0393 114.803C33.5562 115.173 33.2825 115.527 33.2181 115.865C33.1537 116.203 33.2503 116.541 33.4918 116.863C33.6368 117.057 33.83 117.218 34.0393 117.314C34.2486 117.427 34.4901 117.459 34.7638 117.395C35.0376 117.347 35.3596 117.186 35.6977 116.912L39.7714 113.804C39.9163 113.692 40.029 113.692 40.1256 113.804L41.2205 115.237C41.301 115.35 41.2849 115.463 41.1561 115.559L37.0663 118.683C36.3418 119.246 35.6655 119.552 35.0376 119.617" fill="#FCB81A"/>
<path d="M41.9611 116.509C41.9611 116.509 42.0738 116.413 42.1382 116.413C42.2026 116.413 42.2831 116.445 42.3636 116.509L47.7414 121.259C47.7414 121.259 47.8542 121.404 47.8542 121.468C47.8542 121.533 47.822 121.613 47.7736 121.662L46.8237 122.74C46.7271 122.853 46.5983 122.853 46.4694 122.74L44.8754 121.34C44.8754 121.34 44.7466 121.275 44.6822 121.34L40.3187 126.283C40.206 126.412 40.0933 126.428 39.9806 126.331L38.2739 124.818C38.1612 124.721 38.1612 124.608 38.2739 124.496L42.6212 119.569C42.7017 119.488 42.7017 119.407 42.6212 119.359L41.0272 117.958C40.8823 117.83 40.8662 117.717 40.9789 117.604" fill="#FCB81A"/>
<path d="M49.239 128.247C49.3356 128.312 49.4161 128.247 49.4483 128.102L49.8991 125.977C49.8991 125.977 49.8991 125.912 49.8669 125.896C49.8347 125.88 49.8025 125.896 49.7703 125.896L48.0797 127.265C47.9348 127.378 47.9348 127.474 48.0475 127.539L49.2229 128.247H49.239ZM43.1366 128.811C43.1366 128.714 43.201 128.634 43.3137 128.553L50.0441 123.062C50.1246 122.998 50.2051 122.966 50.2695 122.95C50.3339 122.95 50.4144 122.95 50.4949 123.014L52.5237 124.238C52.7008 124.351 52.7652 124.512 52.7169 124.737L50.9296 133.222C50.9296 133.303 50.8652 133.383 50.8008 133.448C50.7364 133.512 50.6559 133.528 50.5754 133.48L48.5627 132.256C48.45 132.192 48.4017 132.079 48.45 131.95L48.7721 130.533C48.7721 130.533 48.7721 130.453 48.7721 130.421C48.7721 130.389 48.7398 130.356 48.6915 130.324L46.5179 129.004C46.4374 128.956 46.3569 128.956 46.2924 129.02L45.1331 129.97C45.1331 129.97 45.0526 130.018 44.9882 130.034C44.9238 130.05 44.8594 130.034 44.795 129.97L43.2332 129.02C43.2332 129.02 43.1205 128.907 43.1366 128.811Z" fill="#FCB81A"/>
<path d="M57.4668 132.401C57.338 132.353 57.2736 132.401 57.2253 132.514L56.2431 135.38C56.1626 135.605 56.0016 135.67 55.7601 135.573L53.8601 134.913C53.7313 134.865 53.6669 134.816 53.6347 134.768C53.6025 134.704 53.6186 134.623 53.6347 134.527L56.3558 126.653C56.4202 126.476 56.5168 126.412 56.6617 126.46L58.8193 127.201C58.9642 127.249 58.9964 127.345 58.9481 127.506L58.0464 130.147C57.9981 130.292 58.0464 130.405 58.1753 130.437L60.0752 131.097C60.2201 131.145 60.3006 131.097 60.365 130.936L61.2667 128.295C61.3311 128.134 61.4116 128.086 61.5565 128.134L63.7141 128.875C63.859 128.923 63.8912 129.036 63.8429 129.213L61.1218 137.087C61.0896 137.183 61.0413 137.248 60.993 137.28C60.9286 137.312 60.8481 137.312 60.7193 137.28L58.8193 136.62C58.5617 136.539 58.4812 136.378 58.5617 136.169L59.56 133.303C59.5922 133.19 59.56 133.11 59.4312 133.078" fill="#FCB81A"/>
<path d="M74.0672 133.48C74.2443 133.319 74.3248 133.126 74.3409 132.868C74.3409 132.562 74.2604 132.321 74.0672 132.16C73.874 131.999 73.6325 131.902 73.3587 131.886L72.3122 131.854C72.135 131.854 72.0384 131.918 72.0223 132.079L71.974 133.383C71.974 133.544 72.0384 133.641 72.1672 133.641L73.3587 133.689C73.6647 133.689 73.9062 133.625 74.0672 133.48ZM76.8044 139.051C76.8044 139.051 76.6917 139.164 76.5951 139.164L74.2604 139.083C74.0994 139.083 73.9867 138.987 73.9545 138.826L72.9401 135.686C72.8918 135.557 72.7791 135.493 72.5698 135.477H72.0223C72.0223 135.477 71.9257 135.477 71.9096 135.509C71.8935 135.541 71.8774 135.573 71.8774 135.589L71.7647 138.648C71.7647 138.874 71.6198 138.987 71.3622 138.987L69.3495 138.906C69.2368 138.906 69.1563 138.874 69.108 138.826C69.0597 138.777 69.0436 138.697 69.0436 138.6L69.3495 130.276C69.3495 130.099 69.43 130.002 69.591 130.002L73.6003 130.147C74.7596 130.195 75.6451 130.453 76.2731 130.92C76.901 131.387 77.1909 132.031 77.1587 132.836C77.1587 133.206 77.062 133.56 76.9171 133.866C76.7722 134.172 76.579 134.446 76.3214 134.671C76.0799 134.897 75.8061 135.058 75.5002 135.155C75.4197 135.187 75.4036 135.267 75.4358 135.38L76.8205 138.793C76.8527 138.906 76.8527 138.987 76.8205 139.067" fill="#FCB81A"/>
<path d="M84.533 135.815C84.678 135.38 84.678 134.688 84.533 133.754C84.372 132.772 84.1466 132.095 83.8568 131.709C83.567 131.322 83.1644 131.161 82.6653 131.258C82.15 131.339 81.8119 131.612 81.667 132.079C81.506 132.546 81.5221 133.271 81.667 134.237C81.828 135.187 82.0373 135.831 82.3272 136.201C82.617 136.555 83.0195 136.7 83.5509 136.604C84.0661 136.523 84.4042 136.266 84.5491 135.831M81.4899 138.262C80.7975 138.005 80.2179 137.57 79.7509 136.942C79.284 136.33 78.9781 135.557 78.8332 134.655C78.6883 133.738 78.7205 132.917 78.962 132.176C79.2035 131.435 79.6221 130.823 80.1857 130.34C80.7653 129.857 81.4738 129.551 82.3272 129.406C83.1805 129.262 83.9534 129.326 84.6458 129.6C85.3381 129.873 85.9178 130.308 86.3847 130.936C86.8516 131.564 87.1576 132.321 87.3186 133.239C87.4635 134.14 87.4313 134.961 87.1898 135.702C86.9482 136.427 86.5457 137.038 85.9822 137.505C85.4025 137.988 84.6941 138.294 83.8246 138.439C82.9551 138.584 82.1661 138.52 81.4738 138.262" fill="#FCB81A"/>
<path d="M94.7897 125.848C94.7897 125.848 94.8541 125.945 94.838 126.041L93.7914 131.274C93.7592 131.371 93.7592 131.467 93.7914 131.564C93.8075 131.661 93.8719 131.822 93.9524 132.063L94.9829 134.833C95.0634 135.058 94.9829 135.203 94.7413 135.3L92.8575 136.008C92.7448 136.056 92.6643 136.056 92.5999 136.024C92.5355 135.992 92.4872 135.927 92.455 135.831L91.344 132.868C91.2957 132.756 91.2474 132.659 91.1991 132.611C91.1508 132.562 91.0863 132.498 91.0058 132.434L86.7712 129.117C86.6907 129.052 86.6424 128.972 86.6585 128.907C86.6585 128.843 86.739 128.778 86.8517 128.73L89.1059 127.877C89.2186 127.829 89.2991 127.812 89.3635 127.845C89.4279 127.861 89.4923 127.909 89.5728 127.973L91.8914 129.954C91.8914 129.954 92.0041 130.034 92.0202 130.018C92.0524 130.018 92.0685 129.97 92.0846 129.889L92.5033 126.879C92.5033 126.766 92.5355 126.685 92.5838 126.637C92.6321 126.589 92.6965 126.54 92.8092 126.508L94.5803 125.848C94.6769 125.816 94.7413 125.816 94.7897 125.848Z" fill="#FCB81A"/>
<path d="M101.085 127.909C101.182 127.845 101.182 127.764 101.053 127.651L99.3785 126.267C99.3785 126.267 99.3141 126.234 99.2819 126.267C99.2497 126.283 99.2497 126.315 99.2497 126.347L99.6683 128.473C99.7005 128.65 99.781 128.698 99.8938 128.634L101.069 127.925L101.085 127.909ZM98.7506 133.561C98.7506 133.561 98.6217 133.416 98.5895 133.287L96.8667 124.769C96.8667 124.673 96.8667 124.592 96.8667 124.528C96.8828 124.463 96.9472 124.399 97.0277 124.351L99.0565 123.127C99.2336 123.014 99.4107 123.046 99.5878 123.175L106.27 128.698C106.27 128.698 106.383 128.827 106.415 128.923C106.447 129.02 106.415 129.1 106.334 129.133L104.322 130.34C104.209 130.405 104.096 130.405 103.983 130.308L102.872 129.374C102.872 129.374 102.808 129.326 102.776 129.31C102.744 129.31 102.695 129.31 102.647 129.342L100.457 130.646C100.377 130.695 100.345 130.759 100.377 130.856L100.683 132.321C100.683 132.321 100.683 132.417 100.683 132.482C100.667 132.53 100.618 132.578 100.538 132.627L98.976 133.561C98.976 133.561 98.8311 133.609 98.7506 133.561Z" fill="#FCB81A"/>
<path d="M102.969 120.438L104.66 118.908C104.772 118.812 104.869 118.828 104.982 118.941L109.361 123.771C109.442 123.851 109.506 123.868 109.587 123.803L112.26 121.372C112.404 121.243 112.517 121.243 112.614 121.356L113.612 122.451C113.612 122.451 113.676 122.563 113.676 122.644C113.676 122.724 113.644 122.789 113.564 122.853L109.023 126.975C108.927 127.056 108.846 127.104 108.782 127.088C108.717 127.088 108.653 127.04 108.572 126.959L102.969 120.792C102.84 120.663 102.84 120.535 102.953 120.438" fill="#FCB81A"/>
<path d="M113.113 112.484C112.871 112.581 112.614 112.806 112.324 113.176C112.05 113.531 111.921 113.82 111.905 114.046C111.905 114.271 111.954 114.432 112.066 114.513C112.131 114.561 112.195 114.577 112.292 114.593C112.372 114.593 112.485 114.593 112.598 114.529C112.726 114.48 112.855 114.384 113.016 114.255L114.626 112.983C115.222 112.5 115.818 112.242 116.414 112.259C117.009 112.259 117.541 112.452 118.04 112.822C118.507 113.176 118.829 113.611 118.99 114.126C119.151 114.642 119.151 115.205 118.99 115.801C118.829 116.397 118.523 117.025 118.04 117.652C117.686 118.119 117.299 118.522 116.881 118.86C116.462 119.198 116.027 119.456 115.609 119.617C115.174 119.794 114.787 119.858 114.417 119.81C114.32 119.81 114.24 119.762 114.208 119.73C114.176 119.697 114.143 119.617 114.143 119.52L114.208 118.023C114.208 117.894 114.256 117.797 114.304 117.749C114.353 117.701 114.417 117.669 114.498 117.669C114.787 117.669 115.029 117.636 115.254 117.588C115.48 117.54 115.673 117.443 115.866 117.298C116.059 117.153 116.237 116.96 116.43 116.702C116.687 116.348 116.864 116.042 116.929 115.753C116.993 115.463 116.929 115.269 116.752 115.125C116.671 115.06 116.591 115.044 116.494 115.028C116.398 115.028 116.285 115.028 116.172 115.092C116.059 115.141 115.931 115.221 115.786 115.334L114.337 116.525C113.95 116.831 113.548 117.057 113.129 117.186C112.71 117.314 112.292 117.33 111.889 117.266C111.487 117.202 111.116 117.041 110.778 116.799C110.36 116.493 110.07 116.075 109.909 115.575C109.748 115.076 109.732 114.529 109.86 113.933C109.989 113.337 110.279 112.742 110.746 112.13C111.036 111.743 111.358 111.421 111.712 111.131C112.066 110.842 112.421 110.632 112.775 110.471C113.129 110.31 113.483 110.246 113.805 110.246C113.87 110.246 113.934 110.246 113.998 110.278C114.063 110.294 114.095 110.359 114.095 110.455L114.063 112.065C114.063 112.065 114.047 112.178 113.998 112.21C113.966 112.242 113.886 112.275 113.773 112.291C113.564 112.307 113.338 112.355 113.097 112.452" fill="#FCB81A"/>
<path d="M92.6641 26.3096C93.4048 26.9858 93.8395 27.7748 93.8395 28.6282C93.8395 30.9951 90.4904 32.9111 86.3363 32.9111C85.9982 32.9111 85.66 32.9111 85.338 32.8789C83.4542 32.7823 81.7957 32.251 80.6203 31.462C80.2339 31.2044 79.8958 30.9146 79.622 30.5925C79.1229 30.0129 78.8331 29.3366 78.8331 28.6443C78.8331 25.6011 84.4524 24.474 84.6457 24.4579L74.8882 13.9921L65.1308 24.4579C65.3241 24.474 70.9434 25.6011 70.9434 28.6443C70.9434 29.3527 70.6536 30.0129 70.1545 30.5925C69.8807 30.8985 69.5426 31.1883 69.1562 31.462C67.9808 32.2671 66.3062 32.7823 64.4385 32.8789C64.1004 32.9111 63.7783 32.9111 63.4402 32.9111C59.2861 32.9111 55.937 30.9951 55.937 28.6282C55.937 27.7748 56.3717 26.9858 57.1124 26.3257H37.6459L46.083 36.389C46.2601 36.389 46.4211 36.389 46.5982 36.389C49.0617 36.389 51.6701 36.9043 54.3913 37.9186C54.826 38.0797 55.2607 38.2568 55.7116 38.45C55.7438 38.45 55.7599 38.4661 55.776 38.4822L60.7674 35.7933L65.7105 38.4661L74.9044 32.3315L84.0982 38.4661L89.0574 35.7933L94.0327 38.4822C94.0327 38.4822 94.0649 38.4661 94.0971 38.45C94.548 38.2568 94.9827 38.0797 95.4174 37.9186C98.1386 36.9043 100.747 36.389 103.21 36.389C103.388 36.389 103.549 36.389 103.726 36.389L112.163 26.3257" fill="#FCB81A"/>
</g>
<defs>
<clipPath id="clip0_167_2492">
<rect width="150" height="150" fill="white"/>
</clipPath>
</defs>
</svg>
