<?xml version="1.0" encoding="utf-8"?>
<!-- Generator: Adobe Illustrator 28.3.0, SVG Export Plug-In . SVG Version: 6.00 Build 0)  -->
<svg version="1.1" id="Layer_2_00000038407420169233670070000000772012586622366902_"
	 xmlns="http://www.w3.org/2000/svg" xmlns:xlink="http://www.w3.org/1999/xlink" x="0px" y="0px" viewBox="0 0 200 200"
	 style="enable-background:new 0 0 200 200;" xml:space="preserve">
<style type="text/css">
	.st0{fill:#101821;}
	.st1{fill:url(#one_color_light_00000142140361885166643570000006420210300244239752_);}
</style>
<g id="Art">
	<g>
		<polygon class="st0" points="99.8,192 113.8,182.9 125.5,172.5 134.5,162.5 142.9,150.3 149.7,138.1 154.3,128.8 158.1,129.9 
			180.5,136.1 178,124 176.3,114.3 198,106.4 173.2,96.5 177.7,85.3 166.8,81.5 169.1,67.4 170.2,56.1 170.8,46.7 171,36.4 
			170.7,30 144.8,24.2 148.4,12.7 111.2,8 89.8,8 70.5,9.8 51.1,13 54.4,24.2 28.8,30.2 28.8,49.9 30.4,66.2 32.2,80.7 23.1,85.1 
			22.2,85.9 26.4,96.6 1.5,106.3 22.9,114.3 19.6,135.6 45.6,128.5 51.9,142 59,154 67.2,165 80.9,179.3 		"/>
		
			<radialGradient id="one_color_light_00000156545351565527152660000012380076564965822603_" cx="100" cy="139.6798" r="142.0028" gradientTransform="matrix(1 0 0 -1.31 0 283.3268)" gradientUnits="userSpaceOnUse">
			<stop  offset="0" style="stop-color:#FFFFFA"/>
			<stop  offset="7.000000e-02" style="stop-color:#F0F0EC"/>
			<stop  offset="0.24" style="stop-color:#D1D1D0"/>
			<stop  offset="0.39" style="stop-color:#BFBFC0"/>
			<stop  offset="0.49" style="stop-color:#B9B9BA"/>
			<stop  offset="0.55" style="stop-color:#B1B1B3"/>
			<stop  offset="0.64" style="stop-color:#9B9D9F"/>
			<stop  offset="0.75" style="stop-color:#797C80"/>
			<stop  offset="0.87" style="stop-color:#484E54"/>
			<stop  offset="1" style="stop-color:#101821"/>
		</radialGradient>
		<path id="one_color_light" style="fill:url(#one_color_light_00000156545351565527152660000012380076564965822603_);" d="
			M48.7,60.5l2.2,3.4l3.9-1L52.2,66l2.2,3.4l-3.7-1.5L48.1,71l0.3-4l-3.7-1.5l3.9-1L48.7,60.5L48.7,60.5z M149.3,63.8l-3.9-1
			l2.5,3.1l-2.2,3.4l3.7-1.5l2.5,3.1l-0.2-4l3.7-1.5l-3.9-1l-0.2-4L149.3,63.8L149.3,63.8z M78.5,27.1l-4,0.4l3.5,2l-0.9,3.9l3-2.7
			l3.5,2L82,29.1l3-2.7l-4,0.4l-1.6-3.7L78.5,27.1z M119.1,26.9l-4-0.4l3,2.7l-1.6,3.7l3.5-2l3,2.7l-0.9-3.9l3.5-2l-4-0.4l-0.9-3.9
			L119.1,26.9L119.1,26.9z M47.4,46.4l-4,0.5l3.5,2l-0.8,3.9L49,50l3.5,2l-1.7-3.6l2.9-2.7l-4,0.5l-1.7-3.6L47.4,46.4L47.4,46.4z
			 M64.5,44.7l-4,0.3l3.4,2.1L63,51l3-2.6l3.4,2.1l-1.5-3.7l3-2.6l-4,0.3l-1.5-3.7C65.4,40.8,64.5,44.7,64.5,44.7z M81.6,43.6
			l-4,0.2l3.3,2.2l-1.1,3.8l3.1-2.5l3.3,2.2l-1.4-3.7l3.1-2.5l-4,0.2l-1.4-3.7L81.6,43.6L81.6,43.6z M98.8,43.2h-4l3.2,2.4l-1.2,3.8
			l3.2-2.4l3.2,2.3l-1.3-3.8l3.2-2.4h-4l-1.3-3.8L98.8,43.2L98.8,43.2z M115.9,43.5l-4-0.1l3.1,2.5l-1.4,3.7l3.3-2.2l3.1,2.5L119,46
			l3.3-2.2l-4-0.1l-1.1-3.8L115.9,43.5L115.9,43.5z M133,44.5l-4-0.3l3.1,2.6l-1.5,3.7l3.4-2.1l3.1,2.6l-0.9-3.9l3.4-2.1l-4-0.3
			l-0.9-3.9L133,44.5L133,44.5z M150.1,46.1l-4-0.5l3,2.7l-1.7,3.6l3.5-2l3,2.7l-0.8-3.9l3.5-2l-4-0.5l-0.8-3.9L150.1,46.1
			L150.1,46.1z M96.1,157c-2.8-0.5-5.5-1.6-7.9-3.2v12.6c2.5,2.3,5.1,4.4,7.9,6.4V157z M111.9,153.6c-2.4,1.7-5.1,2.8-7.9,3.4v16
			c2.8-2,5.4-4.1,7.9-6.4V153.6z M200,106.1l-23.8-9.4l-2-0.8l4.5-10.9l-2-0.8c-2.9-1.2-5.9-2.4-8.9-3.4l0.4-2.1
			c3.7-23.7,3.2-41.4,3.2-42.2l-0.2-6.7l-6.4-2c-6.2-1.9-13.3-3.2-18.9-4.1l3.8-11.3l-10.9-1.7C126,8.6,112.8,7.5,99.8,7.5
			c-18.5,0-32.4,2.1-39.1,3.4l-10.5,2l3.6,10.8c-9.1,1.4-15.2,3-18.9,4.1l-6.4,2l-0.2,6.7c0,0.8-0.5,18.6,3.2,42.3l0.4,2.1
			c-2.9,1-5.7,2.1-8.6,3.3l-2,0.8l4.5,11l-1.9,0.7L0,106.1l22.8,8.8l-3.9,22.4l26.8-7.5c2.6,6.2,5.6,12.1,8.7,17.6
			C65,165.7,78.8,180,95.1,189.7l4.7,2.8l4.7-2.8c16.4-9.7,30.1-24,40.8-42.4c3.2-5.5,6.1-11.4,8.7-17.6l27,7.6l-3.9-22.4L200,106.1
			L200,106.1z M30.6,36.5l0.2-5.1l4.9-1.5c6.9-2.1,14.8-3.5,21.1-4.4l-3.7-10.9l8.1-1.5c6.6-1.3,20.3-3.3,38.7-3.3
			c12.9,0,26,1,38.8,3.1l8.4,1.3l-3.8,11.4c6.3,0.9,14.2,2.3,21.1,4.4l4.9,1.5l0.2,5.1c0,0.9,0.6,19.3-3.5,43.6
			c-0.8-0.3-1.5-0.5-2.3-0.8c3.9-23.9,3.4-41.8,3.4-42.7l-0.1-3.4l-3.3-1c-7.9-2.4-17.5-3.9-23.6-4.7L144,16l-5.6-0.9
			c-12.7-2-25.6-3.1-38.4-3.1c-18.1,0-31.7,2.1-38.2,3.3l-5.4,1L60,27.4c-6.1,0.8-15.6,2.3-23.6,4.7l-3.3,1L33,36.6
			c0,0.9-0.5,18.9,3.4,42.7c-0.8,0.3-1.5,0.5-2.3,0.8C30,55.7,30.6,37.4,30.6,36.5L30.6,36.5z M62.6,20.1c10.4-2,38.7-6,75-0.2
			l-4,11.7c0,0,16.5,1.5,28.6,5.2c0,0,0.6,17.6-3.2,41.1c-6.6-2-13.3-3.7-20.1-5.1c-12.8-2.5-25.9-3.8-38.9-3.8s-26.1,1.3-38.9,3.8
			c-6.8,1.3-13.5,3-20.1,5.1c-3.8-23.5-3.2-41.1-3.2-41.1c12.1-3.7,28.6-5.2,28.6-5.2L62.6,20.1L62.6,20.1z M24.1,86.1
			c3.1-1.3,6.2-2.5,9.3-3.6c0.1,0,0.2-0.1,0.3-0.1c1-0.4,2-0.7,3-1c0.4-0.1,0.8-0.3,1.1-0.4l0,0c1.2-0.4,2.3-0.7,3.5-1.1
			c38.2-11.8,79.2-11.8,117.4,0c1.2,0.4,2.3,0.7,3.5,1.1c0,0,0,0,0,0c0.4,0.1,0.8,0.2,1.1,0.4c0.9,0.3,1.8,0.6,2.6,0.9
			c0.4,0.1,0.8,0.3,1.2,0.4c2.9,1.1,5.8,2.2,8.7,3.4c-1.2,3-2.5,6-3.7,9c-0.1,0.2-0.2,0.4-0.3,0.7c-2.6,6.2-5.2,12.5-7.8,18.7
			c-2.7-1.1-5.3-2.1-8-3.1l0,0c-0.4-0.1-0.7-0.3-1.1-0.4c0,0-0.1,0-0.1,0c-0.3-0.1-0.6-0.2-1-0.3c-0.1,0-0.1,0-0.2-0.1
			c-0.3-0.1-0.6-0.2-0.9-0.3c-0.1,0-0.1,0-0.2-0.1c-0.4-0.1-0.7-0.2-1.1-0.4l0,0c-33.9-11-70.4-10.8-104.3,0.4c-0.1,0-0.1,0-0.2,0.1
			c-0.3,0.1-0.6,0.2-0.9,0.3c-0.1,0-0.1,0-0.2,0.1c-0.3,0.1-0.6,0.2-1,0.3c0,0-0.1,0-0.1,0c-3.1,1.1-6.1,2.2-9.1,3.5
			C32,105,28,95.6,24.1,86.1L24.1,86.1z M64.4,136v-28.2c1.2-0.3,2.4-0.5,3.5-0.7c1.5-0.3,2.9-0.6,4.4-0.8v42.2
			c2.4,3.3,5,6.7,7.9,9.9v-13.5c-1.7-3.3-2.5-7-2.5-10.9c0-1.5,0.1-3.1,0.4-4.6c-0.2-1.6,0-2.8,0-3.2c0.1-3.3,0.8-6,2.1-8.1V105
			c2.6-0.3,5.3-0.6,7.9-0.8v9.5c0,0,0,0,0.1,0c0.2,0,0.4,0,0.6,0c2-1.2,4.2-2.1,6.5-2.6c0.2-0.3,0.5-0.6,0.8-0.8v-6.4
			c1.3,0,2.6,0,4,0c1.3,0,2.6,0,4,0v6.8c0.1,0.1,0.3,0.3,0.4,0.4c2.2,0.5,4.3,1.3,6.2,2.4c0.2,0,0.4,0,0.6,0c0.2,0,0.5,0,0.7,0v-9.3
			c2.6,0.2,5.3,0.4,7.9,0.8v14.2c0.9,1.9,1.3,4.2,1.4,6.8c0,0.4,0.1,1.2,0.1,2.3c0.4,1.8,0.6,3.7,0.6,5.6c0,3.5-0.7,6.9-2.1,10v14.6
			c2.9-3.2,5.5-6.5,7.9-9.8v-42.6c1.5,0.2,2.9,0.5,4.4,0.8c1.2,0.2,2.4,0.5,3.5,0.7v28.8c3.4-5.9,6-11.4,7.9-15.9v-11
			c2.5,0.7,4.9,1.4,7.3,2.2c-8.7,26.6-24,53.8-50.9,69.7c-26.9-15.9-42.2-43.2-50.9-69.7c2.4-0.8,4.9-1.5,7.3-2.2v10.1
			C58.4,124.3,61,129.9,64.4,136L64.4,136z M21.7,134.3l3.7-20.8L6,106.1L26.6,98c0,0,0.1,0,0.1-0.1l8,19.4l0,0c0,0,1.7,3.6,4.7,3
			c0.9-0.2,1.7-0.4,2.4-0.5l3.1,8.1L21.7,134.3L21.7,134.3z M153.1,127.1L153.1,127.1c-2.8,6.8-5.9,13.2-9.4,19.1
			c-10.5,18.1-23.9,32.1-40,41.6L100,190l-3.7-2.2c-16.1-9.5-29.5-23.5-40-41.6c-3.4-5.9-6.5-12.3-9.3-19.1l0,0l-3.3-8l-1.3-5
			c0.7-0.3,1.4-0.5,2.1-0.7C48.3,125,53,135.6,58.4,145c10.3,17.8,23.5,31.5,39.1,40.8l2.4,1.5l2.4-1.5c15.7-9.3,28.9-23,39.1-40.8
			c5.5-9.4,10.1-20,13.9-31.6c0.8,0.3,1.6,0.6,2.4,0.9C156.3,119.1,155.4,121.3,153.1,127.1L153.1,127.1z M178.6,134.3l-23.7-6.6
			l3.3-8.1c0.8,0.2,0.8,0.4,2.2,0.7c3,0.6,4.9-3,4.9-3l0,0l0,0l8.1-19.5c0.1,0.1,0.2,0.1,0.3,0.2l20.6,8.1l-19.3,7.4L178.6,134.3
			L178.6,134.3z M109.2,33.4l-11.6,1.2c0,0-0.6-1.2-0.9-3.1c0-0.2,0-0.4-0.1-0.6c0-0.3,0-0.5,0-0.8c0-0.4,0-0.8,0-1.1
			c0-0.3,0.1-0.6,0.1-0.9c0.3-1.8,0.8-2.9,0.8-2.9l2.4-0.3l0.6-0.1c0,0.5,0,1.2-0.1,2l-1,0.1c0,0-0.3,0.2-0.5,1.1
			c0,0.2-0.1,0.4-0.1,0.6c0,0.3,0,0.7,0,1.1c0,0.3,0,0.6,0,0.9c0,0.4,0.1,0.6,0.1,0.9c0.2,0.8,0.5,0.9,0.5,0.9l8-0.8L109.2,33.4
			L109.2,33.4z M105.1,26.3l0.8,0v1.8l2-0.2v-3.8l-2.8,0.3C105.2,25.1,105.2,25.8,105.1,26.3L105.1,26.3z M103.9,24.4
			c0-0.2,0-0.4-0.1-0.6c-0.2-1.9-0.9-3.1-0.9-3.1l-14,1l1.7,1.8l2-0.1l0.2,7.7l2-0.2l0.7-0.1c0-0.5,0-1.2,0-2l-0.7,0.1v-1l-0.2-4.6
			l6.4-0.4c0,0,0.3,0.2,0.5,0.9c0.1,0.2,0.1,0.5,0.1,0.9c0,0.3,0,0.6,0,0.9c0,0.4,0,0.8,0,1.1c0,0.1,0,0.2,0,0.3
			c-0.2,1-0.4,1.4-0.5,1.5c0,0,0,0,0,0l-1,0.1c-0.1,0.4-0.1,1.1,0,2l1-0.1l1.9-0.2c0,0,0.6-1.2,0.8-3.2c0-0.2,0-0.4,0.1-0.5
			c0-0.4,0-0.7,0-1.1C103.9,25,103.9,24.7,103.9,24.4L103.9,24.4z M86,79.2c-0.6-0.9-1.4-1.6-2.5-2c-1-0.5-2.2-0.8-3.4-0.9
			s-2.7-0.1-4.1,0.1c-3.8,0.5-5.7,0.8-9.5,1.5l-0.4,0.1l4.1,22.6l0.4-0.1c2.2-0.4,3.2-0.6,5.4-0.9l0.4-0.1l-1.2-8.3
			c0.9-0.1,1.5-0.2,2.5-0.3c1.3-0.2,2.5-0.4,3.6-0.8c1.2-0.4,2.2-0.9,3.1-1.5c0.9-0.7,1.6-1.5,2.1-2.5c0.5-1,0.7-2.2,0.6-3.5
			C87,81.2,86.6,80,86,79.2L86,79.2z M74.5,86.2l-0.6-4.4c0.8-0.1,1.3-0.2,2.3-0.3c0.5-0.1,1-0.1,1.5-0.1c0.5,0,0.9,0.1,1.3,0.2
			c0.4,0.1,0.6,0.3,0.9,0.6c0.2,0.2,0.4,0.6,0.4,1s0,0.8-0.2,1.1c-0.2,0.3-0.4,0.6-0.7,0.8c-0.4,0.2-0.7,0.4-1.2,0.5
			c-0.5,0.1-1,0.2-1.5,0.3C75.8,86,75.3,86.1,74.5,86.2L74.5,86.2z M64.6,91.2c-0.7-0.7-1.4-1.2-2.3-1.5c-0.9-0.3-1.8-0.6-2.8-0.7
			c-1.1-0.1-2-0.2-2.8-0.2c-0.6,0-1.2,0-1.6-0.1c-0.5,0-0.9-0.1-1.2-0.2c-0.3-0.1-0.6-0.2-0.8-0.4c-0.2-0.1-0.3-0.4-0.4-0.6
			c-0.1-0.3-0.1-0.6,0-0.9c0.1-0.3,0.3-0.5,0.5-0.8c0.2-0.2,0.5-0.4,0.9-0.6c0.4-0.2,0.7-0.3,1.1-0.4c0.7-0.2,1.5-0.2,2.4-0.1
			s1.6,0.4,2.2,0.8l0.3,0.2l0.2-0.3c1.2-1.8,1.8-2.6,3.1-4.4l0.3-0.4l-0.4-0.2c-1.3-0.7-2.9-1.1-4.5-1.2c-1.6-0.1-3.2,0-4.7,0.4
			c-1.2,0.3-2.4,0.8-3.5,1.3c-1.1,0.6-2.1,1.3-2.9,2.2c-0.8,0.9-1.4,1.8-1.7,2.9s-0.3,2.3,0.1,3.5c0.3,1,0.8,1.8,1.4,2.4
			c0.6,0.6,1.3,1.1,2,1.4c0.7,0.3,1.5,0.5,2.4,0.6c0.8,0.1,1.7,0.2,2.5,0.2c0.8,0,1.6,0,2.2,0.1c0.6,0,1.2,0.1,1.6,0.2
			c0.4,0.1,0.7,0.3,1,0.5c0.2,0.2,0.4,0.4,0.4,0.7c0.1,0.4,0.1,0.7,0,1c-0.1,0.3-0.2,0.5-0.4,0.7c-0.2,0.2-0.5,0.4-0.8,0.6
			c-0.3,0.2-0.7,0.3-1.1,0.4c-0.8,0.2-1.7,0.2-2.7,0.1c-1-0.2-1.8-0.5-2.5-0.9l-0.4-0.2l-0.2,0.4c-1.1,1.8-1.5,2.7-2.5,4.5l-0.2,0.4
			l0.4,0.2c1.3,0.7,2.9,1.1,4.6,1.2c0.3,0,0.6,0,0.9,0c1.4,0,2.7-0.2,4-0.5c1.1-0.3,2.2-0.7,3.1-1.3c1-0.5,1.9-1.2,2.6-2
			c0.7-0.8,1.2-1.8,1.5-2.8c0.3-1.1,0.3-2.3,0.1-3.6C65.8,92.8,65.3,91.9,64.6,91.2L64.6,91.2z M125.9,76.8l-0.4-0.1l-3.3,22.8
			l0.4,0.1c2.2,0.3,3.3,0.5,5.5,0.9l0.4,0.1l4.1-22.6l-0.4-0.1C129.6,77.4,128.4,77.2,125.9,76.8z M155.4,83.7
			c-8.1-2.6-12.1-3.6-20.4-5.3l-0.4-0.1l-1.1,5.3l0.4,0.1c2.7,0.5,4.1,0.8,6.6,1.5l-4.1,17.1l0.4,0.1c2.2,0.5,3.2,0.8,5.4,1.4
			l0.4,0.1l4.7-17c2.5,0.7,3.9,1.1,6.5,2l0.4,0.1l1.6-5.1L155.4,83.7L155.4,83.7z M118.4,77.3c-0.9-0.6-2-1.1-3.2-1.5
			c-1.2-0.3-2.4-0.5-3.7-0.6c-4-0.3-5.9-0.3-9.9-0.4h-0.4l-0.3,23h0.4c2.2,0,3.2,0.1,5.4,0.2l0.4,0l0.4-8.8c0.5,0,0.8,0,1.3,0.1
			c1.8,3.5,2.7,5.3,4.3,8.9l0.1,0.2l0.2,0c2.6,0.2,3.8,0.4,6.4,0.7l0.7,0.1l-0.3-0.7c-1.8-4-2.8-6-4.8-9.7c1.4-0.3,2.6-0.9,3.6-1.8
			c1.1-1,1.7-2.3,1.9-3.9c0.2-1.3,0-2.5-0.5-3.5C120,78.8,119.3,78,118.4,77.3z M111.5,84.7c-0.5,0-1,0-1.5,0
			c-1-0.1-1.5-0.1-2.4-0.1l0.2-4.4c1.1,0,1.7,0.1,2.9,0.2c0.4,0,0.9,0.1,1.4,0.2c0.4,0.1,0.8,0.2,1.2,0.4c0.3,0.2,0.6,0.4,0.8,0.7
			c0.2,0.3,0.2,0.6,0.2,1.1l0,0c0,0.5-0.2,0.8-0.4,1.1c-0.3,0.3-0.6,0.5-0.9,0.6C112.5,84.6,112,84.6,111.5,84.7z M96.2,74.9
			c-2.5,0-3.8,0.1-6.3,0.2l-0.4,0l1.2,23l0.4,0c2.2-0.1,3.3-0.2,5.5-0.2H97l-0.4-23C96.6,74.9,96.2,74.9,96.2,74.9z M99.8,127.5
			c0.7,2.1,1.4,4.3,2.1,6.4c2.3-0.1,4.5-0.3,6.8-0.7c-1.8,1.6-3.6,3.1-5.5,4.6c0.7,2.1,1.4,4.2,2.1,6.3c-1.8-1.1-3.6-2.4-5.5-3.7
			c-1.8,1.3-3.7,2.6-5.5,3.7c0.7-2.1,1.4-4.2,2.1-6.3c-1.8-1.4-3.6-3-5.5-4.6c2.2,0.4,4.5,0.6,6.8,0.7
			C98.4,131.7,99.1,129.6,99.8,127.5L99.8,127.5z M119.8,134c0,11.7-8.9,21.1-19.9,21.1s-19.9-9.5-19.9-21.1c0-0.7,0-1.5,0.1-2.2
			c0.5,1,1.3,2.2,2.4,3.3c0,0-2.2-2.7-2.2-7.8c0-0.5,0.1-0.8,0.1-0.8c0.4-12.2,9-10.4,9-10.4v0c2.2-1.5,4.6-2.5,7.3-2.9
			c0.6-1.2,1.6-2,3.2-2c1.6,0,2.6,0.8,3.2,2c2.5,0.4,4.9,1.4,7,2.7l0,0c0,0,8.3-1.7,9,9.7c0,0.3,0,0.8,0,1.5c0.1,5.2-2.2,8-2.2,8
			c1.5-1.4,2.3-2.9,2.8-4.1C119.7,132,119.8,133,119.8,134L119.8,134z M97.1,116.6l2.1,1l-1.6,1.1c1.2,0.4,2.2,0.6,2.3,0.6l0,0l0,0
			l0,0l0,0c0.1,0,1.1-0.2,2.3-0.6l-1.6-1.1l2.1-1c0,0-0.8-1.1-2.1-1.5l0.3-0.1l1.3-0.6c0,0-1-1.1-2.3-1.1l0,0
			c-1.3,0-2.3,1.1-2.3,1.1l1.3,0.6l0,0l0.3,0.1C97.9,115.5,97.1,116.6,97.1,116.6L97.1,116.6z M83.2,126.6c0.2,0,0.4-0.1,0.6-0.2
			c0.8-0.3,1.3-0.7,1.3-0.7c-0.3-0.1-0.6-0.3-0.9-0.5l0,0c-0.2-0.2-0.4-0.3-0.5-0.5l0,0c0-0.1-0.1-0.1-0.1-0.2l0,0
			c-0.4-0.5-0.6-1.1-0.7-1.3c0,0,0,0,0,0c0,0,0,0,0,0v0v0v0c1.1-0.5,2.5-0.6,2.5-0.6c0,0-0.1-0.1-0.1-0.1c0,0,0,0,0,0
			c0,0,0-0.1-0.1-0.1c0,0,0,0-0.1-0.1c0,0-0.1-0.1-0.1-0.1c0,0,0,0-0.1-0.1c0,0-0.1-0.1-0.1-0.1c0,0,0,0-0.1-0.1
			c0,0-0.1-0.1-0.1-0.1c0,0,0,0-0.1-0.1c0,0-0.1-0.1-0.1-0.1c0,0,0,0-0.1-0.1c0,0-0.1-0.1-0.1-0.1c0,0,0,0,0,0
			c-0.1-0.1-0.1-0.1-0.2-0.2c-0.4-0.4-0.7-0.7-0.7-0.7l2.7-1.5l-1.3-0.5c-2.6,1.5-3.1,5.1-3.1,6.9c0,0.6,0,1,0,1.1l0,0c0,0,0,0,0,0
			c0.1,0,0.2,0.1,0.3,0.1c0,0,0.1,0,0.1,0c0.1,0,0.1,0,0.2,0c0,0,0.1,0,0.1,0c0.1,0,0.1,0,0.2,0c0,0,0.1,0,0.1,0c0,0,0.1,0,0.2,0
			C83,126.6,83.1,126.6,83.2,126.6C83.2,126.6,83.2,126.6,83.2,126.6L83.2,126.6z M116.3,136c-1.3,1.6-3.3,3.1-6.1,4.2l1.2-2.9
			c0,0-1-0.6,0-3.5c1-2.8,2.5-10.7-1.1-15.1c-1.9-1.5-4.2-2.6-6.6-3.2c0.5,2.8-0.1,6.2-0.6,7c-0.8,1.5-2.4,1.9-2.4,1.9l-1,1.9
			l-1-1.9c0,0-1.5-0.5-2.4-1.9c-0.5-0.8-1.1-4.2-0.6-7c-2.6,0.6-5,1.9-7.1,3.6c-3.3,4.4-1.9,12.1-0.9,14.9c1,2.9,0,3.5,0,3.5
			l1.2,2.9c-2.5-0.9-4.3-2.2-5.6-3.6c1.1,3.8,3.5,7,6.7,9.2l3.4-0.3l-0.9,1.7c2.2,1,4.6,1.6,7.2,1.6s5.1-0.6,7.3-1.7l-0.9-1.7
			l3.2,0.3C112.8,143.6,115.3,140.1,116.3,136L116.3,136z M116.7,126.4c0.1,0,0.2,0,0.3,0c0,0,0.1,0,0.1,0c0.1,0,0.2,0,0.2,0
			c0,0,0.1,0,0.1,0c0.1,0,0.2,0,0.3-0.1c0,0,0,0,0,0c0,0,0,0,0,0c0,0,0,0,0-0.1l0,0c0,0,0-0.1,0-0.2l0,0c0-0.1,0-0.1,0-0.2
			c0,0,0,0,0,0c0-0.2,0-0.3,0-0.5v0c0-0.1,0-0.2,0-0.3c0,0,0,0,0,0c0-0.1,0-0.2,0-0.4c-0.1-1.9-0.7-4.9-3.1-6.3l-1.3,0.5l2.7,1.5
			c0,0-0.3,0.2-0.6,0.5c-0.1,0.1-0.1,0.1-0.2,0.2c0,0,0,0,0,0c-0.1,0.1-0.1,0.1-0.2,0.2c0,0,0,0,0,0c-0.1,0.1-0.3,0.3-0.4,0.4
			c0,0,0,0,0,0c0,0-0.1,0.1-0.1,0.1c0,0,0,0-0.1,0.1c0,0-0.1,0.1-0.1,0.1c0,0,0,0-0.1,0.1c0,0-0.1,0.1-0.1,0.1c0,0,0,0,0,0
			c0,0-0.1,0.1-0.1,0.1c0,0,1.4,0.1,2.5,0.6c0,0,0,0,0,0c0,0,0,0,0,0c0,0,0,0,0,0c0,0,0,0,0,0c0,0,0,0.1,0,0.1l0,0c0,0,0,0.1,0,0.1
			c0,0,0,0,0,0c0,0,0,0.1,0,0.1c0,0,0,0,0,0c0,0,0,0.1-0.1,0.2c0,0,0,0,0,0c0,0.1-0.1,0.1-0.1,0.2c0,0,0,0,0,0.1c0,0,0,0.1-0.1,0.1
			c0,0,0,0,0,0.1c0,0.1-0.1,0.1-0.1,0.2c0,0,0,0,0,0c0,0.1-0.1,0.1-0.1,0.2c0,0,0,0,0,0.1c0,0-0.1,0.1-0.1,0.1c0,0,0,0-0.1,0.1
			c-0.1,0.1-0.1,0.1-0.2,0.2c-0.3,0.3-0.6,0.5-1,0.6c0,0,0.7,0.6,1.6,0.8c0.1,0,0.3,0.1,0.4,0.1h0c0,0,0.1,0,0.2,0c0,0,0.1,0,0.1,0
			C116.6,126.5,116.7,126.5,116.7,126.4L116.7,126.4z M89.7,122c0.1,0,0.2,0.1,0.2,0.2c0,0.1-0.1,0.2-0.2,0.2
			c-0.1,0-0.2-0.1-0.2-0.2C89.5,122.1,89.6,122,89.7,122z M88.3,121.8c0,0.1,0.1,0.2,0.2,0.2c0.1,0,0.2-0.1,0.2-0.2
			c0-0.1-0.1-0.2-0.2-0.2C88.4,121.7,88.3,121.7,88.3,121.8z M90.8,118.6c0,0.1,0.1,0.2,0.2,0.2s0.2-0.1,0.2-0.2
			c0-0.1-0.1-0.2-0.2-0.2S90.8,118.6,90.8,118.6z M92.7,119.7c0,0.1,0.1,0.2,0.2,0.2c0.1,0,0.2-0.1,0.2-0.2c0-0.1-0.1-0.2-0.2-0.2
			C92.7,119.5,92.7,119.6,92.7,119.7z M94.6,115.9c0,0.1,0.1,0.2,0.2,0.2s0.2-0.1,0.2-0.2c0-0.1-0.1-0.2-0.2-0.2
			S94.6,115.8,94.6,115.9z M94.3,118.5c0,0.1,0.1,0.2,0.2,0.2c0.1,0,0.2-0.1,0.2-0.2c0-0.1-0.1-0.2-0.2-0.2
			C94.4,118.3,94.3,118.4,94.3,118.5z M93.1,117.2c0,0.1,0.1,0.2,0.2,0.2c0.1,0,0.2-0.1,0.2-0.2c0-0.1-0.1-0.2-0.2-0.2
			C93.2,117,93.1,117.1,93.1,117.2z M88.8,121.3c0,0.1,0.1,0.2,0.2,0.2c0.1,0,0.2-0.1,0.2-0.2c0-0.1-0.1-0.2-0.2-0.2
			C88.9,121.1,88.8,121.2,88.8,121.3z M90.2,122.3c0,0.1,0.1,0.2,0.2,0.2c0.1,0,0.2-0.1,0.2-0.2c0-0.1-0.1-0.2-0.2-0.2
			C90.3,122.1,90.2,122.2,90.2,122.3z M94.4,117c0,0.1,0.1,0.2,0.2,0.2c0.1,0,0.2-0.1,0.2-0.2s-0.1-0.2-0.2-0.2
			C94.5,116.9,94.4,117,94.4,117z M94.1,119.5c0,0.1,0.1,0.2,0.2,0.2c0.1,0,0.2-0.1,0.2-0.2c0-0.1-0.1-0.2-0.2-0.2
			C94.2,119.4,94.1,119.4,94.1,119.5z M93.2,120.7c0,0.1,0.1,0.2,0.2,0.2s0.2-0.1,0.2-0.2s-0.1-0.2-0.2-0.2S93.2,120.7,93.2,120.7z
			 M87.7,123.4c0,0.1,0.1,0.2,0.2,0.2c0.1,0,0.2-0.1,0.2-0.2c0-0.1-0.1-0.2-0.2-0.2C87.8,123.3,87.7,123.3,87.7,123.4z M95,119.4
			c0,0.1,0.1,0.2,0.2,0.2c0.1,0,0.2-0.1,0.2-0.2c0-0.1-0.1-0.2-0.2-0.2C95.1,119.3,95,119.4,95,119.4z M89.3,120.7
			c0,0.1,0.1,0.2,0.2,0.2c0.1,0,0.2-0.1,0.2-0.2c0-0.1-0.1-0.2-0.2-0.2C89.4,120.5,89.3,120.6,89.3,120.7z M91.3,118.4
			c0,0.1,0.1,0.2,0.2,0.2s0.2-0.1,0.2-0.2c0-0.1-0.1-0.2-0.2-0.2S91.3,118.3,91.3,118.4z M93.4,120.2c0,0.1,0.1,0.2,0.2,0.2
			s0.2-0.1,0.2-0.2s-0.1-0.2-0.2-0.2S93.4,120.1,93.4,120.2z M87.2,124.8c0,0.1,0.1,0.2,0.2,0.2s0.2-0.1,0.2-0.2
			c0-0.1-0.1-0.2-0.2-0.2S87.2,124.7,87.2,124.8z M94.3,117.8c0,0.1,0.1,0.2,0.2,0.2c0.1,0,0.2-0.1,0.2-0.2s-0.1-0.2-0.2-0.2
			C94.4,117.6,94.3,117.7,94.3,117.8z M93.1,116.5c0,0.1,0.1,0.2,0.2,0.2c0.1,0,0.2-0.1,0.2-0.2c0-0.1-0.1-0.2-0.2-0.2
			C93.2,116.4,93.1,116.4,93.1,116.5z M91.3,120.3c0,0.1,0.1,0.2,0.2,0.2c0.1,0,0.2-0.1,0.2-0.2c0-0.1-0.1-0.2-0.2-0.2
			C91.4,120.2,91.3,120.3,91.3,120.3z M92.5,120.8c0,0.1,0.1,0.2,0.2,0.2c0.1,0,0.2-0.1,0.2-0.2c0-0.1-0.1-0.2-0.2-0.2
			C92.6,120.7,92.5,120.8,92.5,120.8z M88,122.9c0,0.1,0.1,0.2,0.2,0.2c0.1,0,0.2-0.1,0.2-0.2s-0.1-0.2-0.2-0.2
			C88.1,122.7,88,122.8,88,122.9z M89,123.2c0,0.1,0.1,0.2,0.2,0.2c0.1,0,0.2-0.1,0.2-0.2c0-0.1-0.1-0.2-0.2-0.2
			C89.1,123,89,123.1,89,123.2z M88.2,121.3c0,0.1,0.1,0.2,0.2,0.2c0.1,0,0.2-0.1,0.2-0.2c0-0.1-0.1-0.2-0.2-0.2
			C88.2,121.1,88.2,121.2,88.2,121.3z M90.5,121.5c0,0.1,0.1,0.2,0.2,0.2s0.2-0.1,0.2-0.2c0-0.1-0.1-0.2-0.2-0.2
			S90.5,121.5,90.5,121.5z M95.4,118.2c0,0.1,0.1,0.2,0.2,0.2c0.1,0,0.2-0.1,0.2-0.2c0-0.1-0.1-0.2-0.2-0.2
			C95.5,118.1,95.4,118.1,95.4,118.2z M89.9,120.8c0,0.1,0.1,0.2,0.2,0.2s0.2-0.1,0.2-0.2c0-0.1-0.1-0.2-0.2-0.2
			S89.9,120.7,89.9,120.8z M92.1,121.2c0,0.1,0.1,0.2,0.2,0.2c0.1,0,0.2-0.1,0.2-0.2s-0.1-0.2-0.2-0.2
			C92.1,121.1,92.1,121.2,92.1,121.2z M88.2,122.4c0,0.1,0.1,0.2,0.2,0.2c0.1,0,0.2-0.1,0.2-0.2s-0.1-0.2-0.2-0.2
			C88.3,122.2,88.2,122.3,88.2,122.4z M88.2,120.2c0,0.1,0.1,0.2,0.2,0.2c0.1,0,0.2-0.1,0.2-0.2c0-0.1-0.1-0.2-0.2-0.2
			C88.2,120.1,88.2,120.2,88.2,120.2z M91.3,119.1c0,0.1,0.1,0.2,0.2,0.2c0.1,0,0.2-0.1,0.2-0.2c0-0.1-0.1-0.2-0.2-0.2
			C91.4,119,91.3,119,91.3,119.1z M92.9,118.5c0,0.1,0.1,0.2,0.2,0.2c0.1,0,0.2-0.1,0.2-0.2c0-0.1-0.1-0.2-0.2-0.2
			C93,118.4,92.9,118.5,92.9,118.5z M94.9,118.4c0,0.1,0.1,0.2,0.2,0.2c0.1,0,0.2-0.1,0.2-0.2c0-0.1-0.1-0.2-0.2-0.2
			C95,118.2,94.9,118.3,94.9,118.4z M93.7,116.2c0,0.1,0.1,0.2,0.2,0.2s0.2-0.1,0.2-0.2c0-0.1-0.1-0.2-0.2-0.2
			S93.7,116.2,93.7,116.2z M88.8,119.3c0,0.1,0.1,0.2,0.2,0.2c0.1,0,0.2-0.1,0.2-0.2c0-0.1-0.1-0.2-0.2-0.2
			C88.8,119.2,88.8,119.2,88.8,119.3z M87.6,124.3c0,0.1,0.1,0.2,0.2,0.2s0.2-0.1,0.2-0.2s-0.1-0.2-0.2-0.2S87.6,124.2,87.6,124.3z
			 M93.4,119.6c0,0.1,0.1,0.2,0.2,0.2c0.1,0,0.2-0.1,0.2-0.2c0-0.1-0.1-0.2-0.2-0.2C93.5,119.5,93.4,119.6,93.4,119.6z M87.6,121.5
			c0,0.1,0.1,0.2,0.2,0.2s0.2-0.1,0.2-0.2c0-0.1-0.1-0.2-0.2-0.2S87.6,121.4,87.6,121.5z M90.8,121.9c0,0.1,0.1,0.2,0.2,0.2
			s0.2-0.1,0.2-0.2s-0.1-0.2-0.2-0.2S90.8,121.8,90.8,121.9z M92.3,118.3c0,0.1,0.1,0.2,0.2,0.2s0.2-0.1,0.2-0.2
			c0-0.1-0.1-0.2-0.2-0.2S92.3,118.2,92.3,118.3z M91.4,119.7c0,0.1,0.1,0.2,0.2,0.2s0.2-0.1,0.2-0.2c0-0.1-0.1-0.2-0.2-0.2
			S91.4,119.7,91.4,119.7z M88.5,119.8c0,0.1,0.1,0.2,0.2,0.2c0.1,0,0.2-0.1,0.2-0.2c0-0.1-0.1-0.2-0.2-0.2
			C88.6,119.6,88.5,119.7,88.5,119.8z M95.3,116.9c0,0.1,0.1,0.2,0.2,0.2s0.2-0.1,0.2-0.2s-0.1-0.2-0.2-0.2S95.3,116.9,95.3,116.9z
			 M89.4,121.3c0,0.1,0.1,0.2,0.2,0.2c0.1,0,0.2-0.1,0.2-0.2c0-0.1-0.1-0.2-0.2-0.2C89.5,121.2,89.4,121.2,89.4,121.3z M91.1,121
			c0,0.1,0.1,0.2,0.2,0.2c0.1,0,0.2-0.1,0.2-0.2c0-0.1-0.1-0.2-0.2-0.2C91.2,120.8,91.1,120.9,91.1,121z M94.9,120.1
			c0,0.1,0.1,0.2,0.2,0.2c0.1,0,0.2-0.1,0.2-0.2c0-0.1-0.1-0.2-0.2-0.2C95,119.9,94.9,120,94.9,120.1z M90.5,121
			c0,0.1,0.1,0.2,0.2,0.2c0.1,0,0.2-0.1,0.2-0.2c0-0.1-0.1-0.2-0.2-0.2C90.6,120.8,90.5,120.9,90.5,121z M95.4,117.6
			c0,0.1,0.1,0.2,0.2,0.2c0.1,0,0.2-0.1,0.2-0.2c0-0.1-0.1-0.2-0.2-0.2C95.4,117.4,95.4,117.5,95.4,117.6z M89.2,118.9
			c0,0.1,0.1,0.2,0.2,0.2c0.1,0,0.2-0.1,0.2-0.2c0-0.1-0.1-0.2-0.2-0.2C89.2,118.7,89.2,118.8,89.2,118.9z M94.2,116.4
			c0,0.1,0.1,0.2,0.2,0.2c0.1,0,0.2-0.1,0.2-0.2c0-0.1-0.1-0.2-0.2-0.2C94.3,116.2,94.2,116.3,94.2,116.4z M94.4,120.1
			c0,0.1,0.1,0.2,0.2,0.2c0.1,0,0.2-0.1,0.2-0.2s-0.1-0.2-0.2-0.2C94.5,119.9,94.4,120,94.4,120.1z M91.4,121.5
			c0,0.1,0.1,0.2,0.2,0.2s0.2-0.1,0.2-0.2s-0.1-0.2-0.2-0.2S91.4,121.4,91.4,121.5z M90.2,118.3c0,0.1,0.1,0.2,0.2,0.2
			c0.1,0,0.2-0.1,0.2-0.2c0-0.1-0.1-0.2-0.2-0.2C90.3,118.2,90.2,118.3,90.2,118.3z M89,121.9c0,0.1,0.1,0.2,0.2,0.2
			c0.1,0,0.2-0.1,0.2-0.2c0-0.1-0.1-0.2-0.2-0.2C89.1,121.8,89,121.9,89,121.9z M87.2,123.1c0,0.1,0.1,0.2,0.2,0.2
			c0.1,0,0.2-0.1,0.2-0.2c0-0.1-0.1-0.2-0.2-0.2C87.2,123,87.2,123,87.2,123.1z M90.5,117.9c0,0.1,0.1,0.2,0.2,0.2
			c0.1,0,0.2-0.1,0.2-0.2s-0.1-0.2-0.2-0.2C90.6,117.7,90.5,117.8,90.5,117.9z M93.7,117c0,0.1,0.1,0.2,0.2,0.2S94,117,94,117
			c0-0.1-0.1-0.2-0.2-0.2S93.7,116.9,93.7,117z M88.5,123.4c0,0.1,0.1,0.2,0.2,0.2c0.1,0,0.2-0.1,0.2-0.2c0-0.1-0.1-0.2-0.2-0.2
			C88.6,123.3,88.5,123.4,88.5,123.4z M94.6,119c0,0.1,0.1,0.2,0.2,0.2c0.1,0,0.2-0.1,0.2-0.2c0-0.1-0.1-0.2-0.2-0.2
			C94.7,118.9,94.6,119,94.6,119z M91.4,117.4c0,0.1,0.1,0.2,0.2,0.2c0.1,0,0.2-0.1,0.2-0.2c0-0.1-0.1-0.2-0.2-0.2
			C91.5,117.2,91.4,117.3,91.4,117.4z M88.6,120.7c0,0.1,0.1,0.2,0.2,0.2c0.1,0,0.2-0.1,0.2-0.2c0-0.1-0.1-0.2-0.2-0.2
			C88.7,120.5,88.6,120.6,88.6,120.7z M89.8,120.1c0,0.1,0.1,0.2,0.2,0.2c0.1,0,0.2-0.1,0.2-0.2S90.1,120,90,120
			C89.9,120,89.8,120.1,89.8,120.1z M93.9,120.4c0,0.1,0.1,0.2,0.2,0.2s0.2-0.1,0.2-0.2s-0.1-0.2-0.2-0.2S93.9,120.3,93.9,120.4z
			 M87.5,122.1c0,0.1,0.1,0.2,0.2,0.2c0.1,0,0.2-0.1,0.2-0.2c0-0.1-0.1-0.2-0.2-0.2C87.6,121.9,87.5,122,87.5,122.1z M87.8,120.8
			c0,0.1,0.1,0.2,0.2,0.2c0.1,0,0.2-0.1,0.2-0.2c0-0.1-0.1-0.2-0.2-0.2C87.9,120.6,87.8,120.7,87.8,120.8z M90.5,120.4
			c0,0.1,0.1,0.2,0.2,0.2c0.1,0,0.2-0.1,0.2-0.2c0-0.1-0.1-0.2-0.2-0.2C90.6,120.2,90.5,120.3,90.5,120.4z M92.6,116.8
			c0,0.1,0.1,0.2,0.2,0.2c0.1,0,0.2-0.1,0.2-0.2c0-0.1-0.1-0.2-0.2-0.2C92.6,116.6,92.6,116.7,92.6,116.8z M86.9,124.3
			c0,0.1,0.1,0.2,0.2,0.2c0.1,0,0.2-0.1,0.2-0.2c0-0.1-0.1-0.2-0.2-0.2C87,124.1,86.9,124.2,86.9,124.3z M89.6,122.7
			c0,0.1,0.1,0.2,0.2,0.2c0.1,0,0.2-0.1,0.2-0.2c0-0.1-0.1-0.2-0.2-0.2C89.7,122.6,89.6,122.6,89.6,122.7z M90.1,119.6
			c0,0.1,0.1,0.2,0.2,0.2s0.2-0.1,0.2-0.2c0-0.1-0.1-0.2-0.2-0.2S90.1,119.5,90.1,119.6z M94.8,116.5c0,0.1,0.1,0.2,0.2,0.2
			s0.2-0.1,0.2-0.2c0-0.1-0.1-0.2-0.2-0.2S94.8,116.4,94.8,116.5z M94.8,117.6c0,0.1,0.1,0.2,0.2,0.2c0.1,0,0.2-0.1,0.2-0.2
			c0-0.1-0.1-0.2-0.2-0.2C94.9,117.4,94.8,117.5,94.8,117.6z M90.6,119.2c0,0.1,0.1,0.2,0.2,0.2c0.1,0,0.2-0.1,0.2-0.2
			c0-0.1-0.1-0.2-0.2-0.2C90.7,119,90.6,119.1,90.6,119.2z M89.4,119.6c0,0.1,0.1,0.2,0.2,0.2s0.2-0.1,0.2-0.2
			c0-0.1-0.1-0.2-0.2-0.2S89.4,119.5,89.4,119.6z M89.9,119c0,0.1,0.1,0.2,0.2,0.2c0.1,0,0.2-0.1,0.2-0.2s-0.1-0.2-0.2-0.2
			C90,118.8,89.9,118.9,89.9,119z M95.4,116.3c0,0.1,0.1,0.2,0.2,0.2c0.1,0,0.2-0.1,0.2-0.2c0-0.1-0.1-0.2-0.2-0.2
			C95.4,116.1,95.4,116.2,95.4,116.3z M91.8,120.7c0,0.1,0.1,0.2,0.2,0.2s0.2-0.1,0.2-0.2c0-0.1-0.1-0.2-0.2-0.2
			S91.8,120.6,91.8,120.7z M92.4,119.1c0,0.1,0.1,0.2,0.2,0.2c0.1,0,0.2-0.1,0.2-0.2s-0.1-0.2-0.2-0.2
			C92.5,118.9,92.4,119,92.4,119.1z M92,117c0,0.1,0.1,0.2,0.2,0.2c0.1,0,0.2-0.1,0.2-0.2c0-0.1-0.1-0.2-0.2-0.2
			C92.1,116.9,92,117,92,117z M88.1,123.9c0,0.1,0.1,0.2,0.2,0.2c0.1,0,0.2-0.1,0.2-0.2c0-0.1-0.1-0.2-0.2-0.2
			C88.2,123.7,88.1,123.8,88.1,123.9z M93.3,118c0,0.1,0.1,0.2,0.2,0.2s0.2-0.1,0.2-0.2c0-0.1-0.1-0.2-0.2-0.2S93.3,117.9,93.3,118z
			 M87.1,123.7c0,0.1,0.1,0.2,0.2,0.2c0.1,0,0.2-0.1,0.2-0.2c0-0.1-0.1-0.2-0.2-0.2C87.2,123.5,87.1,123.6,87.1,123.7z M91.1,117.8
			c0,0.1,0.1,0.2,0.2,0.2s0.2-0.1,0.2-0.2c0-0.1-0.1-0.2-0.2-0.2S91.1,117.7,91.1,117.8z M88.8,122.6c0,0.1,0.1,0.2,0.2,0.2
			c0.1,0,0.2-0.1,0.2-0.2c0-0.1-0.1-0.2-0.2-0.2C88.9,122.5,88.8,122.6,88.8,122.6z M87.4,122.6c0,0.1,0.1,0.2,0.2,0.2
			c0.1,0,0.2-0.1,0.2-0.2c0-0.1-0.1-0.2-0.2-0.2C87.4,122.4,87.4,122.5,87.4,122.6z M91.8,118c0,0.1,0.1,0.2,0.2,0.2
			c0.1,0,0.2-0.1,0.2-0.2c0-0.1-0.1-0.2-0.2-0.2C91.8,117.9,91.8,117.9,91.8,118z M86.8,125.3c0,0.1,0.1,0.2,0.2,0.2
			c0.1,0,0.2-0.1,0.2-0.2c0-0.1-0.1-0.2-0.2-0.2C86.9,125.2,86.8,125.2,86.8,125.3z M89.1,120.1c0,0.1,0.1,0.2,0.2,0.2
			c0.1,0,0.2-0.1,0.2-0.2c0-0.1-0.1-0.2-0.2-0.2C89.2,120,89.1,120.1,89.1,120.1z M89.9,121.7c0,0.1,0.1,0.2,0.2,0.2
			c0.1,0,0.2-0.1,0.2-0.2c0-0.1-0.1-0.2-0.2-0.2C90,121.5,89.9,121.6,89.9,121.7z M95.4,115.7c0,0.1,0.1,0.2,0.2,0.2
			c0.1,0,0.2-0.1,0.2-0.2c0-0.1-0.1-0.2-0.2-0.2C95.5,115.5,95.4,115.6,95.4,115.7z M90.7,119.8c0,0.1,0.1,0.2,0.2,0.2
			c0.1,0,0.2-0.1,0.2-0.2c0-0.1-0.1-0.2-0.2-0.2C90.8,119.7,90.7,119.7,90.7,119.8z M89.7,118.4c0,0.1,0.1,0.2,0.2,0.2
			c0.1,0,0.2-0.1,0.2-0.2c0-0.1-0.1-0.2-0.2-0.2C89.7,118.3,89.7,118.3,89.7,118.4z M95.4,119c0,0.1,0.1,0.2,0.2,0.2
			s0.2-0.1,0.2-0.2s-0.1-0.2-0.2-0.2S95.4,118.9,95.4,119z M93.1,119.1c0,0.1,0.1,0.2,0.2,0.2c0.1,0,0.2-0.1,0.2-0.2
			c0-0.1-0.1-0.2-0.2-0.2C93.2,119,93.1,119,93.1,119.1z M93.8,119c0,0.1,0.1,0.2,0.2,0.2c0.1,0,0.2-0.1,0.2-0.2
			c0-0.1-0.1-0.2-0.2-0.2C93.8,118.9,93.8,118.9,93.8,119z M93.8,117.5c0,0.1,0.1,0.2,0.2,0.2c0.1,0,0.2-0.1,0.2-0.2
			c0-0.1-0.1-0.2-0.2-0.2C93.8,117.4,93.8,117.5,93.8,117.5z M92.7,120.2c0,0.1,0.1,0.2,0.2,0.2c0.1,0,0.2-0.1,0.2-0.2
			c0-0.1-0.1-0.2-0.2-0.2C92.8,120.1,92.7,120.2,92.7,120.2z M92.8,117.8c0,0.1,0.1,0.2,0.2,0.2c0.1,0,0.2-0.1,0.2-0.2
			c0-0.1-0.1-0.2-0.2-0.2C92.9,117.7,92.8,117.7,92.8,117.8z M92,120.1c0,0.1,0.1,0.2,0.2,0.2c0.1,0,0.2-0.1,0.2-0.2
			c0-0.1-0.1-0.2-0.2-0.2C92.1,120,92,120.1,92,120.1z M93.7,118.4c0,0.1,0.1,0.2,0.2,0.2c0.1,0,0.2-0.1,0.2-0.2
			c0-0.1-0.1-0.2-0.2-0.2C93.8,118.2,93.7,118.3,93.7,118.4z M95.5,119.9c0,0.1,0.1,0.2,0.2,0.2c0.1,0,0.2-0.1,0.2-0.2
			c0-0.1-0.1-0.2-0.2-0.2C95.6,119.7,95.5,119.8,95.5,119.9z M91.9,119.5c0,0.1,0.1,0.2,0.2,0.2c0.1,0,0.2-0.1,0.2-0.2
			c0-0.1-0.1-0.2-0.2-0.2C92,119.3,91.9,119.4,91.9,119.5z M92.3,117.5c0,0.1,0.1,0.2,0.2,0.2c0.1,0,0.2-0.1,0.2-0.2
			s-0.1-0.2-0.2-0.2C92.4,117.4,92.3,117.5,92.3,117.5z M91.9,118.8c0,0.1,0.1,0.2,0.2,0.2c0.1,0,0.2-0.1,0.2-0.2
			c0-0.1-0.1-0.2-0.2-0.2C92,118.6,91.9,118.7,91.9,118.8z M112,122.2c0.1,0,0.2,0.1,0.2,0.2s-0.1,0.2-0.2,0.2
			c-0.1,0-0.2-0.1-0.2-0.2S111.9,122.2,112,122.2z M106.9,120.5c0,0.1,0.1,0.2,0.2,0.2s0.2-0.1,0.2-0.2c0-0.1-0.1-0.2-0.2-0.2
			S106.9,120.4,106.9,120.5z M107.6,121.4c0,0.1,0.1,0.2,0.2,0.2c0.1,0,0.2-0.1,0.2-0.2c0-0.1-0.1-0.2-0.2-0.2
			C107.7,121.3,107.6,121.4,107.6,121.4z M112.3,125c0,0.1,0.1,0.2,0.2,0.2c0.1,0,0.2-0.1,0.2-0.2c0-0.1-0.1-0.2-0.2-0.2
			C112.4,124.9,112.3,125,112.3,125z M111,123.7c0,0.1,0.1,0.2,0.2,0.2c0.1,0,0.2-0.1,0.2-0.2c0-0.1-0.1-0.2-0.2-0.2
			C111.1,123.5,111,123.6,111,123.7z M107.6,117.2c0,0.1,0.1,0.2,0.2,0.2c0.1,0,0.2-0.1,0.2-0.2c0-0.1-0.1-0.2-0.2-0.2
			C107.6,117.1,107.6,117.1,107.6,117.2z M108.3,119.1c0,0.1,0.1,0.2,0.2,0.2c0.1,0,0.2-0.1,0.2-0.2c0-0.1-0.1-0.2-0.2-0.2
			C108.3,119,108.3,119,108.3,119.1z M110.3,121.3c0,0.1,0.1,0.2,0.2,0.2c0.1,0,0.2-0.1,0.2-0.2c0-0.1-0.1-0.2-0.2-0.2
			C110.4,121.2,110.3,121.2,110.3,121.3z M108.5,119.7c0,0.1,0.1,0.2,0.2,0.2c0.1,0,0.2-0.1,0.2-0.2c0-0.1-0.1-0.2-0.2-0.2
			C108.6,119.6,108.5,119.6,108.5,119.7z M111.4,124.2c0,0.1,0.1,0.2,0.2,0.2s0.2-0.1,0.2-0.2c0-0.1-0.1-0.2-0.2-0.2
			S111.4,124.1,111.4,124.2z M110.6,119.4c0,0.1,0.1,0.2,0.2,0.2c0.1,0,0.2-0.1,0.2-0.2s-0.1-0.2-0.2-0.2
			C110.7,119.2,110.6,119.3,110.6,119.4z M109.5,119.1c0,0.1,0.1,0.2,0.2,0.2s0.2-0.1,0.2-0.2c0-0.1-0.1-0.2-0.2-0.2
			S109.5,119,109.5,119.1z M109.7,119.9c0,0.1,0.1,0.2,0.2,0.2c0.1,0,0.2-0.1,0.2-0.2c0-0.1-0.1-0.2-0.2-0.2
			C109.8,119.8,109.7,119.9,109.7,119.9z M105.2,116.6c0,0.1,0.1,0.2,0.2,0.2c0.1,0,0.2-0.1,0.2-0.2c0-0.1-0.1-0.2-0.2-0.2
			C105.2,116.5,105.2,116.5,105.2,116.6z M109.1,119.5c0,0.1,0.1,0.2,0.2,0.2s0.2-0.1,0.2-0.2c0-0.1-0.1-0.2-0.2-0.2
			S109.1,119.4,109.1,119.5z M112,123.1c0,0.1,0.1,0.2,0.2,0.2c0.1,0,0.2-0.1,0.2-0.2s-0.1-0.2-0.2-0.2
			C112.1,122.9,112,123,112,123.1z M106.9,118.8c0,0.1,0.1,0.2,0.2,0.2c0.1,0,0.2-0.1,0.2-0.2c0-0.1-0.1-0.2-0.2-0.2
			C107,118.6,106.9,118.7,106.9,118.8z M105.9,116.8c0,0.1,0.1,0.2,0.2,0.2c0.1,0,0.2-0.1,0.2-0.2c0-0.1-0.1-0.2-0.2-0.2
			C105.9,116.6,105.9,116.7,105.9,116.8z M110.2,120.4c0,0.1,0.1,0.2,0.2,0.2c0.1,0,0.2-0.1,0.2-0.2c0-0.1-0.1-0.2-0.2-0.2
			C110.3,120.3,110.2,120.4,110.2,120.4z M109.2,120.1c0,0.1,0.1,0.2,0.2,0.2c0.1,0,0.2-0.1,0.2-0.2c0-0.1-0.1-0.2-0.2-0.2
			C109.2,120,109.2,120,109.2,120.1z M111,121.6c0,0.1,0.1,0.2,0.2,0.2c0.1,0,0.2-0.1,0.2-0.2c0-0.1-0.1-0.2-0.2-0.2
			C111,121.4,111,121.5,111,121.6z M111.3,122.2c0,0.1,0.1,0.2,0.2,0.2c0.1,0,0.2-0.1,0.2-0.2c0-0.1-0.1-0.2-0.2-0.2
			C111.4,122.1,111.3,122.1,111.3,122.2z M104.6,118.5c0,0.1,0.1,0.2,0.2,0.2c0.1,0,0.2-0.1,0.2-0.2s-0.1-0.2-0.2-0.2
			C104.6,118.3,104.6,118.4,104.6,118.5z M106.5,120c0,0.1,0.1,0.2,0.2,0.2c0.1,0,0.2-0.1,0.2-0.2c0-0.1-0.1-0.2-0.2-0.2
			C106.6,119.9,106.5,119.9,106.5,120z M105,116c0,0.1,0.1,0.2,0.2,0.2c0.1,0,0.2-0.1,0.2-0.2c0-0.1-0.1-0.2-0.2-0.2
			C105.1,115.9,105,115.9,105,116z M110.1,119.5c0,0.1,0.1,0.2,0.2,0.2s0.2-0.1,0.2-0.2c0-0.1-0.1-0.2-0.2-0.2
			S110.1,119.4,110.1,119.5z M105.3,117.2c0,0.1,0.1,0.2,0.2,0.2c0.1,0,0.2-0.1,0.2-0.2s-0.1-0.2-0.2-0.2
			C105.4,117.1,105.3,117.1,105.3,117.2z M111.1,120.4c0,0.1,0.1,0.2,0.2,0.2s0.2-0.1,0.2-0.2c0-0.1-0.1-0.2-0.2-0.2
			S111.1,120.4,111.1,120.4z M106.8,119.4c0,0.1,0.1,0.2,0.2,0.2c0.1,0,0.2-0.1,0.2-0.2c0-0.1-0.1-0.2-0.2-0.2
			C106.9,119.2,106.8,119.3,106.8,119.4z M111.4,123c0,0.1,0.1,0.2,0.2,0.2s0.2-0.1,0.2-0.2c0-0.1-0.1-0.2-0.2-0.2
			S111.4,122.9,111.4,123z M105.8,118.1c0,0.1,0.1,0.2,0.2,0.2c0.1,0,0.2-0.1,0.2-0.2s-0.1-0.2-0.2-0.2
			C105.9,117.9,105.8,118,105.8,118.1z M110.8,120c0,0.1,0.1,0.2,0.2,0.2s0.2-0.1,0.2-0.2c0-0.1-0.1-0.2-0.2-0.2
			S110.8,119.9,110.8,120z M110.6,123.3c0,0.1,0.1,0.2,0.2,0.2s0.2-0.1,0.2-0.2c0-0.1-0.1-0.2-0.2-0.2S110.6,123.2,110.6,123.3z
			 M107.9,118.6c0,0.1,0.1,0.2,0.2,0.2s0.2-0.1,0.2-0.2s-0.1-0.2-0.2-0.2S107.9,118.5,107.9,118.6z M105,120.3
			c0,0.1,0.1,0.2,0.2,0.2c0.1,0,0.2-0.1,0.2-0.2c0-0.1-0.1-0.2-0.2-0.2C105,120.2,105,120.2,105,120.3z M108.4,121.1
			c0,0.1,0.1,0.2,0.2,0.2c0.1,0,0.2-0.1,0.2-0.2c0-0.1-0.1-0.2-0.2-0.2C108.5,120.9,108.4,121,108.4,121.1z M110.1,118.8
			c0,0.1,0.1,0.2,0.2,0.2s0.2-0.1,0.2-0.2c0-0.1-0.1-0.2-0.2-0.2S110.1,118.7,110.1,118.8z M104.6,119.1c0,0.1,0.1,0.2,0.2,0.2
			s0.2-0.1,0.2-0.2c0-0.1-0.1-0.2-0.2-0.2S104.6,119.1,104.6,119.1z M104.1,117.5c0,0.1,0.1,0.2,0.2,0.2c0.1,0,0.2-0.1,0.2-0.2
			c0-0.1-0.1-0.2-0.2-0.2C104.1,117.3,104.1,117.4,104.1,117.5z M110.6,122.1c0,0.1,0.1,0.2,0.2,0.2c0.1,0,0.2-0.1,0.2-0.2
			s-0.1-0.2-0.2-0.2C110.6,121.9,110.6,122,110.6,122.1z M111.6,123.6c0,0.1,0.1,0.2,0.2,0.2c0.1,0,0.2-0.1,0.2-0.2
			c0-0.1-0.1-0.2-0.2-0.2C111.7,123.4,111.6,123.5,111.6,123.6z M109.9,121.8c0,0.1,0.1,0.2,0.2,0.2c0.1,0,0.2-0.1,0.2-0.2
			c0-0.1-0.1-0.2-0.2-0.2C109.9,121.6,109.9,121.7,109.9,121.8z M107.1,116.9c0,0.1,0.1,0.2,0.2,0.2c0.1,0,0.2-0.1,0.2-0.2
			c0-0.1-0.1-0.2-0.2-0.2C107.2,116.7,107.1,116.8,107.1,116.9z M107.9,119.7c0,0.1,0.1,0.2,0.2,0.2c0.1,0,0.2-0.1,0.2-0.2
			c0-0.1-0.1-0.2-0.2-0.2C107.9,119.6,107.9,119.7,107.9,119.7z M110.1,123c0,0.1,0.1,0.2,0.2,0.2c0.1,0,0.2-0.1,0.2-0.2
			s-0.1-0.2-0.2-0.2C110.2,122.8,110.1,122.9,110.1,123z M112.1,123.9c0,0.1,0.1,0.2,0.2,0.2s0.2-0.1,0.2-0.2s-0.1-0.2-0.2-0.2
			S112.1,123.8,112.1,123.9z M108.8,120.6c0,0.1,0.1,0.2,0.2,0.2c0.1,0,0.2-0.1,0.2-0.2c0-0.1-0.1-0.2-0.2-0.2
			C108.9,120.4,108.8,120.5,108.8,120.6z M108.2,120.3c0,0.1,0.1,0.2,0.2,0.2c0.1,0,0.2-0.1,0.2-0.2c0-0.1-0.1-0.2-0.2-0.2
			C108.3,120.2,108.2,120.3,108.2,120.3z M109.4,122.5c0,0.1,0.1,0.2,0.2,0.2s0.2-0.1,0.2-0.2c0-0.1-0.1-0.2-0.2-0.2
			S109.4,122.4,109.4,122.5z M108.9,118.9c0,0.1,0.1,0.2,0.2,0.2c0.1,0,0.2-0.1,0.2-0.2c0-0.1-0.1-0.2-0.2-0.2
			C109,118.7,108.9,118.8,108.9,118.9z M107.3,118.4c0,0.1,0.1,0.2,0.2,0.2c0.1,0,0.2-0.1,0.2-0.2c0-0.1-0.1-0.2-0.2-0.2
			C107.4,118.2,107.3,118.3,107.3,118.4z M107,121.1c0,0.1,0.1,0.2,0.2,0.2s0.2-0.1,0.2-0.2c0-0.1-0.1-0.2-0.2-0.2
			S107,121,107,121.1z M106.2,119.2c0,0.1,0.1,0.2,0.2,0.2c0.1,0,0.2-0.1,0.2-0.2c0-0.1-0.1-0.2-0.2-0.2
			C106.3,119.1,106.2,119.1,106.2,119.2z M105.7,116.2c0,0.1,0.1,0.2,0.2,0.2c0.1,0,0.2-0.1,0.2-0.2c0-0.1-0.1-0.2-0.2-0.2
			C105.8,116.1,105.7,116.1,105.7,116.2z M103.9,116.7c0,0.1,0.1,0.2,0.2,0.2c0.1,0,0.2-0.1,0.2-0.2s-0.1-0.2-0.2-0.2
			C104,116.6,103.9,116.6,103.9,116.7z M109.6,118.5c0,0.1,0.1,0.2,0.2,0.2c0.1,0,0.2-0.1,0.2-0.2c0-0.1-0.1-0.2-0.2-0.2
			C109.6,118.3,109.6,118.4,109.6,118.5z M106.3,120.7c0,0.1,0.1,0.2,0.2,0.2c0.1,0,0.2-0.1,0.2-0.2c0-0.1-0.1-0.2-0.2-0.2
			C106.3,120.6,106.3,120.6,106.3,120.7z M107.9,117.9c0,0.1,0.1,0.2,0.2,0.2c0.1,0,0.2-0.1,0.2-0.2c0-0.1-0.1-0.2-0.2-0.2
			C107.9,117.8,107.9,117.8,107.9,117.9z M106,119.9c0,0.1,0.1,0.2,0.2,0.2c0.1,0,0.2-0.1,0.2-0.2c0-0.1-0.1-0.2-0.2-0.2
			C106.1,119.7,106,119.8,106,119.9z M107.6,119.2c0,0.1,0.1,0.2,0.2,0.2s0.2-0.1,0.2-0.2c0-0.1-0.1-0.2-0.2-0.2
			S107.6,119.1,107.6,119.2z M107.2,117.7c0,0.1,0.1,0.2,0.2,0.2c0.1,0,0.2-0.1,0.2-0.2c0-0.1-0.1-0.2-0.2-0.2
			C107.2,117.6,107.2,117.7,107.2,117.7z M112,124.5c0,0.1,0.1,0.2,0.2,0.2s0.2-0.1,0.2-0.2c0-0.1-0.1-0.2-0.2-0.2
			S112,124.5,112,124.5z M105.2,117.8c0,0.1,0.1,0.2,0.2,0.2c0.1,0,0.2-0.1,0.2-0.2c0-0.1-0.1-0.2-0.2-0.2
			C105.2,117.7,105.2,117.7,105.2,117.8z M105.7,120.5c0,0.1,0.1,0.2,0.2,0.2c0.1,0,0.2-0.1,0.2-0.2s-0.1-0.2-0.2-0.2
			C105.7,120.3,105.7,120.4,105.7,120.5z M108.5,118.4c0,0.1,0.1,0.2,0.2,0.2c0.1,0,0.2-0.1,0.2-0.2c0-0.1-0.1-0.2-0.2-0.2
			C108.6,118.3,108.5,118.3,108.5,118.4z M104.4,115.8c0,0.1,0.1,0.2,0.2,0.2c0.1,0,0.2-0.1,0.2-0.2s-0.1-0.2-0.2-0.2
			C104.5,115.7,104.4,115.7,104.4,115.8z M108.1,117.4c0,0.1,0.1,0.2,0.2,0.2c0.1,0,0.2-0.1,0.2-0.2c0-0.1-0.1-0.2-0.2-0.2
			C108.2,117.2,108.1,117.3,108.1,117.4z M111.6,121.6c0,0.1,0.1,0.2,0.2,0.2c0.1,0,0.2-0.1,0.2-0.2c0-0.1-0.1-0.2-0.2-0.2
			C111.7,121.5,111.6,121.6,111.6,121.6z M105.2,118.5c0,0.1,0.1,0.2,0.2,0.2c0.1,0,0.2-0.1,0.2-0.2c0-0.1-0.1-0.2-0.2-0.2
			C105.2,118.3,105.2,118.4,105.2,118.5z M105.6,119c0,0.1,0.1,0.2,0.2,0.2c0.1,0,0.2-0.1,0.2-0.2c0-0.1-0.1-0.2-0.2-0.2
			C105.7,118.9,105.6,118.9,105.6,119z M110.8,122.7c0,0.1,0.1,0.2,0.2,0.2c0.1,0,0.2-0.1,0.2-0.2s-0.1-0.2-0.2-0.2
			C110.9,122.5,110.8,122.6,110.8,122.7z M106.5,118.3c0,0.1,0.1,0.2,0.2,0.2s0.2-0.1,0.2-0.2s-0.1-0.2-0.2-0.2
			S106.5,118.2,106.5,118.3z M104.1,120.1c0,0.1,0.1,0.2,0.2,0.2c0.1,0,0.2-0.1,0.2-0.2c0-0.1-0.1-0.2-0.2-0.2
			C104.1,119.9,104.1,120,104.1,120.1z M107.7,120.9c0,0.1,0.1,0.2,0.2,0.2c0.1,0,0.2-0.1,0.2-0.2c0-0.1-0.1-0.2-0.2-0.2
			C107.8,120.8,107.7,120.8,107.7,120.9z M109.6,120.6c0,0.1,0.1,0.2,0.2,0.2c0.1,0,0.2-0.1,0.2-0.2c0-0.1-0.1-0.2-0.2-0.2
			C109.7,120.5,109.6,120.5,109.6,120.6z M107.5,120.3c0,0.1,0.1,0.2,0.2,0.2c0.1,0,0.2-0.1,0.2-0.2c0-0.1-0.1-0.2-0.2-0.2
			C107.6,120.2,107.5,120.3,107.5,120.3z M109.3,121.8c0,0.1,0.1,0.2,0.2,0.2s0.2-0.1,0.2-0.2s-0.1-0.2-0.2-0.2
			S109.3,121.7,109.3,121.8z M110.6,120.9c0,0.1,0.1,0.2,0.2,0.2c0.1,0,0.2-0.1,0.2-0.2s-0.1-0.2-0.2-0.2
			C110.7,120.7,110.6,120.8,110.6,120.9z M107.2,119.8c0,0.1,0.1,0.2,0.2,0.2c0.1,0,0.2-0.1,0.2-0.2c0-0.1-0.1-0.2-0.2-0.2
			C107.3,119.6,107.2,119.7,107.2,119.8z M105.5,119.8c0,0.1,0.1,0.2,0.2,0.2s0.2-0.1,0.2-0.2c0-0.1-0.1-0.2-0.2-0.2
			S105.5,119.7,105.5,119.8z M106,118.6c0,0.1,0.1,0.2,0.2,0.2c0.1,0,0.2-0.1,0.2-0.2c0-0.1-0.1-0.2-0.2-0.2
			C106.1,118.5,106,118.5,106,118.6z M111.4,121c0,0.1,0.1,0.2,0.2,0.2s0.2-0.1,0.2-0.2c0-0.1-0.1-0.2-0.2-0.2
			S111.4,120.9,111.4,121z M106.5,117.7c0,0.1,0.1,0.2,0.2,0.2c0.1,0,0.2-0.1,0.2-0.2s-0.1-0.2-0.2-0.2
			C106.6,117.5,106.5,117.6,106.5,117.7z M108.3,121.7c0,0.1,0.1,0.2,0.2,0.2c0.1,0,0.2-0.1,0.2-0.2s-0.1-0.2-0.2-0.2
			C108.4,121.5,108.3,121.6,108.3,121.7z M104.7,119.8c0,0.1,0.1,0.2,0.2,0.2c0.1,0,0.2-0.1,0.2-0.2c0-0.1-0.1-0.2-0.2-0.2
			C104.8,119.6,104.7,119.7,104.7,119.8z M108.8,122.1c0,0.1,0.1,0.2,0.2,0.2c0.1,0,0.2-0.1,0.2-0.2c0-0.1-0.1-0.2-0.2-0.2
			C108.9,121.9,108.8,122,108.8,122.1z M109.7,121.2c0,0.1,0.1,0.2,0.2,0.2c0.1,0,0.2-0.1,0.2-0.2c0-0.1-0.1-0.2-0.2-0.2
			C109.7,121,109.7,121.1,109.7,121.2z M103.8,115.9c0,0.1,0.1,0.2,0.2,0.2s0.2-0.1,0.2-0.2c0-0.1-0.1-0.2-0.2-0.2
			S103.8,115.8,103.8,115.9z M104.6,117.7c0,0.1,0.1,0.2,0.2,0.2s0.2-0.1,0.2-0.2c0-0.1-0.1-0.2-0.2-0.2S104.6,117.6,104.6,117.7z
			 M106.5,117.1c0,0.1,0.1,0.2,0.2,0.2c0.1,0,0.2-0.1,0.2-0.2c0-0.1-0.1-0.2-0.2-0.2C106.6,117,106.5,117,106.5,117.1z M109.1,118.1
			c0,0.1,0.1,0.2,0.2,0.2c0.1,0,0.2-0.1,0.2-0.2c0-0.1-0.1-0.2-0.2-0.2C109.2,118,109.1,118.1,109.1,118.1z M109,121.2
			c0,0.1,0.1,0.2,0.2,0.2c0.1,0,0.2-0.1,0.2-0.2c0-0.1-0.1-0.2-0.2-0.2C109.1,121,109,121.1,109,121.2z M105.1,119.2
			c0,0.1,0.1,0.2,0.2,0.2c0.1,0,0.2-0.1,0.2-0.2s-0.1-0.2-0.2-0.2C105.2,119.1,105.1,119.2,105.1,119.2z M104.1,118.2
			c0,0.1,0.1,0.2,0.2,0.2s0.2-0.1,0.2-0.2c0-0.1-0.1-0.2-0.2-0.2S104.1,118.2,104.1,118.2z M104,119.5c0,0.1,0.1,0.2,0.2,0.2
			s0.2-0.1,0.2-0.2c0-0.1-0.1-0.2-0.2-0.2S104,119.5,104,119.5z M110,122.4c0,0.1,0.1,0.2,0.2,0.2c0.1,0,0.2-0.1,0.2-0.2
			s-0.1-0.2-0.2-0.2C110.1,122.2,110,122.3,110,122.4z M108.7,117.8c0,0.1,0.1,0.2,0.2,0.2c0.1,0,0.2-0.1,0.2-0.2
			c0-0.1-0.1-0.2-0.2-0.2C108.7,117.6,108.7,117.7,108.7,117.8z M106.5,116.5c0,0.1,0.1,0.2,0.2,0.2s0.2-0.1,0.2-0.2
			c0-0.1-0.1-0.2-0.2-0.2S106.5,116.4,106.5,116.5z M105.9,117.4c0,0.1,0.1,0.2,0.2,0.2c0.1,0,0.2-0.1,0.2-0.2s-0.1-0.2-0.2-0.2
			C106,117.3,105.9,117.4,105.9,117.4z M103.9,118.9c0,0.1,0.1,0.2,0.2,0.2c0.1,0,0.2-0.1,0.2-0.2c0-0.1-0.1-0.2-0.2-0.2
			C104,118.8,103.9,118.8,103.9,118.9z M104.6,117.1c0,0.1,0.1,0.2,0.2,0.2c0.1,0,0.2-0.1,0.2-0.2c0-0.1-0.1-0.2-0.2-0.2
			C104.7,116.9,104.6,117,104.6,117.1z M104.4,116.5c0,0.1,0.1,0.2,0.2,0.2c0.1,0,0.2-0.1,0.2-0.2c0-0.1-0.1-0.2-0.2-0.2
			C104.5,116.3,104.4,116.4,104.4,116.5z M69.8,66.2c-0.7,0.1-1.1,0.2-1.8,0.3c-0.9-2-1.4-3-2.3-5c0,0,0,0,0,0
			c-0.3,2.2-0.5,3.3-0.7,5.4c-0.7,0.1-1.1,0.2-1.8,0.3c-1.4-2.9-2.1-4.4-3.5-7.3c0.8-0.1,1.2-0.2,2.1-0.4c0.8,2,1.3,2.9,2.1,4.9
			c0,0,0,0,0,0c0.2-2.1,0.4-3.2,0.6-5.3c0.8-0.1,1.2-0.2,2-0.3c0.9,2,1.3,2.9,2.1,4.9c0,0,0,0,0,0c0.2-2.1,0.3-3.2,0.6-5.3
			c0.8-0.1,1.2-0.2,2-0.3C70.5,61.4,70.2,63,69.8,66.2L69.8,66.2z M77.9,65.3c-0.3-0.6-0.5-0.9-0.7-1.5c-1.2,0.1-1.8,0.2-3,0.3
			c-0.2,0.6-0.2,0.9-0.4,1.6c-0.8,0.1-1.2,0.1-2,0.2c0.9-3.2,1.4-4.9,2.4-8.1c0.7-0.1,1.1-0.1,1.9-0.2c1.6,2.9,2.4,4.4,4,7.4
			C79.2,65.2,78.7,65.2,77.9,65.3L77.9,65.3z M75.2,59.9c-0.3,1.1-0.4,1.6-0.7,2.7c0.8-0.1,1.2-0.1,2-0.2
			C76,61.4,75.7,60.9,75.2,59.9z M85.1,58.9c-0.2-0.2-0.4-0.3-0.7-0.4c-0.3-0.1-0.5-0.1-0.8-0.1c-0.1,0-0.3,0-0.4,0.1
			s-0.2,0.1-0.4,0.2c-0.1,0.1-0.2,0.2-0.2,0.3c-0.1,0.1-0.1,0.2-0.1,0.4c0,0.1,0,0.2,0.1,0.3c0.1,0.1,0.2,0.2,0.3,0.2
			c0.1,0.1,0.2,0.1,0.4,0.2s0.3,0.1,0.5,0.1c0.3,0.1,0.6,0.1,0.9,0.2c0.3,0.1,0.6,0.2,0.8,0.4s0.5,0.4,0.6,0.6
			c0.2,0.2,0.3,0.6,0.3,0.9c0,0.4,0,0.8-0.2,1.2c-0.1,0.3-0.4,0.6-0.6,0.8c-0.3,0.2-0.6,0.4-0.9,0.5c-0.4,0.1-0.7,0.2-1.1,0.2
			c-0.5,0-1.1,0-1.6-0.2c-0.5-0.2-1-0.4-1.4-0.7c0.5-0.5,0.7-0.8,1.1-1.3c0.2,0.2,0.5,0.4,0.8,0.5c0.3,0.1,0.6,0.2,0.9,0.2
			c0.1,0,0.3,0,0.4-0.1c0.1,0,0.2-0.1,0.3-0.2c0.1-0.1,0.2-0.2,0.2-0.3c0-0.1,0.1-0.2,0.1-0.4c0-0.1-0.1-0.3-0.1-0.4
			c-0.1-0.1-0.2-0.2-0.3-0.3c-0.1-0.1-0.3-0.1-0.5-0.2c-0.2-0.1-0.4-0.1-0.7-0.2c-0.3-0.1-0.5-0.1-0.8-0.2c-0.2-0.1-0.5-0.2-0.7-0.4
			c-0.2-0.2-0.4-0.4-0.5-0.6c-0.1-0.2-0.2-0.5-0.2-0.9c0-0.4,0-0.8,0.2-1.1c0.2-0.3,0.4-0.6,0.7-0.8s0.6-0.4,1-0.5
			c0.4-0.1,0.7-0.2,1.1-0.2c0.5,0,0.9,0,1.4,0.2c0.5,0.1,0.9,0.3,1.3,0.6C85.8,58.1,85.6,58.4,85.1,58.9L85.1,58.9z M92.8,64.3
			c0-1.3-0.1-1.9-0.1-3.2c-1.2,0-1.8,0.1-3.1,0.1c0.1,1.3,0.1,1.9,0.1,3.2c-0.7,0-1.1,0-1.9,0.1c-0.2-3.1-0.2-4.6-0.4-7.7
			c0.8,0,1.2-0.1,1.9-0.1c0.1,1.2,0.1,1.8,0.1,2.9c1.2-0.1,1.9-0.1,3.1-0.1c0-1.2-0.1-1.8-0.1-2.9c0.8,0,1.2,0,1.9-0.1
			c0.1,3.1,0.1,4.6,0.2,7.7C93.9,64.3,93.5,64.3,92.8,64.3L92.8,64.3z M96.3,64.2c0-3.1-0.1-4.6-0.1-7.7c0.8,0,1.2,0,2,0
			c0,3.1,0,4.6,0.1,7.7C97.4,64.2,97,64.2,96.3,64.2L96.3,64.2z M104.7,64.2c-1.2-2-1.8-3.1-3.1-5.1c0,0,0,0,0,0c0,2,0,3,0,5.1
			c-0.7,0-1.1,0-1.8,0c0-3.1,0-4.6,0-7.7c0.9,0,1.3,0,2.2,0c1.3,2,1.9,3.1,3.1,5.1c0,0,0,0,0,0c0-2,0-3,0.1-5.1c0.7,0,1.1,0,1.9,0
			c-0.1,3.1-0.1,4.6-0.2,7.7C106,64.3,105.5,64.3,104.7,64.2L104.7,64.2z M114,64.6c-0.5,0.1-1.1,0.1-1.7,0.1
			c-0.6,0-1.2-0.2-1.7-0.4c-0.5-0.2-0.9-0.5-1.3-0.9c-0.4-0.4-0.6-0.8-0.8-1.3c-0.2-0.5-0.3-1.1-0.3-1.7c0-0.6,0.2-1.2,0.4-1.7
			c0.2-0.5,0.6-0.9,1-1.3c0.4-0.3,0.9-0.6,1.4-0.7c0.5-0.2,1.1-0.2,1.7-0.2c0.6,0,1.2,0.2,1.8,0.4c0.5,0.2,1,0.5,1.3,0.8
			c-0.5,0.5-0.8,0.8-1.3,1.3c-0.2-0.2-0.4-0.4-0.7-0.6c-0.3-0.2-0.6-0.2-1-0.3c-0.3,0-0.7,0-0.9,0.1c-0.3,0.1-0.5,0.3-0.8,0.5
			c-0.2,0.2-0.4,0.5-0.5,0.7c-0.1,0.3-0.2,0.6-0.2,1c0,0.4,0,0.7,0.1,1c0.1,0.3,0.2,0.6,0.4,0.8c0.2,0.2,0.4,0.4,0.7,0.5
			c0.3,0.1,0.6,0.2,1,0.2c0.2,0,0.4,0,0.6,0c0.2,0,0.4-0.1,0.6-0.1c0-0.6,0-0.8,0.1-1.4c-0.6,0-0.9-0.1-1.5-0.1c0-0.6,0-0.9,0.1-1.5
			c1.3,0.1,2,0.1,3.3,0.2c-0.1,1.6-0.2,2.5-0.3,4.1C115,64.4,114.5,64.6,114,64.6L114,64.6z M120.8,59c-0.2,2.4-0.3,3.7-0.5,6.1
			c-0.7-0.1-1.1-0.1-1.9-0.2c0.2-2.4,0.3-3.7,0.5-6.1c-0.9-0.1-1.3-0.1-2.2-0.2c0-0.6,0.1-1,0.1-1.6c2.6,0.2,3.9,0.3,6.5,0.5
			c-0.1,0.6-0.1,0.9-0.2,1.6C122.1,59.1,121.7,59,120.8,59L120.8,59z M131.6,62.4c-0.1,0.6-0.3,1.1-0.5,1.6s-0.6,0.9-1.1,1.2
			c-0.4,0.3-0.9,0.5-1.5,0.7c-0.5,0.1-1.1,0.2-1.7,0.1c-0.6-0.1-1.1-0.2-1.6-0.5c-0.5-0.3-0.9-0.6-1.3-1s-0.6-0.9-0.7-1.4
			c-0.2-0.5-0.2-1.1-0.2-1.7c0.1-0.6,0.2-1.2,0.5-1.6c0.3-0.5,0.6-0.9,1-1.2c0.4-0.3,0.9-0.5,1.5-0.7c0.5-0.1,1.1-0.2,1.8-0.1
			c0.6,0.1,1.2,0.2,1.7,0.5s0.9,0.6,1.3,1c0.3,0.4,0.6,0.9,0.7,1.4C131.6,61.3,131.6,61.8,131.6,62.4L131.6,62.4z M129.5,62.2
			c0-0.3,0-0.7,0-1c-0.1-0.3-0.2-0.6-0.4-0.8c-0.2-0.2-0.4-0.4-0.7-0.6c-0.3-0.2-0.6-0.2-0.9-0.3c-0.3,0-0.7,0-0.9,0.1
			c-0.3,0.1-0.5,0.2-0.8,0.4s-0.4,0.4-0.5,0.7c-0.1,0.3-0.2,0.6-0.3,0.9c0,0.4,0,0.7,0.1,1c0.1,0.3,0.2,0.6,0.4,0.8
			c0.2,0.2,0.4,0.4,0.6,0.6s0.5,0.2,0.9,0.3c0.3,0,0.6,0,0.9-0.1s0.5-0.2,0.8-0.4c0.2-0.2,0.4-0.4,0.6-0.7
			C129.4,62.8,129.5,62.5,129.5,62.2L129.5,62.2z M137.2,67.2c-0.9-2.2-1.4-3.3-2.4-5.5c0,0,0,0,0,0c-0.3,2-0.4,3-0.7,5
			c-0.7-0.1-1.1-0.2-1.8-0.3c0.4-3.1,0.7-4.6,1.1-7.7c0.9,0.1,1.3,0.2,2.2,0.3c1,2.2,1.5,3.3,2.4,5.5h0c0.3-2,0.5-3,0.8-5
			c0.7,0.1,1.1,0.2,1.9,0.3c-0.5,3.1-0.8,4.6-1.3,7.6C138.4,67.5,138,67.4,137.2,67.2L137.2,67.2z"/>
	</g>
</g>
</svg>
