<?xml version="1.0" encoding="UTF-8" standalone="no"?>
<svg
   height="199.74023"
   width="87.53315"
   version="1.1"
   viewBox="0 0 87.533147 199.74023"
   id="svg17"
   sodipodi:docname="Tottenham_Hotspur.svg"
   inkscape:version="1.4 (86a8ad7, 2024-10-11)"
   xmlns:inkscape="http://www.inkscape.org/namespaces/inkscape"
   xmlns:sodipodi="http://sodipodi.sourceforge.net/DTD/sodipodi-0.dtd"
   xmlns="http://www.w3.org/2000/svg"
   xmlns:svg="http://www.w3.org/2000/svg">
  <defs
     id="defs17" />
  <sodipodi:namedview
     id="namedview17"
     pagecolor="#ffffff"
     bordercolor="#000000"
     borderopacity="0.25"
     inkscape:showpageshadow="2"
     inkscape:pageopacity="0.0"
     inkscape:pagecheckerboard="0"
     inkscape:deskcolor="#d1d1d1"
     inkscape:zoom="2.4900161"
     inkscape:cx="-79.115953"
     inkscape:cy="145.17978"
     inkscape:window-width="3440"
     inkscape:window-height="1377"
     inkscape:window-x="-8"
     inkscape:window-y="-8"
     inkscape:window-maximized="1"
     inkscape:current-layer="svg17" />
  <path
     id="path17"
     style="fill:#ffffff"
     sodipodi:type="inkscape:offset"
     inkscape:radius="5.7792325"
     inkscape:original="M 16.941406 0 C 7.9224062 0 4.703125 3.9023438 4.703125 3.9023438 C 4.703125 3.9023438 17.058594 4.30225 17.058594 17.28125 C 17.058594 30.86725 1.7578125 34.617516 1.7578125 51.853516 C 1.7578125 80.545516 35.923828 80.008344 35.923828 102.65234 C 35.923828 112.76634 31.608234 120.98942 29.115234 123.48242 C 21.393234 131.20542 15.020172 125.58203 14.951172 133.33203 C 11.447172 136.50603 8.9264531 141.33175 7.6894531 146.84375 A 2.167 2.167 0 0 1 7.9179688 146.87695 A 2.88252 2.88252 0 0 1 9.7421875 148.07617 C 19.551187 140.08117 34.655219 135.87828 46.199219 138.48828 A 20.44016 20.44016 0 0 1 55.341797 142.74609 A 30.00641 30.00641 0 0 0 39.972656 130.29102 C 38.450656 129.74602 35.748047 129.1205 35.748047 124.1875 C 35.748047 114.9795 45.821031 122.13937 52.457031 112.10938 C 52.783031 111.61638 52.314781 111.18131 51.925781 111.57031 C 49.917781 113.57731 44.987906 114.95703 42.378906 114.95703 A 7.61036 7.61036 0 0 1 38.785156 114.36328 A 71.81711 71.81711 0 0 1 44.320312 105.28516 C 38.160312 99.123156 48.529703 65.246094 75.970703 65.246094 A 85.94117 85.94117 0 0 0 74.130859 46.701172 C 73.477859 46.859172 68.308266 48.078234 68.072266 46.990234 C 67.864266 46.028234 71.879719 43.941859 73.261719 43.255859 A 30.82416 30.82416 0 0 0 70.570312 36.355469 C 47.050313 43.766469 51.778828 63.238281 46.048828 63.238281 C 42.319828 63.238281 39.38975 60.335062 38.34375 59.289062 C 24.29575 45.243063 30.841797 35.94725 30.841797 17.28125 C 30.841797 4.70725 25.958406 -2.3684758e-15 16.941406 0 z M 16.941406 2.5761719 C 22.822406 2.5761719 28.265625 4.35725 28.265625 17.28125 A 116.757 116.757 0 0 1 27.412109 30.066406 A 77.31438 77.31438 0 0 0 26.759766 40.582031 C 26.759766 40.582031 16.517578 39.377828 16.517578 31.673828 C 16.517578 26.671828 19.636719 25.45325 19.636719 17.28125 A 19.44647 19.44647 0 0 0 19.132812 12.753906 C 19.132812 12.753906 21.820313 12.612844 21.820312 9.3398438 C 21.820312 6.6438438 20.020109 4.8046875 19.537109 4.8046875 C 19.147109 4.8046875 19.053937 5.2167969 18.210938 5.2167969 C 16.155938 5.2167969 16.003906 2.5917969 16.003906 2.5917969 C 16.307906 2.5808102 16.620073 2.5758519 16.941406 2.5761719 z M 12.597656 134.05664 A 30.01075 30.01075 0 0 0 1.6035156 148.75977 A 9.38015 9.38015 0 0 0 3.4316406 150.27539 A 7.73968 7.73968 0 0 1 4.5859375 148.38281 A 5.012 5.012 0 0 1 5.7675781 147.34375 A 27.061 27.061 0 0 1 12.597656 134.05664 z M 36.875 139.57422 C 27.569422 140.05155 17.532312 143.88372 10.507812 149.79297 A 9.03127 9.03127 0 0 1 10.277344 154.50977 A 152.78226 152.78226 0 0 0 36.101562 164.88281 C 38.279562 159.87881 42.454031 158.92528 45.707031 159.73828 C 48.038031 160.32028 49.537813 160.6247 50.632812 160.8457 L 51.835938 161.09961 A 5.84451 5.84451 0 0 1 55.554688 163.91992 A 7.18041 7.18041 0 0 1 56.296875 168.73633 A 3.30415 3.30415 0 0 0 58.115234 168.32617 A 30.0416 30.0416 0 0 0 57.837891 147.79883 C 56.462891 144.19083 51.861828 141.63567 45.798828 140.26367 C 42.998078 139.63017 39.976859 139.41511 36.875 139.57422 z M 7.65625 148.30469 A 2.15282 2.15282 0 0 0 5.6542969 149.10547 A 7.38634 7.38634 0 0 0 3.8886719 154.625 A 4.11815 4.11815 0 0 0 4.1601562 156.00977 A 2.28552 2.28552 0 0 0 5.6816406 157.48438 A 2.22447 2.22447 0 0 0 7.6386719 156.46875 A 7.77639 7.77639 0 0 0 8.9746094 149.73633 A 1.94623 1.94623 0 0 0 7.65625 148.30469 z M 1.0410156 150.59961 A 29.86149 29.86149 0 0 0 0.025390625 159.66016 C 0.051390625 160.29116 0.09615625 160.92002 0.16015625 161.54102 A 19.15232 19.15232 0 0 1 2.7773438 155.77539 A 8.94357 8.94357 0 0 1 2.8535156 152.04102 A 17.25472 17.25472 0 0 1 1.0410156 150.59961 z M 9.5742188 156.19141 A 7.44428 7.44428 0 0 1 8.75 157.40625 A 4.64329 4.64329 0 0 1 7.0625 158.71094 A 37.568 37.568 0 0 0 12.830078 174.83398 C 17.003078 181.27898 22.687125 185.69694 28.828125 187.08594 C 31.005125 187.57794 33.850531 188.189 36.394531 187.625 A 29.93355 29.93355 0 0 0 57.291016 170.41797 A 10.87809 10.87809 0 0 1 55.824219 170.55859 C 53.670219 176.85959 49.141531 177.08005 47.269531 176.87305 A 43.30589 43.30589 0 0 1 39.878906 175.41211 A 7.02557 7.02557 0 0 1 35.955078 171.72461 A 7.4278 7.4278 0 0 1 35.271484 168.88867 A 8.1923 8.1923 0 0 1 35.511719 166.60156 A 155.76 155.76 0 0 1 9.5742188 156.19141 z M 3.5800781 157.69141 C 1.3510781 161.12641 0.41442186 164.19803 1.2324219 166.95703 A 29.92392 29.92392 0 0 0 27.089844 188.20703 C 15.405844 184.65903 6.7600469 172.48691 5.2480469 158.87891 A 2.91684 2.91684 0 0 1 3.5800781 157.69141 z M 42.980469 161.32031 C 40.804109 161.54658 38.989328 162.974 37.861328 165.40625 C 39.408328 165.85525 40.931016 166.27244 42.416016 166.64844 A 15.36971 15.36971 0 0 0 42.707031 164.67773 A 0.90955 0.90955 0 0 1 44.523438 164.7832 A 17.26578 17.26578 0 0 1 44.185547 167.07812 C 44.479547 167.14712 44.7725 167.2172 45.0625 167.2832 C 45.3605 167.3502 45.653406 167.41556 45.941406 167.47656 C 46.201406 166.19856 46.367094 165.11084 46.371094 165.08984 A 0.9098 0.9098 0 0 1 48.169922 165.36328 C 48.155922 165.45028 47.988703 166.5378 47.720703 167.8418 C 48.331703 167.9598 48.907078 168.06425 49.455078 168.15625 A 17.16226 17.16226 0 0 0 49.707031 166.16211 A 0.90904139 0.90904139 0 0 1 51.523438 166.25 A 18.187 18.187 0 0 1 51.257812 168.43164 C 52.516813 168.60264 53.574219 168.69437 54.449219 168.73438 A 5.50805 5.50805 0 0 0 53.972656 164.81836 A 4.01749 4.01749 0 0 0 51.421875 162.86914 L 50.269531 162.62695 C 49.221531 162.41495 47.637625 162.09395 45.265625 161.50195 C 44.471875 161.30345 43.705922 161.24489 42.980469 161.32031 z M 37.257812 167.12109 A 5.84262 5.84262 0 0 0 37.605469 170.95703 A 5.22778 5.22778 0 0 0 40.472656 173.69531 A 42.01307 42.01307 0 0 0 47.470703 175.06641 C 50.354703 175.38541 52.608484 173.7792 53.896484 170.5332 C 52.931484 170.4782 51.896125 170.3668 50.828125 170.2168 A 9.38869 9.38869 0 0 1 50.041016 172.09766 A 0.90918 0.90918 0 0 1 48.462891 171.19727 A 7.03905 7.03905 0 0 0 49.009766 169.92969 C 48.446766 169.83369 47.880406 169.72719 47.316406 169.61719 A 13.873 13.873 0 0 1 46.671875 171.625 A 0.90952 0.90952 0 1 1 45.003906 170.89648 A 11.76993 11.76993 0 0 0 45.535156 169.25195 C 45.242156 169.18595 44.948156 169.12164 44.660156 169.05664 C 44.353156 168.98664 44.042469 168.91284 43.730469 168.83984 A 17.08557 17.08557 0 0 1 43.138672 170.46875 A 0.90813 0.90813 0 1 1 41.464844 169.76172 C 41.657844 169.30372 41.821938 168.84525 41.960938 168.40625 C 40.428937 168.01825 38.853813 167.58609 37.257812 167.12109 z "
     d="m 16.941406,-5.7792969 c -5.34302,0 -9.3658912,1.1890239 -12.1054685,2.5722656 C 2.0963602,-1.8237895 0.24414062,0.22460938 0.24414063,0.22460938 A 5.7798104,5.7798104 0 0 0 4.515625,9.6777344 c 0,0 1.8101561,0.1231779 3.5507813,1.0937496 1.7406251,0.970572 3.2128907,1.854129 3.2128907,6.509766 0,4.623444 -2.4498714,7.380408 -6.3867189,12.310547 -3.93684743,4.930139 -8.9140625,11.933601 -8.9140625,22.261719 0,8.319971 2.6471152,15.114951 6.46875,20.291015 3.8216348,5.176064 8.6088694,8.824338 12.9687504,12.03125 4.35988,3.206912 8.307998,6.017437 10.861328,8.873047 2.553329,2.85561 3.867187,5.395833 3.867187,9.603512 0,4.23501 -0.921145,8.15983 -2.08789,11.20704 -1.166746,3.0472 -2.848372,5.35813 -3.027344,5.5371 -2.803032,2.8034 -4.181721,2.75346 -7.03125,3.33985 -1.424765,0.29319 -3.65009,0.59882 -5.845703,2.66015 -1.146834,1.0767 -1.87083,2.43674 -2.3339846,3.87696 A 5.7798104,5.7798104 0 0 0 9.25,129.3457 c -6.0456524,4.29678 -10.6994891,10.52123 -13.1113281,17.53516 a 5.7798104,5.7798104 0 0 0 0.265625,1.24609 5.7798104,5.7798104 0 0 0 -0.9414063,0.95899 c -0.9533443,3.5145 -1.3624965,7.1761 -1.2109375,10.81445 0.030743,0.74518 0.083608,1.48966 0.1601563,2.23242 a 5.7798104,5.7798104 0 0 0 0.9199219,1.44727 c -0.1631454,1.64601 -0.1454775,3.31673 0.359375,5.01953 a 5.7798104,5.7798104 0 0 0 0.00195,0.008 c 4.03158706,13.53808 16.7888896,24.02147 30.8515626,25.35352 a 5.7798104,5.7798104 0 0 0 2.347656,-0.98242 c 2.221189,0.50368 5.130221,1.09199 8.751953,0.28906 a 5.7798104,5.7798104 0 0 0 0.0098,-0.002 c 10.90202,-2.43436 20.448931,-10.29684 24.929687,-20.52929 a 5.7798104,5.7798104 0 0 0 0.234375,-1.61328 5.7798104,5.7798104 0 0 0 0.753907,-0.89649 c 2.73926,-7.8638 2.620638,-16.68769 -0.330079,-24.47461 a 5.7798104,5.7798104 0 0 0 -0.0039,-0.0117 c -0.681882,-1.78926 -1.674449,-3.2665 -2.853515,-4.54882 a 5.7798104,5.7798104 0 0 0 -0.126954,-1.48438 C 56.042847,132.89101 49.469149,127.56481 41.927734,124.85352 a 5.7798104,5.7798104 0 0 0 -0.0059,-0.004 c -0.705923,-0.25278 -0.420526,-0.10431 -0.380859,-0.0684 -0.0049,-0.0915 -0.0057,-0.17831 -0.0098,-0.4375 0.199899,-0.046 0.08503,-0.0118 1.126953,-0.20312 3.293454,-0.60482 10.209467,-2.1768 14.619141,-8.8418 a 5.7798104,5.7798104 0 0 0 0,-0.002 c 1.296595,-1.96081 1.57696,-5.62551 -0.783203,-7.92579 -1.68433,-1.64159 -4.443574,-1.74767 -6.544922,-1.05078 a 5.7798104,5.7798104 0 0 0 -1.541016,-5.12109 c 0.905079,0.90537 -0.290326,-0.84187 0.128906,-4.01172 0.419232,-3.169851 1.766193,-7.392537 4.03125,-11.376953 4.530116,-7.968833 12.060079,-14.785156 23.402344,-14.785156 A 5.7798104,5.7798104 0 0 0 81.75,65.302734 C 81.814765,58.66027 81.153812,52.01002 79.785156,45.509766 a 5.7798104,5.7798104 0 0 0 -0.882812,-1.267579 5.7798104,5.7798104 0 0 0 -0.04297,-2.423828 c -0.73123,-2.846468 -1.806174,-5.605453 -3.195313,-8.195312 A 5.7798104,5.7798104 0 0 0 68.833984,30.84375 C 55.58437,35.018618 49.202091,43.566738 46.324219,50.306641 c -1.157126,2.709959 -1.69017,4.633633 -2.207032,6.222656 -0.609363,-0.409769 -1.24229,-0.880963 -1.6875,-1.326172 -6.25582,-6.254929 -7.22645,-9.94091 -7.326171,-15.292969 -0.09972,-5.352058 1.517578,-12.620326 1.517578,-22.628906 0,-7.035164 -1.305142,-12.8390055 -4.953125,-17.109375 -3.647984,-4.2703695 -9.212396,-5.9511719 -14.726563,-5.9511719 z m 8.47461,23.0605469 c 0,0.01237 -0.0013,0.02539 -0.002,0.01953 6e-6,-0.0075 0.002,-0.012 0.002,-0.01953 z M 1.28125,145.32617 c -0.034923,0.0404 -0.057399,0.09 -0.091797,0.13086 -5.82e-4,7.2e-4 -0.00137,0.001 -0.00195,0.002 a 5.7798104,5.7798104 0 0 0 -0.013672,-0.002 z m -3.1699219,9.42188 c 9.837e-4,0.0459 0.023762,0.0889 0.025391,0.13476 0.00667,0.0937 -0.01073,0.18766 -0.00195,0.28125 z m 34.2167969,18.5625 c 0.0023,0.005 0.0075,0.009 0.0098,0.0137 0.0033,0.007 0.0025,0.0161 0.0059,0.0234 z"
     transform="translate(5.7788123,5.7792969)" />
  <path
     d="m 13.435786,154.0843 a 2.15282,2.15282 0 0 0 -2.002,0.801 7.38634,7.38634 0 0 0 -1.7669997,5.521 v -0.002 a 4.11815,4.11815 0 0 0 0.273,1.384 2.28552,2.28552 0 0 0 1.5199997,1.476 2.22447,2.22447 0 0 0 1.958,-1.016 7.77639,7.77639 0 0 0 1.335,-6.733 1.94623,1.94623 0 0 0 -1.317,-1.431 m 46.792,20.43 a 5.50805,5.50805 0 0 0 -0.476,-3.916 4.01749,4.01749 0 0 0 -2.551,-1.949 l -1.152,-0.243 c -1.048,-0.212 -2.632,-0.533 -5.004,-1.125 -3.175,-0.794 -5.9,0.661 -7.404,3.904 1.547,0.449 3.07,0.866 4.555,1.242 a 15.36971,15.36971 0 0 0 0.291,-1.971 0.90955,0.90955 0 0 1 1.816,0.106 17.26578,17.26578 0 0 1 -0.338,2.296 c 0.294,0.069 0.587,0.138 0.877,0.204 0.298,0.067 0.591,0.132 0.879,0.193 0.26,-1.278 0.425,-2.365 0.429,-2.386 a 0.9098,0.9098 0 0 1 1.799,0.273 c -0.014,0.087 -0.181,1.175 -0.449,2.479 0.611,0.118 1.187,0.223 1.735,0.315 a 17.16226,17.16226 0 0 0 0.252,-1.994 0.90904139,0.90904139 0 0 1 1.816,0.087 18.187,18.187 0 0 1 -0.267,2.181 c 1.259,0.171 2.317,0.264 3.192,0.304 m -16.843,2.223 a 5.22778,5.22778 0 0 0 2.866,2.738 42.01307,42.01307 0 0 0 6.998,1.37 c 2.884,0.319 5.139,-1.287 6.427,-4.533 -0.965,-0.055 -2,-0.167 -3.068,-0.317 a 9.38869,9.38869 0 0 1 -0.787,1.882 0.90918,0.90918 0 0 1 -1.58,-0.9 7.03905,7.03905 0 0 0 0.548,-1.268 c -0.563,-0.096 -1.129,-0.202 -1.693,-0.312 a 13.873,13.873 0 0 1 -0.646,2.007 0.90952,0.90952 0 1 1 -1.667,-0.728 11.76993,11.76993 0 0 0 0.532,-1.646 c -0.293,-0.066 -0.587,-0.13 -0.875,-0.195 -0.307,-0.07 -0.618,-0.143 -0.93,-0.216 a 17.08557,17.08557 0 0 1 -0.593,1.628 0.90813,0.90813 0 1 1 -1.673,-0.707 c 0.193,-0.458 0.356,-0.915 0.495,-1.354 -1.532,-0.388 -3.106,-0.82 -4.702,-1.285 a 5.84262,5.84262 0 0 0 0.348,3.836 m 20.231,-23.159 c -1.375,-3.608 -5.976,-6.164 -12.039,-7.536 -11.203,-2.534 -25.924,1.651 -35.29,9.53 a 9.03127,9.03127 0 0 1 -0.231,4.716 152.78226,152.78226 0 0 0 25.825,10.374 c 2.178,-5.004 6.352,-5.958 9.605,-5.145 2.331,0.582 3.83,0.886 4.925,1.107 l 1.204,0.255 a 5.84451,5.84451 0 0 1 3.718,2.82 7.18041,7.18041 0 0 1 0.743,4.817 3.30415,3.30415 0 0 0 1.818,-0.41 30.0416,30.0416 0 0 0 -0.278,-20.528 m -10.567,29.074 a 43.30589,43.30589 0 0 1 -7.392,-1.46 7.02557,7.02557 0 0 1 -3.922,-3.689 7.4278,7.4278 0 0 1 -0.684,-2.836 8.1923,8.1923 0 0 1 0.24,-2.287 155.76,155.76 0 0 1 -25.937,-10.409 7.44428,7.44428 0 0 1 -0.824,1.215 4.64329,4.64329 0 0 1 -1.689,1.303 37.568,37.568 0 0 0 5.768,16.124 c 4.173,6.445 9.857,10.862 15.998,12.251 2.177,0.492 5.023,1.104 7.567,0.54 a 29.93355,29.93355 0 0 0 20.897,-17.208 10.87809,10.87809 0 0 1 -1.467,0.142 c -2.154,6.301 -6.683,6.521 -8.555,6.314 M 9.2107863,156.0553 a 7.73968,7.73968 0 0 1 1.1539997,-1.893 5.012,5.012 0 0 1 1.182,-1.04 27.061,27.061 0 0 1 6.83,-13.287 30.01075,30.01075 0 0 0 -10.9939997,14.703 9.38015,9.38015 0 0 0 1.828,1.517 m -0.578,1.765 a 17.25472,17.25472 0 0 1 -1.813,-1.442 29.86149,29.86149 0 0 0 -1.015,9.061 c 0.026,0.631 0.071,1.26 0.135,1.881 a 19.15232,19.15232 0 0 1 2.616,-5.765 8.94357,8.94357 0 0 1 0.077,-3.735 m 2.3949997,6.837 a 2.91684,2.91684 0 0 1 -1.6679997,-1.186 c -2.229,3.435 -3.167,6.507 -2.349,9.266 a 29.92392,29.92392 0 0 0 25.8579997,21.249 c -11.684,-3.548 -20.329,-15.721 -21.841,-29.329 M 25.414796,23.061297 a 19.44647,19.44647 0 0 0 -0.504,-4.528 c 0,0 2.688,-0.141 2.688,-3.414 0,-2.696 -1.799,-4.536 -2.282,-4.536 -0.39,0 -0.485,0.412 -1.328,0.412 -2.055,0 -2.206,-2.6240001 -2.206,-2.6240001 q 0.456,-0.01648 0.938,-0.016 c 5.881,0 11.323,1.7820001 11.323,14.7060001 a 116.757,116.757 0 0 1 -0.852,12.784 77.31438,77.31438 0 0 0 -0.654,10.517 c 0,0 -10.241,-1.206 -10.241,-8.91 0,-5.002 3.118,-6.219 3.118,-14.391 m 16.287,85.370003 c 0,10.114 -4.314,18.338 -6.807,20.831 -7.722,7.723 -14.095,2.099 -14.164,9.849 -3.504,3.174 -6.025,8 -7.262,13.512 a 2.167,2.167 0 0 1 0.228,0.032 2.88252,2.88252 0 0 1 1.825,1.2 c 9.809,-7.995 24.913,-12.197 36.457,-9.587 a 20.44016,20.44016 0 0 1 9.141,4.258 30.00641,30.00641 0 0 0 -15.369,-12.456 c -1.522,-0.545 -4.224,-1.17 -4.224,-6.103 0,-9.208 10.074,-2.049 16.71,-12.079 0.326,-0.493 -0.143,-0.927 -0.532,-0.538 -2.008,2.007 -6.938,3.387 -9.547,3.387 a 7.61036,7.61036 0 0 1 -3.593,-0.594 71.81711,71.81711 0 0 1 5.534,-9.079 c -6.16,-6.162 4.209,-40.038003 31.65,-40.038003 a 85.94117,85.94117 0 0 0 -1.839,-18.546 c -0.653,0.158 -5.823,1.378 -6.059,0.29 -0.208,-0.962 3.808,-3.05 5.19,-3.736 a 30.82416,30.82416 0 0 0 -2.691,-6.9 c -23.52,7.411 -18.793,26.884 -24.523,26.884 -3.729,0 -6.658,-2.904 -7.704,-3.95 -14.048,-14.046 -7.502,-23.341 -7.502,-42.007 0,-12.574 -4.883,-17.2820001 -13.9,-17.2820001 -9.019,0 -12.239,3.903 -12.239,3.903 0,0 12.356,0.4000001 12.356,13.3790001 0,13.586 -15.3009997,17.336 -15.3009997,34.572 0,28.692 34.1649997,28.154 34.1649997,50.798003"
     fill="#132257"
     id="path1" />
</svg>
