<?xml version="1.0" encoding="UTF-8" standalone="no"?>
<svg
   viewBox="0 0 713.66602 638.00024"
   version="1.1"
   id="svg14"
   sodipodi:docname="ANA_dark.svg"
   width="713.66602"
   height="638.00024"
   inkscape:version="1.4 (86a8ad7, 2024-10-11)"
   xmlns:inkscape="http://www.inkscape.org/namespaces/inkscape"
   xmlns:sodipodi="http://sodipodi.sourceforge.net/DTD/sodipodi-0.dtd"
   xmlns="http://www.w3.org/2000/svg"
   xmlns:svg="http://www.w3.org/2000/svg">
  <defs
     id="defs14" />
  <sodipodi:namedview
     id="namedview14"
     pagecolor="#ffffff"
     bordercolor="#000000"
     borderopacity="0.25"
     inkscape:showpageshadow="2"
     inkscape:pageopacity="0.0"
     inkscape:pagecheckerboard="0"
     inkscape:deskcolor="#d1d1d1"
     inkscape:zoom="1.8359375"
     inkscape:cx="356.76596"
     inkscape:cy="318.91064"
     inkscape:window-width="3440"
     inkscape:window-height="1377"
     inkscape:window-x="-8"
     inkscape:window-y="-8"
     inkscape:window-maximized="1"
     inkscape:current-layer="svg14" />
  <path
     d="m 543.1,461.73924 c -10.74,0.41 -15.397,-0.785 -18.323,-2.194 -3.23,-1.552 -7.601,-4.906 -15.255,-15.254 50.742,-42.334 83.713,-105.31 85.872,-175.904 l 92.099,-142.686 c 0,0 -44.515,-23.227 -119.557,-42.993998 29.902,-40.533 49.261,-66.794 49.261,-66.794 0,0 -52.972,-14.0219997 -60.698,-15.28899974 -4.407,-0.714 -11.936,-1.48 -20.036,1.80200004 -6.708,2.712 -11.401,7.207 -14.684,11.5959997 -0.232,0.303 -13.595,18.429 -34.737,47.062 -37.468,-24.476 -82.197,-38.713 -130.191,-38.713 -47.994,0 -92.723,14.237 -130.191,38.713 a 81302.064,81302.064 0 0 0 -34.737,-47.062 C 188.658,9.6332423 183.948,5.1382423 177.239,2.4262423 169.139,-0.85675774 161.628,-0.08975774 157.203,0.62424226 149.477,1.8912423 96.506,15.913242 96.506,15.913242 c 0,0 19.411,26.314 49.367,66.936 C 71.028,102.58124 26.209,125.70124 26.209,125.70124 l 92.099,142.686 c 0.178,5.709 0.589,11.347 1.16,16.966 -41.482,1.624 -66.228,21.908 -66.228,54.448 0,32.54 31.508,66.402 76.629,79.086 a 136.101,136.101 0 0 0 36.951,5.102 c 4.977,0 10.062,-0.303 15.111,-0.838 6.959,7.51 14.381,14.593 22.231,21.14 -7.654,10.33 -12.025,13.702 -15.254,15.254 -2.927,1.409 -7.565,2.587 -18.324,2.194 0.054,0 -170.584,-7.528 -170.584,-7.528 l 33.168,79.067 c 2.605,6.155 6.887,13.523 14.808,18.768 8.261,5.459 16.932,6.262 22.98,6.262 h 105.141 c 12.025,0 24.479,-0.821 36.54,-6.886 13.185,-6.637 22.57,-17.93 31.812,-30.346 2.569,-3.444 9.474,-12.81 19.715,-26.672 l 92.669,143.596 92.67,-143.596 c 10.241,13.862 17.146,23.211 19.715,26.672 9.224,12.434 18.609,23.709 31.812,30.346 12.061,6.065 24.514,6.886 36.539,6.886 H 642.71 c 6.049,0 14.72,-0.803 22.98,-6.262 7.922,-5.245 12.204,-12.613 14.809,-18.768 l 33.167,-79.067 c 0,0 -170.637,7.528 -170.584,7.528 z"
     fill="#ffffff"
     id="path1" />
  <path
     d="m 543.403,470.01524 c -11.347,0.428 -17.556,-0.75 -22.231,-2.997 -5.049,-2.427 -10.401,-7.083 -18.341,-17.805 -0.821,-1.106 -2.64,-3.568 -5.335,-7.207 52.794,-41.122 87.211,-104.811 88.602,-176.44 l 87.942,-136.245 c 0,0 -46.157,-22.104 -120.949,-40.461998 a 4973687.4,4973687.4 0 0 1 50.19,-68.042 c 0,0 -40.93,-10.8299997 -48.12,-12.0069997 -3.854,-0.624 -9.58,-1.124 -15.594,1.3029997 -4.942,1.998 -8.528,5.352 -11.133,8.866 -0.25,0.34 -15.879,21.498 -40.072,54.288 -37.254,-26.172 -82.625,-41.568 -131.51,-41.568 -48.885,0 -94.259,15.396 -131.513,41.568 -24.194,-32.79 -39.823,-53.949 -40.073,-54.288 -2.622,-3.514 -6.19,-6.868 -11.133,-8.866 -6.012,-2.4269997 -11.74,-1.9269997 -15.593,-1.3029997 -7.208,1.178 -48.119,12.0069997 -48.119,12.0069997 l 50.188,68.042 C 85.817,107.21724 39.661,129.32124 39.661,129.32124 l 87.941,136.245 a 232.328,232.328 0 0 0 2.373,28.598 c -1.73,-0.071 -67.905,-4.478 -67.905,45.635 0,31.756 32.026,59.89 70.207,70.612 17.377,4.888 35.38,6.03 53.774,3.371 9.19,10.259 19.252,19.732 30.135,28.224 a 1387.632,1387.632 0 0 0 -5.317,7.207 c -7.939,10.722 -13.292,15.396 -18.34,17.805 -4.676,2.247 -10.884,3.425 -22.232,2.997 l -157.577,-6.958 28.118,67.008 c 2.284,5.352 5.71,11.078 11.74,15.057 6.28,4.157 13.042,4.888 18.395,4.888 h 105.141 c 11.74,0 22.551,-0.856 32.81,-6.012 11.276,-5.673 19.68,-15.503 28.868,-27.884 3.194,-4.3 13.025,-17.591 27.494,-37.197 l 91.564,141.847 91.563,-141.847 c 14.47,19.588 24.3,32.897 27.494,37.197 9.206,12.399 17.592,22.211 28.868,27.884 10.26,5.156 21.071,6.012 32.811,6.012 h 105.141 c 5.37,0 12.114,-0.731 18.394,-4.888 6.031,-3.996 9.474,-9.705 11.74,-15.057 l 28.12,-67.008 -157.579,6.958 z"
     fill="#010101"
     id="path2" />
  <path
     d="m 536.142,118.19124 c 30.349,7.083 59.52,16.092 87.424,26.975 l -42.784,66.276 c -7.672,-34.663 -23.212,-66.401 -44.64,-93.251 z m -179.291,372.147 a 229.85,229.85 0 0 1 -47.048,-4.853 l 47.048,72.895 47.049,-72.895 a 229.604,229.604 0 0 1 -47.049,4.853 z M 177.56,118.19124 c -30.348,7.083 -59.519,16.092 -87.424,26.975 l 42.785,66.276 c 7.671,-34.663 23.212,-66.401 44.639,-93.251 z"
     fill="#89734c"
     id="path3" />
  <path
     d="m 542.529,103.16824 c 36.13,8.599 71.206,19.999 104.981,34.449 l -62.803,97.301 a 231.27,231.27 0 0 0 -3.925,-23.496 l 42.784,-66.276 c -27.886,-10.883 -57.058,-19.874 -87.424,-26.974 -0.803,-1.017 -1.624,-2.016 -2.444,-3.015 3.015,-4.086 5.977,-8.1 8.849,-11.989 z m -138.629,382.315 -47.049,72.895 -47.048,-72.895 a 224.791,224.791 0 0 1 -23.016,-6.101 l 70.064,108.557 70.064,-108.557 a 229.925,229.925 0 0 1 -23.033,6.101 z m -270.98,-274.061 -42.784,-66.276 c 27.887,-10.883 57.058,-19.874 87.424,-26.974 0.803,-1.017 1.624,-2.016 2.445,-3.015 -3.016,-4.086 -5.977,-8.1 -8.85,-11.989 -36.129,8.599 -71.206,19.999 -104.98,34.449 l 62.802,97.301 a 231.272,231.272 0 0 1 3.926,-23.496 z"
     fill="#ffffff"
     id="path4" />
  <path
     d="m 467.612,128.34024 c 42.017,-56.927998 72.722,-98.549998 73.668,-99.798998 3.033,-4.085 6.28,-4.745 11.294,-3.924 5.959,0.963 16.628,3.621 23.89,5.566 0,0 -41.108,55.733 -95.275,129.144998 -4.121,-10.883 -8.671,-21.248 -13.577,-30.988 z m -216.509,6.814 A 599602.71,599602.71 0 0 0 172.421,28.559242 c -3.033,-4.085 -6.28,-4.745 -11.293,-3.925 -5.96,0.964 -16.629,3.622 -23.89,5.567 0,0 44.657,60.531 102.179,138.510998 2.872,-11.507 6.833,-22.782 11.686,-33.558 z m 292.907,350.863 c -25.817,0.981 -37.593,-5.066 -54.043,-27.295 a 31436.459,31436.459 0 0 1 -22.908,-31.006 c -7.012,6.6 -14.97,12.416 -23.676,17.412 24.068,32.611 40.911,55.411 45.371,61.423 17.324,23.335 24.96,27.421 48.833,27.421 h 105.141 c 7.921,0 12.043,-2.266 15.415,-10.187 3.372,-7.939 18.305,-43.619 18.305,-43.619 0,0 -101.323,4.674 -132.421,5.851 z m -298.438,-56.856 -21.856,29.579 c -16.45,22.211 -28.225,28.258 -54.042,27.295 -31.098,-1.177 -132.421,-5.852 -132.421,-5.852 0,0 14.933,35.699 18.305,43.62 3.373,7.939 7.494,10.186 15.416,10.186 h 105.141 c 23.854,0 31.49,-4.085 48.832,-27.42 4.514,-6.083 21.696,-29.329 46.21,-62.548 -8.225,-4.246 -16.718,-9.187 -25.585,-14.86 z"
     fill="#cf4520"
     id="path5" />
  <path
     d="m 166.195,39.247242 -28.957,-9.045 c 7.261,-1.944 17.93,-4.602 23.89,-5.566 5.013,-0.82 8.26,-0.16 11.293,3.925 0.982,1.302 34.114,46.206 78.682,106.594998 a 206.758,206.758 0 0 0 -5.085,12.363 C 200.272,85.471242 166.195,39.247242 166.195,39.247242 Z M 473.196,140.04424 C 516.141,81.796242 547.507,39.247242 547.507,39.247242 l 28.957,-9.045 c -7.262,-1.944 -17.931,-4.602 -23.89,-5.566 -5.014,-0.82 -8.261,-0.16 -11.294,3.925 -0.928,1.267 -31.65,42.87 -73.668,99.797998 1.927,3.8 3.782,7.707 5.584,11.703 z m -227.624,289.118 -21.856,29.579 c -16.45,22.211 -28.225,28.259 -54.042,27.296 -31.063,-1.178 -132.278,-5.834 -132.421,-5.852 l 30.581,13.434 c 0,0 82.321,3.104 106.443,3.657 25.264,0.571 40.286,-7.136 58.217,-31.024 2.213,-2.944 10.455,-14.094 22.945,-30.988 a 356.795,356.795 0 0 1 -9.867,-6.102 z m 298.438,56.857 c -25.817,0.981 -37.593,-5.067 -54.043,-27.296 a 30195.165,30195.165 0 0 1 -22.908,-31.006 123.054,123.054 0 0 1 -8.814,7.511 c 12.489,16.912 20.75,28.063 22.962,31.006 17.913,23.888 32.936,31.595 58.217,31.024 24.122,-0.553 106.444,-3.657 106.444,-3.657 l 30.58,-13.434 c -0.142,0 -101.34,4.675 -132.421,5.852 z"
     fill="#ffffff"
     id="path6" />
  <path
     d="m 602.745,504.76824 c -0.749,10.151 -1.303,18.946 -1.392,29.222 h -8.938 c 0.963,-5.78 3.925,-22.818 6.351,-31.185 0.821,-2.8 1.356,-4.228 2.962,-3.924 1.695,0.303 1.249,2.569 0.999,5.887 z m -25.639,20.802 c 1.303,0.107 1.749,-1.267 2.141,-3.8 2.712,-17.502 5.085,-25.886 5.085,-25.886 l -0.089,-0.036 c -2.337,0.089 -4.657,0.16 -6.958,0.232 -0.767,4.852 -2.016,14.486 -1.659,24.298 0.124,3.247 0.606,5.102 1.463,5.192 z m 40.876,-4.692 c -0.072,2.265 0.285,2.89 1.106,3.015 0.928,0.142 1.516,-0.571 2.052,-2.73 3.55,-14.415 6.869,-24.405 7.743,-26.921 -2.391,0.089 -4.96,0.179 -7.672,0.286 -1.106,5.869 -2.962,16.859 -3.229,26.35 z m -488.612,-24.994 c 0,0 2.355,8.384 5.085,25.886 0.392,2.515 0.838,3.907 2.141,3.8 0.856,-0.072 1.356,-1.945 1.463,-5.192 0.357,-9.794 -0.892,-19.446 -1.659,-24.298 -2.302,-0.072 -4.621,-0.161 -6.959,-0.232 l -0.089,0.036 z m -34.756,28.009 c 0.821,-0.125 1.178,-0.75 1.107,-3.015 -0.268,-9.491 -2.106,-20.481 -3.23,-26.35 -2.712,-0.107 -5.299,-0.197 -7.672,-0.286 0.875,2.516 4.193,12.506 7.744,26.921 0.535,2.159 1.124,2.872 2.051,2.73 z m 20.304,-21.088 c -0.82,-2.8 -1.356,-4.228 -2.961,-3.924 -1.695,0.303 -1.249,2.569 -1,5.887 0.75,10.151 1.303,18.946 1.392,29.222 h 8.939 c -0.964,-5.78 -3.925,-22.818 -6.352,-31.185 z"
     fill="#cf4520"
     id="path7" />
  <path
     d="m 150.851,496.58124 c 1.266,7.154 3.711,21.426 5.887,37.429 h -35.469 c -0.963,-5.78 -3.925,-22.817 -6.352,-31.185 -0.82,-2.8 -1.356,-4.228 -2.961,-3.924 -1.695,0.303 -1.249,2.569 -0.999,5.887 0.749,10.151 1.302,18.946 1.391,29.222 H 79.716 c -5.281,-19.731 -9.456,-33.058 -11.901,-40.408 h 0.054 c 0,0 6.762,0.286 16.967,0.66 0.875,2.551 4.211,12.542 7.744,26.921 0.535,2.159 1.124,2.872 2.051,2.73 0.821,-0.125 1.178,-0.75 1.107,-3.015 -0.268,-9.491 -2.106,-20.481 -3.23,-26.35 10.884,0.392 24.104,0.874 36.968,1.32 l -0.089,0.035 c 0,0 2.355,8.385 5.085,25.887 0.392,2.515 0.838,3.907 2.141,3.8 0.856,-0.072 1.356,-1.945 1.463,-5.192 0.357,-9.794 -0.892,-19.446 -1.642,-24.298 4.996,0.178 9.867,0.339 14.434,0.481 z m 494.999,-2.979 c 0,0 -6.762,0.25 -16.968,0.624 -0.874,2.552 -4.21,12.542 -7.743,26.921 -0.535,2.16 -1.124,2.873 -2.052,2.73 -0.821,-0.125 -1.178,-0.749 -1.106,-3.015 0.267,-9.491 2.105,-20.481 3.229,-26.35 -10.883,0.392 -24.104,0.874 -36.968,1.32 l 0.09,0.036 c 0,0 -2.356,8.385 -5.085,25.886 -0.393,2.515 -0.839,3.907 -2.141,3.8 -0.857,-0.072 -1.356,-1.945 -1.463,-5.192 -0.357,-9.794 0.892,-19.445 1.641,-24.298 -4.996,0.178 -9.866,0.339 -14.434,0.482 -1.267,7.154 -3.711,21.426 -5.888,37.428 h 35.47 c 0.963,-5.78 3.925,-22.817 6.351,-31.184 0.821,-2.801 1.356,-4.228 2.962,-3.925 1.695,0.303 1.249,2.569 0.999,5.887 -0.749,10.151 -1.302,18.946 -1.392,29.222 h 32.633 c 5.281,-19.731 9.456,-33.057 11.9,-40.408 h -0.053 z M 363.202,57.090242 c -53.632,0 -113.294,81.386998 -113.294,151.855998 0,29.222 10.277,43.387 27.583,39.177 -2.73,-10.151 -0.268,-21.605 7.404,-29.151 -3.764,17.929 7.155,31.88 24.872,31.024 30.188,-1.463 56.165,-46.777 104.052,-46.777 13.81,0 26.388,5.869 31.972,15.485 -0.035,0 -6.637,-3.461 -21.891,-3.461 -5.388,0 -10.491,0.678 -15.398,1.82 7.547,53.396 -50.349,76.338 -83.106,49.417 -5.585,2.212 -11.347,3.515 -17.378,3.515 -9.509,0 -16.878,-3.087 -22.106,-7.85 -15.486,21.123 -39.162,44.012 -69.279,60.05 26.352,14.915 48.601,34.949 61.768,56.5 -71.706,-47.348 -116.595,-65.473 -153.635,-65.473 -27.654,0 -43.159,10.097 -43.159,26.688 0,13.131 9.706,26.886 24.533,37.501 22.784,15.253 56.915,22.96 84.23,14.539 -34.523,-27.509 -55.898,-41.139 -76.79,-49.239 78.788,-1.017 135.9,106.578 244.805,106.578 44.123,0 85.926,-17.662 107.799,-45.814 17.164,-22.086 24.943,-54.002 24.943,-97.943 0,-126.415 -62.267,-248.459998 -127.925,-248.459998 z M 290.176,187.05624 c -0.695,7.511 -5.12,13.255 -9.866,12.809 -4.746,-0.446 -8.029,-6.886 -7.333,-14.415 0.696,-7.511 5.121,-13.237 9.867,-12.809 4.745,0.446 8.028,6.886 7.332,14.415 z m 15.095,-47.063 c -3.48,6.69 -9.867,10.276 -14.274,7.993 -4.407,-2.284 -5.156,-9.563 -1.677,-16.27 3.479,-6.69 9.867,-10.276 14.273,-7.993 4.407,2.284 5.157,9.563 1.678,16.27 z m 20.928,57.785 c -3.033,6.922 -9.099,10.936 -13.578,8.973 -4.478,-1.962 -5.638,-9.152 -2.622,-16.056 3.033,-6.922 9.099,-10.936 13.577,-8.973 4.478,1.962 5.638,9.152 2.623,16.056 z m -5.638,-93.34 c -3.372,-3.657 -1.624,-10.757998 3.925,-15.895998 5.549,-5.12 12.775,-6.315 16.147,-2.676 3.372,3.658 1.623,10.758 -3.925,15.895998 -5.549,5.12 -12.775,6.315 -16.147,2.676 z m 35.273,52.593 c -5.406,5.263 -12.596,6.654 -16.058,3.104 -3.461,-3.55 -1.891,-10.704 3.533,-15.967 5.406,-5.263 12.596,-6.654 16.057,-3.104 3.462,3.55 1.874,10.704 -3.532,15.967 z m 42.124,-27.296 c -6.869,3.122 -14.113,1.981 -16.182,-2.569 -2.07,-4.549 1.819,-10.757 8.688,-13.879 6.869,-3.122 14.113,-1.981 16.183,2.569 2.069,4.549 -1.82,10.757 -8.689,13.879 z m -111.956,196.992 c -4.836,1.266 -10.295,-3.64 -12.204,-10.936 -1.909,-7.297 0.464,-14.237 5.281,-15.504 4.835,-1.266 10.295,3.64 12.204,10.936 1.909,7.297 -0.464,14.237 -5.281,15.504 z m 22.212,42.905 c -4.192,2.641 -10.865,-0.41 -14.88,-6.797 -4.014,-6.387 -3.871,-13.701 0.339,-16.341 4.193,-2.641 10.866,0.41 14.88,6.797 4.015,6.386 3.872,13.701 -0.339,16.341 z m 1.231,-70.754 c -3.514,-6.672 -2.801,-13.969 1.606,-16.306 4.407,-2.337 10.848,1.195 14.381,7.868 3.514,6.672 2.801,13.969 -1.606,16.306 -4.407,2.337 -10.848,-1.196 -14.381,-7.868 z m 35.131,106.452 c -3.105,3.765 -10.348,2.926 -16.165,-1.891 -5.816,-4.799 -8.011,-11.756 -4.906,-15.521 3.104,-3.764 10.348,-2.925 16.164,1.891 5.817,4.799 8.011,11.757 4.907,15.521 z m 8.243,-65.562 c -3.48,3.532 -10.67,2.087 -16.04,-3.229 -5.37,-5.299 -6.887,-12.471 -3.408,-16.003 3.479,-3.532 10.669,-2.087 16.04,3.229 5.37,5.299 6.887,12.47 3.408,16.003 z m 39.019,25.244 c -2.301,4.638 -9.652,5.691 -16.414,2.337 -6.762,-3.354 -10.366,-9.83 -8.064,-14.487 2.301,-4.638 9.652,-5.691 16.414,-2.337 6.762,3.354 10.366,9.83 8.064,14.487 z m 8.386,-53.432 c -6.923,2.997 -14.202,1.57 -16.272,-3.175 -2.052,-4.746 1.891,-11.043 8.814,-14.04 6.923,-2.998 14.202,-1.57 16.272,3.175 2.051,4.746 -1.892,11.043 -8.814,14.04 z m 38.074,69.167 c -1.231,5.031 -8.172,7.653 -15.504,5.851 -7.333,-1.802 -12.276,-7.332 -11.027,-12.381 1.231,-5.031 8.19,-7.653 15.505,-5.851 7.333,1.801 12.275,7.332 11.026,12.381 z m 10.562,-84.491 c -7.422,1.338 -14.202,-1.767 -15.13,-6.922 -0.927,-5.156 4.336,-10.437 11.758,-11.775 7.422,-1.338 14.202,1.748 15.13,6.922 0.928,5.156 -4.336,10.437 -11.758,11.775 z m -222.789,0.856 c -5.085,-20.713 -0.535,-36.412 15.737,-47.83 4.888,9.117 12.007,14.397 20.928,15.361 -10.009,11.971 -22.177,22.692 -36.665,32.469 z"
     fill="#ffffff"
     id="path8" />
  <path
     d="m 362.364,40.803242 c -60.626,0 -128.228,85.881998 -128.228,169.373998 0,8.671 0.731,16.413 2.141,23.157 -25.496,16.02 -34.649,42.442 -26.103,73.608 -3.693,2.106 -7.529,4.157 -11.472,6.191 -21.053,-7.047 -34.059,-9.866 -52.312,-12.22 -23.301,-2.569 -47.976,-0.179 -63.195,10.686 -4.71,3.372 -8.278,7.421 -10.687,12.095 -2.391,4.657 -3.693,10.027 -3.693,16.146 0,6.975 1.606,13.487 4.46,19.535 3.908,8.26 10.206,15.717 18.181,22.264 11.24,9.741 26.013,17.644 42.624,22.318 20.375,5.727 49.314,4.871 71.937,-1.944 a 574.533,574.533 0 0 0 5.513,3.372 c 58.931,44.35 98.95,60.852 146.873,60.852 52.062,0 97.737,-19.909 122.519,-54.18 17.413,-24.084 27.44,-58.73 26.834,-107.701 C 506.043,167.04024 440.724,40.856242 362.364,40.856242 Z M 241.808,249.28324 c 4.888,9.116 12.007,14.397 20.928,15.36 -10.009,11.971 -22.177,22.693 -36.665,32.47 -5.085,-20.713 -0.535,-36.412 15.737,-47.83 z m 224.376,154.193 c -21.856,28.151 -63.659,45.813 -107.799,45.813 -108.905,0 -166.017,-107.612 -244.805,-106.577 20.892,8.099 42.267,21.729 76.79,49.239 -27.298,8.421 -61.446,0.714 -84.23,-14.54 -14.809,-10.615 -24.533,-24.369 -24.533,-37.5 0,-16.591 15.505,-26.689 43.159,-26.689 24.069,0 51.456,7.654 87.335,25.993 19.359,9.884 41.179,22.871 66.3,39.463 -13.167,-21.533 -35.416,-41.568 -61.768,-56.5 30.117,-16.02 53.793,-38.927 69.279,-60.032 5.228,4.763 12.579,7.849 22.106,7.849 6.031,0 11.793,-1.32 17.378,-3.514 32.757,26.921 90.653,3.996 83.106,-49.417 4.907,-1.142 10.01,-1.82 15.398,-1.82 15.272,0 21.874,3.461 21.891,3.461 -5.584,-9.616 -18.162,-15.485 -31.972,-15.485 -47.887,0 -73.864,45.314 -104.052,46.777 -17.717,0.856 -28.618,-13.095 -24.872,-31.024 -7.672,7.546 -10.134,18.999 -7.404,29.15 -17.306,4.211 -27.583,-9.954 -27.583,-39.177 0,-70.468 59.68,-151.854998 113.294,-151.854998 65.658,0 127.925,122.043998 127.925,248.459998 0,43.922 -7.779,75.839 -24.943,97.943 z"
     fill="#010101"
     id="path9" />
  <path
     d="m 365.807,258.88324 c -8.582,3.568 -17.324,2.694 -23.64,-1.552 13.631,-9.17 27.101,-21.462 42.427,-30.382 2.445,12.488 -5.602,26.457 -18.787,31.934 z"
     fill="#cf4520"
     id="path10" />
  <path
     d="m 290.177,187.05824 c -0.696,7.511 -5.121,13.237 -9.867,12.809 -4.746,-0.446 -8.029,-6.886 -7.333,-14.415 0.696,-7.51 5.121,-13.237 9.867,-12.809 4.746,0.446 8.028,6.886 7.333,14.415 z m 13.417,-63.315 c -4.407,-2.283 -10.795,1.285 -14.274,7.993 -3.479,6.69 -2.73,13.986 1.677,16.27 4.407,2.283 10.795,-1.285 14.274,-7.993 3.479,-6.69 2.729,-13.986 -1.677,-16.27 z m 37.021,-37.856998 c -3.372,-3.657 -10.598,-2.462 -16.147,2.676 -5.531,5.12 -7.297,12.238998 -3.925,15.895998 3.372,3.657 10.598,2.462 16.147,-2.676 5.549,-5.119998 7.297,-12.237998 3.925,-15.895998 z m -17.039,95.837998 c -4.478,-1.963 -10.544,2.069 -13.577,8.973 -3.033,6.922 -1.856,14.112 2.622,16.057 4.479,1.962 10.545,-2.07 13.578,-8.974 3.033,-6.922 1.856,-14.112 -2.623,-16.056 z m 35.791,-40.658 c -3.462,-3.55 -10.652,-2.159 -16.058,3.104 -5.406,5.263 -6.994,12.417 -3.533,15.967 3.462,3.55 10.652,2.159 16.058,-3.104 5.406,-5.263 6.994,-12.417 3.533,-15.967 z m 47.298,-25.226 c -2.07,-4.549 -9.313,-5.691 -16.183,-2.569 -6.869,3.122 -10.758,9.348 -8.688,13.88 2.069,4.549 9.313,5.691 16.182,2.569 6.869,-3.122 10.759,-9.349 8.689,-13.88 z m -83.16,272.098 c -3.105,3.765 -0.91,10.705 4.906,15.521 5.817,4.799 13.06,5.656 16.165,1.891 3.104,-3.764 0.91,-10.704 -4.907,-15.521 -5.816,-4.799 -13.06,-5.655 -16.164,-1.891 z m -29.831,-41.442 c -4.193,2.64 -4.354,9.954 -0.339,16.341 4.014,6.387 10.669,9.438 14.88,6.797 4.192,-2.64 4.353,-9.954 0.339,-16.341 -4.015,-6.387 -10.67,-9.438 -14.88,-6.797 z m -14.595,-46.206 c -4.835,1.266 -7.19,8.206 -5.281,15.503 1.909,7.296 7.369,12.202 12.204,10.936 4.835,-1.267 7.19,-8.207 5.281,-15.503 -1.909,-7.297 -7.369,-12.203 -12.204,-10.936 z m 88.281,52.575 c -2.302,4.638 1.302,11.132 8.064,14.486 6.762,3.354 14.113,2.301 16.414,-2.337 2.302,-4.639 -1.302,-11.132 -8.064,-14.486 -6.762,-3.354 -14.113,-2.302 -16.414,2.337 z m 44.39,21.372 c -1.231,5.031 3.711,10.579 11.026,12.381 7.315,1.802 14.273,-0.82 15.504,-5.851 1.231,-5.031 -3.711,-10.58 -11.026,-12.381 -7.333,-1.802 -14.273,0.82 -15.504,5.851 z m -78.361,-53.681 c -3.479,3.532 -1.962,10.686 3.408,16.003 5.37,5.298 12.543,6.743 16.04,3.229 3.497,-3.533 1.962,-10.687 -3.408,-16.003 -5.371,-5.298 -12.543,-6.743 -16.04,-3.229 z m -22.338,-37.982 c -4.406,2.337 -5.138,9.634 -1.605,16.306 3.514,6.672 9.955,10.187 14.38,7.868 4.407,-2.337 5.138,-9.634 1.606,-16.306 -3.515,-6.672 -9.956,-10.187 -14.381,-7.868 z m 97.987,14.986 c -2.052,-4.745 -9.349,-6.173 -16.272,-3.176 -6.922,2.998 -10.865,9.277 -8.814,14.041 2.052,4.745 9.349,6.172 16.272,3.175 6.923,-2.997 10.866,-9.277 8.814,-14.04 z m 51.58,-13.077 c -0.928,-5.156 -7.708,-8.26 -15.13,-6.922 -7.422,1.338 -12.685,6.601 -11.757,11.775 0.927,5.156 7.707,8.26 15.129,6.922 7.423,-1.338 12.686,-6.601 11.758,-11.775 z"
     fill="#010101"
     id="path11" />
  <path
     d="m 106.158,377.41024 c 22.783,15.254 56.914,22.961 84.212,14.54 -34.523,-27.51 -55.898,-41.139 -76.79,-49.239 -15.255,0.339 -25.746,8.706 -19.733,23.888 3.497,3.836 7.654,7.475 12.293,10.811 z m 252.245,71.878 c 44.122,0 85.925,-17.661 107.799,-45.813 17.164,-22.086 24.943,-54.003 24.943,-97.943 0,-66.455 -17.199,-131.696 -43.07,-178.634 a 985.024,985.024 0 0 0 6.084,13.595 c 28.993,63.689 46.656,196.01 -0.482,253.955 -37.913,46.58 -141.377,63.207 -235.831,-3.729 39.591,28.277 82.786,58.569 140.557,58.569 z m 44.872,-258.789 c -42.802,1.124 -72.42,42.656 -95.828,45.153 -11.633,1.231 -20.09,-5.441 -22.552,-16.68 -3.764,17.929 7.155,31.88 24.872,31.024 30.188,-1.463 56.165,-46.777 104.052,-46.777 13.81,0 26.388,5.869 31.972,15.485 -4.674,-14.415 -19.483,-28.83 -42.516,-28.223 z m -125.784,57.623 c -16.718,4.068 -26.869,-8.991 -27.547,-36.197 2.462,21.979 17.324,25.19 27.083,21.818 a 31.348,31.348 0 0 0 0.464,14.379 z"
     fill="#89734c"
     id="path12" />
  <path
     d="m 398.922,601.73224 c -6.816,0 -12.329,5.531 -12.329,12.346 0,6.815 5.513,12.327 12.329,12.327 6.816,0 12.311,-5.512 12.311,-12.327 0,-6.815 -5.496,-12.346 -12.311,-12.346 z m 0,22.015 c -5.37,0 -9.688,-4.335 -9.688,-9.687 0,-5.352 4.318,-9.705 9.688,-9.705 5.37,0 9.67,4.335 9.67,9.705 0,5.37 -4.335,9.687 -9.67,9.687 z"
     fill="#ffffff"
     id="path13" />
  <path
     d="m 403.989,611.20424 c 0,-2.301 -1.873,-4.192 -4.175,-4.192 h -5.941 v 14.094 h 2.641 v -5.709 h 1.891 l 2.676,5.709 h 2.908 l -2.783,-5.959 a 4.176,4.176 0 0 0 2.783,-3.943 z m -4.175,1.534 h -3.3 v -3.068 h 3.3 c 0.857,0 1.535,0.678 1.535,1.534 0,0.856 -0.678,1.534 -1.535,1.534 z"
     fill="#ffffff"
     id="path14" />
</svg>
