<?xml version="1.0" encoding="UTF-8" standalone="no"?>
<svg
   viewBox="0 0 619.46698 619.47302"
   version="1.1"
   id="svg9"
   sodipodi:docname="BOS_dark.svg"
   width="619.46698"
   height="619.47302"
   inkscape:version="1.4 (86a8ad7, 2024-10-11)"
   xmlns:inkscape="http://www.inkscape.org/namespaces/inkscape"
   xmlns:sodipodi="http://sodipodi.sourceforge.net/DTD/sodipodi-0.dtd"
   xmlns="http://www.w3.org/2000/svg"
   xmlns:svg="http://www.w3.org/2000/svg">
  <defs
     id="defs9" />
  <sodipodi:namedview
     id="namedview9"
     pagecolor="#ffffff"
     bordercolor="#000000"
     borderopacity="0.25"
     inkscape:showpageshadow="2"
     inkscape:pageopacity="0.0"
     inkscape:pagecheckerboard="0"
     inkscape:deskcolor="#d1d1d1"
     inkscape:zoom="1.8359375"
     inkscape:cx="309.37872"
     inkscape:cy="309.65106"
     inkscape:window-width="3440"
     inkscape:window-height="1377"
     inkscape:window-x="-8"
     inkscape:window-y="-8"
     inkscape:window-maximized="1"
     inkscape:current-layer="svg9" />
  <path
     d="m 515.755,569.753 c -8.282,0 -15.005,6.713 -15.005,15 0,8.279 6.723,15.002 15.005,15.002 8.282,0 14.995,-6.723 14.995,-15.001 0,-8.288 -6.713,-15.001 -14.995,-15.001 z m 0,26.783 c -6.518,0 -11.782,-5.27 -11.782,-11.782 0,-6.512 5.264,-11.774 11.782,-11.774 6.51,0 11.78,5.264 11.78,11.774 0,6.51 -5.27,11.782 -11.78,11.782 z m 6.164,-15.259 a 5.085,5.085 0 0 0 -5.09,-5.082 h -7.228 v 17.122 h 3.213 v -6.954 h 2.306 l 3.246,6.954 h 3.553 l -3.389,-7.25 a 5.095,5.095 0 0 0 3.389,-4.79 z m -5.09,1.872 h -4.015 v -3.747 h 4.015 c 1.032,0 1.877,0.839 1.877,1.875 a 1.878,1.878 0 0 1 -1.877,1.872 z"
     fill="#ffffff"
     id="path1" />
  <path
     d="m 629.735,309.742 c 0,-176.457 -143.55,-320.007 -320.007,-320.007 -176.457,0 -320.003,143.55 -320.003,320.007 0,176.457 143.557,319.993 320.003,319.993 176.446,0 320.007,-143.557 320.007,-319.993 z"
     fill="none"
     id="path2" />
  <path
     d="M 309.728,0 C 138.667,0 0,138.677 0,309.742 0,480.807 138.667,619.473 309.728,619.473 480.789,619.473 619.467,480.786 619.467,309.742 619.467,138.698 480.783,0 309.728,0 Z"
     fill="#ffb81c"
     id="path3" />
  <path
     d="m 309.728,11.505 c -164.696,0 -298.23,133.524 -298.23,298.237 0,164.713 133.534,298.227 298.23,298.227 164.696,0 298.232,-133.527 298.232,-298.227 0,-164.7 -133.536,-298.238 -298.231,-298.238 z"
     fill="#010101"
     id="path4" />
  <g
     fill="#ffb81c"
     id="g6"
     transform="translate(-170.27,-10.265)">
    <path
       d="m 619.74,204.049 51.28,-51.278 a 257.46,257.46 0 0 0 -23.786,-23.796 l -51.61,51.624 24.115,23.45 z M 496.82,66.668 c -5.57,-0.36 -11.16,-0.61 -16.822,-0.61 -5.662,0 -11.255,0.25 -16.828,0.61 v 81.62 h 33.65 z m -159.27,87.107 -24.784,-24.8 a 256.28,256.28 0 0 0 -23.79,23.796 l 48.573,48.573 v -47.57 z m 0,284.888 -48.574,48.573 a 257.463,257.463 0 0 0 23.79,23.79 l 24.783,-24.79 V 438.663 Z M 358.948,303.185 H 226.659 c -0.357,5.553 -0.602,11.164 -0.602,16.822 0,5.654 0.245,11.242 0.626,16.818 h 132.265 z m 374.382,0 H 622.306 l -17.287,16.822 17.3,16.818 h 111.008 c 0.367,-5.576 0.606,-11.164 0.606,-16.818 0,-5.658 -0.239,-11.269 -0.603,-16.822 z m -137.714,156.23 51.611,51.61 a 257.906,257.906 0 0 0 23.793,-23.79 L 619.733,435.958 Z M 463.17,573.336 c 5.573,0.353 11.167,0.612 16.828,0.612 5.661,0 11.252,-0.259 16.822,-0.612 V 491.7 h -33.65 v 81.635 z"
       id="path5" />
    <path
       d="m 350.579,432.18 v 46.505 h 206.564 l 52.275,-50.87 v -85.359 l -23.073,-22.45 23.073,-22.462 V 212.185 L 557.143,161.319 H 350.58 v 46.488 l 21.416,20.843 V 411.357 L 350.58,432.18 Z"
       id="path6" />
  </g>
  <g
     fill="#010101"
     id="g8"
     transform="translate(-170.27,-10.265)">
    <path
       d="m 538.745,241.737 -14.67,-14.262 H 439.4 v 59.447 h 84.675 l 14.67,-14.252 z m 0,125.607 -14.67,-14.256 H 439.4 v 59.438 h 84.675 l 14.67,-14.246 z"
       id="path7" />
    <path
       d="m 361.329,436.723 v 31.209 h 191.436 l 45.9,-44.653 v -76.286 l -27.748,-26.986 27.747,-27.013 V 216.721 L 552.765,172.055 H 361.33 v 31.215 l 21.409,20.84 v 191.783 z m 67.3,-220.002 h 99.828 l 21.021,20.47 v 40.025 l -21.021,20.46 H 428.63 V 216.72 Z m 0,125.614 h 99.828 l 21.021,20.466 v 40.008 l -21.021,20.47 H 428.63 v -80.944 z"
       id="path8" />
  </g>
  <g
     fill="#ffffff"
     id="g9"
     transform="translate(-170.27,-10.265)">
    <path
       d="m 323.496,519.9 c 35.533,27.888 78.68,46.454 125.812,52.132 v -80.33 H 351.674 Z M 562.43,491.701 h -51.748 v 80.331 c 47.131,-5.678 90.289,-24.244 125.812,-52.132 l -50.8,-50.823 -23.263,22.624 z M 358.948,350.694 H 227.96 c 5.691,47.138 24.264,90.269 52.146,125.829 l 78.842,-78.87 v -46.96 z m 0,-108.341 -78.842,-78.859 c -27.882,35.54 -46.455,78.681 -52.147,125.826 h 130.989 z m 226.747,-71.44 50.809,-50.816 C 600.971,92.219 557.814,73.649 510.682,67.968 v 80.32 h 51.749 z m 36.755,248.147 57.454,57.463 c 27.872,-35.56 46.435,-78.69 52.133,-125.83 H 622.451 v 68.366 z M 449.308,148.289 V 67.968 c -47.132,5.681 -90.28,24.251 -125.816,52.13 l 28.185,28.19 h 97.63 z M 622.45,289.32 h 109.587 c -5.695,-47.145 -24.261,-90.286 -52.133,-125.83 l -57.453,57.465 V 289.32 Z M 452.416,240.505 v 33.387 h 66.372 l 6.917,-6.732 v -19.93 l -6.917,-6.725 z m 0,125.617 v 33.364 h 66.372 l 6.917,-6.729 v -19.91 l -6.917,-6.725 z"
       id="path9" />
  </g>
</svg>
