<?xml version="1.0" encoding="UTF-8" standalone="no"?>
<svg
   fill="none"
   viewBox="0 0 638.40002 638.40002"
   version="1.1"
   id="svg6"
   sodipodi:docname="BUF_dark.svg"
   width="638.40002"
   height="638.40002"
   inkscape:version="1.4 (86a8ad7, 2024-10-11)"
   xmlns:inkscape="http://www.inkscape.org/namespaces/inkscape"
   xmlns:sodipodi="http://sodipodi.sourceforge.net/DTD/sodipodi-0.dtd"
   xmlns="http://www.w3.org/2000/svg"
   xmlns:svg="http://www.w3.org/2000/svg">
  <defs
     id="defs6" />
  <sodipodi:namedview
     id="namedview6"
     pagecolor="#ffffff"
     bordercolor="#000000"
     borderopacity="0.25"
     inkscape:showpageshadow="2"
     inkscape:pageopacity="0.0"
     inkscape:pagecheckerboard="0"
     inkscape:deskcolor="#d1d1d1"
     inkscape:zoom="1.8359375"
     inkscape:cx="319.18298"
     inkscape:cy="319.45532"
     inkscape:window-width="3440"
     inkscape:window-height="1377"
     inkscape:window-x="-8"
     inkscape:window-y="-8"
     inkscape:window-maximized="1"
     inkscape:current-layer="svg6" />
  <path
     fill="#ffb81c"
     d="M 319.2,638.4 C 142.9,638.4 0,495.5 0,319.2 0,142.9 142.9,0 319.2,0 c 176.3,0 319.2,142.9 319.2,319.2 0,176.3 -142.9,319.2 -319.2,319.2 z"
     id="path1" />
  <path
     fill="#003087"
     d="m 318.999,619.999 c -166.1,0 -300.7,-134.6 -300.7,-300.7 0,-166.1 134.6,-300.6 300.7,-300.6 166.1,0 300.7,134.6 300.7,300.7 0,166.1 -134.6,300.6 -300.7,300.6 z"
     id="path2" />
  <path
     fill="#ffffff"
     d="m 431.899,72.899 c 25.1,8.2 45.6,15.9 44.6,18.2 -0.9,2.3 -22.1,-3.8 -47.2,-12 -37.7,-12.4 -84.1,-29.7 -83.6,-31 0.5,-1.3 48.5,12.4 86.2,24.8 z m 18.9,209.6 c 1.1,1.5 -50,22.4 -92,37.3 -27.9,9.9 -51.9,17.2 -53.9,14.5 -2,-2.7 20.6,-11.9 48.5,-21.9 42.1,-14.8 96.3,-31.4 97.4,-29.9 z m -336.8,-82.7 c -2.5,-4.8 -5.2,-17 -5.2,-29.6 0,-35.3 23.8,-47.1 58.8,-53.8 5.9,-1.1 6.8,-1.8 10.9,-7.7 26.3,-38.6 59.7,-57.8 96.7,-57.8 22.9,0 37.8,5.3 107.8,30.2 18.9,6.7 41.5,15.1 69.5,25.1 13.4,4.8 28.1,10 44.2,15.5 21.9,7.6 28.8,11.2 28.8,15.2 0,4.7 -8.4,5.7 -8.4,9.5 0,3 11.3,6.4 21.8,7.4 -10,8 -41.5,3.2 -41.5,-4.5 0,-4.1 6.4,-6.2 6.4,-9.4 0,-4.8 -19.4,-14.4 -39.7,-16.6 8,26.9 1.1,37.2 1.1,43.1 0,5.7 8.9,8.6 20.1,6.3 5.6,6.5 14.4,12.2 21.3,14.6 -1.1,1.8 -1.7,5.2 -1,7.3 2.9,-1.1 7.3,-2.1 10.3,-2.1 6.1,6.7 8.7,20.1 7.5,28.5 -7,-2.4 -16,-3.8 -21.9,-3.9 -6.1,-9.1 -16,-17.6 -26.1,-22.8 -17.4,-2.5 -44.5,2.5 -59.8,8.2 8.1,1.2 24.1,0.8 31.7,-0.2 3.5,3 10.3,6.6 14.5,8.5 -1.2,2.1 -1.2,5.2 -0.5,7 3.1,-1.8 6.9,-3.2 9.8,-3.6 6.6,5 12.5,16.5 13.7,26.2 -6.4,-1.2 -14.4,-1.6 -19.9,-1.3 -10.5,-10.2 -26.8,-20 -38.5,-20 -12.7,0 -24.4,6.6 -32.5,6.6 -12.3,0 -24.6,-13.6 -44,-13.6 -5.4,0 -10.6,1 -15.9,2.9 1.1,11.1 7.6,23.2 11.9,29.1 -3.5,0.4 -9,0.3 -12.4,0 3,4.4 7.2,7.1 9.8,7.8 -7.5,4.5 -12.1,9 -14.7,17.5 5.9,1.5 12.2,0.9 15.8,-0.8 2.4,-3.1 6.2,-5.9 10,-6.9 10.3,5.9 16.1,15.2 16.9,21.7 -7.4,0.7 -14.6,3.4 -18.3,5.7 -6.8,-2.1 -12.1,-2.8 -16.6,-2.8 -8.2,0 -14.9,2.6 -21,2.6 -6.2,0 -10.4,-3.5 -11.5,-7 1.8,-5.6 3.4,-14.5 3.4,-21.8 0,-20.2 -18.1,-36.7 -47.7,-38.7 6.9,3.3 15.1,9 17.9,13.4 -6,2.7 -12.5,10 -12.5,16.3 0,5.3 4.2,10.1 8.6,11.6 2.4,-1.8 6.2,-3.7 9,-4.4 7.5,6.8 12,16.9 12.1,24.6 -5.4,-0.6 -14.6,0.7 -19.9,1.8 -4.9,-4.1 -9,-6.5 -12.7,-8.1 -7.3,-3 -13.1,-2 -18.8,-3.6 -4.7,-1.3 -8.1,-4.4 -8.5,-7 5.9,-5.4 11.9,-15.6 11.9,-25.9 0,-14.4 -8.6,-22.8 -16.4,-22.8 -6.1,0 -10.9,5.1 -10.9,12.4 0,8.2 6.8,16.4 17.1,17.2 -6.1,6.2 -13.2,10.6 -22,10.6 -5.3,0 -9.3,-1.6 -11.5,-1.6 -3.9,0 -8.3,1.7 -10.2,1.7 -0.9,0 -1.4,-0.5 -1.4,-1.4 0,-3.1 5.8,-10.3 9.1,-13.5 -5.8,-0.5 -9.8,0.4 -13.7,3.5 -5.5,4.3 -7.9,11 -14.7,11 -6.4,0 -9.1,-7.7 -14.2,-12.4 -3.7,-3.4 -6.2,-3.4 -11.9,-8.6 -9.1,-8.3 -11.2,-17.1 -12.7,-19.1 -2.8,-3.7 -15.1,-9.1 -19.3,-17.3 z m 56.1,13.6 c 0,-4.8 -3.1,-8.6 -7,-9.8 0.4,-4.7 2.5,-9 5,-11 -2.2,-1 -6.2,-0.6 -8.4,2 -2,2.3 -2.8,6.1 -3.4,10.1 -0.5,3.1 -0.9,6.3 -1.6,9.2 -1.2,4.9 -3.4,7.4 -5.2,7.8 1.6,1 4.2,1.7 6.3,0.8 3.5,-1.6 5.2,-5.3 5.8,-10.1 1.6,0.8 3.1,2.7 3.1,4.8 0,2.9 -2.3,5.2 -5.5,6 6,0.3 10.9,-4.2 10.9,-9.8 z m -49,-64.6 c 15.4,-4.6 26.3,-1.8 26.3,6.1 0,4.9 -3.7,7.5 -3.7,12.5 0,4.5 3.9,6.7 8.3,6.7 10.3,0 18.9,-8.6 18.9,-19.7 0,-10.5 -7.9,-19.2 -22.1,-19.2 -10.8,0.1 -22.3,6.1 -27.7,13.6 z"
     id="path3" />
  <path
     fill="#ffb81c"
     d="m 490.998,519.899 c -5.7,0 -9.9,4.7 -13.5,9.2 -10.8,13.6 -21.9,20.9 -39,20.9 -26.5,0 -52.3,-22.4 -52.3,-50.1 0,-16.8 7.5,-35.4 7.5,-49.4 0,-10.7 -6.7,-16.4 -14.1,-16.4 -3.4,0 -5.8,1.9 -5.8,3.4 0,2.4 8,-0.7 8,10.7 0,13.3 -8.9,33 -8.9,53.8 0,33.3 31.3,60.1 63.8,60.1 19.4,0 33.9,-9.3 44.5,-23.4 1.5,3.3 5,5.8 9.5,5.8 6.5,0 11.4,-5.4 11.4,-12.4 0,-6.2 -4.8,-12.2 -11.1,-12.2 z m -91.8,-53.3 c 4.3,4.1 20.1,15.8 38.2,27.6 18.1,11.7 35.2,21.4 40.7,23.6 1.2,0.5 2,0.6 2.1,0.3 0.2,-0.3 0.1,-0.6 -1.4,-1.5 -12.6,-7.9 -26.4,-16.6 -39.6,-25.2 -13.3,-8.6 -26.9,-17.6 -39.2,-25.9 -1.5,-1 -1.8,-1 -2,-0.7 -0.1,0.3 0.2,0.9 1.2,1.8 z m 0.7,24.4 c -0.1,0.5 -0.1,1.1 -0.2,1.7 -0.1,0.6 -0.1,1.1 -0.2,1.7 -0.1,3.5 5.3,6.6 8.3,1.6 -0.2,1.3 -0.3,2.5 -0.5,3.8 -0.1,3.4 5.3,6.6 8.4,1.5 -0.2,1.3 -0.3,2.5 -0.5,3.8 -0.1,3.4 5.4,6.5 8.4,1.5 -0.1,1.3 -0.3,2.5 -0.4,3.8 -0.1,3.4 5.4,6.5 8.4,1.4 -0.1,1.3 -0.3,2.5 -0.4,3.8 -0.4,3.4 5.4,6.4 8.4,1.4 l -0.4,3.8 c -0.1,3.4 5.4,6.4 8.5,1.4 l -0.4,3.8 c -0.1,3.8 6.1,6 8.8,1.5 -0.1,1 -0.2,1.6 -0.3,2.6 -0.6,5.3 5.4,8.3 9.3,5.4 2.6,-2 6.1,-5.4 8.3,-8.2 3.4,-4.3 -2.6,-8 -5.9,-5.3 -0.9,0.7 -1.7,1.4 -2.6,2.1 0.1,-1.5 0.1,-3 0.2,-4.5 0.1,-3.1 -5.4,-6.6 -8.3,0.4 0.1,-1.8 0.1,-3.6 0.2,-5.4 0.1,-3.1 -5.4,-6.6 -8.3,0.4 0.1,-1.8 0.2,-3.6 0.2,-5.4 0.1,-3.2 -5.4,-6.6 -8.2,0.3 0.1,-1.8 0.2,-3.6 0.2,-5.5 0.1,-3.2 -5.3,-6.7 -8.2,0.3 0.1,-1.8 0.2,-3.6 0.2,-5.5 0.1,-3.2 -5.3,-6.7 -8.2,0.2 0.1,-1.8 0.2,-3.7 0.3,-5.5 0.1,-3.2 -5.3,-6.8 -8.2,0.2 0.1,-1.8 0.2,-3.7 0.3,-5.5 0.1,-3.2 -5.3,-6.8 -8.1,0.2 0.1,-1.8 0.2,-3.7 0.3,-5.5 0.1,-3.1 -4.8,-5.9 -7.2,-1.8 -0.2,0.4 -0.5,0.8 -0.7,1.4 0.1,-1.6 0.2,-3.3 0.3,-4.9 0.1,-4 -6.5,-5.7 -7.9,-1.7 -0.9,2.6 -1.7,9.2 -1.8,13 -0.1,3.3 5.4,5.9 7.9,1.7 z m -143.3,-42.8 c 0,-11.4 8,-8.2 8,-10.7 0,-1.4 -2.4,-3.4 -5.8,-3.4 -7.4,0 -14,5.7 -14,16.4 0,14 7.5,32.6 7.5,49.4 0,27.7 -25.7,50.1 -52.3,50.1 -17.2,0 -28.3,-7.4 -39,-20.9 -3.6,-4.5 -7.8,-9.2 -13.5,-9.2 -6.3,0 -11.1,6 -11.1,12.1 0,7 5,12.4 11.4,12.4 4.4,0 7.9,-2.5 9.5,-5.8 10.6,14.2 25.1,23.4 44.5,23.4 32.5,0 63.8,-26.8 63.8,-60.1 -0.1,-20.7 -9,-40.5 -9,-53.7 z m -96.3,69.7 c 5.5,-2.3 22.7,-11.9 40.7,-23.6 18.1,-11.7 33.8,-23.4 38.2,-27.6 1,-0.9 1.3,-1.6 1.1,-1.8 -0.2,-0.3 -0.5,-0.3 -2,0.7 -12.3,8.3 -25.9,17.3 -39.2,25.9 -13.3,8.6 -27.1,17.4 -39.6,25.2 -1.5,0.9 -1.6,1.2 -1.4,1.5 0.3,0.2 1,0.2 2.2,-0.3 z m 76.5,-40.3 c 0.1,1.6 0.2,3.3 0.3,4.9 l -0.7,-1.4 c -2.4,-4.1 -7.3,-1.2 -7.2,1.8 0.1,1.8 0.2,3.7 0.3,5.5 -2.9,-7 -8.2,-3.4 -8.1,-0.2 0.1,1.8 0.2,3.7 0.3,5.5 -2.9,-7 -8.3,-3.4 -8.2,-0.2 0.1,1.8 0.2,3.7 0.3,5.5 -2.9,-7 -8.3,-3.4 -8.2,-0.2 0.1,1.8 0.2,3.6 0.2,5.5 -2.9,-7 -8.3,-3.4 -8.2,-0.3 0.1,1.8 0.2,3.6 0.2,5.5 -2.8,-6.9 -8.3,-3.5 -8.2,-0.3 0.1,1.8 0.1,3.6 0.2,5.4 -2.9,-7 -8.3,-3.5 -8.3,-0.4 0.1,1.8 0.1,3.6 0.2,5.4 -2.9,-6.9 -8.4,-3.5 -8.3,-0.4 0.1,1.5 0.1,3 0.2,4.5 -0.9,-0.7 -1.7,-1.4 -2.6,-2.1 -3.3,-2.7 -9.3,1 -5.9,5.3 2.2,2.8 5.7,6.2 8.3,8.2 3.9,3 9.9,0 9.3,-5.4 -0.1,-1 -0.2,-1.6 -0.3,-2.6 2.7,4.5 8.9,2.3 8.8,-1.5 -0.1,-1.3 -0.3,-2.5 -0.4,-3.8 3.1,5.1 8.6,2.1 8.5,-1.4 l -0.4,-3.8 c 3,5.1 8.8,2 8.4,-1.4 -0.1,-1.3 -0.3,-2.5 -0.4,-3.8 3,5.1 8.5,2 8.4,-1.4 l -0.5,-3.8 c 3,5.1 8.5,2 8.4,-1.5 -0.2,-1.3 -0.3,-2.5 -0.5,-3.8 3.1,5.1 8.5,1.9 8.4,-1.5 -0.2,-1.3 -0.3,-2.5 -0.5,-3.8 3,5.1 8.4,1.9 8.3,-1.6 l -0.2,-1.7 c -0.1,-0.6 -0.1,-1.1 -0.2,-1.7 2.5,4.2 8,1.6 7.9,-2 0,-3.8 -0.9,-10.5 -1.8,-13 -1.2,-3.7 -7.9,-2 -7.8,2 z"
     id="path4" />
  <path
     fill="#c8102e"
     d="m 159.099,223.198 c 3.1,-0.9 5.5,-3.2 5.5,-6 0,-2.1 -1.5,-4 -3,-4.8 -0.6,4.8 -2.3,8.5 -5.8,10.1 0.6,0.2 1.9,0.6 3.3,0.7 z"
     id="path5" />
  <path
     fill="#ffffff"
     d="m 319.199,410.1 c -87.7,-65.4 -189.7,-150.8 -252.1,-225.1 1,11.7 9.8,36.2 30.2,58.6 54.1,59.1 132.9,124 204.9,179 -13.6,9.9 -26.7,19.3 -39.1,28 -0.5,2.8 0,9.3 0.6,12.2 1,2.8 4.2,7.3 6.4,9.1 15.5,-11.3 32,-23.5 49.1,-36.4 17,12.9 33.6,25.1 49.1,36.4 2.3,-1.8 5.4,-6.3 6.4,-9.1 0.5,-2.9 1,-9.3 0.6,-12.2 -12.4,-8.7 -25.5,-18.1 -39.1,-28 72,-55 150.8,-119.9 204.9,-179 20.5,-22.4 29.3,-46.9 30.2,-58.6 -62.4,74.4 -164.4,159.7 -252.1,225.1 z m 228.3,157.5 c -8.4,0 -15.2,6.8 -15.2,15.2 0,8.4 6.8,15.2 15.2,15.2 8.4,0 15.2,-6.8 15.2,-15.2 -0.1,-8.4 -6.8,-15.2 -15.2,-15.2 z m 0,27.1 c -6.6,0 -11.9,-5.3 -11.9,-11.9 0,-6.6 5.3,-11.9 11.9,-11.9 6.6,0 11.9,5.3 11.9,11.9 0,6.5 -5.3,11.9 -11.9,11.9 z m 6.2,-15.5 c 0,-2.9 -2.3,-5.2 -5.1,-5.2 h -7.3 v 17.3 h 3.3 v -7.1 h 2.3 l 3.3,7.1 h 3.6 l -3.4,-7.3 c 1.9,-0.7 3.3,-2.6 3.3,-4.8 z m -5.1,1.9 h -4.1 v -3.8 h 4.1 c 1,0 1.9,0.8 1.9,1.9 -0.1,1.1 -0.9,1.9 -1.9,1.9 z"
     id="path6" />
</svg>
