<?xml version="1.0" encoding="UTF-8" standalone="no"?>
<svg
   fill="none"
   viewBox="0 0 798.2655 479.99979"
   version="1.1"
   id="svg8"
   sodipodi:docname="CAR_dark.svg"
   width="798.2655"
   height="479.99979"
   inkscape:version="1.4 (86a8ad7, 2024-10-11)"
   xmlns:inkscape="http://www.inkscape.org/namespaces/inkscape"
   xmlns:sodipodi="http://sodipodi.sourceforge.net/DTD/sodipodi-0.dtd"
   xmlns="http://www.w3.org/2000/svg"
   xmlns:svg="http://www.w3.org/2000/svg">
  <defs
     id="defs8" />
  <sodipodi:namedview
     id="namedview8"
     pagecolor="#ffffff"
     bordercolor="#000000"
     borderopacity="0.25"
     inkscape:showpageshadow="2"
     inkscape:pageopacity="0.0"
     inkscape:pagecheckerboard="0"
     inkscape:deskcolor="#d1d1d1"
     inkscape:zoom="1.8359375"
     inkscape:cx="399.25106"
     inkscape:cy="239.93191"
     inkscape:window-width="3440"
     inkscape:window-height="1377"
     inkscape:window-x="-8"
     inkscape:window-y="-8"
     inkscape:window-maximized="1"
     inkscape:current-layer="svg8" />
  <path
     fill="#ffffff"
     d="m 685.43471,367.05579 c -8.282,0 -15.005,6.714 -15.005,15.001 0,8.278 6.723,15.001 15.005,15.001 8.282,0 14.995,-6.723 14.995,-15 0,-8.288 -6.713,-15.002 -14.995,-15.002 z m 0,26.784 a 11.774,11.774 0 0 1 -11.782,-11.783 c 0,-6.51 5.264,-11.774 11.782,-11.774 6.51,0 11.78,5.264 11.78,11.774 0,6.512 -5.27,11.782 -11.78,11.782 z m 6.164,-15.26 a 5.102,5.102 0 0 0 -1.492,-3.596 5.09,5.09 0 0 0 -3.598,-1.486 h -7.228 v 17.123 h 3.213 v -6.954 h 2.306 l 3.246,6.954 h 3.553 l -3.389,-7.251 a 5.093,5.093 0 0 0 3.389,-4.79 z m -5.09,1.872 h -4.015 v -3.747 h 4.015 c 1.032,0 1.877,0.839 1.877,1.875 a 1.876,1.876 0 0 1 -1.877,1.872 z"
     id="path1" />
  <path
     fill="#a2aaad"
     d="m 796.37171,140.21879 c -10.922,-76.226995 -77.553,-99.939995 -117.607,-107.364995 l 34.264,-22.543 c 0,0 -179.005,-38.85 -410.54,34.274 C 90.951707,111.39079 -15.803293,216.22579 1.8947067,339.77779 c 10.9200003,76.233 77.5500003,99.942 117.6000033,107.363 l -34.262003,22.548 c 0,0 179.005003,38.847 410.550003,-34.264 211.532,-66.81 318.282,-171.641 300.589,-295.206 z"
     id="path2" />
  <path
     fill="#ffffff"
     d="M 785.73571,143.56979 C 771.29971,42.788795 646.82071,41.091795 646.82071,41.091795 l 35.934,-23.643 c 0,0 -169.956,-27.587 -378.668,38.328 C 119.79071,113.97479 -5.5942933,209.82979 12.534707,336.42379 c 14.436,100.797 138.915003,102.487 138.915003,102.487 l -35.93,23.629 c 0,0 169.947,27.592 378.666,-38.318 184.296,-58.207 309.684,-154.05 291.549,-280.652 z"
     id="path3" />
  <path
     fill="#c8102e"
     d="m 766.40571,149.67979 c -18.435,-128.660995 -217.8,-101.413995 -320.794,-68.889995 -55.163,17.418 -91.25,35.098995 -91.25,35.098995 186.834,-66.851995 317.806,-19.129995 317.806,-19.129995 -61.995,-4.352 -120.282,15.743995 -120.282,15.743995 0,0 62.623,12.615 70.94,70.73 10.995,76.73 -54.318,164.549 -255.63,228.125 -109.753,34.648 -202.1,40.146 -202.1,40.146 0,0 130.227,19.162 326.846,-42.933 181.96,-57.461 290.024,-150.191 274.464,-258.891 z"
     id="path4" />
  <path
     fill="#c8102e"
     d="m 399.37771,314.69779 c 55.852,-17.64 103.304,-43.949 128.808,-69.048 14.1,-13.88 21.52,-27.386 19.875,-38.853 -0.632,-4.374 -2.577,-8.211 -5.629,-11.534 -19.396,-21.131 -84.82,-20.841 -159.756,2.82 -86.725,27.395 -153.298,75.694 -148.688,107.895 4.615,32.2 78.661,36.106 165.39,8.72 z"
     id="path5" />
  <path
     fill="#010101"
     d="M 306.32771,71.418795 C 124.36171,128.88879 16.302707,221.62079 31.873707,330.31579 c 18.424,128.657 217.792003,101.423 320.783003,68.89 55.165,-17.427 91.25,-35.103 91.25,-35.103 -186.837,66.852 -317.81,19.127 -317.81,19.127 61.999,4.354 120.29,-15.734 120.29,-15.734 0,0 -62.624,-12.622 -70.94,-70.741 -10.99,-76.725 54.316,-164.544 255.631,-228.112995 109.753,-34.657 202.097,-40.157 202.097,-40.157 0,0 -130.222,-19.155 -326.847,42.934 z"
     id="path6" />
  <path
     fill="#010101"
     d="m 370.92971,149.86079 c -69.106,21.82 -105.256,49.446 -117.742,78.394 l -25.11,58.167 c 0,0 30.477,-54.63 153.842,-93.584 93.022,-29.38 149.804,-21.968 160.509,2.425 3.052,3.323 4.997,7.16 5.629,11.534 1.645,11.467 -5.776,24.973 -19.875,38.853 -23.302,32.771 -67.793,68.016 -106.83,91.822 31.174,-9.842 171.09,-76.227 160.939,-147.101 -9.426,-65.767 -91.182,-78.465 -211.362,-40.51 z"
     id="path7" />
  <path
     fill="#010101"
     d="m 385.41171,234.65779 c -36.211,11.44 -64.118,30.77 -62.337,43.193 1.775,12.418 32.565,13.228 68.775,1.792 36.206,-11.438 64.114,-30.771 62.339,-43.195 -1.785,-12.424 -32.579,-13.227 -68.777,-1.79 z"
     id="path8" />
</svg>
