<?xml version="1.0" encoding="UTF-8" standalone="no"?>
<svg
   fill="none"
   viewBox="0 0 727.11805 634.53394"
   version="1.1"
   id="svg11"
   sodipodi:docname="CBJ.svg"
   width="727.11804"
   height="634.53394"
   inkscape:version="1.4 (86a8ad7, 2024-10-11)"
   xmlns:inkscape="http://www.inkscape.org/namespaces/inkscape"
   xmlns:sodipodi="http://sodipodi.sourceforge.net/DTD/sodipodi-0.dtd"
   xmlns="http://www.w3.org/2000/svg"
   xmlns:svg="http://www.w3.org/2000/svg">
  <defs
     id="defs11" />
  <sodipodi:namedview
     id="namedview11"
     pagecolor="#ffffff"
     bordercolor="#000000"
     borderopacity="0.25"
     inkscape:showpageshadow="2"
     inkscape:pageopacity="0.0"
     inkscape:pagecheckerboard="0"
     inkscape:deskcolor="#d1d1d1"
     inkscape:zoom="1.8359375"
     inkscape:cx="363.30213"
     inkscape:cy="317.2766"
     inkscape:window-width="3440"
     inkscape:window-height="1377"
     inkscape:window-x="-8"
     inkscape:window-y="-8"
     inkscape:window-maximized="1"
     inkscape:current-layer="svg11" />
  <path
     id="path12"
     style="fill:#ffffff"
     sodipodi:type="inkscape:offset"
     inkscape:radius="21.270468"
     inkscape:original="M 340.60156 0 L 310.07227 63.294922 C 135.71827 85.714922 0 188.69064 0 299.80664 C 0 349.46264 21.309875 414.77197 119.42188 450.04297 L 69.929688 572.36328 L 200.86914 469.10547 C 229.00514 472.90347 260.16436 474.88867 293.81836 474.88867 C 333.20436 474.88867 371.93795 471.90841 409.12695 466.19141 L 552.4043 592 L 503.51367 444.48047 C 503.51367 444.48047 532.33822 435.17316 551.44922 425.66016 L 684.59961 119.24023 C 684.59961 119.24023 588.23753 176.30688 478.14453 219.92188 L 667.32422 79.271484 L 548.24805 99.761719 C 531.20805 89.554719 471.97859 58.857422 376.30859 58.857422 C 376.30859 58.857422 367.92363 59.054562 360.76562 59.226562 C 357.25362 48.899563 340.60156 2.3684758e-15 340.60156 0 z "
     d="M 341.88867,-21.228516 A 21.272595,21.272595 0 0 0 321.44336,-9.2402344 L 295.83398,43.855469 c -85.8781,12.831036 -162.32896,44.302385 -219.068355,87.511721 -59.271253,45.13744 -98.035156,104.22146 -98.035156,168.43945 0,51.9187 24.7476241,122.02225 113.021484,161.91602 L 50.212891,564.38477 a 21.272595,21.272595 0 0 0 32.888671,24.67968 L 207.14844,491.24219 c 26.77221,3.19326 55.68464,4.91601 86.66992,4.91601 36.96856,0 73.32502,-2.6731 108.53906,-7.60351 L 538.36914,607.98242 A 21.272595,21.272595 0 0 0 572.5957,585.30859 L 530.28125,457.63086 c 9.50819,-3.53566 20.73037,-7.99368 30.64648,-12.92969 a 21.272595,21.272595 0 0 0 10.0293,-10.56445 L 704.10742,127.7168 a 21.272595,21.272595 0 0 0 -30.20117,-26.83203 l 6.10937,-4.542973 A 21.272595,21.272595 0 0 0 663.7168,58.308594 L 552.06055,77.521484 C 526.92807,63.826615 467.0023,37.587891 376.30859,37.587891 a 21.272595,21.272595 0 0 0 -0.4375,0.0059 C 369.70417,19.478437 360.73633,-6.8574219 360.73633,-6.8574219 A 21.272595,21.272595 0 0 0 341.88867,-21.228516 Z"
     transform="translate(21.269531,21.267474)" />
  <path
     fill="#a2aaad"
     d="m 555.11653,466.46747 c -8.282,0 -15.005,6.714 -15.005,15.002 0,8.278 6.723,15 15.005,15 8.282,0 14.995,-6.722 14.995,-15 0,-8.288 -6.713,-15.002 -14.995,-15.002 z m 0,26.784 a 11.766,11.766 0 0 1 -10.888,-7.271 11.795,11.795 0 0 1 -0.894,-4.511 c 0,-6.51 5.264,-11.774 11.782,-11.774 6.51,0 11.78,5.264 11.78,11.774 0,6.512 -5.27,11.782 -11.78,11.782 z m 6.164,-15.259 a 5.077,5.077 0 0 0 -3.143,-4.696 5.084,5.084 0 0 0 -1.947,-0.386 h -7.228 v 17.122 h 3.213 v -6.954 h 2.306 l 3.246,6.954 h 3.553 l -3.389,-7.25 a 5.09,5.09 0 0 0 3.389,-4.79 z m -5.09,1.872 h -4.015 v -3.747 h 4.015 c 1.032,0 1.877,0.839 1.877,1.875 a 1.88,1.88 0 0 1 -1.877,1.872 z"
     id="path1" />
  <path
     fill="#a2aaad"
     d="m 572.71953,446.92847 133.15,-306.421 c 0,0 -96.362,57.066 -206.455,100.681 l 189.179,-140.65 -119.075,20.49 c -17.04,-10.207 -76.27,-40.903996 -171.94,-40.903996 0,0 -8.385,0.198 -15.543,0.37 -3.512,-10.327 -20.165,-59.227 -20.165,-59.227 l -30.529,63.295 C 156.98753,106.98247 21.269531,209.95747 21.269531,321.07347 c 0,49.656 21.31,114.965 119.421999,150.236 l -49.492999,122.321 130.940999,-103.258 c 28.136,3.798 59.294,5.783 92.948,5.783 39.386,0 78.119,-2.98 115.308,-8.697 l 143.278,125.809 -48.89,-147.52 c 0,0 28.825,-9.306 47.936,-18.819 z"
     id="path2" />
  <path
     fill="#041e42"
     d="m 681.27753,168.17647 c 0,0 -112.295,65.388 -237.352,108.576 l -4.398,-12.124 214.472,-148.753 -238.396,61.052 133.408,-53.742 c 0,0 -56.491,-31.527996 -151.432,-31.527996 -7.933,0 -15.85,0.192 -23.742,0.563 l -13.813,-40.573 -74.226,153.893996 -113.24,32.162 105.1,-43.118 34.468,-70.26 7.222,-14.714 6.276,-12.783996 C 167.40653,119.48747 32.802531,213.80547 32.802531,321.07347 c 0,60.12 33.066,115.199 123.651999,143.521 l -46.797,101.975 109.029,-88.24 c 28.234,4.089 60.247,6.301 96.4,6.301 45.298,0 85.165,-3.857 118.994,-9.338 l 120.9,107.445 -45.18,-124.445 c 35.166,-10.346 54.008,-19.8 54.008,-19.8 l 117.47,-270.317 z"
     id="path3" />
  <path
     fill="#a2aaad"
     d="m 226.47853,312.05147 9.348,-20.378 -54.743,-15.06 c 0,0 -15.574,27.83 45.395,35.438 z"
     id="path4" />
  <path
     fill="#a2aaad"
     d="m 561.00253,160.10047 -174.409,42.254 -30.72,-96.032 -48.661,116.148 -132.32,33.114 92.625,22.67 -17.77,35.515 c 1.601,0.039 3.238,0.082 4.903,0.115 2.226,0.035 4.499,0.065 6.858,0.065 6.394,0 12.882,-0.205 19.478,-0.606 16.148,-0.972 32.88,-3.098 49.925,-6.135 12.957,-2.312 26.099,-5.153 39.299,-8.42 17.425,-4.3 34.97,-9.367 52.382,-14.937 l -10.035,-26.705 z m -68.672,309.159 c -4.682,1.74 -8.515,3.352 -11.613,5.9 -2.922,2.411 -5.184,5.665 -6.834,10.665 a 49.449,49.449 0 0 0 -1.518,5.956 l 40.434,31.9 -20.469,-54.42 z m -313.547,2.268 a 23.35,23.35 0 0 0 -3.89,-0.963 28.94,28.94 0 0 0 -3.453,-0.304 l -21.995,43.946 41.319,-30.786 c -2.622,-4.8 -5.671,-9.645 -11.981,-11.893 z"
     id="path5" />
  <path
     fill="#c8102e"
     d="m 381.52153,409.12947 c -51.185,-9.678 -81.807,-19.58 -81.807,-19.58 0,0 23.629,-9.153 58.552,-25.177 31.173,-14.308 71.354,-34.086 111.72,-57.716 32.467,-18.988 65.06,-40.451 93.201,-63.566 0,0 -163.807,89.371 -299.862,89.371 -91.394,0 -133.692,-42.39 -133.692,-70.824 0,-84.716 149.118,-128.552 182.494,-137.312 l 7.222,-14.714 c -143.276,28.203 -196.556,84.49 -196.556,84.49 0,0 -47.891999,28.967 -66.024999,82.724 a 129.447,129.447 0 0 0 -6.85,41.65 c 0,64.773 42.45,149.48 260.097999,149.48 154.36,0 236.53,-40.946 236.53,-40.946 a 1051.258,1051.258 0 0 1 -75.254,-4.918 c -34.137,-3.452 -64.473,-8.18 -89.77,-12.962 z m 128.4,-287.071 c 0,0 -44.876,-21.845 -132.383,-18.963 l 4.03,11.832 c 9.675,-1.117 62.368,-6.127 128.353,7.131 z"
     id="path6" />
  <path
     fill="#ffffff"
     d="m 235.81453,380.19747 c 53.924,0 99.035,-9.637 122.452,-15.824 31.173,-14.309 71.354,-34.087 111.72,-57.717 -33.919,12.862 -141.267,51.127 -217.308,51.127 -115.352,0 -151.394,-66.819 -151.394,-104.527 0,-33.714 21.51,-59.154 21.51,-59.154 0,0 -39.746999,27.765 -39.746999,74.015 0,76.086 76.012999,112.08 152.766999,112.08 z"
     id="path7" />
  <path
     fill="#ffffff"
     d="m 280.18353,415.81247 c -214.352999,0 -223.879999,-114.184 -223.413999,-138.986 -4.24,12.553 -6.851,26.45 -6.851,41.65 0,0 2.229,126.339 247.122999,126.339 79.73,0 151.503,-16.812 174.252,-22.722 -34.137,-3.453 -64.473,-8.18 -89.77,-12.963 -17,2.675 -50.82,6.682 -101.34,6.682 z m 269.734,-91.593 c -6.975,-14.628 -27.306,-17.164 -45.444,-5.711 -18.128,11.5 -27.22,32.629 -20.26,47.257 6.929,14.64 27.241,17.171 45.393,5.701 18.158,-11.51 27.19,-32.626 20.311,-47.247 z"
     id="path8" />
  <path
     fill="#ffffff"
     d="m 368.46453,378.72747 -0.14,-5.136 -4.519,5.65 -7.07,0.921 4.4,2.374 -4.4,5.728 7.522,-3.937 5.208,3.727 -0.936,-6.127 6.995,-3.983 z m 54.403,-25.775 -0.163,-5.247 -4.69,5.836 -7.371,0.933 4.524,2.507 -4.54,5.923 7.867,-4.094 5.354,3.901 -0.895,-6.394 7.227,-4.146 z m 39.559,4.232 -0.149,-4.822 -4.26,5.3 -6.671,0.866 4.132,2.294 -4.132,5.38 7.08,-3.722 4.909,3.516 -0.82,-5.77 6.532,-3.776 z m -54.592,29.66 v -4.77 l -4.361,5.227 -6.68,0.66 4.077,2.388 -4.295,5.34 7.195,-3.568 4.83,3.638 -0.706,-5.843 6.645,-3.64 z m 39.162,5.517 -0.043,-4.823 -4.382,5.263 -6.698,0.671 4.08,2.377 -4.221,5.315 7.145,-3.603 4.825,3.657 -0.695,-5.802 6.647,-3.683 z m 32.327,-73.446 -0.208,-6.105 -5.37,6.762 -8.518,1.063 5.246,2.915 -5.246,6.802 9.02,-4.72 6.237,4.51 -1.101,-7.378 8.387,-4.806 z m 53.356,-31.671 -4.863,8.872 10.163,-6.727 9.126,4.69 -3.308,-8.758 9.342,-6.792 -10.487,2.113 -1.854,-7.343 -5.06,8.81 -10.498,2.25 z m 85,-43.789 -12.567,1.426 -1.072,-9.293 -7.25,10.292 -12.61,1.664 8.312,4.388 -6.988,10.462 12.925,-7.22 9.956,6.83 -2.584,-11.184 z m -66.529,153.554 -0.046,-7.389 -6.75,8.04 -10.317,1.087 6.318,3.615 -6.605,8.202 11.014,-5.5 7.474,5.566 -1.077,-8.936 10.262,-5.612 z m 19.686,-48.649 -0.175,-6.759 -6.067,7.507 -9.461,1.245 5.912,3.188 -5.934,7.607 10.084,-5.222 6.967,4.997 -1.204,-8.213 9.27,-5.372 z m 16.963,-47.848 -0.213,-7.389 -6.566,8.179 -10.278,1.321 6.382,3.473 -6.382,8.307 10.92,-5.709 7.536,5.452 -1.26,-8.922 10.077,-5.84 z m -91.315,91.117 -5.048,6.07 -7.72,0.765 4.676,2.738 -4.905,6.13 8.282,-4.13 5.614,4.182 -0.839,-6.675 7.641,-4.192 -7.668,0.65 z m -140.612,-268.962 -24.962,113.402 48.942,-31.756 z m 176.763,52.184 -201.725,61.218 c 0,0 74.119,16.177 76.373,16.49 2.283,0.331 125.352,-77.708 125.352,-77.708 z m -162.425,123.939 -39.299,-62.72 v 71.14 c 12.957,-2.313 26.099,-5.154 39.299,-8.42 z m -115.56,15.095 c 2.226,0.035 4.499,0.065 6.857,0.065 6.395,0 12.883,-0.205 19.48,-0.606 l 49.924,-77.274 -58.605,43.139 z"
     id="path9" />
  <path
     fill="#ffffff"
     d="m 309.74053,224.46247 -108.73,29.357 129.9,-17.75 z m 164.142,261.362 26.81,21.219 -19.975,-31.884 c -2.923,2.411 -5.185,5.665 -6.835,10.665 z m -315.736,17.655 20.636,-31.952 a 23.326,23.326 0 0 0 -3.89,-0.963 l -16.746,32.914 z"
     id="path10" />
  <path
     fill="#c8102e"
     d="m 507.19453,322.72347 c -14.767,9.309 -22.517,26.749 -17.316,38.93 5.159,12.164 21.336,14.458 36.087,5.13 14.75,-9.332 22.46,-26.761 17.308,-38.89 -5.251,-12.201 -21.34,-14.474 -36.079,-5.17 z"
     id="path11" />
</svg>
