<?xml version="1.0" encoding="UTF-8" standalone="no"?>
<svg
   fill="none"
   viewBox="0 0 675.1582 570.61798"
   version="1.1"
   id="svg5"
   sodipodi:docname="CGY_light.svg"
   width="675.1582"
   height="570.61798"
   inkscape:version="1.4 (86a8ad7, 2024-10-11)"
   xmlns:inkscape="http://www.inkscape.org/namespaces/inkscape"
   xmlns:sodipodi="http://sodipodi.sourceforge.net/DTD/sodipodi-0.dtd"
   xmlns="http://www.w3.org/2000/svg"
   xmlns:svg="http://www.w3.org/2000/svg">
  <defs
     id="defs5" />
  <sodipodi:namedview
     id="namedview5"
     pagecolor="#ffffff"
     bordercolor="#000000"
     borderopacity="0.25"
     inkscape:showpageshadow="2"
     inkscape:pageopacity="0.0"
     inkscape:pagecheckerboard="0"
     inkscape:deskcolor="#d1d1d1"
     inkscape:zoom="1.8359375"
     inkscape:cx="337.70213"
     inkscape:cy="285.14043"
     inkscape:window-width="3440"
     inkscape:window-height="1377"
     inkscape:window-x="-8"
     inkscape:window-y="-8"
     inkscape:window-maximized="1"
     inkscape:current-layer="svg5" />
  <path
     fill="#ffffff"
     d="M 636.898,71.17 C 600.815,25.94 542.517,0 476.955,0 426.245,0 381.971,21.596 346.397,38.95 323.992,49.88 304.64,59.318 290.478,59.945 281.981,60.343 267.921,46.245 260.662,36.13 l -4.45,-6.222 -6.141,4.582 c -13.31,9.933 -15.852,24.284 -14.284,36.778 -29.378,-14.164 -56.727,-11.616 -58.065,-11.484 -30.848,2.98 -49.568,16.18 -59.84,26.729 -7.697,7.904 -11.963,15.583 -13.961,19.85 -27.287,10.728 -39.758,25.01 -43.1,29.382 -16.113,11.258 -25.363,10.85 -25.247,10.865 l -10.066,-1.19 1.817,9.923 c 5.332,29.128 27.008,40.869 44.584,44.367 -19.893,20.365 -59.37,24.328 -59.818,24.37 L 0,225.197 6.434,235.446 c 20.944,33.353 67.194,32.713 73.462,32.457 5.895,0.55 12.346,-0.066 18.77,-1.324 -4.583,8.008 -7.315,16.703 -9.861,24.803 -2.364,7.526 -4.598,14.632 -8.007,20.638 l -0.22,0.42 c -1.825,3.758 -7.122,6.832 -12.245,9.808 -2.926,1.7 -5.955,3.46 -8.503,5.467 l -9.228,7.263 10.522,5.24 c 6.323,3.15 12.983,5.673 19.264,7.323 0.799,10.883 3.612,26.508 6.538,39.09 -14.728,-3.618 -29.096,-0.634 -29.913,-0.459 l -11.844,2.55 7.589,9.398 c 14.78,18.308 16.358,31.767 18.185,47.352 1.254,10.704 2.55,21.77 8.141,34.775 5.674,18.46 22.35,32.594 35.396,41.228 l 1.072,0.59 c 14.896,6.673 28.11,7.686 38.915,6.26 -6.53,4.23 -13.624,7.772 -19.18,9.99 l -10.047,3.997 7.3,7.948 c 10.834,11.795 35.215,19.309 48.656,20.198 a 74.6,74.6 0 0 0 4.846,0.16 c 24.948,0 39.57,-13.175 52.56,-24.878 14.55,-13.112 27.12,-24.44 53.267,-21.776 12.177,1.241 24.21,6.182 38.145,11.905 21.814,8.956 46.54,19.108 80.996,19.108 79.97,0 137.802,-44.133 172.234,-81.157 38.331,-41.218 67.146,-95.696 73.403,-138.792 l 1.238,-8.514 H 487.443 l -1.62,5.271 c -0.176,0.57 -18.007,57.077 -58.441,57.077 -16.785,0 -55.826,-6.879 -55.826,-70.587 0,-53.242 45.191,-155.062 116.04,-155.062 9.594,0 16.522,3.159 21.179,9.657 8.307,11.59 8.556,33.872 0.633,56.768 l -3.416,9.876 h 161.854 l 1.348,-5.761 C 683.439,172.871 671.97,115.132 636.898,71.17 Z M 179.165,350.593 c -11.206,5.158 -21.857,6.754 -35.196,2.957 l -0.555,-0.133 c -7.815,-1.592 -12.51,-5.608 -18.144,-12.298 2.993,-2.344 5.565,-5.07 7.964,-7.615 2.348,-2.49 4.582,-4.86 6.848,-6.506 1.755,-0.177 3.458,0.987 8.615,5.558 5.75,5.099 13.594,12.051 26.69,16.316 a 71.713,71.713 0 0 0 3.778,1.72 z"
     id="path1" />
  <path
     fill="#f1be48"
     d="M 660.687,232.514 C 690.046,106.444 603.625,7.678 476.466,7.678 c -81.14,0 -146.145,58.248 -185.416,59.998 -16.394,0.73 -36.107,-26.965 -36.107,-26.965 -22.207,16.655 -5.955,47.195 -5.955,47.195 -32.907,-24.195 -69.864,-20.419 -69.864,-20.419 -55.12,5.35 -68.603,45.03 -68.603,45.03 -32.141,11.897 -43.245,28.954 -43.245,28.954 -19.852,14.276 -31.345,12.91 -31.345,12.91 7.552,41.46 50.786,39.472 50.786,39.472 -17.061,32.932 -72.606,38.094 -72.606,38.094 19.83,31.736 67.045,28.966 67.045,28.966 16.147,1.725 38.112,-7 48.932,-11.91 -7.239,3.79 -10.616,6.78 -10.616,6.78 -20.837,14.653 -20.372,41.398 -31.119,60.432 -4.135,8.554 -16.133,12.652 -22.754,17.889 7.166,3.588 15.358,6.596 23.09,7.98 -0.195,13.27 6.235,45.453 10.525,58.3 -15.478,-11.507 -39.472,-6.32 -39.472,-6.32 26.59,33.095 14.087,53.527 27.428,84.319 4.497,15.232 18.395,28.325 32.368,37.615 36.212,16.303 61.216,-5.124 61.216,-5.124 -4.157,20.048 -41.851,35.117 -41.851,35.117 8.831,9.662 30.493,16.944 43.45,17.806 51.155,3.361 53.794,-52.312 110.51,-46.515 32.891,3.367 63.029,31.006 117.915,31.006 137.312,0 226.49,-138.998 237.297,-213.775 H 492.427 c 0,0 -19.084,62.409 -65.341,62.409 -47.9,0 -63.063,-41.078 -63.063,-78.114 0,-56.302 46.754,-162.671 123.041,-162.671 35.967,0 41.493,39.453 28.779,76.376 H 660.687 Z M 141.92,360.752 c -12.568,-2.559 -18.86,-10.236 -26.765,-20.233 l -0.988,-1.693 c 9.305,-3.033 14.72,-13.663 22.852,-18.793 12.8,-3.956 16.778,14.167 41.185,21.883 6.974,3.482 11.125,4.076 18.332,7.576 -16.853,10.61 -32.528,17.542 -54.616,11.26 z"
     id="path2" />
  <path
     fill="#c8102e"
     d="m 190.443,152.564 c -8.587,-1.396 -18.562,-5.541 -28.534,-3.052 -17.715,2.497 -29.077,19.937 -46.23,23.255 -19.131,7.197 -47.362,8.303 -62.319,-8.86 0,-0.828 -1.364,-1.384 -1.105,-2.212 24.366,-2.774 37.105,-30.186 60.921,-34.622 28.522,-10.515 57.6,2.212 75.868,23.545 0,0.827 1.115,1.106 1.4,1.946 z M 137.457,462.97 c 29.344,16.897 51.218,-15.779 81.12,-4.707 v 1.105 c -23.232,8.588 -33.485,34.066 -54.812,45.15 -11.08,5.25 -26.584,5.25 -37.39,-0.575 -26.021,-14.11 -33.769,-45.396 -35.169,-74.205 -1.096,-6.92 -4.138,-12.998 -6.369,-19.646 26.316,8.569 26.594,44.296 52.62,52.878 z"
     id="path3" />
  <path
     fill="#c8102e"
     d="M 649.804,216.514 C 670.302,125.044 602.841,21.924 478.049,21.316 401.879,20.947 339.167,81.881 289.605,81.881 c -12.586,0 -23.198,-7.687 -30.625,-17.123 2.229,27.198 27.471,49.94 51.614,59.115 -12.206,0.817 -22.756,-3.9 -33.575,-6.396 -32.469,-8.879 -55.522,-39.96 -92.695,-36.913 -26.081,-0.83 -49.116,14.996 -61.883,36.64 6.39,-5.838 13.884,-9.429 21.93,-11.107 19.14,-3.331 35.786,5.269 48.28,18.315 15.544,24.697 32.75,48.565 58.277,65.777 -18.318,0 -34.409,-6.94 -50.497,-12.482 -33.04,-9.448 -72.167,-5.288 -97.146,18.302 -12.76,20.822 -34.134,37.748 -57.707,42.733 v 0.848 l 6.925,3.04 c 27.208,11.664 57.171,0.278 79.921,-13.881 15.823,-4.99 34.7,-2.204 45.795,10.284 7.764,13.31 22.212,26.641 34.962,36.337 -3.333,1.393 -6.664,-1.388 -10.54,-1.388 -21.917,-10.81 -54.952,-25.52 -77.144,-5.262 -20.81,15.82 -10.272,46.35 -32.477,61.326 15.549,1.386 24.427,-9.993 33.306,-21.088 22.206,-16.376 36.353,13.045 54.113,19.98 18.88,9.15 43.85,6.098 57.45,25.534 -14.445,2.766 -29.15,5.274 -41.634,12.766 -19.147,11.924 -47.176,13.88 -67.991,3.882 -10.817,-5.845 -18.311,-13.882 -25.514,-23.875 0,0.291 0,0.842 -0.292,1.115 1.397,41.086 16.642,85.756 59.116,100.182 28.86,13.31 59.923,-8.333 88.249,5.554 -14.99,3.338 -28.862,11.374 -37.753,24.413 -14.7,19.15 -14.426,45.519 -32.74,61.895 -3.327,3.046 -8.32,4.711 -11.642,7.206 3.607,1.666 7.203,2.508 11.363,3.052 20.268,3.332 37.468,-9.72 48.839,-24.982 16.391,-15.813 41.247,-25.463 61.065,-24.133 39.998,2.692 69.805,31.74 122.614,31.93 105.16,0.399 197.978,-99.81 217.698,-181.963 h -124.05 c 0,0 -22.583,62.852 -77.209,62.852 -68.177,0 -80.089,-63.676 -80.089,-95.289 0,-74.23 58.216,-180.354 140.465,-180.354 39.028,0 61.996,39.852 49.294,77.79 z"
     id="path4" />
  <path
     fill="#ffffff"
     d="m 273.257,550.464 c 0,-8.006 6.054,-14.066 13.792,-14.066 7.646,0 13.703,6.06 13.703,14.066 0,8.145 -6.057,14.142 -13.703,14.142 -7.738,0 -13.791,-5.997 -13.791,-14.142 z m 13.792,16.954 c 9.226,0 17.09,-7.147 17.09,-16.954 0,-9.719 -7.864,-16.866 -17.09,-16.866 -9.314,0 -17.184,7.147 -17.184,16.866 0,9.807 7.87,16.954 17.184,16.954 z m -3.472,-14.904 h 3.453 l 5.24,8 h 3.472 l -5.676,-8.81 c 2.932,-0.368 5.18,-1.935 5.18,-5.507 0,-3.929 -2.343,-5.683 -7.047,-5.683 h -7.622 v 20 h 3 z m 0,-3 v -6 h 4.007 c 2.043,0 4.218,0.44 4.218,2.855 0,2.975 -2.22,3.145 -4.717,3.145 z"
     id="path5" />
</svg>
