<?xml version="1.0" encoding="UTF-8" standalone="no"?>
<svg
   fill="none"
   viewBox="0 0 717.33008 592"
   version="1.1"
   id="svg15"
   sodipodi:docname="COL_dark.svg"
   width="717.33008"
   height="592"
   inkscape:version="1.4 (86a8ad7, 2024-10-11)"
   xmlns:inkscape="http://www.inkscape.org/namespaces/inkscape"
   xmlns:sodipodi="http://sodipodi.sourceforge.net/DTD/sodipodi-0.dtd"
   xmlns="http://www.w3.org/2000/svg"
   xmlns:svg="http://www.w3.org/2000/svg">
  <defs
     id="defs15" />
  <sodipodi:namedview
     id="namedview15"
     pagecolor="#ffffff"
     bordercolor="#000000"
     borderopacity="0.25"
     inkscape:showpageshadow="2"
     inkscape:pageopacity="0.0"
     inkscape:pagecheckerboard="0"
     inkscape:deskcolor="#d1d1d1"
     inkscape:zoom="1.8359375"
     inkscape:cx="358.4"
     inkscape:cy="296.03404"
     inkscape:window-width="3440"
     inkscape:window-height="1377"
     inkscape:window-x="-8"
     inkscape:window-y="-8"
     inkscape:window-maximized="1"
     inkscape:current-layer="svg15" />
  <path
     fill="#ffffff"
     d="m 689.94,328.398 c -8.282,0 -15.006,6.713 -15.006,15 0,8.279 6.724,15.002 15.006,15.002 8.281,0 14.994,-6.723 14.994,-15.001 0,-8.288 -6.713,-15.001 -14.994,-15.001 z m 0,26.783 a 11.772,11.772 0 0 1 -11.783,-11.782 c 0,-6.51 5.265,-11.775 11.783,-11.775 6.51,0 11.78,5.265 11.78,11.775 0,6.512 -5.27,11.782 -11.78,11.782 z m 6.163,-15.26 a 5.097,5.097 0 0 0 -1.493,-3.595 5.094,5.094 0 0 0 -3.597,-1.487 h -7.228 v 17.123 h 3.213 v -6.954 h 2.306 l 3.246,6.954 h 3.554 l -3.39,-7.251 a 5.097,5.097 0 0 0 3.39,-4.79 z m -5.09,1.872 h -4.015 v -3.746 h 4.015 c 1.033,0 1.877,0.838 1.877,1.875 a 1.877,1.877 0 0 1 -1.877,1.871 z"
     id="path1" />
  <path
     fill="#ffffff"
     d="m 655.739,344.809 c 23.168,-33.564 35.054,-67.105 35.054,-99.775 0,-86.177 -88.128,-144.102 -219.316,-144.102 0,0 -6.266,0.107 -10.624,0.175 C 447.583,79.36 422.87,67.247 402.09,62.814 L 362.348,0 278.15,137.592 C 125.707,194.343 19.419,300.324 19.419,395.972 c 0,35.76 15.342,67.454 44.129,92.223 L 0,592 c 0,0 111.48,-17.76 280.137,-27.53 l 10.294,-27.234 c 49.41,-5.221 100.84,-17.942 149.797,-36.965 0.443,3.297 1.192,6.763 2.905,10.178 l 9.22,18.406 c 13.8,27.617 41.161,60.536 93.068,60.536 132.378,0 171.875,-111.844 171.875,-111.844 1.71,-87.992 -61.557,-132.738 -61.557,-132.738 z"
     id="path2" />
  <path
     fill="#236093"
     d="m 645.706,346.323 c 23.874,-32.724 37.674,-67.23 37.674,-101.29 0,-77.675 -77.345,-136.695 -211.904,-136.695 -4.881,0 -9.774,0.112 -14.675,0.264 -12.48,-24.42 -40.607,-35.895 -59.345,-39.243 L 362.463,14.023 283.167,143.566 C 141.487,195.65 26.83,297.675 26.83,395.972 c 0,35.391 16.103,66.89 46.31,90.715 l -58.574,95.702 c 0,0 121.03,-17.552 260.343,-25.054 l 10.189,-26.962 c 55.455,-5.35 111.053,-19.867 162.384,-40.885 -0.31,2.109 -1.266,10.544 2.279,17.64 l 9.21,18.432 c 14.58,29.142 40.996,56.423 86.441,56.423 126.986,0 164.477,-105.706 164.477,-105.706 0,-59.041 -27.1,-101.88 -64.183,-129.954 z"
     id="path3" />
  <path
     fill="#000000"
     d="m 671.049,442.666 c -8.101,12.342 -21.368,26.77 -25.27,30.939 l -0.072,36.925 -2.39,0.238 -5.038,0.48 -12.736,-19.701 c -92.367,64.86 -161.68,24.967 -161.68,24.967 l 20.813,32.026 c 37.071,47.524 158.182,30.387 209.816,-57.557 l -7.004,-0.272 c -1.217,-19.981 -16.439,-48.045 -16.439,-48.045 z"
     id="path4" />
  <path
     fill="#c2c6c9"
     d="M 535.115,305.392 422.769,127.762 c -3.866,-0.83 -8.01,-1.221 -12.388,-1.221 l 112.797,178.344 c 3.918,0.05 7.905,0.204 11.937,0.507 z M 193.06,328.398 362.728,51.204 373.684,68.537 c 4.47,0.451 8.72,1.04 12.73,1.753 L 362.593,32.622 191.521,312.115 c 0.02,3.368 0.272,9.322 1.539,16.283 z"
     id="path5" />
  <path
     fill="#c2c6c9"
     d="m 381.476,440.097 c -64.443,0 -107.566,32.262 -166.265,32.262 -81.714,0 -106.765,-57.662 -106.765,-97.563 0,-122.954 144.951,-197.078 144.951,-197.078 l 2.853,-4.661 c -0.485,0.214 -1.734,0.809 -3.595,1.719 -24.077,11.874 -154.167,81.475 -154.167,200.02 0,18.98 4.365,36.103 12.037,50.805 a 103.791,103.791 0 0 0 5.683,9.563 L 33.83,569.722 c 0,0 101.638,-14.493 234.141,-21.847 l 30.72,-81.286 c 26.875,-7.911 53.1,-15.846 86.947,-15.846 71.679,0 117.75,38.38 117.75,38.38 0,0 -26.24,-49.026 -121.912,-49.026 z"
     id="path6" />
  <path
     fill="#8a2432"
     d="m 410.381,126.54 c -29.438,0.085 -69.742,18.524 -112.393,48.644 l 19.406,-31.63 13.287,-10.747 10.121,-36.692 16.44,-5.058 4.845,-23.407 a 206.4,206.4 0 0 1 11.597,0.886 L 362.728,51.204 193.06,328.398 c 3.612,19.856 15.541,47.923 54.15,47.923 77.314,0 189.092,-71.467 274.123,-71.467 0.603,0 1.226,0.03 1.844,0.03 L 410.381,126.542 Z M 122.543,443.617 52.978,557.254 c 0,0 86.66,-11.589 208.064,-18.805 L 286.9,469.998 c -23.064,6.551 -47.453,12.243 -78.18,12.243 -34.601,0 -65.863,-14.255 -86.177,-38.624 z"
     id="path7" />
  <path
     fill="#c2c6c9"
     d="m 579.859,539.496 5.679,-9.38 c -76.913,25.478 -108.694,-0.886 -108.694,-0.886 26.013,29.239 81.947,16.451 103.015,10.266 z"
     id="path8" />
  <path
     fill="#c2c6c9"
     d="m 488.445,544.853 c 22.15,27.136 89.573,24.326 142.374,-7.264 l 3.959,-10.443 c -33.094,22.71 -106.688,43.742 -146.333,17.707 z M 363.746,251.088 328.881,343.771 c 0,0 -48.538,18.342 -80.565,23.577 64.223,4.863 175.77,-67.821 248.668,-67.821 -32.813,-10.254 -111.65,20.815 -111.65,20.815 z"
     id="path9" />
  <path
     fill="#236093"
     d="m 362.877,281.304 c -6.612,17.571 -14.15,37.627 -21.324,56.695 l 34.558,-14.249 c -4.106,-13.153 -8.752,-28.04 -13.234,-42.446 z"
     id="path10" />
  <path
     fill="#ffffff"
     d="M 252.654,174.776 C 143.924,217.052 59.603,292.725 59.603,368.819 c 0,32.875 14.7,58.474 37.974,77.934 l 12.948,-21.152 c -7.672,-14.702 -12.037,-31.825 -12.037,-50.805 0,-118.545 130.09,-188.146 154.167,-200.02 z M 631.225,336.41 c 12.967,-21.408 20.234,-43.668 20.234,-65.974 0,-84.844 -97.946,-121.285 -188.581,-128.482 -0.594,7.028 -2.188,14.648 -5.025,22.9 l 89.72,141.84 c 28.007,3.782 57.551,13.53 83.652,29.716 z M 422.769,127.763 c 12.76,2.725 22.62,10.09 28.519,22.972 7.356,-28.061 -1.827,-69.295 -64.873,-80.446 a 171.727,171.727 0 0 0 -12.73,-1.753 c -3.856,-0.404 -7.724,-0.7 -11.598,-0.886 l -4.846,23.407 -16.44,5.057 -10.12,36.692 -13.287,10.748 -19.406,31.63 c 42.65,-30.12 82.955,-48.56 112.393,-48.644 4.378,0 8.522,0.392 12.388,1.223 z"
     id="path11" />
  <path
     fill="#ffffff"
     d="m 521.404,312.625 c -93.162,0 -195.508,72.588 -275.858,72.588 -23.852,0 -31.045,-8.852 -31.045,-8.852 l -3.48,5.404 c 0,0 -98.493,-47.279 36,-193.647 0,0 -115.804,60.383 -125.027,182.551 l 7.005,-5.843 c 0,0 -3.645,82.216 89.452,82.216 74.875,0 101.428,-27.795 170.895,-27.795 148.2,0 171.947,84.483 171.947,84.483 0,0 -97.121,28.63 -103.527,-25.001 0,0 -14.814,62.833 109.665,31.21 0,0 7.862,-12.307 6.924,-28.352 0,0 11.487,11.541 13.478,20.353 0,0 9.426,-10.776 -5.692,-39.813 0,0 12.904,11.796 21.304,28.997 l 5.208,-4.383 c 0,0 0.391,-12.569 -24.623,-46.31 l -17.007,10.681 c 0,0 -39.617,-74.838 -186.9,-65.23 0,0 122.654,-43.508 194.01,45.075 l 15.373,-10.521 c 0,0 42.81,41.603 53.81,90.332 l 2.39,-0.238 0.072,-36.925 0.091,-44.109 12.408,14.527 c 0,0 6.006,-10.92 -1.194,-33.738 0,0 28.816,28.16 37.408,80.698 l 2.22,-29.24 c 0,-25.192 -41.83,-149.118 -175.307,-149.118 z m 107.236,83.979 -4.254,31.703 -19.883,-20.967 -9.73,5.084 c -13.377,-16.948 -64.937,-59.865 -125.309,-59.865 -86.608,0 -160.704,62.538 -234.88,62.538 -80.965,0 -84.226,-48.34 -84.226,-67.47 0,-35.512 20.79,-74.235 20.79,-74.235 -7.12,21.727 -37.468,128.709 69.067,128.709 83.835,0 128.757,-57.883 226.475,-57.883 94.02,0 131.975,53.591 131.975,53.591 l 7.31,-4.607 13.877,14.95 1.061,-15.467 8.542,-14.944 c -19.744,-38.953 -63.873,-52.647 -63.873,-52.647 57.795,10.853 75.11,53.037 75.11,53.037 z"
     id="path12" />
  <path
     fill="#ffffff"
     d="m 305.386,476.655 -8.22,21.773 c 48.804,-1.692 98.17,-11.652 143.933,-27.57 -50.186,-23.291 -127.766,2.996 -135.713,5.797 z"
     id="path13" />
  <path
     fill="#236093"
     d="m 437.575,119.247 c -26.576,-25.288 -89.4,-4.638 -89.4,-4.638 l -1.681,6.752 c 63.244,-23.614 91.081,-2.114 91.081,-2.114 z"
     id="path14" />
  <path
     fill="#c2c6c9"
     d="M 319.5,153.264 C 398.138,109.3 430.322,121.111 442.415,131.7 404.979,92.415 326.046,143.236 326.046,143.236 l -6.545,10.03 z"
     id="path15" />
</svg>
