<?xml version="1.0" encoding="UTF-8" standalone="no"?>
<svg
   fill="none"
   viewBox="0 0 815.54346 676.67584"
   version="1.1"
   id="svg10"
   sodipodi:docname="DAL.svg"
   width="815.54346"
   height="676.67584"
   inkscape:version="1.4 (86a8ad7, 2024-10-11)"
   xmlns:inkscape="http://www.inkscape.org/namespaces/inkscape"
   xmlns:sodipodi="http://sodipodi.sourceforge.net/DTD/sodipodi-0.dtd"
   xmlns="http://www.w3.org/2000/svg"
   xmlns:svg="http://www.w3.org/2000/svg">
  <sodipodi:namedview
     id="namedview10"
     pagecolor="#ffffff"
     bordercolor="#000000"
     borderopacity="0.25"
     inkscape:showpageshadow="2"
     inkscape:pageopacity="0.0"
     inkscape:pagecheckerboard="0"
     inkscape:deskcolor="#d1d1d1"
     inkscape:zoom="1.2982039"
     inkscape:cx="432.13552"
     inkscape:cy="402.47916"
     inkscape:window-width="3440"
     inkscape:window-height="1377"
     inkscape:window-x="-8"
     inkscape:window-y="-8"
     inkscape:window-maximized="1"
     inkscape:current-layer="svg10" />
  <path
     id="path19"
     style="fill:#ffffff"
     sodipodi:type="inkscape:offset"
     inkscape:radius="18.309706"
     inkscape:original="M 417.72266 0 L 295.56055 202.27734 L 229.79102 202.27734 L 207.55664 239.54297 L 0 239.54297 L 140.11133 352.44922 L 53.162109 498.02539 L 117.00781 498.02539 L 31.238281 640.0625 L 296.43164 498.02539 C 304.38064 498.02539 312.26775 497.71675 319.96875 497.34375 L 480.94727 627.01953 L 463.68164 455.54688 C 487.71664 438.83988 507.46678 417.04025 523.80078 389.03125 L 523.73828 388.96875 C 527.15428 383.06875 530.25919 377.16708 532.99219 371.20508 L 778.93164 239.48047 L 520.13672 239.48047 C 500.75972 219.17147 472.68775 206.74948 438.21875 203.27148 L 417.72266 0 z M 408.4082 41.425781 L 425.98242 215.94141 C 464.79942 217.61841 495.16883 230.35053 514.17383 253.01953 L 725.39453 253.01953 L 522.61914 361.64258 C 519.63814 368.47458 516.16005 375.42972 512.12305 382.26172 C 495.35505 410.95472 474.86194 432.81489 449.46094 448.83789 L 449.52148 448.83789 L 464.36523 596.46484 L 324.37891 483.67969 C 314.25591 484.30069 303.69763 484.61133 293.01562 484.61133 L 68.005859 605.1582 L 140.79492 484.61133 L 76.824219 484.61133 L 157.62305 349.3457 L 38.070312 253.01953 L 215.19727 253.01953 L 237.42969 215.75586 L 303.13867 215.75586 L 408.4082 41.425781 z "
     d="m 421.74219,-17.859375 a 18.311537,18.311537 0 0 0 -19.69336,8.3945312 L 285.22852,183.9668 h -55.4375 a 18.311537,18.311537 0 0 0 -15.72461,8.92968 l -16.90625,28.33594 H 0 a 18.311537,18.311537 0 0 0 -11.488281,32.56641 L 116.23242,356.7207 37.443359,488.63672 a 18.311537,18.311537 0 0 0 15.71875,27.69922 H 84.5625 L 15.564453,630.59766 a 18.311537,18.311537 0 0 0 24.318359,25.60546 L 301.28516,516.19531 c 4.24349,-0.0603 8.36414,-0.19217 12.45312,-0.35742 L 469.46094,641.2793 a 18.311537,18.311537 0 0 0 29.70312,-16.09375 L 482.94141,464.07422 c 22.37506,-17.3666 41.18441,-39.25428 56.67578,-65.81836 a 18.311537,18.311537 0 0 0 0.625,-1.30664 c 2.3316,-4.07389 4.5067,-8.20668 6.58008,-12.38086 l 240.7539,-128.94727 a 18.311537,18.311537 0 0 0 -8.64453,-34.45117 H 527.37695 c -19.15628,-17.47385 -43.95066,-28.8719 -72.3789,-33.99219 L 435.93945,-1.8359375 A 18.311537,18.311537 0 0 0 421.74219,-17.859375 Z M 395.69336,97.902344 407.76562,217.77539 a 18.311537,18.311537 0 0 0 17.42579,16.45898 c 35.23585,1.52229 59.94731,12.65236 74.95117,30.54883 a 18.311537,18.311537 0 0 0 14.03125,6.54688 h 138.26172 l -138.46289,74.17187 a 18.311537,18.311537 0 0 0 -8.13477,8.81836 c -2.71488,6.22209 -5.86707,12.51513 -9.47852,18.62696 a 18.311537,18.311537 0 0 0 -0.0449,0.0762 c -15.53307,26.57983 -33.81934,45.9435 -56.62304,60.32812 a 18.311537,18.311537 0 0 0 9.76953,33.79688 h -16.5 l 8.80664,87.5957 -105.90039,-85.32227 a 18.311537,18.311537 0 0 0 -12.60938,-4.01757 c -9.71885,0.5962 -19.91515,0.89648 -30.24219,0.89648 a 18.311537,18.311537 0 0 0 -8.64648,2.17188 l -166.20703,89.04492 38.30664,-63.44141 A 18.311537,18.311537 0 0 0 140.79492,466.30078 H 109.08789 L 173.3418,358.73437 a 18.311537,18.311537 0 0 0 -4.23047,-23.64648 L 89.980469,271.33008 H 215.19727 a 18.311537,18.311537 0 0 0 15.7246,-8.92969 l 16.9043,-28.33398 h 55.3125 a 18.311537,18.311537 0 0 0 15.67383,-8.84571 z"
     transform="translate(18.305861,18.306265)" />
  <path
     fill="#00823e"
     d="m 542.04386,407.27427 c 3.416,-5.9 6.521,-11.8 9.254,-17.762 l 245.939,-131.726 h -258.795 c -19.377,-20.309 -47.449,-32.73 -81.918,-36.208 l -20.495,-203.272005 -122.162,202.278005 h -65.77 l -22.234,37.264 H 18.305861 l 140.110999,112.908 -86.947999,145.576 h 63.843999 l -85.767999,142.036 265.191999,-142.036 c 7.949,0 15.837,-0.31 23.538,-0.683 l 160.978,129.677 -17.265,-171.474 c 24.035,-16.707 43.784,-38.506 60.118,-66.515 m -74.278,59.807 14.843,147.626 -139.987,-112.784 c -10.123,0.621 -20.681,0.931 -31.363,0.931 l -225.008999,120.548 72.787999,-120.548 H 95.130861 l 80.798999,-135.266 -119.552999,-96.326 H 233.50286 l 22.233,-37.264 h 65.708 l 105.27,-174.330005 17.575,174.517005 c 38.817,1.677 69.186,14.408 88.191,37.077 h 211.221 l -202.775,108.623 c -2.981,6.832 -6.459,13.787 -10.496,20.619 -16.768,28.693 -37.263,50.554 -62.664,66.577"
     id="path1" />
  <path
     fill="#000000"
     d="m 332.37486,414.54127 c 21.426,0 46.269,-0.87 66.888,-12.918 26.146,-15.278 41.549,-42.232 37.946,-61.174 a 27.189,27.189 0 0 0 -0.621,-2.422 c -0.496,-1.739 -1.242,-3.354 -2.111,-4.845 0,0 -0.062,-0.124 -0.124,-0.186 a 19.062,19.062 0 0 0 -3.168,-3.913 l -0.248,-0.248 c -1.18,-1.118 -2.609,-2.174 -4.099,-3.105 a 1.925,1.925 0 0 1 -0.435,-0.311 c -1.553,-0.932 -3.229,-1.677 -5.093,-2.422 -0.248,-0.062 -0.434,-0.186 -0.683,-0.248 a 49.13,49.13 0 0 0 -6.024,-1.802 c -0.248,-0.062 -0.559,-0.124 -0.87,-0.186 -2.173,-0.497 -4.471,-0.869 -6.955,-1.242 -0.311,0 -0.684,-0.062 -0.994,-0.124 a 102.207,102.207 0 0 0 -7.95,-0.683 h -0.993 c -2.795,-0.125 -5.714,-0.187 -8.819,-0.249 h -97.693 l 12.173,9.813 12.173,9.813 -25.774,42.107 -21.054,34.407 h 64.466 z"
     id="path2" />
  <path
     fill="#000000"
     d="m 540.92586,379.88627 202.775,-108.623 h -211.222 c -19.004,-22.669 -49.374,-35.401 -88.19,-37.077 l -17.576,-174.518005 -105.269,174.331005 h -65.708 l -22.234,37.264 H 56.375861 l 119.553999,96.326 -80.799999,135.266 h 63.968999 l -72.787999,120.547 225.009999,-120.547 c 10.682,0 21.24,-0.31 31.363,-0.931 l 139.986,112.784 -14.843,-147.626 c 25.401,-16.023 45.896,-37.884 62.665,-66.577 3.975,-6.832 7.515,-13.788 10.496,-20.619 m -20.557,-21.551 c -3.044,9.13 -7.329,18.694 -13.105,28.631 -3.167,5.403 -6.459,10.558 -9.999,15.526 -2.235,3.105 -4.471,6.149 -6.893,9.068 -16.707,20.557 -38.071,36.828 -67.634,47.945 -13.539,5.031 -28.755,9.006 -46.02,11.8 6.521,0.187 17.265,0.932 29.935,1.118 h 8.26 a 172.1,172.1 0 0 0 7.95,-0.186 h 0.683 c 2.732,-0.124 5.465,-0.248 8.198,-0.435 h 0.497 c 2.856,-0.186 5.713,-0.434 8.632,-0.745 l 8.571,82.476 -98.251,-79.122 c -12.608,1.055 -26.085,1.614 -40.68,1.614 h -6.024 l -144.706,77.508 37.449,-62.043 57.386,-15.465 h -112.287 l 68.502,-114.709 -78.439,-63.162 h 116.2 l 22.234,-37.263 h 65.645 l 71.484,-118.374 11.925,118.374 h 15.588 c 41.425,0 70.18,13.974 82.849,37.263 h 118.25 l -96.513,52.169 a 71.246,71.246 0 0 0 -1.056,-6.521 l -0.372,-1.677 a 53.751,53.751 0 0 0 -1.118,-4.533 64.464,64.464 0 0 0 -0.559,-1.801 c -0.497,-1.491 -0.994,-3.044 -1.553,-4.472 -0.186,-0.435 -0.31,-0.87 -0.497,-1.366 -0.807,-1.926 -1.614,-3.851 -2.608,-5.714 -2.422,-4.658 -5.403,-9.13 -9.005,-13.601 3.788,13.787 2.857,29.935 -3.106,47.759"
     id="path3" />
  <path
     fill="#ffffff"
     d="m 297.96686,289.58427 0.249,0.125 h 116.572 c 19.75,0 51.362,2.856 62.478,28.568 l 41.239,-20.122 c -12.67,-23.29 -41.425,-37.263 -82.849,-37.263 h -55.585 l 28.072,-118.374 -71.484,118.374 h -65.646 l -22.234,37.263 h -116.2 l 97.941,30.494 -19.501,32.668 -68.503,114.709 62.665,-30.742 92.91,-155.7 z m -43.286,186.442 -57.386,15.464 -37.45,62.044 80.489,-73.658 z"
     id="path4" />
  <path
     fill="#ffffff"
     d="m 532.48086,324.17727 104.213,-26.084 h -118.249 c 2.981,5.838 5.03,12.483 5.03,12.483 3.602,4.409 6.583,8.943 9.006,13.601 z m -95.209,16.334 c 3.602,18.88 -11.862,45.834 -37.947,61.174 -20.619,12.048 -45.461,12.918 -66.888,12.918 h -64.465 l -62.852,30.68 h 127.193 c 94.836,0 129.553,-50.119 141.229,-78.439 10.247,-24.905 6.397,-41.611 3.726,-48.629 l -40.617,19.811 c 0.248,0.808 0.435,1.615 0.621,2.423 m -86.017,133.9 98.252,79.123 -42.853,-81.111 c -12.67,-0.186 -23.414,-0.931 -29.935,-1.117 l -25.464,3.043"
     id="path5" />
  <path
     fill="#a2aaad"
     d="m 518.44386,298.09327 -41.238,20.122 c 2.671,7.018 6.521,23.724 -3.726,48.629 -11.676,28.32 -46.455,78.439 -141.229,78.439 h -127.192 l -62.665,30.743 h 112.287 l -14.408,3.85 -80.489,73.596 144.706,-77.508 h 6.024 c 14.595,0 28.072,-0.559 40.679,-1.615 l 25.464,-3.043 c 17.265,-2.795 32.481,-6.77 46.02,-11.8 29.563,-11.055 50.927,-27.389 67.633,-47.884 a 204.715,204.715 0 0 0 6.894,-9.067 c 3.54,-4.969 6.832,-10.124 9.999,-15.527 5.776,-9.937 10.061,-19.501 13.105,-28.631 5.9,-17.824 6.831,-33.972 3.105,-47.759 0,0 -2.05,-6.645 -5.031,-12.483 m -77.446,172.902 c -2.856,0.311 -5.775,0.559 -8.632,0.745 h -0.497 c -2.795,0.187 -5.528,0.311 -8.198,0.435 h -0.683 c -2.733,0.062 -5.341,0.124 -7.95,0.186 h -8.26 l 42.853,81.11 -8.57,-82.476 z m -60.927,-210.228 h 39.996 l -11.924,-118.311 z m -247.49,37.264 78.439,63.223 19.502,-32.729 z"
     id="path6" />
  <path
     fill="#a2aaad"
     d="m 414.72686,289.64627 h -116.573 l -0.248,-0.124 -92.911,155.699 62.852,-30.68 21.053,-34.345 25.774,-42.107 -12.172,-9.813 -12.173,-9.813 h 97.692 c 3.105,0 6.024,0.062 8.819,0.249 h 0.994 c 2.795,0.124 5.465,0.372 7.949,0.683 0.311,0 0.684,0.062 0.994,0.124 2.484,0.31 4.782,0.745 6.956,1.242 0.31,0 0.559,0.124 0.869,0.186 a 49.325,49.325 0 0 1 6.025,1.801 c 0.248,0.063 0.434,0.125 0.683,0.249 1.863,0.683 3.54,1.49 5.093,2.422 0.186,0.062 0.31,0.186 0.496,0.31 a 23.656,23.656 0 0 1 4.099,3.106 c 0.125,0.062 0.187,0.186 0.249,0.248 a 18.998,18.998 0 0 1 3.167,3.913 c 0,0.062 0,0.124 0.062,0.186 0.87,1.491 1.615,3.105 2.112,4.844 l 40.617,-19.811 c -11.117,-25.712 -42.729,-28.569 -62.478,-28.569 z m 117.753,34.531 a 94.658,94.658 0 0 1 2.608,5.714 c 0.187,0.435 0.311,0.869 0.497,1.366 0.559,1.491 1.118,2.981 1.553,4.472 0.186,0.621 0.372,1.242 0.559,1.801 0.434,1.49 0.807,3.043 1.118,4.534 l 0.372,1.676 c 0.435,2.112 0.746,4.286 1.056,6.521 l 96.512,-52.168 -104.213,26.022 z"
     id="path7" />
  <path
     fill="#ffffff"
     d="m 539.93286,615.88827 c 0,-7.888 -6.397,-14.347 -14.284,-14.347 -7.888,0 -14.347,6.397 -14.347,14.347 0,7.949 6.397,14.284 14.347,14.284 a 14.247,14.247 0 0 0 14.284,-14.284 z m -25.526,0 c 0,-6.211 5.031,-11.241 11.242,-11.241 6.21,0 11.241,5.03 11.241,11.241 0,6.21 -5.031,11.241 -11.241,11.241 -6.211,0 -11.242,-5.031 -11.242,-11.241 z"
     id="path8" />
  <path
     fill="#ffffff"
     d="m 531.48486,624.08627 -3.229,-6.894 c 1.863,-0.683 3.229,-2.484 3.229,-4.596 0,-2.67 -2.173,-4.906 -4.844,-4.906 h -6.894 v 16.396 h 3.044 v -6.646 h 2.173 l 3.106,6.646 z m -4.844,-9.689 h -3.85 v -3.602 h 3.85 a 1.802,1.802 0 0 1 0,3.602 z"
     id="path9" />
  <defs
     id="defs10" />
</svg>
