<?xml version="1.0" encoding="UTF-8" standalone="no"?>
<svg
   fill="none"
   viewBox="0 0 864.29901 639.99927"
   version="1.1"
   id="svg9"
   sodipodi:docname="DET_dark.svg"
   width="864.29901"
   height="639.99927"
   inkscape:version="1.4 (86a8ad7, 2024-10-11)"
   xmlns:inkscape="http://www.inkscape.org/namespaces/inkscape"
   xmlns:sodipodi="http://sodipodi.sourceforge.net/DTD/sodipodi-0.dtd"
   xmlns="http://www.w3.org/2000/svg"
   xmlns:svg="http://www.w3.org/2000/svg">
  <defs
     id="defs9" />
  <sodipodi:namedview
     id="namedview9"
     pagecolor="#ffffff"
     bordercolor="#000000"
     borderopacity="0.25"
     inkscape:showpageshadow="2"
     inkscape:pageopacity="0.0"
     inkscape:pagecheckerboard="0"
     inkscape:deskcolor="#d1d1d1"
     inkscape:zoom="1.8359375"
     inkscape:cx="431.93191"
     inkscape:cy="320"
     inkscape:window-width="3440"
     inkscape:window-height="1377"
     inkscape:window-x="-8"
     inkscape:window-y="-8"
     inkscape:window-maximized="1"
     inkscape:current-layer="svg9" />
  <path
     fill="#ffffff"
     d="m 445.84,514.80726 c -8.282,0 -15.004,6.713 -15.004,15 0,8.278 6.722,15.001 15.004,15.001 8.282,0 14.996,-6.723 14.996,-15 0,-8.288 -6.714,-15.001 -14.996,-15.001 z m 0,26.783 a 11.771,11.771 0 0 1 -11.782,-11.783 c 0,-6.51 5.264,-11.774 11.782,-11.774 6.51,0 11.78,5.264 11.78,11.774 0,6.513 -5.27,11.783 -11.78,11.783 z m 6.164,-15.26 a 5.077,5.077 0 0 0 -1.492,-3.595 5.087,5.087 0 0 0 -3.598,-1.487 h -7.228 v 17.123 h 3.213 v -6.954 h 2.305 l 3.247,6.954 h 3.553 l -3.39,-7.251 a 5.09,5.09 0 0 0 3.39,-4.79 z m -5.09,1.872 h -4.015 v -3.747 h 4.015 a 1.88,1.88 0 0 1 1.877,1.876 1.874,1.874 0 0 1 -1.877,1.871 z"
     id="path1" />
  <path
     fill="#c8102e"
     d="m 792.741,195.26926 c 36.34,-31.053 71.558,-81.127 71.558,-138.468002 0,-8.3 -10.125,-10.635 -14.23,-4.992 -37.444,51.097002 -72.754,70.510002 -94.083,77.900002 35.468,-26.852 70.253,-70.696002 79.15,-120.4180022 0.978,-9.07200002 -8.89,-11.72 -13.45,-6.972 C 778.259,45.739258 718.472,92.075258 557.799,92.075258 c -38.824,0 -83.206,-1.126 -111.905,-1.126 -130.45,0 -178.424,80.683002 -189.239,103.082002 -10.74,-1.552 -21.614,-2.509 -32.424,-2.509 C 100.591,191.52226 2.9823518e-8,292.11326 2.9823518e-8,415.76426 -0.00199997,539.40426 100.588,639.99926 224.23,639.99926 c 90.998,0 171.442,-53.736 206.586,-137.233 2.473,0.253 5.097,0.675 7.31,0.675 28.414,0 34.373,-8.31 34.373,-15.303 0,-3.75 -3.715,-8.278 -5.554,-10.916 41.683,-0.225 53.908,-2.178 71.948,-8.411 2.934,-0.915 4.657,-3.641 4.657,-6.54 0,-6.15 -12.611,-16.33 -21.744,-24.242 58.3,-0.978 101.228,-11.391 101.228,-25.026 0,-2.663 -0.253,-6.02 -15.725,-18.206 32.892,-8.946 90.681,-31.126 90.681,-45.567 0,-5.597 -4.83,-9.027 -10.473,-12.96 51.2,-19.292 94.252,-53.286 94.252,-65.475 0,-9.826 -14.476,-10.66 -21.653,-11.215 25.512,-16.341 61.036,-44.192 61.036,-56.22 0,-12.457 -19.521,-7.55 -28.41,-8.091 z"
     id="path2" />
  <path
     fill="#ffffff"
     d="m 777.778,198.45626 c 40.801,-30.574 79.586,-83.378 79.586,-141.655002 0,-1.225 -1.21,-1.415 -1.717,-0.904 -63.069,86.107002 -120.421,85.260002 -120.421,85.260002 -2.508,0 -3.101,-3.518 -1.109,-4.905 40.72,-23.95 84.395,-73.355002 94.203,-128.1850022 0.134,-0.735 -0.964,-1.625 -1.737,-0.858 C 780.265,53.532258 716.608,99.001258 557.796,99.001258 c -50.859,0 -77.4,-1.125 -111.904,-1.125 -137.712,0 -180.06,91.532002 -185.073,103.648002 a 219.176,219.176 0 0 0 -36.59,-3.082 c -120.017,0 -217.312,97.291 -217.312,217.322 0,120.013 97.295,217.312 217.311,217.312 91.9,0 170.472,-57.046 202.245,-137.649 4.064,0.693 7.986,1.087 11.645,1.087 22.141,0 27.457,-4.942 27.457,-8.376 0,-2.329 -14.16,-17.804 -7.13,-17.804 49.106,0 60.158,-1.833 78.187,-8.063 -8.65,-13.537 -39.979,-31.06 -23.847,-31.06 77.827,0 103.332,-15.025 103.332,-18.208 0,-3.719 -24.816,-21.59 -24.816,-21.59 35.848,-5.91 99.768,-34.5 99.768,-42.183 0,-4.447 -18.233,-11.911 -15.31,-16.126 56.839,-18.905 99.082,-55.636 99.082,-62.309 0,-5.354 -33.318,-4.728 -33.318,-4.728 v -3.54 c 28.812,-14.979 72.701,-51.199 72.701,-59.167 0,-5.076 -41.185,3.43 -36.446,-4.904 z"
     id="path3" />
  <path
     fill="#c8102e"
     d="m 277.582,374.70726 c -7.033,-9.14 -16.355,-16.422 -27.12,-20.978 l -1.748,1.714 3.61,24.826 a 43.653,43.653 0 0 1 3.243,2.835 l 18.187,0.151 c 1.318,-2.83 2.594,-5.68 3.828,-8.548 z m -78.692,-18.895 20.112,14.986 a 46.798,46.798 0 0 1 4.298,-0.288 l 17.89,-17.604 -0.363,-2.41 a 67.32,67.32 0 0 0 -16.598,-2.075 67.104,67.104 0 0 0 -25.318,4.95 z m 43.565,5.791 -9.846,9.663 a 44.798,44.798 0 0 1 11.83,3.982 z m 7.303,91.546 a 45.507,45.507 0 0 1 -11.169,5.551 l 11.06,8.236 0.11,-13.787 z m -89.812,62.077 32.024,-31.506 c -12.52,-5.942 -23.127,-15.265 -30.67,-26.772 l -26.855,36.027 a 118.819,118.819 0 0 0 25.501,22.251 z m 101.672,-124.998 a 44.816,44.816 0 0 1 4.446,8.21 264.08,264.08 0 0 0 4.26,-8.136 z m -60.192,97.228 a 69.025,69.025 0 0 1 -2.336,-0.795 l -32.889,32.347 a 117.675,117.675 0 0 0 41.87,14.068 z m 59.949,-43.847 -1.65,0.246 a 44.41,44.41 0 0 1 -2.829,3.24 l -0.218,25.09 1.96,1.452 a 67.614,67.614 0 0 0 16.16,-13.435 c -6.676,-6.064 -11.457,-11.812 -13.423,-16.593 z m -62.672,-65.233 a 44.65,44.65 0 0 1 11.17,-5.551 l -11.057,-8.25 -0.113,13.8 z m -41.293,71.941 a 98.35,98.35 0 0 1 -1.105,-2.202 l -46.126,-0.39 c 4.056,14.507 10.807,27.879 19.665,39.555 z m 92.162,25.399 -20.101,-14.993 c -1.427,0.161 -2.86,0.255 -4.296,0.281 l -17.895,17.597 0.345,2.42 a 67.18,67.18 0 0 0 16.604,2.072 67.12,67.12 0 0 0 25.319,-4.942 z m -43.555,-5.804 9.833,-9.67 a 45.07,45.07 0 0 1 -11.824,-3.97 z m 50.57,13.776 -0.384,46.12 c 14.497,-4.053 27.866,-10.8 39.548,-19.666 l -36.972,-27.562 c -0.729,0.376 -1.45,0.75 -2.192,1.108 z m -69.749,-42.398 a 44.975,44.975 0 0 1 -5.534,-11.176 l -8.253,11.057 13.787,0.12 z m 6.054,7.127 -25.08,-0.21 -1.456,1.955 c 7.303,12.26 18.384,22.022 31.65,27.626 l 1.742,-1.72 -3.606,-24.815 a 47.831,47.831 0 0 1 -3.25,-2.836 z m -1.316,-63.994 0.204,-25.083 -1.949,-1.463 c -12.267,7.307 -22.019,18.388 -27.637,31.661 l 1.724,1.752 24.823,-3.623 a 45.985,45.985 0 0 1 2.835,-3.244 z m -21.502,13.115 9.668,9.84 a 44.87,44.87 0 0 1 3.982,-11.828 z m -11.112,1.621 a 68.056,68.056 0 0 0 -2.062,16.605 67.023,67.023 0 0 0 4.946,25.315 l 2.434,0.021 14.994,-20.108 a 39.553,39.553 0 0 1 -0.282,-4.296 l -17.607,-17.881 -2.423,0.345 z m 49.897,90.246 6.473,44.445 c 11.309,0.852 22.682,0.08 33.772,-2.294 l 0.377,-44.923 a 75.181,75.181 0 0 1 -25.252,4.355 c -5.266,0 -10.41,-0.542 -15.37,-1.583 z m 81.176,-162.978 c 0,-3.064 -0.067,-6.135 -0.169,-9.227 -0.45,-0.307 -0.897,-0.612 -1.347,-0.905 l -32.027,31.5 a 75.32,75.32 0 0 1 24.463,18.581 c 4.947,-12.938 9.08,-27.489 9.08,-39.95 z m -100.348,22.504 c 0.725,-0.373 1.45,-0.75 2.188,-1.098 l 0.387,-46.123 c -14.497,4.05 -27.869,10.797 -39.555,19.665 z m 49.919,-6.814 -6.48,-44.453 c -2.938,-0.207 -5.9,-0.337 -8.897,-0.337 -8.53,0 -16.858,0.918 -24.879,2.645 l -0.372,44.913 a 75.151,75.151 0 0 1 25.251,-4.351 c 5.273,0 10.413,0.549 15.377,1.583 z m 77.809,146.7 c -13.67,-7.071 -26.553,-15.39 -36.607,-23.493 a 76.472,76.472 0 0 1 -15.388,13.383 l 36.017,26.841 c 5.853,-5.034 11.197,-10.656 15.978,-16.731 z m -35.14,-176.3 a 117.784,117.784 0 0 0 -41.874,-14.078 l 6.642,45.627 c 0.791,0.253 1.569,0.517 2.34,0.788 z m -176.469,103.247 c 0,8.535 0.908,16.854 2.631,24.872 l 44.914,0.373 a 75.24,75.24 0 0 1 -4.345,-25.245 c 0,-5.276 0.541,-10.41 1.572,-15.387 l -44.438,6.487 c -0.224,2.961 -0.336,5.93 -0.334,8.9 z m 1.105,-16.175 45.623,-6.645 c 0.25,-0.792 0.524,-1.552 0.799,-2.336 l -32.344,-32.886 a 117.429,117.429 0 0 0 -14.078,41.867 z m 17.86,-48.111 31.496,32.02 a 75.396,75.396 0 0 1 26.778,-30.666 l -36.02,-26.859 a 118.495,118.495 0 0 0 -22.254,25.505 z m 99.455,88.702 c 13.486,0 24.418,-10.933 24.418,-24.418 0,-13.486 -10.932,-24.418 -24.418,-24.418 -13.486,0 -24.418,10.932 -24.418,24.418 0,13.485 10.932,24.418 24.418,24.418 z"
     id="path4" />
  <path
     fill="#c8102e"
     d="m 224.228,269.25426 c -80.912,0 -146.5,65.595 -146.5,146.51 0,80.912 65.588,146.5 146.5,146.5 49.395,0 93.073,-24.443 119.62,-61.894 -5.566,-1.963 -11.22,-4.278 -16.823,-6.857 -23.538,31.064 -60.817,51.137 -102.797,51.137 -71.185,0 -128.896,-57.708 -128.896,-128.886 0,-71.192 57.711,-128.9 128.896,-128.9 23.781,0 46.064,6.456 65.187,17.692 -0.176,-6.385 -0.208,-12.96 0.296,-19.876 -19.704,-9.868 -41.945,-15.426 -65.483,-15.426 z"
     id="path5" />
  <path
     fill="#c8102e"
     d="m 387.058,506.04826 c -9.462,2.265 -21.67,0.834 -34.78,-2.959 -27.905,40.843 -74.848,67.66 -128.052,67.66 -85.584,0 -154.982,-69.387 -154.982,-154.985 0,-2.747 0.078,-5.467 0.208,-8.172 -4.792,7.272 -3.41,19.271 -11.908,19.271 -6.74,0 -3.004,-9.182 -7.937,-9.182 -3.07,0 -3.5,4.212 -7.317,4.212 -0.447,0 -0.844,-0.159 -1.133,-0.159 -0.82,0 -1.185,1.78 -2.74,1.78 -1.984,0 -3.377,-2.343 -4.953,-2.343 -1.777,0 -2.343,3.392 -4.7,3.392 -2.417,0 -4.757,-4.046 -5.7,-5.896 1.556,109.79 91.023,198.297 201.165,198.297 84.293,0 156.466,-51.833 186.417,-125.364 -22.567,-6.825 -44.132,-18.339 -44.132,-18.339 1.376,13.445 20.544,32.787 20.544,32.787 z M 43.001,338.83526 c 4.647,3.841 0.943,10.56 4.278,15.183 25.522,-73.148 95.106,-125.635 176.95,-125.635 26.747,0 52.181,5.618 75.199,15.714 a 158.957,158.957 0 0 1 5.864,-12.534 c -24.805,-10.933 -52.223,-17.016 -81.063,-17.016 -84.542,0 -156.884,52.153 -186.67,126.026 1.657,1.086 3.482,-3.357 5.442,-1.738 z m 426.919,-206.786 h 110.704 c 141.42,0 203.339,-50.560002 227.729,-95.378002 1.407,-2.695 -0.324,-3.26 -3.012,-0.872 -30.788,27.622 -76.725,75.835002 -264.293,75.835002 h -79.153 c -124.509,0 -171.396,56.142 -183.624,93.587 a 218.976,218.976 0 0 1 18.35,5.58 c 22.134,-39.851 64.32,-78.752 173.299,-78.752 z"
     id="path6" />
  <path
     fill="#c8102e"
     d="m 467.325,160.59626 c -110.783,0 -174.594,76.086 -167.291,148.783 5.442,54.165 -24.868,98.17 -24.868,98.17 0,0 42.278,-19.144 42.278,-96.273 0,-73.106 72.726,-126.314 134.018,-126.314 59.27,0 128.041,0.372 162.14,0.372 180.832,0 224.587,-83.543 230.817,-99.845002 1.098,-2.445 -0.485,-1.95 -1.08,-0.813 -37.754,50.915002 -90.62,79.990002 -234.07,79.990002 -92.149,0 -121.288,-4.07 -141.944,-4.07 z"
     id="path7" />
  <path
     fill="#c8102e"
     d="m 508.628,223.90126 c -29.914,0 -32.918,8.327 -32.918,8.327 -0.946,1.161 -0.464,3.887 -2.56,4.682 -6.833,2.639 -14.396,-3.022 -20.278,4.591 -3.553,4.598 -12.172,-1.073 -17.762,2.174 -1.256,0.735 0.02,3.92 0.992,4.341 2.617,1.15 6.938,0.81 8.563,2.16 1.716,1.407 1.565,3.42 3.159,4.598 1.973,1.446 5.678,2.09 7.328,4.37 1.29,1.755 1.702,5.245 3.574,5.347 44.906,2.55 91.004,2.543 133.617,-13.966 4.826,-7.6 -41.806,-26.624 -83.715,-26.624 z m -176.505,99.026 c 0.591,4.344 -0.542,11.014 0.359,11.102 31.257,3.412 62.985,-2.146 91.909,-15.422 8.049,-3.416 -31.411,-23.961 -64.24,-23.961 -10.667,0 -17.931,4.538 -17.931,4.538 -1.83,1.052 -3.297,5.34 -5.425,8.535 -1.586,2.374 1.45,6.093 0.176,7.623 -2.357,2.84 -5.266,4.58 -4.848,7.584 z m 42.746,-76.086 c -1.512,0.254 -2.649,2.71 -3.77,4.303 -2.836,3.993 -11.821,3.11 -11.747,7.655 0.102,8.288 -9.13,9.804 -10.596,15.774 -1.147,4.679 -3.662,8.214 -4.007,13.248 33.164,0.18 67.28,-1.959 96.68,-18.842 7.686,-3.5 -40.492,-25.905 -66.56,-22.138 z m 105.587,-28.432 c -2.413,-9.62 -14.086,-11.422 -22.043,-16.076 -3.156,-1.85 -6.86,-1.006 -10.505,0.559 -7.898,3.392 -18.054,-2.367 -26.205,3.49 -2.321,1.685 -3.563,4.82 -6.564,5.597 -3.725,0.968 -7.483,1.122 -11.286,1.604 -1.396,0.194 -4.013,1.136 -3.841,2.72 0.76,6.764 -5.534,8.175 -10.526,9.92 -4.882,1.717 -3.148,8.155 -3.3,12.897 32.309,0.411 65.922,-4.141 94.27,-20.711 z m -164.716,159.534 c 8.306,4.32 48.477,-1.484 69.42,-14.5 -21.513,-18.248 -55.942,-24.869 -55.942,-24.869 -4.774,13.027 -9.713,25.99 -13.478,39.37 z"
     id="path8" />
  <path
     fill="#c8102e"
     d="m 309.717,385.54926 c -3.923,2.086 -8.422,8.007 -4.862,10.413 6.374,4.32 16.95,14.001 65.732,14.001 47.502,0 65.574,-14.68 74.562,-23.795 0,-5.882 -41.79,-17.92 -47.4,-14.652 -1.724,0.855 -1.928,2.582 -2.16,3.342 -1.875,0.735 -7.68,0.826 -9.059,1.833 -3.24,2.378 -2.596,6.258 -3.461,6.487 -7.413,1.843 -16.601,-2.825 -23.62,0.372 -1.882,0.87 -1.72,6.107 -4.214,6.298 -5.083,0.383 -10.677,-2.639 -15.518,-1.094 -0.861,0.285 -3.479,0.664 -5.199,1.748 -2.66,-1.365 -4.074,-1.696 -7.55,-2.537 -2.57,-0.63 -5.055,1.137 -8.203,0.602 -2.948,-0.513 -6.259,-4.503 -9.048,-3.018 z m 192.62,-34.296 c 8.773,-4.567 19.33,-5 25.775,-13.713 -39.376,-20.566 -85.358,-18.437 -90.973,-15.187 -1.386,0.81 -3,3.677 -4.76,4.799 -2.702,1.773 -5.21,0.921 -7,2.712 -1.073,1.073 0.105,3.908 -0.652,4.957 -0.988,1.39 -3.169,1.636 -4.53,2.37 -1.383,0.757 -4.303,-0.478 -6.477,0.44 -2.167,0.919 -2.255,2.948 -3.672,3.666 -5.281,2.691 -12.943,-0.429 -16.58,-0.373 -1.876,0.032 -1.39,2.99 -0.785,3.585 2.354,2.332 9.164,3.043 8.904,6.498 -0.06,0.707 -1.692,3.117 -2.723,3.25 3.61,7.708 37.195,17.928 81.373,3.275 7.377,-2.22 15.004,-2.592 22.1,-6.28 z m 50.256,-56.758 c 3.613,-2.42 8.218,-2.448 10.37,-5.868 4.767,-6.188 -41.236,-16.414 -59.902,-16.414 -18.55,0 -52.804,4.654 -58.682,6.719 -2.435,1.013 -2.565,5.98 -5.422,6.332 -5.501,0.676 -10.95,1.344 -16.484,1.808 -1.819,0.148 -1.362,3.064 -0.795,3.511 3.598,2.906 4.71,4.707 6.226,9.157 0.152,0.419 3.888,0.05 4.704,0.746 3.595,3.103 6.163,7.518 10.666,8.612 21.786,5.227 42.844,6.67 65.145,1.488 2.388,-0.549 4.137,-2.491 6.268,-2.751 7.824,-1.013 15.965,-1.485 22.03,-7.261 4.28,-4.084 11.11,-2.867 15.876,-6.079 z m 52.913,-94.186 c 1.28,-0.794 0.239,-4.935 -0.834,-5.093 -4.995,-0.76 -10.406,-2.779 -15.81,2.072 -1.829,1.65 -5.234,-1.9 -7.763,-0.372 -2.048,1.217 -4.067,4.492 -5.97,5.34 -5.182,2.304 -10.21,-3.079 -15.93,-2.41 -1.678,0.186 -1.27,3.919 -2.937,4.31 -4.921,1.164 -9.22,-4.194 -11.996,-2.393 -4.25,2.74 -7.82,6.23 -12.964,3.915 -4.939,-2.244 -11.46,-6.912 -14.838,-3.971 -5.865,5.122 -12.999,-2.3 -18.156,-0.3 -4.37,1.693 -16.12,4.493 -8.105,9.14 24.9,15.074 76.894,12.08 115.303,-10.237 z m -246.817,282.664 c -1.301,-2.36 -4.668,-1.094 -6.986,-2.458 -1.682,-1.02 -2.487,-4.524 -4.134,-5.879 -1.273,-1.048 -4.345,1.33 -5.924,0.408 -2.24,-1.316 -3.95,-4.154 -5.699,-6.11 -1.945,-2.157 -3.732,-4.503 -5.646,-6.663 -1.794,-2.03 -3.711,-3.887 -6.002,-5.242 -1.231,-0.728 -3.623,0.845 -5.111,0.458 -2.635,-0.704 -4.169,-5.284 -6.325,-7.198 -1.238,-1.098 -3.215,-1.249 -4.31,-2.29 -1.122,-1.08 -1.361,-3.064 -2.54,-4.37 -1.558,-1.71 -3.838,-2.318 -5.523,-3.697 -2.283,-1.868 -3.992,-6.6 -5.751,-9.206 -1.756,-2.607 -4.356,-2.896 -6.044,-5.179 -2.115,-2.863 -3.353,-7.672 -5.939,-10.57 -2.589,-2.928 -9.072,1.744 -11.053,5.688 -3.25,6.451 -3.06,14.645 1.896,20.175 24.38,27.235 56.037,49.824 92.268,55.787 -2.702,-3.898 -5.551,-10.695 -7.177,-13.654 z m 80.166,-9.118 c -3.69,-1.027 -6.926,-3.067 -10.307,-4.464 -2.086,-0.858 -4.095,2.378 -6.343,1.041 -4.548,-2.715 -8.46,-6.606 -12.08,-9.498 -2.87,-2.297 -8.626,-8.06 -11.1,-6.899 -0.974,0.433 -2.374,5.787 -4.724,4.025 -5.667,-4.246 -9.347,-8.813 -14.634,-13.445 -2.424,-2.108 -4.732,4.861 -7.806,3.384 -7.071,-3.437 -9.918,-11.1 -15.356,-16.53 -6.347,-6.319 -12.415,-13.64 -21.146,-15.955 -1.45,-0.38 -0.651,1.735 -2.01,2.797 -6.669,5.207 -14.011,-3.687 -20.488,-6.656 -5.941,-2.744 -11.169,-7.099 -17.853,-7.553 -1.418,-0.105 -1.354,2.034 -0.816,2.67 38.078,45.044 90.913,78.837 148.945,77.475 1.347,-0.031 4.094,0.12 1.836,-2.677 -1.805,-2.216 -3.83,-7.078 -6.118,-7.715 z m 53.898,-32.811 c -1.695,-0.25 -4.327,2.04 -5.797,1.762 -4.5,-0.844 -8.06,-4.886 -13.52,-7.77 -2.251,-1.186 -3.423,4.136 -5.188,4.024 -9.052,-0.517 -22.132,-10.114 -30.212,-14.955 -1.432,-0.865 -10.068,0.858 -11.5,1.147 -5.196,1.045 -11.806,-8.052 -15.89,-9.97 -3.096,-1.442 -7.406,-2.969 -10.343,-0.77 -3.986,2.965 -8.721,1.375 -13.087,1.316 -1.692,-0.036 -3.187,3.567 -5.287,4.228 -5.953,1.91 -12.542,-2.23 -18.385,0.686 -0.169,0.08 -0.967,1.302 -0.922,1.724 0.401,3.662 4.493,4.278 7.191,5.924 41.845,26.543 106.466,35.137 142.472,27.084 0.816,-0.253 -0.457,-3.331 -2.885,-5.185 -2.511,-1.928 -6.213,-2.653 -7.775,-3.747 -3.634,-2.547 -5.572,-5.002 -8.872,-5.498 z m 84.236,-38.627 c -4.429,1.312 -7.855,-1.935 -11.535,-0.53 -0.844,0.33 -1.421,1.723 -2.125,1.73 -6.937,0.137 -11.56,-7.328 -18.623,-6.765 -1.748,0.137 -1.714,3.23 -3.202,3.581 -4.351,1.02 -8.21,-4.246 -12.133,-2.357 -2.797,1.368 -4.767,1.266 -7.447,0.479 -3.476,-1.02 -6.058,-4.11 -9.414,-4.64 -2.966,-0.465 -5.882,2.476 -9.228,1.502 -8.323,-2.424 -14.778,-10.336 -23.714,-8.44 -4.411,0.932 -8.204,-2.086 -11.25,-0.26 -3.342,1.98 -4.292,4.39 -7.68,6.403 -2.293,1.393 -7.665,1.217 -10.068,2.673 -1.819,1.115 -2.283,3.922 -4.365,4.784 -3.909,1.615 -8.535,0.468 -12.197,2.54 -0.43,0.24 -0.672,2.284 0.897,2.723 34.12,11.564 89.344,24.288 155.308,7.17 2.034,-0.62 2.456,-1.837 0.802,-3.747 -3.623,-4.19 -8.6,-8.46 -14.026,-6.846 z m 78.942,-57.813 c -5.829,2.712 -12.58,-0.3 -19.042,1.235 -1.689,0.4 -0.394,2.807 -2.083,3.043 -6.335,0.897 -12.907,-0.722 -18.845,1.597 -4.644,1.804 -10.216,-0.246 -15.328,-0.116 -1.945,0.052 -1.99,2.66 -2.29,4.773 -0.274,1.791 -2.98,2.864 -3.778,2.628 -6.332,-1.882 -12.4,-2.564 -18.82,-3.507 -16.123,-2.381 -32.084,-7.507 -47.243,-2.98 -4.946,1.485 -11.503,2.723 -15.292,6.572 -1.456,1.491 -3.008,4.432 -4.946,5.14 -9.277,3.373 -19.38,4 -28.625,7.292 -2.794,0.985 -8.116,4.904 -6.125,5.418 0,0 28.523,8.28 59.643,8.28 59.892,0 105.55,-14.736 138.95,-32.958 -1.918,-2.42 -11.76,-8.471 -16.176,-6.417 z m 65.722,-65.595 c -3.673,1.21 -8.686,-2.258 -11.827,0.06 -4.69,3.458 -10.199,2.832 -15.015,2.336 -2.297,-0.243 -5.9,-1.052 -7.933,0.538 -1.315,1.034 0.574,2.691 1.805,3.803 -12.122,4.172 -25.494,0.242 -36.99,4.91 -0.862,0.35 -1.38,4.57 -3.504,4.993 -10.554,2.132 -20.429,-2.012 -30.895,-0.095 -2.66,0.492 -1.48,6.124 -4.263,6.258 -9.397,0.46 -18.55,-0.33 -27.936,-0.721 -11.166,-0.465 -21.452,3.585 -31.988,6.814 -3.135,0.943 -4.074,5.924 -7.448,6.434 -9.108,1.39 -18.377,-0.204 -26.683,3.898 -0.56,0.274 -0.598,3.068 0.014,3.398 10.18,5.752 21.846,9.724 28.804,19.025 70.84,-0.745 147.066,-10.005 206.048,-58.365 1.164,-0.943 -5.822,-2.4 -9.583,-3.272 -3.666,-0.851 -6.684,-0.851 -11.13,-2.304 -3.955,-1.305 -7.607,1.024 -11.476,2.29 z m 73.552,-66.625 c -0.72,-0.433 -11.44,-2.364 -17.368,-0.971 -1.27,0.299 -2.019,2.367 -3.208,2.56 -7.655,1.228 -13.048,4.884 -20.823,5.123 -1.625,0.038 -5.122,1.196 -7.215,2.191 -2.821,1.362 -6.687,-1.948 -8.89,0.521 -1.42,1.594 1.056,5.421 -1.523,6.638 -6.772,3.188 -14.687,-2.532 -21.318,1.791 -1.931,1.249 2.04,5.477 -0.45,6.265 -9.534,2.98 -26.019,-11.82 -32.26,3.546 -0.97,2.414 -3.957,1.323 -5.822,0.838 -1.805,-0.468 -4.355,-1.302 -5.428,-0.409 -5.84,4.753 -9.273,6.65 -17.487,4.345 -2.076,-0.598 -2.114,5.58 -6.15,4.598 -4.615,-1.111 -9.051,-4.44 -13.27,-2.554 -1.962,0.876 -0.516,6.008 -3.373,6.287 -11.482,1.094 -23.316,-0.56 -33.895,4.14 -2.61,1.165 -2.853,5.857 -6.508,6.46 -8.05,1.332 -16.08,0.393 -23.602,2.834 -1.22,0.391 -0.935,3.976 0.926,4.247 4.823,0.717 10.303,-0.032 14.004,2.174 4.542,2.712 7.42,10.356 11.887,10.536 90.973,1.759 156.692,-30.842 201.773,-68.441 1.784,-1.548 0.859,-2.191 0,-2.719 z m -22.3,-53.364 c -1.365,0.62 -0.932,5.123 -3.532,6.33 -4.478,2.06 -9.572,2 -14.357,3.454 -1.811,0.562 -1.71,2.969 -3.222,3.912 -2.543,1.621 -5.987,0.274 -7.845,1.646 -11.492,8.422 -25.153,4.644 -37.916,6.754 0.201,9.618 -14.982,3.744 -21.205,7.93 -6.797,4.555 -5.893,3.31 -16.007,3.405 -3.142,0.035 -1.446,4.672 -3.975,4.725 -8.063,0.144 -18.483,-2.414 -24.495,-0.665 -1.08,0.313 -1.432,5.396 -3.571,5.97 -4.387,1.175 -8.992,1.65 -13.196,2.98 -3.254,1.03 1,7.18 -3.36,8.562 -7.405,2.343 -15.56,0.633 -23.028,4.865 -2.93,1.675 -7.229,0.095 -11.035,0.795 -3.237,0.58 -4.475,3.98 -1.83,5.474 2.393,1.348 6.389,0.996 8.746,2.16 5.47,2.698 10.008,6.603 15.887,6.973 96.105,5.913 220.414,-62.4 239.995,-145.145002 0.682,-3.33 -0.845,-2.716 -1.524,-0.86 -20.85,49.649002 -74.53,70.735002 -74.53,70.735002 z"
     id="path9" />
</svg>
