<?xml version="1.0" encoding="UTF-8" standalone="no"?>
<svg
   fill="none"
   viewBox="0 0 640 640"
   version="1.1"
   id="svg8"
   sodipodi:docname="EDM_dark.svg"
   width="640"
   height="640"
   inkscape:version="1.4 (86a8ad7, 2024-10-11)"
   xmlns:inkscape="http://www.inkscape.org/namespaces/inkscape"
   xmlns:sodipodi="http://sodipodi.sourceforge.net/DTD/sodipodi-0.dtd"
   xmlns="http://www.w3.org/2000/svg"
   xmlns:svg="http://www.w3.org/2000/svg">
  <defs
     id="defs8" />
  <sodipodi:namedview
     id="namedview8"
     pagecolor="#ffffff"
     bordercolor="#000000"
     borderopacity="0.25"
     inkscape:showpageshadow="2"
     inkscape:pageopacity="0.0"
     inkscape:pagecheckerboard="0"
     inkscape:deskcolor="#d1d1d1"
     inkscape:zoom="1.8359375"
     inkscape:cx="319.72766"
     inkscape:cy="320"
     inkscape:window-width="3440"
     inkscape:window-height="1377"
     inkscape:window-x="-8"
     inkscape:window-y="-8"
     inkscape:window-maximized="1"
     inkscape:current-layer="svg8" />
  <path
     fill="#ffffff"
     d="m 554.97,558.035 c -8.282,0 -15.005,6.714 -15.005,15.001 0,8.278 6.723,15.001 15.005,15.001 8.282,0 14.995,-6.723 14.995,-15 0,-8.288 -6.713,-15.002 -14.995,-15.002 z m 0,26.784 a 11.773,11.773 0 0 1 -11.782,-11.783 c 0,-6.51 5.264,-11.774 11.782,-11.774 6.51,0 11.78,5.264 11.78,11.774 0,6.512 -5.27,11.783 -11.78,11.783 z m 6.164,-15.26 a 5.097,5.097 0 0 0 -1.492,-3.595 5.09,5.09 0 0 0 -3.598,-1.487 h -7.228 V 581.6 h 3.213 v -6.954 h 2.305 l 3.247,6.954 h 3.553 l -3.39,-7.252 a 5.1,5.1 0 0 0 3.39,-4.789 z m -5.09,1.872 h -4.015 v -3.747 h 4.014 a 1.88,1.88 0 0 1 1.878,1.876 1.88,1.88 0 0 1 -1.878,1.871 z"
     id="path1" />
  <path
     fill="#ffffff"
     d="M 320,640 C 496.734,640 640,496.737 640,320 640,143.283 496.734,0 320,0 143.267,0 0,143.282 0,320 0,496.737 143.268,640 320,640 Z"
     id="path2" />
  <path
     fill="#00205b"
     d="m 337.813,15.348 c 36.537,57.257 53.004,78.363 53.004,110.415 0,38.477 -32.335,69.672 -70.816,69.672 -38.49,0 -70.817,-31.195 -70.817,-69.672 0,-32.052 16.466,-53.158 53.001,-110.415 C 141.927,24.568 14.811,157.43 14.811,320 c 0,168.56 136.636,305.208 305.19,305.208 168.555,0 305.19,-136.648 305.19,-305.208 0,-162.57 -127.116,-295.432 -287.378,-304.652 z M 320.001,597.412 C 166.791,597.412 42.598,473.202 42.598,320 c 0,-128.525 87.425,-236.631 206.047,-268.126 -6.302,7.84 -27.248,36.694 -27.248,73.888 0,53.74 44.233,97.46 98.604,97.46 54.375,0 98.603,-43.72 98.603,-97.46 0,-37.194 -20.955,-66.047 -27.248,-73.888 118.628,31.496 206.05,139.601 206.05,268.126 0,153.202 -124.203,277.412 -277.405,277.412 z"
     id="path3" />
  <path
     fill="#00205b"
     d="m 377.744,353.266 h -19.912 v 31.789 c 0,6.371 -5.166,11.544 -11.542,11.544 -6.358,0 -11.532,-5.173 -11.532,-11.544 V 344.54 h 23.074 V 314.515 H 334.758 V 291.13 c 0,-6.371 5.174,-11.537 11.532,-11.537 6.376,0 11.542,5.166 11.542,11.537 v 14.566 h 19.912 v -67.317 h -84.142 v 41.214 c 8.142,0 14.748,6.59 14.748,14.75 v 93.814 a 8.44,8.44 0 0 1 -8.442,8.443 v 170 c 0,12.145 -6.35,17.682 -9.385,19.644 9.78,1.2 19.624,1.799 29.477,1.794 12.192,0 24.167,-0.92 35.851,-2.67 0,0 21.892,-4.344 21.892,-23.648 V 353.266 Z"
     id="path4" />
  <path
     fill="#00205b"
     d="m 293.603,353.266 h -19.907 v 34.92 c 0,4.646 -3.765,8.413 -8.409,8.413 -4.644,0 -8.414,-3.767 -8.414,-8.412 V 288.04 a 8.44,8.44 0 0 1 8.445,-8.448 v -41.214 h -43.292 v 41.214 c 4.657,0 8.436,3.777 8.436,8.448 v 100.116 c 0,4.659 -3.78,8.443 -8.436,8.443 v 148.073 c 0,12.366 -6.769,16.423 -9.983,17.656 19.098,9.73 39.8,16.96 61.62,21.233 0,0 19.94,3.037 19.94,-16.963 z"
     id="path5" />
  <path
     fill="#00205b"
     d="M 215.719,544.672 V 396.6 c -4.661,0 -8.44,-3.784 -8.44,-8.446 V 288.04 a 8.453,8.453 0 0 1 2.47,-5.972 8.435,8.435 0 0 1 5.97,-2.474 v -41.218 h -43.29 v 41.218 c 4.656,0 8.438,3.775 8.438,8.446 v 100.113 c 0,4.662 -3.782,8.446 -8.438,8.446 v 100.867 c 0,21.058 -10.807,24.392 -16.447,24.686 a 229.931,229.931 0 0 0 44.746,34.01 c 0,0 14.992,5.67 14.992,-11.49 M 549.869,305.695 v -45.351 c 0,-12.078 -9.878,-21.963 -21.958,-21.963 h -25.915 c -12.078,0 -21.96,9.885 -21.96,21.963 v 60.572 c 0,3.227 1.96,7.627 4.369,9.762 l 34.692,31.026 c 2.404,2.155 4.37,6.56 4.37,9.77 v 13.371 c 0,6.494 -5.274,11.754 -11.765,11.754 -6.493,0 -11.753,-5.26 -11.753,-11.754 V 353.27 h -19.914 v 172.677 c 43.056,-39.966 69.834,-95.891 69.834,-157.82 v -8.923 c 0,-3.22 -1.958,-7.604 -4.353,-9.758 l -34.7,-31.023 c -2.413,-2.163 -4.376,-6.546 -4.376,-9.774 v -20.556 c 0,-4.687 3.82,-8.498 8.52,-8.498 4.693,0 8.507,3.81 8.507,8.498 v 17.603 h 26.402 z"
     id="path6" />
  <path
     fill="#00205b"
     d="M 166.12,497.466 V 260.347 c 0,-12.086 -9.877,-21.97 -21.956,-21.97 h -32.075 c -12.08,0 -21.966,9.884 -21.966,21.97 v 107.779 c 0,53.99 20.348,103.412 54.081,141.665 6.596,8.601 21.916,11.06 21.916,-12.325 z M 139.716,385.011 c 0,6.395 -5.188,11.584 -11.586,11.584 -6.406,0 -11.591,-5.189 -11.591,-11.584 v -93.83 c 0,-6.413 5.185,-11.586 11.59,-11.586 a 11.583,11.583 0 0 1 8.196,3.391 11.584,11.584 0 0 1 3.391,8.196 z m 325.58,3.142 v -49.115 c 0,-8.412 -9.436,-12.265 -9.436,-12.265 0,0 9.436,-3.855 9.436,-12.257 v -54.172 c 0,-12.081 -9.887,-21.963 -21.96,-21.963 h -59.29 l -0.008,41.213 a 8.436,8.436 0 0 1 7.805,5.213 8.44,8.44 0 0 1 0.641,3.233 v 100.113 a 8.432,8.432 0 0 1 -5.213,7.804 8.46,8.46 0 0 1 -3.233,0.642 v 165.12 c 0,8.558 -3.446,15.018 -8.1,19.727 15.564,-3.733 30.503,-8.905 44.645,-15.49 0,0 10.156,-4.932 10.156,-23.415 V 396.599 c -6.546,0 -11.84,-5.308 -11.84,-11.842 v -36.643 c 0,-5.022 4.054,-9.076 9.063,-9.076 a 9.068,9.068 0 0 1 8.391,5.6 9.05,9.05 0 0 1 0.688,3.476 v 196.332 c 0,5.554 -0.763,10.203 -1.936,14.115 a 232.233,232.233 0 0 0 33.186,-22.415 c 0,0 5.45,-4.514 5.45,-25.98 V 396.599 a 8.437,8.437 0 0 1 -5.972,-2.474 8.453,8.453 0 0 1 -2.473,-5.972 z m -26.415,-83.637 c 0,5.52 -4.47,10 -9.992,10 -5.52,0 -9.99,-4.48 -9.99,-10 v -14.93 a 9.984,9.984 0 0 1 9.99,-9.992 9.975,9.975 0 0 1 7.067,2.925 9.983,9.983 0 0 1 2.925,7.066 z"
     id="path7" />
  <path
     fill="#d14520"
     d="m 371.599,126.773 c 0,-36.146 -31.355,-55.454 -51.598,-105.928 -20.245,50.474 -51.601,69.78 -51.601,105.927 0,24.703 20.402,48.759 51.6,48.759 31.209,0 51.599,-24.055 51.599,-48.758 z"
     id="path8" />
</svg>
