<?xml version="1.0" encoding="UTF-8" standalone="no"?>
<svg
   fill="none"
   viewBox="0 0 572.39398 640"
   version="1.1"
   id="svg8"
   sodipodi:docname="FLA_dark.svg"
   width="572.39398"
   height="640"
   inkscape:version="1.4 (86a8ad7, 2024-10-11)"
   xmlns:inkscape="http://www.inkscape.org/namespaces/inkscape"
   xmlns:sodipodi="http://sodipodi.sourceforge.net/DTD/sodipodi-0.dtd"
   xmlns="http://www.w3.org/2000/svg"
   xmlns:svg="http://www.w3.org/2000/svg">
  <defs
     id="defs8" />
  <sodipodi:namedview
     id="namedview8"
     pagecolor="#ffffff"
     bordercolor="#000000"
     borderopacity="0.25"
     inkscape:showpageshadow="2"
     inkscape:pageopacity="0.0"
     inkscape:pagecheckerboard="0"
     inkscape:deskcolor="#d1d1d1"
     inkscape:zoom="1.8359375"
     inkscape:cx="285.95745"
     inkscape:cy="320"
     inkscape:window-width="3440"
     inkscape:window-height="1377"
     inkscape:window-x="-8"
     inkscape:window-y="-8"
     inkscape:window-maximized="1"
     inkscape:current-layer="svg8" />
  <path
     fill="#ffffff"
     d="m 363.551,613.388 v 11.824 h -2.957 v -11.824 h -3.423 v -2.937 h 9.802 v 2.937 z m 16.023,11.824 V 616.5 l -2.49,5.428 h -2.612 l -2.49,-5.428 v 8.713 h -2.956 V 610.45 h 2.956 l 3.796,7.883 3.796,-7.883 h 2.956 v 14.761 z M 568.049,64.23 C 487.331,22.21 389.867,0 286.194,0 182.507,0 85.046,22.212 4.345,64.234 L 0,66.494 V 189.437 C 0,222.163 4.672,308.4 47.943,402.161 96.49,507.355 166.631,577.91 282.474,638.069 l 3.72,1.931 3.722,-1.931 C 405.766,577.899 475.906,507.343 524.45,402.161 567.722,308.4 572.394,222.163 572.394,189.436 V 66.492 Z"
     id="path1" />
  <path
     fill="#041e42"
     d="m 8.074,71.394 v 118.044 c 0,32.193 4.601,117.037 47.2,209.341 51.96,112.583 128.4,178.885 230.923,232.126 101.68,-52.812 178.633,-118.825 230.924,-232.126 42.6,-92.304 47.2,-177.148 47.2,-209.341 V 71.392 C 478.333,26.627 380.012,8.074 286.197,8.074 193.252,8.074 94.621,26.329 8.074,71.394 Z"
     id="path2" />
  <path
     fill="#b9975b"
     d="m 23.168,80.552 v 108.886 c 0,31.195 4.463,113.427 45.81,203.015 48.312,104.68 121.583,171.774 217.219,221.445 96.02,-49.871 169.074,-117.129 217.219,-221.445 41.345,-89.588 45.809,-171.82 45.809,-203.015 V 80.552 C 473.069,40.904 373.395,23.166 286.197,23.166 c -87.501,0 -187.022,17.81 -263.028,57.386 z"
     id="path3" />
  <path
     fill="#041e42"
     d="m 399.554,301.246 c 12.422,-6.988 29.116,-22.518 29.116,-22.518 8.93,-26.398 16.644,-61.79 16.644,-61.79 0,-3.494 -4.221,-9.173 -4.221,-9.173 -4.223,-2.182 -13.976,-3.638 -13.976,-3.638 -14.414,2.329 -33.193,16.45 -48.143,28.178 7.766,0 21.356,-2.509 21.356,-2.509 -2.719,6.988 -12.425,25.236 -12.425,25.236 6.212,0.387 18.248,-2.33 18.248,-2.33 -4.659,14.364 -13.587,31.85 -13.587,31.85 z M 295.703,252.12 a 272.451,272.451 0 0 0 -5.868,-2.408 416.951,416.951 0 0 0 -10.728,-4.095 c 0,0 -1.183,0.008 -3.514,0.273 -0.583,0.067 -1.239,0.15 -1.966,0.252 -1.748,0.25 -3.49,0.547 -5.223,0.89 -9.12,1.792 -24.003,5.85 -44.41,15.039 h -0.001 l -1.752,-3.602 -2.337,-4.801 -23.393,32.195 h 0.002 c 7.947,1.486 16.176,1.97 23.738,1.934 16.634,-0.081 30.03,-2.68 30.03,-2.68 8.706,-7.338 16.421,-15.297 21.702,-21.08 a 267.327,267.327 0 0 0 4.414,-4.954 c 1.554,-1.787 2.531,-2.962 2.805,-3.276 5.437,-1.553 9.709,-2.329 16.501,-3.686 z m 35.729,21.247 c -13.198,-10.482 -21.751,-13.326 -21.751,-13.326 0,0 0.791,15.006 -0.373,19.762 -12.828,17.603 -28.127,34.106 -28.127,34.106 l 45.884,-21.034 c 2.657,-9.792 4.367,-19.508 4.367,-19.508 z"
     id="path4" />
  <path
     fill="#041e42"
     d="m 286.195,158.859 c -142.146,0 -236.482,46.048 -244.068,49.87 4.502,88.71 41.247,248.929 192.766,353.565 20.276,-10.855 33.791,-29.113 41.825,-43.34 15.975,19.314 17.627,46.265 17.628,46.28 -1.165,13.201 -8.151,27.877 -8.151,27.877 h 0.001 a 483.21,483.21 0 0 0 38.578,-22.334 c 20.253,-13.024 38.58,-27.021 55.157,-41.72 l 0.001,0.002 c 0.476,-0.422 0.95,-0.846 1.426,-1.27 53.435,-55.284 54.963,-138.138 54.963,-138.138 -11.647,-48.334 -32.107,-65.112 -32.107,-65.112 4.076,22.112 6.599,46.377 6.599,46.377 -13.005,28.727 -36.298,47.945 -36.298,47.945 -20.964,2.33 -37.584,0.24 -66.677,-9.609 -25.236,-8.542 -43.966,-21.837 -43.966,-21.837 0,0 -9.608,-0.583 -20.673,0.582 -9.364,0.985 -20.673,3.494 -20.673,3.494 12.52,-22.129 19.946,-44.611 21.298,-54.837 -8.522,-9.017 -17.738,-17.596 -27.16,-24.376 -20.734,0.966 -37.23,2.166 -37.23,2.166 l 6.988,-28.339 c 0,0 -4.769,3.971 -10.098,9.301 -5.721,5.721 -12.031,12.828 -12.031,12.828 -12.425,5.045 -29.895,7.763 -29.895,7.763 -8.928,-2.328 -17.47,-8.152 -17.47,-8.152 20.965,-31.057 55.129,-43.482 55.129,-43.482 -6.213,-7.374 -5.824,-13.198 -5.824,-13.198 8.71,-5.758 16.667,-10.5 23.699,-14.379 -1.722,4.552 -1.96,7.764 -1.96,7.764 0,0 11.955,-9.64 19.234,-14.008 a 377.346,377.346 0 0 1 16.096,-9.076 c 5.273,-16.99 14.313,-30.767 16.643,-32.724 0,0 4.763,-0.762 7.233,-0.468 0.463,5.558 6.81,14.416 9.391,17.812 -13.186,4.307 -24.606,12.888 -24.606,12.888 0,0 28.972,-7.729 54.617,-8.588 34.745,-1.165 56.158,6.671 56.158,6.671 -5.22,7.535 -12.287,15.474 -12.287,15.474 57.474,-19.483 63.475,-34.374 94.629,-41.07 11.356,1.843 21.642,5.531 21.642,5.531 7.377,7.764 9.124,15.723 9.124,15.723 -4.27,33.193 -17.664,70.479 -17.664,70.479 -10.482,12.81 -28.534,24.457 -28.534,24.457 18.052,-2.328 44.84,-10.498 44.84,-10.498 16.654,12.154 38.52,38.571 47.592,49.944 18.887,-52.385 26.315,-101.538 28.186,-138.368 -7.585,-3.822 -101.92,-49.87 -244.07,-49.87 z"
     id="path5" />
  <path
     fill="#ffffff"
     d="m 126.634,381.996 c 0,0 7.565,-11.966 13.323,-17.458 l -8.085,-22.74 c -3.035,-2.839 -5.709,-5.657 -8.15,-8.832 a 108.208,108.208 0 0 1 -5.786,-8.325 l -7.997,20.861 c 0,0 7.377,20.575 16.695,36.494 z m 10.87,12.018 c 0,0 4.659,16.113 18.635,27.177 0,0 20.964,-8.735 51.245,-11.633 0,0 -38.823,-15.916 -64.056,-33.775 0,0 -5.435,6.974 -5.824,18.231 z M 250.283,285.117 c 0,0 -13.397,2.6 -30.032,2.68 -7.562,0.035 -15.791,-0.448 -23.738,-1.934 l 17.082,7.99 c 12.33,0.582 26.788,0.389 41.637,-3.105 7.086,-6.6 18.15,-18.635 23.974,-28.728 0,0 0.193,-2.718 -0.003,-6.213 -0.275,0.315 -1.252,1.489 -2.806,3.276 a 269.035,269.035 0 0 1 -4.415,4.954 c -5.28,5.784 -12.994,13.742 -21.7,21.08 z m -49.111,101.537 c 0,0 1.395,-2.196 3.282,-5.854 -7.4,-6.864 -15.511,-11.907 -15.511,-11.907 8.944,-0.249 16.594,1.07 20.079,1.8 0.56,-1.43 1.106,-2.932 1.635,-4.488 -8.808,-7.027 -19.45,-12.014 -19.45,-12.014 9.757,-1.43 19.31,-0.718 22.669,-0.385 0.24,-1.372 0.43,-2.762 0.587,-4.162 -10.513,-7.19 -25.811,-11.42 -25.811,-11.42 6.883,-2.237 13.237,-3.25 17.3,-3.707 l -7.694,-9.024 c 0,0 -8.637,-0.388 -17.955,0.34 -12.014,0.807 -23.032,2.379 -23.032,2.379 -1.831,1.376 -4.617,3.59 -6.667,5.192 -3.732,3.342 -5.075,5.183 -7.472,8.202 l 0.375,22.182 c 7.142,3.33 35.156,16.146 57.665,22.866 z m 118.795,63.653 c 0,0 4.077,9.608 6.697,23.293 2.245,11.728 1.165,18.926 1.165,18.926 -37.27,-42.704 -91.328,-68.99 -91.328,-68.99 0,0 74.926,61.726 57.844,141.698 -1.165,13.201 -8.151,27.877 -8.151,27.877 h 10e-4 a 483.21,483.21 0 0 0 38.578,-22.334 c 20.253,-13.024 38.58,-27.021 55.157,-41.72 -21.015,-47.105 -59.963,-78.75 -59.963,-78.75 z M 223.993,262.07 c 20.408,-9.189 35.292,-13.246 44.411,-15.038 a 99.354,99.354 0 0 1 5.223,-0.89 c 0.654,-0.093 1.31,-0.176 1.966,-0.251 2.333,-0.267 3.511,-0.274 3.511,-0.274 h 0.004 c -27.092,-4.78 -59.205,8.05 -59.205,8.05 l 2.338,4.803 z"
     id="path6" />
  <path
     fill="#c8102e"
     d="m 234.368,275.235 c -3.982,1.62 -9.37,-0.502 -11.26,-2.54 -1.456,2.474 -3.106,5.258 -3.106,5.258 0,0 11.26,5.241 24.459,-1.165 8.124,-3.943 10.095,-11.064 10.095,-11.064 -4.97,0.382 -9.837,1.006 -14.211,1.84 -0.518,1.954 -2.046,6.068 -5.978,7.67 z M 41.618,188.907 c 73.227,-33.32 163.97,-48.497 244.58,-48.497 80.342,0 171.207,15.13 244.579,48.511 V 91.747 c 0,0 -96.279,-50.132 -244.58,-50.132 -148.301,0 -244.58,50.132 -244.58,50.132 z"
     id="path7" />
  <path
     fill="#ffffff"
     d="m 173.072,120.352 a 622.916,622.916 0 0 0 -20.827,4.253 V 73.949 c -4.253,0.946 -8.5,1.939 -12.739,2.973 v 63.46 a 617.929,617.929 0 0 1 33.566,-7.226 z M 286.657,97.377 c 1.025,0 2.047,0.003 3.072,0.01 3.438,8.463 6.874,16.955 10.312,25.473 4.601,0.105 9.2,0.26 13.8,0.464 -3.434,-8.595 -6.873,-17.165 -10.308,-25.704 1.42,0.04 2.841,0.084 4.262,0.135 A 5505.06,5505.06 0 0 1 313.84,87.029 V 70.817 a 4591.99,4591.99 0 0 0 -6.035,-11.188 617.821,617.821 0 0 0 -34.146,-0.252 c 0,21.153 0,42.305 -0.002,63.456 4.333,-0.088 8.666,-0.13 13,-0.126 z m 0,-25.326 c 4.73,0.005 9.462,0.063 14.193,0.174 V 84.75 A 621.894,621.894 0 0 0 286.657,84.575 Z M 89.475,129.555 a 613.464,613.464 0 0 1 14.558,-4.693 V 112.057 A 618.09,618.09 0 0 0 89.475,116.75 V 104.226 A 621.951,621.951 0 0 1 109.873,97.76 V 84.958 A 618.071,618.071 0 0 0 77.027,95.754 c 0,21.153 0,42.306 -0.002,63.459 a 600.522,600.522 0 0 1 12.45,-4.333 z m 379.771,-4.417 c 4.574,1.42 9.13,2.892 13.67,4.417 v 25.325 c 4.16,1.4 8.312,2.844 12.448,4.333 V 106.718 A 5105.888,5105.888 0 0 0 489.581,93.704 617.326,617.326 0 0 0 462.523,84.96 c -1.95,3.07 -3.904,6.15 -5.858,9.24 v 52.504 a 624.302,624.302 0 0 1 12.581,3.756 z m 0,-25.326 a 605.56,605.56 0 0 1 13.67,4.419 v 12.522 c -4.544,-1.526 -9.1,-3 -13.67,-4.416 z m -232.04,24.84 a 4815.35,4815.35 0 0 1 6.035,-11.411 V 71.709 c -2.008,-3.506 -4.02,-7.01 -6.036,-10.512 -9.348,0.742 -18.677,1.7 -27.981,2.87 -2.007,3.91 -4.009,7.822 -6.006,11.737 v 41.548 c 2,3.38 4.002,6.77 6.006,10.17 a 617.457,617.457 0 0 1 27.981,-2.87 z M 216.139,76.043 c 4.708,-0.537 9.42,-1.02 14.137,-1.45 v 37.844 c -4.718,0.428 -9.43,0.91 -14.137,1.449 z M 357.17,63.34 c -4.31,-0.499 -8.625,-0.952 -12.944,-1.361 v 63.46 c 4.319,0.408 8.633,0.86 12.944,1.358 z m 69.803,64.664 V 86.472 a 4980.35,4980.35 0 0 0 -5.932,-12.32 619.428,619.428 0 0 0 -33.655,-6.557 v 63.458 a 617.409,617.409 0 0 1 33.655,6.555 c 1.98,-3.21 3.957,-6.412 5.932,-9.604 z m -12.76,-4.69 A 604.21,604.21 0 0 0 400.23,120.52 V 82.675 c 4.668,0.878 9.33,1.81 13.983,2.795 z"
     id="path8" />
</svg>
