<?xml version="1.0" encoding="UTF-8" standalone="no"?>
<svg
   viewBox="0 0 960 612.40399"
   version="1.1"
   id="svg14"
   sodipodi:docname="LAK_light.svg"
   width="960"
   height="612.40399"
   inkscape:version="1.4 (86a8ad7, 2024-10-11)"
   xmlns:inkscape="http://www.inkscape.org/namespaces/inkscape"
   xmlns:sodipodi="http://sodipodi.sourceforge.net/DTD/sodipodi-0.dtd"
   xmlns="http://www.w3.org/2000/svg"
   xmlns:svg="http://www.w3.org/2000/svg">
  <defs
     id="defs14" />
  <sodipodi:namedview
     id="namedview14"
     pagecolor="#ffffff"
     bordercolor="#000000"
     borderopacity="0.25"
     inkscape:showpageshadow="2"
     inkscape:pageopacity="0.0"
     inkscape:pagecheckerboard="0"
     inkscape:deskcolor="#d1d1d1"
     inkscape:zoom="1.8359375"
     inkscape:cx="479.86383"
     inkscape:cy="306.38298"
     inkscape:window-width="3440"
     inkscape:window-height="1377"
     inkscape:window-x="-8"
     inkscape:window-y="-8"
     inkscape:window-maximized="1"
     inkscape:current-layer="svg14" />
  <path
     d="m 698.603,427.611 v 53.452 c 0,18.829 -3.325,24.543 -20.498,33.064 L 479.988,612.404 281.88,514.127 c -17.173,-8.513 -20.499,-14.235 -20.499,-33.064 V 427.612 H 0 L 114.4,87.546 H 261.39 V 0 H 698.61 V 87.545 H 960 L 845.6,427.611 H 698.604 Z"
     fill="#010101"
     id="path1" />
  <path
     d="m 479.994,588.751 184.4,-90.746 c 10.933,-5.382 13.338,-10.168 13.338,-21.426 V 406.734 H 830.607 L 930.956,108.43 H 677.732 V 20.885 H 282.257 V 108.43 H 129.382 L 29.032,406.734 h 253.225 v 69.845 c 0,11.258 2.405,16.053 13.338,21.426 z"
     fill="#ffffff"
     id="path2" />
  <path
     d="m 479.994,573.108 172.283,-84.784 c 9.193,-4.523 11.413,-8.544 11.413,-18.348 V 392.699 H 820.655 L 911.562,122.464 H 663.69 V 34.919 H 296.298 v 87.545 H 139.333 L 48.425,392.699 h 247.873 v 77.277 c 0,9.803 2.211,13.817 11.413,18.348 z"
     fill="#a2aaad"
     id="path3" />
  <path
     d="m 485.803,392.012 c 1.4,0 1.871,0.788 1.871,1.77 v 2.35 h 1.4 c 1.794,0 2.42,1.23 2.42,2.8 v 10.755 c 3.619,-2.134 7.268,-0.556 8.575,0.603 3.179,-1.994 7.787,-1.245 10.269,1.462 3.495,-1.438 8.211,-0.572 10.918,3.062 3.641,-1.021 8.413,0.394 10.903,4.693 5.273,-0.835 9.742,2.528 11.119,6.727 6.054,-0.379 10.81,4.206 11.466,9.38 a 11.624,11.624 0 0 1 10.2,12.178 c 4.647,2.173 7.508,6.44 7.508,11.599 0,5.776 -3.21,10.686 -9.759,12.263 -1.46,0.34 -2.405,0.402 -2.984,1.206 2.226,0.658 3.51,3.209 2.845,5.389 -0.301,1.005 -4.43,12.627 -4.43,12.627 -0.983,2.93 -2.862,4.392 -5.854,3.573 -2.83,-0.782 -3.781,-0.394 -5.784,2.682 -1.53,2.35 -2.683,4.269 -3.874,6.101 -3.517,5.452 -6.665,10.779 -8.443,13.494 -1.825,2.512 -3.178,3.37 -4.995,4.383 -9.906,5.53 -30.218,9.495 -49.185,9.495 -18.967,0 -39.28,-3.959 -49.185,-9.495 -1.817,-1.012 -3.17,-1.87 -4.995,-4.383 -1.778,-2.715 -4.918,-8.034 -8.444,-13.494 -1.19,-1.84 -2.335,-3.75 -3.874,-6.1 -2.003,-3.077 -2.96,-3.465 -5.791,-2.683 -2.985,0.819 -4.864,-0.642 -5.846,-3.573 0,0 -4.128,-11.622 -4.43,-12.627 -0.657,-2.188 0.61,-4.731 2.845,-5.389 -0.58,-0.804 -1.523,-0.858 -2.992,-1.206 -6.542,-1.577 -9.758,-6.487 -9.758,-12.263 0,-5.158 2.86,-9.426 7.508,-11.599 a 11.635,11.635 0 0 1 10.198,-12.178 c 0.658,-5.166 5.413,-9.759 11.468,-9.38 1.376,-4.199 5.837,-7.562 11.118,-6.727 2.49,-4.299 7.261,-5.706 10.903,-4.693 2.699,-3.634 7.415,-4.5 10.918,-3.062 2.482,-2.714 7.09,-3.456 10.269,-1.462 1.307,-1.16 4.956,-2.737 8.574,-0.603 v -10.755 c 0,-1.57 0.627,-2.8 2.42,-2.8 h 1.4 v -2.35 c 0,-0.974 0.464,-1.77 1.872,-1.77 h 11.637 z"
     fill="#ffffff"
     id="path4" />
  <path
     d="m 561.603,449.654 a 8.725,8.725 0 0 0 -8.289,-11.466 c -0.34,0 -0.689,0.023 -1.029,0.054 0.07,-0.41 0.101,-0.835 0.101,-1.268 0,-4.547 -3.696,-8.235 -8.242,-8.235 a 8.09,8.09 0 0 0 -2.228,0.31 v -0.132 a 7.603,7.603 0 0 0 -7.608,-7.609 7.595,7.595 0 0 0 -3.186,0.696 c -0.588,-3.456 -3.588,-6.093 -7.214,-6.093 -1.338,0 -2.59,0.356 -3.673,0.982 a 6.967,6.967 0 0 0 -10.763,-2.883 6.269,6.269 0 0 0 -5.521,-3.295 6.252,6.252 0 0 0 -4.516,1.918 5.642,5.642 0 0 0 -4.615,-2.397 5.64,5.64 0 0 0 -5.421,4.067 c -2.606,-0.526 -3.379,-1.632 -3.379,-3.38 0,-0.687 0.123,-0.765 0.789,-0.765 h 0.525 c 1.3,0 2.073,-0.974 2.073,-1.878 v -8.405 c 0,-1.446 -0.58,-2.591 -2.227,-2.591 h -1.284 v -1.786 c 0,-0.904 -0.432,-1.632 -1.724,-1.632 h -8.344 c -1.29,0 -1.724,0.727 -1.724,1.632 v 1.786 h -1.283 c -1.655,0 -2.234,1.153 -2.234,2.59 v 8.406 c 0,0.904 0.78,1.878 2.079,1.878 h 0.518 c 0.665,0 0.797,0.078 0.797,0.766 0,1.747 -0.774,2.845 -3.38,3.379 -0.687,-2.343 -2.852,-4.067 -5.42,-4.067 -1.91,0 -3.595,0.943 -4.616,2.397 a 6.265,6.265 0 0 0 -4.516,-1.918 c -2.389,0 -4.454,1.338 -5.52,3.295 a 6.921,6.921 0 0 0 -4.291,-1.486 6.968,6.968 0 0 0 -6.465,4.37 7.302,7.302 0 0 0 -3.673,-0.983 7.325,7.325 0 0 0 -7.222,6.093 7.53,7.53 0 0 0 -3.177,-0.696 c -4.207,0 -7.617,3.403 -7.617,7.609 v 0.132 a 8.236,8.236 0 0 0 -10.47,7.925 c 0,0.433 0.031,0.85 0.094,1.268 a 10.864,10.864 0 0 0 -1.02,-0.054 c -4.826,0 -8.739,3.905 -8.739,8.73 0,0.959 0.155,1.878 0.45,2.736 -4.818,0.434 -8.584,4.478 -8.584,9.396 a 9.445,9.445 0 0 0 7.763,9.294 c 2.482,0.441 4.771,0.626 5.707,3.1 0.255,0.673 0.58,1.477 0.943,2.506 l -1.778,0.742 c -2.56,1.067 -3.28,3.24 -2.475,5.304 l 2.637,7.339 c 0.99,2.976 2.536,4.754 5.568,3.92 2.876,-0.79 3.873,-1.044 4.863,0.796 2.915,5.8 5.165,8.776 9.294,8.738 -2.868,1.855 -2.768,2.412 -0.317,6.13 l 4.925,7.37 c 1.671,2.583 2.443,3.279 4.237,4.385 9.596,5.551 29.6,9.626 48.83,9.626 19.23,0 39.241,-4.075 48.837,-9.626 1.786,-1.098 2.567,-1.802 4.238,-4.385 l 4.917,-7.37 c 2.46,-3.71 2.56,-4.267 -0.317,-6.13 4.13,0.038 6.379,-2.939 9.301,-8.738 0.983,-1.84 1.988,-1.585 4.857,-0.797 3.031,0.835 4.577,-0.943 5.574,-3.92 l 2.637,-7.338 c 0.805,-2.064 0.078,-4.237 -2.474,-5.304 l -1.778,-0.742 c 0.363,-1.029 0.688,-1.833 0.936,-2.506 0.934,-2.474 3.232,-2.66 5.713,-3.1 a 9.44,9.44 0 0 0 7.756,-9.294 c 0,-4.918 -3.773,-8.962 -8.575,-9.396"
     fill="#a2aaad"
     fill-rule="evenodd"
     id="path5" />
  <path
     d="m 476.13,406.997 v 2.026 c 0,0.719 0.588,1.299 1.3,1.299 h 5.141 c 0.72,0 1.291,-0.58 1.291,-1.3 v -2.025 h 2.034 c 0.719,0 1.299,-0.588 1.299,-1.3 v -5.142 c 0,-0.719 -0.588,-1.29 -1.299,-1.29 h -2.034 v -2.034 c 0,-0.711 -0.394,-1.291 -1.29,-1.291 h -5.143 c -0.951,0 -1.3,0.58 -1.3,1.29 v 2.035 h -2.025 c -0.72,0 -1.299,0.58 -1.299,1.29 v 5.142 c 0,0.72 0.58,1.3 1.299,1.3 z M 432.552,513.02 c 13.817,-7.708 35.931,-9.866 47.445,-9.88 11.513,0.014 33.627,2.156 47.445,9.88 2.413,1.347 2.52,1.33 4.26,-1.027 l 3.874,-5.8 c 1.238,-1.928 1.108,-3.327 -0.386,-4.198 -5.165,-3.016 -12.72,-5.977 -20.244,-7.965 -10.863,-2.868 -22.578,-4.322 -34.94,-4.322 -12.362,0 -24.095,1.454 -34.943,4.322 -7.524,1.988 -15.079,4.957 -20.244,7.965 -1.494,0.87 -1.623,2.27 -0.386,4.199 l 3.873,5.799 c 1.733,2.358 1.84,2.38 4.26,1.027"
     fill="#010101"
     id="path6" />
  <path
     d="m 477.722,452.167 a 3.431,3.431 0 0 0 -3.434,3.434 v 3.178 H 472 a 3.424,3.424 0 0 0 -3.425,3.433 v 4.609 c 0,1.785 1.345,3.409 3.084,3.409 4.393,0 4.733,2.095 4.733,4.423 0,2.328 -2.212,4.423 -4.733,4.423 a 4.97,4.97 0 0 1 -2.96,-0.966 c -0.209,-0.148 -0.372,-0.108 -0.535,0.077 a 4.936,4.936 0 0 1 -3.765,1.725 c -1.137,0 -2.18,-0.38 -3.015,-1.03 -0.156,-0.108 -0.341,-0.092 -0.503,0.094 a 4.963,4.963 0 0 1 -2.652,1.562 c -2.459,0.556 -5.08,-1.029 -5.583,-3.271 -0.518,-2.273 -0.232,-4.477 3.65,-5.351 1.694,-0.38 2.652,-2.273 2.265,-4.005 l -1.012,-4.501 c -0.419,-1.847 -2.25,-3.015 -4.098,-2.59 l -2.274,0.51 -0.704,-3.108 a 3.424,3.424 0 0 0 -4.09,-2.59 l -4.508,1.013 a 3.432,3.432 0 0 0 -2.59,4.098 l 0.695,3.1 -2.234,0.503 a 3.433,3.433 0 0 0 -2.59,4.098 l 1.013,4.5 c 0.394,1.74 2.064,3.032 3.773,2.652 4.269,-0.967 5.08,1.006 5.583,3.27 0.495,2.205 -1.198,4.803 -3.65,5.352 a 4.817,4.817 0 0 1 -4.322,-1.152 c -0.217,-0.186 -0.465,-0.163 -0.596,0.054 -0.595,1.105 -1.592,1.987 -2.884,2.35 a 4.725,4.725 0 0 1 -3.232,-0.24 c -0.333,-0.154 -0.564,-0.03 -0.642,0.31 -0.363,1.593 -1.57,2.861 -3.054,3.456 -2.134,0.843 -4.4,-0.502 -5.351,-2.566 -1.105,-2.397 -1.476,-4.022 2.443,-5.684 1.509,-0.642 2.119,-2.582 1.585,-4.253 l -1.653,-4.276 c -0.581,-1.786 -2.344,-2.713 -3.952,-2.08 l -2.954,1.083 -0.866,-2.528 c -0.618,-2.042 -2.087,-2.776 -4.33,-1.88 l -4.77,1.779 c -1.377,0.541 -2.08,1.948 -1.384,3.65 0.51,1.237 0.89,2.156 1.16,2.83 l -2.846,1.167 c -1.771,0.695 -2.482,2.381 -1.794,4.144 l 1.918,4.825 c 0.687,1.771 2.458,2.482 4.453,1.826 3.094,-1.03 3.828,-0.302 5.931,3.495 2.25,4.33 5.992,6.525 10.624,6.525 4.632,0 8.498,-2.551 10.5,-6.301 a 12.052,12.052 0 0 0 7.64,0.78 12.058,12.058 0 0 0 7.446,-5.142 12.043,12.043 0 0 0 8.923,1.461 12.113,12.113 0 0 0 5.63,-2.976 12.033,12.033 0 0 0 6.155,1.686 c 3.232,0 6.17,-1.269 8.335,-3.325 a 12.053,12.053 0 0 0 8.328,3.325 c 2.25,0 4.353,-0.619 6.162,-1.686 a 12.054,12.054 0 0 0 5.622,2.976 c 3.177,0.712 6.348,0.101 8.922,-1.46 a 12.06,12.06 0 0 0 7.446,5.141 c 2.668,0.596 5.329,0.263 7.64,-0.78 2.01,3.75 5.97,6.301 10.5,6.301 4.53,0 8.652,-2.652 10.625,-6.525 2.095,-3.797 2.853,-4.602 5.93,-3.495 1.933,0.695 3.766,-0.055 4.454,-1.826 l 1.91,-4.825 c 0.688,-1.77 -0.031,-3.456 -1.794,-4.144 l -2.845,-1.167 c 0.278,-0.666 0.657,-1.585 1.16,-2.83 0.695,-1.709 0,-3.109 -1.384,-3.65 l -4.772,-1.779 c -2.235,-0.896 -3.71,-0.162 -4.322,1.88 l -0.866,2.528 -2.96,-1.083 c -1.602,-0.641 -3.373,0.286 -3.945,2.08 l -1.655,4.276 c -0.541,1.67 0.07,3.611 1.578,4.253 3.928,1.662 3.55,3.279 2.451,5.684 -0.959,2.064 -3.224,3.41 -5.359,2.566 -1.484,-0.595 -2.682,-1.863 -3.054,-3.456 -0.077,-0.34 -0.309,-0.464 -0.633,-0.31 -0.99,0.441 -2.127,0.557 -3.24,0.24 -1.284,-0.363 -2.281,-1.245 -2.885,-2.35 -0.124,-0.217 -0.379,-0.24 -0.587,-0.054 a 4.833,4.833 0 0 1 -4.33,1.152 c -2.459,-0.55 -4.145,-3.147 -3.65,-5.351 0.518,-2.273 1.314,-4.238 5.59,-3.27 1.702,0.379 3.372,-0.913 3.766,-2.653 l 1.013,-4.5 a 3.427,3.427 0 0 0 -2.59,-4.098 l -2.235,-0.502 0.696,-3.101 a 3.432,3.432 0 0 0 -2.59,-4.098 l -4.508,-1.013 a 3.43,3.43 0 0 0 -4.091,2.59 l -0.696,3.109 -2.273,-0.51 a 3.418,3.418 0 0 0 -4.09,2.589 l -1.013,4.5 c -0.395,1.733 0.564,3.627 2.257,4.006 3.89,0.874 4.168,3.086 3.658,5.35 -0.51,2.251 -3.14,3.836 -5.59,3.272 a 4.97,4.97 0 0 1 -2.653,-1.562 c -0.154,-0.179 -0.34,-0.202 -0.495,-0.093 a 4.922,4.922 0 0 1 -3.023,1.029 4.949,4.949 0 0 1 -3.766,-1.725 c -0.154,-0.185 -0.324,-0.217 -0.533,-0.077 a 5.047,5.047 0 0 1 -2.962,0.966 c -2.513,0 -4.732,-2.165 -4.732,-4.423 0,-2.258 0.348,-4.423 4.732,-4.423 1.74,0 3.093,-1.624 3.093,-3.41 v -4.608 a 3.43,3.43 0 0 0 -3.433,-3.433 h -2.289 v -3.178 a 3.426,3.426 0 0 0 -3.432,-3.434 h -4.547 z m 2.274,71.726 c 19.655,0 36.558,-3.619 46.347,-7.872 -4.531,-2.459 -9.07,-4.237 -15.673,-5.69 -8.166,1.213 -19.973,2.83 -30.682,2.83 -10.709,0 -22.517,-1.609 -30.682,-2.83 -6.595,1.453 -11.134,3.224 -15.672,5.69 9.796,4.253 26.7,7.872 46.347,7.872 m 25.648,-94.327 c 0,-1.74 -1.43,-3.146 -3.17,-3.131 a 3.137,3.137 0 0 0 -3.132,3.17 c 0,1.74 1.423,3.14 3.17,3.131 1.733,0 3.14,-1.43 3.132,-3.17 z m -14.925,-8.52 a 2.676,2.676 0 0 0 -5.35,0 2.676,2.676 0 0 0 5.35,0 z m 6.989,3.959 a 2.676,2.676 0 1 0 -5.35,0 2.676,2.676 0 0 0 5.35,0 z m 17.252,11.459 a 3.974,3.974 0 1 0 -3.974,3.974 3.972,3.972 0 0 0 3.974,-3.974 z m 9.393,9.82 c 0,-2.621 -2.126,-4.748 -4.755,-4.748 -2.629,0 -4.748,2.126 -4.748,4.748 0,2.622 2.127,4.755 4.748,4.755 2.621,0 4.756,-2.126 4.756,-4.755 z"
     fill="#010101"
     id="path7" />
  <path
     d="m 533.998,458.16 c 0,-2.97 -2.404,-5.382 -5.38,-5.382 -2.976,0 -5.39,2.406 -5.39,5.382 0,2.976 2.412,5.382 5.39,5.382 2.978,0 5.38,-2.405 5.38,-5.382 z m -17.035,-39.712 a 3.826,3.826 0 1 0 -7.648,0.225 3.826,3.826 0 0 0 7.648,-0.225 z m 10.697,3.989 a 4.334,4.334 0 0 0 -4.455,-4.206 4.3357592,4.3357592 0 0 0 0.247,8.668 4.33,4.33 0 0 0 4.207,-4.454 m 10.707,5.837 a 4.726,4.726 0 1 0 -4.585,4.864 4.725,4.725 0 0 0 4.585,-4.864 z m -41.027,-12.657 a 2.924,2.924 0 0 0 -2.93,-2.9 c -1.61,0 -2.91,1.322 -2.901,2.93 0,1.609 1.322,2.907 2.93,2.9 1.609,0 2.9,-1.322 2.9,-2.93 z m 9.471,0.534 a 3.36,3.36 0 0 0 -3.37,-3.333 c -1.848,0 -3.34,1.523 -3.333,3.372 a 3.37,3.37 0 0 0 3.379,3.332 c 1.848,0 3.34,-1.523 3.333,-3.37 m 41.961,19.924 c -0.023,-2.83 -2.32,-5.103 -5.142,-5.08 a 5.114,5.114 0 0 0 -5.087,5.142 5.113,5.113 0 0 0 5.149,5.08 5.101,5.101 0 0 0 5.08,-5.142 z m 9.658,9.775 a 5.5051113,5.5051113 0 1 0 -11.01,0.07 5.497,5.497 0 0 0 5.536,5.466 5.502,5.502 0 0 0 5.474,-5.536 z m 8.098,11.97 a 5.895,5.895 0 0 0 -5.938,-5.862 c -3.256,0.023 -5.885,2.675 -5.862,5.931 0.023,3.262 2.675,5.891 5.938,5.868 3.255,-0.023 5.885,-2.682 5.862,-5.937 z m -59.495,0.555 c 0.488,-3.959 1.988,-5.637 5.119,-5.072 0.286,0.054 0.495,-0.24 0.41,-0.525 -2.274,-7.648 -13.407,-22.285 -27.117,-28.54 -0.88,-0.403 -1.407,-0.689 -1.547,-0.519 -0.154,0.178 0.256,0.596 0.928,1.183 12.937,11.367 15.573,29.074 15.867,34.657 0.024,0.378 0.51,0.502 0.72,0.186 0,0 1.499,-2.73 5.62,-1.377"
     fill="#010101"
     id="path8" />
  <path
     d="m 497.013,421.392 c 19.772,6.303 39.76,25.935 43.549,45.854 0.061,0.34 0.58,0.417 0.695,0.093 0.41,-1.13 0.58,-1.84 1.051,-2.668 0.72,-1.253 2.475,-1.717 4.052,-1.175 2.367,0.796 5.792,2.125 7.54,2.837 0.34,0.14 0.696,-0.108 0.556,-0.463 -9.395,-24.465 -36.257,-42.342 -57.32,-45.296 -1.106,-0.155 -1.747,-0.162 -1.778,0.046 -0.03,0.247 0.317,0.355 1.655,0.773 z m -44.073,36.992 c 4.122,-1.352 5.621,1.377 5.621,1.377 0.217,0.317 0.712,0.193 0.72,-0.186 0.286,-5.582 2.923,-23.289 15.866,-34.656 0.673,-0.595 1.09,-1.005 0.928,-1.182 -0.139,-0.17 -0.665,0.116 -1.547,0.518 -13.709,6.255 -24.844,20.892 -27.117,28.54 -0.084,0.278 0.124,0.58 0.41,0.525 3.132,-0.565 4.631,1.113 5.12,5.072 m 10.029,-37 c 1.338,-0.408 1.693,-0.524 1.655,-0.772 -0.031,-0.216 -0.673,-0.21 -1.778,-0.047 -21.063,2.962 -47.925,20.839 -57.32,45.297 -0.139,0.347 0.217,0.595 0.557,0.463 1.748,-0.718 5.173,-2.041 7.539,-2.837 1.577,-0.533 3.333,-0.078 4.052,1.175 0.472,0.828 0.641,1.539 1.052,2.668 0.124,0.332 0.634,0.255 0.695,-0.094 3.789,-19.918 23.778,-39.55 43.548,-45.852 z m 23.088,22.533 c 0,-3.348 -2.714,-6.07 -6.07,-6.07 -3.356,0 -6.07,2.714 -6.07,6.07 0,3.356 2.714,6.07 6.07,6.07 3.356,0 6.07,-2.714 6.07,-6.07 z m -3.223,-18.759 c 0,-1.592 -1.3,-2.899 -2.9,-2.899 a 2.9,2.9 0 0 0 0,5.8 2.89,2.89 0 0 0 2.9,-2.9 z m 0.678,7.796 c 0,-1.972 -1.593,-3.572 -3.572,-3.572 -1.979,0 -3.573,1.592 -3.573,3.571 0,1.979 1.593,3.573 3.573,3.573 1.98,0 3.572,-1.593 3.572,-3.573 z m 0.55,-16.145 c 0,-2.274 -1.84,-4.122 -4.122,-4.122 -2.282,0 -4.12,1.84 -4.12,4.122 0,2.282 1.84,4.121 4.12,4.121 2.28,0 4.122,-1.84 4.122,-4.121 z m 15.773,56.283 c 0,-2.127 -1.717,-3.843 -3.843,-3.843 -2.126,0 -3.843,1.716 -3.843,3.843 0,2.127 1.717,3.843 3.843,3.843 2.126,0 3.843,-1.717 3.843,-3.843 z m 32.005,5.922 c 0,-2.126 -1.716,-3.843 -3.843,-3.843 -2.127,0 -3.843,1.717 -3.843,3.843 0,2.126 1.716,3.843 3.843,3.843 2.127,0 3.843,-1.717 3.843,-3.843 z M 460.155,473.1 c 0,2.125 1.717,3.843 3.843,3.843 2.126,0 3.843,-1.717 3.843,-3.843 0,-2.126 -1.717,-3.843 -3.843,-3.843 -2.126,0 -3.843,1.716 -3.843,3.843 z m -32.013,5.922 c 0,2.126 1.717,3.843 3.843,3.843 2.126,0 3.843,-1.717 3.843,-3.843 0,-2.126 -1.716,-3.843 -3.843,-3.843 -2.127,0 -3.843,1.717 -3.843,3.843 z m 18.597,-56.639 a 3.825,3.825 0 1 0 0.225,-7.646 3.825,3.825 0 0 0 -0.225,7.646 z m -10.207,4.516 a 4.324,4.324 0 0 0 4.453,-4.206 4.314,4.314 0 0 0 -4.206,-4.454 4.336,4.336 0 0 0 -4.461,4.206 4.33,4.33 0 0 0 4.206,4.454"
     fill="#010101"
     id="path9" />
  <path
     d="m 426.209,433.146 a 4.7265443,4.7265443 0 1 0 0.278,-9.449 4.73,4.73 0 0 0 -4.864,4.585 4.73,4.73 0 0 0 4.586,4.864 z m 39.334,-14.591 a 2.917,2.917 0 0 0 2.93,-2.9 2.908,2.908 0 0 0 -2.9,-2.93 2.908,2.908 0 0 0 -2.93,2.9 2.908,2.908 0 0 0 2.9,2.93 z m -9.04,0.975 a 3.347,3.347 0 0 0 3.372,-3.332 3.358,3.358 0 0 0 -3.333,-3.38 c -1.848,0 -3.364,1.485 -3.37,3.333 a 3.35,3.35 0 0 0 3.331,3.371 m -40.207,21.712 c 2.83,0.015 5.134,-2.266 5.142,-5.08 a 5.11,5.11 0 0 0 -5.08,-5.15 5.11,5.11 0 0 0 -5.142,5.088 5.102,5.102 0 0 0 5.08,5.142 z m -9.278,10.161 a 5.502,5.502 0 0 0 5.536,-5.475 5.496,5.496 0 0 0 -5.467,-5.536 5.505,5.505 0 0 0 -5.544,5.475 c -0.023,3.038 2.437,5.513 5.475,5.536 z m -7.7,12.364 a 5.9001038,5.9001038 0 1 0 0.07,-11.8 c -3.256,-0.023 -5.908,2.606 -5.931,5.862 a 5.893,5.893 0 0 0 5.86,5.938 z m 58.168,-31.023 a 3.146,3.146 0 0 0 3.17,-3.13 3.147,3.147 0 0 0 -3.131,-3.171 3.147,3.147 0 0 0 -3.17,3.131 3.147,3.147 0 0 0 3.131,3.17 z m 14.467,-9.014 a 2.676,2.676 0 0 0 0,-5.351 2.676,2.676 0 0 0 0,5.35 z m -6.987,3.958 a 2.676,2.676 0 1 0 -2.675,-2.675 2.676,2.676 0 0 0 2.675,2.675 z m -15.947,12.758 c 2.196,0 3.974,-1.778 3.974,-3.975 0,-2.197 -1.778,-3.974 -3.974,-3.974 -2.196,0 -3.974,1.778 -3.974,3.974 0,2.196 1.778,3.975 3.974,3.975 z m -8.629,10.593 c 2.62,0 4.755,-2.126 4.755,-4.755 0,-2.629 -2.134,-4.747 -4.755,-4.747 -2.621,0 -4.756,2.125 -4.756,4.747 0,2.622 2.134,4.755 4.756,4.755 z m -9.015,12.511 c 2.97,0 5.382,-2.404 5.382,-5.38 0,-2.976 -2.405,-5.39 -5.382,-5.39 -2.977,0 -5.382,2.405 -5.382,5.39 0,2.985 2.405,5.38 5.382,5.38 z"
     fill="#010101"
     id="path10" />
  <path
     d="m 482.894,403.13 a 2.9,2.9 0 0 1 -2.9,2.899 c -1.6,0 -2.907,-1.299 -2.907,-2.9 0,-1.601 1.307,-2.899 2.907,-2.899 a 2.9,2.9 0 0 1 2.9,2.9 z m -2.945,89.741 a 3.774,3.774 0 0 1 0,7.546 3.779,3.779 0 0 1 -3.774,-3.773 3.778,3.778 0 0 1 3.774,-3.773 z m -25.238,5.753 a 3.78,3.78 0 1 1 7.493,-0.99 3.77,3.77 0 0 1 -3.247,4.237 3.774,3.774 0 0 1 -4.246,-3.248 z m -19.911,5.898 c -0.672,-1.855 0.279,-3.857 2.112,-4.469 1.84,-0.61 3.873,0.403 4.539,2.266 0.672,1.856 -0.279,3.858 -2.112,4.47 -1.84,0.603 -3.873,-0.41 -4.539,-2.266 z m 62.978,-6.889 a 3.779059,3.779059 0 0 1 7.493,0.99 3.791,3.791 0 0 1 -4.246,3.256 3.786,3.786 0 0 1 -3.247,-4.246 z m 20.755,4.679 c 0.673,-1.856 2.707,-2.869 4.539,-2.266 1.84,0.611 2.784,2.614 2.11,4.47 -0.664,1.855 -2.705,2.876 -4.538,2.265 -1.84,-0.61 -2.775,-2.613 -2.11,-4.47 z m -38.6,-41.367 a 3.635,3.635 0 0 1 3.635,3.633 c 0,2.01 -1.632,3.627 -3.635,3.627 -2.003,0 -3.634,-1.625 -3.634,-3.627 0,-2.002 1.632,-3.633 3.634,-3.633 z m 33.211,3.679 c 2.002,0 3.633,1.624 3.633,3.634 0,2.01 -1.631,3.627 -3.633,3.627 -2.002,0 -3.634,-1.624 -3.634,-3.627 0,-2.003 1.631,-3.634 3.634,-3.634 z m 32.83,10.153 c 2.002,0 3.634,1.624 3.634,3.634 0,2.01 -1.631,3.626 -3.634,3.626 -2.003,0 -3.635,-1.623 -3.635,-3.626 0,-2.003 1.625,-3.634 3.635,-3.634 z m -95.508,-6.525 c 0,2.002 -1.624,3.634 -3.634,3.634 -2.01,0 -3.627,-1.632 -3.627,-3.635 0,-2.003 1.624,-3.634 3.627,-3.634 2.003,0 3.634,1.632 3.634,3.634 z m -32.825,10.16 c 0,2.002 -1.623,3.633 -3.634,3.633 -2.011,0 -3.626,-1.631 -3.626,-3.634 0,-2.003 1.623,-3.634 3.626,-3.634 2.003,0 3.634,1.631 3.634,3.634 z"
     fill="#ffffff"
     id="path11" />
  <path
     d="m 374.133,73.008 c -4.624,0 -7.075,0.959 -8.954,2.42 -3.317,2.63 -5.01,7.222 -5.01,14.46 0,7.238 1.692,11.83 5.01,14.459 1.879,1.47 4.33,2.42 8.954,2.42 4.624,0 7.075,-0.959 8.946,-2.42 3.317,-2.629 5.011,-7.222 5.011,-14.46 0,-7.238 -1.694,-11.83 -5.01,-14.459 -1.88,-1.469 -4.33,-2.42 -8.947,-2.42 z m 0,5.59 c 1.53,0 2.458,0.573 3.04,1.446 0.788,1.214 1.073,2.884 1.073,9.843 0,6.959 -0.278,8.637 -1.074,9.843 -0.588,0.875 -1.516,1.446 -3.04,1.446 -1.522,0 -2.458,-0.572 -3.046,-1.446 -0.788,-1.213 -1.075,-2.884 -1.075,-9.843 0,-6.959 0.279,-8.636 1.075,-9.843 0.588,-0.873 1.516,-1.446 3.047,-1.446 z m -17.32,12.078 v 13.81 c 0,1.214 -0.45,1.716 -1.709,1.716 H 328.59 V 101.1 c 3.155,0 3.78,-0.967 3.78,-3.743 V 75.792 c 0,-3.356 -0.594,-4.199 -3.78,-4.199 V 66.49 h 18.542 v 5.103 c -4.044,0 -4.779,1.361 -4.779,4.315 v 23.691 c 0,0.743 0.248,1.044 1.067,1.044 5.12,0 6.967,-1.817 9.024,-9.959 h 4.36 z m 107.803,7.98 -7.957,-29.761 c -0.48,-1.779 -1.152,-2.413 -3.139,-2.413 h -17.259 v 4.794 c 2.893,0.17 3.612,1.377 2.792,4.454 l -5.807,21.96 c -0.649,2.428 -1.46,3.224 -3.665,3.34 v 5.165 h 15.565 v -5.165 c -3.812,0 -4.725,-1.106 -4.144,-3.425 l 0.285,-1.191 c 0.156,-0.603 0.403,-0.881 1.16,-0.881 h 10.068 c 0.765,0 1.005,0.278 1.152,0.88 l 0.317,1.269 c 0.549,2.227 -0.324,3.348 -3.58,3.348 v 5.165 h 17.328 v -5.165 c -1.887,-0.092 -2.706,-0.727 -3.131,-2.373 m -13.594,-8.344 h -7.051 c -0.875,0 -1.091,-0.287 -0.875,-1.16 l 3.612,-14.614 c 0.147,-0.58 0.402,-0.835 0.788,-0.835 0.387,0 0.65,0.255 0.789,0.835 l 3.61,14.614 c 0.218,0.882 0,1.16 -0.88,1.16 m 95.284,-10.872 c -0.827,0.998 -1.19,2.815 -1.19,6.58 0,0.727 0.263,0.99 0.965,0.99 h 6.202 c 0.704,0 0.936,-0.263 0.966,-0.99 0.132,-3.185 -0.285,-5.582 -1.105,-6.58 -0.557,-0.68 -1.338,-1.136 -2.86,-1.136 -1.524,0 -2.413,0.456 -2.978,1.136 z m 4.322,21.937 c 3.264,0 5.437,-1.74 6.882,-5.536 h 4.114 v 5.543 c 0,2.56 -0.665,3.38 -2.838,4.098 -2.436,0.805 -5.46,1.276 -9.117,1.276 -4.902,0 -8.064,-1.02 -10.291,-3.123 -2.769,-2.614 -4.006,-6.828 -4.006,-13.586 0,-6.758 1.37,-10.794 4.168,-13.678 2.026,-2.088 4.956,-3.38 10.222,-3.38 4.593,0 7.717,1.238 9.658,3.325 2.304,2.475 3.1,6.086 3.1,11.862 0,3.301 -0.518,3.943 -2.984,3.943 h -13.446 c -0.711,0 -0.966,0.271 -0.966,0.99 0,6.263 1.87,8.258 5.512,8.258 m 42.033,-21.929 c -0.827,0.998 -1.191,2.815 -1.191,6.58 0,0.727 0.263,0.99 0.967,0.99 h 6.2 c 0.712,0 0.936,-0.263 0.967,-0.99 0.132,-3.185 -0.294,-5.582 -1.106,-6.58 -0.563,-0.68 -1.345,-1.136 -2.868,-1.136 -1.523,0 -2.405,0.456 -2.977,1.136 m 4.323,21.937 c 3.263,0 5.443,-1.74 6.881,-5.536 h 4.121 v 5.543 c 0,2.56 -0.664,3.38 -2.845,4.098 -2.428,0.805 -5.459,1.276 -9.108,1.276 -4.91,0 -8.073,-1.02 -10.292,-3.123 -2.768,-2.614 -4.013,-6.828 -4.013,-13.586 0,-6.758 1.368,-10.794 4.175,-13.678 2.026,-2.088 4.949,-3.38 10.223,-3.38 4.585,0 7.708,1.238 9.649,3.325 2.304,2.475 3.1,6.086 3.1,11.862 0,3.301 -0.518,3.943 -2.984,3.943 h -13.446 c -0.712,0 -0.967,0.271 -0.967,0.99 0,6.263 1.871,8.258 5.513,8.258 m -20.281,-3.255 c 0,2.049 0.911,2.977 2.96,2.977 v 5.103 h -8.203 c -2.915,0 -4.176,-1.361 -4.176,-4.199 V 74.593 c 0,-2.041 -0.904,-2.977 -2.96,-2.977 v -5.103 h 12.37 V 98.115 Z M 414.782,83.532 h -3.573 c -1.57,-3.627 -4.477,-5.359 -7.801,-5.359 -2.514,0 -3.519,1.168 -3.519,2.722 0,1.755 1.02,2.791 3.41,3.634 l 4.376,1.532 c 6.495,2.272 8.939,5.102 8.939,10.438 0,6.967 -4.647,10.268 -13.083,10.268 -3.008,0 -6.2,-0.402 -8.343,-0.904 -2.845,-0.681 -3.332,-1.415 -3.332,-3.434 v -6.58 h 3.835 c 1.817,3.626 4.492,5.707 8.381,5.707 2.838,0 4.176,-1.307 4.176,-3.209 0,-1.902 -1.222,-2.962 -3.897,-3.89 l -4.26,-1.477 c -5.908,-2.049 -8.321,-4.956 -8.321,-10.322 0,-6.008 3.773,-9.642 12.248,-9.642 2.606,0 5.135,0.325 7.43,0.85 2.831,0.658 3.334,1.485 3.334,3.851 v 5.823 z m 221.189,0 h -3.565 c -1.569,-3.627 -4.477,-5.359 -7.802,-5.359 -2.52,0 -3.518,1.168 -3.518,2.722 0,1.755 1.021,2.791 3.41,3.634 l 4.377,1.532 c 6.495,2.272 8.938,5.102 8.938,10.438 0,6.967 -4.647,10.268 -13.083,10.268 -3.016,0 -6.201,-0.402 -8.35,-0.904 -2.846,-0.681 -3.325,-1.415 -3.325,-3.434 v -6.58 h 3.835 c 1.817,3.626 4.492,5.707 8.382,5.707 2.837,0 4.167,-1.307 4.167,-3.209 0,-1.902 -1.214,-2.962 -3.889,-3.89 l -4.26,-1.477 c -5.916,-2.049 -8.32,-4.956 -8.32,-10.322 0,-6.008 3.78,-9.642 12.255,-9.642 2.598,0 5.126,0.325 7.423,0.85 2.83,0.658 3.333,1.485 3.333,3.851 v 5.823 z m -134.31,17.56 v 5.103 h -8.436 c -2.915,0 -4.176,-1.361 -4.176,-4.199 0,-5.597 0.164,-11.845 0.164,-18.17 0,-2.892 -0.921,-4.037 -2.77,-4.037 -2.403,0 -3.95,1.817 -3.95,5.614 v 12.712 c 0,2.05 0.904,2.977 2.961,2.977 v 5.103 h -15.349 v -5.103 c 2.058,0 2.962,-0.928 2.962,-2.977 V 81.661 c 0,-2.042 -0.904,-2.977 -2.962,-2.977 V 73.58 h 6.805 c 2.954,0 4.083,0.944 4.733,3.588 0.123,0.518 0.463,0.565 0.765,0.1 1.794,-2.79 4.284,-4.26 8.29,-4.26 5.62,0 8.149,3.023 8.149,9.325 0,6.302 -0.162,10.183 -0.162,15.782 0,2.05 0.911,2.977 2.96,2.977 m 16.037,-8.026 c 1.214,0 1.918,-0.356 2.49,-0.951 1.021,-1.045 1.4,-2.629 1.4,-6.286 0,-3.657 -0.379,-5.235 -1.4,-6.28 -0.572,-0.595 -1.276,-0.95 -2.49,-0.95 -1.213,0 -1.917,0.355 -2.49,0.95 -1.02,1.045 -1.398,2.63 -1.398,6.28 0,3.65 0.378,5.241 1.398,6.286 0.573,0.595 1.277,0.95 2.49,0.95 z m 0.178,21.441 c 4.67,0 6,-0.324 6.774,-0.967 0.572,-0.464 0.835,-1.09 0.835,-1.809 0,-1.391 -0.92,-1.964 -2.954,-1.964 -3.556,0 -7.036,0.093 -10.369,0.093 -2.026,0 -2.954,0.765 -2.954,2.072 0,0.689 0.272,1.276 0.851,1.701 0.796,0.58 1.856,0.866 6.897,0.866 h 0.904 l 0.017,0.008 z m 10.578,-35.421 c 1.817,1.778 2.776,4.283 2.776,7.538 0,7.091 -4.678,12.033 -13.81,12.033 -1.925,0 -2.196,-0.093 -3.696,-0.093 -1.369,0 -1.933,0.587 -1.933,1.345 0,0.966 0.642,1.708 2.791,1.708 3.333,0 5.792,-0.162 9.356,-0.162 7.013,0 9.689,2.915 9.689,7.802 0,2.814 -0.943,5.01 -2.76,6.564 -2.258,1.934 -5.189,2.854 -13.308,2.854 h -1.948 c -6.898,0 -9.232,-0.657 -10.748,-1.833 -1.199,-0.92 -1.756,-2.195 -1.756,-3.765 0,-2.174 1.269,-3.905 3.86,-4.6 0.409,-0.117 0.347,-0.441 0,-0.658 -1.887,-1.168 -2.8,-2.792 -2.8,-5.034 0,-2.722 1.57,-4.895 4.732,-5.69 0.441,-0.11 0.448,-0.45 0.109,-0.704 -3.179,-2.36 -4.671,-5.645 -4.671,-10.562 0,-8.19 4.57,-12.82 13.67,-12.82 3.279,0 5.344,0.571 9.635,0.571 h 6.449 v 4.779 h -5.359 c -0.533,0 -0.673,0.34 -0.278,0.727 z"
     fill="#010101"
     id="path12" />
  <path
     d="m 718.374,219.682 c 0,1.036 0.58,2.05 4.91,2.682 2.095,0.31 4.585,0.65 7.197,0.99 a 54.627,54.627 0 0 0 2.336,13.183 l 6.348,-0.139 a 52.23,52.23 0 0 1 -2.798,-16.043 l -18.001,-0.673 z m -52.788,-51.699 c 9.379,0.905 15.17,6.843 16.934,22.346 l 5.745,-0.58 c -2.011,-16.508 -8.707,-21.912 -19.579,-21.912 -1.06,0 -2.087,0.046 -3.1,0.14 m 44.597,125.13 h -5.806 l -10.926,32.507 5.93,-0.371 z m 43.597,-7.647 c 3.882,0.526 10.632,1.19 17.66,1.778 4.107,4.964 6.829,9.65 8.305,14.359 l 6.364,-0.14 c -1.508,-5.706 -4.756,-11.358 -10.068,-17.366 l -27.349,-1.213 c 0,1.19 0.75,1.994 5.089,2.59 m 7.514,-121.953 c 12.357,-10.539 28.957,-16.153 49.827,-16.532 -1.206,-0.023 -2.397,-0.03 -3.564,-0.03 -22.146,0 -39.597,5.768 -52.417,16.895 z m 47.035,4.276 c -0.967,0 -1.919,0.046 -2.854,0.116 7.794,0.595 12.921,3.71 15.774,10.747 l 5.544,-0.626 c -3.271,-7.423 -9.24,-10.237 -18.465,-10.237 z m -114.113,72.312 c 0,1.09 0.804,2.018 5.165,2.56 7.902,0.974 22.81,2.272 37.331,3.347 3.627,7.067 8.776,13.973 15.449,21.04 l 7.222,-0.209 c -8.095,-8.443 -14.15,-16.547 -18.008,-24.952 z m 33.249,30.334 c 0,1.19 0.851,2.056 5.196,2.613 6.975,0.897 18.086,1.825 27.712,2.46 l 3.674,3.765 6.974,-0.487 -6.573,-6.727 -36.99,-1.617 z m -334.581,38.451 10.461,-31.067 -37.841,-1.563 c 0,1.253 0.82,2.165 5.165,2.684 6.217,0.727 15.92,1.67 25.648,2.498 l -9.348,27.773 5.915,-0.332 z m -90.885,4.787 8.536,-25.37 -48.164,-1.576 c 0,1.252 1.283,2.458 5.444,2.837 8.266,0.75 22.253,1.686 35.676,2.436 l -7.353,21.859 5.869,-0.186 z m 209.498,-76.634 c 1.275,0.271 2.69,0.564 4.175,0.866 l -18.828,55.897 -0.155,10.694 c -0.061,3.795 1.052,3.865 2.312,0.116 l 23.306,-69.197 -15.744,-1.252 c 0,1.183 0.658,1.956 4.933,2.869 m 1.987,-35.415 c 2.846,0.51 8.374,1.276 13.764,1.91 l -9.217,27.388 5.954,-0.464 9.665,-28.703 c 0.186,-0.541 0.355,-1.066 0.534,-1.593 l -25.827,-1.299 c 0,1.153 0.82,1.988 5.127,2.761 z m 82.896,-16.407 c 3.55,-5.15 7.207,-9.588 11.073,-13.454 15.99,-15.967 36.241,-24.241 66.807,-24.713 a 138.316,138.316 0 0 0 -3.047,-0.047 c -32.135,0 -53.082,8.313 -69.567,24.76 -3.951,3.942 -7.678,8.49 -11.304,13.787 l 6.03,-0.333 z m -66.427,9.928 5.87,-0.325 c 5.172,-18.302 1.392,-23.622 -12.426,-26.622 l 5.97,-17.746 h -5.808 l -6.742,20.035 c 15.387,3.34 18.294,7.276 13.13,24.658 M 738.51,170.327 c 2.467,0.417 5.63,0.896 9.054,1.345 -5.157,6.387 -9.294,13.941 -12.325,22.717 -2.66,7.701 -4.19,14.776 -4.663,21.457 l 5.954,-0.719 c 0.456,-6.433 1.941,-13.276 4.515,-20.738 3.48,-10.075 8.398,-18.58 14.685,-25.508 l -22.34,-1.339 c 0,1.347 0.805,2.058 5.12,2.785 z m -170.125,76.062 a 518.754,518.754 0 0 1 6.687,-18.35 l -15.301,-1.212 c 0,0.974 0.664,1.785 2.722,2.38 1.585,0.457 3.556,0.913 5.799,1.354 a 552.43,552.43 0 0 0 -5.715,15.82 677.05,677.05 0 0 0 -3.316,9.844 l 5.953,-0.457 a 708.867,708.867 0 0 1 3.17,-9.387 m 14.304,-36.512 -13.285,-1.052 c 0,1.145 0.812,1.802 3.225,2.467 0.95,0.271 2.049,0.534 3.255,0.805 a 310.367,310.367 0 0 0 -4.872,11.498 l 6,-0.464 c 1.903,-4.725 3.79,-9.156 5.677,-13.254 z m 10.298,-19.454 -23.583,-1.19 c 0,1.097 1.113,2.103 3.194,2.467 3.364,0.58 7.995,1.213 12.781,1.723 -2.196,3.75 -4.353,7.842 -6.51,12.295 l 6.015,-0.464 c 2.675,-5.49 5.367,-10.4 8.103,-14.83 z m -458.647,121.837 7.392,-21.99 -21.574,-1.323 c 0,1.122 0.534,2.205 4.857,2.907 2.814,0.457 6.208,0.967 9.89,1.455 l -6.434,19.114 5.86,-0.163 h 0.008 z m 429.189,-51.296 -17.104,-1.353 c 0,1.19 0.658,2.15 4.957,3.085 1.477,0.325 3.356,0.688 5.451,1.067 -5.203,16.602 -8.56,30.319 -10.16,41.855 l 5.838,-0.34 c 1.716,-12.117 5.35,-26.623 11.01,-44.314 m 235.447,-61.271 c 5.823,0.673 15.326,1.516 25.1,2.134 a 219.426,219.426 0 0 1 -0.566,11.22 h 5.808 c 0.401,-5.366 0.603,-10.16 0.595,-14.42 l -35.615,-1.562 c 0,1.492 1.098,2.21 4.67,2.628 m -166.979,52.859 -6.735,20.035 c 14.916,2.405 18.41,4.623 14.143,20.112 l 5.799,-0.156 c 4.23,-16.13 0.627,-20.158 -13.369,-22.237 l 5.969,-17.746 h -5.806 v -0.008 z m 196.463,-69.466 -18.179,-0.797 c 0,1.122 0.75,1.917 5.072,2.613 1.917,0.31 4.733,0.727 7.887,1.16 0.371,2.25 0.618,4.732 0.757,7.477 l 5.8,-0.162 c -0.209,-3.96 -0.65,-7.369 -1.337,-10.29 z m -276.561,127.427 -22.238,-1.408 c 0,1.153 0.773,2.08 5.073,2.885 2.59,0.48 6.641,1.114 11.087,1.725 -0.479,6.889 -0.215,12.904 0.782,18.248 l 5.768,-0.186 c -1.113,-6.117 -1.276,-13.114 -0.464,-21.264 M 688.904,203.73 c 0.038,-3.24 -0.031,-6.2 -0.186,-8.938 l -18.03,-0.82 c 0,1.199 1.035,2.019 4.12,2.498 2.196,0.34 5.166,0.719 8.227,1.036 0.07,1.987 0.07,4.145 0.04,6.386 z m 98.133,103.179 -46.07,-1.748 c 0,1.122 0.828,2.018 5.189,2.56 8.629,1.067 23.042,2.443 34.934,3.332 -0.093,3.936 -0.943,8.026 -2.466,12.442 l 5.923,-0.325 c 1.971,-5.769 2.892,-11.096 2.49,-16.27 M 642.05,302.804 a 217.24,217.24 0 0 0 1.631,-5.042 l -34.75,-1.523 c 0,1.183 0.944,1.879 3.674,2.227 6.333,0.827 15.603,1.777 24.271,2.458 -0.208,0.611 -0.402,1.23 -0.626,1.88 l -3.858,11.466 5.915,-0.316 3.75,-11.15 h -0.008 z m 108.126,43.703 a 47.68,47.68 0 0 0 3.015,0.093 c 13.3,0 23.282,-5.753 29.174,-18.025 L 758.2,327.122 c 0,1.16 0.85,2.288 5.197,2.876 3.479,0.464 7.46,0.96 11.668,1.423 -5.552,9.51 -14.012,14.374 -24.882,15.078 m -113.715,-27.11 -24.642,-1.476 c 0,1.12 0.896,1.847 3.873,2.35 4.113,0.688 8.822,1.36 13.996,1.987 l -3.055,9.085 5.954,-0.463 3.866,-11.49 z m 51.472,-98.246 c 0.395,-4.391 0.657,-8.428 0.813,-12.178 l -35.438,-1.547 c 0,1.152 0.805,1.987 5.158,2.56 6.526,0.865 14.552,1.747 24.303,2.56 a 267.775,267.775 0 0 1 -0.643,8.605 h 5.808 z m -68.51,124.614 c 1.903,-0.086 3.751,-0.217 5.49,-0.464 2.01,-0.287 3.27,-1.307 4.03,-3.542 l 2.009,-5.97 -15.333,-1.214 c 0,0.974 0.951,1.771 3.023,2.304 1.438,0.372 3.519,0.782 5.768,1.107 l -1.267,3.773 c -0.704,2.072 -1.5,3.302 -3.712,4.012 M 455.768,198.464 c 0.063,-3.71 -1.082,-3.696 -2.273,-0.123 l -3.688,10.933 -0.842,58.688 5.814,-0.603 0.99,-68.887 v -0.008 z m -285.21,-13.477 5.707,-0.341 c 1.794,-10.484 -1.299,-13.74 -8.622,-16.446 l 5.97,-17.746 h -5.808 l -6.734,20.035 c 8.165,2.474 11.212,4.98 9.48,14.505 m -43.371,20.715 c 9.008,0.927 22.308,1.825 36.318,2.59 l -10.237,30.435 5.907,-0.302 11.382,-33.837 -48.31,-1.592 c 0,1.299 1.415,2.342 4.933,2.714 m 301.025,-23.435 6.055,-0.465 c 0.82,-8.227 -2.551,-11.18 -10.887,-13.624 l 5.97,-17.746 h -5.808 l -6.735,20.035 c 8.213,1.832 11.909,4.198 11.405,11.806 m -307.451,87.623 c 5.08,0.595 13.176,1.414 21.295,2.18 l -4.493,13.37 5.916,-0.334 5.512,-16.407 -33.224,-1.54 c -0.032,1.277 1.476,2.313 4.986,2.723 m 131.549,-79.311 -4.585,4.207 8.482,-0.286 0.301,-0.279 c 15.117,-13.856 13.733,-23.707 1.532,-26.034 l 5.969,-17.746 h -5.807 l -6.735,20.042 c 13.47,1.508 13.895,8.15 0.843,20.105 m 83.655,-40.154 -6.735,20.035 c 8.552,2.59 11.49,5.203 9.202,15.89 l 5.714,-0.287 c 2.335,-11.629 -0.704,-15.055 -8.343,-17.884 l 5.96,-17.746 h -5.805 l 0.008,-0.008 z m -180.27,40.618 c 3.395,0.587 7.763,1.229 12.89,1.894 a 223.702,223.702 0 0 1 -2.064,6.434 l 5.837,-0.109 c 1.137,-3.472 2.041,-6.51 2.738,-9.209 l -23.004,-1.484 c 0,1.299 0.905,2.026 3.595,2.482 m 403.972,158.364 c -2.645,-3.72 -4.648,-7.825 -6.032,-12.441 l -32.39,-1.54 c 0,1.107 0.834,1.98 5.165,2.56 4.894,0.65 14.567,1.71 22.617,2.46 a 41.662,41.662 0 0 0 4.832,8.968 c 8.011,11.297 25.23,18.025 49.332,18.025 1.322,0 2.644,-0.016 3.96,-0.032 -23.12,-0.34 -39.675,-6.989 -47.484,-17.985 m -427.531,-30.565 0.41,-1.23 -35.468,-1.64 c 0,1.268 0.89,2.18 5.513,2.76 5.768,0.72 13.54,1.594 22.902,2.514 -6.255,17.7 -10.994,20.76 -22.778,22.74 l -6.743,20.042 h 5.807 l 5.97,-17.745 c 13.12,-3.147 17.698,-7.562 24.379,-27.434 m 321.499,30.659 0.278,-19.779 -28.732,-1.338 c 0,1.238 0.835,2.026 5.165,2.684 4.94,0.75 11.142,1.469 17.715,2.01 l -0.232,16.423 c -0.21,10.926 2.852,14.506 12.062,14.506 h 5.807 c -9.21,0 -12.272,-3.588 -12.063,-14.506 z m 236.283,3.936 7.856,-23.368 -17.452,-0.927 c 0,1.407 0.727,2.266 5.019,3.085 1.708,0.325 3.61,0.642 5.582,0.935 l -5.9,17.56 c -2.134,6.295 -0.58,8.924 8.181,11.02 -4.33,-1.037 -5.072,-3.04 -3.286,-8.313 m -299.061,-38.468 0.278,-0.82 -22.964,-1.406 c 0,1.214 0.603,1.987 4.902,2.83 3.533,0.688 7.245,1.275 11.142,1.832 -6.983,19.896 -11.993,23.166 -25.78,26.583 l -6.742,20.035 h 5.807 l 5.97,-17.738 c 14.158,-3.58 19.949,-9.24 27.387,-31.307 m -181.012,17.327 -0.216,-5.528 -30.89,-1.524 c 0,1.198 0.919,2.165 3.657,2.567 6.054,0.882 13.492,1.755 21.564,2.474 l 0.078,2.01 c 1.26,26.747 6.503,32.392 29.267,32.392 1.183,0 2.359,-0.016 3.525,-0.023 -20.837,-0.395 -25.772,-6.55 -26.985,-32.376 m 66.057,13.981 c 13.121,-3.148 17.7,-7.563 24.38,-27.42 l -32.081,-1.485 c 0,1.238 1.027,2.165 3.363,2.568 5.907,0.99 13.74,1.964 21.596,2.668 -6.015,16.524 -10.817,19.446 -22.292,21.38 l -6.742,20.041 h 5.806 l 5.97,-17.745 v -0.008 z m 178.847,-73.998 -16.508,-0.874 c 0,1.183 0.835,2.312 5.165,2.961 1.522,0.225 3.41,0.495 5.498,0.765 l -0.217,15.033 5.807,-0.31 z m -204.086,-72.715 -27.83,-1.284 c 0,1.23 0.705,2.018 3.194,2.412 3.759,0.596 8.576,1.2 13.454,1.64 l -14.142,12.982 8.993,-0.78 16.33,-14.97 z m 142.043,30.125 c 5.39,0.68 12.611,1.446 20.352,2.11 l -5.305,15.759 5.938,-0.38 6.263,-18.626 -32.398,-1.508 c 0,1.214 0.72,2.088 5.142,2.645 m 14.815,-24.427 c 3.711,0.704 8.444,1.508 13.702,2.335 l -5.35,15.89 5.868,-0.186 6.572,-19.5 -25.841,-1.3 c 0,1.246 0.742,1.973 5.057,2.768 m 22.562,-6.826 c 1.523,-4.64 2.652,-8.52 3.379,-11.777 l -15.697,-1.244 c 0,1.267 0.673,2.072 4.965,2.938 1.337,0.27 2.776,0.54 4.298,0.827 -0.672,2.73 -1.638,5.916 -2.852,9.581 z M 207.417,270.56 c -0.1,-2.614 -1.214,-2.962 -3.054,-1.276 l -2.705,2.475 1.067,27.666 5.79,-0.441 -1.097,-28.432 v 0.008 z m 1.314,33.899 -24.016,-1.175 c 0,1.275 0.936,2.234 4.771,2.837 3.178,0.503 7.825,1.122 13.57,1.717 l 0.534,13.818 5.791,-0.24 -0.657,-16.958 h 0.008 z m 1.825,-85.365 c 0,1.152 0.719,2.195 5.034,2.914 0.61,0.093 1.33,0.217 2.087,0.325 l -17.483,16.045 -3.618,10.755 31.872,-29.204 -17.9,-0.828 z m 117.561,16.934 -70.54,-1.663 c 0,1.338 1.391,2.412 5.443,2.715 18.55,1.345 36.566,2.327 57.907,3.093 l -3.79,11.266 5.855,-0.148 5.134,-15.263 z m -7.87,-43.347 c 4.894,0.773 10.547,1.5 15.882,2.087 -0.472,1.524 -0.997,3.14 -1.592,4.887 l -1.71,5.089 5.831,-0.101 1.09,-3.232 c 1.253,-3.712 2.258,-6.952 3.047,-9.828 l -26.599,-1.53 c 0,1.29 1.26,2.195 4.044,2.636 m 133.721,131.733 0.417,-29.15 -24.951,-1.5 c 0,1.215 0.842,2.096 5.18,2.815 a 244.59,244.59 0 0 0 13.918,1.871 l -0.38,26.267 5.816,-0.294 v -0.008 z m -48.836,-51.883 6.827,-20.274 -18.797,-1.276 c 0,1.214 0.673,1.903 4.957,2.839 2.01,0.44 4.414,0.911 7.043,1.398 l -5.876,17.453 5.853,-0.148 -0.007,0.009 z m -68.224,-62.615 -51.682,-1.585 c 0,1.492 1.925,2.436 5.443,2.714 10.446,0.812 23.993,1.663 39.226,2.475 l -5.776,17.188 5.83,-0.077 6.967,-20.715 h -0.007 z m -186.099,53.398 6.518,-19.392 -26.36,-1.515 c 0,1.067 0.983,1.755 3.58,2.189 3.866,0.641 9.867,1.507 15.99,2.258 l -5.605,16.662 5.877,-0.201 z m 161.512,19.68 8.822,-26.229 -40.796,-1.685 c -0.03,1.168 1.145,2.211 4.098,2.544 8.181,0.935 19.772,2.05 29.631,2.876 l -7.601,22.602 5.837,-0.108 z"
     fill="#ffffff"
     id="path13" />
  <path
     d="m 863.408,160.212 -17.8,52.828 h -16.307 c 0.402,-5.374 0.604,-10.161 0.596,-14.429 l -35.615,-1.555 c 0,-1.329 1.276,-2.736 6.658,-2.89 l 28.826,-0.805 c -0.21,-3.96 -0.65,-7.369 -1.338,-10.292 l -18.179,-0.797 c 0,-1.391 1.168,-2.52 6.55,-3.123 l 9.982,-1.13 c -3.271,-7.43 -9.233,-10.237 -18.457,-10.237 -13.81,0 -23.49,7.4 -28.347,21.078 -5.815,16.37 -3.224,26.73 10.632,40.834 l 12.519,12.767 c 27.79,28.339 32.166,49.401 21.31,79.116 -10.896,29.792 -34.13,45.829 -77.408,45.829 -18.387,0 -39.017,-2.08 -53.879,-5.62 -4.33,-1.03 -5.064,-3.04 -3.278,-8.313 l 7.856,-23.367 -17.452,-0.927 c 0,-1.292 0.858,-2.676 4.84,-3.055 l 14.251,-0.897 10.81,-32.135 h 17.32 c -3.665,41.174 4.33,53.492 25.68,53.492 13.291,0 23.28,-5.753 29.165,-18.024 l -24.163,-1.454 c 0,-1.275 1.299,-2.598 6.658,-2.892 l 19.694,-1.06 c 1.98,-5.768 2.892,-11.095 2.497,-16.268 l -46.07,-1.748 c 0,-1.29 1.33,-2.752 6.658,-2.89 l 38.484,-0.82 c -1.516,-5.707 -4.755,-11.36 -10.067,-17.375 l -27.342,-1.206 c 0,-1.362 1.26,-2.621 6.611,-2.992 l 15.72,-1.098 -6.573,-6.727 -36.99,-1.617 c 0,-1.307 1.276,-2.737 6.657,-2.884 l 25.261,-0.71 c -8.095,-8.452 -14.15,-16.556 -18.008,-24.954 l -47.159,-1.786 c 0,-1.46 1.33,-2.76 6.658,-2.892 l 38.305,-0.819 a 52.514,52.514 0 0 1 -2.8,-16.044 l -18,-0.673 c 0,-1.384 1.152,-2.529 6.526,-3.162 l 11.622,-1.393 c 0.456,-6.432 1.94,-13.275 4.523,-20.738 3.48,-10.083 8.39,-18.58 14.684,-25.508 l -22.338,-1.337 c 0,-1.4 1.298,-2.6 6.657,-2.892 l 21.248,-1.145 c 12.789,-10.91 30.14,-16.563 52.07,-16.563 15.146,0 33.426,1.857 46.578,4.926 4.686,1.09 5.39,2.62 3.464,8.343 m -156.663,110.1 5.97,-17.738 h -74.926 l -5.962,17.738 c 13.995,2.087 17.606,6.116 13.369,22.237 l -29.607,0.836 c -5.382,0.154 -6.658,1.53 -6.658,2.891 l 34.749,1.516 a 183.748,183.748 0 0 1 -1.63,5.042 l -3.75,11.15 -19.819,1.066 c -5.35,0.287 -6.65,1.609 -6.65,2.893 l 24.643,1.476 -3.866,11.49 -10.322,0.796 c -5.39,0.418 -6.65,1.585 -6.65,2.892 l 15.332,1.214 -2.01,5.962 c -0.758,2.243 -2.025,3.255 -4.028,3.542 -3.147,0.455 -6.596,0.564 -10.23,0.564 -8.05,0 -15.318,-2.274 -18.573,-7.291 -5.467,-8.429 -4.786,-23.506 16.045,-84.09 18.534,-54.01 26.22,-68.8 35.893,-78.373 5.35,-5.297 12.224,-8.258 20.638,-8.258 10.871,0 17.567,5.397 19.585,21.913 l -11.026,1.106 c -5.39,0.541 -6.557,1.716 -6.557,3.108 l 18.032,0.828 c 0.162,2.721 0.223,5.69 0.185,8.93 l -28.942,0.812 c -5.382,0.155 -6.658,1.585 -6.658,2.892 l 35.446,1.547 a 253.34,253.34 0 0 1 -0.813,12.177 h 17.344 l 20.646,-61.332 c 2.064,-6.139 1.305,-7.461 -3.79,-8.42 -14.915,-2.753 -32.088,-4.393 -45.11,-4.393 -32.135,0 -53.09,8.313 -69.567,24.76 -3.866,3.858 -7.523,8.304 -11.073,13.454 l -20.32,1.121 c -5.366,0.293 -6.658,1.57 -6.658,2.892 l 23.584,1.19 c -2.737,4.431 -5.428,9.34 -8.104,14.83 l -8.822,0.69 c -5.39,0.409 -6.65,1.484 -6.65,2.883 l 13.277,1.052 c -1.887,4.098 -3.773,8.528 -5.676,13.253 l -10.577,0.82 c -5.39,0.417 -6.658,1.616 -6.658,2.891 l 15.294,1.215 a 533.278,533.278 0 0 0 -6.68,18.348 720.104,720.104 0 0 0 -3.17,9.387 l -12.133,0.935 c -5.397,0.418 -6.657,1.578 -6.657,2.893 l 17.111,1.353 c -5.66,17.698 -9.31,32.197 -11.01,44.313 l -16.215,0.936 c -5.358,0.293 -6.65,1.592 -6.65,2.892 l 22.23,1.407 c -0.812,8.15 -0.65,15.147 0.464,21.264 l -24.48,0.789 c -5.39,0.17 -6.657,1.554 -6.657,2.892 l 32.39,1.538 c 1.384,4.632 3.395,8.73 6.03,12.441 8.011,11.297 25.232,18.024 49.326,18.024 19.152,0 37.555,-2.103 51.674,-6.178 2.714,-0.78 3.804,-1.91 4.894,-5.134 l 22.03,-65.493 c 4.74,-14.072 7.902,-17.582 19.192,-20.366 M 585.17,168.192 l 5.97,-17.745 h -61.774 l -5.968,17.745 c 13.809,3 17.598,8.32 12.425,26.623 l -20.807,1.151 c -5.359,0.295 -6.65,1.54 -6.65,2.892 l 25.826,1.307 c -0.17,0.526 -0.34,1.044 -0.534,1.593 l -9.666,28.695 -10.763,0.843 c -5.397,0.41 -6.658,1.56 -6.658,2.89 l 15.752,1.246 -23.314,69.196 c -1.26,3.758 -2.373,3.68 -2.31,-0.116 l 1.994,-139.367 c 0.147,-10.948 -2.645,-14.683 -13.014,-14.683 h -56.345 l -5.969,17.746 c 8.336,2.443 11.707,5.389 10.887,13.616 l -9.866,0.766 c -5.39,0.417 -6.658,1.484 -6.658,2.892 l 15.704,1.244 c -0.719,3.255 -1.864,7.138 -3.386,11.776 l -20.978,1.16 c -5.366,0.295 -6.658,1.509 -6.658,2.885 l 25.85,1.306 -6.573,19.502 -27.52,0.858 c -5.388,0.17 -6.649,1.438 -6.649,2.892 l 32.398,1.5 -6.27,18.635 -13.841,0.873 c -5.367,0.34 -6.658,1.515 -6.658,2.892 l 18.797,1.276 -6.827,20.273 -32.963,0.836 c -5.327,0.139 -6.657,1.477 -6.657,2.892 l 37.841,1.562 -10.461,31.068 -18.349,1.02 c -5.367,0.294 -6.402,1.555 -6.402,2.892 l 22.964,1.4 -0.278,0.82 c -7.438,22.076 -13.223,27.728 -27.388,31.308 l -5.961,17.745 h 61.772 l 5.97,-17.745 c -15.426,-3.348 -18.357,-9.573 -10.26,-33.566 L 453.49,198.371 c 1.198,-3.58 2.334,-3.587 2.273,0.124 l -0.99,68.887 -9.928,1.028 c -5.389,0.557 -6.65,1.748 -6.65,3.063 l 16.51,0.873 -0.256,17.575 -18.365,0.99 c -5.358,0.279 -6.658,1.384 -6.658,2.885 l 24.952,1.5 -0.417,29.15 -22.16,1.128 c -5.366,0.295 -6.658,1.463 -6.658,2.885 l 28.741,1.346 -0.278,19.778 c -0.209,10.926 2.845,14.506 12.062,14.506 h 36.705 L 557.79,199.523 c 7.44,-22.075 13.23,-27.727 27.388,-31.308 m -241.981,144.888 39.52,-117.468 c 6.688,-19.873 11.257,-24.288 24.387,-27.435 l 5.961,-17.746 h -71.314 l -5.97,17.746 c 7.648,2.83 10.68,6.255 8.352,17.885 l -21.273,1.082 c -5.365,0.302 -6.657,1.524 -6.657,2.892 l 26.6,1.53 c -0.782,2.878 -1.794,6.125 -3.04,9.829 l -1.09,3.232 -46.796,0.796 c -5.35,0.101 -6.657,1.57 -6.657,2.892 l 51.682,1.586 -6.967,20.714 -65.7,0.843 c -5.336,0.07 -6.658,1.53 -6.658,2.891 l 70.55,1.663 -5.143,15.263 -35.977,0.905 c -5.329,0.132 -6.65,1.439 -6.65,2.884 l 40.787,1.686 -8.822,26.227 -43.293,0.843 c -5.35,0.101 -6.658,1.485 -6.658,2.892 l 48.165,1.586 -8.53,25.36 -27.186,0.852 c -5.389,0.17 -6.657,1.407 -6.657,2.892 l 32.08,1.485 c -6.68,19.856 -11.25,24.279 -24.38,27.418 l -5.961,17.746 h 71.315 l 5.969,-17.746 c -10.292,-3.812 -12.232,-8.683 -3.982,-33.218 m -89.81,16.37 -5.807,-95.602 c -0.193,-3.233 0.433,-4.57 2.684,-6.634 l 45.666,-41.825 c 13.872,-12.703 18.828,-15.417 27.566,-17.211 l 5.977,-17.761 h -65.493 l -5.969,17.745 c 12.202,2.335 13.594,12.187 -1.53,26.035 l -0.302,0.278 -26.73,0.913 c -5.39,0.17 -6.658,1.6 -6.658,2.892 l 27.828,1.283 -16.33,14.97 -17.135,1.485 c -5.39,0.533 -6.588,1.677 -6.588,3.03 l 17.892,0.828 -31.872,29.204 18,-53.498 c 6.68,-19.873 10.494,-21.999 23.607,-25.154 l 6.743,-20.034 H 173.62 l -5.96,17.745 c 7.321,2.714 10.406,5.962 8.612,16.447 l -17.536,1.044 c -5.359,0.301 -6.658,1.469 -6.658,2.892 l 23.004,1.492 c -0.696,2.69 -1.601,5.73 -2.738,9.2 l -43.432,0.844 c -5.35,0.1 -6.657,1.507 -6.657,2.892 l 48.311,1.585 -11.381,33.844 -21.551,1.09 c -5.366,0.295 -6.658,1.33 -6.658,2.892 l 26.36,1.523 -6.518,19.386 -28.393,0.974 c -5.39,0.162 -6.65,1.53 -6.65,2.884 l 33.225,1.538 -5.521,16.416 -16.64,0.92 c -5.366,0.294 -6.657,1.547 -6.657,2.892 l 21.58,1.322 -7.4,21.983 -30.627,0.882 c -5.328,0.13 -6.657,1.522 -6.657,2.884 l 35.468,1.64 -0.41,1.228 c -6.682,19.872 -11.25,24.28 -24.38,27.434 l -5.97,17.746 h 76.249 l 5.968,-17.746 c -14.9,-3.023 -17.381,-8.026 -8.907,-33.218 l 8.258,-24.534 21.04,-19.277 c 1.84,-1.685 2.954,-1.337 3.054,1.276 l 1.098,28.432 -17.19,1.298 c -5.357,0.38 -6.61,1.64 -6.61,2.985 l 24.009,1.183 0.657,16.958 -24.032,0.997 c -5.366,0.293 -6.658,1.5 -6.658,2.892 l 30.89,1.523 0.218,5.529 c 1.26,26.737 6.503,32.39 29.267,32.39 8.226,0 16.136,-0.332 21.68,-0.882 l 5.884,-17.66 c -9.68,-1.338 -12.495,-4.492 -13.245,-16.732 M 639.435,554.35 v 13.493 h -3.38 V 554.35 h -3.904 v -3.356 h 11.188 v 3.356 z m 18.286,13.5 v -9.943 l -2.838,6.201 H 651.9 l -2.838,-6.201 v 9.943 h -3.378 v -16.856 h 3.378 l 4.33,9 4.33,-9 h 3.38 v 16.856 h -3.38 z"
     fill="#010101"
     id="path14" />
</svg>
