<?xml version="1.0" encoding="UTF-8" standalone="no"?>
<svg
   fill="none"
   viewBox="0 0 918.32824 611.23462"
   version="1.1"
   id="svg5"
   sodipodi:docname="MIN.svg"
   width="918.32825"
   height="611.23462"
   inkscape:version="1.4 (86a8ad7, 2024-10-11)"
   xmlns:inkscape="http://www.inkscape.org/namespaces/inkscape"
   xmlns:sodipodi="http://sodipodi.sourceforge.net/DTD/sodipodi-0.dtd"
   xmlns="http://www.w3.org/2000/svg"
   xmlns:svg="http://www.w3.org/2000/svg">
  <defs
     id="defs5" />
  <sodipodi:namedview
     id="namedview5"
     pagecolor="#ffffff"
     bordercolor="#000000"
     borderopacity="0.25"
     inkscape:showpageshadow="2"
     inkscape:pageopacity="0.0"
     inkscape:pagecheckerboard="0"
     inkscape:deskcolor="#d1d1d1"
     inkscape:zoom="1.8359375"
     inkscape:cx="459.71064"
     inkscape:cy="305.8383"
     inkscape:window-width="3440"
     inkscape:window-height="1377"
     inkscape:window-x="-8"
     inkscape:window-y="-8"
     inkscape:window-maximized="1"
     inkscape:current-layer="svg5" />
  <path
     id="path6"
     style="fill:#ffffff"
     sodipodi:type="inkscape:offset"
     inkscape:radius="9.818923"
     inkscape:original="M 462.57031 -15.804688 C 390.08399 -15.804688 344.7382 26.785811 327.03125 65.650391 C 194.03544 97.215218 94.246094 164.33008 94.246094 164.33008 A 15.806713 15.806713 0 0 0 93.548828 190.06836 L 98.888672 194.09375 C 41.628408 227.93193 -10.042969 270.54492 -10.042969 270.54492 A 15.806713 15.806713 0 0 0 -15.501953 285.83008 C -15.501953 285.83008 -13.335513 296.0751 -6.421875 311.51953 C 0.49176268 326.96397 12.373022 348.7139 32.40625 375.06836 A 15.806713 15.806713 0 0 0 35.384766 378.05664 C 35.384766 378.05664 64.007785 399.60218 133.42188 425.82422 A 15.806713 15.806713 0 0 0 142.87109 426.36523 C 142.87109 426.36523 150.93593 424.62569 159.4668 421.24414 C 163.28999 422.4246 167.12138 423.55067 171.02734 424.54297 C 171.20399 426.51936 171.49711 428.6212 171.98242 430.82812 C 172.86413 434.83764 174.55568 439.06796 176.88867 443.31641 A 15.806713 15.806713 0 0 0 173.82227 459.43555 C 173.82227 459.43555 175.72657 463.8119 179.05273 468.48242 C 182.3789 473.15295 187.55487 479.16642 195.28125 485.60156 C 210.73401 498.47185 236.31085 512.943 277.49414 522.66992 A 15.806713 15.806713 0 0 0 284.83203 522.65234 C 298.65644 519.31882 339.15673 511.40346 380.08789 514.5625 C 421.01905 517.72154 460.33372 530.98946 480.41797 567.60156 A 15.806713 15.806713 0 0 0 505.35742 571.26953 L 548.39453 528.94531 C 552.87058 540.48438 564.08111 548.83984 577.07422 548.83984 C 593.90954 548.83984 607.87305 534.85682 607.87305 518.03516 C 607.87305 505.2373 599.76508 494.12439 588.48633 489.51953 L 742.30664 338.24609 A 15.806713 15.806713 0 0 0 731.22461 311.17188 L 717.29688 311.17188 L 878.66602 139.38281 A 15.806713 15.806713 0 0 0 872.13867 113.56641 C 872.13867 113.56641 860.16026 109.66157 844.76953 105.4043 C 845.91741 104.48761 849.25195 101.82812 849.25195 101.82812 A 15.806713 15.806713 0 0 0 843.42188 74.201172 C 843.42188 74.201172 728.19382 43.793624 588.46875 51.119141 C 584.43805 43.318225 577.87212 32.811199 567.39648 22.46875 C 547.70533 3.0279522 513.95463 -15.804688 462.57031 -15.804688 z M 577.46289 513.98242 C 577.59115 514.01823 578.11198 514.12109 578.24414 514.13672 C 578.41348 514.21519 578.3087 514.19728 578.60156 514.31836 L 578.60938 514.32031 C 579.32933 514.61843 579.64594 514.67213 579.83789 514.66992 C 579.87306 514.85858 579.98713 515.15838 580.41992 515.80664 C 580.85235 516.45435 581.08528 516.67621 581.24609 516.78125 C 581.17106 516.95698 581.0992 517.27323 581.09766 518.04102 A 15.806713 15.806713 0 0 0 581.09766 518.03906 C 581.09512 520.04826 579.06596 522.06641 577.07422 522.06641 C 575.06508 522.06641 573.04883 520.05378 573.04883 518.03516 C 573.04883 516.02115 575.05252 514.01367 577.07422 514.01367 C 577.37919 514.01329 577.28115 513.99012 577.46289 513.98242 z "
     d="m 462.57031,-25.623047 c -73.73256,0 -121.81589,42.025178 -142.32226,82.882813 C 187.58279,89.723059 88.765625,156.18164 88.765625,156.18164 c -6.7462,4.53637 -11.096252,12.44567 -11.316406,20.57227 -0.153525,5.66709 1.800833,11.27094 5.140625,15.84375 -53.357352,32.93702 -98.852583,70.34833 -98.873047,70.36523 -7.111921,5.85319 -10.644595,15.74702 -8.849609,24.78125 a 9.8199049,9.8199049 0 0 0 0.02344,0.11719 c 0,0 2.461899,11.44569 9.724609,27.66992 7.2230803,16.13571 19.4982277,38.54107 39.97461,65.47852 1.383786,1.82065 3.012008,3.45401 4.828125,4.84375 a 9.8199049,9.8199049 0 0 0 0.0625,0.0488 c 0,0 30.22802,22.57238 100.470701,49.10743 4.83372,1.82629 10.22373,2.13687 15.23828,0.89062 0.3255,-0.07 6.8253,-1.67278 14.47852,-4.39062 0.86126,0.25788 1.74968,0.49634 2.62109,0.74804 0.0493,0.23924 0.0504,0.43797 0.10352,0.67969 0.72086,3.27807 1.91848,6.48263 3.30859,9.6543 -3.01074,6.26242 -3.51522,13.75636 -1.07617,20.28125 a 9.8199049,9.8199049 0 0 0 0.19336,0.48047 c 0,0 2.25617,5.23537 6.23633,10.82421 3.80811,5.34726 9.56259,11.98859 17.94336,18.96875 16.76562,13.96375 43.81981,29.06143 86.23828,39.08008 a 9.8199049,9.8199049 0 0 0 0.002,0 c 3.89416,0.91942 8.00475,0.90847 11.89453,-0.0293 13.01937,-3.1394 53.01816,-10.86968 92.19922,-7.84571 39.30905,3.03385 74.5099,15.22077 92.47656,47.97266 a 9.8199049,9.8199049 0 0 0 0.002,0 c 3.79228,6.91153 10.93666,11.88021 18.73632,13.02734 7.79967,1.14714 16.07364,-1.5531 21.69532,-7.08008 a 9.8199049,9.8199049 0 0 0 0,-0.002 l 34.33984,-33.77148 c 7.44458,8.60245 18.31377,14.16015 30.49219,14.16015 22.27223,0 40.61719,-18.36765 40.61719,-40.62304 0,-11.92709 -5.32979,-22.61444 -13.63282,-30.0586 L 749.19141,345.24609 a 9.8199049,9.8199049 0 0 0 0.002,0 c 7.19733,-7.08129 9.56898,-18.63025 5.74414,-27.97461 -2.84542,-6.95156 -8.9954,-12.35638 -16.11328,-14.67578 L 885.82227,146.10547 a 9.8199049,9.8199049 0 0 0 0.002,-0.002 c 5.85629,-6.2369 8.25924,-15.52787 6.16211,-23.82227 -2.09713,-8.2944 -8.62727,-15.3273 -16.74414,-18.03125 a 9.8199049,9.8199049 0 0 0 -0.0606,-0.0195 c 0,0 -8.54425,-2.50305 -12.94336,-3.85938 2.37018,-5.037817 3.36764,-10.726198 2.2168,-16.179684 -1.94768,-9.229458 -9.40419,-17.070876 -18.52344,-19.482422 a 9.8199049,9.8199049 0 0 0 -0.004,-0.002 c 0,0 -113.20577,-29.83124 -251.81445,-23.617187 C 589.68167,33.476865 583.3856,24.457517 574.29492,15.482422 552.86807,-5.6720127 516.35376,-25.623047 462.57031,-25.623047 Z M 573.13477,513.68359 a 9.8199049,9.8199049 0 0 0 -0.40235,0.94336 l -0.11719,-0.38476 c 0.0982,-0.11006 0.17935,-0.28493 0.27735,-0.38282 0.062,-0.062 0.17566,-0.11344 0.24219,-0.17578 z m 0.62695,4.33985 9.10547,0.01 c 0,8.1e-4 0,0.001 0,0.002 0,2.24919 -0.82554,3.38219 -1.6211,4.17773 -0.54124,0.54123 -1.39519,0.99359 -2.49218,1.29297 l -4.4336,-3.64258 z m -0.72461,4.42773 c 0.0696,0.0451 0.13429,0.0626 0.20898,0.10742 0.003,0.004 0.005,0.008 0.008,0.0117 -0.0109,-0.004 -0.33837,-0.19793 -0.2168,-0.11914 z m 6.08398,1.20117 c 0.0918,-0.0172 -0.18654,0.0246 -0.16601,0.0195 l -0.004,-0.004 c 0.0605,-0.01 0.11259,-0.005 0.16992,-0.0156 z"
     transform="translate(25.595111,25.623047)" />
  <path
     fill="#ddc9a3"
     d="m 602.66911,528.65705 c -8.281,0 -15.005,6.714 -15.005,15.001 0,8.278 6.724,15.001 15.005,15.001 8.282,0 14.995,-6.723 14.995,-15 0,-8.288 -6.713,-15.002 -14.995,-15.002 z m 0,26.784 a 11.791,11.791 0 0 1 -4.511,-0.894 11.774,11.774 0 0 1 -7.271,-10.889 c 0,-6.51 5.265,-11.774 11.782,-11.774 6.51,0 11.78,5.264 11.78,11.774 0,6.512 -5.27,11.783 -11.78,11.783 z m 6.164,-15.26 a 5.097,5.097 0 0 0 -1.492,-3.595 5.092,5.092 0 0 0 -3.598,-1.487 h -7.228 v 17.123 h 3.213 v -6.954 h 2.306 l 3.246,6.954 h 3.553 l -3.389,-7.251 a 5.095,5.095 0 0 0 3.389,-4.79 z m -5.09,1.872 h -4.015 v -3.747 h 4.015 c 1.032,0 1.877,0.839 1.877,1.875 a 1.88,1.88 0 0 1 -1.877,1.872 z m 288.999,-387.868 c 0,0 -30.888,-10.284 -57.618,-15.422 0.328,-0.06 29.856,-23.658 29.856,-23.658 0,0 -119.106,-31.462003 -260.855,-22.048003 0,0 -20.646,-67.434 -115.96,-67.434 -70.925,0 -111.407,44.462 -123.994,79.093003 -133.726,29.933 -235.513,98.355 -235.513,98.355 l 24.567,18.517 c -62.923999,33.53 -127.629999,86.784 -127.629999,86.784 0,0 6.346,31.92 44.988,82.755 0,0 25.874,19.793 94.019999,45.536 0,0 13.035,-3.286 19.506,-6.581 9.35,3.125 18.997,5.76 28.501,7.502 -0.386,8.58 -2.866,20.866 12.98,35.45 l -11.516,6.106 c 0,0 14.23,35.249 92.647,53.77 29.942,-7.22 166.147,-32.97 213.15,52.713 l 236.949,-233.023 h -50.458 z"
     id="path1" />
  <path
     fill="#0e4431"
     d="m 847.47611,164.10605 c -28.836,-10.937 -67.388,-18.972 -67.388,-18.972 l 23.972,-18.512 c -129.5,-25.945 -218.207,-17.757 -218.207,-17.757 0,0 -17.753,-67.312003 -104.016,-67.312003 -83.398,0 -108.376,74.493003 -108.376,74.493003 -114.163,22.5 -221.608,88.137 -221.608,88.137 l 26.173,19.732 c -67.322,33.125 -137.082999,89.538 -137.082999,89.538 9.866,30.854 38.742,68.105 38.742,68.105 26.811999,18.657 85.645999,41.547 85.645999,41.547 8.472,-1.939 17.627,-7.077 17.627,-7.077 0,0 29.232,11.62 60.425,11.62 11.4,0 24.152,-1.37 24.152,-5.825 0,-7.694 -23.375,-10.04 -23.375,-18.652 0,-6.276 14.05,-15.083 67.462,-15.083 31.984,0 68.19,2.234 68.19,2.234 -26.328,0 -78.027,6.692 -78.027,18.96 0,9.506 35.13,10.002 35.13,22.808 0,18.534 -27.51,24.877 -59.554,24.877 -28.695,0 -42.305,-8.178 -48.83,-8.178 -2.5,0 -4.027,1.243 -4.027,2.856 0,6.664 12.787,20.06 23.023,23.819 l -13.84,8.04 c 15.526,20.554 73.325,35.976 73.325,35.976 164.903,-35.982 215.65,46.27 215.65,46.27 l 193.214,-200.08 h -45.46 z"
     id="path2" />
  <path
     fill="#eaaa00"
     d="m 559.01511,131.53905 c -53.133,-1.734 -106.489,1.422 -157.497,9.224 -0.391,3.223 -0.629,6.5 -0.629,9.827 0,3.694 0.28,7.32 0.752,10.882 49.65,-5.3 104.38,-7.094 159.08,-1.3 0.372,-3.149 0.594,-6.34 0.594,-9.582 0,-6.569 -0.815,-12.935 -2.3,-19.051 z m -77.906,99.264 c 29.525,0 55.315,-15.982 69.242,-39.75 -43.535,5.576 -85.23,12.831 -121.802,20.116 14.093,12.22 32.442,19.633 52.56,19.633 z m 0,-160.418003 c -40.972,0 -74.743,30.718003 -79.591,70.378003 0,0 40.228,-18.117 149.667,-29.14 -13.693,-24.597003 -39.936,-41.238003 -70.077,-41.238003 z"
     id="path3" />
  <path
     fill="#ac1a2e"
     d="m 559.01311,131.53905 a 80.564,80.564 0 0 1 2.3,19.051 c 0,3.243 -0.222,6.433 -0.594,9.581 34.801,3.679 69.606,10.424 103.102,21.3 -37.792,1.286 -76.306,4.823 -113.472,9.581 -13.927,23.769 -39.717,39.75 -69.243,39.75 -20.116,0 -38.466,-7.412 -52.559,-19.633 -77.476,15.446 -131.905,31.036 -131.905,31.036 38.358,1.707 60.031,10.6 60.031,10.6 -99.133,20.042 -191.3,58.25 -221.23,71.323 7.15,11.371 16.466,24.665 16.466,24.665 l -14.805,18.315 c 26.463,4.815 59.257,2.013 59.257,2.013 l 49.16,-30.106 38.576,11.572 11.628,-15.897 h -12.671 l 25.404,-40.96 21.357,40.943 h -9.566 l 6.47,14.12 26.652,-4.736 11.35,-14.457 h -10.147 l 15.147,-23.285 h -11.406 l 23.98,-40.59 20.485,41.916 -9.074,-0.004 13.739,24.457 h -10.834 l 22.194,40.435 22.174,-31.144 h -15.223 l 22.928,-34.481 h -14.717 l 33.055,-56.748 28.67,57.467 h -11.931 l 19.54,33.747 h -13.8 l 18.933,41.88 32.094,-52.444 h -17.71 l 26.222,-42.659 h -16.09 l 35.093,-71.315 36.856,74.69 h -12.94 l 23.728,39.273 h -16.225 l 18.171,38.909 29.65,-45.154 h -15.943 l 34.425,-49.623 h -18.482 l 55.15,-76.113 29.053,52.357 61.835,-76.085 c -71.245,-26.654 -152.49,-40.876 -234.308,-43.547 z m -158.126,19.051 c 0,-3.328 0.238,-6.604 0.629,-9.827 -74.552,11.4 -144.1,32.738 -200.523,63.287 0,0 87.084,-30.453 200.646,-42.578 -0.473,-3.561 -0.752,-7.188 -0.752,-10.882 z"
     id="path4" />
  <path
     fill="#ffffff"
     d="m 490.32911,179.55305 c -104.685,3.382 -198.819,29.495 -198.841,29.495 -0.72,-4.671 -1.43,-9.188 -2.16,-13.883 -3.243,5.486 -6.327,10.743 -9.568,16.185 -0.01,0 -47.358,17.355 -78.586,33.76 40.071,-13.815 72.574,-22.326 72.574,-22.326 a 1971.998,1971.998 0 0 1 -9.712,20.598 c 6.01,-5.366 11.742,-10.503 17.753,-15.883 4.306,2.295 8.426,4.547 12.777,6.864 -0.61,-5.12 -1.18,-10.098 -1.797,-15.287 0.016,-0.01 105.63,-29.377 197.56,-39.523 z"
     id="path5" />
</svg>
