<?xml version="1.0" encoding="UTF-8" standalone="no"?>
<svg
   fill="none"
   viewBox="0 0 747.45898 512.00049"
   version="1.1"
   id="svg5"
   sodipodi:docname="MTL_dark.svg"
   width="747.45898"
   height="512.00049"
   inkscape:version="1.4 (86a8ad7, 2024-10-11)"
   xmlns:inkscape="http://www.inkscape.org/namespaces/inkscape"
   xmlns:sodipodi="http://sodipodi.sourceforge.net/DTD/sodipodi-0.dtd"
   xmlns="http://www.w3.org/2000/svg"
   xmlns:svg="http://www.w3.org/2000/svg">
  <defs
     id="defs5" />
  <sodipodi:namedview
     id="namedview5"
     pagecolor="#ffffff"
     bordercolor="#000000"
     borderopacity="0.25"
     inkscape:showpageshadow="2"
     inkscape:pageopacity="0.0"
     inkscape:pagecheckerboard="0"
     inkscape:deskcolor="#d1d1d1"
     inkscape:zoom="1.8359375"
     inkscape:cx="373.65106"
     inkscape:cy="256.27234"
     inkscape:window-width="3440"
     inkscape:window-height="1377"
     inkscape:window-x="-8"
     inkscape:window-y="-8"
     inkscape:window-maximized="1"
     inkscape:current-layer="svg5" />
  <path
     fill="#ffffff"
     d="m 628.622,460.55448 c -8.282,0 -15.005,6.714 -15.005,15.001 0,8.278 6.723,15.001 15.005,15.001 8.281,0 14.995,-6.723 14.995,-15 0,-8.288 -6.713,-15.002 -14.995,-15.002 z m 0,26.784 a 11.791,11.791 0 0 1 -4.511,-0.894 11.763,11.763 0 0 1 -6.377,-6.378 11.769,11.769 0 0 1 -0.895,-4.51 c 0,-6.51 5.265,-11.775 11.783,-11.775 6.51,0 11.78,5.264 11.78,11.775 0,6.512 -5.27,11.782 -11.78,11.782 z m 6.164,-15.26 a 5.097,5.097 0 0 0 -1.493,-3.595 5.07,5.07 0 0 0 -3.597,-1.487 h -7.229 v 17.123 h 3.214 v -6.954 h 2.304 l 3.248,6.954 h 3.553 l -3.39,-7.251 a 5.093,5.093 0 0 0 3.39,-4.79 z m -5.09,1.872 h -4.016 v -3.747 h 4.015 a 1.88,1.88 0 0 1 1.878,1.876 1.877,1.877 0 0 1 -1.877,1.871 z m 35.2,-221.42 53.506,-56.21 -30.391,-140.102998 -135.172,-40.137 -12.157,11.27 C 495.48,13.860482 414.183,-0.09451768 359.876,4.8232392e-4 158.686,0.35048232 0.611,112.22348 0,254.67748 c 0,121.883 105.123,257.323 361.593,257.323 203.213,0 385.866,-135.284 385.866,-135.284 z"
     id="path1" />
  <path
     fill="#001e62"
     d="m 647.034,250.97448 56.096,-58.932 -27.054,-124.761998 -119.564,-35.493 -12.256,11.36 c -40.36,-13.317 -126.638,-29.234 -184.367,-29.133 -196.21,0.34 -345.307,107.966998 -345.88,240.731998 -0.594,139.174 134.391,243.235 347.582,243.235 149.185,0 302.034,-79.628 366.626,-124.896 l -81.184,-122.112 z"
     id="path2" />
  <path
     fill="#ffffff"
     d="m 383.653,298.19248 h -32.598 v 27.639 l 32.598,-0.038 z m 198.282,-36.73 c -25.333,-22.308 -62.222,-45.675 -108.927,-57.034 v 103.453 c 35.25,-9.746 73.927,-26.29 108.927,-46.42 z m -321.889,50.475 v -112.125 c -32.379,9.362 -68.666,27.687 -68.666,56.707 0,19.864 30.667,43.842 68.666,55.418 z m 91.741,-98.599 h 31.681 v -26.259 l -31.681,-1.288 z"
     id="path3" />
  <path
     fill="#ffffff"
     d="m 626.048,263.96248 c 0,0 -84.673,57.775 -178.02,75.213 v -164.04 c 101.362,12.752 161.402,79.023 161.402,79.023 l 67.54,-69.811 -21.69,-97.917998 -92.292,-26.99 -11.705,12.762 c -37.45,-14.636 -114.713,-33.6 -200.37,-33.6 -171.489,0 -311.535,97.163998 -311.786,217.074998 -0.248,116.78 118.62,217.876 310.489,217.876 177.256,0 305.196,-84.437 345.266,-107.07 z m -292.542,-30.9 v -67.192 c 23.45,-1.177 49.472,0.044 67.88,2.24 v 64.953 z m 67.88,44.435 v 67.658 c -19.091,2.274 -48.2,2.837 -67.88,1.383 v -69.041 z M 284.79,169.77548 v 172.135 c -28.256,0 -118.441,-33.16 -118.441,-85.398 0,-64.575 92.157,-82.407 118.441,-86.737 z"
     id="path4" />
  <path
     fill="#a6192e"
     d="m 621.106,288.23048 c -110.798,65.062 -184.534,77.693 -274.494,76.85 -126.441,-1.193 -198.447,-51.779 -198.447,-112.028 0,-54.318 66.054,-106.087 200.998,-106.087 90.79,0 200.274,24.33 258.742,81.962 l 48.684,-49.615 -16.624,-78.744 -71.783,-20.974998 -13.032,14.728 c -39.342,-15.771 -105.839,-37.576 -208.13,-37.576 -154.342,0 -289.696,89.147998 -289.696,197.069998 0,112.74 117.856,201.142 285.13,201.142 169.642,0 269.217,-63.953 326.731,-94.124 l -48.08,-72.604 z"
     id="path5" />
</svg>
