<?xml version="1.0" encoding="UTF-8" standalone="no"?>
<svg
   fill="none"
   viewBox="0 0 625.87 640"
   version="1.1"
   id="svg4"
   sodipodi:docname="NJD_dark.svg"
   width="625.87"
   height="640"
   inkscape:version="1.4 (86a8ad7, 2024-10-11)"
   xmlns:inkscape="http://www.inkscape.org/namespaces/inkscape"
   xmlns:sodipodi="http://sodipodi.sourceforge.net/DTD/sodipodi-0.dtd"
   xmlns="http://www.w3.org/2000/svg"
   xmlns:svg="http://www.w3.org/2000/svg">
  <defs
     id="defs4" />
  <sodipodi:namedview
     id="namedview4"
     pagecolor="#ffffff"
     bordercolor="#000000"
     borderopacity="0.25"
     inkscape:showpageshadow="2"
     inkscape:pageopacity="0.0"
     inkscape:pagecheckerboard="0"
     inkscape:deskcolor="#d1d1d1"
     inkscape:zoom="1.8359375"
     inkscape:cx="312.64681"
     inkscape:cy="320"
     inkscape:window-width="3440"
     inkscape:window-height="1377"
     inkscape:window-x="-8"
     inkscape:window-y="-8"
     inkscape:window-maximized="1"
     inkscape:current-layer="svg4" />
  <path
     fill="#ffffff"
     d="m 532.573,509.553 c -8.282,0 -15.006,6.714 -15.006,15.001 0,8.278 6.724,15.001 15.006,15.001 8.281,0 14.994,-6.723 14.994,-15 0,-8.288 -6.713,-15.002 -14.994,-15.002 z m 0,26.784 A 11.773,11.773 0 0 1 520.79,524.554 c 0,-6.51 5.265,-11.774 11.783,-11.774 6.51,0 11.78,5.264 11.78,11.774 0,6.513 -5.27,11.783 -11.78,11.783 z m 6.163,-15.26 a 5.097,5.097 0 0 0 -1.492,-3.596 5.083,5.083 0 0 0 -3.598,-1.486 h -7.228 v 17.123 h 3.213 v -6.954 h 2.306 l 3.246,6.954 h 3.553 l -3.389,-7.251 a 5.09,5.09 0 0 0 3.389,-4.79 z m -5.09,1.872 h -4.015 v -3.747 h 4.015 c 1.033,0 1.877,0.84 1.877,1.876 a 1.882,1.882 0 0 1 -1.877,1.871 z"
     id="path1" />
  <path
     fill="#ffffff"
     d="M 625.87,88.59 C 625.87,0.003 526.14,0.003 512.713,0.003 L 488.548,0 c 0,0 34.119,34.3 34.119,46.688 a 5.07,5.07 0 0 1 -5.078,5.067 h -86.897 a 5.073,5.073 0 0 1 -5.078,-5.067 C 425.614,34.301 459.733,0 459.733,0 426.617,0 379.133,7.402 346.145,30.847 a 280.74,280.74 0 0 0 -28.038,-1.405 c -153.247,0 -277.485,124.241 -277.485,277.497 0,30.24 4.852,59.339 13.8,86.585 C 33.905,418.599 0,469.938 0,535.384 0,591.944 27.949,640 27.949,640 c 0,0 49.766,-72.865 161.296,-72.865 8.54,0 10.742,-7.448 11.09,-8.89 35.754,16.786 75.665,26.191 117.772,26.191 153.253,0 277.491,-124.247 277.491,-277.497 0,-49.226 -12.83,-95.446 -35.312,-135.521 30.722,-9.44 65.584,-33.882 65.584,-82.828 z"
     id="path2" />
  <path
     fill="#000000"
     d="m 614.435,88.59 c 0,-55.012 -50.487,-79.067 -101.296,-77.165 0,0 20.977,20.228 20.977,35.252 0,7.98 -5.954,16.503 -22.64,16.503 h -75.182 c -16.904,0 -26.991,-5.81 -26.991,-15.55 0,-15.962 25.101,-34.601 25.101,-34.601 0,0 -50.888,3.064 -84.952,29.749 -10.289,-1.205 -20.734,-1.9 -31.344,-1.9 -146.935,0 -266.054,119.118 -266.054,266.061 0,50.633 14.15,97.963 38.705,138.25 -3.98,2.11 -7.997,3.514 -13.601,3.514 -18.63,0 -18.74,-41.298 -18.74,-41.298 0,0 -46.986,54.784 -46.986,127.978 0,45.067 19.04,83.834 19.04,83.834 0,0 52.724,-63.521 158.774,-63.521 0,0 -50.296,-20.206 -50.296,-44.602 0.006,-0.009 0.223,-2.595 1.925,-5.78 47.053,42.067 109.143,67.677 177.233,67.677 146.95,0 266.066,-119.111 266.066,-266.052 0,-52.711 -15.396,-101.804 -41.836,-143.14 25.66,-4.095 72.097,-21.633 72.097,-75.209 z M 80.036,306.94 c 0,-131.488 106.593,-238.078 238.071,-238.078 3.09,0 6.139,0.118 9.194,0.231 -4.913,9.72 -7.853,21.081 -7.853,34.425 0,61.16 67.793,61.755 67.793,61.755 l -33.076,87.385 -57.469,-72.784 c -20.407,-25.835 -41.546,-31.266 -55.688,-31.266 -28.867,0 -51.24,20.443 -66.489,60.752 L 100.806,404.157 C 87.503,374.472 80.038,341.581 80.038,306.939 Z m 29.728,115.2 c 15.399,-4.998 38.974,-10.844 65.032,-10.844 33.478,0 63.715,8.222 63.715,8.222 l 29.278,-77.336 27.754,50.374 -25.165,26.32 c -15.297,16.012 -53.451,6.004 -95.582,6.004 -29.245,0 -47.023,3.303 -59.035,7.465 a 235.194,235.194 0 0 1 -5.997,-10.205 z m 446.42,-115.2 c 0,131.483 -106.582,238.07 -238.077,238.07 -55.83,0 -107.128,-19.263 -147.73,-51.46 39.215,1.706 60.654,27.053 115.886,27.053 81.122,0 128.643,-49.168 146.065,-95.206 L 523.011,185.75 c 21.052,35.504 33.173,76.92 33.173,121.19 z"
     id="path3" />
  <path
     fill="#cc0000"
     d="m 535.746,23.18 c 0,0 9.795,9.207 9.795,23.497 0,14.29 -11.128,27.942 -34.064,27.942 h -75.183 c -29.214,0 -38.42,-14.925 -38.42,-26.989 0,-12.063 6.839,-18.523 6.839,-18.523 0,0 -73.839,14.39 -73.839,74.411 0,50.483 56.449,50.33 56.449,50.33 h 16.462 l -46.076,121.747 -69.983,-88.64 c -4.347,-5.5 -21.364,-26.916 -46.717,-26.916 -35.249,0 -50.573,39.547 -55.801,53.359 l -74.365,196.507 c 0,0 27.518,-10.04 63.954,-10.04 30.732,0 56.593,6.211 56.593,6.211 L 265.856,315 l 43.737,79.39 -30.96,32.388 c -20.366,21.307 -62.89,9.524 -103.836,9.524 -76.446,0 -69.064,23.82 -97.64,23.82 -20.242,0 -25.49,-24.575 -25.49,-24.575 0,0 -28.807,47.752 -28.807,99.837 0,33.818 11.873,63.564 11.873,63.564 0,0 59.573,-50.709 119.585,-50.709 0,0 -26.793,-12.856 -26.793,-37.145 0,-6.907 9.168,-29.055 38.7,-29.055 45.735,0 64.784,27.142 120.039,27.142 77.321,0 120.27,-47.905 135.383,-87.822 l 101.22,-267.51 c 0,0 80.145,0.152 80.145,-65.259 0,-60.012 -67.266,-65.41 -67.266,-65.41 z"
     id="path4" />
</svg>
