<?xml version="1.0" encoding="UTF-8" standalone="no"?>
<svg
   fill="none"
   viewBox="0 0 663.396 640"
   version="1.1"
   id="svg7"
   sodipodi:docname="NYI_dark.svg"
   width="663.396"
   height="640"
   inkscape:version="1.4 (86a8ad7, 2024-10-11)"
   xmlns:inkscape="http://www.inkscape.org/namespaces/inkscape"
   xmlns:sodipodi="http://sodipodi.sourceforge.net/DTD/sodipodi-0.dtd"
   xmlns="http://www.w3.org/2000/svg"
   xmlns:svg="http://www.w3.org/2000/svg">
  <defs
     id="defs7" />
  <sodipodi:namedview
     id="namedview7"
     pagecolor="#ffffff"
     bordercolor="#000000"
     borderopacity="0.25"
     inkscape:showpageshadow="2"
     inkscape:pageopacity="0.0"
     inkscape:pagecheckerboard="0"
     inkscape:deskcolor="#d1d1d1"
     inkscape:zoom="1.8359375"
     inkscape:cx="331.71064"
     inkscape:cy="320"
     inkscape:window-width="3440"
     inkscape:window-height="1377"
     inkscape:window-x="-8"
     inkscape:window-y="-8"
     inkscape:window-maximized="1"
     inkscape:current-layer="svg7" />
  <path
     fill="#ffffff"
     d="m 581.336,562.769 c -8.282,0 -15.006,6.713 -15.006,15 0,8.279 6.724,15.002 15.006,15.002 8.281,0 14.994,-6.723 14.994,-15.001 0,-8.288 -6.713,-15.001 -14.994,-15.001 z m 0,26.783 a 11.76,11.76 0 0 1 -10.889,-7.271 11.773,11.773 0 0 1 -0.894,-4.511 c 0,-6.51 5.265,-11.774 11.783,-11.774 6.51,0 11.78,5.264 11.78,11.774 0,6.512 -5.27,11.782 -11.78,11.782 z m 6.163,-15.259 a 5.097,5.097 0 0 0 -1.492,-3.595 5.092,5.092 0 0 0 -3.598,-1.487 h -7.228 v 17.122 h 3.213 v -6.954 h 2.306 l 3.246,6.954 h 3.553 l -3.389,-7.25 a 5.09,5.09 0 0 0 3.389,-4.79 z m -5.09,1.872 h -4.015 v -3.747 h 4.015 c 1.033,0 1.877,0.839 1.877,1.875 a 1.88,1.88 0 0 1 -1.877,1.872 z"
     id="path1" />
  <path
     fill="#ffffff"
     d="M 331.699,0 C 148.499,0 0,143.271 0,320.007 0,496.735 148.5,640 331.7,640 514.89,640 663.396,496.735 663.396,320.007 663.396,143.27 514.89,0 331.698,0 Z"
     id="path2" />
  <path
     fill="#f26924"
     d="m 331.7,23.577 c -170.158,0 -308.089,132.716 -308.089,296.43 0,163.703 137.931,296.42 308.09,296.42 170.145,0 308.085,-132.717 308.085,-296.42 0,-163.714 -137.94,-296.43 -308.086,-296.43 z"
     id="path3" />
  <path
     fill="#00468b"
     d="m 106.753,390.43 v -19.35 l -19.12,-16.792 v 37.35 c 5.833,-1.558 13.019,0.433 19.12,-1.208 z"
     id="path4" />
  <path
     fill="#00468b"
     d="m 620.191,302.401 c -27.132,9.517 -60.914,20.618 -87.097,29.612 -8.816,-1.435 -14.847,3.502 -21.103,7.642 -9.329,4.031 -21.084,2.414 -30.287,6.33 -8.58,7.092 -21.285,10.088 -31.817,5.594 -2.83,-3.224 -6.554,-7.13 -11.008,-6.107 -7,0.694 -8.462,13.382 -17.126,6.769 -5.347,2.817 -10.023,6.732 -15.932,8.158 l -8.898,2.202 -3.347,7.136 -3.052,6.484 -2.043,4.355 -3.046,6.485 -2.043,4.361 -3.059,6.485 -2.05,4.358 -3.04,6.488 -24.502,52.167 a 11.846,11.846 0 0 1 -7.986,6.488 l -39.499,9.414 c 0.185,0.188 0.387,0.357 0.506,0.596 l 26.136,54.27 v -49.549 a 2.458,2.458 0 0 1 0.826,-1.848 2.46,2.46 0 0 1 1.932,-0.605 l 14.183,1.673 a 2.454,2.454 0 0 1 2.179,2.447 v 89.616 c 0,1.3 -1.015,2.384 -2.325,2.457 l -15.812,0.942 a 2.46,2.46 0 0 1 -2.338,-1.339 l -30.925,-60.298 v 57.438 a 2.457,2.457 0 0 1 -0.85,1.862 2.464,2.464 0 0 1 -1.95,0.588 l -14.183,-1.944 a 2.468,2.468 0 0 1 -2.133,-2.454 v -87.956 l -16.56,3.948 13.12,83.119 a 1.959,1.959 0 0 1 -0.667,1.798 1.96,1.96 0 0 1 -1.898,0.38 l -15.896,-5.174 a 1.957,1.957 0 0 1 -1.336,-1.571 l -2.999,-18.835 -20.8,-6.779 -3.921,15.512 a 2.01,2.01 0 0 1 -0.959,1.243 2.024,2.024 0 0 1 -1.564,0.15 l -15.208,-4.938 a 1.97,1.97 0 0 1 -1.303,-2.364 l 13.598,-53.047 -13.174,3.145 a 4.468,4.468 0 0 1 -4.786,-1.951 4.452,4.452 0 0 1 -0.641,-1.713 l -8.095,-53.12 a 4.452,4.452 0 0 1 0.833,-3.326 4.447,4.447 0 0 1 2.953,-1.743 l 132.783,-18.28 a 11.82,11.82 0 0 0 9.017,-6.507 l 8.416,-17.086 3.167,-6.428 2.124,-4.316 3.16,-6.432 2.13,-4.308 3.158,-6.429 0.85,-1.72 c -6.177,-0.39 -15.244,4.276 -19.86,5.312 -7.014,2.126 -17.628,-1.462 -20.185,7.79 -4.103,3.042 -10.872,3.915 -15.697,1.574 -5.714,-8.769 -15.69,-1.461 -22.297,-1.349 -10.519,1.6 -18.878,-7.172 -28.69,-2.162 -12.687,7.645 -27.832,-6.653 -38.51,5.416 -6.805,0.516 -13.19,-2.708 -20.505,-2.199 -10.72,-0.033 -19.973,3.34 -29.962,5.129 -11.286,7.427 -26.798,3.842 -39.8,2.883 -6.544,2.642 -14.646,1.908 -21.745,2.09 v 71.31 c 0,4.213 -2.176,5.393 -5.569,0.506 l -13.551,-19.47 v -51.139 c -4.428,-2.298 -8.151,3.366 -12.251,5.12 -4.101,1.943 -7.702,-1.426 -9.435,-4.79 0,-1.798 -1.253,-3.408 -3.045,-4.318 -2.126,-0.337 -5.83,0.883 -9.067,2.133 a 258.912,258.912 0 0 1 -3.621,-15.049 c 2.725,-1.713 6.051,-4.02 5.095,-7.093 -1.808,-3.73 -6.739,-3.373 -8.005,-7.867 0.536,-4.464 1.845,-10.32 7.156,-11.378 3.938,-3.727 3.432,-11.227 2.215,-16.382 -3.558,-4.646 -8.37,-8.422 -6.421,-14.996 0,-1.765 -1.802,-3.922 0.016,-5.535 4.302,-1.753 8.571,2.308 11.61,5.198 2.85,0.585 3.588,-2.675 4.788,-4.279 1.072,-2.272 -0.707,-4.977 -3.009,-5.526 -1.958,0.513 -3.78,-0.909 -3.859,-2.698 0.718,-3.006 1.717,-5.863 5.152,-6.702 3.704,-1.287 7.315,0.141 10.317,2.122 3.548,3.218 3.178,8.383 6.766,11.078 4.613,-4.272 1.1,-13.022 6.474,-17.109 7.665,-3.373 15.115,-9.077 24.417,-7.622 2.51,4.838 0.827,13.77 8.843,14.13 2.195,-1.942 2.37,-6.958 6.478,-4.977 3.597,1.465 3.366,7.681 7.641,6.802 4.319,-8.012 -3.875,-14.633 -2.824,-22.278 5.75,-3.766 13.373,-0.519 17.457,3.948 1.829,3.734 -5.347,5.857 -0.387,8.935 7.153,-2.678 10.36,5.55 16.666,3.945 4.057,-7.463 12.78,-8.353 20.075,-6.368 10.727,-0.143 16.947,15.925 28.157,9.556 6.114,-4.107 17.989,1.604 19.847,-8.171 -0.73,-4.269 2.308,-8.227 5.936,-9.391 6.028,-1.839 11.702,10.67 16.735,1.243 9.385,3.77 20.449,3.615 30.773,5.268 15.882,8.416 36.77,7.232 54.696,7.787 15.585,8.28 37.74,-3.525 55.577,-0.69 l 8.343,-16.958 -69.888,-150.53 v 139.959 a 4.448,4.448 0 0 1 -4.441,4.444 h -67.96 a 4.444,4.444 0 0 1 -3.81,-2.156 l -44.618,-74.415 v 72.127 a 4.447,4.447 0 0 1 -4.44,4.444 h -60.583 a 4.43,4.43 0 0 1 -3.143,-1.301 4.45,4.45 0 0 1 -1.302,-3.143 V 106.77 C 83.096,157.664 42.566,234.281 42.566,320.006 c 0,153.218 129.438,277.425 289.134,277.425 159.683,0 289.129,-124.208 289.129,-277.425 0,-5.92 -0.255,-11.78 -0.638,-17.606 z m -457.468,148.85 c 0,3.34 -2.084,6.111 -6.343,2.272 l -10.062,-9.047 c -2.13,-1.932 -2.712,-3.634 -2.712,-5.88 v -3.869 c 0,-2.308 -0.919,-4.246 -2.301,-5.545 l -5.36,-4.818 c -3.294,-2.97 -4.031,1.144 -4.031,1.144 v 2.84 c 0,3.212 1.882,5.712 1.882,5.712 l 21.04,27.373 c 4.26,5.555 7.887,13.779 7.887,21.924 v 16.42 c 0,14.299 -6.002,20.327 -12.946,14.134 l -28.59,-25.75 c -5.836,-5.26 -8.39,-13.085 -8.39,-16.967 v -14.9 c 0,-4.864 0.953,-6.379 2.844,-4.56 l 12.487,11.412 c 1.901,1.537 3.786,4.689 3.786,6.478 v 3.293 c 0,2.645 -0.195,5.704 1.736,7.186 l 5.403,4.616 c 1.99,1.792 4.554,2.057 4.554,-0.85 v -3.617 c 0,-2.223 -0.53,-4.048 -1.941,-5.873 l -24.99,-32.635 c -2.222,-2.903 -3.878,-5.806 -3.878,-10.737 v -25.686 c 0,-6.178 7.446,-14.62 18.134,-4.993 l 27.608,24.85 c 1.726,1.557 4.183,4.963 4.183,10.637 z m 43.675,94.894 a 2.471,2.471 0 0 1 -3.73,2.123 L 172.14,530.163 a 2.477,2.477 0 0 1 -1.207,-2.13 v -89.298 c 0,-0.89 0.473,-1.7 1.244,-2.14 a 2.447,2.447 0 0 1 2.483,0.02 l 14.176,8.406 a 2.451,2.451 0 0 1 1.21,2.12 v 75.49 l 15.145,8.97 a 2.486,2.486 0 0 1 1.207,2.134 z m 214.208,3.968 c 0,2.45 0,13.958 -19.12,17.367 l -38.742,6.924 a 2.504,2.504 0 0 1 -2.02,-0.542 2.493,2.493 0 0 1 -0.886,-1.888 v -89.157 c 0,-1.19 0.833,-2.195 1.99,-2.427 l 39.658,-7.9 c 19.12,-3.802 19.12,7.649 19.12,7.649 z m -32.407,-129.43 v -22.541 c 0,-7.583 18.197,-13.733 40.644,-13.733 22.446,0 40.646,6.15 40.646,13.732 v 22.543 c 0,7.585 -18.2,13.726 -40.646,13.726 -22.447,0 -40.644,-6.141 -40.644,-13.727 z m 82.49,39.96 c 0,0.75 -0.43,1.441 -1.11,1.772 l -18.376,8.994 a 1.958,1.958 0 0 0 -0.806,0.727 1.96,1.96 0 0 0 -0.292,1.046 v 18.157 a 1.973,1.973 0 0 0 1.868,1.969 c 0.334,0.017 0.666,-0.052 0.966,-0.2 l 14.9,-7.288 a 1.965,1.965 0 0 1 1.911,0.092 c 0.586,0.367 0.94,0.996 0.94,1.683 v 12.755 a 1.96,1.96 0 0 1 -1.171,1.799 l -18.253,8.223 a 1.96,1.96 0 0 0 -1.161,1.802 v 16.99 c 0,0.662 0.34,1.287 0.9,1.654 0.562,0.37 1.263,0.42 1.881,0.139 l 15.016,-6.762 a 1.958,1.958 0 0 1 1.881,0.158 c 0.563,0.36 0.906,0.979 0.906,1.654 v 12.681 c 0,0.78 -0.46,1.485 -1.17,1.799 l -35.746,16.094 a 1.974,1.974 0 0 1 -1.885,-0.14 c -0.562,-0.36 -0.9,-0.988 -0.9,-1.666 v -89.798 c 0,-0.75 0.42,-1.431 1.102,-1.769 l 35.749,-17.499 a 1.987,1.987 0 0 1 2.599,0.818 c 0.163,0.293 0.25,0.623 0.251,0.958 z m 58.341,38.916 -11.11,7.54 c -0.87,0.585 -2.04,0.403 -2.676,-0.437 l -16.639,-21.765 -3.135,2.176 v 34.231 c 0,0.652 -0.33,1.267 -0.87,1.637 l -15.17,10.291 a 1.96,1.96 0 0 1 -2.038,0.115 2.001,2.001 0 0 1 -0.764,-0.728 2.002,2.002 0 0 1 -0.284,-1.017 v -88.79 c 0,-0.654 0.317,-1.26 0.856,-1.63 l 29.807,-20.568 c 9.11,-6.28 17.083,-5.119 17.083,7.351 V 451.5 c 0,15.191 -11.183,23.531 -11.183,23.531 l 16.573,21.699 a 1.965,1.965 0 0 1 -0.45,2.83 z m 40.974,-112.326 c 0,2.066 -0.208,5.095 -2.103,7.043 l -11.14,11.52 c -1.283,1.327 -2.08,0.477 -2.08,-0.952 v -6.997 c 0,-3.452 -1.346,-3.459 -3.224,-1.547 l -1.783,1.835 c -2.602,2.695 -2.602,6.567 -2.602,8.026 v 4.867 c 0,3.042 0.86,5.244 4.044,5.803 l 8.882,1.548 c 4.206,0.734 10.006,3.532 10.006,10.337 0,5.69 0,15.575 -7.476,25.455 l -18.204,24.04 c -7.55,9.937 -14.953,7.146 -14.953,-7.182 v -7.983 c 0,-2.54 0.655,-4.087 2.103,-5.406 l 12.142,-12.496 c 2.08,-2.1 3.456,-2.103 3.456,1.193 v 3.949 c 0,4.632 3.61,0.932 5.175,-0.622 1.57,-1.564 2.434,-2.483 2.434,-6.207 v -2.311 c 0,-2.447 -1.902,-3.39 -5.3,-4.15 l -10.526,-2.364 c -8.201,-1.72 -9.484,-7.394 -9.484,-13.73 v -9.037 c 0,-6.792 1.114,-12.679 6.048,-18.23 l 19.262,-21.246 c 7.027,-7.774 15.323,-8.928 15.323,3.17 z"
     id="path5" />
  <path
     fill="#00468b"
     d="m 249.228,527.286 -5.645,-35.537 -7.89,31.13 z m 253.313,-84.447 -6.223,4.292 a 1.963,1.963 0 0 0 -0.847,1.627 v 15.78 c 0,0.727 0.4,1.409 1.045,1.746 0.652,0.34 1.439,0.29 2.04,-0.12 l 4.293,-2.972 c 2.294,-1.577 4.16,-5.33 4.16,-8.545 v -9.2 c 0,-2.648 -1.981,-4.328 -4.468,-2.608 z m -109.367,49.501 -14.209,2.831 v 59.975 l 15.085,-2.695 c 7.437,-1.336 7.437,-9.745 7.437,-9.745 v -44.29 c 0,0 0,-7.735 -8.313,-6.075 z M 270.365,66.73 a 4.449,4.449 0 0 1 4.45,-4.45 h 106.703 a 4.439,4.439 0 0 1 4.03,2.578 l 61.48,132.439 51.22,-104.007 C 451.158,61.373 393.733,42.564 331.701,42.564 c -38.301,0 -74.84,7.216 -108.299,20.195 l 46.963,90.707 z m 202.991,194.522 c 12.241,-3.726 23.488,-10.317 33.715,-19.533 9.13,-3.002 19.758,-4.758 29.573,-3.33 l 0.915,1.28 c -0.688,3.734 -5.373,6.59 -8.594,8.532 -6.934,0.138 -15.33,-1.068 -20.7,4.239 -7.497,7.824 -16.944,13.131 -23.954,20.78 0.549,2.483 3.386,4.463 1.782,7.274 -5.35,3.776 -13.905,0.923 -16.748,8.558 -2.368,14.643 -20.71,3.3 -27.89,12.77 -3.501,4.597 -13.894,10.179 -21.748,12.26 l -7.523,16.007 c 8.743,3.095 20.82,7.744 28.845,6.488 18.73,-5.999 25.948,-34.503 47.842,-32.813 12.324,2.162 23.193,-1.57 31.774,-9.761 8.39,-3.185 9.044,10.343 16.772,8.921 0.671,-4.943 1.104,-11.044 6.772,-13.138 2.685,-1.055 6.997,-0.694 7.348,2.857 -5.923,8.376 6.924,11.088 5.102,18.955 1.035,3.366 4.95,3.366 7.662,2.523 4.477,-8.558 13.753,-9.295 22.26,-9.775 6.667,-9.765 22.46,-0.651 26.12,-14.375 l 6.164,-2.08 c -8.713,-72.463 -46.47,-136.41 -101.877,-180.845 l -81.756,174.03 c 12.424,-4.265 29.788,-9.225 38.144,-19.824 z"
     id="path6" />
  <path
     fill="#ffffff"
     d="m 340.999,412.665 a 11.827,11.827 0 0 1 -9.017,6.507 l -132.783,18.28 a 4.443,4.443 0 0 0 -3.786,5.07 l 8.095,53.119 a 4.426,4.426 0 0 0 1.918,3.022 4.463,4.463 0 0 0 3.509,0.642 l 13.174,-3.145 7.85,-30.65 a 1.961,1.961 0 0 1 2.384,-1.422 l 25.812,6.313 a 1.95,1.95 0 0 1 1.475,1.6 l 2.312,14.665 16.56,-3.948 v -6.653 a 2.446,2.446 0 0 1 0.826,-1.849 2.451,2.451 0 0 1 1.935,-0.601 l 20.565,2.434 c 0.575,0.052 1.041,0.373 1.428,0.773 l 39.5,-9.414 a 11.852,11.852 0 0 0 7.985,-6.488 l 24.503,-52.167 -25.83,-13.174 z m 11.584,-23.515 25.7,13.115 2.05,-4.358 -25.627,-13.072 z m 37.941,-12.929 -25.24,-12.88 -1.28,2.606 -0.85,1.72 25.327,12.909 z m -32.657,2.183 25.525,13.018 2.043,-4.361 -25.439,-12.966 z M 447.026,197.297 385.547,64.859 a 4.447,4.447 0 0 0 -4.03,-2.58 H 274.815 a 4.45,4.45 0 0 0 -4.451,4.45 v 86.737 L 223.401,62.76 c -27.988,10.862 -53.807,25.753 -76.647,44.012 v 161.383 a 4.43,4.43 0 0 0 1.301,3.143 4.45,4.45 0 0 0 3.144,1.301 h 60.583 c 2.45,0 4.44,-1.99 4.44,-4.444 v -72.127 l 44.618,74.415 a 4.433,4.433 0 0 0 3.81,2.156 h 67.96 c 2.447,0 4.44,-1.99 4.44,-4.444 V 128.196 l 69.889,150.53 -8.343,16.956 -30.151,61.231 25.131,12.824 3.347,-7.136 15.26,-32.512 7.523,-16.008 15.506,-33.005 81.755,-174.03 C 510.933,102.208 504.68,97.648 498.247,93.29 Z M 428.842,411.87 c 22.448,0 40.645,-6.147 40.645,-13.73 0,-7.583 -18.197,-13.73 -40.645,-13.73 -22.448,0 -40.645,6.147 -40.645,13.73 0,7.583 18.197,13.73 40.645,13.73 z"
     id="path7" />
</svg>
