<?xml version="1.0" encoding="UTF-8" standalone="no"?>
<svg
   fill="none"
   viewBox="0 0 615.77197 591.99902"
   version="1.1"
   id="svg5"
   sodipodi:docname="NYR_dark.svg"
   width="615.77197"
   height="591.99902"
   inkscape:version="1.4 (86a8ad7, 2024-10-11)"
   xmlns:inkscape="http://www.inkscape.org/namespaces/inkscape"
   xmlns:sodipodi="http://sodipodi.sourceforge.net/DTD/sodipodi-0.dtd"
   xmlns="http://www.w3.org/2000/svg"
   xmlns:svg="http://www.w3.org/2000/svg">
  <defs
     id="defs5" />
  <sodipodi:namedview
     id="namedview5"
     pagecolor="#ffffff"
     bordercolor="#000000"
     borderopacity="0.25"
     inkscape:showpageshadow="2"
     inkscape:pageopacity="0.0"
     inkscape:pagecheckerboard="0"
     inkscape:deskcolor="#d1d1d1"
     inkscape:zoom="1.8359375"
     inkscape:cx="307.74468"
     inkscape:cy="296.03404"
     inkscape:window-width="3440"
     inkscape:window-height="1377"
     inkscape:window-x="-8"
     inkscape:window-y="-8"
     inkscape:window-maximized="1"
     inkscape:current-layer="svg5" />
  <path
     fill="#ffffff"
     d="m 557.524,538.769 c -8.282,0 -15.006,6.713 -15.006,15 0,8.279 6.724,15.002 15.006,15.002 8.281,0 14.994,-6.723 14.994,-15.001 0,-8.288 -6.713,-15.001 -14.994,-15.001 z m 0,26.783 a 11.76,11.76 0 0 1 -10.889,-7.271 11.773,11.773 0 0 1 -0.894,-4.511 c 0,-6.51 5.265,-11.774 11.783,-11.774 6.51,0 11.78,5.264 11.78,11.774 0,6.512 -5.27,11.782 -11.78,11.782 z m 6.163,-15.259 a 5.097,5.097 0 0 0 -1.492,-3.595 5.092,5.092 0 0 0 -3.598,-1.487 h -7.228 v 17.122 h 3.213 v -6.954 h 2.306 l 3.246,6.954 h 3.553 l -3.389,-7.25 a 5.09,5.09 0 0 0 3.389,-4.79 z m -5.09,1.872 h -4.015 v -3.747 h 4.015 c 1.033,0 1.877,0.839 1.877,1.875 a 1.88,1.88 0 0 1 -1.877,1.872 z"
     id="path1" />
  <path
     fill="#154b94"
     d="M 569.43,82.267 615.772,0 H 460.766 L 438.543,21.61 416.32,0 H 199.458 L 177.233,21.61 155.011,0 H 0 L 46.354,82.267 V 481.85 c 0,8.042 0,70.785 75.821,70.785 h 119.937 c 43.058,0 64.044,39.364 64.044,39.364 h 3.46 c 0,0 20.992,-39.364 64.05,-39.364 H 493.6 c 75.82,0 75.83,-62.743 75.83,-70.785 z"
     id="path2" />
  <path
     fill="#c32032"
     d="m 266.711,198.718 267.883,194.01 v -194.01 z"
     id="path3" />
  <path
     fill="#ffffff"
     d="m 81.19,171.399 h 453.406 v 10.933 H 81.19 Z m 0,310.452 c 0,31.864 21.9,35.955 40.987,35.955 h 119.937 c 27.294,0 49.38,14.323 65.771,27.48 16.395,-13.157 38.483,-27.48 65.783,-27.48 h 43.437 L 81.19,274.524 Z M 81.19,252 448.204,517.806 H 463.81 L 81.19,240.692 Z m 138.811,-53.282 314.594,227.85 V 415.266 L 235.613,198.718 Z m 129.737,215.948 26.538,19.222 7.731,-10.665 -15.688,-11.36 12.508,-17.28 15.688,11.365 7.722,-10.677 -15.678,-11.35 12.517,-17.273 15.676,11.354 7.728,-10.674 -26.545,-19.222 z m -132.878,-197.71 -24.55,-17.769 -48.203,66.552 10.854,7.874 21.582,-29.807 6.063,4.39 -10.19,38.056 10.866,7.862 10.305,-38.516 c 6.802,2.805 14.881,0.703 19.392,-5.508 l 7.522,-10.394 c 5.267,-7.277 3.64,-17.458 -3.64,-22.74 z m -8.694,16.913 -4.584,6.315 a 5.618,5.618 0 0 1 -3.666,2.257 5.623,5.623 0 0 1 -4.188,-0.997 l -11.453,-8.306 11.173,-15.42 11.46,8.298 a 5.628,5.628 0 0 1 1.258,7.853 z m 223.43,240.077 10.305,-38.517 c 6.796,2.815 14.878,0.72 19.386,-5.504 l 7.53,-10.391 c 5.27,-7.274 3.641,-17.458 -3.633,-22.734 l -24.562,-17.781 -48.213,66.554 10.872,7.875 21.58,-29.799 6.052,4.387 -10.177,38.054 z m 12.163,-76.39 11.46,8.3 a 5.628,5.628 0 0 1 1.261,7.854 l -4.578,6.312 c -1.816,2.516 -5.334,3.076 -7.853,1.258 l -11.466,-8.304 z m -150.323,-125.131 -48.209,66.558 10.866,7.868 28.94,-39.96 -11.491,52.595 10.86,7.866 48.203,-66.563 -10.857,-7.86 -28.939,39.949 11.488,-52.597 z m -102.838,26.99 10.864,7.871 13.71,-11.018 18.065,13.087 -6.184,16.459 10.86,7.868 29.972,-79.757 -10.851,-7.871 -66.435,53.36 z m 46.733,-0.95 -13.099,-9.48 23.868,-19.17 z m 132.497,29.28 -9.1,-6.59 c -7.29,-5.272 -17.461,-3.649 -22.737,3.626 l -29.107,40.2 c -5.276,7.276 -3.65,17.453 3.64,22.73 l 9.096,6.59 a 16.31,16.31 0 0 0 7.585,2.974 l -0.191,2.382 5.784,4.201 25.778,-35.592 -21.147,-15.323 -6.574,9.084 10.287,7.448 -8.18,11.286 a 5.62,5.62 0 0 1 -5.853,2.176 5.609,5.609 0 0 1 -1.993,-0.915 l -4.643,-3.366 c -2.51,-1.818 -3.08,-5.34 -1.255,-7.847 l 26.15,-36.116 a 5.624,5.624 0 0 1 7.856,-1.255 l 4.64,3.357 a 5.631,5.631 0 0 1 1.266,7.85 l -6.382,8.81 10.857,7.869 7.854,-10.848 c 5.27,-7.278 3.65,-17.452 -3.631,-22.731 z m 135.816,98.365 c -9.937,-7.204 -23.831,-4.983 -31.023,4.957 -13.053,18.021 12.133,39.9 5.282,49.364 -3.21,4.433 -9.41,5.429 -13.851,2.209 -4.43,-3.199 -5.423,-9.398 -2.212,-13.84 l 3.135,-4.328 -10.857,-7.865 -3.004,4.136 c -7.548,10.434 -5.215,25.022 5.218,32.571 10.43,7.549 25.01,5.224 32.562,-5.215 12.928,-17.84 -12.252,-39.738 -5.28,-49.359 a 8.792,8.792 0 0 1 5.744,-3.529 8.807,8.807 0 0 1 6.557,1.568 c 3.942,2.848 4.826,8.353 1.971,12.304 l -2.607,3.588 10.857,7.868 2.46,-3.409 c 7.202,-9.933 4.988,-23.83 -4.952,-31.02 z M 184.238,144.556 H 164.87 v -21.333 h 19.368 V 110.051 H 164.87 V 88.725 h 19.368 V 75.537 h -32.777 v 82.191 h 32.777 z m 244.211,-23.62 h 7.475 l 14.08,36.792 h 13.41 L 449.16,120.485 c 7.162,-1.718 12.472,-8.143 12.472,-15.831 V 91.826 c 0,-8.99 -7.28,-16.288 -16.27,-16.288 h -30.324 v 82.19 h 13.41 z m 0,-32.211 h 14.15 c 3.113,0 5.632,2.513 5.632,5.614 v 7.798 a 5.633,5.633 0 0 1 -5.632,5.633 h -14.15 z m -329.579,19.66 21.55,49.343 h 13.415 V 75.538 H 120.419 V 124.89 L 98.87,75.538 H 85.468 v 82.19 h 13.403 z m 277.114,49.343 h 11.222 c 9.002,0 16.291,-7.295 16.291,-16.282 v -49.62 c 0,-8.99 -7.29,-16.29 -16.291,-16.29 h -11.223 c -8.995,0 -16.29,7.301 -16.29,16.29 v 49.62 c 0,8.987 7.295,16.282 16.29,16.282 z m -2.876,-63.39 c 0,-3.1 2.516,-5.613 5.62,-5.613 h 5.733 a 5.609,5.609 0 0 1 5.194,3.464 c 0.283,0.681 0.429,1.412 0.43,2.15 v 44.597 a 5.622,5.622 0 0 1 -5.624,5.62 h -5.733 a 5.624,5.624 0 0 1 -5.62,-5.62 z m 118.474,29.364 6.01,-9.654 19.317,43.68 h 13.41 L 505.446,101.464 521.621,75.537 H 508.206 L 491.582,102.2 V 75.538 h -13.41 v 82.19 h 13.41 z m -170.334,34.026 h 13.413 v -34.026 l 17.7,-48.165 h -13.41 l -11.004,29.927 -11,-29.927 h -13.41 l 17.712,48.165 z m -94.832,0 7.028,-43.08 7.028,43.08 h 16.041 l 13.416,-82.19 h -13.416 l -8.011,49.166 -8.03,-49.167 h -14.056 l -8.024,49.167 -8.011,-49.167 h -13.416 l 13.416,82.191 z"
     id="path4" />
  <path
     fill="#ffffff"
     d="M 462.34,3.863 438.543,27.008 414.749,3.863 H 201.028 L 177.234,27.008 153.44,3.863 H 6.623 l 43.604,77.383 v 400.605 c 0,20.123 7.006,66.917 71.949,66.917 h 119.936 c 38.514,0 59.905,29.6 65.772,38.964 5.879,-9.364 27.27,-38.964 65.783,-38.964 h 119.934 c 64.946,0 71.961,-46.794 71.961,-66.917 V 81.246 L 609.157,3.863 Z m 85.542,72.756 v 405.232 c 0,22.463 -9.416,49.236 -54.281,49.236 H 373.667 c -30.48,0 -52.182,17.132 -65.783,30.755 -13.58,-13.623 -35.294,-30.755 -65.772,-30.755 H 122.177 c -44.859,0 -54.28,-26.773 -54.28,-49.236 V 76.62 L 36.864,21.54 h 109.4 l 30.97,30.116 30.975,-30.115 h 199.364 l 30.971,30.115 30.968,-30.115 H 578.915 L 547.883,76.62 Z"
     id="path5" />
</svg>
