<?xml version="1.0" encoding="UTF-8" standalone="no"?>
<svg
   fill="none"
   viewBox="0 0 805.29401 640.43799"
   version="1.1"
   id="svg26"
   sodipodi:docname="OTT_dark.svg"
   width="805.29401"
   height="640.43799"
   inkscape:version="1.4 (86a8ad7, 2024-10-11)"
   xmlns:inkscape="http://www.inkscape.org/namespaces/inkscape"
   xmlns:sodipodi="http://sodipodi.sourceforge.net/DTD/sodipodi-0.dtd"
   xmlns="http://www.w3.org/2000/svg"
   xmlns:svg="http://www.w3.org/2000/svg">
  <sodipodi:namedview
     id="namedview26"
     pagecolor="#ffffff"
     bordercolor="#000000"
     borderopacity="0.25"
     inkscape:showpageshadow="2"
     inkscape:pageopacity="0.0"
     inkscape:pagecheckerboard="0"
     inkscape:deskcolor="#d1d1d1"
     inkscape:zoom="1.8359375"
     inkscape:cx="402.51915"
     inkscape:cy="320"
     inkscape:window-width="3440"
     inkscape:window-height="1377"
     inkscape:window-x="-8"
     inkscape:window-y="-8"
     inkscape:window-maximized="1"
     inkscape:current-layer="g25" />
  <g
     clip-path="url(#a)"
     id="g25"
     transform="translate(-77.353,0.21900259)">
    <path
       fill="#ffffff"
       d="M 807.583,168.621 C 759.675,120.714 696.136,94.105 628.463,93.567 c 4.874,-22.31 12.464,-46.13 22.636,-70.99 l 0.187,-0.47 a 16.122,16.122 0 0 0 -7.094,-20.15 16.15,16.15 0 0 0 -7.431,-2.038 l -0.469,-0.01 a 327.229,327.229 0 0 0 -9.193,-0.128 c -25.373,0 -75.979,3.025 -129.858,23.3 -56.93,21.423 -102.461,55.967 -135.344,102.681 -13.555,19.26 -31.813,50.598 -41.842,90.522 a 374.434,374.434 0 0 0 -3.808,16.75 c -1.869,0.037 -3.749,0.053 -5.634,0.053 -22.498,0 -49.58,-2.481 -80.498,-7.392 -27.46,-4.367 -73.195,-19.664 -83.022,-23.381 a 481.018,481.018 0 0 1 -21.299,-8.66 l -8.303,-3.665 -40.138,-17.82 24.122,46.985 c 9.38,20 17.944,36.201 24.244,46.044 16.415,25.629 35.381,46.64 57.388,63.465 l 21.944,40.637 c 12.915,23.94 25.99,43.083 39.982,58.528 7.786,8.59 16.404,16.132 22.257,20.942 8.07,6.63 17.076,12.686 26.79,17.997 l 11.435,24.787 c 1.198,2.599 13.262,23.876 31.099,41.548 11.515,11.408 31.897,24.41 42.912,28.915 l 1.363,0.57 c 8.388,3.558 30.683,13 66.181,13 6.556,0 13.454,-0.356 20.5,-1.054 l 0.9,-0.09 c 5.31,6.758 8.085,11.807 8.468,15.413 0.277,2.594 -0.708,5.001 -2.62,9.331 -1.012,2.03 -3.574,4.554 -6.535,7.478 l -0.117,0.117 c -1.774,1.747 -3.782,3.728 -5.742,5.923 l -0.57,0.639 a 16.08,16.08 0 0 0 -2.481,17.8 c 2.679,5.512 8.372,9.075 14.502,9.075 0.336,0 0.671,-0.01 1.018,-0.027 l 0.846,-0.058 c 12.836,-0.804 39.333,-8.048 57.213,-30.108 4.49,-5.534 8.26,-11.28 11.424,-17.406 26.273,8.964 53.983,13.507 82.489,13.507 68.454,0 132.815,-26.662 181.218,-75.065 48.403,-48.413 75.064,-112.767 75.064,-181.223 0,-68.45 -26.661,-132.81 -75.064,-181.218 z"
       id="path1" />
    <path
       fill="#010101"
       d="m 801.224,174.98 c -46.71,-46.71 -108.805,-72.428 -174.864,-72.428 -2.903,0 -5.896,0.063 -8.905,0.17 5.635,-30.86 15.925,-60.584 25.31,-83.528 l 0.19,-0.464 a 7.133,7.133 0 0 0 -0.643,-6.593 7.144,7.144 0 0 0 -5.785,-3.227 l -0.49,-0.011 A 306.106,306.106 0 0 0 627.1,8.771 c -24.76,0 -74.148,2.956 -126.69,22.726 -55.21,20.771 -99.335,54.23 -131.158,99.442 -13.118,18.63 -30.785,48.946 -40.478,87.533 a 373.615,373.615 0 0 0 -5.06,23.307 l -0.868,0.037 c -3.989,0.176 -8.106,0.267 -12.234,0.267 -22.97,0 -50.528,-2.525 -81.909,-7.505 -28.137,-4.474 -74.777,-20.068 -84.79,-23.855 a 504.396,504.396 0 0 1 -24.532,-10.056 l -3.797,-1.683 -18.215,-8.09 10.545,21.784 c 9.023,19.791 18.86,37.49 25.38,47.673 24.563,38.347 55,65.941 93.071,84.353 22.481,10.876 48.542,15.664 62.075,17.55 10.14,1.411 27.402,2.742 35.535,2.742 h 0.005 l 1.566,-0.015 c 0.729,2.795 1.5,5.578 2.312,8.35 -0.485,0 -0.97,0.006 -1.443,0.006 -15.51,0 -29.48,-1.113 -46.71,-3.718 -14.257,-2.157 -27.578,-5.176 -40.722,-9.219 -5.662,-1.747 -11.574,-3.653 -16.426,-5.778 l -19.93,-8.735 10.333,19.147 c 12.57,23.29 25.245,41.857 38.741,56.754 7.414,8.186 15.675,15.413 21.299,20.036 7.797,6.413 16.542,12.26 25.99,17.384 25.512,13.81 49.533,19.973 77.9,19.973 0.361,0 0.729,-0.005 1.096,-0.01 l 4.783,-0.044 a 377.508,377.508 0 0 0 6.487,8.112 c -2.615,0.17 -5.091,0.245 -7.76,0.245 -3.69,0 -7.903,-0.149 -13.256,-0.463 -14.375,-0.847 -38.033,-6.034 -44.542,-9.14 l -18.726,-8.963 8.703,18.859 c 1.06,2.29 12.617,22.444 29.266,38.939 10.455,10.353 29.805,22.816 40.063,27.008 l 1.39,0.586 c 7.935,3.36 29.01,12.287 62.666,12.287 h 0.005 c 6.269,0 12.868,-0.34 19.61,-1.012 l 5.385,-0.538 c 1.241,1.214 2.333,2.392 3.228,3.526 14.332,18.119 11.514,24.622 7.19,34.395 -1.657,3.468 -4.778,6.54 -8.389,10.104 l -0.106,0.106 c -1.763,1.742 -3.585,3.537 -5.358,5.523 l -0.565,0.634 a 7.14,7.14 0 0 0 -1.102,7.877 7.137,7.137 0 0 0 6.417,4.016 c 0.155,0 0.299,0 0.453,-0.01 l 0.847,-0.06 c 11.377,-0.708 34.875,-7.157 50.789,-26.795 6.455,-7.962 10.71,-15.711 13.72,-22.987 27.567,10.455 56.892,15.76 87.176,15.76 66.059,0 128.155,-25.725 174.864,-72.434 46.71,-46.709 72.428,-108.81 72.428,-174.858 0,-66.053 -25.72,-128.155 -72.428,-174.864 z"
       id="path2" />
    <path
       fill="#b9975b"
       d="m 866.517,349.841 c 0,64.147 -24.979,124.453 -70.34,169.815 -45.357,45.356 -105.67,70.34 -169.815,70.34 -29.533,0 -58.049,-5.176 -84.844,-15.365 1.156,-3.43 2.088,-6.737 2.887,-9.869 1.32,-5.155 2.061,-10.77 2.658,-16.681 2.482,-0.74 5.842,-1.987 12.52,-4.99 7.92,-3.569 13.119,-6.035 13.955,-6.429 17.107,4.826 34.875,7.275 52.824,7.275 51.849,0 100.587,-20.19 137.246,-56.85 36.664,-36.659 56.855,-85.402 56.855,-137.246 0,-54.906 -23.407,-107.468 -64.226,-144.244 -0.027,-0.65 -0.07,-3.574 1.182,-7.702 0.298,-0.985 0.597,-2.045 0.9,-3.094 0.298,-1.06 0.586,-2.061 0.868,-2.988 14.657,14.657 23.185,11.946 23.493,11.808 a 3.547,3.547 0 0 1 1.833,-0.496 c 3.004,0 6.114,3.382 6.46,3.766 l 0.043,0.053 0.053,-0.059 -0.059,0.048 0.25,-0.255 0.25,-0.261 v -0.005 c -0.425,-0.485 -3.903,-4.645 -2.284,-7.91 0.16,-0.362 3.616,-9.086 -11.877,-25.538 l -0.383,-0.41 -0.213,0.522 c -0.06,0.15 -1.385,3.6 -0.075,9.752 l 0.053,0.405 c 0,0.037 0.42,3.52 -1.513,5.71 -1.043,1.187 -2.604,1.789 -4.638,1.789 l -1.667,-0.118 c -2.605,-0.83 -5.103,-1.25 -7.425,-1.25 l -1.486,0.063 c 0.277,-0.703 0.591,-1.428 0.948,-2.205 0.671,-1.433 1.3,-2.882 1.614,-4.266 l 0.969,-0.155 c 2.834,0 5.955,2.567 6.322,2.876 l 0.054,0.048 0.042,-0.064 -0.048,0.059 0.208,-0.293 0.213,-0.293 c -0.463,-0.405 -4.517,-4.058 -3.35,-7.515 0.106,-0.384 2.322,-9.502 -15.296,-23.658 l -0.437,-0.357 -0.133,0.548 c -0.038,0.155 -0.874,3.76 1.267,9.673 l 0.107,0.388 c 0.01,0.038 0.974,3.691 -0.895,6.136 -1.14,1.497 -3.121,2.258 -5.822,2.263 a 26.952,26.952 0 0 0 -4.606,-0.415 c -4.133,0 -6.312,1.07 -6.402,1.118 l -0.5,0.25 0.436,0.352 c 3.632,2.882 6.839,4.948 9.71,6.493 l -0.938,0.351 c -0.83,0.315 -1.683,0.645 -2.588,0.97 a 98.625,98.625 0 0 0 -5.912,2.375 44.331,44.331 0 0 0 -4.15,2.115 c -31.162,-19.936 -67.277,-30.476 -104.453,-30.476 -4.277,0 -8.59,0.144 -12.879,0.426 -0.804,-15.158 0.33,-30.805 2.727,-46.267 a 239.12,239.12 0 0 1 10.152,-0.218 c 64.146,0 124.458,24.984 169.815,70.34 45.361,45.362 70.34,105.669 70.34,169.815 z"
       id="path3" />
    <path
       fill="#ffffff"
       d="m 772.228,401.341 -2.61,11.243 7.27,30.63 c 0,0 -21.278,3.334 -30.752,4.761 -2.914,9.774 -17.496,48.126 -17.496,48.126 l -2.924,-1.443 c -2.12,-20.953 -13.028,-31.668 -25.485,-39.69 -6.988,-4.495 -14.983,-7.578 -22.605,-10.002 -10.294,-3.27 -20.978,-5.251 -31.78,-6.833 1.864,-4.389 1.343,-9.677 -0.005,-12.985 -2.216,-5.432 -5.56,-9.129 -8.58,-12.985 13.298,-2.263 14.838,-11.669 14.3,-17.405 -1.672,2.93 -8.783,14.96 -19.28,12.59 -21.576,-25.42 -25.256,-26.8 -27.344,-35.002 -1.486,-5.858 1.263,-13.39 7.425,-17.549 11.26,-6.998 18.284,0.106 29.677,14.428 6.055,7.611 27.93,36.632 42.31,52.946 10.997,12.484 21.995,20.516 35.63,27.658 7.5,3.93 16.149,6.892 16.149,6.892 l 1.79,-2.86 c 0,0 -10.669,-10.63 -17.465,-24.138 -3.34,-6.63 -5.863,-13.666 -7.456,-20.526 -3.979,-17.139 -0.155,-34.806 -0.155,-34.806 0,0 -10.103,1.667 -19.509,-12.191 -2.47,-3.632 -4.777,-12.1 -5.513,-17.496 -0.516,-3.845 -0.873,-6.828 -0.937,-10.04 17.294,-15.77 40.83,-43.982 49.83,-46.075 2.722,5.651 42.071,89.083 42.071,89.083 l -8.826,4.234 0.043,9.598 -23.03,16.889 z"
       id="path4" />
    <path
       fill="#c8102e"
       d="m 505.419,596.537 c 0.106,-0.767 0.165,-1.31 0.181,-1.476 1.15,-11.184 -2.05,-18.934 -5.145,-25.314 -2.913,-6.019 -6.754,-10.636 -10.439,-14.85 -6.578,-7.536 -15.195,-14.113 -19.749,-17.362 -0.777,-0.56 -78.537,-56.813 -112.054,-138.365 -25.72,-62.543 -22.604,-118.29 -15.461,-154.044 2.359,-11.819 5.283,-22.892 9.203,-34.864 l 0.128,-0.394 c 13.98,-42.784 34.986,-72.237 50.144,-89.414 49.117,-55.673 127.995,-89.168 216.86,-92.209 -6.429,16.047 -12.362,35.764 -17.64,58.693 -0.99,4.292 -9.438,42.123 -7.302,72.923 -27.301,8.107 -51.79,21.384 -72.812,39.488 -14.641,12.606 -27.61,28.994 -36.52,46.144 -11.334,21.826 -13.523,39.551 -15.121,52.493 -0.192,1.56 -0.378,3.063 -0.565,4.496 -2.503,18.598 3.59,65.819 29.512,95.884 7.11,8.25 16.974,20.484 29.458,35.967 l 0.16,0.202 c 8.309,10.295 17.671,21.911 28.212,34.816 -3.798,3.814 -12.224,12.799 -19.643,30.38 -3.707,8.788 -6.055,17.283 -6.982,25.24 -0.362,3.131 -0.623,6.418 -0.9,9.885 -0.74,9.464 -1.582,20.127 -4.9,30.688 -2.226,7.068 -4.778,12.804 -8.037,18.05 -3.03,4.879 -6.812,9.464 -10.588,12.943 z"
       id="path5" />
    <path
       fill="#010101"
       d="m 763.59,374.357 -17.634,10.68 0.437,1.064 29.4,-7.084 z m -19.483,-39.945 c 0,0 -0.282,-4.511 -1.464,-6.285 -1.182,-1.774 5.293,-4.537 5.293,-4.537 l -3.344,-1.832 -0.815,1.454 -15.12,5.294 -12.602,10.332 10.807,-3.478 22.21,2.834 z M 683.26,143.658 c 0.756,-1.448 2.342,-2.178 4.713,-2.178 1.928,0 3.718,0.5 4.058,0.602 l 0.064,0.016 0.101,-0.341 0.043,-0.362 c -0.591,-0.187 -5.768,-1.891 -6.103,-5.529 -0.06,-0.394 -1.705,-9.63 -23.537,-15.477 l -0.548,-0.144 0.101,0.554 c 0.027,0.16 0.72,3.808 5.092,8.362 l 0.229,0.287 c 0.027,0.032 2.38,2.994 1.656,5.981 -0.442,1.833 -1.954,3.324 -4.415,4.416 -6.966,1.741 -9.677,4.948 -9.79,5.086 l -0.356,0.437 0.543,0.138 c 5.545,1.454 10.557,2.19 14.892,2.19 9.954,0 13.091,-3.82 13.257,-4.038 z"
       id="path6" />
    <path
       fill="#010101"
       d="m 714.683,151.712 c 2.348,0 4.76,1.039 5.224,1.246 l 0.064,0.032 0.15,-0.33 0.09,-0.351 c -0.56,-0.267 -5.449,-2.669 -5.284,-6.317 -0.005,-0.394 -0.357,-9.773 -21.176,-18.572 l -0.517,-0.218 0.022,0.559 c 0.005,0.16 0.186,3.866 3.877,8.974 l 0.197,0.33 c 0.02,0.032 1.944,3.292 0.815,6.152 -0.692,1.747 -2.391,3.02 -4.985,3.76 -7.137,0.762 -10.269,3.569 -10.396,3.691 l -0.416,0.378 0.516,0.219 c 7.254,3.014 13.62,4.548 18.918,4.548 6.541,0 9.07,-2.349 9.22,-2.498 0.762,-1.065 1.998,-1.603 3.681,-1.603 z"
       id="path7" />
    <path
       fill="#010101"
       d="m 742.048,159.998 c 0.048,-0.39 0.99,-9.726 -18.412,-21.315 l -0.485,-0.293 -0.053,0.565 c -0.021,0.16 -0.351,3.845 2.594,9.405 l 0.154,0.368 c 0.017,0.037 1.476,3.526 -0.042,6.205 -0.927,1.635 -2.78,2.658 -5.454,3.036 l -0.959,-0.016 c -6.53,0 -9.714,2.146 -9.848,2.236 l -0.463,0.315 0.485,0.287 c 10.3,6.077 17.283,7.356 21.32,7.356 4.234,-0.006 6.136,-1.337 6.263,-1.438 0.725,-0.762 1.704,-1.15 2.93,-1.15 2.647,0 5.586,1.81 5.933,2.029 l 0.064,0.037 0.191,-0.304 0.139,-0.335 c -0.517,-0.336 -5.028,-3.393 -4.357,-6.988 z m 59.151,66.43 1.358,-0.277 c 3.185,0 6.082,4.186 6.402,4.665 l 0.037,0.054 0.299,-0.203 0.26,-0.25 c -0.335,-0.517 -3.233,-5.134 -1.166,-8.149 0.202,-0.34 4.83,-8.5 -8.24,-26.939 l -0.324,-0.458 -0.283,0.49 c -0.074,0.133 -1.88,3.388 -1.422,9.688 l -0.005,0.362 c -0.005,0.272 -0.144,6.674 -5.89,6.674 -0.885,0 -1.865,-0.155 -2.871,-0.432 -4.4,-2.114 -7.766,-2.428 -9.374,-2.428 -0.895,0 -1.385,0.09 -1.406,0.096 l -0.554,0.106 0.33,0.458 c 10.764,15.009 18.886,16.633 21.88,16.633 z"
       id="path8" />
    <path
       fill="#010101"
       d="m 816.385,251.573 0.9,-0.117 c 3.399,0 5.902,4.969 6.184,5.534 l 0.026,0.058 0.32,-0.155 0.298,-0.218 c -0.266,-0.554 -2.492,-5.534 -0.032,-8.229 0.25,-0.309 5.96,-7.754 -4.442,-27.817 l -0.26,-0.501 -0.341,0.447 c -0.102,0.128 -2.323,3.084 -2.743,9.358 l -0.059,0.405 c -0.037,0.24 -0.953,5.864 -5.795,5.864 -1.134,0 -2.412,-0.314 -3.744,-0.895 -5.448,-3.616 -9.475,-3.803 -10.22,-3.803 l -0.698,0.032 0.26,0.496 c 9.987,19.008 19.132,19.551 20.144,19.551 z"
       id="path9" />
    <path
       fill="#010101"
       d="m 827.958,278.577 0.43,-0.026 c 3.66,0 5.61,5.683 5.833,6.359 l 0.021,0.074 0.341,-0.117 0.325,-0.165 c -0.181,-0.59 -1.705,-5.826 1.102,-8.16 0.293,-0.27 6.971,-6.859 -0.554,-28.163 l -0.191,-0.533 -0.406,0.394 c -0.112,0.112 -2.727,2.738 -4.01,8.91 l -0.112,0.374 c -0.01,0.048 -1.544,5.06 -5.74,5.06 -1.343,0 -2.829,-0.501 -4.39,-1.46 -5.373,-4.756 -9.554,-5.177 -9.73,-5.188 l -0.565,-0.053 0.192,0.533 c 7.649,21.267 16.99,22.135 17.454,22.161 z"
       id="path10" />
    <path
       fill="#010101"
       d="m 830.824,288.618 c -4.666,-5.449 -8.756,-6.444 -8.927,-6.487 l -0.543,-0.123 0.112,0.549 c 4.644,22.119 13.773,24.27 14.226,24.361 3.957,0.075 5.198,6.391 5.331,7.137 l 0.01,0.074 0.352,-0.063 0.341,-0.128 c -0.096,-0.607 -0.884,-6.003 2.226,-7.925 0.32,-0.224 7.851,-5.827 3.334,-27.973 l -0.117,-0.548 -0.452,0.335 c -0.123,0.096 -3.084,2.338 -5.204,8.272 l -0.154,0.346 c -0.022,0.048 -1.987,4.277 -5.689,4.277 -1.534,0 -3.18,-0.725 -4.846,-2.104 z M 657.416,134.452 c 0.794,-11.823 -35.471,-2.391 -35.471,-2.391 0,0 34.699,13.82 35.471,2.391 z m -21.234,430.781 0.069,0.346 v -0.042 l 0.011,0.042 -0.021,-0.72 -0.314,0.006 c -1.167,0 -7.01,-0.186 -7.835,-3.877 -0.154,-0.362 -4.069,-8.89 -26.667,-9.07 h -0.56 l 0.23,0.511 c 0.074,0.16 1.853,3.963 8.068,7.43 2.147,1.73 3.212,3.563 3.164,5.448 -0.08,3.074 -3.126,5.316 -3.158,5.342 l -0.197,0.155 c -5.491,3.275 -7.127,6.657 -7.196,6.801 l -0.24,0.511 0.773,0.006 c 22.417,0 26.39,-8.437 26.56,-8.815 1.263,-3.409 6.706,-3.707 7.324,-3.728 z"
       id="path11" />
    <path
       fill="#010101"
       d="m 666.042,562.339 -0.059,-0.341 0.118,0.33 -0.006,-0.037 0.016,0.037 -0.122,-0.708 -0.064,0.01 0.058,0.23 -0.005,0.111 -0.053,-0.341 c -0.272,0.042 -1.236,0.187 -2.45,0.187 -2.28,0 -5.182,-0.49 -6.088,-2.908 -0.144,-0.245 -3.765,-5.95 -18.438,-5.95 -2.84,0 -5.944,0.219 -9.225,0.65 l -0.56,0.075 0.299,0.474 c 0.096,0.15 2.386,3.67 9.017,6.242 2.37,1.422 3.675,3.09 3.888,4.958 0.346,3.063 -2.365,5.7 -2.392,5.726 l -0.303,0.288 c -4.873,3.957 -6.008,7.483 -6.056,7.632 l -0.17,0.538 0.559,-0.075 c 22.39,-3.067 25.182,-12.026 25.293,-12.43 0.783,-3.537 6.11,-4.586 6.738,-4.698 z"
       id="path12" />
    <path
       fill="#010101"
       d="m 695.011,554.303 -0.074,0.021 c -0.368,0.112 -2.216,0.655 -4.181,0.655 -2.296,0 -3.846,-0.713 -4.64,-2.178 -0.127,-0.155 -3.205,-3.814 -12.776,-3.814 -4.453,0 -9.62,0.805 -15.36,2.386 l -0.539,0.15 0.363,0.431 c 0.111,0.133 2.87,3.307 9.794,4.937 2.54,1.081 4.064,2.551 4.532,4.378 0.767,2.977 -1.555,5.97 -1.576,6.003 l -0.224,0.282 c -4.314,4.612 -4.958,8.276 -4.985,8.43 l -0.09,0.56 0.543,-0.154 c 21.751,-6.125 23.28,-15.387 23.338,-15.797 0.283,-3.622 5.433,-5.395 6.024,-5.587 l -0.106,-0.33 0.165,0.314 -0.01,-0.038 0.02,0.032 z"
       id="path13" />
    <path
       fill="#010101"
       d="m 722.741,543.045 -0.064,0.032 0.123,0.202 0.026,0.107 -0.149,-0.31 c -0.469,0.219 -2.929,1.316 -5.31,1.316 -1.63,0 -2.839,-0.522 -3.643,-1.603 -0.101,-0.096 -2.572,-2.327 -8.857,-2.327 -5.369,0 -11.83,1.613 -19.2,4.798 l -0.522,0.224 0.42,0.373 c 0.134,0.117 3.297,2.881 10.386,3.541 2.663,0.72 4.373,1.966 5.087,3.708 1.171,2.844 -0.709,6.13 -0.73,6.156 l -0.123,0.235 c -3.696,5.208 -3.83,8.963 -3.834,9.123 l -0.016,0.565 0.522,-0.23 c 20.696,-9.07 20.93,-18.454 20.93,-18.87 -0.218,-3.621 4.645,-6.092 5.199,-6.364 l -0.149,-0.314 0.202,0.287 -0.016,-0.032 0.027,0.032 z"
       id="path14" />
    <path
       fill="#010101"
       d="m 748.653,528.07 -0.059,0.038 0.15,0.186 0.042,0.107 -0.192,-0.293 c -0.33,0.218 -3.307,2.109 -5.992,2.109 -1.182,0 -2.151,-0.373 -2.918,-1.15 -0.075,-0.054 -1.918,-1.316 -5.97,-1.316 -4.07,0 -11.106,1.32 -21.48,7.632 l -0.48,0.293 0.463,0.31 c 0.134,0.084 3.217,2.108 9.497,2.108 l 1.278,-0.032 c 2.738,0.341 4.607,1.343 5.555,2.967 1.555,2.658 0.138,6.167 0.128,6.205 l -0.085,0.234 c -2.951,5.672 -2.562,9.416 -2.54,9.576 l 0.063,0.56 0.48,-0.293 c 19.247,-11.845 18.182,-21.166 18.129,-21.582 -0.719,-3.557 3.76,-6.678 4.272,-7.02 l -0.192,-0.292 0.24,0.26 -0.022,-0.036 0.027,0.032 z"
       id="path15" />
    <path
       fill="#010101"
       d="m 772.246,509.664 -0.053,0.042 v 0.006 c -0.357,0.308 -3.488,2.961 -6.343,2.961 -0.874,0 -1.646,-0.25 -2.344,-0.793 -0.053,-0.022 -1.294,-0.645 -3.754,-0.645 -4.32,0 -11.733,1.859 -22.561,10.695 l -0.437,0.357 0.506,0.245 c 0.085,0.042 2.173,1.033 6.114,1.033 a 25.721,25.721 0 0 0 4.842,-0.469 h 0.202 c 2.668,0 4.596,0.746 5.73,2.205 1.876,2.418 0.97,6.061 0.96,6.098 l -0.054,0.245 c -2.13,6.024 -1.23,9.678 -1.193,9.838 l 0.139,0.543 0.436,-0.357 c 17.427,-14.386 15.089,-23.477 14.977,-23.876 -1.204,-3.43 2.796,-7.132 3.26,-7.547 l -0.234,-0.256 0.276,0.218 -0.026,-0.032 0.032,0.027 z"
       id="path16" />
    <path
       fill="#010101"
       d="m 793.076,488.175 -0.048,0.053 c -0.351,0.405 -3.44,3.85 -6.455,3.85 -0.64,0 -1.24,-0.159 -1.848,-0.5 -0.027,-0.01 -0.735,-0.25 -2.05,-0.25 -3.66,0 -11.462,1.8 -22.63,13.832 l -0.379,0.415 0.533,0.176 c 0.048,0.01 1.22,0.383 3.344,0.383 2.381,0 4.954,-0.453 7.585,-1.331 2.892,-0.442 5.07,0.095 6.412,1.597 1.934,2.168 1.566,5.63 1.56,5.668 l -0.047,0.41 c -1.23,6.162 0.144,9.597 0.202,9.746 l 0.219,0.522 0.378,-0.415 c 15.28,-16.655 11.706,-25.336 11.541,-25.72 -1.661,-3.227 1.784,-7.446 2.184,-7.914 l -0.266,-0.23 0.308,0.182 -0.037,-0.027 0.037,0.022 z"
       id="path17" />
    <path
       fill="#010101"
       d="m 810.743,464.013 -0.043,0.059 c -0.324,0.5 -3.185,4.745 -6.38,4.745 l -1.38,-0.277 -0.81,-0.059 c -2.332,0 -10.806,1.22 -21.756,16.921 l -0.325,0.464 0.554,0.095 c 0.02,0.006 0.453,0.08 1.246,0.08 1.625,0 5.034,-0.335 9.454,-2.53 1.092,-0.33 2.11,-0.495 3.02,-0.495 5.64,0 5.87,6.322 5.874,6.594 l 0.011,0.32 c -0.383,6.337 1.47,9.58 1.55,9.714 l 0.288,0.49 0.314,-0.469 c 12.83,-18.604 8.095,-26.705 7.877,-27.056 -2.088,-2.962 0.73,-7.6 1.07,-8.149 l -0.293,-0.186 0.33,0.133 -0.037,-0.022 0.038,0.017 -0.602,-0.39 z"
       id="path18" />
    <path
       fill="#010101"
       d="m 825.524,438.012 -0.314,-0.144 0.34,0.09 -0.037,-0.02 0.037,0.01 -0.65,-0.298 -0.026,0.064 c -0.277,0.58 -2.737,5.608 -6.151,5.608 l -0.927,-0.117 h -0.09 c -1.007,0 -10.13,0.554 -19.93,19.813 l -0.198,0.527 h 0.58 c 0.752,0 4.746,-0.192 10.174,-3.899 1.416,-0.65 2.716,-0.98 3.871,-0.98 4.773,0 5.747,5.55 5.785,5.784 l 0.069,0.41 c 0.5,6.264 2.764,9.193 2.865,9.32 l 0.346,0.443 0.256,-0.506 c 10.135,-20.202 4.33,-27.568 4.064,-27.892 -2.487,-2.647 -0.32,-7.654 -0.064,-8.213 z"
       id="path19" />
    <path
       fill="#010101"
       d="m 835.701,411.085 v -0.005 l -0.331,-0.106 0.346,0.048 -0.031,-0.011 h 0.036 l -0.682,-0.208 -0.021,0.064 c -0.213,0.671 -2.139,6.407 -5.815,6.407 l -0.474,-0.026 c -0.389,0.032 -9.726,0.964 -17.231,22.284 l -0.186,0.533 0.56,-0.054 c 0.175,-0.016 4.356,-0.469 9.65,-5.22 1.608,-1.017 3.11,-1.528 4.458,-1.528 4.165,0 5.73,4.975 5.747,5.023 l 0.085,0.229 c 1.31,6.263 3.984,8.91 4.1,9.022 l 0.406,0.394 0.18,-0.533 c 7.388,-21.362 0.661,-27.897 0.352,-28.185 -2.801,-2.29 -1.336,-7.499 -1.149,-8.128 z"
       id="path20" />
    <path
       fill="#010101"
       d="m 844.448,390.954 c -3.089,-1.906 -2.311,-7.307 -2.21,-7.914 l -0.341,-0.059 0.277,-0.01 0.074,0.01 -0.037,-0.01 h 0.037 l -0.708,-0.118 -0.005,0.07 h -0.005 c -0.128,0.73 -1.359,7.062 -5.39,7.153 -0.384,0.08 -9.518,2.242 -14.136,24.366 l -0.117,0.549 0.549,-0.128 c 0.165,-0.043 4.255,-1.033 8.873,-6.45 1.71,-1.427 3.36,-2.146 4.894,-2.146 3.691,0 5.667,4.223 5.689,4.266 l 0.112,0.224 c 2.125,6.029 5.123,8.303 5.25,8.393 l 0.459,0.336 0.112,-0.554 c 4.5,-22.146 -3.036,-27.738 -3.377,-27.978 z M 565.899,556.248 c 0,0 32.552,18.572 34.864,6.945 2.242,-11.233 -34.864,-6.945 -34.864,-6.945 z M 844.34,337.257 c -6.083,0 -11.004,4.927 -11.004,11.004 0,6.076 4.92,11.003 11.003,11.003 6.072,0 10.998,-4.927 10.998,-11.003 0,-6.078 -4.926,-11.004 -10.998,-11.004"
       id="path21" />
    <path
       fill="#b9975b"
       d="m 636.343,16.044 -0.506,-0.01 c -2.85,-0.085 -5.79,-0.123 -8.735,-0.123 -24.276,0 -72.69,2.892 -124.176,22.27 -53.846,20.253 -96.854,52.85 -127.835,96.869 -12.772,18.14 -29.97,47.64 -39.391,85.162 -15.584,62.054 -10.365,109.115 -5.859,131.638 4.362,21.874 14.03,49.032 25.224,70.874 2.253,4.393 13.73,24.595 21.352,35.652 a 360.199,360.199 0 0 0 25.31,32.531 c 12.106,13.848 19.786,21.129 25.953,26.987 2.115,2.003 3.941,3.734 5.683,5.48 8.804,8.842 18.444,16.25 26.95,22.785 8.692,6.68 16.196,12.447 20.58,17.986 17.037,21.55 12.883,30.934 8.074,41.799 -2.19,4.644 -5.918,8.32 -9.859,12.207 -1.72,1.7 -3.499,3.452 -5.16,5.305 l -0.565,0.639 0.847,-0.059 c 10.21,-0.639 31.332,-6.45 45.691,-24.164 10.653,-13.14 14.86,-25.767 17.571,-36.382 1.693,-6.625 2.391,-14.396 3.132,-22.614 0.43,-4.83 0.884,-9.816 1.55,-14.716 1.08,-7.893 3.488,-16.239 6.604,-22.902 5.038,-10.796 10.433,-18.934 16.462,-24.84 -1.853,-1.896 -3.653,-3.856 -5.443,-5.827 -6.455,6.738 -14.108,18.284 -17.853,27.067 -6.721,15.765 -7.52,24.915 -8.106,31.6 -0.154,1.794 -0.293,3.344 -0.522,4.83 -0.245,1.598 -0.394,3.664 -0.57,6.056 -0.665,9.24 -1.784,24.702 -10.828,41.085 -6.359,11.525 -14.896,20.158 -26.065,26.358 2.7,-3.872 5.667,-11.739 4.788,-21.448 -1.688,-18.72 -16.202,-33.218 -28.079,-42.081 -36.11,-26.966 -66.224,-57.803 -89.498,-91.66 -22.854,-33.246 -38.023,-67.774 -45.09,-102.628 -8.602,-42.437 -7.143,-86.862 4.218,-128.49 10.977,-40.243 30.955,-77.254 57.76,-107.042 52.797,-58.693 130.866,-90.66 225.77,-92.47 l -1.096,3.1 c -5.108,14.45 -10.392,29.394 -14.743,45.856 -3.382,12.767 -6.136,25.656 -8.42,39.413 -2.695,16.239 -3.665,33.085 -2.54,46.752 l 7.402,-1.694 C 603.54,107.605 621.035,53.46 636.151,16.513 Z M 753.021,196.63 c 1.273,-4.756 3.105,-8.591 4.32,-11.132 0.92,-1.933 1.48,-3.1 1.41,-3.765 l -0.015,-0.17 -0.139,-0.091 -0.948,-0.17 c -5.624,0 -29.484,6.646 -52.583,26.997 -15.142,13.342 -20.815,27.669 -24.575,37.15 l -0.612,1.549 c -9.49,23.733 -18.135,55.545 -20.287,68.296 -1.422,-5.396 -3.43,-11.707 -5.592,-14.311 -2.136,-2.568 -5.651,-5.982 -11.574,-5.982 -0.916,0 -1.885,0.08 -2.87,0.246 -5.672,0.942 -10.807,5.554 -13.081,11.733 l -0.064,0.18 c -1.534,4.16 -2.977,8.08 -2.77,14.95 0.112,3.814 1.172,7.867 2.77,10.568 5.677,9.613 14.46,14.486 26.097,14.486 1.497,0 3.063,-0.08 4.655,-0.24 4.528,-0.452 9.342,-2.31 13.928,-5.373 10.578,-7.068 19.131,-16.143 28.19,-25.752 5.135,-5.437 10.445,-11.067 16.165,-16.292 3.52,-3.211 11.77,-10.732 20.191,-15.642 6.274,-3.654 12.564,-6.232 18.71,-7.664 l 0.97,-0.533 -0.203,-1.24 -0.223,-0.565 c -2.088,-5.444 -3.808,-12.426 -5.273,-21.358 -1.204,-7.371 -1.917,-14.663 -1.486,-26.31 0.229,-6.402 2.12,-19.217 4.889,-29.565 z M 577.876,517.697 c 6.844,-3.116 13.922,-6.338 21.357,-9.502 16.234,-6.892 28.356,-11.12 43.237,-15.083 14.929,-3.979 29.948,-7.558 49.436,-7.68 h 0.33 c 5.593,0 12.697,0.842 17.57,2.056 -6.774,-20.1 -30.421,-27.03 -39.38,-29.65 -8.51,-2.493 -28.206,-5.758 -34.661,-6.37 l -0.922,-0.085 0.746,-0.543 c 2.125,-1.545 3.307,-3.026 4.804,-4.9 l 1.188,-1.47 0.122,-0.144 0.192,0.026 c 11.419,1.337 23.717,3.894 33.735,7.015 10.62,3.307 19.7,7.765 26.987,13.256 4.026,3.03 7.462,6.828 10.806,11.947 4.213,6.439 5.667,16.494 5.635,23.146 l -0.005,0.645 -0.532,-0.357 c -5.044,-3.318 -10.21,-5.363 -15.372,-6.082 -3.69,-0.512 -7.658,-0.767 -11.802,-0.767 -10.306,0 -21.815,1.55 -35.178,4.74 -12.431,2.961 -24.676,6.668 -37.431,11.334 -14.285,5.214 -25.528,10.162 -41.048,17.117 a 820.246,820.246 0 0 0 -7.078,3.223 c -7.574,3.467 -14.775,6.764 -22.705,9.501 0.26,-2.881 0.538,-5.8 0.873,-8.697 10.354,-4.149 19.871,-8.474 29.096,-12.676 z"
       id="path22" />
    <path
       fill="#b9975b"
       d="m 447.068,559.46 h -0.005 c -32.217,0 -52.323,-8.522 -59.892,-11.728 l -1.41,-0.591 c -9.497,-3.883 -28.08,-15.866 -37.794,-25.501 -15.67,-15.52 -26.87,-34.822 -27.813,-36.862 l -0.405,-0.878 0.874,0.42 c 8.02,3.83 32.718,8.975 47.2,9.827 5.501,0.325 9.847,0.474 13.671,0.474 5.347,0 9.736,-0.298 14.535,-0.794 0.325,0.373 0.644,0.751 0.97,1.13 2.018,2.3 3.898,4.41 5.687,6.38 -4.99,0.48 -10.785,0.778 -18.364,0.959 l -1.3,0.016 c -9.443,0 -36.216,-1.987 -44.12,-3.968 15.131,19.605 28.718,32.941 52.514,42.837 a 127.429,127.429 0 0 0 27.13,7.883 c 9.199,1.592 19.878,2.364 32.66,2.364 1.816,0 3.707,-0.021 5.688,-0.048 3.25,2.498 6.317,4.858 9.076,7.1 -6.391,0.64 -12.735,0.98 -18.902,0.98 z M 333.622,388.39 c -1.704,0.064 -3.558,0.101 -5.592,0.101 -15.94,0 -36.93,-1.912 -56.152,-5.118 -17.342,-2.892 -29.826,-5.96 -36.297,-8.9 0.42,0.671 0.926,1.486 1.507,2.423 5.89,9.566 19.69,31.951 37.554,46.715 15.658,12.947 35.11,27.168 60.647,34.475 12.128,3.467 22.29,5.204 37.783,6.38 1.784,2.536 3.6,5.055 5.46,7.558 -0.55,0.006 -1.103,0.022 -1.641,0.022 -27.115,0 -50.091,-5.896 -74.5,-19.116 -9.039,-4.9 -17.4,-10.492 -24.857,-16.617 -5.438,-4.473 -13.422,-11.456 -20.543,-19.317 -13.107,-14.465 -25.453,-32.574 -37.75,-55.353 l -0.48,-0.895 0.932,0.41 c 5.193,2.28 11.329,4.26 17.193,6.061 13.485,4.154 27.141,7.244 41.756,9.454 17.597,2.663 31.892,3.803 47.769,3.803 1.48,0 2.998,-0.016 4.521,-0.038 a 308.226,308.226 0 0 0 2.69,7.952 z m -69.176,-133.59 -0.559,-0.059 c -32.569,-3.392 -69.323,-12.17 -90.904,-18.662 -15.627,-4.692 -30.46,-9.843 -44.079,-15.291 l -0.522,-0.229 c 4.72,10.21 10.264,20.361 16.48,30.156 16.75,26.412 36.594,47.79 58.99,63.545 29.181,20.526 62.155,29.149 71.411,30.954 l 0.011,-0.133 h 0.32 l 0.16,0.022 1.192,0.245 c 4.027,0.793 24.905,4.73 41.937,4.73 1.45,0 2.834,-0.033 4.155,-0.091 0.18,0.958 0.356,1.9 0.538,2.785 0.33,1.662 0.697,3.366 1.091,5.081 -0.223,0.005 -0.447,0.005 -0.687,0.005 -7.882,0 -24.68,-1.299 -34.555,-2.673 -13.113,-1.832 -38.342,-6.455 -59.95,-16.905 -36.845,-17.82 -66.34,-44.574 -90.174,-81.781 -6.546,-10.226 -16.223,-26.998 -25.15,-48.829 l -0.378,-0.916 -0.053,-0.021 -0.037,-0.16 -0.427,-0.815 0.815,0.362 h 0.16 l 0.053,0.096 c 9.278,4.133 18.396,7.893 27.104,11.185 10.157,3.84 57.521,19.663 86.197,24.222 31.754,5.044 59.688,7.6 83.027,7.6 4.346,0 8.548,-0.095 12.553,-0.276 a 351.152,351.152 0 0 0 -1.113,7.382 c -6.098,0.703 -12.436,1.049 -19.317,1.049 -13.57,0 -26.705,-1.37 -38.289,-2.578 z m 309.183,163.276 c 11.286,12.015 21.234,22.62 25.059,31.061 0.202,0.448 0.388,0.89 0.559,1.321 0.321,0.851 0.588,1.721 0.799,2.605 0.314,1.416 0.559,2.785 0.75,4.1 0.193,1.31 0.326,2.578 0.41,3.788 a 47.028,47.028 0 0 1 -0.015,6.86 c -0.058,0.83 -0.139,1.658 -0.245,2.482 -0.027,0.25 -0.064,0.49 -0.096,0.734 -0.367,2.663 -0.9,5.007 -1.38,7.073 3.766,-3.083 9.033,-7.792 13.15,-11.541 l 1.092,-0.996 c 1.417,-1.294 2.642,-2.423 3.563,-3.27 a 99.139,99.139 0 0 1 1.518,-1.39 c 0.522,-0.464 1.05,-0.938 1.587,-1.412 1.076,-0.953 2.195,-1.922 3.34,-2.918 4.282,-3.734 8.655,-7.537 12.042,-11.196 2.03,-2.189 3.702,-4.33 4.788,-6.364 l 0.32,-0.597 c 1.22,-2.263 2.045,-3.797 1.997,-6.492 a 17.628,17.628 0 0 0 -0.186,-2.077 15.902,15.902 0 0 0 -1.065,-3.894 c -0.853,-2.03 -2.136,-3.941 -3.878,-6.226 a 221.33,221.33 0 0 0 -5.448,-6.844 c -1.3,-1.568 -2.62,-3.12 -3.958,-4.655 -0.809,-0.92 -1.622,-1.836 -2.439,-2.748 a 436.489,436.489 0 0 0 -4.426,-4.831 l -1.331,-1.427 -1.582,-1.678 c -0.09,-0.101 -0.181,-0.197 -0.272,-0.293 l -1.028,-1.092 -1.107,-1.171 c -7.308,-7.76 -12.426,-13.47 -14.604,-19.797 a 18.198,18.198 0 0 1 -0.858,-3.27 c -0.042,-0.224 -0.064,-0.453 -0.096,-0.682 -0.01,-0.075 -0.021,-0.144 -0.026,-0.213 a 23.436,23.436 0 0 1 -0.117,-5.14 c 2.322,-16.084 22.438,-26.859 36.653,-8.974 l 5.555,6.908 c 0,0 26.172,33.032 40.158,49.98 l 7.207,8.494 c 0.255,0.277 0.48,0.522 0.67,0.714 11.798,13.858 33.315,24.83 38.476,27.2 a 142.01,142.01 0 0 1 -1.268,-1.523 c -2.572,-3.143 -6.364,-8.128 -9.47,-13.65 a 58.469,58.469 0 0 1 -2.353,-4.613 c -0.14,-0.304 -0.277,-0.613 -0.416,-0.922 -0.48,-1.065 -0.959,-2.14 -1.433,-3.26 a 91.227,91.227 0 0 1 -0.91,-2.194 c -1.513,-3.728 -2.93,-7.823 -4.064,-12.564 a 85.706,85.706 0 0 1 -1.417,-7.382 c -0.021,-0.143 -0.043,-0.282 -0.058,-0.426 a 91.41,91.41 0 0 1 -0.325,-2.508 87.283,87.283 0 0 1 -0.373,-4.18 c -0.005,-0.06 -0.011,-0.113 -0.011,-0.172 a 83.34,83.34 0 0 1 -0.123,-2.45 78.053,78.053 0 0 1 -0.053,-3.653 c 0,-1.161 0.032,-2.264 0.08,-3.297 0.117,-2.652 0.336,-4.857 0.554,-6.509 0.01,-0.069 0.016,-0.127 0.027,-0.191 a 50,50 0 0 1 0.415,-2.642 25.137,25.137 0 0 1 -3.04,-0.916 c -2.685,-0.985 -6.461,-2.817 -9.891,-6.093 a 25.865,25.865 0 0 1 -4.703,-6.056 c -3.436,-6.12 -6.69,-13.496 -7.329,-25.874 -0.794,0.581 -1.576,1.178 -2.37,1.78 -3.59,2.721 -7.302,5.544 -11.909,7.722 -2.514,1.188 -7.126,3.036 -12.617,3.664 a 33.047,33.047 0 0 1 -3.76,0.224 c -1.07,0 -2.13,-0.058 -3.159,-0.17 a 25.71,25.71 0 0 1 -3.02,-0.517 c -13.08,-3.036 -21.16,-9.107 -25.415,-19.099 a 29.367,29.367 0 0 1 -2.03,-7.078 29.416,29.416 0 0 1 -0.325,-3.654 29.108,29.108 0 0 1 0.128,-3.723 c 0.261,-2.727 0.736,-5.683 1.556,-8.628 0.183,-0.659 0.382,-1.314 0.596,-1.965 0.218,-0.65 0.453,-1.3 0.714,-1.944 0.767,-1.928 1.71,-3.808 2.87,-5.566 0.39,-0.586 0.8,-1.161 1.23,-1.715 a 23.787,23.787 0 0 1 3.772,-3.84 22.67,22.67 0 0 1 2.769,-1.912 c 0.33,-0.197 0.671,-0.384 1.017,-0.565 a 25.66,25.66 0 0 1 2.173,-0.995 c 0.533,-0.21 1.075,-0.397 1.625,-0.56 a 19.026,19.026 0 0 1 5.235,-0.719 c 6.62,0 12.916,3.17 15.824,7.84 0.101,-0.277 0.208,-0.58 0.314,-0.9 0.762,-2.264 1.71,-5.65 2.823,-9.65 2.546,-9.124 6.024,-21.619 10.807,-33.496 0.708,-1.747 1.405,-3.526 2.114,-5.326 a 789.1,789.1 0 0 1 1.635,-4.149 c 3.867,-9.699 8.09,-19.397 14.417,-27.13 -8.798,-6.301 -17.048,-10.243 -24.27,-12.703 -0.597,-0.208 -1.193,-0.4 -1.78,-0.586 -11.152,-3.515 -19.61,-3.515 -23.444,-3.515 l -1.374,0.005 c -14.423,0.192 -26.982,2.189 -38.939,6.28 a 114.33,114.33 0 0 0 -12.777,5.278 c -1.103,0.532 -2.2,1.08 -3.297,1.65 -0.522,0.277 -1.05,0.538 -1.571,0.82 -9.592,5.167 -18.428,11.835 -26.236,19.659 a 0.295,0.295 0 0 1 -0.058,0.059 c -10.615,10.652 -19.318,23.429 -25.384,37.399 a 117.636,117.636 0 0 0 -5.982,17.31 c -1.65,6.348 -3.179,13.117 -3.903,20.52 a 90.512,90.512 0 0 0 -0.443,9.21 c 0.011,3.973 0.288,8.121 0.916,12.484 a 94.28,94.28 0 0 0 0.933,5.325 101.773,101.773 0 0 0 2.386,9.294 c 2.263,7.414 5.565,15.382 10.23,23.994 2.131,3.93 4.576,7.813 7.218,11.632 9.139,13.188 20.803,25.63 31.386,36.9"
       id="path23" />
    <path
       fill="#ffffff"
       d="m 830.285,534.118 c -17.55,0.08 -17.553,26.774 0,26.854 17.564,-0.08 17.559,-26.779 0,-26.854 z m 0,23.975 c -13.688,0.2 -13.686,-21.294 0,-21.096 13.693,-0.199 13.695,21.3 0,21.096 z"
       id="path24" />
    <path
       fill="#ffffff"
       d="m 835.797,544.433 c 0.11,-5.732 -7.355,-4.48 -11.027,-4.562 v 15.346 h 2.885 v -6.243 h 2.064 l 2.906,6.242 h 3.174 l -3.024,-6.495 a 4.563,4.563 0 0 0 3.022,-4.288 z m -4.55,1.674 h -3.592 v -3.354 h 3.592 c 2.173,-0.033 2.179,3.389 0,3.354 z"
       id="path25" />
  </g>
  <defs
     id="defs26">
    <clipPath
       id="a">
      <path
         fill="#ffffff"
         d="M 0,0 H 960 V 640 H 0 Z"
         id="path26" />
    </clipPath>
  </defs>
</svg>
