<?xml version="1.0" encoding="UTF-8" standalone="no"?>
<svg
   fill="none"
   viewBox="0 0 669.67401 464.98801"
   version="1.1"
   id="svg4"
   sodipodi:docname="PHI_dark.svg"
   width="669.67401"
   height="464.98801"
   inkscape:version="1.4 (86a8ad7, 2024-10-11)"
   xmlns:inkscape="http://www.inkscape.org/namespaces/inkscape"
   xmlns:sodipodi="http://sodipodi.sourceforge.net/DTD/sodipodi-0.dtd"
   xmlns="http://www.w3.org/2000/svg"
   xmlns:svg="http://www.w3.org/2000/svg">
  <defs
     id="defs4" />
  <sodipodi:namedview
     id="namedview4"
     pagecolor="#ffffff"
     bordercolor="#000000"
     borderopacity="0.25"
     inkscape:showpageshadow="2"
     inkscape:pageopacity="0.0"
     inkscape:pagecheckerboard="0"
     inkscape:deskcolor="#d1d1d1"
     inkscape:zoom="1.8359375"
     inkscape:cx="334.43404"
     inkscape:cy="232.30638"
     inkscape:window-width="3440"
     inkscape:window-height="1377"
     inkscape:window-x="-8"
     inkscape:window-y="-8"
     inkscape:window-maximized="1"
     inkscape:current-layer="svg4" />
  <path
     fill="#ffffff"
     d="m 292.768,371.434 c -8.283,0 -15.006,6.713 -15.006,15 0,8.278 6.724,15.002 15.005,15.002 8.282,0 14.995,-6.724 14.995,-15.001 0,-8.288 -6.713,-15.001 -14.995,-15.001 z m 0,26.783 a 11.772,11.772 0 0 1 -11.783,-11.782 c 0,-6.51 5.265,-11.775 11.782,-11.775 6.51,0 11.78,5.265 11.78,11.775 0,6.512 -5.27,11.782 -11.78,11.782 z m 6.163,-15.26 a 5.097,5.097 0 0 0 -1.492,-3.595 5.09,5.09 0 0 0 -3.598,-1.487 h -7.228 v 17.123 h 3.213 v -6.954 h 2.306 l 3.246,6.954 h 3.553 l -3.389,-7.251 a 5.09,5.09 0 0 0 3.39,-4.79 z m -5.09,1.872 h -4.015 v -3.747 h 4.015 a 1.88,1.88 0 0 1 1.877,1.876 1.879,1.879 0 0 1 -1.877,1.871 z"
     id="path1" />
  <path
     fill="#ffffff"
     d="M 459.057,0 H 0 v 14.517 c 0,40.326 19.31,75.9 48.561,96.815 H 0 v 14.526 c 0,40.313 19.31,75.881 48.561,96.802 H 0 v 14.527 c 0,40.312 19.31,75.88 48.561,96.8 H 0 v 14.534 c 0,64.217 48.967,116.467 109.156,116.467 h 103.92 L 289.741,335.38 c 39.677,53.75 102.35,85.855 169.316,85.855 116.134,0 210.617,-94.482 210.617,-210.612 C 669.674,94.485 575.191,0 459.057,0 Z"
     id="path2" />
  <path
     fill="#000000"
     d="M 459.057,14.517 H 18.717 c 0,56.313 42.369,101.958 94.635,101.958 h 165.875 c 2.583,0 4.683,2.1 4.683,4.689 0,2.589 -2.1,4.694 -4.683,4.694 H 18.717 c 0,56.304 42.369,101.949 94.635,101.949 h 100.021 c 2.584,0 4.69,2.1 4.69,4.698 0,2.576 -2.106,4.682 -4.69,4.682 H 18.718 c 0,56.302 42.368,101.948 94.634,101.948 h 34.168 a 4.691,4.691 0 0 1 3.315,8.008 4.692,4.692 0 0 1 -3.315,1.378 H 18.718 c 0,56.295 42.368,101.944 94.634,101.944 h 91.449 L 375.746,161.444 c 16.84,-28.466 47.84,-47.557 83.31,-47.557 53.425,0 96.734,43.309 96.734,96.737 0,53.413 -43.309,96.733 -96.733,96.733 -52.754,0 -95.64,-42.238 -96.71,-94.74 L 297.66,321.994 c 35.38,51.172 94.465,84.721 161.397,84.721 108.299,0 196.094,-87.8 196.094,-196.092 0,-108.308 -87.796,-196.106 -196.094,-196.106 z"
     id="path3" />
  <path
     fill="#d24303"
     d="m 459.057,154.969 c -30.737,0 -55.645,24.915 -55.645,55.654 0,30.725 24.908,55.643 55.645,55.643 30.74,0 55.652,-24.918 55.652,-55.643 0,-30.739 -24.912,-55.654 -55.652,-55.654 z"
     id="path4" />
</svg>
