<?xml version="1.0" encoding="UTF-8" standalone="no"?>
<svg
   fill="none"
   viewBox="0 0 672.56201 640"
   version="1.1"
   id="svg5"
   sodipodi:docname="PIT_dark.svg"
   width="672.56201"
   height="640"
   inkscape:version="1.4 (86a8ad7, 2024-10-11)"
   xmlns:inkscape="http://www.inkscape.org/namespaces/inkscape"
   xmlns:sodipodi="http://sodipodi.sourceforge.net/DTD/sodipodi-0.dtd"
   xmlns="http://www.w3.org/2000/svg"
   xmlns:svg="http://www.w3.org/2000/svg">
  <defs
     id="defs5" />
  <sodipodi:namedview
     id="namedview5"
     pagecolor="#ffffff"
     bordercolor="#000000"
     borderopacity="0.25"
     inkscape:showpageshadow="2"
     inkscape:pageopacity="0.0"
     inkscape:pagecheckerboard="0"
     inkscape:deskcolor="#d1d1d1"
     inkscape:zoom="1.8359375"
     inkscape:cx="336.06809"
     inkscape:cy="320"
     inkscape:window-width="3440"
     inkscape:window-height="1377"
     inkscape:window-x="-8"
     inkscape:window-y="-8"
     inkscape:window-maximized="1"
     inkscape:current-layer="svg5" />
  <path
     fill="#ffffff"
     d="m 383.493,563.333 c -8.282,0 -15.005,6.713 -15.005,15 0,8.279 6.723,15.002 15.005,15.002 8.281,0 14.995,-6.723 14.995,-15.001 0,-8.288 -6.714,-15.001 -14.995,-15.001 z m 0,26.783 a 11.776,11.776 0 0 1 -10.889,-7.271 11.795,11.795 0 0 1 -0.894,-4.511 c 0,-6.51 5.265,-11.775 11.783,-11.775 6.51,0 11.78,5.265 11.78,11.775 0,6.512 -5.27,11.782 -11.78,11.782 z m 6.163,-15.26 a 5.077,5.077 0 0 0 -1.492,-3.595 5.092,5.092 0 0 0 -3.598,-1.487 h -7.228 v 17.123 h 3.213 v -6.954 h 2.306 l 3.246,6.954 h 3.554 l -3.39,-7.251 a 5.095,5.095 0 0 0 3.389,-4.79 z m -5.09,1.872 h -4.015 v -3.747 h 4.015 a 1.88,1.88 0 0 1 1.878,1.876 1.876,1.876 0 0 1 -1.878,1.871 z"
     id="path1" />
  <path
     fill="#ffffff"
     d="m 626.491,95.226 h -43.375 c -1.762,-5.036 -4.712,-9.97 -9.062,-14.31 -12.585,-12.603 -29.493,-14.651 -39.34,-4.811 -2.08,2.087 -3.633,4.573 -4.666,7.332 -2.9,-2.122 -6.533,-4.042 -10.866,-5.758 -6.09,-12.787 -14.69,-30.865 -34.02,-30.865 -6.904,0 -13.087,2.143 -17.947,4.556 -14.251,-11.287 -45.151,-32.414 -76.692,-32.414 -34.537,0 -82.458,31.714 -96.51,31.714 C 283.776,50.67 260.81,0 225.155,0 206.002,0 186.597,12.981 163.475,26.928 141.418,40.139 135.521,56.117 129.14,72.964 126.965,78.457 117.347,88.506 110.67,95.226 H 0 L 188.454,422.941 H 59.434 l -41.09,73.993 h 189.31 c 6.49,0 13.699,-2.221 20.122,-5.6 L 313.255,640 396.433,495.335 h 69.275 v -40.57 h -4.651 c -0.046,-14.092 -10.714,-29.458 -16.063,-36.242 l -1.022,-5.86 15.893,-27.661 92.637,-34.162 c 15.04,-5.546 22.026,-19.022 25.276,-29.553 0,0 10.22,-0.102 19.54,-10.805 6.532,1.683 14.841,3.42 21.279,3.42 14.017,0 28.739,-8.011 32.541,-22.928 0,0 14.838,-9.118 21.424,-37.15 L 557.245,215.648 Z"
     id="path2" />
  <path
     fill="#000000"
     d="m 536.642,237.164 14.478,4.79 -0.095,9.337 c -7.711,-0.293 -13.88,-1.761 -13.88,20.784 0,16.82 3.208,22.27 3.208,27.013 0,8.047 -0.686,9.957 -25.98,9.957 0,0 -3.951,-4.796 -17.827,-10.169 0,0 -0.262,-1.284 -0.828,-3.64 L 602.861,108.908 h -32.46 c 2.402,-4.612 0.035,-12.28 -6.013,-18.33 -6.848,-6.84 -15.804,-8.994 -19.996,-4.803 -1.91,1.903 -2.49,4.797 -1.93,8.033 l -13.343,13.99 c 0.36,-2.113 1.114,-13.216 -19.843,-19.2 -6.314,-12.494 -11.58,-28.113 -24.113,-28.113 -10.24,0 -19.128,7.788 -19.128,7.788 0,0 -38.286,-35.647 -75.51,-35.647 -32.312,0 -76.89,31.725 -96.511,31.725 -20.936,0 -39.436,-50.683 -68.858,-50.683 -15.814,0 -34.487,12.719 -54.584,24.957 -20.088,12.2 -23.834,27.155 -28.732,39.418 -3.244,8.128 -13.52,19.023 -25.524,30.865 H 23.664 l 188.19,327.29 c -1.43,0.258 -2.82,0.435 -4.093,0.435 H 67.486 l -25.9,46.616 h 166.069 c 7.063,0 16.744,-4.245 21.512,-9.459 l 2.65,-2.868 81.439,141.63 75.259,-130.899 h 63.523 v -13.207 h -15.263 l -2.709,-8.493 h 2.327 l 10.997,-5.086 c 0,-12.691 -15.259,-30.508 -15.259,-30.508 l -2.49,-14.212 20.844,-36.259 97.292,-35.884 c 17.25,-6.356 19.175,-31.498 19.175,-31.498 0,0 15.818,7.431 24.555,-11.87 0,0 17.544,5.606 27.09,5.606 8.285,0 19.869,-4.475 19.869,-16.922 0,0 12.776,-7.654 16.953,-20.749 L 540.792,224.604 Z m 9.53,-138.174 c 3.996,0 6.292,1.546 6.292,3.785 0,2.228 -8.082,12.843 -18.33,12.843 -2.16,0 -2.66,-1.181 -2.66,-1.85 0,-3.265 10.68,-14.778 14.697,-14.778 z m -8.638,22.012 c 9.454,11.403 9.79,23.92 9.79,23.92 L 534.8,122.94 c 0,-2.24 2.734,-1.938 2.734,-1.938 z m -5.819,7.498 c 0,0 13.806,15.277 13.806,23.893 0,4.72 -3.771,2.823 -3.771,2.823 l -13.377,-20.038 z m 2.232,37.023 c -6.561,0 -12.808,-17.802 -12.808,-17.802 0,0 0.658,-3.6 4.167,-3.6 11.202,9.556 8.641,21.402 8.641,21.402 z m -22.305,-9.462 c 11.128,0 15.507,20.268 14.524,23.947 -10.796,0 -14.524,-23.947 -14.524,-23.947 z m 3.912,36.468 c -15.722,0 -23.685,-28.413 -23.685,-28.413 0,0 0.316,-3.937 11.447,-3.064 0,0 15.796,16.048 12.238,31.477 z m 10.449,-71.28 c 0,14.28 -16.522,31.82 -24.707,31.82 -4.312,0 -4.962,-3.417 -4.962,-3.417 0,0 10.207,-21.71 25.34,-31.455 0,0 4.329,0.113 4.329,3.052 z M 511.387,99.255 c 6.848,-3.912 16.964,8.74 7.304,13.636 -14.268,6.982 -29.612,36.489 -29.612,36.489 -6.88,1.16 -9.44,-3.056 -9.44,-3.056 0,0 3.038,-28.47 31.748,-47.069 z M 337.594,346.37 c -5.312,6.052 -20.221,-4.33 -14.562,-10.254 L 478.835,172.365 c 5.77,-5.762 13.42,1.372 7.952,7.492 L 337.595,346.369 Z m 10.59,19.094 -1.365,4.463 -5.291,-0.827 0.845,-7.835 c 3.095,-0.849 4.383,3.35 5.811,4.199 z m -16.037,-7.626 c 5.36,0 5.143,7.707 5.143,20.469 0,8.514 -3.254,11.93 -5.49,11.93 -4.014,0 -3.809,-6.157 -5.04,-8.347 0,0 1.656,-2.168 1.656,-6.508 0,-4.358 -2.186,-17.544 3.731,-17.544 z m -72.8,-15.196 c -3.499,3.48 -9.784,3.042 -9.784,3.042 0,0 -17.106,-15.05 -6.668,-29.52 11.06,6.776 16.451,26.478 16.451,26.478 z m -8.13,-31.466 c 0,-6.476 13.775,-11.022 13.775,1.128 0,15.376 2.96,15.128 2.96,17.24 0,2.858 -5.564,0.82 -5.564,0.82 0,-4.697 -11.17,-12.726 -11.17,-19.188 z m 28.84,29.606 c 6.688,0 4.36,8.517 4.36,8.517 -11.997,-2.861 -29.81,14.187 -29.81,14.187 0,0 -1.207,-2.663 -1.207,-5.652 0,-5.794 13.06,-17.052 26.656,-17.052 z m -9.572,-30.73 c 0,-8.805 8.362,-13.032 8.362,11.424 -2.919,2.907 -8.362,-1.613 -8.362,-11.425 z m -5.865,54.287 c 11.124,35.782 21.244,55.03 21.244,55.03 l -3.954,2.066 c 0,0 -20.215,-14.29 -23.13,-47.907 z m 8.107,-4.45 c 19.55,-10.785 27.286,22.001 27.286,22.001 0,31.247 -3.056,36.471 -3.056,36.471 -4.564,-1.185 -15.38,-22.305 -24.23,-58.472 z m 20.317,-27.027 c -2.185,1.231 -6.929,1.468 -6.929,-5.652 0,-6.887 -2.26,-16.848 0.82,-23.568 10.771,5.09 3.392,23.812 6.109,29.22 z m -1.174,15.316 c 0,-2.345 2.94,-6.126 8.507,-6.126 5.578,0 10.753,0.958 10.753,6.88 0,7.236 -8.751,12.078 -10.283,12.078 -2.695,0 -8.977,-6.685 -8.977,-12.832 z m 5.918,-40.914 c 0,0 8.492,-0.891 8.492,9.593 0,4.12 0.007,11.021 0.421,14.067 -1.91,2.957 -7.513,0.559 -7.513,0.559 0,0 -2.805,-15.546 -1.4,-24.219 z m 10.024,66.264 c 0,0 11.421,-11.481 11.421,16.137 0,23.337 -15.712,35.091 -15.712,25.895 0,-5.656 5.897,-5.012 4.29,-42.032 z m 5.56,-58.192 c 0,0 5.469,-2.519 5.469,8.867 0,11.481 -1.21,10.8 -2.943,11.765 0,0 -4.67,-7.092 -2.526,-20.632 z m 5.451,51.001 c -1.68,0 -4.595,-1.797 -4.595,-4.124 0,-7.138 1.92,-11.28 5.387,-11.28 2.105,0 2.982,2.31 2.982,4.768 0,7.973 -2.607,10.636 -3.774,10.636 z m 157.161,-208.64 c 0,0 5.494,-2.402 8.581,7.378 -4.902,-0.258 -7.884,1.903 -7.884,1.903 0,0 -2.9,-6.006 -0.697,-9.281 z m 15.383,-90.635 6.06,12.984 c -6.424,0 -10.888,-9.699 -10.888,-11.584 0,-2.454 4.252,-2.649 4.828,-1.4 z m -13.43,0.75 19.214,26.149 c 0,0 -1.5,3.116 -4.153,0.28 l -20.915,-22.27 c 0,0 0.997,-4.159 5.854,-4.159 z m -9.745,9.701 22.864,26.19 c 1.235,1.238 -2.946,4.552 -5.31,2.235 L 459.844,80.602 c 0,0 5.31,-6.566 8.348,-3.089 z m -13.632,8.861 c 3.845,0 28.456,19.009 28.456,24.622 0,0.65 -1.797,3.187 -2.84,2.448 L 448.982,91.163 c 0,0 1.737,-4.789 5.578,-4.789 z m -10.763,12.284 c 12.04,5.458 22.736,12.26 33.577,19.455 1.801,1.213 -1.033,6.848 -2.783,5.921 l -32.804,-17.803 c 0,0 -1.004,-3.568 2.01,-7.573 z m -3.725,14.786 c 6.689,1.91 28.612,14.014 31.449,15.892 2.44,1.584 -1.037,5.21 -2.208,4.715 l -30.925,-14.467 c 0,0 -2.062,-2.32 1.684,-6.14 z m -5.89,12.528 c 12.285,3.463 27.87,11.708 27.87,11.708 -21.913,1.097 -28.686,-9.179 -28.686,-9.179 z m -138.527,-3.144 c 46.609,0 98.307,44.324 133.746,93.472 l -96.875,101.795 c -54.1,-28.577 -106.531,-73.944 -106.531,-132.26 0,-32.39 28.06,-63.007 69.66,-63.007 z M 169.411,53.025 c 7.768,-3.707 13.226,3.703 13.226,3.703 -1.062,2.866 -9.544,8.89 -9.544,14.899 0,3.236 16.006,3.509 16.006,15.878 0,5.405 -2.76,8.121 -2.76,8.121 l -6.334,0.527 c 0,0 2.727,-2.678 2.727,-7.757 0,-4.365 -4.397,-8.128 -7.46,-8.128 -9.097,0 -6.96,13.162 -13.275,7.94 1.875,-10.246 6.247,-18.261 7.414,-35.183 z M 138.78,97.087 c 16.95,16.964 24.6,35.612 24.6,35.612 -3.42,8.478 -40.687,25.428 -40.687,25.428 l 22.043,-40.677 -55.122,47.48 c 0,0 0.849,-22.051 7.626,-29.684 6.791,-7.602 41.54,-38.159 41.54,-38.159 z M 74.05,477.462 H 51.434 L 70.892,442.43 h 22.634 z m 150.845,-7.598 c -3.697,4.043 -11.747,7.598 -17.24,7.598 h -16.61 l 15.85,-35.032 h 0.866 c 8.556,0 19.963,-4.757 26.001,-10.84 l 26.773,-27 10.484,14.966 z m 176.099,-9.91 h 17.512 l -2.433,8.492 H 396.12 l 4.874,-8.493 z m -54.589,-8.03 c -1.436,-1.829 0.11,-5.423 3.396,-8.011 3.336,-2.618 7.216,-3.216 8.63,-1.366 1.454,1.829 -0.07,5.437 -3.388,8.04 -3.332,2.593 -7.202,3.187 -8.638,1.337 z m 87.12,20.997 h 14.06 v 4.283 H 336.182 c 1.744,-9.37 7.106,-15.871 8.33,-17.25 h 3.866 l 7.343,12.967 h 12.118 l 4.118,-12.968 h 6.794 l 4.747,12.968 h 35.948 l 3.69,-12.968 h 6.253 z m 4.559,-120.482 c -15.815,0 -45.94,-7.46 -78.62,-21.492 l 83.912,-93.673 c 18.035,29.503 29.28,58.733 29.28,79.454 0,31.675 -19.942,35.71 -34.572,35.71 z m 127.98,-97.048 4.715,-6.93 27.997,9.26 0.25,8.6 z m 53.57,37.43 c -4.103,0.983 -7.87,-0.053 -8.404,-2.345 -0.57,-2.253 2.33,-4.924 6.423,-5.914 4.068,-0.984 7.867,0.092 8.397,2.356 0.559,2.277 -2.317,4.92 -6.416,5.903 z m -4.938,-21.308 4.96,-6.865 5.973,1.984 1.804,9.101 z m -71.071,-41.267 105.847,35.034 c -3.72,7.187 -10.088,12.022 -12.422,13.639 l -4.758,-1.57 -2.787,-14.15 -11.534,-3.816 -7.719,10.65 -6.713,-2.224 -0.414,-13.332 -34.15,-11.308 -7.326,10.77 -6.176,-2.05 0.138,-13.152 -13.338,-4.414 1.35,-4.078 z"
     id="path3" />
  <path
     fill="#ffb81c"
     d="m 251.532,370.917 c -6.012,-14.484 -3.356,-17.785 -3.356,-17.785 0,0 -19.313,-15.867 -13.583,-35.608 0,0 -49.71,-72.03 -49.71,-114.737 0,-22.107 10.728,-19.956 10.728,-38.028 0,-14.838 -10.152,-25.927 -17.424,-25.927 -8.337,0 -34.36,17.183 -72.472,39.644 l 14.424,-33.058 -34.76,35.623 c 0,0 -6.79,-34.774 11.914,-53.46 3.031,-3.057 6.14,-6.074 9.228,-9.094 h -66.31 l 180.959,314.68 c 3.297,-1.574 6.342,-3.509 8.468,-5.667 l 28.527,-28.76 c -4.563,-10.686 -6.632,-21.757 -6.632,-27.823 z m 217.888,-220.409 -3.386,-7.63 c -17.533,2.954 -33.224,-5.935 -37.709,-8.248 -4.495,-2.281 0.41,-12.104 0.41,-12.104 0,0 -1.216,-2.119 -3.972,-4.04 h -18.34 c -3.452,3.1 -4.258,7.882 -1.436,10.793 19.461,20.197 35.085,41.872 47.532,62.766 l 20.342,-21.386 -3.441,-20.15 z m 74.367,-29.107 c 10.647,12.585 6.254,25.47 6.254,25.47 0,9.735 -5.146,9.572 -5.146,9.572 0,22.642 -11.885,18.666 -11.885,18.666 0,29.8 -32.825,17.72 -32.825,17.72 -5.355,-0.693 -9.815,-2.178 -13.444,-3.94 l -22.224,24.8 c 14.407,28.049 23.044,52.975 27.65,68.51 l 94.108,-163.713 h -39.87 z M 391.419,359.053 c 0,-2.001 -29.84,-9.925 -41.547,-14.41 -10.703,4.206 3.2,6.353 3.2,20.254 0,8.238 -4.01,17.901 -4.01,17.901 l -5.96,1.69 c 0,0 -11.86,21.878 -19.48,18.656 -10.876,19.128 -15.326,23.554 -32.605,23.554 -5.55,0 -10.434,-1.617 -14.728,-4.32 l -37.695,41.113 74.662,129.844 64.213,-111.681 h -46.163 c 0,-11.892 7.562,-21.7 7.562,-21.7 0,-18.928 11.658,-22.96 20.342,-23.735 18.453,-1.623 25.976,-0.021 25.976,-9.037 0,-6.367 -0.555,-13.88 -0.555,-13.88 h 6.788 c 0,-24.795 -6.933,-30.815 -6.933,-43.47 0,-4.847 6.933,-6.94 6.933,-10.779 z m -5.405,107.731 3.926,-6.83 h -6.451 z"
     id="path4" />
  <path
     fill="#ffb81c"
     d="m 358.308,468.447 h 6.271 l 2.706,-8.493 h -13.783 z m 62.667,-62.473 14.474,-25.173 -16.143,7.923 z"
     id="path5" />
</svg>
