<?xml version="1.0" encoding="UTF-8" standalone="no"?>
<svg
   fill="none"
   viewBox="0 0 509.71399 640"
   version="1.1"
   id="svg5"
   sodipodi:docname="SEA_2.svg"
   width="509.71399"
   height="640"
   inkscape:version="1.4 (86a8ad7, 2024-10-11)"
   xmlns:inkscape="http://www.inkscape.org/namespaces/inkscape"
   xmlns:sodipodi="http://sodipodi.sourceforge.net/DTD/sodipodi-0.dtd"
   xmlns="http://www.w3.org/2000/svg"
   xmlns:svg="http://www.w3.org/2000/svg">
  <defs
     id="defs5" />
  <sodipodi:namedview
     id="namedview5"
     pagecolor="#ffffff"
     bordercolor="#000000"
     borderopacity="0.25"
     inkscape:showpageshadow="2"
     inkscape:pageopacity="0.0"
     inkscape:pagecheckerboard="0"
     inkscape:deskcolor="#d1d1d1"
     inkscape:zoom="1.8359375"
     inkscape:cx="254.91064"
     inkscape:cy="320"
     inkscape:window-width="3440"
     inkscape:window-height="1377"
     inkscape:window-x="-8"
     inkscape:window-y="-8"
     inkscape:window-maximized="1"
     inkscape:current-layer="svg5" />
  <path
     fill="#001425"
     d="M 0,521.143 C 124.702,532.046 203.797,567.213 242.286,640 374.089,618.638 496,534.106 496,425.143 496,279.972 320.118,257.152 315.428,214.857 389.41,241.67 470.851,213.447 509.714,121.143 394.784,112.654 310.657,70.723 274.287,0 133.322,25.097 20.571,116.317 20.571,214.857 c 0,143.93 184.99,182.035 205.715,212.572 C 125.322,389.145 38.244,432.775 0,521.143 Z"
     id="path1" />
  <path
     fill="#96d8d8"
     d="m 218.745,207.418 c -15.78,-16.032 -22.353,-28.585 -22.353,-45.155 0,-18.948 9.14,-28.219 9.14,-38.848 0,-9.121 -5.73,-16.276 -16.71,-18.455 6.517,-7.014 15.347,-11.251 23.566,-11.251 47.044,0 60.935,103.967 159.088,100.234 34.985,-3.354 68.037,-20.366 88.813,-50.18 C 374.573,132.636 296.323,96.209 258.091,34.295 218.426,41.515 52.104,98.909 56.311,218.871 60.696,343.97 245.688,378.733 297.436,432.454 338.238,474.813 309.502,517.498 283.199,533.019 242.568,427.349 109.047,419.832 55.892,496.109 141.607,507.237 219.857,543.663 258.09,605.577 352.642,585.74 398.254,502.83 380.892,443.028 352.161,344.059 165.602,326.649 116.118,233.948 c -26.444,-52.157 -4.7,-107.849 43.645,-140.253 -18.971,24.457 -28.052,52.647 -27.643,79.028 4.287,4.678 6.12,15.638 6.157,15.86 0.624,3.83 1.749,11.91 -0.252,16.861 2.112,5.547 4.824,10.843 8.063,15.92 6.473,1.62 13.748,10.06 13.9,10.233 7.12,8.186 8.229,13.35 8.408,15.315 4.398,3.922 9.119,7.715 14.11,11.403 4.164,-0.497 10.502,1.524 16.967,5.633 7.433,4.867 11.137,9.68 12.186,13.298 a 556.122,556.122 0 0 0 15.911,8.898 c 4.159,-1.132 10.994,0.188 17.873,3.703 6.885,3.523 11.965,8.365 13.45,12.426 5.451,2.72 10.942,5.435 16.444,8.159 4.157,-1.203 11.06,-0.01 17.998,3.523 6.787,3.457 11.749,8.22 13.333,12.244 a 803.372,803.372 0 0 1 16.666,8.864 c 5.107,-1.039 13.25,2.068 17.683,4.701 6.548,3.917 11.052,8.994 12.375,13.108 5.547,3.602 10.914,7.304 16.048,11.131 4.34,-0.202 10.723,2.282 16.683,7.358 6.424,5.593 9.726,11.746 9.869,16.029 4.45,4.753 8.526,9.7 12.17,14.864 5.258,1.316 10.565,7.4 13.515,13.505 4.09,8.906 3.552,15.184 2.352,18.424 7.097,22.142 9.01,50.022 -2.401,82.097 -0.118,0.335 -0.268,0.727 -0.434,1.142 23.876,-25.993 40.023,-57.997 38.676,-96.42 C 455.483,295.904 270.493,261.14 218.744,207.418 Z"
     id="path2" />
  <path
     fill="#c8102e"
     d="m 289.739,220.542 c -21.14,-24.316 -34.642,-67.412 -57.95,-84.254 -10.452,37.109 11.323,77.706 57.95,84.254 z"
     id="path3" />
  <path
     fill="#639fb6"
     d="m 272.998,569.365 c -7.623,22.345 -14.907,36.212 -14.907,36.212 -38.233,-61.914 -116.483,-98.34 -202.199,-109.468 88.566,-44.403 180.261,2.312 217.106,73.256 z m 187.29,-425.601 c -88.566,44.402 -180.26,-2.313 -217.105,-73.256 7.623,-22.345 14.908,-36.213 14.908,-36.213 -37.455,6.82 -206.022,63.606 -201.78,184.576 4.385,125.099 189.377,159.862 241.125,213.583 40.802,42.359 12.066,85.044 -14.237,100.565 -3.001,13.607 -6.638,25.9 -10.202,36.346 19.27,-3.357 77.688,-34.281 78.072,-93.792 0.53,-82.02 -105.48,-103.752 -185.831,-153.527 -66.139,-40.971 -78.977,-81.628 -82.33,-107.36 -7.886,-60.536 34.833,-115.82 96.934,-141.9 -8.908,7.595 -15.817,15 -20.08,20.909 -18.97,24.457 -28.051,52.647 -27.642,79.028 4.287,4.678 6.12,15.639 6.157,15.86 0.624,3.83 1.749,11.91 -0.252,16.861 2.112,5.547 4.824,10.843 8.063,15.92 6.473,1.62 13.748,10.06 13.9,10.233 7.12,8.186 8.229,13.351 8.408,15.315 4.398,3.922 9.119,7.715 14.11,11.403 4.164,-0.497 10.502,1.524 16.967,5.633 7.433,4.866 11.137,9.68 12.186,13.298 a 556.122,556.122 0 0 0 15.911,8.898 c 4.159,-1.132 10.994,0.188 17.873,3.703 6.885,3.523 11.965,8.365 13.45,12.426 5.451,2.72 10.942,5.434 16.444,8.159 4.157,-1.203 11.06,-0.009 17.998,3.523 6.787,3.457 11.749,8.22 13.333,12.245 5.62,2.91 11.186,5.86 16.666,8.863 5.107,-1.039 13.25,2.068 17.683,4.701 6.548,3.917 11.052,8.994 12.375,13.108 5.547,3.602 10.914,7.304 16.048,11.131 4.34,-0.202 10.723,2.282 16.683,7.358 6.424,5.593 9.726,11.746 9.869,16.03 4.45,4.752 8.526,9.698 12.17,14.864 5.258,1.315 10.565,7.399 13.515,13.504 4.09,8.906 3.552,15.184 2.352,18.424 7.097,22.142 9.01,50.022 -2.401,82.097 30.52,-51.717 27.58,-103.062 -6.536,-146.472 C 343.806,279.103 164.44,268.266 165.111,164.3 c 0.16,-24.733 10.48,-44.408 23.712,-59.339 6.516,-7.014 15.346,-11.252 23.565,-11.252 47.044,0 60.935,103.968 159.088,100.235 34.985,-3.354 68.037,-20.366 88.812,-50.18 z"
     id="path4" />
  <path
     fill="#001425"
     d="m 399.464,612.477 v -13.5 h -5.045 v -2.83 h 13.261 v 2.83 h -4.906 v 13.5 z m 10.19,0 v -16.33 h 5.164 l 2.971,11.246 2.991,-11.247 h 5.166 v 16.331 h -3.151 v -13.021 l -3.532,13.021 h -2.989 l -3.511,-13.021 v 13.021 z"
     id="path5" />
</svg>
