<?xml version="1.0" encoding="UTF-8" standalone="no"?>
<svg
   viewBox="0 0 765.51398 640"
   version="1.1"
   id="svg15"
   sodipodi:docname="SJS_dark.svg"
   width="765.51398"
   height="640"
   inkscape:version="1.4 (86a8ad7, 2024-10-11)"
   xmlns:inkscape="http://www.inkscape.org/namespaces/inkscape"
   xmlns:sodipodi="http://sodipodi.sourceforge.net/DTD/sodipodi-0.dtd"
   xmlns="http://www.w3.org/2000/svg"
   xmlns:svg="http://www.w3.org/2000/svg">
  <defs
     id="defs15" />
  <sodipodi:namedview
     id="namedview15"
     pagecolor="#ffffff"
     bordercolor="#000000"
     borderopacity="0.25"
     inkscape:showpageshadow="2"
     inkscape:pageopacity="0.0"
     inkscape:pagecheckerboard="0"
     inkscape:deskcolor="#d1d1d1"
     inkscape:zoom="1.8359375"
     inkscape:cx="382.36596"
     inkscape:cy="320"
     inkscape:window-width="3440"
     inkscape:window-height="1377"
     inkscape:window-x="-8"
     inkscape:window-y="-8"
     inkscape:window-maximized="1"
     inkscape:current-layer="svg15" />
  <path
     d="m 429.978,583.52 c -8.281,0 -15.005,6.714 -15.005,15.002 0,8.277 6.724,15 15.005,15 8.281,0 14.995,-6.723 14.995,-15 0,-8.288 -6.713,-15.001 -14.995,-15.001 z m 0,26.784 c -6.517,0 -11.782,-5.27 -11.782,-11.782 0,-6.512 5.265,-11.775 11.783,-11.775 6.51,0 11.78,5.265 11.78,11.775 0,6.51 -5.27,11.782 -11.78,11.782 z m 6.164,-15.26 a 5.085,5.085 0 0 0 -5.09,-5.082 h -7.228 v 17.123 h 3.213 v -6.954 h 2.306 l 3.246,6.954 h 3.553 l -3.389,-7.251 a 5.095,5.095 0 0 0 3.39,-4.79 z m -5.09,1.872 h -4.015 v -3.747 h 4.015 c 1.032,0 1.877,0.84 1.877,1.876 a 1.878,1.878 0 0 1 -1.877,1.871 z"
     fill="#ffffff"
     id="path1" />
  <path
     d="m 634.695,177.633 -61.063,97.544 c 6.675,-3.1 13.715,-6.312 20.736,-9.512 l 65.165,-105.41 c 0,0 -110.853,24.214 -211.756,34.445 2.402,3.742 4.75,7.51 7.078,11.33 69.285,-7.313 141.575,-20.735 179.84,-28.398 z"
     fill="none"
     id="path2" />
  <path
     d="m 616.023,384.516 -3.086,-3.953 c 34.329,-61.473 59.18,-134.832 59.18,-143.61 0,-2.128 -0.983,-2.759 -2.262,-2.096 -54.616,27.69 -114.595,52.392 -127.861,61.659 l -3.557,4.914 C 509.069,275.263 483.875,256.862 474.127,250.005 413.071,130.205 319.404,45.998 259.061,15.835 c 0,12.51 59.727,104.456 68.879,181.717 C 219.9,190.189 82.861,160.255 82.861,160.255 L 200.853,351.13 c -96.9,5.938 -181.91,7.945 -181.91,7.945 0,6.736 108.209,58.478 267.967,94.61 34.936,7.919 60.96,6.664 77.975,6.664 a 654.301,654.301 0 0 0 -9.52,-10.236 c 23.16,14.121 44.28,28.2 63.298,40.852 -4.772,0.064 -9.972,0.085 -15.703,0.085 -38.414,0 -67.453,-2.003 -85.837,-3.386 -4.555,-0.349 -8.479,-0.641 -11.693,-0.87 -1.633,-0.1 -3.07,-0.178 -4.345,-0.25 l -18.073,-28.868 c -7.29,-1.61 -14.257,-3.307 -19.065,-4.483 l 24.15,39.047 c -22.556,16.224 -80.48,65.394 -122.436,133.93 l 3.668,6.765 c 0,0 40.537,-2.516 74.806,-3.485 0,0 15.368,-43.838 70.326,-94.562 l 56.74,91.746 68.829,-111.341 c 4.458,-0.478 8.952,-1.005 13.568,-1.561 4.765,2.986 9.363,5.788 13.743,8.311 -2.352,1.405 -4.33,3.208 -5.852,5.91 0,0 3.963,2.715 4.22,8.061 0,0 3.403,0.55 6.957,-0.456 0,0 2.423,-3.678 4.523,-8.119 4.512,2.303 8.756,4.306 12.734,5.895 -0.036,3.842 0.61,6.686 0.61,6.686 0,0 4.394,1.34 9.672,-3.364 30.509,6.95 48.739,1.055 48.739,1.055 30.964,9.167 46.707,-1.084 46.707,-1.084 12.128,5.275 22.268,8.319 55.482,8.319 18.023,0 23.975,-2.188 23.975,-5.225 0,-14.484 -15.336,-73.805 -30.655,-104.313 -8.432,-35.069 -9.808,-41.473 -28.43,-50.893 z"
     fill="none"
     id="path3" />
  <path
     d="m 722.906,255.522 -7.77,13.85 1.693,10.596 c -34.867,68.583 -73.687,130.654 -73.687,130.654 l 4.794,11.644 5.677,-3.938 3.878,0.339 c 0,0 37.166,-35.545 84.518,-127.326 0,0 13.7,0.46 14.823,-10.65 1.108,-11.234 1.882,-19.042 1.882,-23.54 -17.054,-6.198 -35.808,-1.629 -35.808,-1.629 z m -69.514,169.1 1.101,4.044 c 0,0 9.937,6.779 17.115,8.781 l 5.734,-4.134 c 0,0 -3.3,-4.22 -2.263,-10.405 -7.46,-4.837 -21.687,1.714 -21.687,1.714 z"
     fill="none"
     id="path4" />
  <path
     d="m 718.418,249.602 -10.396,18.508 1.714,10.753 c -27.51,53.878 -57.513,103.881 -68.259,121.477 -4.166,-9.445 -9.658,-15.026 -20.286,-20.71 0,0 48.817,-88.575 62.018,-158.822 -36.924,18.287 -75.6,36.374 -75.6,36.374 l 66.155,-107.024 c 0,0 -127.212,27.828 -227.85,37.867 C 337.424,28.192 238.781,0 238.781,0 c 0,0 68.323,111.876 81.026,190.1 C 181.45,177.112 68.619,150.158 68.619,150.158 L 189.084,345.015 C 118.594,349.199 0,353.035 0,353.035 30.23,383.261 127.469,421.578 256.07,453.35 l 22.946,37.138 C 203.383,547.498 157.792,625.993 157.792,625.993 L 165.433,640 c 0,0 37.537,-2.245 83.58,-3.885 0,0 12.532,-40.459 64.058,-90.534 l 58.13,94.034 72.899,-117.913 7.937,-0.92 4.405,2.645 c -1.205,1.204 -2.017,3.528 -3.75,6.294 6.049,4.113 6.223,4.797 6.512,12.118 0,0 8.052,2.837 18.002,-0.428 l 2.77,-4.997 3.389,1.533 c 0.424,3.542 1.408,7.399 1.408,7.399 9.273,4.362 17.122,-1.433 17.122,-1.433 24.756,5.09 41.503,2.188 47.052,0.841 24.496,6.743 40.353,2.181 46.925,-0.67 11.262,4.655 22.93,7.677 55.26,7.677 14.905,0 30.787,-0.92 30.787,-12.039 0,-15.61 -14.923,-72.92 -30.06,-104.634 0,0 11.113,7.82 21.086,9.816 l 13.842,-10.016 c -6.287,-7.391 -5.093,-9.551 -4.252,-15.277 -4.936,-4.184 -11.847,-5.153 -11.847,-5.153 13.533,-15.536 41.803,-51.775 75.598,-116.638 7.106,-1.076 16.21,-5.25 17.303,-16.441 1.205,-12.185 1.925,-17.439 1.925,-29.018 -21.395,-9.798 -47.096,-2.759 -47.096,-2.759 z"
     fill="#ffffff"
     id="path5" />
  <g
     fill="#010101"
     id="g8"
     transform="translate(-97.243)">
    <path
       d="m 731.938,177.633 -61.063,97.544 c 6.675,-3.1 13.715,-6.312 20.736,-9.512 l 65.165,-105.41 c 0,0 -110.853,24.214 -211.756,34.445 2.402,3.742 4.75,7.51 7.078,11.33 69.285,-7.313 141.575,-20.735 179.839,-28.398 z"
       id="path6" />
    <path
       d="m 741.696,435.409 c -8.432,-35.069 -9.808,-41.473 -28.43,-50.893 l -3.086,-3.953 c 34.328,-61.473 59.18,-134.831 59.18,-143.61 0,-2.128 -0.983,-2.759 -2.262,-2.095 -54.616,27.689 -114.596,52.391 -127.861,61.658 l -3.557,4.915 C 606.312,275.263 581.118,256.862 571.37,250.005 510.314,130.206 416.647,45.998 356.304,15.835 c 0,12.51 59.727,104.456 68.879,181.718 C 317.142,190.189 180.104,160.255 180.104,160.255 L 298.096,351.13 c -96.9,5.938 -181.91,7.945 -181.91,7.945 0,6.736 108.208,58.479 267.967,94.61 34.935,7.919 60.96,6.664 77.975,6.664 a 654.301,654.301 0 0 0 -9.52,-10.236 c 23.16,14.121 44.28,28.2 63.298,40.852 -4.772,0.064 -9.972,0.085 -15.703,0.085 -38.414,0 -67.453,-2.003 -85.837,-3.386 -4.555,-0.349 -8.479,-0.641 -11.694,-0.87 -1.632,-0.099 -3.068,-0.177 -4.344,-0.249 l -18.074,-28.869 c -7.288,-1.61 -14.256,-3.307 -19.064,-4.483 l 24.15,39.048 c -22.557,16.223 -80.48,65.393 -122.436,133.93 l 3.668,6.765 c 0,0 40.537,-2.517 74.805,-3.486 0,0 15.369,-43.838 70.327,-94.562 l 56.74,91.746 68.829,-111.341 c 4.458,-0.478 8.952,-1.005 13.568,-1.561 4.765,2.987 9.363,5.788 13.743,8.311 -2.352,1.405 -4.33,3.208 -5.852,5.91 0,0 3.963,2.715 4.22,8.061 0,0 3.403,0.55 6.957,-0.456 0,0 2.423,-3.678 4.523,-8.119 4.512,2.303 8.756,4.306 12.734,5.895 -0.036,3.842 0.61,6.687 0.61,6.687 0,0 4.394,1.34 9.672,-3.365 30.509,6.95 48.739,1.055 48.739,1.055 30.964,9.167 46.707,-1.084 46.707,-1.084 12.128,5.275 22.268,8.319 55.481,8.319 18.024,0 23.976,-2.188 23.976,-5.225 0,-14.484 -15.336,-73.804 -30.655,-104.313 z M 468.443,573.388 436.011,521.98 c 12.584,-0.229 36.552,-0.977 67.011,-3.429 z"
       id="path7" />
    <path
       d="m 750.635,424.622 1.101,4.044 c 0,0 9.937,6.779 17.115,8.781 l 5.734,-4.134 c 0,0 -3.3,-4.22 -2.263,-10.405 -7.46,-4.837 -21.687,1.714 -21.687,1.714 z m 69.514,-169.1 -7.77,13.85 1.693,10.596 c -34.867,68.583 -73.687,130.655 -73.687,130.655 l 4.793,11.643 5.678,-3.938 3.878,0.339 c 0,0 37.166,-35.544 84.518,-127.326 0,0 13.7,0.46 14.823,-10.65 1.108,-11.234 1.881,-19.042 1.881,-23.54 -17.053,-6.198 -35.808,-1.629 -35.808,-1.629 z"
       id="path8" />
  </g>
  <g
     fill="#e57200"
     id="g10"
     transform="translate(-97.243)">
    <path
       d="m 425.254,522.928 c -0.926,0.77 -1.768,1.554 -2.676,2.338 l 45.865,73.256 50.945,-81.397 c -1.468,0.15 -2.958,0.278 -4.412,0.4 l -46.533,74.396 z m 299.171,-340.106 -59.562,95.164 c 1.974,-0.927 3.97,-1.842 6.012,-2.808 l 61.063,-97.545 c -38.264,7.663 -110.553,21.085 -179.839,28.398 0.692,1.14 1.372,2.292 2.064,3.436 65.219,-7.029 132.608,-19.278 170.262,-26.645 z M 402.673,486.795 385.098,458.739 c -1.607,-0.35 -3.232,-0.692 -4.843,-1.062 l 18.073,28.869 c 1.276,0.071 2.712,0.15 4.345,0.25 z m 162.62,46.511 c 4.701,-6.344 7.891,-10.392 8.647,-12.937 -4.149,1.803 -9.463,2.794 -12.357,7.2 0,0 2.114,2.06 3.71,5.737 z m 24.164,4.356 c 0,0 3.137,-0.407 5.881,-3.158 0,0 -2.912,-4.505 -4.65,-8.696 -2.068,5.267 -1.23,11.854 -1.23,11.854 z M 574.966,426.591 c 2.51,19.973 7.306,28.442 7.306,28.442 0,0 7.528,5.894 21.862,11.76 -14.477,-26.78 -29.168,-40.202 -29.168,-40.202 z m -156.804,89.123 5.767,-3.229 c 0,0 23.683,3.82 165.604,-10.82 -3.38,-2.46 -5.054,-1.975 -5.054,-7.62 0,-1.804 0.306,-2.103 -2.788,-2.103 -3.086,0 -4.412,-0.82 -8.065,-0.82 -4.551,0 -11.34,4.562 -80.88,4.562 -55.331,0 -94.101,-4.647 -96.66,-4.647 -2.527,0 -7.51,4.74 -22.329,16.658 0,0 29.14,-0.378 44.405,8.02 z m -72.34,88.902 c -21.324,-4.077 -65.361,3.286 -65.361,3.286 l -11.801,17.015 68.929,-3.236 z m 474.181,-327.09 c -23.046,41.386 -48.115,96.244 -75.541,130.178 l 7.905,-4.954 1.732,-1.715 -1.43,4.655 3.351,-1.593 -5.04,8.881 4.694,-3.767 c 0,0 23.459,-26.38 82.783,-133.541 -13.194,-2 -18.455,1.856 -18.455,1.856 z m 2.423,-16.077 -4.808,7.606 c 0,0 11.615,-2.217 27.073,-0.924 l 5.595,-7.883 c -17.025,-3.212 -27.86,1.2 -27.86,1.2 z"
       id="path9" />
    <path
       d="m 749.249,408.488 c 0,0 -2.192,1.778 -5.6,2.726 l 2.894,6.13 1.786,-1.379 -0.713,-2.206 2.98,-5.678 -1.348,0.407 z m 20.575,15.906 c -4.822,-2.509 -14.213,1.206 -14.213,1.206 0,0 9.53,2.231 14.915,4.684 0,0 -0.955,-2.196 -0.702,-5.89 z"
       id="path10" />
  </g>
  <g
     fill="#00778b"
     id="g11"
     transform="translate(-97.243)">
    <path
       d="m 402.673,486.795 c 3.214,0.228 7.138,0.52 11.693,0.87 l -16.687,-26.453 c -3.885,-0.67 -8.183,-1.546 -12.581,-2.473 l 17.574,28.056 z m 33.337,35.185 c -6.304,0.1 -9.768,0.092 -9.768,0.092 -0.35,0.285 -0.653,0.578 -0.988,0.856 l 43.19,68.993 46.532,-74.396 c -4.092,0.385 -8.062,0.74 -11.954,1.026 l -34.578,54.837 -32.433,-51.408 z m 271.41,-327.521 -57.077,90.523 c 4.294,-2.146 9.223,-4.505 14.52,-6.996 l 59.562,-95.164 c -37.654,7.367 -105.043,19.616 -170.262,26.645 a 434.331,434.331 0 0 1 4.63,7.787 c 53.592,-5.905 108.493,-15.24 148.628,-22.795 z m -281.029,21.965 c 0,-4.22 -0.192,-8.486 -0.573,-12.82 -37.124,3.928 -59.25,12.695 -67.75,16.676 13.027,-3.631 36.14,-4.743 68.323,-3.856 z M 708.504,387.58 c 0,0 -45.156,-63.382 -131.991,-127.329 7.378,15.261 14.245,31.025 20.425,47.306 0.877,2.288 0.746,4.284 -1.204,4.284 -19.018,0 -86.165,-36.93 -152.125,-30.313 34.258,32.622 68.316,78.4 35.291,61.709 0,0 34.483,21.28 74.981,63.957 30.17,0 36.168,5.09 37.943,9.309 3.436,8.144 8.436,22.612 28.188,45.907 9.067,0 10.724,-0.592 14.046,-8.74 0,0 2.47,10.4 -2.07,18.028 41.168,32.526 121.106,65.293 133.327,65.293 4.918,0 -5.21,-44.736 -28.363,-98.531 -7.563,-34.075 -11.736,-43.626 -28.448,-50.88 z M 333.27,348.84 c 0,0 11.775,6.928 31.11,21.52 -4.747,-8.216 -17.271,-17.158 -30.982,-25.48 l -30.088,2.206 2.22,3.593 c 9.192,-0.588 18.44,-1.212 27.74,-1.84 z m 177.197,52.698 c -4.765,25.745 0.221,46.41 0.221,46.41 -0.816,-8.605 5.967,-37.46 5.967,-37.46 z M 495.349,386.84 c -4.744,29.542 1.939,53.11 1.939,53.11 -1.426,-10.857 4.237,-42.824 4.237,-42.824 z M 480.39,373.474 c -4.893,31.574 2.734,56.788 2.734,56.788 -1.419,-14.365 3.453,-47.835 3.453,-47.835 z m -34.033,-52.103 c 0,0 -58.062,-48.047 -130.142,-60.147 -2.605,0 -7.816,10.956 -7.816,10.956 0,0 7.631,-6.882 9.951,-6.882 61.726,11.882 128.007,56.073 128.007,56.073 z"
       id="path11" />
  </g>
  <g
     fill="#ffffff"
     id="g15"
     transform="translate(-97.243)">
    <path
       d="m 611.865,526.962 c 8.408,-4.982 14.57,-9.722 14.57,-9.722 -27.729,1.211 -38.179,-2.168 -38.179,-2.168 4.962,-4.954 11.16,-9.223 15.084,-13.144 -2.987,0.47 -6.056,0.799 -9.053,1.055 -0.036,1.348 -1.515,2.88 -5.745,5.446 a 942.53,942.53 0 0 1 -24.5,3.614 c 2.278,2.424 4.708,4.783 7.406,7.021 1.879,-0.613 3.882,-1.219 6.02,-1.946 0,1.697 -0.453,3.657 -1.101,5.618 3.293,2.237 7,4.27 11.205,5.994 0.435,-2.716 1.251,-5.553 2.898,-8.119 1.404,0.392 2.167,4.498 2.955,5.624 2.056,3.009 4.758,3.5 5.26,5.98 11.626,2.674 26.374,3.415 45.823,0.97 l 5.396,-4.377 c -28.455,0.514 -38.04,-1.846 -38.04,-1.846 z m -46.087,-41.706 c -12.435,3.97 -17.778,1.19 -17.778,1.19 2.438,-2.43 4.014,-7.2 4.014,-7.2 -11.006,3.073 -14.42,0.015 -14.42,0.015 1.746,-1.055 3.51,-5.275 3.51,-5.275 -14.285,0 -22.09,2.353 -22.09,2.353 11.865,1.49 19.638,6.7 26.242,13.436 9.306,-0.663 15.001,-1.497 18.99,-2.146 z"
       id="path12" />
    <path
       d="m 541.703,478.05 c 0,0 6.027,0.363 13.008,-2.125 0,0 0.371,4.676 -2.79,8.874 0,0 5.906,-0.042 18.045,-2.85 0,0 -1.048,2.423 -2.513,5.131 2.195,-0.363 3.849,-0.598 5.592,-0.598 3.903,0 4.37,0.82 7.795,0.82 6.458,0 7.252,1.34 8.207,8.86 1.308,1.917 2.823,3.215 3.857,4.334 4.78,-0.371 10.286,-0.891 15.824,-1.676 0,0 -6.162,8.554 -15.46,14.855 0,0 25.803,2.431 39.168,0.756 0,0 -5.77,7.043 -13.707,11.091 0,0 17.835,1.14 36.991,0.813 0,0 -3.76,4.156 -7.505,7.178 0,0 23.672,5.34 40.509,1.333 -60.81,-24.186 -94.277,-60.796 -145.172,-60.796 -0.755,2.146 -1.85,3.999 -1.85,3.999 z M 296.37,587.516 282.692,605.03 c 0,0 40.217,-6.273 64.335,-2.61 l 6.696,-11.483 c -13.15,-6.814 -57.352,-3.421 -57.352,-3.421 z"
       id="path13" />
    <path
       d="m 302.622,579.675 -4.237,5.31 c 0,0 41.517,-3.157 56.664,3.842 l 9.851,-14.826 c -13.422,-2.174 -62.278,5.674 -62.278,5.674 z m 7.188,-8.796 -4.832,5.866 c 0,0 49.726,-7.748 61.487,-4.89 l 0.873,-1.198 c -12.31,-4.055 -57.527,0.222 -57.527,0.222 z m 16.752,-19.246 -14.502,16.53 c 0,0 40.31,-4.185 56.857,0.463 l 16.72,-19.317 c -16.98,-2.794 -59.075,2.324 -59.075,2.324 z m 21.626,-21.748 -19.106,18.96 c 0,0 35.248,-4.775 58.497,-1.724 l 9.138,-10.094 c -8.707,-7.427 -48.529,-7.142 -48.529,-7.142 z"
       id="path14" />
    <path
       d="m 351.813,526.577 -1.001,0.906 c 0,0 34.382,-0.528 47.576,7.712 l 1.982,-2.088 c -10.667,-6.059 -48.557,-6.53 -48.557,-6.53 z m 19,-16.423 -16.416,14.1 c 0,0 38.3,0.698 47.701,7.02 l 14.114,-13.92 c -12.406,-7.043 -45.399,-7.2 -45.399,-7.2 z m -21.955,93.806 0.52,3.472 5.486,-9.63 -0.534,-3.33 -5.471,9.488 z m 7.307,-12.538 0.563,3.329 9.231,-13.486 -0.603,-3.807 z m 11.105,-16.672 0.65,3.977 0.887,-1.14 -0.763,-3.9 -0.773,1.062 z m 2.67,-3.572 0.78,4.049 15.7,-17.67 -0.659,-4.82 z m 17.856,-20.728 0.688,4.854 9.49,-10.144 -1.2,-4.64 z m 10.867,-11.983 1.212,4.697 1.846,-1.924 -0.656,-5.382 -2.402,2.61 z m 4.466,-4.79 0.677,5.446 12.47,-12.232 -0.153,-6.337 z"
       id="path15" />
  </g>
</svg>
