<?xml version="1.0" encoding="UTF-8" standalone="no"?>
<svg
   width="808.33112"
   height="652.64453"
   viewBox="0 0 808.33112 652.64453"
   fill="none"
   version="1.1"
   id="svg6"
   sodipodi:docname="STL.svg"
   inkscape:version="1.4 (86a8ad7, 2024-10-11)"
   xmlns:inkscape="http://www.inkscape.org/namespaces/inkscape"
   xmlns:sodipodi="http://sodipodi.sourceforge.net/DTD/sodipodi-0.dtd"
   xmlns="http://www.w3.org/2000/svg"
   xmlns:svg="http://www.w3.org/2000/svg">
  <defs
     id="defs6" />
  <sodipodi:namedview
     id="namedview6"
     pagecolor="#ffffff"
     bordercolor="#000000"
     borderopacity="0.25"
     inkscape:showpageshadow="2"
     inkscape:pageopacity="0.0"
     inkscape:pagecheckerboard="0"
     inkscape:deskcolor="#d1d1d1"
     inkscape:zoom="1.8359375"
     inkscape:cx="404.69787"
     inkscape:cy="326.53617"
     inkscape:window-width="3440"
     inkscape:window-height="1377"
     inkscape:window-x="-8"
     inkscape:window-y="-8"
     inkscape:window-maximized="1"
     inkscape:current-layer="svg6" />
  <path
     id="path7"
     style="fill:#ffffff"
     sodipodi:type="inkscape:offset"
     inkscape:radius="16.32226"
     inkscape:original="M 0 0 L 231.62695 378.36719 C 228.48895 378.24019 225.35086 378.0293 222.25586 378.0293 C 127.32486 378.0293 52.955078 431.15416 52.955078 499.03516 C 52.955078 566.91616 127.32486 620 222.25586 620 C 317.18786 620 391.55469 566.87316 391.55469 499.03516 C 391.55469 481.86316 386.76356 465.32952 377.35156 449.85352 L 325.45312 365.09766 C 325.45312 365.09766 367.21775 373.49219 398.59375 358.99219 L 383.45508 339.48828 C 383.45508 339.48828 447.13833 345.38206 505.86133 327.91406 L 485.97656 306.79883 C 485.97656 306.79883 575.31184 304.5087 637.21484 225.0957 L 631.02344 225.0957 C 631.02344 225.0957 677.15427 202.8373 696.57227 153.6543 L 690.55273 153.6543 C 690.55273 153.6543 720.10434 131.64867 730.15234 86.451172 L 721.41797 86.451172 C 721.41797 86.451172 768.35445 53.3379 775.68945 0 L 134.74414 0 C 177.18514 66.2272 191.30366 88.020837 155.22266 86.960938 L 101.96875 0 L 0 0 z M 19.927734 11.150391 L 95.693359 11.150391 L 149.03125 98.28125 C 190.41325 98.28125 205.04153 86.196591 155.51953 11.150391 L 759.83203 11.150391 C 741.89703 61.435591 694.45313 92.939453 694.45312 92.939453 L 715.69336 92.939453 C 703.27136 140.84945 657.56445 161.92188 657.56445 161.92188 L 677.19531 161.92188 C 650.35731 219.32987 597.23242 226.75 597.23242 226.75 L 616.52344 226.75 C 574.46344 296.326 461.76758 297.4707 461.76758 297.4707 L 485.84961 322.99414 C 435.22461 333.21214 359.54297 326.9375 359.54297 326.9375 L 379.85156 353.09961 C 347.71356 363.10561 301.88086 348.01172 301.88086 348.01172 L 367.76953 455.66211 C 376.12153 469.35711 380.36133 483.94116 380.36133 499.03516 C 380.36133 560.59816 310.91189 608.84961 222.21289 608.84961 C 133.51389 608.84961 64.107422 560.64016 64.107422 499.03516 C 64.107422 437.42916 133.55689 389.22266 222.21289 389.22266 C 232.55789 389.22266 242.69228 390.0278 252.61328 391.3418 L 19.927734 11.150391 z "
     d="M 0,-16.322266 A 16.323892,16.323892 0 0 0 -13.919922,8.5214844 L 202.74219,362.44141 c -42.67372,3.12059 -80.9095,16.40504 -110.226565,37.35546 -33.722997,24.09898 -55.882813,59.33695 -55.882813,99.23829 10e-7,39.90133 22.162931,75.13252 55.886719,99.2207 33.723789,24.08818 79.228449,38.06641 129.736329,38.06641 50.51081,0 96.01651,-13.99081 129.73828,-38.08399 33.72178,-24.09318 55.88281,-59.31974 55.88281,-99.20312 0,-20.20803 -5.7641,-39.87758 -16.58008,-57.66211 a 16.323892,16.323892 0 0 0 -0.0254,-0.043 l -35.08203,-57.29492 c 14.86875,-0.23786 32.53809,-2.50248 49.25196,-10.22657 a 16.323892,16.323892 0 0 0 9.30078,-17.08007 c 24.96048,-0.23462 60.63089,-2.71627 95.77343,-13.16993 a 16.323892,16.323892 0 0 0 8.22461,-25.4082 c 34.2014,-7.91544 88.90793,-28.57521 131.34766,-83.01953 a 16.323892,16.323892 0 0 0 1.83008,-3.55078 c 16.84494,-11.16777 44.94077,-34.20433 59.83594,-71.93164 a 16.323892,16.323892 0 0 0 1.03906,-4.97071 c 11.05424,-12.28444 26.43858,-33.85146 33.29297,-64.683589 a 16.323892,16.323892 0 0 0 0.31054,-3.414063 C 762.60835,71.007196 786.36982,42.143023 791.85937,2.2246094 A 16.323892,16.323892 0 0 0 775.68945,-16.322266 H 134.74414 a 16.323892,16.323892 0 0 0 -15.4668,13.3320316 l -3.38867,-5.5332031 a 16.323892,16.323892 0 0 0 -13.91992,-7.7988285 z m 49.052734,43.794922 h 37.494141 l 48.562495,79.330074 a 16.323892,16.323892 0 0 0 13.92188,7.80079 c 11.13992,0 21.20113,-0.51702 30.95508,-4.02149 9.75395,-3.50447 19.85481,-12.641158 22.34179,-24.326171 2.48699,-11.685013 -0.4889,-22.982737 -6.08007,-36.193359 -2.89628,-6.84321 -6.70311,-14.328593 -11.42188,-22.589844 h 549.10352 c -19.11042,31.562431 -48.50586,51.869141 -48.50586,51.869141 a 16.323892,16.323892 0 0 0 6.40234,29.050783 c -15.09541,26.2196 -41.0957,38.70703 -41.0957,38.70703 a 16.323892,16.323892 0 0 0 -0.78516,28.45703 c -23.89632,31.25293 -54.9707,35.02734 -54.9707,35.02734 a 16.323892,16.323892 0 0 0 -8.76172,27.33985 c -43.9545,39.97398 -124.61133,43.22461 -124.61133,43.22461 a 16.323892,16.323892 0 0 0 -11.70508,27.52343 l 2.05469,2.17774 c -42.96965,3.31248 -91.06055,-0.17774 -91.06055,-0.17774 a 16.323892,16.323892 0 0 0 -14.24023,26.27344 l 2.26563,2.91797 c -5.98177,-0.24553 -11.98329,-0.76889 -17.47461,-1.66406 -14.18719,-2.31272 -24.45508,-5.69141 -24.45508,-5.69141 a 16.323892,16.323892 0 0 0 -19.02735,24.02539 l 65.88868,107.65039 c 6.93844,11.38569 10.1914,22.82253 10.1914,34.85157 0,24.64376 -13.61384,47.09565 -38.80078,64.58789 -25.18694,17.49223 -61.63561,28.90429 -103.02539,28.90429 -41.39236,0 -77.82988,-11.40344 -103.00391,-28.88867 -25.174021,-17.48522 -38.779293,-39.93077 -38.779293,-64.60351 0,-24.66955 13.614483,-47.11573 38.794923,-64.60157 25.18044,-17.48583 61.61868,-28.88867 102.98828,-28.88867 9.4981,0 18.91077,0.74054 28.25781,1.97852 a 16.323892,16.323892 0 0 0 16.06446,-24.70117 z"
     transform="translate(16.319681,16.322266)" />
  <path
     d="m 776.15168,27.474066 h -604.313 c 49.522,75.046104 34.894,87.130204 -6.487,87.130204 l -53.338,-87.130204 H 36.246681 L 268.97468,407.62327 c -9.921,-1.314 -20.055,-2.12 -30.4,-2.12 -88.656,0 -158.105999,48.25 -158.105999,109.813 0,61.564 69.449999,109.814 158.105999,109.814 88.656,0 158.148,-48.208 158.148,-109.814 0,-15.094 -4.24,-29.679 -12.592,-43.374 l -65.888,-107.651 c 0,0 45.833,15.094 77.971,5.088 l -20.309,-26.16 c 0,0 75.682,6.275 126.307,-3.943 l -24.083,-25.524 c 0,0 112.697,-1.103 154.756,-70.722 h -19.291 c 0,0 53.126,-7.42 79.964,-64.828 h -19.63 c 0,0 45.706,-21.072 58.129,-68.983 h -21.242 c 0,0 47.444,-31.502504 65.379,-81.787604 z m -90.904,89.631204 h 35.403 c -6.063,34.428 -68.05,64.828 -68.05,64.828 h 29.043 c -16.747,44.858 -95.101,64.828 -95.101,64.828 h 31.63 c 0,0 -34.937,59.486 -150.983,59.486 -2.501,0 -4.833,0 -7.038,-0.085 l 26.839,28.45 c -71.527,6.232 -126.307,-0.339 -126.307,-0.339 6.742,11.617 21.836,30.315 21.836,30.315 -33.284,3.519 -81.449,-13.313 -81.449,-13.313 l 76.361,124.78 c 7.589,12.465 11.447,25.651 11.447,39.304 0,56.221 -67.414,101.969 -150.304,101.969 -82.89,0 -150.261999,-45.748 -150.261999,-101.969 0,-56.221 67.413999,-101.97 150.261999,-101.97 15.942,0 31.333,1.781 46.173,5.003 L 50.280681,35.360266 h 57.365999 l 53.168,86.875004 c 65.761,3.604 59.274,-34.766704 25.016,-86.875004 h 577.728 c -16.493,46.8932 -78.311,81.788004 -78.311,81.788004 z"
     fill="#ffffff"
     id="path1" />
  <path
     d="m 763.55868,35.361766 h -577.728 c 34.216,52.1083 40.745,90.479504 -25.015,86.875504 l -53.211,-86.875504 H 50.238681 L 284.70468,418.39427 c -14.839,-3.223 -30.272,-5.003 -46.172,-5.003 -82.848,0 -150.261999,45.748 -150.261999,101.969 0,56.221 67.413999,101.97 150.261999,101.97 82.848,0 150.304,-45.749 150.304,-101.97 0,-13.61 -3.858,-26.838 -11.447,-39.304 l -76.361,-124.78 c 0,0 48.123,16.833 81.448,13.313 0,0 -15.094,-18.698 -21.835,-30.315 0,0 54.779,6.572 126.306,0.339 l -26.838,-28.449 c 2.205,0.042 4.537,0.084 7.038,0.084 116.046,0 150.983,-59.485 150.983,-59.485 h -31.63 c 0,0 78.354,-19.97 95.101,-64.828 h -29.043 c 0,0 61.987,-30.4 68.05,-64.828 h -35.403 c 0,0 61.818,-34.894704 78.311,-81.787904 z m -97.475,83.271504 h -435.183 l 4.155,6.826 h 473.554 c -9.667,25.567 -76.912,58.002 -76.912,58.002 h -361.154 l 4.155,6.826 h 392.36 c -23.319,39.559 -119.862,58.002 -119.862,58.002 h -236.967 l 4.155,6.826 h 285.599 c 0,0 -36.802,42.823 -132.878,42.823 -19.037,0 -27.856,-1.696 -27.856,-1.696 l 29.679,31.46 c -54.61,4.283 -122.745,-3.095 -122.745,-3.095 7.208,16.409 19.164,31.672 19.164,31.672 -26.245,0 -83.144,-19.758 -83.144,-19.758 l 88.063,143.86 c 6.571,10.812 10.218,22.599 10.218,34.979 0,51.727 -63.556,93.617 -141.952,93.617 -78.396,0 -141.951999,-41.933 -141.951999,-93.617 0,-51.684 63.555999,-93.659 141.951999,-93.659 23.065,0 44.858,3.646 64.15,10.091 L 65.120681,43.671966 h 37.861999 l 53.042,86.621304 c 44.646,4.494 90.225,-12.254 44.688,-86.621304 h 549.491 c -20.691,41.9749 -84.078,74.961304 -84.078,74.961304 z"
     fill="#ffb81c"
     id="path2" />
  <path
     d="m 750.16068,43.670866 h -549.49 c 45.536,74.367404 -0.043,91.115404 -44.689,86.621404 l -52.998,-86.621404 H 65.120681 L 302.72468,431.79127 c -19.249,-6.445 -41.042,-10.091 -64.15,-10.091 -78.395,0 -141.950999,41.932 -141.950999,93.659 0,51.727 63.555999,93.617 141.950999,93.617 78.396,0 141.952,-41.933 141.952,-93.617 0,-12.38 -3.646,-24.167 -10.218,-34.979 l -88.063,-143.86 c 0,0 56.9,19.758 83.145,19.758 0,0 -11.957,-15.263 -19.165,-31.672 0,0 68.178,7.335 122.745,3.095 l -29.679,-31.46 c 0,0 8.861,1.696 27.856,1.696 96.034,0 132.879,-42.823 132.879,-42.823 h -285.6 l -4.155,-6.826 h 236.968 c 0,0 96.585,-18.444 119.862,-58.002 h -392.36 l -4.155,-6.826 h 361.154 c 0,0 67.245,-32.435 76.912,-58.002 h -473.597 l -4.155,-6.826 h 435.183 c 0,0 63.429,-32.986404 84.077,-74.961404 z"
     fill="#004986"
     id="path3" />
  <path
     d="m 792.00868,16.322266 h -640.945 c 42.441,66.2272 56.56,88.020204 20.479,86.960304 l -53.254,-86.960304 H 16.319681 L 247.94568,394.69027 c -3.138,-0.127 -6.276,-0.339 -9.371,-0.339 -94.931,0 -169.298999,53.126 -169.298999,121.007 0,67.881 74.367999,120.964 169.298999,120.964 94.932,0 169.299,-53.126 169.299,-120.964 0,-17.172 -4.791,-33.707 -14.203,-49.183 l -51.897,-84.756 c 0,0 41.763,8.395 73.139,-6.105 l -15.137,-19.504 c 0,0 63.683,5.894 122.406,-11.574 l -19.885,-21.115 c 0,0 89.334,-2.29 151.237,-81.703 h -6.19 c 0,0 46.13,-22.259 65.548,-71.442 h -6.02 c 0,0 29.552,-22.005 39.6,-67.2025 h -8.734 c 0,0 46.936,-33.113604 54.271,-86.451504 z m -81.236,92.939004 h 21.241 c -12.422,47.91 -58.129,68.983 -58.129,68.983 h 19.631 c -26.838,57.408 -79.964,64.828 -79.964,64.828 h 19.291 c -42.06,69.576 -154.756,70.721 -154.756,70.721 l 24.083,25.524 c -50.625,10.218 -126.307,3.943 -126.307,3.943 l 20.309,26.161 c -32.138,10.006 -77.971,-5.088 -77.971,-5.088 l 65.888,107.651 c 8.352,13.695 12.592,28.28 12.592,43.374 0,61.563 -69.449,109.813 -158.148,109.813 -88.699,0 -158.105999,-48.208 -158.105999,-109.813 0,-61.606 69.449999,-109.814 158.105999,-109.814 10.345,0 20.479,0.806 30.4,2.12 L 36.247681,27.473166 h 75.765999 l 53.338,87.130104 c 41.382,0 56.009,-12.0839 6.487,-87.130104 h 604.313 c -17.935,50.2852 -65.379,81.788104 -65.379,81.788104 z"
     fill="#041e42"
     id="path4" />
  <path
     d="m 368.61268,618.00727 c 0,7.419 6.021,13.44 13.441,13.44 7.42,0 13.44,-6.021 13.44,-13.44 0,-7.42 -6.02,-13.441 -13.44,-13.441 -7.42,0 -13.441,6.021 -13.441,13.441 z m 24.041,0 c 0,5.851 -4.749,10.557 -10.558,10.557 -5.808,0 -10.557,-4.749 -10.557,-10.557 0,-5.809 4.749,-10.558 10.557,-10.558 5.809,0 10.558,4.749 10.558,10.558 z"
     fill="#ffffff"
     id="path5" />
  <path
     d="m 376.54068,625.68027 h 2.884 v -6.275 h 2.077 l 2.926,6.275 h 3.18 l -3.053,-6.53 c 1.781,-0.636 3.01,-2.332 3.01,-4.282 0,-2.544 -2.035,-4.579 -4.537,-4.579 h -6.487 z m 2.884,-12.508 h 3.603 c 0.933,0 1.696,0.763 1.696,1.696 0,0.933 -0.763,1.696 -1.696,1.696 h -3.603 v -3.35 z"
     fill="#ffffff"
     id="path6" />
</svg>
