<?xml version="1.0" encoding="UTF-8" standalone="no"?>
<svg
   fill="none"
   viewBox="0 0 735.96485 699.8042"
   version="1.1"
   id="svg3"
   sodipodi:docname="TB.svg"
   width="735.96484"
   height="699.8042"
   inkscape:version="1.4 (86a8ad7, 2024-10-11)"
   xmlns:inkscape="http://www.inkscape.org/namespaces/inkscape"
   xmlns:sodipodi="http://sodipodi.sourceforge.net/DTD/sodipodi-0.dtd"
   xmlns="http://www.w3.org/2000/svg"
   xmlns:svg="http://www.w3.org/2000/svg">
  <defs
     id="defs3" />
  <sodipodi:namedview
     id="namedview3"
     pagecolor="#25b530"
     bordercolor="#000000"
     borderopacity="0.25"
     inkscape:showpageshadow="2"
     inkscape:pageopacity="0.0"
     inkscape:pagecheckerboard="0"
     inkscape:deskcolor="#d1d1d1"
     inkscape:zoom="0.91796875"
     inkscape:cx="371.47234"
     inkscape:cy="405.78723"
     inkscape:window-width="3440"
     inkscape:window-height="1377"
     inkscape:window-x="-8"
     inkscape:window-y="-8"
     inkscape:window-maximized="1"
     inkscape:current-layer="svg3" />
  <rect
     style="fill:#ffffff"
     id="rect1"
     width="550.12756"
     height="421.58295"
     x="81.702126"
     y="140.52766"
     ry="115.47234"
     rx="271.25107" />
  <path
     id="path4"
     style="fill:#ffffff"
     sodipodi:type="inkscape:offset"
     inkscape:radius="29.912848"
     inkscape:original="M 792.29492 0 L 535.90625 67.458984 C 532.52625 67.387984 529.13603 67.335938 525.70703 67.335938 C 315.59303 67.335938 137.01758 210.13206 137.01758 360.78906 C 137.01758 434.70706 176.83197 493.50938 238.54297 531.60938 L 143.79688 640 L 551.70508 338.01562 L 441.97656 359.4707 L 685.36719 159.47656 L 572.06055 174.66797 L 792.29492 0 z M 507.42578 89.533203 C 508.61378 89.533203 509.78756 89.555359 510.97656 89.568359 L 344.62109 275.67383 L 440.2793 260.54297 L 251.80859 442.81445 L 328.24609 429.00977 L 274.85547 490.08008 C 209.98247 459.35908 166.30664 406.38172 166.30664 338.51172 L 166.30859 338.51172 C 166.30859 203.41572 335.35778 89.533203 507.42578 89.533203 z "
     d="m 796.24414,-29.646484 a 29.915839,29.915839 0 0 0 -11.56055,0.71875 L 532.20898,37.501953 c -2.15193,-0.0321 -4.26119,-0.07813 -6.50195,-0.07813 -111.83338,0 -214.99735,37.693745 -291.37305,96.429692 -76.37569,58.73594 -127.22851,139.78836 -127.22851,226.93554 0,72.29173 34.48132,133.32451 87.20312,175.97461 l -73.0332,83.55078 a 29.915839,29.915839 0 0 0 40.32031,43.72657 L 569.50391,362.05664 A 29.915839,29.915839 0 0 0 550.93164,308.6582 L 704.35742,182.58789 a 29.915839,29.915839 0 0 0 -22.96484,-52.75977 l -5.60156,0.75196 L 810.88281,23.4375 A 29.915839,29.915839 0 0 0 796.24414,-29.646484 Z M 438.22656,126.06836 322.31836,255.73828 a 29.915839,29.915839 0 0 0 26.97656,49.48047 l 2.10547,-0.33203 -120.38672,116.42578 a 29.915839,29.915839 0 0 0 -0.8418,1.38281 c -21.85903,-23.2305 -33.95119,-51.41647 -33.95312,-84.17578 a 29.915839,29.915839 0 0 0 0.002,-0.008 c 0,-55.07109 35.13459,-109.28962 93.45899,-150.77344 41.28328,-29.36316 93.43504,-51.31483 148.54687,-61.66992 z"
     transform="translate(-107.10547,29.909608)" />
  <path
     id="path5"
     style="fill:#ffffff"
     sodipodi:type="inkscape:offset"
     inkscape:radius="20.086838"
     inkscape:original="M 702.98047 109.15625 L 673.57031 132.49414 C 726.02431 165.50114 756.89453 214.82483 756.89453 270.79883 C 756.89453 401.44883 595.44925 519.7832 415.78125 519.7832 C 397.33925 519.7832 379.25416 518.4358 361.78516 515.8418 L 301.15625 560.70898 C 339.43925 573.66098 382.16064 580.53516 426.80664 580.53516 C 640.09064 580.53516 822.98438 436.53945 822.98438 289.43945 C 822.98438 219.87145 779.73547 151.29525 702.98047 109.15625 z "
     d="m 701.28906,89.140625 a 20.088846,20.088846 0 0 0 -10.79492,4.28125 l -29.41016,23.337895 a 20.088846,20.088846 0 0 0 1.78907,32.73632 c 47.82615,30.0949 73.93554,72.71413 73.93554,121.30274 0,57.05117 -35.80074,114.03949 -94.94726,157.26953 -59.14653,43.23004 -140.656,71.62891 -226.08008,71.62891 -17.46362,0 -34.56864,-1.27802 -51.04492,-3.72461 a 20.088846,20.088846 0 0 0 -14.90039,3.72265 l -60.62891,44.86719 a 20.088846,20.088846 0 0 0 5.51172,35.17383 c 40.53648,13.7144 85.38003,20.88476 132.08789,20.88476 111.16245,0 214.12079,-37.29674 290.13672,-94.41211 76.01593,-57.11536 126.12695,-134.89468 126.12695,-216.76953 0,-77.89303 -48.40036,-152.8592 -130.42383,-197.890622 a 20.088846,20.088846 0 0 0 -11.35742,-2.408203 z"
     transform="translate(-107.10547,29.909608)" />
  <path
     fill="#00205b"
     d="m 715.87853,319.34961 c 0,-69.568 -43.248,-138.144 -120.003,-180.283 l -29.411,23.337 c 52.454,33.007 83.324,82.331 83.324,138.305 0,130.65 -161.445,248.985 -341.113,248.985 -18.442,0 -36.527,-1.348 -53.996,-3.942 l -60.629,44.867 c 38.283,12.952 81.005,19.827 125.651,19.827 213.284,0 396.177,-143.996 396.177,-291.096 z"
     id="path2" />
  <path
     fill="#00205b"
     d="m 444.59953,367.92561 -109.728,21.454 243.39,-199.994 -113.307,15.191 220.235,-174.667002 -256.388,67.459 c -3.38,-0.071 -6.77,-0.123 -10.199,-0.123 -210.114,0 -388.689998,142.797002 -388.689998,293.454002 0,73.918 39.814,132.72 101.524998,170.82 l -94.745998,108.39 z m -385.396998,0.495 c 0,-135.096 169.049998,-248.978 341.117998,-248.978 1.188,0 2.361,0.022 3.55,0.035 l -166.355,186.105 95.658,-15.13 -188.47,182.272 76.438,-13.806 -53.392,61.072 c -64.873,-30.721 -108.547998,-83.7 -108.547998,-151.57"
     id="path3" />
</svg>
