<?xml version="1.0" encoding="UTF-8" standalone="no"?>
<svg
   fill="none"
   viewBox="0 0 593.91327 660.57141"
   version="1.1"
   id="svg3"
   sodipodi:docname="TOR.svg"
   width="593.91327"
   height="660.57141"
   inkscape:version="1.4 (86a8ad7, 2024-10-11)"
   xmlns:inkscape="http://www.inkscape.org/namespaces/inkscape"
   xmlns:sodipodi="http://sodipodi.sourceforge.net/DTD/sodipodi-0.dtd"
   xmlns="http://www.w3.org/2000/svg"
   xmlns:svg="http://www.w3.org/2000/svg">
  <defs
     id="defs3" />
  <sodipodi:namedview
     id="namedview3"
     pagecolor="#ffffff"
     bordercolor="#000000"
     borderopacity="0.25"
     inkscape:showpageshadow="2"
     inkscape:pageopacity="0.0"
     inkscape:pagecheckerboard="0"
     inkscape:deskcolor="#d1d1d1"
     inkscape:zoom="0.91796875"
     inkscape:cx="233.1234"
     inkscape:cy="460.25532"
     inkscape:window-width="3440"
     inkscape:window-height="1377"
     inkscape:window-x="-8"
     inkscape:window-y="-8"
     inkscape:window-maximized="1"
     inkscape:current-layer="svg3" />
  <path
     id="path5"
     style="fill:#ffffff"
     sodipodi:type="inkscape:offset"
     inkscape:radius="13.779456"
     inkscape:original="M 309.40625 26.183594 A 1 1 0 0 0 308.55469 26.658203 C 298.13769 43.691203 288.47417 60.83875 282.45117 78.46875 A 0.97 0.97 0 0 1 281.87109 79.066406 A 0.966 0.966 0 0 1 281.04102 78.986328 C 274.64102 75.166328 267.93442 71.655875 262.23242 69.671875 A 0.92 0.92 0 0 0 261.03906 70.330078 C 257.28706 85.910078 255.35108 105.25295 256.58008 122.75195 A 0.95 0.95 0 0 1 256.13086 123.63477 A 0.952 0.952 0 0 1 255.14062 123.63086 C 246.97262 118.69786 237.9952 114.17856 230.1582 111.22656 A 0.965 0.965 0 0 0 228.875 111.96289 C 225.327 131.30589 223.82236 152.17997 227.06836 170.79297 A 0.918 0.918 0 0 1 226.33008 171.86719 A 0.918 0.918 0 0 1 225.85352 171.83008 C 214.75152 167.98008 201.34228 165.47937 190.23828 164.98438 A 0.932 0.932 0 0 0 189.28125 165.74805 A 0.937 0.937 0 0 0 189.30469 166.1875 C 195.74369 187.7295 205.90055 211.68677 219.18555 231.38477 A 0.942 0.942 0 0 1 218.45508 232.86133 C 212.86908 233.17733 206.97469 233.74019 202.55469 234.74219 A 0.96 0.96 0 0 0 201.92188 236.11719 C 212.44188 256.63119 223.23172 278.97292 230.38672 302.41992 C 230.61372 303.16292 229.762 303.78775 229.125 303.34375 C 201.203 283.82175 174.40845 255.18211 153.68945 229.41211 A 0.96 0.96 0 0 0 152.37891 229.23438 C 147.16891 232.98337 143.2195 237.45794 140.1875 242.46094 A 0.97 0.97 0 0 1 138.62891 242.61328 C 126.86491 229.40928 113.35719 217.38522 98.242188 206.44922 A 1.01 1.01 0 0 0 96.78125 206.75781 C 91.65725 215.79981 89.1635 226.23828 87.0625 235.48828 A 0.936 0.936 0 0 1 86.150391 236.2207 A 0.957 0.957 0 0 1 85.742188 236.12695 C 71.458187 229.30295 54.287109 222.24952 39.287109 218.35352 C 38.580109 218.17052 37.927406 218.80353 38.066406 219.51953 C 41.286406 236.17353 45.602391 251.54388 52.275391 264.92188 A 0.955 0.955 0 0 1 52.269531 265.80469 A 0.955 0.955 0 0 1 51.544922 266.30859 C 43.404922 267.46559 35.360031 269.67891 26.832031 272.87891 A 1.016 1.016 0 0 0 26.181641 273.91992 C 26.194641 274.06592 26.237547 274.20794 26.310547 274.33594 C 36.338547 291.58194 47.910563 305.80811 61.226562 316.91211 A 0.958 0.958 0 0 1 61.097656 318.48047 A 79.503 79.503 0 0 0 46.375 329.81055 A 1.008 1.008 0 0 0 46.376953 331.23828 A 355.515 355.515 0 0 0 101.63477 375.67773 A 0.992 0.992 0 0 1 102.08789 376.47852 A 0.992 0.992 0 0 1 101.69531 377.31055 C 94.329309 383.00955 87.841391 388.92413 82.275391 395.57812 A 1 1 0 0 0 82.382812 396.9668 C 96.865813 409.7838 113.44727 420.16934 132.69727 428.02734 A 0.984 0.984 0 0 1 133.30664 428.82031 A 0.987 0.987 0 0 1 132.91211 429.74023 C 126.06511 434.88723 120.49991 440.58019 115.37891 446.74219 A 0.983 0.983 0 0 0 115.17969 447.13477 A 0.99 0.99 0 0 0 115.34766 447.97852 A 0.993 0.993 0 0 0 115.68359 448.26562 C 129.44059 455.33562 146.13608 459.90506 163.45508 463.03906 C 164.24208 463.18206 164.30602 464.26786 163.54102 464.50586 C 141.42502 471.34986 121.11011 480.19444 101.66211 491.02344 A 0.997 0.997 0 0 0 101.55469 492.69531 C 115.80969 503.28331 130.34572 512.51242 147.26172 519.10742 A 0.975 0.975 0 0 1 147.88281 519.86914 A 0.984 0.984 0 0 1 147.5293 520.78906 C 124.4113 539.63206 105.5071 561.32197 88.996094 584.91797 C 88.502094 585.62397 89.093219 586.59142 89.949219 586.48242 C 113.50922 583.48542 135.43417 579.803 154.32617 574.625 A 0.944 0.944 0 0 1 155.42578 575.9668 C 151.37878 584.0428 147.72844 592.6402 144.39844 601.6582 C 144.14144 602.3542 144.71808 603.08586 145.45508 603.00586 C 166.69908 600.70386 186.00711 598.00672 201.41211 594.51172 C 202.27411 594.31572 202.91859 595.26295 202.43359 596.00195 C 195.91659 605.92895 191.29984 616.67261 187.58984 628.47461 C 187.36384 629.19261 187.99833 629.90077 188.73633 629.75977 C 225.97833 622.64677 259.87055 611.9915 289.93555 597.5625 C 290.74755 597.1725 291.67533 597.73186 291.73633 598.63086 C 293.54733 625.33486 303.67034 643.90517 317.52734 658.82617 C 318.04134 659.37917 318.91084 659.40553 319.46484 658.89453 L 338.91992 640.93555 C 339.50992 640.39055 339.56511 639.48095 339.03711 638.87695 C 335.18911 634.47695 317.48028 614.38252 320.61328 599.10352 C 320.98628 597.28352 323.00622 596.31017 324.69922 597.07617 C 347.13122 607.22417 393.62391 622.72253 430.12891 629.76953 C 430.84891 629.90953 431.45438 629.21467 431.23438 628.51367 C 427.52238 616.69667 422.90291 605.93895 416.37891 596.00195 C 415.89391 595.26195 416.53644 594.31667 417.39844 594.51367 C 432.80344 598.00767 452.11147 600.70386 473.35547 603.00586 A 1.012 1.012 0 0 0 474.41211 601.65625 C 471.08211 592.63925 467.43467 584.0428 463.38867 575.9668 A 0.944 0.944 0 0 1 464.48438 574.625 C 483.37637 579.803 505.30033 583.48642 528.86133 586.48242 C 529.71633 586.59142 530.30945 585.62497 529.81445 584.91797 C 513.30445 561.32397 494.39925 539.63111 471.28125 520.78711 A 0.99 0.99 0 0 1 470.92969 519.86914 A 0.978 0.978 0 0 1 471.55078 519.10742 C 488.46678 512.51242 503.00181 503.28331 517.25781 492.69531 A 0.994 0.994 0 0 0 517.65625 491.82812 A 0.993 0.993 0 0 0 517.14844 491.02344 C 497.70144 480.19444 477.38748 471.34986 455.27148 464.50586 C 454.50648 464.26886 454.56942 463.18206 455.35742 463.03906 C 472.67542 459.90506 489.37191 455.33463 503.12891 448.26562 A 0.996 0.996 0 0 0 503.43359 446.74219 C 498.31259 440.57919 492.74644 434.88723 485.89844 429.74023 A 0.987 0.987 0 0 1 485.50586 428.82031 A 0.99 0.99 0 0 1 486.11523 428.02734 C 505.36523 420.16934 521.94669 409.7848 536.42969 396.9668 C 536.83269 396.6118 536.88016 395.99013 536.53516 395.57812 C 530.97016 388.92413 524.48223 383.00855 517.11523 377.31055 A 1.002 1.002 0 0 1 517.17773 375.67773 A 355.476 355.476 0 0 0 572.43555 331.23828 C 572.83155 330.84828 572.83555 330.19755 572.43555 329.81055 A 79.463 79.463 0 0 0 557.71484 318.48047 A 0.958 0.958 0 0 1 557.58398 316.91211 C 570.90198 305.80811 582.473 291.58194 592.5 274.33594 A 1.023 1.023 0 0 0 592.34375 273.11914 A 1.016 1.016 0 0 0 591.98047 272.87891 C 583.45147 269.67891 575.40858 267.46659 567.26758 266.30859 A 0.956 0.956 0 0 1 566.43359 265.36328 A 0.967 0.967 0 0 1 566.53711 264.92188 C 573.20911 251.54388 577.52514 236.17353 580.74414 219.51953 C 580.88214 218.80253 580.22944 218.16952 579.52344 218.35352 C 564.52344 222.24952 547.35431 229.30295 533.07031 236.12695 A 0.931 0.931 0 0 1 531.92773 235.86523 A 0.936 0.936 0 0 1 531.74805 235.48633 C 529.64805 226.23633 527.15425 215.79981 522.03125 206.75781 A 1.016 1.016 0 0 0 521.36719 206.2793 A 1.015 1.015 0 0 0 520.56836 206.44922 C 505.45436 217.38522 491.94855 229.40928 480.18555 242.61328 A 0.967 0.967 0 0 1 478.9375 242.78711 A 0.979 0.979 0 0 1 478.62305 242.46094 C 475.59105 237.45694 471.64164 232.98338 466.43164 229.23438 A 0.966 0.966 0 0 0 465.12109 229.4082 C 445.71509 253.4082 421.29339 280.67014 389.77539 303.24414 C 389.12139 303.71214 388.22498 303.07469 388.45898 302.30469 C 395.61398 278.90069 406.38767 256.59719 416.88867 236.11719 A 0.956 0.956 0 0 0 416.25781 234.74023 C 411.83781 233.73923 405.94342 233.17733 400.35742 232.86133 A 0.947 0.947 0 0 1 399.46484 231.85352 A 0.94 0.94 0 0 1 399.62695 231.38477 C 412.91195 211.68677 423.06881 187.7295 429.50781 166.1875 A 0.937 0.937 0 0 0 429.00586 165.07031 A 0.932 0.932 0 0 0 428.57227 164.98438 C 417.46827 165.48038 404.05903 167.97908 392.95703 171.83008 A 0.918 0.918 0 0 1 391.74414 170.79297 C 394.98914 152.17997 393.4855 131.30589 389.9375 111.96289 A 0.959 0.959 0 0 0 389.4668 111.29297 A 0.961 0.961 0 0 0 388.65234 111.22656 C 380.81634 114.17856 371.83988 118.69881 363.67188 123.63281 A 0.952 0.952 0 0 1 362.68164 123.63477 A 0.942 0.942 0 0 1 362.23242 122.75195 C 363.46142 105.25195 361.52248 85.911078 357.77148 70.330078 A 0.92 0.92 0 0 0 356.57812 69.671875 C 350.87513 71.654875 344.17048 75.167328 337.77148 78.986328 A 0.96 0.96 0 0 1 336.36133 78.46875 C 330.33833 60.83875 320.67381 43.691203 310.25781 26.658203 A 0.996 0.996 0 0 0 309.40625 26.183594 z "
     d="m 309.39062,12.408203 c -5.00784,0.0059 -9.92931,2.748532 -12.56054,7.009766 a 13.780834,13.780834 0 0 0 -0.0312,0.05078 c -8.00605,13.090811 -15.77873,26.541142 -21.95313,40.669922 -2.68034,-1.259202 -5.36407,-2.533402 -8.08593,-3.480469 a 13.780834,13.780834 0 0 0 -0.0625,-0.02148 c -7.72856,-2.647559 -17.17099,2.557396 -19.0625,10.503906 -2.55444,10.617427 -4.17794,22.531087 -4.81446,34.628905 -2.61412,-1.1755 -5.25568,-2.477352 -7.80469,-3.437499 a 13.780834,13.780834 0 0 0 -0.0996,-0.03711 c -8.05139,-2.961928 -18.08252,2.788978 -19.60157,11.230468 -2.60466,14.21396 -4.11502,29.32361 -3.625,44.30078 -7.07031,-1.40098 -14.16834,-2.31011 -20.83789,-2.60742 a 13.780834,13.780834 0 0 0 -0.0195,-0.002 c -7.0139,-0.3028 -13.82537,5.12846 -15.09961,12.03125 -0.42107,2.28119 -0.29494,4.66211 0.36914,6.88476 5.03627,16.84908 12.16325,34.97935 21.37891,51.92578 -7.46839,3.12206 -11.57769,13.07094 -7.80078,20.38282 2.58026,5.03192 5.15911,10.14883 7.68164,15.33203 -11.91104,-12.0448 -23.14494,-24.82224 -32.92383,-36.98438 l -0.01,-0.0117 c -4.67578,-5.81371 -14.0606,-7.08292 -20.11132,-2.71679 -2.00898,1.44656 -3.84648,3.01773 -5.59766,4.64648 -9.89157,-9.83096 -20.70956,-18.96474 -32.39844,-27.42187 a 13.780834,13.780834 0 0 0 -0.0293,-0.0215 c -6.657706,-4.79035 -17.240869,-2.55406 -21.392583,4.51953 a 13.780834,13.780834 0 0 0 -0.105468,0.18164 C 81.50467,205.7675 79.242656,211.65988 77.503906,217.3125 66.227858,212.48287 54.21457,207.99285 42.751953,205.01562 a 13.780834,13.780834 0 0 0 -0.01172,-0.002 c -10.159914,-2.62979 -20.164333,7.00064 -18.201172,17.12891 2.55e-4,0.001 -2.55e-4,0.003 0,0.004 2.283989,11.81075 5.211982,23.20342 9.15625,34.04297 -3.892778,1.11186 -7.781065,2.31664 -11.705078,3.78907 a 13.780834,13.780834 0 0 0 -0.06055,0.0234 c -5.977146,2.2755 -10.043778,8.78261 -9.470703,15.15235 0.181825,2.02386 0.790018,4.09168 1.882813,6.00781 a 13.780834,13.780834 0 0 0 0.05664,0.0996 c 7.73598,13.30422 16.493751,25.07312 26.312499,35.25195 -1.317852,1.14817 -2.707836,2.21307 -3.958984,3.4336 a 13.780834,13.780834 0 0 0 -0.119141,0.11718 c -5.486681,5.48472 -5.472369,15.47563 0.0293,20.94532 a 13.780834,13.780834 0 0 0 0.05078,0.0508 c 13.545173,13.32499 28.144178,25.56924 43.576171,36.65429 -2.980446,2.88209 -5.901955,5.81754 -8.582031,9.02149 a 13.780834,13.780834 0 0 0 -0.03125,0.0371 c -4.849754,5.83809 -4.102749,15.49755 1.585938,20.52148 6.96e-4,6.2e-4 0.0013,0.001 0.002,0.002 10.96486,9.70168 23.170618,18.0566 36.556638,25.13282 -1.68664,1.82891 -3.47706,3.62717 -5.02734,5.49218 -1.40697,1.68827 -2.42293,3.69588 -2.96289,5.82618 -1.07884,4.25284 -0.14039,8.96939 2.48828,12.48242 1.31497,1.75813 3.02419,3.22095 4.96875,4.24023 a 13.780834,13.780834 0 0 0 0.0977,0.0508 c 3.83778,1.97232 7.81759,3.73745 11.89453,5.3418 -8.97755,4.03535 -17.76573,8.35775 -26.320316,13.12109 a 13.780834,13.780834 0 0 0 -0.01172,0.006 c -8.581564,4.78914 -9.489912,18.93133 -1.591797,24.7793 9.593411,7.12477 19.653631,13.74474 30.521481,19.55078 -17.60705,16.4828 -32.767811,34.54422 -46.169919,53.69727 a 13.780834,13.780834 0 0 0 -0.002,0 c -6.844299,9.78153 2.204987,24.63471 13.984375,23.13476 14.313057,-1.82075 28.019537,-3.95285 41.064457,-6.49414 -0.41519,1.08734 -0.87613,2.12943 -1.28125,3.22657 -3.66401,9.92276 5.00424,20.95621 15.46875,19.82031 11.12033,-1.20502 21.72175,-2.52347 31.6582,-4.01953 -1.50179,3.82972 -2.9107,7.70019 -4.1543,11.65625 -3.21909,10.23724 6.35698,20.96304 16.87696,18.95312 32.13089,-6.13681 61.85292,-15.04623 89.16796,-26.60547 4.61515,21.33746 14.61945,38.24768 26.93946,51.51367 a 13.780834,13.780834 0 0 0 0.004,0.004 c 5.64105,6.06907 15.36372,6.35931 21.37305,0.81641 a 13.780834,13.780834 0 0 0 0.004,-0.004 l 19.45507,-17.95898 a 13.780834,13.780834 0 0 0 0.004,-0.004 c 5.88883,-5.43968 6.49537,-15.12478 1.14258,-21.24805 a 13.780834,13.780834 0 0 0 -0.002,-0.002 c -1.68347,-1.92496 -5.3161,-6.34031 -8.66797,-11.36523 24.99328,9.28899 58.18794,19.33708 86.75586,24.85351 6.6e-4,1.3e-4 0.001,-1.3e-4 0.002,0 10.52549,2.04503 20.04249,-8.8341 16.88086,-18.9082 a 13.780834,13.780834 0 0 0 0,-0.002 c -1.24706,-3.96997 -2.6611,-7.8562 -4.16797,-11.69922 9.93639,1.49562 20.53802,2.81455 31.6582,4.01953 a 13.780834,13.780834 0 0 0 0.0606,0.006 c 9.90677,1.02896 18.8194,-10.35416 15.44336,-19.72461 a 13.780834,13.780834 0 0 0 -0.0371,-0.10352 c -0.40488,-1.09634 -0.86638,-2.13799 -1.28125,-3.22461 13.04517,2.54155 26.75183,4.67391 41.06641,6.49414 l -0.004,-0.002 c 11.78276,1.50213 20.82634,-13.35633 13.98438,-23.13281 l -0.002,-0.002 c -13.40029,-19.14972 -28.55834,-37.21245 -46.16406,-53.69531 10.87319,-5.8092 20.9388,-12.43379 30.53711,-19.5625 a 13.780834,13.780834 0 0 0 0.006,-0.006 c 3.9442,-2.93287 6.24427,-7.93607 5.91797,-12.83984 -0.32676,-4.89386 -3.25961,-9.53886 -7.54492,-11.92578 a 13.780834,13.780834 0 0 0 -0.002,-0.002 c -8.5552,-4.76393 -17.34387,-9.08532 -26.32226,-13.12109 4.0783,-1.60465 8.05758,-3.36918 11.89648,-5.3418 a 13.780834,13.780834 0 0 0 0.0527,-0.0254 c 7.81478,-4.05722 10.17119,-15.82805 4.52929,-22.58593 -1.54717,-1.86118 -3.3327,-3.65568 -5.01562,-5.48047 13.3811,-7.07344 25.58292,-15.42474 36.54492,-25.12305 l 0.004,-0.004 c 5.9838,-5.27512 6.68202,-14.45174 1.55859,-20.57031 -2.67816,-3.20174 -5.59744,-6.13695 -8.57617,-9.01758 15.43213,-11.08501 30.03108,-23.32909 43.57617,-36.65429 a 13.780834,13.780834 0 0 0 0.004,-0.004 c 5.81838,-5.73022 5.89301,-15.34715 -0.0742,-21.13477 -1.24195,-1.21081 -2.62204,-2.26672 -3.92969,-3.40625 9.82033,-10.17965 18.57678,-21.9488 26.3125,-35.2539 a 13.780834,13.780834 0 0 0 0.0781,-0.13477 c 3.12651,-5.52062 2.15913,-13.05302 -2.25976,-17.60547 l -0.002,-0.002 c -1.48366,-1.52789 -3.30018,-2.72942 -5.28711,-3.49609 a 13.780834,13.780834 0 0 0 -0.1211,-0.0449 c -3.92428,-1.47236 -7.81077,-2.67741 -11.70312,-3.78907 3.94512,-10.84303 6.87251,-22.23941 9.15625,-34.05468 a 13.780834,13.780834 0 0 0 0.002,-0.0117 c 1.94653,-10.11351 -8.05154,-19.75537 -18.22656,-17.10352 -11.45985,2.97727 -23.46809,7.46475 -34.74024,12.29297 -1.73852,-5.6522 -4.00175,-11.54562 -7.28906,-17.34766 a 13.780834,13.780834 0 0 0 -0.11133,-0.19531 c -2.07364,-3.52451 -5.67228,-6.11504 -9.67187,-6.9668 a 13.780834,13.780834 0 0 0 -0.0723,-0.0156 c -3.99866,-0.82915 -8.32757,0.0917 -11.64258,2.47656 a 13.780834,13.780834 0 0 0 -0.0312,0.0215 c -11.68906,8.45782 -22.50547,17.59411 -32.39648,27.42578 -1.75642,-1.63376 -3.59776,-3.21179 -5.61328,-4.66211 a 13.780834,13.780834 0 0 0 -0.0234,-0.0156 c -6.02187,-4.31502 -15.31506,-3.08129 -20.00391,2.6543 a 13.780834,13.780834 0 0 0 -0.0469,0.0566 c -9.74354,12.05013 -20.69557,24.79418 -33.06055,37.24805 2.56271,-5.27125 5.182,-10.47289 7.80469,-15.58789 l -0.0703,0.13281 c 3.85217,-7.31493 -0.25272,-17.34114 -7.74805,-20.48047 9.21525,-16.94599 16.3428,-35.07526 21.37891,-51.92383 a 13.780834,13.780834 0 0 0 0,-0.006 c 1.99834,-6.69633 -1.54915,-14.59213 -7.88282,-17.54492 a 13.780834,13.780834 0 0 0 -0.0137,-0.008 c -2.12937,-0.98966 -4.49983,-1.45821 -6.8457,-1.35547 a 13.780834,13.780834 0 0 0 -0.0117,0 c -6.66756,0.29783 -13.76418,1.20694 -20.83398,2.60742 0.48935,-14.95866 -1.01797,-30.04882 -3.61719,-44.24804 -0.74681,-4.25002 -3.46133,-8.11078 -7.20899,-10.250005 -3.74035,-2.134985 -8.43649,-2.516098 -12.4707,-1.007813 a 13.780834,13.780834 0 0 0 -0.0312,0.01172 c -2.54875,0.960173 -5.19093,2.259959 -7.80469,3.435549 -0.63751,-12.098886 -2.26262,-24.011849 -4.8164,-34.628908 -1.89288,-7.94512 -11.33279,-13.149238 -19.06055,-10.501953 a 13.780834,13.780834 0 0 0 -0.0605,0.01953 c -2.72364,0.947046 -5.40597,2.223199 -8.08593,3.482422 -6.17467,-14.12886 -13.94815,-27.579603 -21.95313,-40.669922 a 13.780834,13.780834 0 0 0 -0.0156,-0.02344 c -2.63253,-4.284797 -7.57884,-7.042438 -12.60743,-7.037109 z m 24.25391,53.115234 c -1.00391,0.579069 -4.02981,2.290249 -3.03711,1.691407 2.44923,-1.490464 2.61185,-1.681758 3.03711,-1.691407 z m -47.22851,0.695313 c 0.19976,0.05416 0.43553,0.122594 0.54687,0.142578 0.22422,0.183041 0.335,0.30797 1.19141,0.824219 a 13.780834,13.780834 0 0 0 -0.0508,-0.03125 c -0.55003,-0.328294 -1.13312,-0.610637 -1.6875,-0.935547 z m 61.72656,4.583984 c 0.86999,1.266213 1.33866,3.967409 1.25781,3.210938 -1.13045,-3.00213 0.0982,0.338362 -1.25781,-3.210938 z m -77.98828,1.316407 c -0.58935,1.543916 -0.22102,0.454585 -0.75391,1.927734 0.31853,-0.939946 0.32082,-1.101042 0.375,-1.386719 0.0842,-0.102112 0.23161,-0.322975 0.37891,-0.541015 z m 88.43164,38.593749 c -0.69102,0.40646 -2.78737,1.58314 -2.10352,1.16406 0.98868,-0.6047 1.26577,-0.84053 1.45899,-1.02539 0.0986,-0.006 0.44872,-0.1 0.64453,-0.13867 z m -98.35157,0.004 c 0.20417,0.0412 0.56086,0.13817 0.66211,0.14453 0.19304,0.1853 0.47002,0.42292 1.45704,1.0293 a 13.780834,13.780834 0 0 0 -0.0899,-0.0547 c -0.65809,-0.39745 -1.36381,-0.72762 -2.0293,-1.11914 z m -17.46484,10.65429 c -0.0436,-0.41137 0.30305,7.57081 0.0723,2.45118 -0.0902,-1.15869 -0.17473,-1.51796 -0.25196,-1.77344 0.0419,-0.0961 0.12071,-0.46665 0.17969,-0.67774 z m 133.27149,0.0254 c 0.0616,0.22418 0.14411,0.61211 0.1875,0.71094 -0.0792,0.25496 -0.16692,0.6209 -0.26368,1.78516 a 13.780834,13.780834 0 0 0 0.0137,-0.17578 c 0.0538,-0.76594 0.0194,-1.55109 0.0625,-2.32032 z m 15.50585,36.32422 c 0.0535,-0.004 0.25352,0.0525 0.3086,0.0527 -1.13121,0.35757 -2.30598,0.6547 -3.41406,1.03906 a 13.780834,13.780834 0 0 0 -0.16016,0.0547 c 2.10519,-0.75925 2.67374,-1.0974 3.26562,-1.14649 z m -167.67382,0.58789 c -0.0286,0.005 -0.0508,0.008 -0.0332,0.004 0.0308,-0.006 0.002,0.002 0.0332,-0.004 z m 5.24804,0.12305 c 0.34391,0.0697 0.3502,0.0549 0.55664,0.0898 0.2944,0.11828 0.1712,0.10433 0.78516,0.32227 a 13.780834,13.780834 0 0 0 -0.0937,-0.0332 c -0.40496,-0.14044 -0.8398,-0.24202 -1.24805,-0.37891 z m 176.60938,11.05664 c 0.14734,0.67559 0.0194,1.52077 -0.41211,3.67188 0.21099,-1.21024 0.23635,-2.45423 0.41211,-3.67188 z m -192.60938,0.33789 c 0.1007,1.22509 0.68767,5.38888 0.40821,3.5332 -0.65679,-3.46571 -0.69013,-2.95557 -0.40821,-3.5332 z m 190.62305,49.19141 c 0.007,0.002 0.52846,0.29658 0.56445,0.33789 -1.05572,-0.0734 -2.13468,-0.19317 -3.17382,-0.25195 2.46673,0.13384 2.58298,-0.0928 2.60937,-0.0859 z m -186.14453,0.0918 c -1.11266,0.0632 -2.26541,0.19108 -3.39649,0.27149 0.5704,-0.20968 1.38947,-0.18923 3.39649,-0.27149 z m 311.30664,3.38868 c -0.12293,0.0361 0.0284,0.10714 0.56445,0.12304 -0.76248,0.35842 -1.59129,0.71466 -2.33984,1.07227 a 13.780834,13.780834 0 0 0 -0.125,0.0605 c 2.3657,-1.15963 2.10181,-1.31499 1.90039,-1.25586 z m -438.140625,0.77539 c 0.172349,0.0578 0.171932,0.0507 0.300781,0.0918 0.268701,0.1377 0.124239,0.093 0.615235,0.32813 -0.293074,-0.14001 -0.620757,-0.27975 -0.916016,-0.41992 z m -16.476563,6.57226 c -0.450689,1.79492 -0.41506,1.57746 -0.675781,2.64649 0.518818,-0.88556 1.461037,-2.91026 0.675781,-2.64649 z m 72.246098,1.07813 c 0.40332,0.1786 0.60372,0.52888 2.36914,2.50781 -0.76276,-0.85598 -1.59311,-1.66172 -2.36914,-2.50781 z m 325.43945,0.32422 c -1.31993,1.39657 -1.61369,1.69361 -2.12305,2.25 1.45396,-1.53142 1.58764,-2.29257 2.12305,-2.25 z m 72.94531,0.15039 c 0.0914,0.25966 0.0952,0.23317 0.16016,0.40625 0.0578,0.30349 0.002,0.15935 0.125,0.71679 a 13.780834,13.780834 0 0 0 -0.0195,-0.0859 c -0.0711,-0.31332 -0.19327,-0.7185 -0.26563,-1.03711 z m -414.55469,1.00781 c 0.76311,-1.37518 -7.71293,11.90768 -2.03906,3.04297 1.44642,-2.44656 1.57648,-2.76362 2.03906,-3.04297 z m 359.33008,1.85742 c 0.30778,0.40311 0.25761,0.30197 0.43555,0.52149 0.14949,0.27231 0.055,0.15941 0.35547,0.66796 a 13.780834,13.780834 0 0 0 -0.0781,-0.13281 c -0.21774,-0.35936 -0.48643,-0.70014 -0.71289,-1.05664 z m -283.82226,1.71289 c 0.65427,1.01071 1.20788,2.10251 1.8789,3.09766 -1.24711,-1.78395 -1.71705,-2.45127 -1.8789,-3.09766 z m 205.91797,1.89258 c -0.19687,0.39709 -0.16886,0.38436 -0.26954,0.60742 -0.19007,0.25394 -0.14826,0.1419 -0.52148,0.6875 a 13.780834,13.780834 0 0 0 0.0508,-0.0742 c 0.26445,-0.3921 0.47839,-0.82612 0.74024,-1.2207 z M 49.794922,252.64062 c -2.087974,0.36493 -0.490911,0.12307 -2.376953,0.47657 0.363321,-0.15531 0.680822,-0.29436 0.820312,-0.37696 0.28136,0.011 0.50992,0.0343 1.556641,-0.0996 z m 519.230468,0.002 c 3.77408,0.48562 2.77251,0.15891 3.32813,0.67187 -1.05254,-0.18106 -2.08618,-0.49789 -3.14454,-0.64843 a 13.780834,13.780834 0 0 0 -0.18359,-0.0234 z m -528.93164,6.71289 c -0.0098,0.0176 -0.02409,0.041 -0.02148,0.0351 0.01276,-0.024 0.0085,-0.0106 0.02148,-0.0351 z m 540.11914,5.92187 c 1.5e-4,0.0244 0.002,0.007 0.002,0.0312 3e-5,0.0147 -0.002,-0.001 -0.002,0.0137 a 13.780834,13.780834 0 0 0 0,-0.0449 z m -541.124999,3.85352 c 0.394641,0.91746 1.151344,2.54497 0.925781,2.07812 -0.481846,-0.93959 -0.630697,-1.11614 -0.798828,-1.34179 -0.009,-0.13409 -0.07377,-0.45154 -0.126953,-0.73633 z m 540.312499,0.73242 c -0.1498,0.41698 -0.10587,0.35444 -0.18555,0.59766 -0.14903,0.27334 -0.10561,0.13364 -0.37304,0.66406 a 13.780834,13.780834 0 0 0 0.0254,-0.0527 c 0.19615,-0.39332 0.34104,-0.81359 0.5332,-1.20899 z m -14.79492,36.68359 c 2.46927,1.42592 2.82116,1.60055 3.15234,2.13086 -1.00493,-0.65482 -1.94314,-1.40796 -2.97265,-2.02343 a 13.780834,13.780834 0 0 0 -0.17969,-0.10743 z m -510.416017,0.01 a 13.780834,13.780834 0 0 0 -0.162109,0.0957 c -1.031293,0.61652 -1.971881,1.37136 -2.978516,2.02735 0.327877,-0.52334 0.682054,-0.69877 3.140625,-2.12305 z m 514.869137,18.49609 c -0.22542,0.49551 -0.63542,0.79024 -2.65039,2.44336 0.91681,-0.76439 1.75037,-1.65389 2.65039,-2.44336 z m -519.302731,0.002 c 0.898694,0.78834 1.731079,1.67611 2.646485,2.43945 a 13.780834,13.780834 0 0 0 0.0625,0.0527 c -2.124204,-1.7499 -2.478605,-1.98254 -2.708985,-2.49218 z m 43.625,41.26758 c -1.53021,1.24256 -0.277829,0.26104 -1.716797,1.4414 0.157009,-0.21562 0.349518,-0.46732 0.41211,-0.57812 0.24837,-0.12922 0.462334,-0.2259 1.304687,-0.86328 z m 432.164061,0.0879 c 2.0974,1.60735 2.48518,1.83945 2.71289,2.29296 -0.92645,-0.74529 -1.76749,-1.56175 -2.71289,-2.29296 z M 88.316406,376.92969 c 0.0013,0.0391 0,0.0807 -0.002,0.0625 -0.0012,-0.0407 0.0033,-0.0203 0.002,-0.0625 z m 439.232424,8.33203 c -2.60137,2.00045 0.6624,-0.4354 -2.84961,1.96094 2.66455,-1.8037 -0.30444,0.17929 2.84961,-1.96094 z m -435.091799,0.82226 c 0.955361,0.6541 1.572043,1.08339 1.699219,1.16797 -0.887482,-0.57341 -1.108029,-0.65326 -1.365234,-0.76367 -0.05204,-0.0781 -0.228239,-0.2746 -0.333985,-0.4043 z m 32.294919,32.55274 c -1.81389,1.47803 -0.23358,0.24072 -1.99414,1.70703 0.21715,-0.30163 0.47098,-0.64049 0.53711,-0.77148 0.24459,-0.11199 0.54297,-0.26366 1.45703,-0.93555 z m 369.33203,0.0195 c 0.90981,0.67191 1.20617,0.82024 1.45118,0.93359 0.0643,0.12841 0.31597,0.46667 0.52539,0.75977 -0.66573,-0.52655 -1.19467,-1.10779 -1.88282,-1.625 a 13.780834,13.780834 0 0 0 -0.0937,-0.0684 z M 119.62891,430.5 c 0.003,0.0202 0.004,0.0397 0.002,0.0293 -0.002,-0.0188 3.9e-4,-0.0102 -0.002,-0.0293 z m 379.54687,0.0488 c -0.001,0.009 0.001,0.005 0,0.0137 -0.001,0.0104 -0.003,0.005 -0.004,0.0156 a 13.780834,13.780834 0 0 0 0.004,-0.0293 z m -5.75391,9.27734 c -0.15035,0.13366 -0.4201,0.34596 -0.48632,0.42188 -0.26551,0.0495 -0.58544,0.11995 -1.63086,0.54492 a 13.780834,13.780834 0 0 0 0.0176,-0.008 c 0.72268,-0.29501 1.38336,-0.65703 2.0996,-0.95899 z m -368.01757,0.006 c 1.18457,0.54247 2.05298,0.93163 2.15039,0.97852 -1.05161,-0.42311 -1.37902,-0.49305 -1.64453,-0.54102 -0.0677,-0.0779 -0.34773,-0.29776 -0.50586,-0.4375 z m 332.42187,36.76172 c 0.0409,-7.6e-4 -0.88517,0.22124 0,0 z m -318.95508,33.47656 c -1.60285,1.37496 -0.007,0.0485 -1.74218,1.53711 0.11087,-0.17828 0.30827,-0.46018 0.35156,-0.55469 0.24044,-0.12559 0.51838,-0.27789 1.39062,-0.98242 z m 341.14453,0.0586 c 0.84926,0.69371 1.12365,0.84773 1.36133,0.97461 0.0408,0.0889 0.22355,0.3543 0.32227,0.51562 -0.58258,-0.48271 -1.09575,-1.01095 -1.6836,-1.49023 z m -345.74609,11.8789 c 0.001,0.008 0.001,0.0143 0,0.01 -9.8e-4,-0.006 9.9e-4,-0.003 0,-0.01 z m 344.3457,9.0293 c -0.19293,0.15868 -0.48948,0.37971 -0.56836,0.46484 -0.26703,0.0431 -0.58459,0.1029 -1.63867,0.5 a 13.780834,13.780834 0 0 0 0.14844,-0.0566 c 0.71172,-0.27747 1.35513,-0.62252 2.05859,-0.9082 z m -338.4082,0.004 c 0.74843,0.30493 2.97934,1.25145 2.2207,0.9707 -1.05826,-0.39653 -1.37982,-0.45791 -1.64648,-0.5 -0.0794,-0.0857 -0.37837,-0.31001 -0.57422,-0.4707 z"
     transform="translate(-12.405236,-12.408195)" />
  <path
     fill="#00205b"
     d="m 434.54473,606.19952 v 11.824 h -2.957 v -11.824 h -3.423 v -2.937 h 9.803 v 2.937 z m 16.023,11.824 v -8.712 l -2.49,5.428 h -2.612 l -2.49,-5.428 v 8.713 h -2.956 v -14.763 h 2.956 l 3.796,7.883 3.796,-7.883 h 2.956 v 14.761 z"
     id="path1" />
  <path
     fill="#00205b"
     d="m 580.09573,261.92752 a 1.023,1.023 0 0 0 -0.157,-1.217 1.016,1.016 0 0 0 -0.364,-0.239 c -8.529,-3.2 -16.572,-5.414 -24.713,-6.572 a 0.956,0.956 0 0 1 -0.834,-0.945 0.967,0.967 0 0 1 0.104,-0.441 c 6.672,-13.378 10.989,-28.748 14.208,-45.402 0.138,-0.717 -0.515,-1.35 -1.221,-1.166 -15,3.896 -32.17,10.949 -46.454,17.773 a 0.931,0.931 0 0 1 -1.143,-0.262 0.936,0.936 0 0 1 -0.179,-0.378 c -2.1,-9.25 -4.594,-19.686 -9.717,-28.728 a 1.016,1.016 0 0 0 -0.663,-0.479 1.015,1.015 0 0 0 -0.8,0.169 c -15.114,10.936 -28.62,22.96 -40.383,36.164 a 0.967,0.967 0 0 1 -1.247,0.174 0.979,0.979 0 0 1 -0.314,-0.326 c -3.032,-5.004 -6.982,-9.478 -12.192,-13.227 a 0.966,0.966 0 0 0 -1.31,0.175 c -19.406,24 -43.829,51.262 -75.347,73.836 -0.654,0.468 -1.55,-0.17 -1.316,-0.94 7.155,-23.404 17.929,-45.707 28.43,-66.187 a 0.956,0.956 0 0 0 -0.632,-1.377 c -4.42,-1.001 -10.314,-1.563 -15.9,-1.879 a 0.947,0.947 0 0 1 -0.893,-1.009 0.94,0.94 0 0 1 0.163,-0.467 c 13.285,-19.698 23.441,-43.656 29.88,-65.198 a 0.937,0.937 0 0 0 -0.502,-1.117 0.932,0.932 0 0 0 -0.432,-0.086 c -11.104,0.496 -24.513,2.994 -35.615,6.845 a 0.918,0.918 0 0 1 -1.214,-1.037 c 3.245,-18.613 1.741,-39.487 -1.807,-58.829995 a 0.959,0.959 0 0 0 -0.47,-0.669 0.961,0.961 0 0 0 -0.814,-0.067 c -7.836,2.951995 -16.813,7.471995 -24.981,12.405995 a 0.952,0.952 0 0 1 -0.991,0.003 0.942,0.942 0 0 1 -0.449,-0.883 c 1.229,-17.499995 -0.709,-36.840998 -4.46,-52.421998 a 0.92,0.92 0 0 0 -1.193,-0.658 c -5.703,1.983 -12.409,5.495 -18.808,9.314 a 0.96,0.96 0 0 1 -1.41,-0.518 c -6.023,-17.63 -15.688,-34.777 -26.104,-51.81 a 0.996,0.996 0 0 0 -0.851,-0.475 1,1 0 0 0 -0.851,0.475 c -10.417,17.033 -20.081,34.18 -26.104,51.81 a 0.97,0.97 0 0 1 -0.58,0.598 0.966,0.966 0 0 1 -0.83,-0.08 c -6.4,-3.82 -13.106,-7.33 -18.808,-9.314 a 0.92,0.92 0 0 0 -1.193,0.658 c -3.752,15.58 -5.689,34.922003 -4.46,52.420998 a 0.95,0.95 0 0 1 -0.449,0.883 0.952,0.952 0 0 1 -0.991,-0.003 c -8.168,-4.933 -17.145,-9.453 -24.982,-12.404995 a 0.965,0.965 0 0 0 -1.283,0.736 c -3.548,19.342995 -5.053,40.216995 -1.807,58.829995 a 0.918,0.918 0 0 1 -0.738,1.075 0.918,0.918 0 0 1 -0.476,-0.038 c -11.102,-3.85 -24.511,-6.35 -35.615,-6.845 a 0.932,0.932 0 0 0 -0.958,0.763 0.937,0.937 0 0 0 0.024,0.44 c 6.439,21.542 16.595,45.5 29.88,65.198 a 0.942,0.942 0 0 1 -0.73,1.476 c -5.586,0.316 -11.48,0.878 -15.9,1.88 a 0.96,0.96 0 0 0 -0.633,1.376 c 10.52,20.514 21.31,42.855 28.465,66.302 0.227,0.743 -0.625,1.369 -1.262,0.925 -27.922,-19.522 -54.716,-48.162 -75.435,-73.932 a 0.96,0.96 0 0 0 -1.311,-0.178 c -5.21,3.749 -9.159,8.223 -12.191,13.226 a 0.97,0.97 0 0 1 -1.56,0.152 c -11.764,-13.204 -25.27,-25.228 -40.384999,-36.164 a 1.01,1.01 0 0 0 -1.461,0.31 c -5.124,9.042 -7.618,19.479 -9.719,28.729 a 0.936,0.936 0 0 1 -0.913,0.733 0.957,0.957 0 0 1 -0.408,-0.094 c -14.284,-6.824 -31.454,-13.877 -46.454,-17.773 -0.707,-0.183 -1.36,0.45 -1.221,1.166 3.22,16.654 7.536,32.024 14.209,45.402 a 0.955,0.955 0 0 1 -0.007,0.883 0.955,0.955 0 0 1 -0.725,0.504 c -8.14,1.157 -16.184,3.37 -24.712,6.57 a 1.016,1.016 0 0 0 -0.651,1.041 c 0.013,0.146 0.057,0.288 0.13,0.416 10.028,17.246 21.6,31.473 34.916,42.577 a 0.958,0.958 0 0 1 -0.129,1.567 79.503,79.503 0 0 0 -14.722,11.33 1.008,1.008 0 0 0 10e-4,1.428 355.515,355.515 0 0 0 55.257003,44.44 0.992,0.992 0 0 1 0.453,0.8 0.992,0.992 0 0 1 -0.392,0.832 c -7.366003,5.699 -13.854003,11.614 -19.420003,18.268 a 1,1 0 0 0 0.107,1.39 c 14.483,12.817 31.064999,23.201 50.314999,31.059 a 0.984,0.984 0 0 1 0.61,0.794 0.987,0.987 0 0 1 -0.395,0.92 c -6.847,5.147 -12.412,10.84 -17.533,17.002 a 0.983,0.983 0 0 0 -0.199,0.393 0.99,0.99 0 0 0 0.168,0.843 0.993,0.993 0 0 0 0.335,0.286 c 13.757,7.07 30.454,11.64 47.773,14.774 0.787,0.143 0.85,1.23 0.085,1.468 -22.116,6.844 -42.43,15.687 -61.877996,26.516 a 0.997,0.997 0 0 0 -0.109,1.672 c 14.254996,10.588 28.791996,19.817 45.707996,26.412 a 0.975,0.975 0 0 1 0.621,0.763 0.984,0.984 0 0 1 -0.353,0.919 c -23.118,18.843 -42.021996,40.534 -58.532999,64.13 -0.494,0.706 0.097,1.672 0.953,1.563 23.559999,-2.997 45.484999,-6.678 64.376999,-11.856 a 0.944,0.944 0 0 1 1.098,1.342 c -4.047,8.076 -7.696,16.672 -11.026,25.69 -0.257,0.696 0.32,1.428 1.057,1.348 21.244,-2.302 40.552,-4.999 55.957,-8.494 0.862,-0.196 1.506,0.751 1.021,1.49 -6.517,9.927 -11.135,20.671 -14.845,32.473 -0.226,0.718 0.41,1.427 1.148,1.286 37.242,-7.113 71.133,-17.769 101.198,-32.198 0.812,-0.39 1.741,0.169 1.802,1.068 1.811,26.704 11.933,45.274 25.79,60.195 0.514,0.553 1.383,0.58 1.937,0.069 l 19.456,-17.96 c 0.59,-0.545 0.645,-1.453 0.117,-2.057 -3.848,-4.4 -21.556,-24.496 -18.423,-39.775 0.373,-1.82 2.393,-2.793 4.086,-2.027 22.432,10.148 68.923,25.646 105.428,32.693 0.72,0.14 1.327,-0.555 1.107,-1.256 -3.712,-11.817 -8.333,-22.573 -14.857,-32.51 -0.485,-0.74 0.159,-1.687 1.021,-1.49 15.405,3.494 34.713,6.191 55.957,8.493 a 1.012,1.012 0 0 0 1.057,-1.349 c -3.33,-9.017 -6.979,-17.613 -11.025,-25.689 a 0.944,0.944 0 0 1 1.097,-1.342 c 18.892,5.178 40.816,8.86 64.377,11.856 0.855,0.109 1.447,-0.857 0.952,-1.564 -16.51,-23.594 -35.414,-45.286 -58.532,-64.13 a 0.99,0.99 0 0 1 -0.352,-0.918 0.978,0.978 0 0 1 0.62,-0.763 c 16.916,-6.595 31.452,-15.824 45.708,-26.412 a 0.994,0.994 0 0 0 0.399,-0.866 0.993,0.993 0 0 0 -0.508,-0.806 c -19.447,-10.829 -39.762,-19.672 -61.878,-26.516 -0.765,-0.237 -0.702,-1.325 0.086,-1.468 17.318,-3.134 34.015,-7.705 47.772,-14.774 a 0.996,0.996 0 0 0 0.304,-1.522 c -5.121,-6.163 -10.686,-11.855 -17.534,-17.002 a 0.987,0.987 0 0 1 -0.394,-0.921 0.99,0.99 0 0 1 0.61,-0.793 c 19.25,-7.858 35.832,-18.242 50.315,-31.06 0.403,-0.355 0.451,-0.977 0.106,-1.389 -5.565,-6.654 -12.053,-12.57 -19.42,-18.268 a 1.002,1.002 0 0 1 0.061,-1.632 355.476,355.476 0 0 0 55.258,-44.44 c 0.396,-0.39 0.4,-1.04 0,-1.427 a 79.463,79.463 0 0 0 -14.721,-11.33 0.958,0.958 0 0 1 -0.13,-1.568 c 13.318,-11.104 24.89,-25.331 34.917,-42.577 z"
     id="path2" />
  <path
     fill="#ffffff"
     d="m 293.28773,262.76452 a 0.59,0.59 0 0 1 0.276,0.493 c 0.133,7.407 0.316,14.233 0.557,20.87 0.01,0.25 0.213,0.448 0.465,0.45 l 5.28,0.023 h 0.004 a 0.464,0.464 0 0 0 0.343,-0.148 0.464,0.464 0 0 0 0.132,-0.35 c -0.193,-4.66 -0.374,-9.373 -0.535,-14.007 a 0.773,0.773 0 0 1 0.309,-0.644 c 25.033,-18.959 44.808,-41.09 54.254,-60.724 l -0.275,-0.148 c -11.61,19.423 -29.814,38.067 -54.107,55.415 -0.144,0.096 -0.385,0.018 -0.391,-0.195 -0.936,-29.732 -0.93,-54.243 0.02,-74.939 0.081,-2.79 0.153,-5.714 0.223,-8.942 a 0.95,0.95 0 0 1 0.488,-0.814 c 10.694,-6.006 20.467,-13.828 29.878,-23.913 l -0.218,-0.224 c -10.36,9.068 -20.058,15.768 -29.652,20.483 a 0.282,0.282 0 0 1 -0.172,0.023 0.283,0.283 0 0 1 -0.214,-0.172 0.291,0.291 0 0 1 -0.019,-0.109 c 0.643,-36.684 -0.215,-79.495995 -1.995,-99.584998 l -0.312,0.015 c 0.18,21.662003 -0.068,43.325998 -0.742,64.977998 a 0.192,0.192 0 0 1 -0.196,0.184 c 0,0 -0.09,-0.01 -0.136,-0.06 -8.82,-9.316 -16.928,-19.703 -24.098,-30.871 l -0.27,0.156 c 5.935,11.412 13.798,22.951 24.039,35.278 0.32,0.385 0.488,0.873 0.47,1.374 a 1586.072,1586.072 0 0 1 -1.977,41.592 c -0.228,4.622 -0.43,9.51 -0.637,15.386 -0.007,0.2 -0.231,0.277 -0.363,0.186 -11.28,-8.01 -21.658,-19.014 -30.013,-31.823 l -0.27,0.159 c 7.41,13.917 17.438,25.76 29.81,35.199 0.435,0.332 0.684,0.853 0.668,1.395 a 1123.31,1123.31 0 0 0 -0.44,48.496 0.145,0.145 0 0 1 -0.04,0.101 0.159,0.159 0 0 1 -0.084,0.041 0.154,0.154 0 0 1 -0.092,-0.017 c -22.197,-13.549 -40.58,-31.11 -54.638,-52.197 l -0.265,0.163 c 12.635,22.358 32.659,43.287 54.935,57.422 z m -160.065,58.649 a 0.482,0.482 0 0 0 0.208,-0.046 l 3.608,-1.705 a 0.416,0.416 0 0 0 0.123,-0.662 532.813,532.813 0 0 0 -3.984,-4.109 1.571,1.571 0 0 1 -0.448,-1.08 c -0.245,-14.006 -4.919,-26.427 -13.892,-36.92 l -0.25,0.189 c 6.777,10.204 10.064,21.052 10.047,33.162 0,0.026 -0.026,0.034 -0.052,0.023 -8.587,-8.557 -17.948,-17.313 -27.823,-26.029 a 1.302,1.302 0 0 1 -0.433,-1.085 c 0.869,-10.327 -0.883996,-20.079 -5.209996,-28.988 l -0.288,0.12 c 3.019,8.655 3.759,17.349 2.264,26.574 l -0.152,0.055 c -10.923003,-10.052 -22.984003,-21.991 -36.867003,-36.496 l -0.233,0.209 c 11.673,13.914 25.459,28.594 42.147999,44.879 a 306.163,306.163 0 0 1 7.936,7.69 66.237,66.237 0 0 1 -4.926,0.181 c -11.464996,0.001 -23.064999,-2.866 -35.459999,-8.766 l -0.149,0.274 c 13.104,8.01 26.905003,11.904 42.192999,11.904 0.514,0 1.03,-0.005 1.564,-0.014 0.237,0 0.459,0.092 0.621,0.256 5.54,5.635 11.785,12.252 19.091,20.224 0.094,0.103 0.226,0.16 0.364,0.16 z m 361.57,-36.587 c 12.67,-12.81 24.676,-25.828 35.684,-38.688 l -0.23,-0.212 c -13.042,13.107 -26.329,26.066 -40.618,39.617 a 0.13,0.13 0 0 1 -0.09,0.035 c -0.054,0 -0.12,-0.034 -0.13,-0.108 -1.353,-9.102 -1.053,-19.035 0.869,-28.729 l -0.3,-0.084 c -3.407,9.407 -4.638,19.615 -3.763,31.21 0.033,0.436 -0.143,0.87 -0.468,1.162 -10.837,9.671 -21.06,19.458 -30.385,29.09 a 0.4,0.4 0 0 0 -0.036,0.52 0.417,0.417 0 0 0 0.143,0.121 l 3.674,1.893 a 0.565,0.565 0 0 0 0.678,-0.122 662.742,662.742 0 0 1 11.666,-12.453 1.803,1.803 0 0 1 1.276,-0.548 c 15.373,-0.182 28.572,-3.772 40.349,-10.974 l -0.145,-0.277 c -11.462,5.06 -21.715,7.417 -32.266,7.417 a 72.823,72.823 0 0 1 -4.554,-0.145 0.14,0.14 0 0 1 -0.071,-0.026 0.136,0.136 0 0 1 -0.045,-0.061 0.116,0.116 0 0 1 -0.008,-0.071 0.12,0.12 0 0 1 0.033,-0.064 703.034,703.034 0 0 1 18.737,-18.503 z m -184.262,257.999 c -10.867,0 -21.184,2.98 -26.183,10.325 -0.058,0.086 -0.163,0.116 -0.25,0.059 -3.275,-2.136 -14.055,-8.661 -26.614,-8.661 -6.758,0 -14.126,3.28 -21.566,7.49 a 0.467,0.467 0 0 1 -0.295,0.056 c -19.782,-2.915 -38.746,0.917 -57.301,8.128 19.386,-4.907 37.659,-8.037 52.19,-5.197 a 0.098,0.098 0 0 1 0.03,0.181 c -8.618,5.238 -17.157,10.969 -24.78,13.555 15.728,-1.823 36.244,-19.7 52.155,-19.7 10.607,0 21.29,6.615 24.108,8.493 0.09,0.06 0.12,0.164 0.088,0.268 -0.775,2.497 -1.08,5.342 -0.807,8.574 5.183,-14.344 15.696,-17.652 30.1,-17.652 11.077,0 22.173,3.944 35.126,6.892 a 0.754,0.754 0 0 1 0.33,0.166 c 7.914,6.886 22.452,13.771 29.39,14.934 l 2.978,0.5 -2.812,-1.1 c -5.94,-2.32 -16.466,-7.558 -21.75,-12.7 -0.065,-0.062 -0.006,-0.168 0.083,-0.153 5.393,0.911 11.128,1.515 17.317,1.515 23.054,0 33.432,-4.116 39.954,-6.796 -6.932,1.47 -13.53,3.572 -36.681,3.572 -21.1,0 -47.618,-12.749 -64.81,-12.749 z m -160.774,-191.497 c 3.895,-1.97 7.811,-3.9 11.746,-5.789 l -4.574,-8.83 a 635.14,635.14 0 0 0 -33.927,17.564 l 4.572,8.831 a 645.09,645.09 0 0 1 11.506,-6.249 l 0.699,-0.37 22.869,44.173 a 629.992,629.992 0 0 1 9.274,-4.801 l -22.869,-44.173 0.705,-0.357 z m 46.297,33.157 c 1.286,0 2.566,-0.22 3.804,-0.656 a 617.882,617.882 0 0 1 13.852,-4.699 c 2.91,-0.949 5.252,-2.95 6.597,-5.634 1.32,-2.638 1.52,-5.646 0.561,-8.473 l -11.896,-35.075 c -1.574,-4.644 -6.089,-7.886 -10.98,-7.886 a 11.17,11.17 0 0 0 -3.467,0.552 621.642,621.642 0 0 0 -13.818,4.686 c -5.893,2.074 -9.037,8.628 -7.007,14.609 l 11.896,35.075 a 11.036,11.036 0 0 0 10.458,7.501 z m -8.458,-49.055 c 2.132,-0.736 4.266,-1.46 6.406,-2.173 a 4.545,4.545 0 0 1 5.724,2.853 l 9.884,29.149 a 4.45,4.45 0 0 1 -0.228,3.426 4.471,4.471 0 0 1 -2.606,2.262 c -2.137,0.71 -4.266,1.433 -6.392,2.168 -0.473,0.163 -0.97,0.247 -1.47,0.247 h -0.002 a 4.475,4.475 0 0 1 -4.239,-3.038 l -9.884,-29.149 c -0.801,-2.358 0.458,-4.935 2.807,-5.745 z m 117.991,30.959 c 6.4,0 11.308,-4.86 11.308,-11.061 v -37.038 c 0.001,-6.315 -5.08,-11.512 -11.327,-11.585 a 611.712,611.712 0 0 0 -14.59,0 c -6.248,0.07 -11.329,5.268 -11.329,11.585 v 37.038 c 0,6.203 4.907,11.062 11.17,11.062 1.202,-0.007 6.767,-0.094 14.768,-10e-4 z m -15.2,-45.233 c -0.002,-2.49 2.02,-4.527 4.503,-4.54 a 635.82,635.82 0 0 1 6.766,0 c 2.482,0.015 4.502,2.052 4.502,4.54 v 30.78 a 4.488,4.488 0 0 1 -4.489,4.476 636.573,636.573 0 0 0 -6.77,0 c -2.498,0 -4.512,-2.008 -4.512,-4.476 z m -2.588,186.616 h 15.997 l 2.487,9.756 h 10.566 l -14.052,-51.913 h -13.999 l -14.052,51.913 h 10.567 z m 7.999,-31.387 5.512,21.63 h -11.025 z m 27.292,-52.358 v -16.234 c 0,-5.666 -4.595,-10.246 -10.261,-10.246 h -22.418 v 51.912 h 10.176 v -15.171 h 12.242 c 5.666,0 10.26,-4.594 10.26,-10.26 z m -10.165,-2.65 a 3.153,3.153 0 0 1 -3.153,3.154 h -9.185 v -17.228 h 9.185 a 3.153,3.153 0 0 1 3.153,3.154 z m -127.003,44.239 v 51.912 h 30.387 v -9.757 h -20.109 v -42.155 z m 38.715,-68.069 h -8.088 l -11.27,26.02 -11.268,-26.02 h -8.09 v 51.912 h 10.177 v -23.952 l 9.181,20.781 9.182,-20.78 v 23.95 h 10.176 z m 20.925,-26.32 -2.853,-17.672 0.764,-0.133 c 1.445,-0.25 2.892,-0.495 4.342,-0.734 l 0.482,-0.08 0.283,0.398 a 7373.529,7373.529 0 0 1 11.285,15.908 c 3.382,-0.505 6.788,-0.983 10.149,-1.426 a 6652.145,6652.145 0 0 0 -11.111,-15.793 l -0.56,-0.793 0.892,-0.379 a 11.037,11.037 0 0 0 6.606,-11.925 l -3.053,-18.91 c -0.898,-5.549 -5.78,-9.735 -11.358,-9.735 -0.557,0 -1.12,0.043 -1.674,0.127 a 594.833,594.833 0 0 0 -23.981,4.108 l 9.515,58.922 a 605.733,605.733 0 0 1 10.272,-1.883 z m -7.166,-49.237 a 596.593,596.593 0 0 1 9.393,-1.548 c 2.458,-0.386 4.777,1.357 5.166,3.759 l 2.054,12.721 a 4.447,4.447 0 0 1 -0.794,3.34 4.471,4.471 0 0 1 -2.943,1.796 c -3.127,0.489 -6.25,1.004 -9.369,1.543 l -0.78,0.134 -3.49,-21.613 z m 28.381,127.469 h 10.461 l -12.784,-51.912 h -13.86 l -12.784,51.912 h 10.461 l 2.195,-9.756 h 14.116 z m -14.118,-19.512 4.865,-21.63 4.865,21.63 z m 109.118,45.425 v -9.757 h -32.557 v 51.913 h 10.279 v -21.079 h 15.88 v -9.755 h -15.88 v -11.322 z m -24.411,-166.71 -9.96,58.848 c 3.42,0.473 6.888,0.982 10.33,1.517 l 5.719,-33.805 0.999,2.915 a 5886.954,5886.954 0 0 1 11.542,34.014 616.91,616.91 0 0 1 8.134,1.573 l 9.958,-58.847 a 615.279,615.279 0 0 0 -10.252,-1.965 l -5.723,33.82 -0.994,-2.953 a 5783.96,5783.96 0 0 0 -11.541,-33.924 631.551,631.551 0 0 0 -8.212,-1.193 z m 48.284,208.866 h 14.611 c 5.723,0 10.363,-4.593 10.363,-10.26 v -7.432 c 0,-3.851 -1.493,-7.378 -4.956,-9.133 0,0 -18.187,-8.092 -18.434,-8.226 -0.867,-0.467 -1.707,-1.624 -1.707,-2.798 v -1.146 c 0,-1.746 1.43,-3.161 3.193,-3.161 h 8.436 c 1.761,0 3.189,1.413 3.189,3.156 v 2.168 h 10.279 v -4.821 c 0,-5.666 -4.64,-10.26 -10.363,-10.26 h -14.611 c -5.724,0 -10.363,4.594 -10.363,10.26 v 5.349 c 0,3.85 1.493,7.378 4.956,9.132 0,0 18.187,8.093 18.434,8.227 0.866,0.467 1.707,1.624 1.707,2.798 v 3.23 c 0,1.745 -1.43,3.16 -3.193,3.16 h -8.437 c -1.76,0 -3.188,-1.413 -3.188,-3.156 v -2.2 h -10.28 v 4.854 c 0,5.666 4.64,10.259 10.364,10.259 z m 24.973,-77.826 h -19.8 v -11.32 h 13.466 v -9.756 h -13.467 v -11.322 h 19.8 v -9.756 h -29.976 v 51.912 h 29.976 z m -43.149,0 h -18.78 v -42.155 h -10.177 v 51.912 h 28.957 z m 26.514,-56.832 15.847,-47.15 0.748,0.26 a 634.035,634.035 0 0 1 12.327,4.415 l 3.168,-9.426 a 635.746,635.746 0 0 0 -36.217,-12.172 l -3.167,9.427 a 633.876,633.876 0 0 1 12.49,3.925 l 0.753,0.244 -15.847,47.15 a 638.555,638.555 0 0 1 9.898,3.327 z m -131.612,92.502 v -9.757 h -32.558 v 51.913 h 32.558 v -9.757 h -22.279 v -11.322 h 15.88 v -9.755 h -15.88 v -11.322 z m 200.546,-126.872 a 612.862,612.862 0 0 0 -12.966,-6.697 11.114,11.114 0 0 0 -5.034,-1.191 c -4.313,0 -8.374,2.466 -10.346,6.283 l -17.001,32.905 c -1.37,2.653 -1.623,5.658 -0.712,8.464 0.929,2.855 2.946,5.183 5.681,6.556 a 610.925,610.925 0 0 1 12.994,6.714 11.417,11.417 0 0 0 5.333,1.342 c 4.136,0 7.887,-2.291 9.793,-5.979 l 17.002,-32.904 c 2.9,-5.61 0.772,-12.56 -4.744,-15.493 z m -6.112,13.11 -14.129,27.346 a 4.466,4.466 0 0 1 -3.975,2.42 c -0.72,0 -1.441,-0.177 -2.086,-0.514 a 629.338,629.338 0 0 0 -5.997,-3.099 4.481,4.481 0 0 1 -2.236,-2.617 4.477,4.477 0 0 1 0.284,-3.43 l 14.128,-27.345 a 4.53,4.53 0 0 1 6.085,-1.967 620.296,620.296 0 0 1 6.01,3.106 c 2.2,1.153 3.059,3.89 1.916,6.1 z"
     id="path3" />
</svg>
