<?xml version="1.0" encoding="UTF-8" standalone="no"?>
<svg
   fill="none"
   viewBox="0 0 662.29999 638.40002"
   version="1.1"
   id="svg8"
   sodipodi:docname="VAN_light.svg"
   width="662.29999"
   height="638.40002"
   inkscape:version="1.4 (86a8ad7, 2024-10-11)"
   xmlns:inkscape="http://www.inkscape.org/namespaces/inkscape"
   xmlns:sodipodi="http://sodipodi.sourceforge.net/DTD/sodipodi-0.dtd"
   xmlns="http://www.w3.org/2000/svg"
   xmlns:svg="http://www.w3.org/2000/svg">
  <defs
     id="defs8" />
  <sodipodi:namedview
     id="namedview8"
     pagecolor="#ffffff"
     bordercolor="#000000"
     borderopacity="0.25"
     inkscape:showpageshadow="2"
     inkscape:pageopacity="0.0"
     inkscape:pagecheckerboard="0"
     inkscape:deskcolor="#d1d1d1"
     inkscape:zoom="1.8359375"
     inkscape:cx="336.61277"
     inkscape:cy="319.45532"
     inkscape:window-width="3440"
     inkscape:window-height="1377"
     inkscape:window-x="-8"
     inkscape:window-y="-8"
     inkscape:window-maximized="1"
     inkscape:current-layer="svg8" />
  <path
     fill="#97999b"
     d="m 329,395.5 140.9,-70.3 c 96.5,27.1 125.1,63.7 125.1,63.7 l 55.2,-62.4 c 3,-3.2 12.1,-14.5 12.1,-35 0,-22.1 -23.1,-39.3 -39.3,-50.9 -27.5,-72.1 -179.5,-93 -190.7,-118.1 -3.9,-8.7 -26,-83.7 -26,-83.7 C 393.1,0 354,0 339.3,0 c -14.8,0 -46.5,5 -46.5,5 0,54.1 -7.3,120 -15,132.1 0,0 -27.5,14.4 -59.7,26 l -77,-51.9 20.2,69.8 C 31.6,252.3 0,376.6 0,376.6 c 0,0 33.3,261.8 361.5,261.8 173.5,0 273.7,-83.9 273.7,-83.9 l -55.9,-125 c 0,0 -85.4,44.4 -194.5,44.4 -100.6,0 -139.9,-46.9 -154.3,-74.2 85.2,2.5 98.5,-4.2 98.5,-4.2 z"
     id="path1" />
  <path
     fill="#00205b"
     d="m 610.4,249.798 c -26.8,-72.4 -174.7,-85.6 -191,-119.8 -6.6,-13.7 -15,-46.4 -27.2,-86.3 -9.8,-28.8 -38.7,-28.8 -53.1,-28.8 -13.8,0 -31.7,2.8 -31.7,2.8 0,29.5 -5.6,115.2 -19.3,130 -3.4,4.2 -28.6,14.4 -56,25 l 8.2,5.5 -8.4,8.4 -15.8,15.8 -17.3,54.2 -22.6,-11.8 8,20.1 -40.3,6.7 22.8,7.9 -65.6,50.4 17.7,1.4 -23.4,42.3 c 33.7,-15.3 44,-18.2 44,-18.2 l -9.7,-10 68,-27.4 c 0,0 -5.1,13.6 -5.1,40 0,3.8 0.6,9.4 1.9,15.9 8.4,41.1 48.5,125.9 190.2,125.9 102.5,0 181.6,-35.8 181.6,-35.8 l 36.7,82.2 c 0,0 -96.2,66.6 -241.7,66.6 -297.4,0 -335.1,-233.8 -335.1,-233.8 41,-109.7 110,-157.7 153.9,-178.1 l -13.7,-1.5 -1.2,-4.1 C 49.3,259.198 15,377.698 15,377.698 c 0,0 35.3,246 346.5,246 159.2,0 255.5,-73.8 255.5,-73.8 l -45,-100.7 c 0,0 -84.1,39.4 -187.2,39.4 -153.5,0 -176.2,-104.7 -176.2,-104.7 0,0 87.4,5.2 115.4,-2.3 l 144.5,-72.2 c 97.9,27.6 126.1,57.5 126.1,57.5 l 44.8,-50.4 c 0,0 8.2,-7.7 8.2,-25 -0.1,-16.2 -24.3,-32.5 -37.2,-41.7 z m -314.7,26.8 -73.3,-9.9 36.9,-20.6 z m -12.2,-98.8 -45.5,72.7 -16,-38.2 z m -150.5,137.8 85.1,-57.3 -6.4,45.5 z"
     id="path2" />
  <path
     fill="#00205b"
     d="m 205.899,299.399 5.4,-30.9 -57.6,39.1 z m 29,-34.7 47.8,5.8 -28.1,-16.4 z m -3.7,-50.4 5.3,23.6 33.7,-45.6 z"
     id="path3" />
  <path
     fill="#00205b"
     d="m 103.501,334.999 -17,0.4 71,-52.9 -30.8,-12.2 50.4,-9.7 -17.5,-35.4 31.1,17.7 12.4,-38.6 c -37.4,13 -117.7,54.2 -164.3,175.7 5.6,27.9 54.3,220.7 322.7,220.7 115.9,0 200.5,-43.9 226.5,-59.3 l -27.7,-62.1 c -25.7,9.9 -92.8,32.3 -175.4,32.3 -163.2,0.1 -204.2,-111.7 -204.2,-153.7 0,-9.3 0.6,-17.2 1.4,-23.6 l -37.5,12.4 4.9,10.6 -29.3,10.6 -25.2,16.6 51.2,9.5 -10.6,36.6 22,-6.5 21.1,53.7 25.2,-3.2 8.4,37.7 c 0,0 47.5,32.9 128,40.1 106.3,9.5 201.4,-26.8 201.4,-26.8 0,0 -113.4,44.5 -216.6,33.6 -78.8,-8.3 -130.1,-40.4 -130.1,-40.4 l -0.6,-34 -31.1,0.4 -14.6,-52.1 -27.7,13 12.2,-46.6 -53.1,-6.5 10.8,-32.5 z m 109.2,-132.9 15.4,-20.7 -74.9,-51.7 21.4,63.1 z"
     id="path4" />
  <path
     fill="#041c2c"
     d="m 658.399,523.998 c -8.4,0 -15.2,6.8 -15.2,15.2 0,8.4 6.8,15.2 15.2,15.2 8.4,0 15.2,-6.8 15.2,-15.2 0,-8.4 -6.8,-15.2 -15.2,-15.2 z m 0,27.2 c -6.6,0 -12,-5.4 -12,-12 0,-6.6 5.3,-11.9 12,-11.9 6.6,0 12,5.3 12,11.9 -0.1,6.7 -5.4,12 -12,12 z"
     id="path5" />
  <path
     fill="#041c2c"
     d="m 664.7,535.699 c 0,-2.8 -2.3,-5.2 -5.2,-5.2 h -7.3 v 17.4 h 3.3 v -7.1 h 2.3 l 3.3,7.1 h 3.6 l -3.4,-7.4 c 1.9,-0.6 3.4,-2.5 3.4,-4.8 z m -5.2,1.9 h -4.1 v -3.8 h 4.1 c 1,0 1.9,0.8 1.9,1.9 0,1.1 -0.9,1.9 -1.9,1.9 z M 574,254.699 c -61.3,-5 -85.1,-25.1 -85.1,-40.9 0,-7.6 7,-9 11.7,-9 25,0 63.7,19.8 70,36.7 -11,-11.8 -30.2,-22.1 -44.8,-22.1 -3.1,0 -6.4,0.9 -6.4,4.8 0,9.9 17.6,25.4 81.9,32.6 -24.6,-71 -160.4,-76 -190.9,-120.6 -8.5,-12.4 -22.5,-91.6 -36.6,-102.5 -15.5,-11.9 -55.3,-6.5 -55.3,-6.5 0,11 -2.7,108.2 -22.8,128.5 -13.6,11.4 -36.4,16.4 -63.7,30.8 l -15.8,15.8 -17.3,54.2 -22.6,-11.8 8,20.1 -40.3,6.7 22.8,7.9 -65.6,50.4 17.7,1.4 -23.4,42.3 c 33.7,-15.3 44,-18.2 44,-18.2 l -9.7,-10 68,-27.4 c 0,0 -5.1,13.6 -5.1,40 0,3.8 0.6,9.4 1.9,15.9 2.9,-5.6 56.4,-104.3 171,-111 l -48,37.1 -95.2,73.5 c 0,0 78.4,3.3 97.6,-2.2 60.6,-28.2 109.1,-54.5 147.1,-73.6 36.5,-18.3 63.4,-29.8 82,-29.8 23,0 54.9,22.2 82.2,41 0,0 1.7,-1.4 3.1,-4.4 6.6,-23.5 -27.5,-41.9 -60.4,-49.7 z m -362.3,49.1 -78.7,11.8 85.1,-57.3 z m 71.8,-126 -45.5,72.7 -16,-38.2 z m -61.1,88.9 36.9,-20.6 36.4,30.5 z m 133,-121.5 c -11.3,0.7 -34.2,8.1 -34.2,8.1 0,0 20.6,-11.9 24.8,-18.3 4.2,-6.4 5.3,-78.5 5.3,-78.5 0,0 6.6,70.6 12.2,77.7 5.6,7.1 26.4,15.9 26.4,15.9 0,0 -26.2,-5.4 -34.5,-4.9 z"
     id="path6" />
  <path
     fill="#ffffff"
     d="m 363.6,134.2 c -5.6,-7.1 -12.2,-77.7 -12.2,-77.7 0,0 -1.1,72.1 -5.3,78.5 -4.2,6.4 -24.8,18.3 -24.8,18.3 0,0 22.9,-7.5 34.2,-8.1 8.3,-0.5 34.6,4.9 34.6,4.9 0,0 -20.9,-8.8 -26.5,-15.9 z M 194.5,373.8 c 2.9,-2.9 61.5,-61.3 123.1,-73.9 l 48,-37.1 C 251,269.6 197.5,368.3 194.5,373.8 Z m 442.3,-79.5 c 0,-14.6 -19.2,-24.5 -35.5,-37.5 -64.3,-7.2 -81.9,-22.7 -81.9,-32.6 0,-3.9 3.3,-4.8 6.4,-4.8 14.6,0 33.8,10.3 44.8,22.1 -6.4,-16.8 -45,-36.7 -70,-36.7 -4.7,0 -11.7,1.5 -11.7,9 0,15.8 23.8,35.9 85.1,40.9 32.9,7.8 67,26.1 60.4,49.8 1.3,-2.4 2.4,-5.7 2.4,-10.2 z m -120.6,-0.1 23.9,8.5 c 4.4,-1.9 9.2,-4.2 9.6,-4.8 0.3,-0.7 0.3,-1.2 -0.7,-2.1 -0.7,-0.7 -11.4,-4.6 -18,-7.1 z m 20.1,-7.6 c 6.4,2.5 15.2,6.1 15.9,6.2 1,0.2 2.7,0.3 3.7,0 0.8,-0.2 6,-2.8 9.8,-4.8 -3.7,-1.8 -11.2,-5.3 -16.2,-5.3 -4.8,0.1 -13.2,3.9 -13.2,3.9 z m 23.6,8.3 c -0.2,0.5 0,0.9 0.8,1.5 0.9,0.7 13.3,7.1 14.3,7.2 1,0.1 1.8,0.1 2.8,-0.1 0.7,-0.2 5,-2.9 7.9,-4.9 l -16.5,-8.9 c -4.3,2.1 -8.9,4.6 -9.3,5.2 z m 11.7,13.1 c 0.3,-0.6 0.4,-1 0.2,-1.6 -0.8,-0.9 -13.1,-7.3 -14.4,-7.5 -1.4,-0.2 -2.2,-0.2 -3.4,0.4 -1.1,0.5 -7.3,4 -9.6,5.2 l 19.2,8.7 c 3.7,-2.2 7.7,-4.7 8,-5.2 z m 23.6,6.8 c 0.5,0.1 1.7,-0.2 3,-0.7 0.7,-0.3 3.5,-2.6 5.4,-4.2 l -14.8,-9.4 c -3.6,2.3 -7.3,4.8 -7.7,5.3 0,0.1 0.1,0.5 0.8,1.6 z m 6.1,1.5 c -0.4,0.9 -0.5,1.2 -0.3,1.4 0.5,0.5 8.2,5.6 13.4,9.1 l 6,-6 -13.7,-8.8 c -2.5,1.7 -5.2,3.8 -5.4,4.3 z m -8.5,2.5 c 0.3,-0.5 0.1,-1.1 -0.4,-1.7 -0.8,-0.7 -12.6,-7.1 -13.5,-7.3 -1,-0.2 -2.8,0.1 -3.7,0.4 -0.5,0.2 -4,2.6 -7.2,4.9 l 18.1,8.4 c 3.1,-2 6.4,-4.3 6.7,-4.7 z m 3.2,2.4 c -0.5,0.2 -3.9,2.8 -6.5,4.8 l 16.4,10.1 6.1,-6.7 c -5,-3.4 -12.2,-8.4 -12.8,-8.6 -0.6,-0.2 -2.4,0.1 -3.2,0.4 z"
     id="path7" />
  <path
     fill="#ffffff"
     d="m 467.199,297.7 c 88.4,23.5 126.1,54.1 126.1,54.1 l 9.4,-10.6 c -4.4,-3.3 -37,-25.7 -100.8,-46.6 19,-7.5 42,-16.4 48.2,-16.4 14.1,0 43.1,18.3 74.2,38.7 l 7.1,-8 c -27.2,-18.8 -59.1,-41 -82.2,-41 -18.7,0 -45.6,11.5 -82,29.8 z"
     id="path8" />
</svg>
