<?xml version="1.0" encoding="UTF-8" standalone="no"?>
<svg
   fill="none"
   viewBox="0 0 472.85001 640"
   version="1.1"
   id="svg5"
   sodipodi:docname="VGK_dark.svg"
   width="472.85001"
   height="640"
   inkscape:version="1.4 (86a8ad7, 2024-10-11)"
   xmlns:inkscape="http://www.inkscape.org/namespaces/inkscape"
   xmlns:sodipodi="http://sodipodi.sourceforge.net/DTD/sodipodi-0.dtd"
   xmlns="http://www.w3.org/2000/svg"
   xmlns:svg="http://www.w3.org/2000/svg">
  <defs
     id="defs5" />
  <sodipodi:namedview
     id="namedview5"
     pagecolor="#ffffff"
     bordercolor="#000000"
     borderopacity="0.25"
     inkscape:showpageshadow="2"
     inkscape:pageopacity="0.0"
     inkscape:pagecheckerboard="0"
     inkscape:deskcolor="#d1d1d1"
     inkscape:zoom="1.8359375"
     inkscape:cx="236.39149"
     inkscape:cy="320"
     inkscape:window-width="3440"
     inkscape:window-height="1377"
     inkscape:window-x="-8"
     inkscape:window-y="-8"
     inkscape:window-maximized="1"
     inkscape:current-layer="svg5" />
  <path
     fill="#ffffff"
     d="M 273.738,35.03 236.425,0 c 0,0 -30.894,29.003 -37.312,35.03 H 0 V 472.324 C 74.332,554.723 136.735,594.081 236.425,640 335.92,594.17 398.395,554.86 472.85,472.324 V 35.03 Z m 82.152,573.165 c 0,-5.727 -4.61,-10.375 -10.347,-10.375 -5.714,0 -10.365,4.648 -10.365,10.375 0,5.726 4.651,10.367 10.365,10.367 5.736,0 10.347,-4.64 10.347,-10.367 z m -18.478,0 c 0,-4.504 3.638,-8.15 8.131,-8.15 4.494,0 8.135,3.646 8.135,8.15 0,4.484 -3.64,8.143 -8.135,8.143 -4.493,0 -8.131,-3.66 -8.131,-8.143 z"
     id="path1" />
  <path
     fill="#ffffff"
     d="m 349.816,614.116 -2.351,-5.008 c 1.359,-0.484 2.35,-1.807 2.35,-3.319 a 3.538,3.538 0 0 0 -3.535,-3.533 h -4.997 v 11.86 h 2.234 v -4.806 h 1.602 l 2.241,4.806 z m -3.536,-7.037 h -2.763 v -2.572 h 2.763 a 1.283,1.283 0 0 1 1.203,0.786 c 0.066,0.157 0.1,0.326 0.099,0.496 0,0.72 -0.563,1.29 -1.302,1.29 z"
     id="path2" />
  <path
     fill="#b9975b"
     d="m 270.476,43.263 c -0.345,-0.34 -34.05,-31.972 -34.05,-31.972 0,0 -33.702,31.632 -34.048,31.972 H 8.235 V 469.16 c 69.648,77.227 131.74,117.34 228.192,161.775 96.246,-44.34 158.326,-84.306 228.192,-161.775 V 43.263 Z M 82.33,225.935 V 451.21 a 493.137,493.137 0 0 1 -8.232,-8.323 v -216.95 c 0,-91.853 52.835,-155.167 128.263,-182.657 0.913,0.638 2.537,4.634 2.936,5.673 1.17,3.052 2.124,6.508 2.87,9.72 0,0 -4.12,-3.446 -8.23,-5.418 C 119.392,86.907 82.33,148.91 82.33,225.936 Z m 148.691,187.66 -36.41,-117.762 12.237,-12.237 -2.906,14.548 32.485,105.068 z m 43.206,115.386 -14.485,16.645 107.793,-310.821 10.457,-5.025 z"
     id="path3" />
  <path
     fill="#000000"
     d="M 448.151,59.728 V 462.833 C 384.545,533.365 317.896,575.269 236.425,612.807 154.954,575.269 88.305,533.365 24.699,462.833 V 59.728 H 167.107 C 110.982,92.379 74.096,149.195 74.096,225.937 v 216.95 c 38.271,39.664 90,79.579 139.015,102.739 l -107.798,-310.82 101.533,48.79 -12.237,12.238 36.41,117.762 h 10.813 l 36.41,-117.762 -12.238,-12.237 101.53,-48.791 -107.794,310.82 c 48.681,-23.003 100.438,-62.759 139.015,-102.739 v -216.95 c 0,-76.742 -36.887,-133.558 -93.012,-166.209 z"
     id="path4" />
  <path
     fill="#333f48"
     d="m 264.685,58.67 c 2.89,-12.44 5.805,-15.392 5.805,-15.392 A 87328.21,87328.21 0 0 0 236.425,11.289 V 322.205 L 259.019,249.492 379.402,191.56 C 368.651,129.313 328.095,81.78 264.685,58.67 Z m 125.837,198.348 -89.573,259.227 15.524,-20.05 c 0,0 40.82,-31.248 65.816,-60.024 V 303.716 Z m -308.194,0 74.545,215.734 -41.44,-97.654 -24.872,-71.382 z M 205.66,235.81 109.79,199.425 213.831,249.493 V 97.143 Z"
     id="path5" />
</svg>
