<?xml version="1.0" encoding="UTF-8" standalone="no"?>
<svg
   fill="none"
   viewBox="0 0 639.99402 640"
   version="1.1"
   id="svg7"
   sodipodi:docname="WPG_dark.svg"
   width="639.99402"
   height="640"
   inkscape:version="1.4 (86a8ad7, 2024-10-11)"
   xmlns:inkscape="http://www.inkscape.org/namespaces/inkscape"
   xmlns:sodipodi="http://sodipodi.sourceforge.net/DTD/sodipodi-0.dtd"
   xmlns="http://www.w3.org/2000/svg"
   xmlns:svg="http://www.w3.org/2000/svg">
  <defs
     id="defs7" />
  <sodipodi:namedview
     id="namedview7"
     pagecolor="#ffffff"
     bordercolor="#000000"
     borderopacity="0.25"
     inkscape:showpageshadow="2"
     inkscape:pageopacity="0.0"
     inkscape:pagecheckerboard="0"
     inkscape:deskcolor="#d1d1d1"
     inkscape:zoom="1.8359375"
     inkscape:cx="319.72766"
     inkscape:cy="320"
     inkscape:window-width="3440"
     inkscape:window-height="1377"
     inkscape:window-x="-8"
     inkscape:window-y="-8"
     inkscape:window-maximized="1"
     inkscape:current-layer="svg7" />
  <path
     fill="#ffffff"
     d="m 522.19,585.33 c -8.281,0 -15.005,6.714 -15.005,15.002 0,8.277 6.724,15 15.005,15 8.282,0 14.995,-6.723 14.995,-15 0,-8.288 -6.713,-15.002 -14.995,-15.002 z m 0,26.784 a 11.771,11.771 0 0 1 -11.782,-11.782 c 0,-6.51 5.265,-11.775 11.782,-11.775 6.51,0 11.78,5.264 11.78,11.775 0,6.512 -5.27,11.782 -11.78,11.782 z m 6.164,-15.26 a 5.077,5.077 0 0 0 -1.492,-3.595 5.07,5.07 0 0 0 -3.598,-1.487 h -7.228 v 17.123 h 3.213 v -6.954 h 2.306 l 3.246,6.954 h 3.553 l -3.389,-7.251 a 5.09,5.09 0 0 0 3.39,-4.79 z m -5.09,1.872 h -4.015 v -3.747 h 4.015 c 1.033,0 1.877,0.84 1.877,1.876 a 1.876,1.876 0 0 1 -1.877,1.871 z"
     id="path1" />
  <path
     fill="#a2aaad"
     d="M 639.994,320.002 C 639.994,496.739 496.79,640 320.045,640 143.312,640 0,496.74 0,320.002 0,143.258 143.27,0 320.002,0 496.748,0 639.994,143.258 639.994,320.002 Z"
     id="path2" />
  <path
     fill="#041e42"
     d="m 320.001,21.477 c -164.873,0 -298.507,133.666 -298.507,298.525 0,164.851 133.678,298.522 298.551,298.522 164.873,0 298.46,-133.67 298.46,-298.522 0,-164.86 -133.631,-298.525 -298.504,-298.525 z m 135.115,355.976 -13.254,-6.604 -84.073,5.624 v 12.42 l 38.18,54.924 v 33.314 l -52.662,-25.965 -4.333,-10.935 -18.977,42.006 -18.39,-42.014 -4.347,10.943 -52.654,25.965 v -33.306 l 38.188,-54.931 v -12.421 l -84.074,-5.624 -13.26,6.604 v -76.958 l -0.162,-21.645 18.298,44.02 83.403,-39.797 4.497,-51.088 28.54,-132.744 29.05,132.744 4.496,51.088 83.395,39.798 17.808,-44.582 0.33,22.206 z"
     id="path3" />
  <path
     fill="#ffffff"
     d="m 348.884,101.817 -28.868,-72.752 -30.614,72.756 c -107.727,14.533 -190.801,106.785 -190.801,218.5 0,121.796 99.611,220.547 221.415,220.547 121.806,0 219.666,-98.75 219.666,-220.546 0,-111.717 -83.066,-203.974 -190.798,-218.505 z m 106.232,275.636 -13.254,-6.604 -84.073,5.624 v 12.42 l 38.18,54.924 v 33.314 l -52.662,-25.965 -4.333,-10.935 -18.977,42.006 -18.39,-42.014 -4.347,10.943 -52.654,25.965 v -33.306 l 38.188,-54.931 v -12.421 l -84.074,-5.624 -13.26,6.604 v -76.958 l -0.162,-21.645 18.298,44.02 83.403,-39.797 4.497,-51.088 28.54,-132.744 29.05,132.744 4.496,51.088 83.395,39.798 17.808,-44.582 0.33,22.206 z"
     id="path4" />
  <path
     fill="#782f40"
     d="m 185.283,278.851 18.302,44.02 83.402,-39.8 4.5,-51.086 6.194,-28.61 -42.022,-27.552 16.913,100.154 -44.723,-44.622 -1.227,35.21 -65.442,-24.693 24.269,64.262 v -5.64 z m 97.498,97.622 -59.33,-3.97 23.996,20.936 -14.105,17.561 30.608,4.979 18.831,-27.086 z m 37.242,105.564 -18.43,-41.814 -0.35,0.885 18.784,91.215 19.011,-91.892 -0.078,-0.2 z m 37.753,-93.143 18.84,27.106 30.98,-4.987 -14.114,-17.575 24.027,-20.962 -59.734,3.996 z m -4.205,-105.821 83.396,39.798 17.807,-44.582 0.329,22.203 v 6.67 l 24.672,-65.3 -65.466,24.703 -1.235,-35.21 -44.719,44.629 c 1.146,-6.954 16.913,-100.162 16.913,-100.162 l -42.346,27.81 6.155,28.352 4.494,51.09 z m 137.583,25.155 -36.05,-0.17 v 31.622 z m -341.381,0 35.674,31.121 v -31.291 z"
     id="path5" />
  <path
     fill="#a6192e"
     d="m 282.713,376.473 -54.395,-3.637 22.99,20.065 c -0.364,1.017 -12.47,15.99 -12.47,15.99 l 26.928,4.382 16.947,-24.379 z m 14.236,-170.033 -37.238,-24.452 0.074,0.443 29.622,72.384 2.009,-22.829 z m -24.4,73.667 c -0.035,-0.028 -0.07,-0.047 -0.106,-0.076 l -41.87,-41.762 -1.223,32.421 -62.601,-23.547 61.121,64.106 51.394,-24.524 z m 33.915,171.219 13.593,68.66 -0.066,-37.722 z M 157.631,311.15 l 27.75,24.214 V 311.02 Z m 223.311,-128.939 -37.386,24.662 4.193,19.317 z m 93.707,64.865 -62.515,23.652 -18.28,31.602 12.502,5.967 z"
     id="path6" />
  <path
     fill="#53565a"
     d="m 454.785,278.289 -17.808,44.58 -83.395,-39.797 -4.495,-51.088 -29.05,-132.744 -28.542,132.744 -4.497,51.088 -83.403,39.798 -18.298,-44.021 0.162,21.645 v 76.958 l 13.26,-6.604 84.074,5.624 v 12.42 l -38.188,54.932 v 33.306 l 52.654,-25.965 4.346,-10.943 18.391,42.014 18.977,-42.006 4.333,10.935 52.661,25.965 v -33.314 l -38.179,-54.923 v -12.422 l 84.073,-5.623 13.254,6.604 v -76.958 l -0.33,-22.206 z m -134.783,189.61 -18.2,-41.34 -6.187,-14.344 3.664,18.26 -6.553,16.506 -42.36,20.894 v -22.248 l 38.18,-54.923 v -19.608 l -91.006,-6.09 -6.317,3.146 V 308.12 l 9.384,22.555 83.771,-39.971 5.468,26.782 2.574,-30.62 0.028,-0.006 4.751,-54.077 22.817,-110.276 -0.014,345.393 z"
     id="path7" />
</svg>
