<?xml version="1.0" encoding="UTF-8" standalone="no"?>
<svg
   width="837.76978"
   height="640"
   viewBox="0 0 837.76978 639.99999"
   fill="none"
   version="1.1"
   id="svg12"
   sodipodi:docname="WSH.svg"
   inkscape:version="1.4 (86a8ad7, 2024-10-11)"
   xmlns:inkscape="http://www.inkscape.org/namespaces/inkscape"
   xmlns:sodipodi="http://sodipodi.sourceforge.net/DTD/sodipodi-0.dtd"
   xmlns="http://www.w3.org/2000/svg"
   xmlns:svg="http://www.w3.org/2000/svg">
  <sodipodi:namedview
     id="namedview12"
     pagecolor="#f7ff86"
     bordercolor="#000000"
     borderopacity="0.25"
     inkscape:showpageshadow="2"
     inkscape:pageopacity="0.0"
     inkscape:pagecheckerboard="0"
     inkscape:deskcolor="#d1d1d1"
     inkscape:zoom="0.91796875"
     inkscape:cx="1317.0383"
     inkscape:cy="499.47234"
     inkscape:window-width="3440"
     inkscape:window-height="1377"
     inkscape:window-x="-8"
     inkscape:window-y="-8"
     inkscape:window-maximized="1"
     inkscape:current-layer="svg12" />
  <defs
     id="defs12">
    <clipPath
       id="clip0_873_2825">
      <rect
         width="960"
         height="640"
         fill="#ffffff"
         id="rect12"
         x="0"
         y="0" />
    </clipPath>
  </defs>
  <g
     clip-path="url(#clip0_873_2825)"
     id="g34"
     transform="translate(-63.394362)"
     style="fill:#ffffff">
    <path
       id="path25"
       sodipodi:type="inkscape:offset"
       inkscape:radius="16.893888"
       inkscape:original="M 102.78516 0 C 56.346956 80.8448 95.15625 150.63086 95.15625 150.63086 C 70.22185 239.05386 128.89648 308.07031 128.89648 308.07031 C 115.12348 420.25031 257.25567 490.95716 296.01367 522.03516 C 338.76567 556.33916 386.33008 640.05078 386.33008 640.05078 C 386.33008 640.05078 388.83948 609.68981 407.27148 600.88281 C 407.27148 600.88281 416.53902 527.20516 468.91602 513.53516 C 468.91602 513.53516 468.65908 503.19364 478.08008 498.43164 L 482.2793 427.98047 L 486.47852 498.43164 C 495.89952 503.19364 495.64258 513.53516 495.64258 513.53516 C 548.01958 527.20516 557.28711 600.88281 557.28711 600.88281 C 575.71911 609.68981 578.22852 640.05078 578.22852 640.05078 C 578.22852 640.05078 625.79292 556.33916 668.54492 522.03516 C 707.30392 490.95716 849.43511 420.25031 835.66211 308.07031 C 835.66211 308.07031 894.33634 239.05386 869.40234 150.63086 C 869.40234 150.63086 908.21144 80.8448 861.77344 0 C 827.77644 167.117 617.0388 169.57459 577.7168 275.55859 L 577.81836 275.55859 L 553.14062 342.06641 L 538.18945 306.43164 C 538.18945 306.43164 543.97637 311.04058 546.48438 315.39258 C 546.48438 315.39258 564.71289 293.52944 564.71289 270.89844 C 564.71289 245.81044 546.43281 235.51913 533.63281 232.70312 C 527.64281 226.50813 513.40981 216.98633 482.38281 216.98633 C 451.35581 216.98633 433.12758 227.63448 427.39258 250.52148 L 407.27148 330.49609 L 386.89453 275.50781 C 347.57253 169.57481 136.78216 167.117 102.78516 0 z M 101.55664 30.259766 C 146.25464 170.65057 342.50402 185.80414 377.16602 279.24414 L 409.32031 366.0293 L 437.68359 253.18359 C 441.57559 237.77259 452.12337 227.58398 482.48438 227.58398 C 519.65638 227.58398 528.10352 242.5332 528.10352 242.5332 C 528.10352 242.5332 554.31836 244.73595 554.31836 271.00195 C 554.31836 285.74695 543.41211 301.56836 543.41211 301.56836 C 531.32911 287.74436 522.0625 294.91211 522.0625 294.91211 L 553.9082 370.6875 L 587.80273 279.24414 C 622.46473 185.80414 818.71511 170.65057 863.41211 30.259766 C 910.68223 141.69616 788.25628 240.18238 783.85352 243.67773 C 853.40018 196.70253 861.26172 161.89453 861.26172 161.89453 C 879.89872 242.07453 825.01172 304.58984 825.01172 304.58984 C 838.73372 416.00084 700.90375 482.71475 662.09375 513.84375 C 623.28375 544.97375 581.60742 614.29883 581.60742 614.29883 C 578.12542 602.67583 570.90641 596.8892 567.06641 594.5332 C 562.56041 564.9912 542.28638 517.78583 504.85938 505.54883 C 504.14238 502.01583 501.99138 496.6917 496.35938 492.5957 L 482.43359 397.875 L 468.50781 492.5957 C 462.87581 496.6917 460.72381 502.01583 460.00781 505.54883 C 422.57981 517.78583 402.30578 565.0422 397.80078 594.5332 C 393.96078 596.8892 386.74077 602.67583 383.25977 614.29883 C 383.25977 614.29883 341.58148 545.02475 302.77148 513.84375 C 263.96248 482.71475 126.13152 416.00084 139.85352 304.58984 C 139.85352 304.58984 84.967116 242.07453 103.60352 161.89453 C 103.60352 161.89453 111.48845 197.01817 181.93945 244.32617 C 181.93945 244.32617 53.429041 143.66757 101.55664 30.259766 z M 783.85352 243.67773 C 783.52906 243.89689 783.25293 244.10649 782.92578 244.32617 L 783.08008 244.32617 C 783.08008 244.32617 783.77361 243.74117 783.85352 243.67773 z "
       d="M 105.48242,-16.673828 A 16.895578,16.895578 0 0 0 88.136719,-8.4140625 C 45.712813,65.442199 68.859181,132.4852 77.458984,152.3457 c -19.288389,79.12421 20.627618,142.33396 34.087896,160.71875 -9.08244,122.72642 141.72466,196.35194 173.89843,222.15039 18.5287,14.86891 40.99121,43.617 57.81055,68.22461 16.82056,24.60942 28.38672,44.95703 28.38672,44.95703 a 16.895578,16.895578 0 0 0 31.52344,-6.95507 c 0,0 0.51779,-5.71311 2.73046,-12.27344 2.21268,-6.56033 5.98698,-11.76468 8.65821,-13.04102 a 16.895578,16.895578 0 0 0 9.47851,-13.13672 c 0,0 2.11135,-16.2029 9.88086,-33.8457 7.76951,-17.6428 20.01939,-34.24004 39.26758,-39.26367 a 16.895578,16.895578 0 0 0 9.13086,-6.07422 16.895578,16.895578 0 0 0 9.06445,6.07422 c 19.2482,5.02363 31.49807,21.62087 39.26758,39.26367 7.76951,17.6428 9.88086,33.8457 9.88086,33.8457 a 16.895578,16.895578 0 0 0 9.47852,13.13672 c 2.67123,1.27634 6.44552,6.48069 8.6582,13.04102 2.21268,6.56033 2.73047,12.27344 2.73047,12.27344 a 16.895578,16.895578 0 0 0 31.52344,6.95507 c 0,0 11.56615,-20.34761 28.38671,-44.95703 16.81934,-24.60761 39.28186,-53.3557 57.81055,-68.22461 l 0.004,-0.004 c 32.18306,-25.8017 182.97839,-99.42554 173.89453,-222.14844 13.46079,-18.38586 53.37565,-81.59382 34.08789,-160.7168 8.59976,-19.86049 31.74598,-86.903509 -10.67774,-160.7597625 a 16.895578,16.895578 0 0 0 -31.20312,5.046875 C 829.57638,73.525064 774.34892,111.76797 713.4668,145.97656 c -30.44106,17.1043 -61.86777,32.65605 -89.12696,51.39258 -19.18609,13.18751 -36.48919,28.31107 -49.13867,46.90625 -2.58906,-4.98308 -5.79276,-9.34472 -9.39062,-12.87891 -7.49585,-7.36319 -15.9496,-11.48741 -23.74219,-13.8457 -10.3821,-8.66219 -29.22871,-17.45898 -59.68555,-17.45898 -17.4461,0 -32.87357,2.86977 -45.70898,10.61523 -12.83541,7.74546 -21.92488,20.7712 -25.66797,35.70899 l -6.82422,27.12304 -1.44531,-3.90234 a 16.895578,16.895578 0 0 0 -0.004,-0.008 C 391.19573,238.54921 367.52361,216.0743 340.25977,197.3457 312.99592,178.61711 281.56248,163.06976 251.11523,145.96875 190.22075,111.76673 134.98187,73.523393 119.33984,-3.3671875 A 16.895578,16.895578 0 0 0 105.48242,-16.673828 Z m 751.96485,98.457031 c 0.38706,31.982837 -12.40774,61.449867 -28.61719,86.480467 -23.33405,36.03239 -53.28682,60.41644 -55.2461,61.98242 0.007,-0.004 -0.0891,0.0633 -0.0762,0.0547 a 16.895578,16.895578 0 0 0 -0.0273,0.0352 c -0.009,0.008 -0.12313,0.10519 -0.13086,0.11133 a 16.895578,16.895578 0 0 0 -0.2832,0.42187 16.895578,16.895578 0 0 0 9.85937,30.35156 h 0.1543 a 16.895578,16.895578 0 0 0 10.04492,-3.48828 16.895578,16.895578 0 0 0 0.18359,-0.0547 c 0.15043,-0.1016 0.27784,-0.19926 0.42774,-0.30078 a 16.895578,16.895578 0 0 0 0.23633,-0.13672 c 0,0 0.11783,-0.10034 0.20507,-0.17382 23.82868,-16.18095 40.54347,-31.01793 52.81446,-44.03907 -6.12138,47.33871 -34.67578,80.41602 -34.67578,80.41602 a 16.895578,16.895578 0 0 0 -4.07227,13.21094 c 11.9442,96.97674 -111.87191,158.03908 -156.7207,194.01172 -27.67252,22.19648 -54.02489,58.19463 -69.71289,81.72656 -3.37525,-15.031 -9.45986,-31.75239 -19.05274,-47.5918 -10.36824,-17.11967 -24.99031,-33.35721 -44.91601,-42.26953 -1.42494,-2.7689 -3.19193,-5.55646 -5.62696,-8.24023 l -13.0664,-88.87305 a 16.895578,16.895578 0 0 0 -33.42969,0 l -13.06641,88.87305 c -2.43591,2.68433 -4.20355,5.47202 -5.6289,8.24218 -19.92994,8.9165 -34.55122,25.16545 -44.91797,42.28907 -9.59339,15.84618 -15.67627,32.56766 -19.05078,47.58593 -15.6891,-23.51988 -42.04325,-59.51168 -69.70313,-81.73437 a 16.895578,16.895578 0 0 0 -0.01,-0.008 C 268.49353,464.69287 144.67691,403.63094 156.62109,306.6543 a 16.895578,16.895578 0 0 0 -4.07226,-13.21094 c 0,0 -28.44734,-32.94451 -34.64453,-80.13477 12.56751,13.27366 30.03774,28.53782 54.61718,45.04297 a 16.895578,16.895578 0 0 0 19.83594,-27.32422 c 0,0 -30.1656,-23.76228 -54.58203,-60.54882 -16.90996,-25.47707 -30.47691,-55.74242 -30.17773,-88.574223 31.37271,48.410193 80.99035,79.285793 127.27539,105.195313 59.6378,33.38416 112.63445,60.76787 126.45312,98.01953 l 32.15235,86.7793 a 16.895578,16.895578 0 0 0 32.22656,-1.75196 L 454.0625,257.32031 c 9.6e-4,-0.004 0.003,-0.004 0.004,-0.008 l 0.002,-0.0117 c 1.27203,-5.02839 2.26965,-6.57384 5.26367,-8.50976 2.9993,-1.93934 9.8616,-4.3125 23.15234,-4.3125 16.3213,0 24.68561,3.21289 28.57422,5.36328 1.94431,1.07519 2.81469,1.91077 3.07618,2.17773 0.26148,0.26696 -0.74024,-1.17578 -0.74024,-1.17578 a 16.895578,16.895578 0 0 0 13.29492,8.52344 c 0,0 3.06493,0.4215 5.99024,2.13281 2.9253,1.71131 4.74414,1.98928 4.74414,9.50195 0,1.69525 -0.57845,3.96456 -1.39258,6.37891 -2.78418,-0.77386 -5.52564,-1.25993 -8.10742,-1.2168 -8.98448,0.1501 -16.19727,5.38477 -16.19727,5.38477 a 16.895578,16.895578 0 0 0 -5.23828,19.9082 l 31.8457,75.77539 a 16.895578,16.895578 0 0 0 31.41407,-0.67383 l 33.89453,-91.44336 v 0.004 c 13.81866,-37.25161 66.81518,-64.63537 126.45312,-98.01953 46.32336,-25.93092 95.98348,-56.83707 127.35157,-105.316407 z"
       style="fill:#ffffff" />
    <path
       d="m 540.186,287.283 c 0,0 2.509,-9.114 2.509,-15.207 0,-20.173 -22.477,-18.534 -22.477,-18.534 0,-5.223 -8.704,-14.183 -37.888,-14.183 -29.184,0 -32.102,10.138 -33.484,15.668 l -39.271,156.364 69.274,-101.888 77.619,101.888 -49.306,-122.265 c 0,0 20.583,-16.077 33.076,-1.843 z m -50.892,-29.184 -16.487,-3.636 c 0,0 15.309,-3.225 33.024,5.018 -11.11,9.523 -16.537,-1.382 -16.537,-1.382 z"
       fill="#ffffff"
       id="path26"
       style="fill:#ffffff" />
    <path
       d="M 210.408,248.525 164.942,136.961 c -30.259,-20.583 -53.708,-42.3939 -63.283,-66.3555 2.458,80.2815 53.863,135.4755 108.8,177.9195 z"
       fill="#c8102e"
       id="path27"
       style="fill:#ffffff" />
    <path
       d="m 200.885,248.372 11.878,29.133 c -46.387,-26.829 -88.934,-55.296 -102.041,-87.962 3.174,103.117 94.412,161.843 158.924,206.285 l -38.912,-95.437 c 68.916,38.81 138.394,75.725 164.711,115.098 -39.987,-66.304 -96.512,-97.434 -194.611,-167.066 z"
       fill="#c8102e"
       id="path28"
       style="fill:#ffffff" />
    <path
       d="m 149.326,319.795 c 3.226,102.656 126.925,147.866 165.171,186.061 l -27.033,-66.458 c 32.358,19.098 61.849,38.042 82.944,57.344 C 294.837,392.294 177.281,381.133 149.326,319.795 Z"
       fill="#c8102e"
       id="path29"
       style="fill:#ffffff" />
    <path
       d="m 799.771,136.908 -45.465,111.565 c 54.937,-42.445 106.342,-97.69 108.8,-177.9203 -9.575,23.9616 -33.076,45.7213 -63.335,66.3553 z"
       fill="#c8102e"
       id="path30"
       style="fill:#ffffff" />
    <path
       d="m 733.928,300.391 -38.912,95.437 C 759.528,351.335 850.766,292.66 853.94,189.543 840.833,222.26 798.286,250.676 751.899,277.505 l 11.878,-29.133 C 665.678,318.004 609.204,349.133 569.166,415.437 595.534,376.065 664.961,339.201 733.928,300.34 Z"
       fill="#c8102e"
       id="path31"
       style="fill:#ffffff" />
    <path
       d="M 815.335,319.795 C 787.38,381.133 669.876,392.294 594.254,496.742 615.4,477.44 644.839,458.496 677.198,439.398 l -27.034,66.458 C 688.411,467.609 812.11,422.451 815.335,319.795 Z"
       fill="#c8102e"
       id="path32"
       style="fill:#ffffff" />
    <path
       d="m 472.808,254.514 16.486,3.635 c 0,0 5.427,10.906 16.538,1.383 -17.664,-8.243 -33.024,-5.018 -33.024,-5.018 z"
       fill="#041e42"
       id="path33"
       style="fill:#ffffff" />
    <path
       d="m 587.649,279.193 -33.894,91.443 -31.847,-75.776 c 0,0 9.267,-7.168 21.351,6.656 0,0 10.905,-15.872 10.905,-30.567 0,-26.214 -26.214,-28.467 -26.214,-28.467 0,0 -8.448,-14.95 -45.619,-14.95 -30.362,0 -40.909,10.189 -44.8,25.6 L 409.166,365.977 377.012,279.193 C 342.35,185.753 146.1,170.597 101.403,30.207 c -48.1284,113.459 80.384,214.067 80.384,214.067 -70.503,-47.309 -78.388,-82.432 -78.388,-82.432 -18.6364,80.179 36.25,142.695 36.25,142.695 -13.722,111.411 124.109,178.124 162.918,209.254 38.81,31.13 80.487,100.454 80.487,100.454 3.481,-11.622 10.701,-17.408 14.541,-19.763 4.505,-29.542 24.78,-76.749 62.208,-88.985 0.716,-3.533 2.867,-8.858 8.499,-12.954 l 13.926,-94.72 13.927,94.72 c 5.632,4.096 7.833,9.421 8.499,12.954 37.427,12.236 57.702,59.494 62.208,88.985 3.84,2.355 11.059,8.141 14.541,19.763 0,0 41.676,-69.273 80.486,-100.454 38.81,-31.13 176.64,-97.843 162.918,-209.254 0,0 54.887,-62.516 36.25,-142.695 0,0 -7.885,35.123 -78.336,82.432 0,0 128.512,-100.659 80.333,-214.067 -44.698,140.39 -240.947,155.546 -275.61,248.986 z M 101.607,70.5526 c 9.575,23.9616 33.076,45.7214 63.284,66.3554 l 45.465,111.565 C 155.47,206.028 104.065,150.834 101.607,70.5526 Z m 185.805,368.8444 27.034,66.458 C 276.199,467.609 152.551,422.45 149.275,319.794 c 27.955,61.338 145.459,72.499 221.081,176.947 -21.094,-19.302 -50.585,-38.246 -82.944,-57.344 z m -56.678,-139.059 38.912,95.437 C 205.134,351.282 113.895,292.607 110.721,189.49 c 13.107,32.717 55.654,61.133 102.042,87.962 L 200.884,248.319 C 298.983,317.951 355.457,349.081 395.495,415.385 369.127,376.012 299.7,339.148 230.785,300.287 Z m 248.064,9.165 -69.274,101.888 39.271,-156.365 c 1.382,-5.529 5.017,-15.667 33.484,-15.667 28.468,0 37.888,8.96 37.888,14.182 0,0 22.477,-1.638 22.477,18.535 0,6.144 -2.509,15.206 -2.509,15.206 -12.441,-14.233 -33.075,1.843 -33.075,1.843 l 49.306,122.266 -77.619,-101.888 z m 171.366,196.352 27.034,-66.458 c -32.359,19.098 -61.85,38.042 -82.944,57.344 C 669.876,392.293 787.38,381.132 815.335,319.794 812.11,422.45 688.411,467.66 650.164,505.855 Z M 853.889,189.49 c -3.174,103.117 -94.413,161.843 -158.925,206.285 l 38.912,-95.437 c -68.966,38.81 -138.393,75.725 -164.761,115.098 40.038,-66.304 96.512,-97.434 194.611,-167.066 l -11.879,29.133 c 46.388,-26.829 88.935,-55.296 102.042,-87.962 z m -99.686,58.983 45.465,-111.565 c 30.259,-20.583 53.76,-42.3938 63.335,-66.3554 -2.458,80.2814 -53.863,135.4754 -108.8,177.9204 z"
       fill="#041e42"
       id="path34"
       style="fill:#ffffff" />
  </g>
  <g
     clip-path="url(#clip0_873_2825)"
     id="g24"
     transform="translate(-63.394362)">
    <path
       id="path13"
       sodipodi:type="inkscape:offset"
       inkscape:radius="16.893888"
       inkscape:original="M 102.78516 0 C 56.346956 80.8448 95.15625 150.63086 95.15625 150.63086 C 70.22185 239.05386 128.89648 308.07031 128.89648 308.07031 C 115.12348 420.25031 257.25567 490.95716 296.01367 522.03516 C 338.76567 556.33916 386.33008 640.05078 386.33008 640.05078 C 386.33008 640.05078 388.83948 609.68981 407.27148 600.88281 C 407.27148 600.88281 416.53902 527.20516 468.91602 513.53516 C 468.91602 513.53516 468.65908 503.19364 478.08008 498.43164 L 482.2793 427.98047 L 486.47852 498.43164 C 495.89952 503.19364 495.64258 513.53516 495.64258 513.53516 C 548.01958 527.20516 557.28711 600.88281 557.28711 600.88281 C 575.71911 609.68981 578.22852 640.05078 578.22852 640.05078 C 578.22852 640.05078 625.79292 556.33916 668.54492 522.03516 C 707.30392 490.95716 849.43511 420.25031 835.66211 308.07031 C 835.66211 308.07031 894.33634 239.05386 869.40234 150.63086 C 869.40234 150.63086 908.21144 80.8448 861.77344 0 C 827.77644 167.117 617.0388 169.57459 577.7168 275.55859 L 577.81836 275.55859 L 553.14062 342.06641 L 538.18945 306.43164 C 538.18945 306.43164 543.97637 311.04058 546.48438 315.39258 C 546.48438 315.39258 564.71289 293.52944 564.71289 270.89844 C 564.71289 245.81044 546.43281 235.51913 533.63281 232.70312 C 527.64281 226.50813 513.40981 216.98633 482.38281 216.98633 C 451.35581 216.98633 433.12758 227.63448 427.39258 250.52148 L 407.27148 330.49609 L 386.89453 275.50781 C 347.57253 169.57481 136.78216 167.117 102.78516 0 z M 101.55664 30.259766 C 146.25464 170.65057 342.50402 185.80414 377.16602 279.24414 L 409.32031 366.0293 L 437.68359 253.18359 C 441.57559 237.77259 452.12337 227.58398 482.48438 227.58398 C 519.65638 227.58398 528.10352 242.5332 528.10352 242.5332 C 528.10352 242.5332 554.31836 244.73595 554.31836 271.00195 C 554.31836 285.74695 543.41211 301.56836 543.41211 301.56836 C 531.32911 287.74436 522.0625 294.91211 522.0625 294.91211 L 553.9082 370.6875 L 587.80273 279.24414 C 622.46473 185.80414 818.71511 170.65057 863.41211 30.259766 C 910.68223 141.69616 788.25628 240.18238 783.85352 243.67773 C 853.40018 196.70253 861.26172 161.89453 861.26172 161.89453 C 879.89872 242.07453 825.01172 304.58984 825.01172 304.58984 C 838.73372 416.00084 700.90375 482.71475 662.09375 513.84375 C 623.28375 544.97375 581.60742 614.29883 581.60742 614.29883 C 578.12542 602.67583 570.90641 596.8892 567.06641 594.5332 C 562.56041 564.9912 542.28638 517.78583 504.85938 505.54883 C 504.14238 502.01583 501.99138 496.6917 496.35938 492.5957 L 482.43359 397.875 L 468.50781 492.5957 C 462.87581 496.6917 460.72381 502.01583 460.00781 505.54883 C 422.57981 517.78583 402.30578 565.0422 397.80078 594.5332 C 393.96078 596.8892 386.74077 602.67583 383.25977 614.29883 C 383.25977 614.29883 341.58148 545.02475 302.77148 513.84375 C 263.96248 482.71475 126.13152 416.00084 139.85352 304.58984 C 139.85352 304.58984 84.967116 242.07453 103.60352 161.89453 C 103.60352 161.89453 111.48845 197.01817 181.93945 244.32617 C 181.93945 244.32617 53.429041 143.66757 101.55664 30.259766 z M 783.85352 243.67773 C 783.52906 243.89689 783.25293 244.10649 782.92578 244.32617 L 783.08008 244.32617 C 783.08008 244.32617 783.77361 243.74117 783.85352 243.67773 z "
       d="M 105.48242,-16.673828 A 16.895578,16.895578 0 0 0 88.136719,-8.4140625 C 45.712813,65.442199 68.859181,132.4852 77.458984,152.3457 c -19.288389,79.12421 20.627618,142.33396 34.087896,160.71875 -9.08244,122.72642 141.72466,196.35194 173.89843,222.15039 18.5287,14.86891 40.99121,43.617 57.81055,68.22461 16.82056,24.60942 28.38672,44.95703 28.38672,44.95703 a 16.895578,16.895578 0 0 0 31.52344,-6.95507 c 0,0 0.51779,-5.71311 2.73046,-12.27344 2.21268,-6.56033 5.98698,-11.76468 8.65821,-13.04102 a 16.895578,16.895578 0 0 0 9.47851,-13.13672 c 0,0 2.11135,-16.2029 9.88086,-33.8457 7.76951,-17.6428 20.01939,-34.24004 39.26758,-39.26367 a 16.895578,16.895578 0 0 0 9.13086,-6.07422 16.895578,16.895578 0 0 0 9.06445,6.07422 c 19.2482,5.02363 31.49807,21.62087 39.26758,39.26367 7.76951,17.6428 9.88086,33.8457 9.88086,33.8457 a 16.895578,16.895578 0 0 0 9.47852,13.13672 c 2.67123,1.27634 6.44552,6.48069 8.6582,13.04102 2.21268,6.56033 2.73047,12.27344 2.73047,12.27344 a 16.895578,16.895578 0 0 0 31.52344,6.95507 c 0,0 11.56615,-20.34761 28.38671,-44.95703 16.81934,-24.60761 39.28186,-53.3557 57.81055,-68.22461 l 0.004,-0.004 c 32.18306,-25.8017 182.97839,-99.42554 173.89453,-222.14844 13.46079,-18.38586 53.37565,-81.59382 34.08789,-160.7168 8.59976,-19.86049 31.74598,-86.903509 -10.67774,-160.7597625 a 16.895578,16.895578 0 0 0 -31.20312,5.046875 C 829.57638,73.525064 774.34892,111.76797 713.4668,145.97656 c -30.44106,17.1043 -61.86777,32.65605 -89.12696,51.39258 -19.18609,13.18751 -36.48919,28.31107 -49.13867,46.90625 -2.58906,-4.98308 -5.79276,-9.34472 -9.39062,-12.87891 -7.49585,-7.36319 -15.9496,-11.48741 -23.74219,-13.8457 -10.3821,-8.66219 -29.22871,-17.45898 -59.68555,-17.45898 -17.4461,0 -32.87357,2.86977 -45.70898,10.61523 -12.83541,7.74546 -21.92488,20.7712 -25.66797,35.70899 l -6.82422,27.12304 -1.44531,-3.90234 a 16.895578,16.895578 0 0 0 -0.004,-0.008 C 391.19573,238.54921 367.52361,216.0743 340.25977,197.3457 312.99592,178.61711 281.56248,163.06976 251.11523,145.96875 190.22075,111.76673 134.98187,73.523393 119.33984,-3.3671875 A 16.895578,16.895578 0 0 0 105.48242,-16.673828 Z m 751.96485,98.457031 c 0.38706,31.982837 -12.40774,61.449867 -28.61719,86.480467 -23.33405,36.03239 -53.28682,60.41644 -55.2461,61.98242 0.007,-0.004 -0.0891,0.0633 -0.0762,0.0547 a 16.895578,16.895578 0 0 0 -0.0273,0.0352 c -0.009,0.008 -0.12313,0.10519 -0.13086,0.11133 a 16.895578,16.895578 0 0 0 -0.2832,0.42187 16.895578,16.895578 0 0 0 9.85937,30.35156 h 0.1543 a 16.895578,16.895578 0 0 0 10.04492,-3.48828 16.895578,16.895578 0 0 0 0.18359,-0.0547 c 0.15043,-0.1016 0.27784,-0.19926 0.42774,-0.30078 a 16.895578,16.895578 0 0 0 0.23633,-0.13672 c 0,0 0.11783,-0.10034 0.20507,-0.17382 23.82868,-16.18095 40.54347,-31.01793 52.81446,-44.03907 -6.12138,47.33871 -34.67578,80.41602 -34.67578,80.41602 a 16.895578,16.895578 0 0 0 -4.07227,13.21094 c 11.9442,96.97674 -111.87191,158.03908 -156.7207,194.01172 -27.67252,22.19648 -54.02489,58.19463 -69.71289,81.72656 -3.37525,-15.031 -9.45986,-31.75239 -19.05274,-47.5918 -10.36824,-17.11967 -24.99031,-33.35721 -44.91601,-42.26953 -1.42494,-2.7689 -3.19193,-5.55646 -5.62696,-8.24023 l -13.0664,-88.87305 a 16.895578,16.895578 0 0 0 -33.42969,0 l -13.06641,88.87305 c -2.43591,2.68433 -4.20355,5.47202 -5.6289,8.24218 -19.92994,8.9165 -34.55122,25.16545 -44.91797,42.28907 -9.59339,15.84618 -15.67627,32.56766 -19.05078,47.58593 -15.6891,-23.51988 -42.04325,-59.51168 -69.70313,-81.73437 a 16.895578,16.895578 0 0 0 -0.01,-0.008 C 268.49353,464.69287 144.67691,403.63094 156.62109,306.6543 a 16.895578,16.895578 0 0 0 -4.07226,-13.21094 c 0,0 -28.44734,-32.94451 -34.64453,-80.13477 12.56751,13.27366 30.03774,28.53782 54.61718,45.04297 a 16.895578,16.895578 0 0 0 19.83594,-27.32422 c 0,0 -30.1656,-23.76228 -54.58203,-60.54882 -16.90996,-25.47707 -30.47691,-55.74242 -30.17773,-88.574223 31.37271,48.410193 80.99035,79.285793 127.27539,105.195313 59.6378,33.38416 112.63445,60.76787 126.45312,98.01953 l 32.15235,86.7793 a 16.895578,16.895578 0 0 0 32.22656,-1.75196 L 454.0625,257.32031 c 9.6e-4,-0.004 0.003,-0.004 0.004,-0.008 l 0.002,-0.0117 c 1.27203,-5.02839 2.26965,-6.57384 5.26367,-8.50976 2.9993,-1.93934 9.8616,-4.3125 23.15234,-4.3125 16.3213,0 24.68561,3.21289 28.57422,5.36328 1.94431,1.07519 2.81469,1.91077 3.07618,2.17773 0.26148,0.26696 -0.74024,-1.17578 -0.74024,-1.17578 a 16.895578,16.895578 0 0 0 13.29492,8.52344 c 0,0 3.06493,0.4215 5.99024,2.13281 2.9253,1.71131 4.74414,1.98928 4.74414,9.50195 0,1.69525 -0.57845,3.96456 -1.39258,6.37891 -2.78418,-0.77386 -5.52564,-1.25993 -8.10742,-1.2168 -8.98448,0.1501 -16.19727,5.38477 -16.19727,5.38477 a 16.895578,16.895578 0 0 0 -5.23828,19.9082 l 31.8457,75.77539 a 16.895578,16.895578 0 0 0 31.41407,-0.67383 l 33.89453,-91.44336 v 0.004 c 13.81866,-37.25161 66.81518,-64.63537 126.45312,-98.01953 46.32336,-25.93092 95.98348,-56.83707 127.35157,-105.316407 z" />
    <path
       d="m 540.186,287.283 c 0,0 2.509,-9.114 2.509,-15.207 0,-20.173 -22.477,-18.534 -22.477,-18.534 0,-5.223 -8.704,-14.183 -37.888,-14.183 -29.184,0 -32.102,10.138 -33.484,15.668 l -39.271,156.364 69.274,-101.888 77.619,101.888 -49.306,-122.265 c 0,0 20.583,-16.077 33.076,-1.843 z m -50.892,-29.184 -16.487,-3.636 c 0,0 15.309,-3.225 33.024,5.018 -11.11,9.523 -16.537,-1.382 -16.537,-1.382 z"
       fill="#ffffff"
       id="path14" />
    <path
       d="M 210.408,248.525 164.942,136.961 c -30.259,-20.583 -53.708,-42.3939 -63.283,-66.3555 2.458,80.2815 53.863,135.4755 108.8,177.9195 z"
       fill="#c8102e"
       id="path17" />
    <path
       d="m 200.885,248.372 11.878,29.133 c -46.387,-26.829 -88.934,-55.296 -102.041,-87.962 3.174,103.117 94.412,161.843 158.924,206.285 l -38.912,-95.437 c 68.916,38.81 138.394,75.725 164.711,115.098 -39.987,-66.304 -96.512,-97.434 -194.611,-167.066 z"
       fill="#c8102e"
       id="path18" />
    <path
       d="m 149.326,319.795 c 3.226,102.656 126.925,147.866 165.171,186.061 l -27.033,-66.458 c 32.358,19.098 61.849,38.042 82.944,57.344 C 294.837,392.294 177.281,381.133 149.326,319.795 Z"
       fill="#c8102e"
       id="path19" />
    <path
       d="m 799.771,136.908 -45.465,111.565 c 54.937,-42.445 106.342,-97.69 108.8,-177.9203 -9.575,23.9616 -33.076,45.7213 -63.335,66.3553 z"
       fill="#c8102e"
       id="path20" />
    <path
       d="m 733.928,300.391 -38.912,95.437 C 759.528,351.335 850.766,292.66 853.94,189.543 840.833,222.26 798.286,250.676 751.899,277.505 l 11.878,-29.133 C 665.678,318.004 609.204,349.133 569.166,415.437 595.534,376.065 664.961,339.201 733.928,300.34 Z"
       fill="#c8102e"
       id="path21" />
    <path
       d="M 815.335,319.795 C 787.38,381.133 669.876,392.294 594.254,496.742 615.4,477.44 644.839,458.496 677.198,439.398 l -27.034,66.458 C 688.411,467.609 812.11,422.451 815.335,319.795 Z"
       fill="#c8102e"
       id="path22" />
    <path
       d="m 472.808,254.514 16.486,3.635 c 0,0 5.427,10.906 16.538,1.383 -17.664,-8.243 -33.024,-5.018 -33.024,-5.018 z"
       fill="#041e42"
       id="path23" />
    <path
       d="m 587.649,279.193 -33.894,91.443 -31.847,-75.776 c 0,0 9.267,-7.168 21.351,6.656 0,0 10.905,-15.872 10.905,-30.567 0,-26.214 -26.214,-28.467 -26.214,-28.467 0,0 -8.448,-14.95 -45.619,-14.95 -30.362,0 -40.909,10.189 -44.8,25.6 L 409.166,365.977 377.012,279.193 C 342.35,185.753 146.1,170.597 101.403,30.207 c -48.1284,113.459 80.384,214.067 80.384,214.067 -70.503,-47.309 -78.388,-82.432 -78.388,-82.432 -18.6364,80.179 36.25,142.695 36.25,142.695 -13.722,111.411 124.109,178.124 162.918,209.254 38.81,31.13 80.487,100.454 80.487,100.454 3.481,-11.622 10.701,-17.408 14.541,-19.763 4.505,-29.542 24.78,-76.749 62.208,-88.985 0.716,-3.533 2.867,-8.858 8.499,-12.954 l 13.926,-94.72 13.927,94.72 c 5.632,4.096 7.833,9.421 8.499,12.954 37.427,12.236 57.702,59.494 62.208,88.985 3.84,2.355 11.059,8.141 14.541,19.763 0,0 41.676,-69.273 80.486,-100.454 38.81,-31.13 176.64,-97.843 162.918,-209.254 0,0 54.887,-62.516 36.25,-142.695 0,0 -7.885,35.123 -78.336,82.432 0,0 128.512,-100.659 80.333,-214.067 -44.698,140.39 -240.947,155.546 -275.61,248.986 z M 101.607,70.5526 c 9.575,23.9616 33.076,45.7214 63.284,66.3554 l 45.465,111.565 C 155.47,206.028 104.065,150.834 101.607,70.5526 Z m 185.805,368.8444 27.034,66.458 C 276.199,467.609 152.551,422.45 149.275,319.794 c 27.955,61.338 145.459,72.499 221.081,176.947 -21.094,-19.302 -50.585,-38.246 -82.944,-57.344 z m -56.678,-139.059 38.912,95.437 C 205.134,351.282 113.895,292.607 110.721,189.49 c 13.107,32.717 55.654,61.133 102.042,87.962 L 200.884,248.319 C 298.983,317.951 355.457,349.081 395.495,415.385 369.127,376.012 299.7,339.148 230.785,300.287 Z m 248.064,9.165 -69.274,101.888 39.271,-156.365 c 1.382,-5.529 5.017,-15.667 33.484,-15.667 28.468,0 37.888,8.96 37.888,14.182 0,0 22.477,-1.638 22.477,18.535 0,6.144 -2.509,15.206 -2.509,15.206 -12.441,-14.233 -33.075,1.843 -33.075,1.843 l 49.306,122.266 -77.619,-101.888 z m 171.366,196.352 27.034,-66.458 c -32.359,19.098 -61.85,38.042 -82.944,57.344 C 669.876,392.293 787.38,381.132 815.335,319.794 812.11,422.45 688.411,467.66 650.164,505.855 Z M 853.889,189.49 c -3.174,103.117 -94.413,161.843 -158.925,206.285 l 38.912,-95.437 c -68.966,38.81 -138.393,75.725 -164.761,115.098 40.038,-66.304 96.512,-97.434 194.611,-167.066 l -11.879,29.133 c 46.388,-26.829 88.935,-55.296 102.042,-87.962 z m -99.686,58.983 45.465,-111.565 c 30.259,-20.583 53.76,-42.3938 63.335,-66.3554 -2.458,80.2814 -53.863,135.4754 -108.8,177.9204 z"
       fill="#041e42"
       id="path24" />
  </g>
</svg>
