<?xml version="1.0" encoding="UTF-8" standalone="no"?>
<svg
   width="419.20377"
   height="394.263"
   viewBox="0 0 419.20377 394.263"
   version="1.1"
   id="svg7"
   sodipodi:docname="ARI.svg"
   inkscape:version="1.4 (86a8ad7, 2024-10-11)"
   xmlns:inkscape="http://www.inkscape.org/namespaces/inkscape"
   xmlns:sodipodi="http://sodipodi.sourceforge.net/DTD/sodipodi-0.dtd"
   xmlns="http://www.w3.org/2000/svg"
   xmlns:svg="http://www.w3.org/2000/svg">
  <defs
     id="defs7" />
  <sodipodi:namedview
     id="namedview7"
     pagecolor="#ffffff"
     bordercolor="#000000"
     borderopacity="0.25"
     inkscape:showpageshadow="2"
     inkscape:pageopacity="0.0"
     inkscape:pagecheckerboard="0"
     inkscape:deskcolor="#d1d1d1"
     inkscape:zoom="2.65"
     inkscape:cx="209.81132"
     inkscape:cy="196.41509"
     inkscape:window-width="2496"
     inkscape:window-height="1585"
     inkscape:window-x="-9"
     inkscape:window-y="-9"
     inkscape:window-maximized="1"
     inkscape:current-layer="svg7" />
  <path
     d="m -40.001,-53.482 h 500 v 500 h -500 z"
     id="path1"
     style="fill:none" />
  <path
     fill="#fffffe"
     d="m 418.506,319.72 c -31.199,-6.571 -93.096,-0.17 -128.401,74.543 0,0 -60.37,-72.09 -144.251,-84.756 3.292,-40.111 -49.832,-50.774 -59.996,-119.782 0,0 -41.27,-33.804 -61.905,-87.039 l 10.988,3.531 c 0,0 -16.045,-17.776 -28.382,-48.414 L 18.175,61.64 C 18.175,61.64 6.423,45.706 0,0 c 142.376,97.965 217.382,63.779 303.978,112.795 58.775,33.303 72.775,71.971 77.696,110.571 0,0 43.51,39.432 36.833,96.352"
     id="path2" />
  <path
     fill="#000000"
     d="m 412.566,311.375 c 0.933,-48.448 -37.104,-82.863 -37.104,-82.863 -4.107,-30.629 -15.23,-74.925 -74.505,-107.634 C 210.95,71.25 161.152,111.786 19.26,24.832 22.213,41.089 31.563,63.585 43.476,77.558 l -14.67,-4.813 c 10.665,22.488 27.745,42.887 36.688,49.509 l -16.444,-5.17 c 17.419,42.768 51.452,68.1 51.452,68.1 7.755,65.477 55.762,76.632 59.64,116.904 62.542,9.703 128.647,76.708 128.647,76.708 34.61,-59.526 82.872,-71.063 123.777,-67.421"
     id="path3" />
  <path
     fill="#fffffe"
     d="m 332.469,227.104 c -13.601,21.902 -36.595,15.798 -44.792,-11.511 l 16.579,1.01 c -14.535,-8.701 -27.737,-21.503 -37.944,-34.118 -3.004,60.332 53.743,87.413 72.512,45.043 -2.121,-0.017 -4.242,-0.161 -6.355,-0.424"
     id="path4" />
  <path
     fill="#97233f"
     d="M 293.431,129.088 C 228.225,93.332 148.535,116.55 46.709,53.433 c 10.088,30.162 73.114,65.485 73.114,65.485 L 64.052,100.777 c 14.204,24.661 72.342,55.561 72.342,55.561 L 84.382,139.521 c 21.543,35.799 70.416,59.959 70.416,59.959 l -30.036,-2.173 c 3.886,33.659 50.366,62.641 52.835,88.618 21.025,8.039 48.118,22.055 69.236,40.222 40.371,-19.856 29.239,-87.039 -47.736,-182.338 105.874,6.401 102.955,84.934 163.724,73.643 -4.455,-21.096 -7.331,-54.305 -69.389,-88.364"
     id="path5" />
  <path
     fill="#ffb612"
     d="m 404.964,298.879 c -14.823,-14.763 -45.962,-29.831 -83.83,-34.373 16.13,-4.482 34.491,-14.381 42.017,-29.78 16.053,10.162 38.411,39.228 41.813,64.152 z m -81.047,20.586 c 6.236,-21.257 -5.108,-40.553 -5.108,-40.553 33.184,-3.251 69.805,12.156 84.628,24.703 -23.172,-4.678 -54.897,2.02 -79.52,15.849 z"
     id="path6" />
  <path
     fill="#fffffe"
     d="m 332.469,227.104 c -13.601,21.902 -36.595,15.798 -44.792,-11.511 l 16.579,1.01 c -14.535,-8.701 -27.737,-21.503 -37.944,-34.118 -3.004,60.332 53.743,87.413 72.512,45.043 -2.121,-0.017 -4.242,-0.161 -6.355,-0.424"
     id="path7" />
</svg>
