<?xml version="1.0" encoding="UTF-8" standalone="no"?>
<svg
   width="459.93668"
   height="330.16855"
   viewBox="0 0 459.93668 330.16855"
   version="1.1"
   id="svg17"
   sodipodi:docname="LAR.svg"
   inkscape:version="1.4 (86a8ad7, 2024-10-11)"
   xmlns:inkscape="http://www.inkscape.org/namespaces/inkscape"
   xmlns:sodipodi="http://sodipodi.sourceforge.net/DTD/sodipodi-0.dtd"
   xmlns="http://www.w3.org/2000/svg"
   xmlns:svg="http://www.w3.org/2000/svg">
  <sodipodi:namedview
     id="namedview17"
     pagecolor="#ffffff"
     bordercolor="#000000"
     borderopacity="0.25"
     inkscape:showpageshadow="2"
     inkscape:pageopacity="0.0"
     inkscape:pagecheckerboard="0"
     inkscape:deskcolor="#d1d1d1"
     inkscape:zoom="2.65"
     inkscape:cx="209.81132"
     inkscape:cy="80.188679"
     inkscape:window-width="2496"
     inkscape:window-height="1585"
     inkscape:window-x="-9"
     inkscape:window-y="-9"
     inkscape:window-maximized="1"
     inkscape:current-layer="svg17" />
  <defs
     id="defs9">
    <linearGradient
       id="primaryroyalbluekeyline-a"
       x1="282.7674"
       x2="282.7674"
       y1="11.485762"
       y2="263.03897"
       gradientTransform="scale(1.1002653,0.90887172)"
       gradientUnits="userSpaceOnUse">
      <stop
         offset="21.7%"
         stop-color="#FFD100"
         id="stop1" />
      <stop
         offset="29.6%"
         stop-color="#FFD724"
         id="stop2" />
      <stop
         offset="47.4%"
         stop-color="#FFE87F"
         id="stop3" />
      <stop
         offset="70.7%"
         stop-color="#FFF"
         id="stop4" />
    </linearGradient>
    <linearGradient
       id="primaryroyalbluekeyline-b"
       x1="96.044693"
       x2="362.01807"
       y1="169.3369"
       y2="169.3369"
       gradientTransform="scale(1.0004815,0.99951874)"
       gradientUnits="userSpaceOnUse">
      <stop
         offset="0%"
         stop-color="#FFA300"
         id="stop5" />
      <stop
         offset="13.4%"
         stop-color="#FFA800"
         id="stop6" />
      <stop
         offset="28.9%"
         stop-color="#FFB600"
         id="stop7" />
      <stop
         offset="45.3%"
         stop-color="#FFCD00"
         id="stop8" />
      <stop
         offset="47.8%"
         stop-color="#FFD100"
         id="stop9" />
    </linearGradient>
  </defs>
  <polygon
     points="0,0 500,0 500,500 0,500 "
     id="polygon9"
     style="fill:none;fill-rule:evenodd"
     transform="translate(-20,-84.996)" />
  <g
     id="g16"
     style="fill:none;fill-rule:evenodd">
    <path
       fill="#003594"
       fill-rule="nonzero"
       d="M 403.85255,56.079636 C 340.88281,-6.9107745 242.78245,-18.133855 167.21323,29.007135 v 0 c -20.83353,13.820988 -38.87635,31.443701 -53.18424,51.945892 -0.0502,0.06043 -0.10243,0.118815 -0.15364,0.179247 H 74.414295 L 0,249.50088 h 96.541617 c 13.961283,26.02471 35.115333,47.48313 60.937963,61.81474 49.25786,27.10789 109.44993,24.84274 156.53111,-5.89058 5.44815,-3.56695 7.9254,-10.27541 6.10301,-16.52717 -1.82239,-6.25175 -7.51634,-10.57831 -14.02779,-10.65903 -1.4728,0.002 -2.93737,0.21964 -4.34701,0.64632 -9.62258,2.8896 -19.61683,4.3528 -29.66391,4.34291 -28.90965,0.069 -56.47517,-12.20077 -75.77247,-33.72719 h 90.15324 l 15.48287,-21.57319 60.09397,0.006 c 0,0 -1.82935,4.65019 -2.83313,6.92612 l -6.45291,14.64707 h 98.35355 l 2.09361,-7.69637 C 471.25891,175.53174 452.42969,104.6544 403.85255,56.079636 Z m 39.26952,182.989044 h -74.37435 c 3.08216,-6.98883 5.628,-14.20209 7.61545,-21.57729 h -79.86239 l -15.40094,21.57729 h -71.59038 l 107.03425,-149.942997 -0.0123,-0.0051 c -14.10749,-5.764402 -29.21385,-8.688212 -44.45335,-8.603874 -1.94543,0 -3.87755,0.04951 -5.79635,0.148519 -58.06591,2.925317 -104.37319,49.541922 -104.37319,106.421732 -4.6e-4,3.69522 0.19613,7.38784 0.58895,11.06212 h 63.22824 l -18.82815,26.49174 c -5.94077,7.98931 -13.81639,14.42071 -25.82186,14.42071 h -5.15413 c 18.87731,32.55235 54.90705,54.59363 96.16058,54.59363 11.0668,0.0109 22.07536,-1.60141 32.67424,-4.78539 0.43147,-0.13292 0.88008,-0.20193 1.33155,-0.20486 1.89663,0.0784 3.52556,1.37262 4.03064,3.20244 0.50507,1.82982 -0.22932,3.77638 -1.81719,4.81658 -34.21418,22.33644 -76.40472,28.81719 -115.74543,17.77927 -39.34071,-11.03792 -72.00219,-38.52007 -89.60344,-75.3945 H 16.021643 L 81.211356,91.57369 h 37.666534 c 26.09854,-33.910464 66.12966,-54.203119 108.90866,-55.208194 1.02427,-0.02151 2.05981,-0.03278 3.08306,-0.03278 60.2855,0 110.84965,36.072767 131.32175,89.138194 l -37.06631,51.93052 h 56.43732 C 381.33221,127.05149 356.10236,80.105796 314.23865,52.130812 272.37494,24.155828 219.34818,18.807362 172.74122,37.858883 235.93677,-1.532494 316.8088,1.799966 376.54924,46.257115 436.28968,90.714264 462.70611,167.22285 443.12207,239.06868 Z m -209.7809,-51.35591 h -60.98508 c 0,-0.20486 -0.0154,-0.41483 -0.0154,-0.62378 0,-51.16438 41.49218,-93.333603 94.47054,-96.001828 1.76379,-0.09014 3.53475,-0.135266 5.2627,-0.135266 9.37423,-0.01001 18.70994,1.199562 27.77208,3.598325 z m 132.23336,-48.86386 c 2.65593,9.16957 4.36851,18.5864 5.11111,28.10394 h -25.16326 z"
       id="path9" />
    <path
       fill="url(#primaryroyalbluekeyline-a)"
       fill-rule="nonzero"
       d="m 172.74122,37.858883 c 57.15033,-23.362337 122.76053,-9.705617 165.84247,34.520001 43.08194,44.225616 55.01536,110.171036 30.16403,166.689796 h 74.37435 C 462.72495,167.21915 436.31354,90.69647 376.56627,46.234232 316.81899,1.7719954 235.9349,-1.5516027 172.74122,37.858883"
       id="path10"
       style="fill:url(#primaryroyalbluekeyline-a)" />
    <path
       fill="#d7d2cb"
       fill-rule="nonzero"
       d="m 362.17497,125.49139 -14.31623,20.06137 c -13.72538,-14.11125 -32.58011,-22.063 -52.26547,-22.04231 -1.22912,0 -2.44834,0.0307 -3.65767,0.0922 l 24.60708,-34.476957 c 18.35177,7.548957 34.17817,20.161477 45.63229,36.365707 z m 14.1882,92.00103 c 3.46094,-12.8664 5.2091,-26.13321 5.19924,-39.45696 0,-0.21373 0,-0.42781 0,-0.64222 h -15.47677 c 3.56678,13.15293 3.38941,27.0406 -0.51214,40.09815 z"
       id="path11" />
    <path
       fill="#ffd100"
       fill-rule="nonzero"
       d="m 308.29628,296.69313 c -43.84779,28.61716 -99.90164,30.72663 -145.77626,5.48599 v 0 c -11.32137,-14.26991 -19.67896,-30.65707 -24.5825,-48.20013 15.84239,-0.73748 38.78504,0.63197 55.74389,7.92069 20.95833,20.45563 49.11159,31.86259 78.39768,31.76468 11.0668,0.0109 22.07535,-1.60141 32.67424,-4.78539 0.43149,-0.13285 0.88009,-0.20186 1.33155,-0.20486 1.89626,0.0792 3.52443,1.37374 4.02898,3.20336 0.50456,1.82962 -0.22995,3.77569 -1.81758,4.81566 z M 162.49134,198.15828 c -0.39368,-3.67422 -0.59062,-7.36687 -0.58998,-11.06212 0,-56.88493 46.31138,-103.501539 104.37831,-106.421735 -67.3202,2.7389 -122.45157,52.914855 -131.86052,117.490005 z"
       id="path12" />
    <path
       fill="#ffa300"
       fill-rule="nonzero"
       d="m 175.91441,239.06868 h -41.23305 c 0.80101,5.02831 1.88678,10.0071 3.25206,14.91236 v 0 c 15.8424,-0.73748 38.78504,0.63197 55.74389,7.92068 -6.92171,-6.77679 -12.89666,-14.4572 -17.7629,-22.83304 z"
       id="path13" />
    <path
       fill="#ff8200"
       fill-rule="nonzero"
       d="m 102.95253,239.06868 c 5.14138,10.74715 11.61624,20.80375 19.27165,29.93226 3.9986,-6.15893 9.3772,-11.30151 15.70924,-15.0199 -1.36528,-4.90526 -2.45105,-9.88405 -3.25206,-14.91236 z"
       id="path14" />
    <path
       fill="url(#primaryroyalbluekeyline-b)"
       fill-rule="nonzero"
       d="m 316.53142,89.120562 c -14.10749,-5.764402 -29.21385,-8.688212 -44.45335,-8.603874 -1.94543,0 -3.87755,0.04951 -5.79635,0.148519 -67.31917,2.7389 -122.45055,52.914853 -131.8595,117.490003 H 96.090937 L 143.30572,91.57369 h -24.42783 c 26.09854,-33.910464 66.12966,-54.203119 108.90866,-55.208194 1.02427,-0.02151 2.05981,-0.03278 3.08306,-0.03278 60.2855,0 110.85067,36.072767 131.32277,89.138194 l -0.0164,0.0236 C 350.71995,109.28515 334.8889,96.669469 316.53142,89.120562 Z m -178.598,164.857408 v 0 c -6.33204,3.71839 -11.71064,8.86097 -15.70924,15.0199 11.27175,13.44869 24.93255,24.69778 40.29379,33.18023 -11.32099,-14.27015 -19.67855,-30.65723 -24.5825,-48.20013 z"
       id="path15"
       style="fill:url(#primaryroyalbluekeyline-b)" />
    <path
       fill="#ffffff"
       fill-rule="nonzero"
       d="m 368.63505,196.5471 c 0,7.09327 -1.02974,14.14897 -3.06052,20.94532 h -69.07375 l -15.40094,21.57626 H 209.50946 L 291.9356,123.60059 c 1.21206,-0.0594 2.43128,-0.0901 3.65767,-0.0922 19.68536,-0.0206 38.54009,7.9311 52.26547,22.04235 l -22.73369,31.84663 h 40.95854 c 1.69356,6.24234 2.55146,12.68177 2.55146,19.14976 z M 81.211356,91.57369 16.021643,239.06868 H 181.06854 c 12.00547,0 19.88519,-6.4273 25.82186,-14.42173 l 18.82815,-26.49072 H 96.090937 L 143.30572,91.57369 Z"
       id="path16" />
  </g>
</svg>
