<?xml version="1.0" encoding="UTF-8" standalone="no"?>
<svg
   width="479.99991"
   height="212.258"
   viewBox="0 0 479.99991 212.258"
   version="1.1"
   id="svg5"
   sodipodi:docname="SEA.svg"
   inkscape:version="1.4 (86a8ad7, 2024-10-11)"
   xmlns:inkscape="http://www.inkscape.org/namespaces/inkscape"
   xmlns:sodipodi="http://sodipodi.sourceforge.net/DTD/sodipodi-0.dtd"
   xmlns="http://www.w3.org/2000/svg"
   xmlns:svg="http://www.w3.org/2000/svg">
  <defs
     id="defs5" />
  <sodipodi:namedview
     id="namedview5"
     pagecolor="#ffffff"
     bordercolor="#000000"
     borderopacity="0.25"
     inkscape:showpageshadow="2"
     inkscape:pageopacity="0.0"
     inkscape:pagecheckerboard="0"
     inkscape:deskcolor="#d1d1d1"
     inkscape:zoom="2.65"
     inkscape:cx="240"
     inkscape:cy="106.60377"
     inkscape:window-width="2496"
     inkscape:window-height="1585"
     inkscape:window-x="-9"
     inkscape:window-y="-9"
     inkscape:window-maximized="1"
     inkscape:current-layer="svg5" />
  <path
     d="M -9.9990837,-143.341 H 490.00092 v 500 H -9.9990837 Z"
     id="path1"
     style="fill:none" />
  <path
     fill="#fffffe"
     d="m 402.27692,174.054 c -21.876,-4.371 -50.594,-5.531 -62.724,-5.531 l -288.654004,0.064 c -17.959,0 -36.53,0 -46.0599997,-14.674 -9.668,-14.886 -4.41499996,-29.532 11.8889997,-58.838 1.217,-2.178 50.654,-95.075 50.654,-95.075 0,0 5.051,6.268 10.143,10.261 5.028,3.938 10.194,6.038 23.968004,6.038 24.465,0 182.29,-0.345 183.899,-0.355 32.037,0 64.396,3.316 85.364,26.299 10.885,1.161 46.023,5.803 74.982,19.643 16.945,8.088 28.124,20.178 32.35,34.943 1.276,4.463 1.912,9.156 1.912,14.02 0,14.015 -5.249,29.536 -15.544,45.666 -21.747,34.091 -41.802,46.006 -42.7,46.647 -12.359,8.691 -24.327,9.096 -24.327,9.096 0,0 10.779,-12.251 14.415,-24.502 3.641,-12.251 -9.567,-13.702 -9.567,-13.702"
     id="path2" />
  <path
     fill="#002244"
     d="m 442.16692,69.357 c 33,15.775 38.788,45.914 15.313,82.714 -21.055,32.981 -42.313,46.974 -42.313,46.974 0,0 20.484,-26.768 -11.272,-33.12 -23.917,-4.772 -54.548,-5.683 -64.341,-5.683 -11.267,0 -111.945,0.23 -124.507,0.23 -12.562,0 -16.032,-1.713 -18.788,-5.504 -2.751,-3.777 -3.23,-8.944 1.922,-16.686 5.171,-7.738 13.023,-19.86 13.023,-19.86 l -33.94,-27.293 c 28.479,-28.403 51.226,-37.928 71.083,-37.928 20.134,0 29.009,2.957 62.152,16.857 33.147,13.909 44.101,-0.88 44.101,-0.88 -13.917,5.914 -26.346,0.88 -49.733,-9.465 -23.378,-10.358 -37.286,-15.084 -58.29,-15.084 -21.018,0 -38.77,5.909 -61.009,22.259 -20.94,15.392 -22.525,18.556 -54.097,18.556 H 31.157916 l 38.631,-72.291 c 0,0 2.889,11.422 31.705004,11.422 24.756,0 183.899,-0.35 183.899,-0.35 31.599,0 62.862,3.348 81.364,25.949 0,0 42.401,3.408 75.41,19.183 z m -58.318,5.928 c -15.014,-3.592 -2.18,-12.279 -2.18,-12.279 -21.604,4.362 -29.641,21.974 -31.498,26.902 -0.346,0.668 -0.7,1.354 -1.065,2.077 -11.954,24.033 -22.719,22.748 -43.129,22.748 h -34.954 c -28.313,0 -41.498,14.024 -55.069,37.91 h 15.991 c 14.613,-21.748 25.645,-27.611 54.548,-29.242 66.051,0.037 118.705,18.975 146.53,33.451 39.576,-66.419 -19.157,-77.413 -49.175,-81.567 z m -122.935,77.099 c 7.387,-11.16 22.406,-14.95 46.622,-13.555 59.76,3.459 94.12,15.088 120.816,25.027 -32.917,-19.256 -91.581,-33.138 -132.355,-33.009 -19.926,0.06 -37.327,3.542 -47.548,21.536 h 12.465 z m 64.138,-65.889 c -7.788,10.86 -18.046,14.568 -47.138,12.583 -33.853,-2.298 -25.115,-16.553 -21.175,-23.567 l -0.115,-0.014 c 1.078,-1.985 2.922,-5.356 4.793,-8.751 -25.935,-1.598 -44.88,18.354 -44.88,18.354 19.336,19.114 32.23,21.113 49.724,21.113 h 32.7 c 30.406,0 37.751,-13.674 40.539,-19.754 -5.249,0.654 -9.972,0.599 -14.447,0.037 z"
     id="path3" />
  <path
     fill="#69be28"
     d="m 310.29092,83.262 c -0.618,-0.249 -1.258,-0.511 -1.899,-0.774 -2.982,3.141 -8.124,4.96 -13.106,4.32 -6.558,-0.838 -10.336,-5.601 -8.475,-10.625 0.267,-0.737 0.659,-1.428 1.124,-2.091 -3.359,-1.317 -6.737,-2.584 -10.028,-3.731 -6.737,10.892 -10.687,18.11 12.691,20.081 14.562,1.239 18.512,-1.253 21.571,-6.476 -0.627,-0.239 -1.235,-0.447 -1.88,-0.705"
     id="path4" />
  <path
     fill="#a5acaf"
     d="m 192.88092,124.644 c -12.06,20.919 -16.843,25.723 -8.373,35.653 H 50.899916 c -19.705,0 -32.516,-0.742 -39.106,-10.897 -6.4099997,-9.861 -5.0919997,-19.266 12.18,-50.303 H 137.57292 c 19.558,0 24.585,1.115 35.198,9.345 10.613,8.24 20.111,16.203 20.111,16.203"
     id="path5" />
</svg>
