<?xml version="1.0" encoding="UTF-8" standalone="no"?>
<svg
   height="285.45999"
   viewBox="0 0 479.49301 285.45999"
   width="479.49301"
   version="1.1"
   id="svg7"
   sodipodi:docname="SF.svg"
   inkscape:version="1.4 (86a8ad7, 2024-10-11)"
   xmlns:inkscape="http://www.inkscape.org/namespaces/inkscape"
   xmlns:sodipodi="http://sodipodi.sourceforge.net/DTD/sodipodi-0.dtd"
   xmlns="http://www.w3.org/2000/svg"
   xmlns:svg="http://www.w3.org/2000/svg">
  <defs
     id="defs7" />
  <sodipodi:namedview
     id="namedview7"
     pagecolor="#ffffff"
     bordercolor="#000000"
     borderopacity="0.25"
     inkscape:showpageshadow="2"
     inkscape:pageopacity="0.0"
     inkscape:pagecheckerboard="0"
     inkscape:deskcolor="#d1d1d1"
     inkscape:zoom="2.65"
     inkscape:cx="240"
     inkscape:cy="143.20755"
     inkscape:window-width="2496"
     inkscape:window-height="1585"
     inkscape:window-x="-9"
     inkscape:window-y="-9"
     inkscape:window-maximized="1"
     inkscape:current-layer="svg7" />
  <path
     d="m -9.999,-106.868 h 500 v 500 h -500 z"
     id="path1"
     style="fill:none" />
  <path
     d="m 241.025,285.46 c 81.738,0 162.272,-27.711 205.168,-70.61 21.786,-21.783 33.3,-46.938 33.3,-72.761 0,-25.633 -11.364,-50.539 -32.853,-72.03 C 404.075,27.5 323.365,0 241.025,0 183.366,0 124.528,13.57 79.596,37.232 28.266,64.259 0,101.5 0,142.088 c 0,25.453 11.403,50.307 32.982,71.879 21.566,21.559 52.9,39.702 90.624,52.458 36.816,12.455 77.423,19.033 117.418,19.033"
     fill="#fffffe"
     id="path2" />
  <path
     d="M 83.155,43.992 C 34.459,69.634 7.639,104.474 7.639,142.089 c 0,23.383 10.633,46.366 30.749,66.484 20.736,20.729 51.05,38.235 87.664,50.617 36.041,12.188 75.8,18.633 114.974,18.633 79.811,0 158.227,-26.842 199.768,-68.377 20.318,-20.311 31.059,-43.604 31.059,-67.357 0,-23.564 -10.585,-46.603 -30.615,-66.63 C 400.037,34.26 321.445,7.641 241.027,7.641 c -56.454,0 -113.997,13.247 -157.87,36.35"
     fill="#000000"
     id="path3" />
  <path
     d="m 240.883,264.284 c 70.456,0 137.225,-22.992 174.238,-59.996 18.67,-18.672 28.537,-39.982 28.537,-61.635 0,-21.649 -9.867,-42.959 -28.537,-61.627 C 378.103,44.017 311.339,21.03 240.883,21.03 c -51.734,0 -103.236,12.769 -141.295,35.038 -39.647,23.198 -61.485,53.947 -61.485,86.584 0,21.654 9.871,42.963 28.546,61.635 37.009,37.004 103.774,59.996 174.234,59.996"
     fill="#b3995d"
     id="path4" />
  <path
     d="m 241.249,259.965 c 103.275,0 187.001,-53.499 187.001,-117.961 0,-64.462 -83.726,-116.718 -187.001,-116.718 -103.279,0 -187.001,52.256 -187.001,116.718 0,64.462 83.722,117.961 187.001,117.961"
     fill="#aa0000"
     id="path5" />
  <path
     d="m 387.518,127.341 h -0.516 v -4.259 h -74.195 c -1.592,-8.342 -6.39,-16.086 -13.244,-22.131 C 292.812,93.194 283.01,87.36 271.844,85.144 l -4.621,-0.955 c -10.71,-2.25 -19.17,-4.031 -53.197,-3.855 0,-0.004 -6.545,-0.224 -12.9,-1.067 -1.609,-0.409 -3.016,-0.895 -4.225,-1.42 0.469,-2.831 5.645,-6.733 11.493,-7.486 0.602,-0.112 37.431,-6.888 75.336,17.661 l 0.929,0.598 h 24.914 V 50.501 h -4.26 v -4.259 h -34.187 l -5.762,4.401 c -9.845,-2.465 -58.051,-13.015 -99.686,5.21 -17.496,7.228 -28.352,20.871 -27.577,34.728 0.392,6.987 3.735,13.079 9.518,17.803 4.251,5.309 10.938,9.448 19.647,11.96 12.324,3.549 22.762,5.012 32.883,5.593 v 17.377 h 4.256 v 4.259 h 13.003 c 5.383,0 6.769,2.982 7.1,4.092 -16.592,-1.084 -41.82,-5.804 -60.392,-22.987 l -0.697,-0.753 h -0.133 c -1.024,-0.981 -2.031,-1.996 -3.016,-3.055 l -1.114,-1.2 h -18.692 v 54.257 h 4.26 v 4.251 h 15.25 c 2.233,0.159 9.316,-0.628 14.208,-14.916 7.93,2.766 27.474,8.648 51.54,9.302 v 33.756 c -0.835,11.337 -25.809,14.882 -34.505,15.226 l -3.597,0.142 v 16.783 h 4.256 v 4.251 h 109.643 v -16.056 l -2.793,-0.74 c -0.503,-0.129 -0.985,-0.262 -1.467,-0.396 v -3.674 l -3.421,-0.293 c -6.166,-0.546 -10.908,-1.613 -14.583,-2.926 -6.898,-3.863 -8.077,-6.996 -8.227,-7.503 v -17.997 h 32.134 c 3.395,0.512 6.304,2.001 8.769,3.932 4.626,5.696 6.738,12.21 6.769,12.318 l 0.822,2.637 2.758,0.009 h 0.09 c 0.383,0.968 0.581,1.579 0.594,1.613 l 0.818,2.642 2.762,0.004 h 14.505 v -65.288 h -4.26 v -4.259 h -17.194 l -0.615,2.982 c -4.501,21.697 -29.596,21.378 -51.906,18.126 4.376,-1.187 8.769,-2.633 13.15,-4.371 11.945,-4.745 20.908,-11.199 26.497,-18.762 h 48.163 c 3.356,0.108 6.209,0.951 8.61,2.521 5.047,7.4 4.544,18.311 4.535,18.435 l -0.211,3.95 h 4.479 l -0.004,0.301 -0.215,3.95 3.954,0.009 h 15.237 v -50.544 h -3.748"
     fill="#000000"
     id="path6" />
  <path
     d="m 310.702,140.709 c 3.507,-4.242 3.67,-13.879 3.67,-13.879 h 68.881 v 43.049 h -11.485 c 0,0 1.639,-28.438 -21.153,-29.17 h -39.914 z m -81.235,36.763 c 15.499,0.331 28.645,-2.956 28.645,-2.956 3.946,-0.873 57.311,14.787 64.531,-20.023 h 10.392 v 57.793 h -10.757 c 0,0 -6.381,-20.789 -22.969,-23.159 h -36.291 v 22.067 c 0,0 0.138,15.471 30.491,18.1 v 9.431 H 191.362 v -9.431 c 0,0 36.928,-1.437 38.107,-18.762 v -33.059 z m 31.867,-56.864 c -4.94,-1.502 -12.087,-1.824 -20.31,-2.138 -29.423,-1.123 -47.939,2.383 -76.984,-5.989 -32.965,-9.5 -27.048,-40.717 3.141,-53.194 44.914,-19.662 99.006,-4.556 99.006,-4.556 l 6.205,-4.741 h 29.174 v 30.628 h -20.06 C 241.76,54.873 203.649,62.385 203.649,62.385 c -12.401,1.605 -24.436,15.278 -3.287,20.565 6.751,0.912 13.679,1.132 13.679,1.132 38.378,-0.202 43.696,2.087 57.074,4.737 34.768,6.892 54.002,50.853 3.464,70.924 -52.173,20.716 -107.035,-1.609 -107.035,-1.609 -4.557,17.14 -11.665,16.048 -11.665,16.048 h -11.67 V 127.42 h 13.305 c 31.188,33.717 84.608,27.948 84.608,27.948 0,0 15.865,-0.404 26.256,-10.209 8.115,-9.904 6.829,-20.488 -7.044,-24.549 z m -43.584,18.965 h -13.855 v -12.417 c 10.74,0 32.651,0.095 48.154,0 15.594,0 17.681,9.018 11.106,15.118 -6.196,5.748 -19.174,9.839 -34.54,7.043 0,0 -1.269,-9.745 -10.865,-9.745 z"
     fill="#fffffe"
     id="path7" />
</svg>
