<?xml version="1.0" encoding="UTF-8" standalone="no"?>
<svg
   viewBox="0 0 61.830215 51.793749"
   version="1.1"
   id="svg8"
   sodipodi:docname="ATH.svg"
   width="61.830215"
   height="51.793747"
   inkscape:version="1.4 (86a8ad7, 2024-10-11)"
   xmlns:inkscape="http://www.inkscape.org/namespaces/inkscape"
   xmlns:sodipodi="http://sodipodi.sourceforge.net/DTD/sodipodi-0.dtd"
   xmlns="http://www.w3.org/2000/svg"
   xmlns:svg="http://www.w3.org/2000/svg"
   xmlns:rdf="http://www.w3.org/1999/02/22-rdf-syntax-ns#"
   xmlns:cc="http://creativecommons.org/ns#"
   xmlns:dc="http://purl.org/dc/elements/1.1/">
  <defs
     id="defs8" />
  <sodipodi:namedview
     id="namedview8"
     pagecolor="#ffffff"
     bordercolor="#000000"
     borderopacity="0.25"
     inkscape:showpageshadow="2"
     inkscape:pageopacity="0.0"
     inkscape:pagecheckerboard="0"
     inkscape:deskcolor="#d1d1d1"
     inkscape:zoom="5.7485325"
     inkscape:cx="25.919659"
     inkscape:cy="41.053956"
     inkscape:window-width="1656"
     inkscape:window-height="1210"
     inkscape:window-x="243"
     inkscape:window-y="12"
     inkscape:window-maximized="0"
     inkscape:current-layer="svg8" />
  <title
     id="title1">Oakland Athletics cap logo</title>
  <g
     id="A_x27_s_x5F_Primary-AthleticGold_00000026150455216311056090000008874802451775783098_"
     transform="matrix(0.35292206,0,0,0.35679971,1.5770516,0.25675521)">
    <g
       id="g2">
      <g
         id="g11">
        <path
           id="path1-0"
           style="fill:#ffb819"
           class="st0"
           sodipodi:type="inkscape:offset"
           inkscape:radius="3.9027312"
           inkscape:original="M 60.980469 3.2363281 C 49.94043 2.4980469 39.025 9.2253906 35 26.900391 C 39.5 20.400391 47.800391 14.9 55.400391 19.5 C 62.000391 23.4 62.000391 27.8 59.400391 35.5 L 57.400391 41.400391 C 49.500391 33.100391 32.800391 34.8 30.900391 53.5 C 36.100391 48.8 54.799219 49.199219 49.199219 65.699219 L 32.400391 115 C 18.400391 115.1 4.3996094 122.19922 0.099609375 139.69922 C 3.9996094 133.49922 32.699609 121.19961 58.599609 140.09961 L 75 120 C 73.9 118.9 64.899219 116.99961 58.199219 123.59961 C 54.699219 120.59961 50.099609 118.30078 45.099609 116.80078 L 53.699219 91.400391 L 85.599609 91.400391 L 96.800781 125 C 101.20078 138.4 111.5 146.00039 118 135.90039 C 118 135.90039 135.80039 109.29922 137.90039 106.19922 C 139.90039 102.99922 135.69922 102.5 135.19922 103 C 117.99922 121.8 112.40039 114.49961 109.40039 105.59961 L 81.300781 21 C 78.700781 13.2 73.899219 6.6 65.699219 4 C 64.136719 3.6 62.557617 3.3417969 60.980469 3.2363281 z M 69.800781 43.900391 L 81.099609 77.699219 L 58.300781 77.699219 L 69.800781 43.900391 z "
           d="M 61.240234,-0.65820312 C 54.847342,-1.0857154 48.275379,0.70527876 42.878906,5.1503906 37.482433,9.5955025 33.353601,16.555503 31.195312,26.033203 a 3.9031215,3.9031215 0 0 0 7.013672,3.087891 c 1.904034,-2.750271 4.70147,-5.297125 7.429688,-6.523438 2.728218,-1.226313 5.068179,-1.377062 7.740234,0.240235 a 3.9031215,3.9031215 0 0 0 0.03516,0.02148 c 2.746581,1.622979 3.342445,2.615412 3.607422,3.966797 0.264978,1.351384 -0.09044,3.78926 -1.318359,7.425781 L 55.408203,35.125 C 50.954689,32.716579 45.665544,32.025414 40.712891,33.607422 33.807503,35.813184 28.082613,42.623284 27.017578,53.105469 a 3.9031215,3.9031215 0 0 0 6.5,3.289062 c 0.416407,-0.376368 1.970736,-1.152577 3.8125,-1.433594 1.841765,-0.281016 3.94138,-0.151919 5.511719,0.382813 1.570339,0.534732 2.512044,1.290253 3.044922,2.453125 0.532877,1.162872 0.803211,3.153903 -0.382813,6.648437 L 29.535156,111.3125 c -14.400512,1.07045 -28.80513835,9.46886 -33.2246091,27.45508 a 3.9031215,3.9031215 0 0 0 7.0917969,3.00976 c 0.1359736,-0.21616 2.2556097,-2.2171 5.5136718,-3.76367 3.2580624,-1.54657 7.6687404,-2.9721 12.7109374,-3.66015 10.084394,-1.37611 22.601997,0.0907 34.671875,8.89843 a 3.9031215,3.9031215 0 0 0 5.324219,-0.68554 l 16.40039,-20.09961 a 3.9031215,3.9031215 0 0 0 -0.263671,-5.22657 c -0.879719,-0.87971 -1.453771,-1.05041 -2.085938,-1.30078 -0.632167,-0.25036 -1.291296,-0.43698 -2.025391,-0.58984 -1.468188,-0.30573 -3.225234,-0.46242 -5.205078,-0.33203 -3.183592,0.20966 -6.968515,1.29404 -10.470703,3.7832 -2.450124,-1.69583 -5.112486,-3.10646 -7.99414,-4.24023 l 6.519531,-19.257816 h 26.289062 l 10.310547,30.931646 -0.0039,-0.0176 c 2.413344,7.34973 6.295891,13.32825 11.54297,16.41015 2.62354,1.54095 5.80195,2.28719 8.89453,1.4961 3.09258,-0.7911 5.75062,-3.00461 7.75,-6.11133 l -0.0371,0.0586 c 0,0 17.85762,-26.68631 19.88672,-29.68164 a 3.9031215,3.9031215 0 0 0 0.0781,-0.12109 c 0.84964,-1.35942 1.41442,-3.12808 0.97266,-4.92188 -0.44175,-1.7938 -1.7697,-2.99453 -2.85156,-3.574216 -1.08186,-0.579685 -2.04149,-0.77079 -2.97852,-0.828125 -0.46851,-0.02867 -0.92516,-0.02259 -1.48633,0.07617 -0.56117,0.09876 -1.28233,0.07725 -2.42578,1.220699 a 3.9031215,3.9031215 0 0 0 -0.11914,0.125 c -4.14391,4.52939 -7.50921,7.36502 -10.01562,8.89063 -2.50642,1.52561 -3.98498,1.6871 -4.75196,1.57227 -0.76698,-0.11484 -1.32337,-0.45974 -2.13671,-1.5586 -0.81334,-1.09886 -1.63219,-2.88617 -2.31641,-4.91601 L 85.003906,19.769531 a 3.9031215,3.9031215 0 0 0 0,-0.0039 C 82.156928,11.224689 76.474349,3.3217543 66.878906,0.27929688 A 3.9031215,3.9031215 0 0 0 66.667969,0.21875 C 64.884364,-0.23785279 63.067453,-0.53601131 61.240234,-0.65820312 Z M 69.767578,56.113281 75.679687,73.796875 H 63.751953 Z" />
        <path
           id="polygon1"
           style="fill:#ffb819"
           class="st0"
           sodipodi:type="inkscape:offset"
           inkscape:radius="3.1235325"
           inkscape:original="M 105.09961 33.599609 L 105.09961 44 L 108.5 44 L 105.5 52.099609 L 108.40039 52.099609 L 115.30078 43.199219 L 115.30078 33.599609 L 105.09961 33.599609 z "
           d="m 105.09961,30.476562 a 3.1238449,3.1238449 0 0 0 -3.12305,3.123047 V 44 a 3.1238449,3.1238449 0 0 0 2.33008,2.330078 l -1.73633,4.685547 A 3.1238449,3.1238449 0 0 0 105.5,55.222656 h 2.90039 a 3.1238449,3.1238449 0 0 0 2.46875,-1.208984 l 6.90039,-8.900391 a 3.1238449,3.1238449 0 0 0 0.6543,-1.914062 v -9.59961 a 3.1238449,3.1238449 0 0 0 -3.12305,-3.123047 z" />
        <path
           id="path2-9"
           style="fill:#ffb819"
           class="st0"
           sodipodi:type="inkscape:offset"
           inkscape:radius="3.2043402"
           inkscape:original="M 147.16211 34.900391 C 140.84961 34.575391 134.55039 36.800391 130.90039 41.900391 C 120.90039 56.000391 132.29922 63.600781 145.19922 66.800781 C 150.49922 68.100781 157.20039 71.200781 153.90039 76.300781 C 151.10039 80.700781 140.10039 78.599609 131.90039 71.099609 L 126.30078 78.699219 C 131.30078 84.499219 150.89961 96.700391 163.09961 81.900391 C 173.29961 69.600391 160.29961 58.699609 152.09961 57.099609 C 143.89961 55.499609 137.09922 53.800391 139.19922 47.900391 C 140.89922 42.900391 152.99922 43.399219 157.19922 49.699219 L 163.5 43.199219 C 159.8 38.099219 153.47461 35.225391 147.16211 34.900391 z "
           d="m 147.32617,31.701172 c -7.1718,-0.369241 -14.62248,2.173784 -19.03125,8.333984 a 3.2046607,3.2046607 0 0 0 -0.008,0.01172 c -2.74476,3.870114 -4.21195,7.557149 -4.38672,11.083984 -0.17477,3.526836 1.04741,6.76366 3.04883,9.294922 4.00283,5.062525 10.66719,7.794744 17.47851,9.484375 a 3.2046607,3.2046607 0 0 0 0.008,0.002 c 2.38113,0.584052 5.08209,1.688413 6.31054,2.69336 0.61423,0.502473 0.78793,0.871669 0.81641,0.990234 0.0285,0.118565 0.12429,0.229428 -0.35156,0.964844 a 3.2046607,3.2046607 0 0 0 -0.0137,0.01953 c -0.12779,0.200807 -0.41834,0.485453 -1.37891,0.673828 -0.96058,0.188375 -2.46119,0.164326 -4.20117,-0.220703 -3.47997,-0.770058 -7.87127,-2.929847 -11.55469,-6.298828 a 3.2046607,3.2046607 0 0 0 -4.74219,0.464844 l -5.59961,7.599609 a 3.2046607,3.2046607 0 0 0 0.15235,3.992188 c 3.12638,3.626601 9.46616,8.189364 17.2832,10.324218 7.81497,2.134288 17.49993,1.207232 24.41016,-7.169922 5.82389,-7.022931 5.18023,-14.908065 1.59179,-20.246093 -3.58843,-5.338028 -9.31519,-8.743143 -14.44531,-9.744141 -4.05415,-0.791053 -7.63875,-1.685995 -9.375,-2.646484 -0.86812,-0.480245 -1.17299,-0.87604 -1.25586,-1.054688 -0.0829,-0.178647 -0.18878,-0.364785 0.13672,-1.279297 a 3.2046607,3.2046607 0 0 0 0.0137,-0.04297 c 0.0469,-0.137795 0.21443,-0.428258 1.06445,-0.757813 0.85003,-0.329555 2.23025,-0.529788 3.72071,-0.416016 2.98091,0.227546 6.18178,1.717983 7.51562,3.71875 a 3.2046607,3.2046607 0 0 0 4.9668,0.453125 l 6.30078,-6.5 a 3.2046607,3.2046607 0 0 0 0.29297,-4.111328 c -4.38335,-6.041921 -11.59617,-9.247966 -18.76758,-9.617187 z" />
      </g>
    </g>
  </g>
  <path
     fill="#003831"
     d="m 49.425,37.174111 c -6.2,6.7 -8.1,4.1 -9.2,0.9 l -10,-30.2000003 c -0.9,-2.8 -2.6,-5.2 -5.6,-6.1 -4.5,-1.19999999 -9.3,0.9 -11,8.1000001 1.6,-2.3000001 4.6,-4.3000001 7.3,-2.6000001 2.3,1.4 2.3,2.9000003 1.4,5.7000003 l -0.7,2.1 c -2.8,-3 -8.8,-2.4 -9.5,4.3 1.8,-1.7 8.5,-1.5 6.5,4.4 l -6,17.6 c -5,0 -10,2.6 -11.5,8.8 1.4,-2.2 11.6,-6.6 20.9,0.1 l 5.9,-7.2 c -0.4,-0.4 -3.6,-1.1 -6,1.3 -1.3,-1.1 -2.9,-1.9 -4.7,-2.4 l 3.1,-9.1 h 11.4 l 4,12 c 1.6,4.8 5.2,7.5 7.6,3.9 0,0 6.3,-9.5 7.1,-10.6 0.7,-1 -0.8,-1.1 -1,-1 z m -23.3,-21.1 4,12.1 h -8.1 z"
     id="path4" />
  <path
     fill="#003831"
     d="m 38.825,18.974111 h 1.1 l 2.4,-3.2 v -3.4 h -3.6 v 3.7 h 1.2 z"
     id="path6" />
  <path
     fill="#003831"
     d="m 55.525,20.774111 c -2.9,-0.6 -5.3,-1.2 -4.6,-3.3 0.6,-1.8 4.9,-1.6 6.4,0.6 l 2.3,-2.3 c -2.6,-3.6 -9,-4.1 -11.6,-0.5 -3.6,5 0.5,7.7 5.1,8.9 1.9,0.5 4.3,1.6 3.1,3.4 -1,1.6 -4.9,0.8 -7.9,-1.9 l -2,2.7 c 1.8,2.1 8.8,6.4 13.1,1.1 3.7,-4.2 -1,-8.1 -3.9,-8.7 z"
     id="path8"
     sodipodi:nodetypes="ssccccccccs" />
  <path
     fill="none"
     d="m 28.625,27.074111 -2.5,-7.7 -2.6,7.7 z"
     id="path1" />
  <path
     fill="none"
     d="m 30.125,28.174111 -4,-12.1 -4.1,12.1 z m -1.5,-1.1 h -5.2 l 2.6,-7.7 z"
     id="path2" />
  <path
     fill="none"
     d="m 49.725,36.074111 c -0.4,0 -0.8,0.1 -1,0.4 -3.1,3.4 -4.7,3.9 -5.4,3.9 -0.6,0 -1.3,-0.3 -2.1,-2.6 l -10,-30.2000003 c -1.2,-3.5 -3.3,-5.8 -6.3,-6.79999999 -0.9,-0.2 -1.7,-0.3 -2.6,-0.3 -4.7,0 -8.4,3.49999999 -9.7,9.30000009 -0.1,0.5000002 0.1,1.0000002 0.6,1.2000002 0.5,0.2 1,0.1 1.3,-0.4 0.9,-1.3000002 2.6,-2.8000003 4.3,-2.8000003 0.5,0 1.1,0.1 1.6,0.4 1.7,1.0000001 1.8,1.8000001 0.9,4.5000003 l -0.2,0.7 c -1,-0.6 -2.2,-1 -3.5,-1 -2.7,0 -6,1.8 -6.6,6.9 0,0.4 0.2,0.9 0.6,1.1 0.4,0.2 0.9,0.1 1.2,-0.2 0.3,-0.3 1.2,-0.6 2.3,-0.6 1.1,0 2.1,0.4 2.5,1 0.6,0.8 0.3,2 0,2.9 l -5.8,16.9 c -6,0.3 -10.4,3.9 -11.8,9.6 -0.1,0.5 0.1,1 0.6,1.2 0.5,0.2 1,0 1.3,-0.4 0.6,-1 4.4,-3 9.1,-3 3.7,0 7.2,1.1 10.3,3.4 0.5,0.3 1.1,0.2 1.4,-0.2 l 5.9,-7.2 c 0.3,-0.4 0.3,-1 -0.1,-1.4 -0.5,-0.5 -1.7,-0.7 -2.6,-0.7 -0.9,0 -2.6,0.2 -4.2,1.4 -1,-0.7 -2.1,-1.3 -3.3,-1.7 l 2.5,-7.4 h 9.9 l 3.8,11.3 c 1.3,3.8 3.6,6.3 6,6.3 0.9,0 2.3,-0.4 3.4,-2.1 0,0 6.3,-9.5 7.1,-10.6 0.6,-0.9 0.4,-1.5 0.2,-1.9 -0.2,-0.6 -1,-0.9 -1.6,-0.9 z m 0.7,2.2 c -0.8,1.1 -7.1,10.6 -7.1,10.6 -2.3,3.6 -6,0.9 -7.6,-3.9 l -4,-12 h -11.4 l -3.1,9.1 c 1.8,0.5 3.4,1.4 4.7,2.4 2.4,-2.3 5.6,-1.7 6,-1.3 l -5.8,7.2 c -9.3,-6.7 -19.5,-2.4 -20.9,-0.1 1.5,-6.3 6.6,-8.8 11.5,-8.8 l 6,-17.6 c 2,-5.9 -4.7,-6 -6.5,-4.4 0.7,-6.7 6.7,-7.3 9.5,-4.3 l 0.7,-2.1 c 0.9,-2.8 0.9,-4.3000003 -1.4,-5.7000003 -2.7,-1.6 -5.7,0.3 -7.3,2.6000001 1.7,-7.2000001 6.5,-9.30000009 11,-8.1000001 2.9,0.9 4.6,3.3 5.6,6.1 l 10,30.2000003 c 1.1,3.2 3.1,5.8 9.2,-0.9 0.1,-0.2 1.6,-0.1 0.9,1 z"
     id="path3" />
  <path
     fill="none"
     d="m 40.425,20.074111 3,-3.9 v -4.8 h -5.7 v 5.8 h 0.8 l -1.1,2.9 z m -1.7,-7.7 h 3.6 v 3.4 l -2.5,3.2 h -1 l 1.1,-2.9 h -1.2 z"
     id="path5" />
  <path
     fill="none"
     d="m 61.525,24.574111 c -0.9,-2.6 -3.7,-4.4 -5.8,-4.8 -1.2,-0.2 -3.5,-0.7 -3.8,-1.4 0,0 -0.1,-0.2 0,-0.6 0.1,-0.2 0.6,-0.5 1.5,-0.5 1,0 2.4,0.4 3.1,1.4 l 0.7,1.1 3.8,-3.9 -0.5,-0.7 c -1.5,-2.1 -4.2,-3.4 -7.1,-3.4 -2.6,0 -4.9,1.1 -6.2,3 -1.5,2.1 -1.9,4 -1.3,5.8 1,2.7 4.3,4.1 7,4.7 1.6,0.4 2.5,1 2.6,1.3 0,0 0.1,0.2 -0.1,0.5 -0.5,0.7 -3.7,0.3 -6.3,-2.1 l -1,-0.7 -3.2,4.3 0.5,0.6 c 1.4,1.7 5.1,4 8.7,4 2.4,0 4.5,-1 6,-2.9 2,-2.2 1.9,-4.3 1.4,-5.7 z m -2.1,5.1 c -4.3,5.3 -11.3,0.9 -13.1,-1.1 l 2,-2.7 c 2.9,2.7 6.8,3.4 7.9,1.9 1.2,-1.8 -1.2,-2.9 -3.1,-3.4 -4.6,-1.2 -8.7,-3.9 -5.1,-8.9 2.6,-3.7 9,-3.2 11.6,0.5 l -2.3,2.3 c -1.5,-2.3 -5.8,-2.4 -6.4,-0.6 -0.7,2.1 1.7,2.7 4.6,3.3 2.9,0.4 7.6,4.3 3.9,8.7 z"
     id="path7" />
  <metadata
     id="metadata11">
    <rdf:RDF>
      <cc:Work
         rdf:about="">
        <dc:title>Oakland Athletics cap logo</dc:title>
      </cc:Work>
    </rdf:RDF>
  </metadata>
</svg>
