<?xml version="1.0" encoding="UTF-8" standalone="no"?>
<svg
   viewBox="0 0 129.48025 179.72241"
   version="1.1"
   id="svg4"
   sodipodi:docname="CHW.svg"
   width="129.48026"
   height="179.72241"
   inkscape:version="1.4 (86a8ad7, 2024-10-11)"
   xmlns:inkscape="http://www.inkscape.org/namespaces/inkscape"
   xmlns:sodipodi="http://sodipodi.sourceforge.net/DTD/sodipodi-0.dtd"
   xmlns="http://www.w3.org/2000/svg"
   xmlns:svg="http://www.w3.org/2000/svg"
   xmlns:rdf="http://www.w3.org/1999/02/22-rdf-syntax-ns#"
   xmlns:cc="http://creativecommons.org/ns#"
   xmlns:dc="http://purl.org/dc/elements/1.1/">
  <defs
     id="defs4" />
  <sodipodi:namedview
     id="namedview4"
     pagecolor="#ffffff"
     bordercolor="#000000"
     borderopacity="0.25"
     inkscape:showpageshadow="2"
     inkscape:pageopacity="0.0"
     inkscape:pagecheckerboard="0"
     inkscape:deskcolor="#d1d1d1"
     inkscape:zoom="4.750866"
     inkscape:cx="97.982136"
     inkscape:cy="105.98068"
     inkscape:window-width="3440"
     inkscape:window-height="1377"
     inkscape:window-x="-8"
     inkscape:window-y="-8"
     inkscape:window-maximized="1"
     inkscape:current-layer="svg4" />
  <title
     id="title1">Chicago White Sox hat dark logo</title>
  <path
     id="path5"
     style="fill:#ffffff"
     sodipodi:type="inkscape:offset"
     inkscape:radius="5.2621984"
     inkscape:original="M 49.058594 2.890625 C 35.044594 2.890625 27.871969 9.3552656 21.167969 16.572266 C 17.077969 20.917266 12.988875 29.853594 12.421875 35.683594 C 12.236875 37.637594 12.138672 39.462578 12.138672 41.142578 C 12.138672 47.099578 13.3295 51.620328 15.9375 55.986328 C 19.2625 61.533328 24.579969 66.113516 31.292969 69.228516 C 38.426969 72.548516 47.992969 76.835859 49.042969 77.255859 C 50.995969 78.055859 53.963094 79.667813 54.746094 80.507812 C 53.730094 81.249813 45.898391 86.932203 45.400391 87.283203 C 40.254391 85.613203 32.159281 86.551125 29.863281 87.078125 C 23.071281 88.698125 16.880969 91.729766 12.417969 95.634766 C 7.9559688 99.531766 4.5322656 104.06223 3.4472656 107.49023 C 2.4672656 110.59623 2.5785313 112.63622 3.7695312 113.57422 C 4.9215312 114.46222 6.7878906 114.08141 9.4628906 112.44141 C 12.319891 110.62441 18.262297 106.89597 25.654297 105.79297 C 31.137297 104.99297 36.634484 105.61658 40.771484 106.64258 C 40.771484 106.64258 43.955609 107.61741 46.474609 109.31641 L 46.474609 118.78906 C 46.044609 119.17906 43.794922 121.22852 43.794922 121.22852 C 43.417922 121.59052 43.277344 122.08836 43.277344 122.56836 C 43.277344 122.85036 43.327063 123.11561 43.414062 123.34961 C 43.619062 123.89661 44.160156 124.17969 44.160156 124.17969 L 72.013672 141.14258 C 72.013672 141.14258 78.625203 136.10261 79.783203 135.22461 C 80.236203 135.97661 80.813 136.9347 81.125 137.4707 C 80.519 138.2037 73.385953 146.92405 72.501953 147.99805 L 66.28125 142.44141 C 64.73325 141.01541 63.520312 141.22161 62.945312 141.47461 C 61.890313 141.95261 61.291016 143.19511 61.291016 144.91211 L 61.291016 160.78125 L 70.587891 169.66797 C 72.072891 171.13297 73.351734 171.37813 74.177734 171.32812 C 75.094734 171.27013 75.939922 170.8103 76.544922 170.0293 C 76.544922 170.0293 87.295516 156.21995 90.103516 152.62695 L 100.40625 168.55469 L 100.71875 169.16992 C 101.17875 170.17592 101.87597 171.65948 103.29297 172.02148 C 104.18097 172.25548 105.17642 171.98289 106.23242 171.21289 C 109.26242 169.01489 116.23289 163.55436 117.21289 162.56836 L 117.45312 162.33203 C 118.13613 161.64903 118.67773 161.11297 118.67773 160.29297 L 118.67773 143.94531 C 118.67773 143.17331 118.24453 142.1977 117.39453 141.8457 C 116.83453 141.5917 115.90995 141.54106 114.75195 142.66406 C 114.81195 142.60606 109.14261 146.89584 107.22461 148.33984 L 101.18359 138.72852 C 101.81859 137.94852 113.16616 123.6133 114.03516 122.5293 C 114.90516 123.2223 117.33594 125.12695 117.33594 125.12695 C 118.56594 125.93695 119.57281 126.10377 120.38281 125.63477 C 121.81981 124.83477 121.74242 122.39238 121.73242 122.10938 L 121.73242 109.43359 L 113.83594 101.25977 C 113.20194 100.54677 112.38063 100.20467 111.51562 100.26367 C 110.61362 100.34167 109.75862 100.8772 109.26562 101.6582 C 108.84562 102.3232 102.74208 109.95997 98.455078 115.29297 C 97.335078 114.40497 95.75625 113.75956 94.90625 113.47656 L 94.90625 92.060547 C 95.18925 91.768547 96.990234 89.931641 96.990234 89.931641 C 97.293234 89.667641 98.503906 88.271406 98.503906 86.816406 C 98.503906 86.523406 98.461516 86.259328 98.353516 85.986328 C 97.899516 84.766328 96.484156 84.150391 94.160156 84.150391 C 94.120156 84.150391 93.387453 84.220109 92.689453 84.287109 C 94.403453 80.391109 94.901453 76.222438 94.939453 73.273438 C 94.939453 73.077438 94.945313 72.883266 94.945312 72.697266 C 94.945312 67.317266 93.739562 62.813172 91.351562 59.326172 C 88.456563 55.098172 86.396188 53.790578 82.992188 51.642578 L 82.074219 51.046875 C 78.139219 48.536875 57.012375 37.433844 56.109375 36.964844 C 56.094375 36.954844 48.033203 32.960938 48.033203 32.960938 C 41.685203 29.746938 40.669922 26.953859 40.669922 24.630859 C 40.669922 24.522859 40.669688 24.425359 40.679688 24.318359 C 40.737687 22.404359 43.486484 18.662109 48.271484 18.662109 C 51.591484 18.662109 54.101906 18.771156 58.628906 20.285156 C 64.502906 22.257156 67.353516 25.109625 67.353516 29.015625 C 67.347516 29.035625 67.251953 30.410156 67.251953 30.410156 L 77.046875 37.101562 L 93.609375 15.820312 L 81.859375 7.9609375 L 81.40625 8.4101562 C 78.88125 10.948156 78.779984 10.918859 76.083984 10.380859 C 75.371984 10.235859 73.857828 9.6398906 71.923828 8.8378906 C 66.416828 6.6198906 57.188594 2.890625 49.058594 2.890625 z M 49.056641 4.4433594 C 56.888641 4.4433594 65.936563 8.0952031 71.351562 10.283203 C 73.421562 11.123203 74.931156 11.748297 75.785156 11.904297 C 78.748156 12.491297 79.536016 12.384172 82.041016 9.9511719 C 82.911016 10.538172 90.224187 15.421359 91.367188 16.193359 C 90.434187 17.383359 77.523125 33.956953 76.703125 35.001953 C 75.721125 34.318953 69.486328 30.070859 68.861328 29.630859 C 68.881328 29.366859 68.896484 29.082031 68.896484 29.082031 C 68.896484 24.424031 65.610328 20.997547 59.111328 18.810547 C 54.374328 17.227547 51.634625 17.109375 48.265625 17.109375 C 42.435625 17.109375 39.213953 21.758047 39.126953 24.248047 C 38.969953 28.282047 41.507031 31.407937 47.332031 34.335938 L 55.404297 38.349609 C 55.604297 38.447609 77.358234 49.882516 81.240234 52.353516 L 82.160156 52.939453 C 85.503156 55.077453 87.364078 56.230078 90.080078 60.205078 C 92.354078 63.545078 93.477766 67.939953 93.384766 73.251953 C 93.340766 76.357953 92.852109 80.868688 90.787109 84.804688 L 90.126953 86.064453 L 94.234375 85.695312 C 95.704375 85.695312 96.700391 86.005625 96.900391 86.515625 C 97.154391 87.207625 96.294656 88.486531 95.972656 88.769531 L 93.292969 91.494141 L 93.349609 91.748047 L 93.349609 114.61719 L 93.912109 114.77539 C 95.142109 115.15539 97.325781 116.03547 97.925781 116.85547 L 98.525391 117.68555 L 99.150391 116.87695 C 100.26039 115.51895 109.94812 103.47547 110.57812 102.48047 C 110.81212 102.11047 111.22858 101.84617 111.64258 101.82617 C 112.01958 101.77817 112.36564 101.95388 112.68164 102.29688 C 112.68164 102.29688 119.09364 108.94731 120.18164 110.07031 L 120.18164 122.33398 C 120.18164 123.08598 120.00633 124.07388 119.61133 124.29688 C 119.37133 124.43388 118.85523 124.26742 118.24023 123.85742 L 113.79297 120.36133 L 99.294922 138.62109 L 106.80859 150.61523 L 115.75391 143.83789 C 116.31591 143.30089 116.64892 143.21248 116.79492 143.27148 C 116.98092 143.33948 117.13086 143.69131 117.13086 143.94531 L 117.13086 160.29297 C 117.13086 160.46897 116.77938 160.82947 116.35938 161.23047 L 116.125 161.4668 C 115.251 162.3468 108.49222 167.65717 105.32422 169.95117 C 104.65922 170.44117 104.10383 170.6263 103.67383 170.5293 C 102.97083 170.3533 102.47795 169.28958 102.12695 168.51758 L 101.7168 167.71875 L 90.226562 149.95312 L 75.324219 169.07617 C 75.089219 169.37817 74.683984 169.73911 74.083984 169.78711 C 73.350984 169.83711 72.530547 169.40813 71.685547 168.57812 C 71.685547 168.57812 63.301891 160.56009 62.837891 160.12109 L 62.837891 144.91406 C 62.837891 143.67406 63.213313 143.0693 63.570312 142.9043 C 63.960313 142.7373 64.590234 142.99242 65.240234 143.60742 C 65.254234 143.61742 72.681641 150.23633 72.681641 150.23633 L 83.013672 137.59961 L 80.216797 132.94141 C 80.216797 132.94141 72.668016 138.69353 71.916016 139.26953 C 71.042016 138.76153 44.928953 122.82469 44.876953 122.80469 C 44.846953 122.73669 44.826172 122.66731 44.826172 122.57031 C 44.826172 122.47031 44.846531 122.36541 44.894531 122.31641 L 48.023438 119.47461 L 48.029297 119.13281 L 48.029297 108.44922 L 47.669922 108.22461 C 45.563922 106.86761 43.859266 105.88014 40.822266 105.11914 C 35.692266 103.80914 29.6465 103.58553 25.4375 104.26953 C 17.7275 105.49953 11.584531 109.27 8.6445312 111.125 C 5.8125313 112.883 4.92475 112.50294 4.71875 112.33594 C 4.28875 112.00594 4.0796875 110.65694 4.9296875 107.96094 C 5.9066875 104.84494 9.2514531 100.45183 13.439453 96.798828 C 17.722453 93.058828 23.679656 90.148703 30.222656 88.595703 C 32.795656 87.990703 40.788453 87.208844 45.314453 88.839844 L 45.705078 88.986328 L 46.037109 88.742188 L 46.037109 88.740234 L 56.572266 81.085938 L 56.572266 80.705078 C 56.450266 78.937078 51.406906 76.593266 49.628906 75.822266 C 48.618906 75.392266 38.916359 71.066984 31.943359 67.833984 C 25.513359 64.845984 20.433625 60.460266 17.265625 55.197266 C 14.960625 51.329266 12.944844 46.320797 13.964844 35.841797 C 14.486844 30.381797 18.460688 21.721906 22.304688 17.628906 C 28.759688 10.673906 35.667641 4.4433594 49.056641 4.4433594 z "
     d="m 49.058594,-2.3710938 c -15.621411,0 -24.820755,7.9100153 -31.730469,15.3457028 -5.354256,5.692693 -9.39212,14.462786 -10.1445313,22.199219 a 5.2627247,5.2627247 0 0 0 0,0.01367 c -0.1975089,2.086121 -0.3066406,4.070013 -0.3066406,5.955078 0,6.65829 1.4765121,12.409476 4.5429689,17.542969 a 5.2627247,5.2627247 0 0 0 0.0039,0.0059 c 3.940241,6.573388 10.117213,11.813151 17.654297,15.310547 3.595929,1.673422 7.780897,3.579539 11.208984,5.125 2.315574,1.043915 3.335555,1.484789 4.591797,2.035156 -0.251098,0.18196 -0.500809,0.363462 -0.697265,0.50586 -6.285177,-1.290523 -12.370847,-0.436087 -15.496094,0.28125 a 5.2627247,5.2627247 0 0 0 -0.04297,0.0098 C 21.111302,83.755314 14.21514,87.069713 8.953125,91.673828 3.9752369,96.021945 0.07284133,100.71089 -1.5703125,105.90234 a 5.2627247,5.2627247 0 0 0 0,0.004 c -0.6066666,1.92276 -0.9972868,3.72001 -0.890625,5.71875 0.1066618,1.99874 0.9849506,4.51698 2.97460937,6.08398 a 5.2627247,5.2627247 0 0 0 0.0429687,0.0332 c 1.95234978,1.50493 4.60395958,1.75697 6.52148438,1.37304 1.9175248,-0.38393 3.48708,-1.17733 5.134766,-2.1875 a 5.2627247,5.2627247 0 0 0 0.07422,-0.0469 c 2.818546,-1.79254 8.054158,-4.97132 14.138672,-5.88086 4.53387,-0.65943 9.363746,-0.13713 12.91211,0.72461 0.05816,0.0202 1.140409,0.57169 1.875,0.87305 v 3.86523 c -0.387052,0.35254 -0.960938,0.875 -0.960938,0.875 a 5.2627247,5.2627247 0 0 0 -0.101562,0.0957 c -1.644172,1.57876 -2.134766,3.62734 -2.134766,5.13477 0,0.90051 0.155353,1.77755 0.466797,2.61523 a 5.2627247,5.2627247 0 0 0 0.0039,0.0137 c 1.063483,2.83768 3.234375,3.64453 3.234375,3.64453 l -0.296875,-0.16797 16.695313,10.16797 c -1.445405,1.79427 -2.089844,4.08457 -2.089844,6.07031 v 15.86914 a 5.2627247,5.2627247 0 0 0 1.625,3.80469 l 9.296875,8.88672 -0.05859,-0.0586 c 2.351299,2.31963 5.414943,3.29852 7.603516,3.16602 a 5.2627247,5.2627247 0 0 0 0.01367,0 c 2.462398,-0.15572 4.749673,-1.46194 6.195312,-3.32813 0.0081,-0.0104 4.995267,-6.41266 9,-11.55273 l 6.132813,9.48242 0.189453,0.37109 -0.09375,-0.19531 c 0.481904,1.05391 1.700048,4.63533 6.041016,5.75391 2.7905,0.72551 5.51229,-0.30108 7.35742,-1.64649 1.63918,-1.1894 4.13193,-3.10049 6.41016,-4.89062 1.14088,-0.89645 2.21764,-1.75554 3.0957,-2.47266 0.87806,-0.71712 1.37566,-1.08797 2.10742,-1.82422 l 0.19727,-0.19336 a 5.2627247,5.2627247 0 0 0 0.0312,-0.0312 c 0.33648,-0.33647 0.85839,-0.79736 1.48633,-1.71289 0.62793,-0.91552 1.27929,-2.47833 1.27929,-4.04687 v -16.34766 c 0,-2.71389 -1.08426,-5.4725 -4.44726,-6.91015 -1.92617,-0.83392 -4.89102,-0.41589 -7.11914,0.96093 -0.1207,0.055 -0.25648,0.1117 -0.28907,0.13086 -0.11573,0.0681 -0.16543,0.10179 -0.20703,0.12891 -0.16637,0.10848 -0.17077,0.11636 -0.19922,0.13672 -0.0569,0.0407 -0.0766,0.0568 -0.10546,0.0781 -0.0578,0.0427 -0.12041,0.088 -0.20118,0.14844 -0.16154,0.12094 -0.38757,0.29222 -0.66601,0.50195 -0.53869,0.40577 -1.28185,0.96659 -2.07617,1.56641 l -1.00782,-1.60547 c 1.22078,-1.53757 2.11743,-2.66285 4.02539,-5.07031 1.55586,-1.96317 2.12301,-2.67818 3.33985,-4.21289 2.09585,1.1837 5.31073,1.93657 7.99805,0.40234 2.70169,-1.52836 3.44787,-3.9536 3.76171,-5.42578 0.31575,-1.48112 0.25305,-2.65492 0.2461,-2.85156 l 0.002,0.18555 v -12.67579 a 5.2627247,5.2627247 0 0 0 -1.47656,-3.65625 l -7.89649,-8.173824 0.14649,0.160156 c -1.57816,-1.774811 -4.14096,-2.918364 -6.60938,-2.75 a 5.2627247,5.2627247 0 0 0 -0.0957,0.0078 c -2.67732,0.23152 -4.86677,1.643031 -6.24609,3.828125 0.53635,-0.849386 -0.27732,0.35693 -0.95899,1.228521 -0.68234,0.87244 -1.61376,2.04776 -2.66601,3.37109 -0.315,0.39614 -0.68967,0.86056 -1.02344,1.2793 V 94.207031 c 0.21655,-0.221027 0.58008,-0.591797 0.58008,-0.591797 l -0.30078,0.283203 c 0.99854,-0.870018 1.27633,-1.294877 1.91796,-2.357421 0.64164,-1.062545 1.40039,-2.537592 1.4004,-4.72461 0,-0.784192 -0.16356,-1.80793 -0.50977,-2.708984 -0.70355,-1.842944 -2.27365,-3.277027 -3.826173,-4.06836 0.496738,-2.474159 0.746953,-4.793527 0.771483,-6.697265 a 5.2627247,5.2627247 0 0 0 0,-0.06836 c 0,-0.09111 0.006,-0.279627 0.006,-0.576171 0,-6.166233 -1.398636,-11.795122 -4.513671,-16.34375 -3.264952,-4.768299 -6.480238,-7.0084 -9.886718,-9.158204 l -0.867188,-0.5625 a 5.2627247,5.2627247 0 0 0 -0.03516,-0.02148 c -1.459761,-0.931131 -5.190073,-2.910124 -8.228516,-4.578125 a 5.2627247,5.2627247 0 0 0 4.523438,-1.699219 l 16.5625,-21.28125 a 5.2627247,5.2627247 0 0 0 -1.226563,-7.605468 l -11.75,-7.8593754 a 5.2627247,5.2627247 0 0 0 -6.630859,0.6367188 l -0.453125,0.4492187 a 5.2627247,5.2627247 0 0 0 -0.02539,0.025391 C 77.373854,5.0027006 77.301029,5.043386 77.105469,5.2128906 77.674804,5.3252212 75.810435,4.75243 73.939453,3.9765625 a 5.2627247,5.2627247 0 0 0 -0.04883,-0.019531 C 68.389981,1.7415911 58.797789,-2.3710938 49.058594,-2.3710938 Z m -0.002,12.0761719 c 6.196255,0 14.911329,3.2698839 20.324218,5.4570309 2.042287,0.829296 3.238106,1.508671 5.44336,1.914063 1.61578,0.320157 3.495663,0.69111 5.738281,0.03516 0.614232,-0.179659 1.054214,-0.505388 1.564453,-0.771484 0.649833,0.434594 0.893226,0.599945 1.611328,1.080078 -2.958173,3.794335 -5.518968,7.077476 -8.144531,10.445312 -0.757123,-0.517646 -1.100272,-0.755708 -1.671875,-1.146484 -0.486063,-2.733136 -1.765626,-5.332348 -3.673828,-7.332031 -2.453537,-2.571162 -5.676242,-4.29151 -9.458985,-5.564453 a 5.2627247,5.2627247 0 0 0 -0.0098,-0.002 c -5.240813,-1.751363 -9.02162,-1.972657 -12.513672,-1.972657 -4.313641,0 -7.953446,1.799174 -10.355469,4.089844 -2.397611,2.286463 -3.917428,4.722984 -4.041015,8.109375 -0.12234,3.169284 0.99741,6.474315 3.033203,8.978516 2.036613,2.50521 4.756432,4.347923 8.066406,6.011718 a 5.2627247,5.2627247 0 0 0 0.01953,0.0098 l 8.072266,4.013672 a 5.2627247,5.2627247 0 0 0 0.02734,0.01367 c -0.603117,-0.295527 -0.01332,-0.0058 0.154296,0.08203 0.167621,0.08783 0.411631,0.216364 0.720704,0.378906 0.618144,0.325084 1.497389,0.788936 2.558593,1.34961 2.122409,1.121346 4.975321,2.632341 7.939453,4.216796 5.928266,3.168911 12.666444,6.872398 13.953125,7.691407 v -0.002 l 0.919922,0.585937 -0.0098,-0.0039 c 3.36549,2.152383 4.058304,2.360138 6.408203,5.798828 7.33e-4,0.0011 0.0012,8.79e-4 0.002,0.002 1.516758,2.231341 2.46772,5.471249 2.388672,9.986328 a 5.2627247,5.2627247 0 0 0 0,0.01758 c -0.03721,2.626394 -0.540853,6.407875 -1.996094,9.181641 a 5.2627247,5.2627247 0 0 0 0,0.002 l -0.660156,1.259766 a 5.2627247,5.2627247 0 0 0 3.320312,6.816406 5.2627247,5.2627247 0 0 0 -0.630859,2.203125 l -0.06836,-0.3125 v 22.289065 a 5.2627247,5.2627247 0 0 0 3.83789,5.0664 l 0.458985,0.12891 c 0.364528,0.11408 1.043178,0.3668 1.501953,0.58594 0.462292,0.22081 0.730381,0.84217 -0.205078,-0.43164 l 0.578125,0.80078 a 5.2627247,5.2627247 0 0 0 8.429684,0.13672 l 0.625,-0.8086 c 0.68171,-0.83544 3.23278,-4.00261 5.8418,-7.26953 1.03986,-1.30207 1.98376,-2.49269 2.87695,-3.62304 1.27001,1.31687 1.83068,1.89824 2.88672,2.99218 v 3.42969 a 5.2627247,5.2627247 0 0 0 -5.24804,1.46484 l -14.498052,18.25977 a 5.2627247,5.2627247 0 0 0 -0.337891,6.06445 l 7.513673,11.99414 a 5.2627247,5.2627247 0 0 0 7.63672,1.40039 l 1.88281,-1.42578 v 4.81055 c -0.2323,0.20161 -0.24628,0.21521 -0.68164,0.57031 -0.76819,0.62657 -1.7749,1.42999 -2.85352,2.27735 -1.10665,0.86938 -2.03217,1.54989 -3.12695,2.38476 L 94.644531,147.0957 a 5.2627247,5.2627247 0 0 0 -8.568359,-0.37695 l -12.654297,16.23828 c -1.668299,-1.59583 -3.559569,-3.40259 -5.322266,-5.08594 v -4.66992 c 0.268879,0.2396 1.082032,0.96289 1.082032,0.96289 a 5.2627247,5.2627247 0 0 0 7.574218,-0.59765 l 10.332032,-12.63672 a 5.2627247,5.2627247 0 0 0 0.4375,-6.03907 l -2.796875,-4.6582 a 5.2627247,5.2627247 0 0 0 -7.701172,-1.47656 c 0,0 -2.998497,2.28751 -5.447266,4.1543 -0.700977,-0.4249 -0.648001,-0.39287 -1.513672,-0.91993 -2.569999,-1.56472 -5.916542,-3.60396 -9.238281,-5.6289 -3.042416,-1.85467 -5.939975,-3.62097 -8.324219,-5.07422 a 5.2627247,5.2627247 0 0 0 0.78125,-1.72266 l 0.0059,-0.34179 a 5.2627247,5.2627247 0 0 0 0,-0.0898 v -10.68359 a 5.2627247,5.2627247 0 0 0 -2.472657,-4.46289 l -0.298828,-0.18555 c -2.213036,-1.42597 -4.785534,-2.87201 -8.40625,-3.78125 -5.947946,-1.517096 -12.347169,-1.783913 -17.519531,-0.943358 -3.064557,0.49026 -5.762894,1.357168 -8.261719,2.306638 0.214596,-0.19995 0.346019,-0.4269 0.566406,-0.61914 a 5.2627247,5.2627247 0 0 0 0.002,-0.002 c 3.478631,-3.037611 8.727427,-5.664662 14.527343,-7.04297 1.192461,-0.280388 9.937427,-0.706523 12.101563,0.07227 3.28e-4,1.18e-4 0.0016,-1.18e-4 0.002,0 l 0.326172,0.123046 a 5.2627247,5.2627247 0 0 0 4.964844,-0.6875 l 0.332031,-0.24414 a 5.2627247,5.2627247 0 0 0 2.144531,-4.240235 v 2.679688 l 8.367188,-6.078125 a 5.2627247,5.2627247 0 0 0 2.167968,-4.257813 V 80.705078 A 5.2627247,5.2627247 0 0 0 61.822266,80.34375 C 61.625852,77.497367 60.22188,76.334541 59.265625,75.447266 58.30937,74.559991 57.372024,73.945046 56.439453,73.382812 54.574311,72.258345 52.731147,71.431456 51.722656,70.994141 a 5.2627247,5.2627247 0 0 0 -0.0332,-0.01367 C 51.205757,70.774539 41.067966,66.265189 34.160156,63.0625 l -0.0039,-0.002 c -5.600303,-2.603301 -9.824699,-6.33253 -12.376953,-10.56836 -0.0016,-0.0027 -0.0042,-0.0051 -0.0059,-0.0078 C 19.8059,49.180338 18.265391,45.985398 19.203125,36.351562 a 5.2627247,5.2627247 0 0 0 0,-0.0098 c 0.331374,-3.466098 4.390225,-12.39905 6.9375,-15.111328 a 5.2627247,5.2627247 0 0 0 0.02148,-0.02148 C 32.409665,14.477497 37.300144,9.7050781 49.056641,9.7050781 Z M 48.271484,23.923828 c 3.204774,0 4.643378,-9.45e-4 8.6875,1.351563 2.451737,0.823697 3.903413,1.758474 4.513672,2.36914 0.596829,0.597227 0.604779,0.707635 0.605469,1.339844 -0.0085,0.116051 -0.01817,0.234436 -0.02734,0.363281 -0.02505,0.351887 -0.04883,0.697266 -0.04883,0.697266 a 5.2627247,5.2627247 0 0 0 2.28125,4.710937 l 3.585938,2.449219 c -4.317086,-2.28191 -8.83303,-4.649971 -9.333985,-4.910156 l 0.492188,0.291015 c -1.17e-4,-7.8e-5 -0.494397,-0.291832 -0.515625,-0.302734 -0.02123,-0.0109 -0.02938,-0.01563 -0.03711,-0.01953 -0.01545,-0.0078 -0.02429,-0.01214 -0.03516,-0.01758 -0.02173,-0.01087 -0.04663,-0.02338 -0.07813,-0.03906 -0.06298,-0.03135 -0.15195,-0.07538 -0.263672,-0.130859 -0.223443,-0.110953 -0.538647,-0.266963 -0.917969,-0.455078 -0.758643,-0.376232 -1.768559,-0.876991 -2.777343,-1.376953 -1.997209,-0.989835 -3.952121,-1.958665 -3.992188,-1.978516 -2.726802,-1.380583 -3.876283,-2.492716 -4.236328,-2.970703 -0.165233,-0.21936 -0.08983,-0.24971 -0.111328,-0.304688 0.05249,-0.120969 0.06134,-0.21665 0.179687,-0.324218 0.43876,-0.398786 1.008616,-0.742188 2.029297,-0.742188 z m -2.332031,0.554688 c -0.0044,0.145845 -0.0011,0.05622 -0.0059,0.158203 1.7e-5,-0.0034 -0.002,-0.0024 -0.002,-0.0059 0,-0.115601 0.0065,-0.01772 -0.01172,0.177735 a 5.2627247,5.2627247 0 0 0 0.01953,-0.330078 z"
     transform="translate(2.4784596,2.3710938)" />
  <path
     d="m 21.60846,16.971094 c -4.52,4.814 -8.88,14.365 -9.51,20.83 -0.2,2.06 -0.303,3.994 -0.303,5.79 0,6.485 1.328,11.456 4.228,16.3 3.628,6.045 9.37,11.025 16.622,14.394 6.835,3.174 16.674,7.588 17.856,8.057 0.4,0.167 0.913,0.42 1.475,0.694 -2.26,1.62 -3.59,2.588 -4.66,3.37 -6.088,-1.397 -13.744,-0.323 -15.526,0.107 -7.24,1.71 -13.882,4.972 -18.69,9.18 -4.9040004,4.298 -8.5900004,9.219996 -9.8350004,13.183996 -1.387,4.414 -0.938,7.54 1.333,9.307 3.344,2.608 7.6660004,-0.058 9.0770004,-0.946 2.91,-1.836 8.27,-5.196 15.03,-6.21 5.868,-0.87 13.75,-0.06 17.382,2.294 v 6.416 c -0.885,0.79 -1.808,1.65 -1.808,1.65 -0.908,0.898 -1.4,2.148 -1.4,3.447 0,0.597 0.106,1.212 0.326,1.798 0.605,1.65 1.992,2.344 1.992,2.344 11.68,7.11 11.68,7.11 19.54,11.914 -0.116,0.04 -0.34,0.05 -0.428,0.098 -1.04,0.45 -3.443,1.953 -3.443,6.142 v 17.1 l 10.16,9.707 c 2.25,2.256 4.434,2.637 5.874,2.54 1.773,-0.11 3.384,-0.978 4.527,-2.443 0,0 6.768,-8.69 10.967,-14.062 3.1,4.805 7.994,12.383 7.994,12.383 -0.048,-0.097 0.118,0.255 0.118,0.255 0.566,1.22 1.748,3.76 4.526,4.472 1.23,0.323 3.174,0.362 5.435,-1.29 3.036,-2.206 10.1,-7.723 11.317,-8.924 l 0.22,-0.235 c 0.845,-0.82 2.114,-2.08 2.114,-4.14 v -16.33 c 0,-1.756 -0.94,-3.973 -3.1,-4.852 -1.577,-0.625 -3.383,-0.625 -5.527,1.142 -0.967,0.772 -2.602,1.954 -4.99,3.77 -1.392,-2.217 -2.13,-3.398 -3.18,-5.068 2.057,-2.588 6.94,-8.75 9.684,-12.198 0.347,0.274 1.06,0.85 1.06,0.85 l 0.12,0.078 c 2.877,1.914 5.065,1.2 6.12,0.606 2.846,-1.612 2.905,-5.196 2.856,-6.27 l 0.005,-13.69 -8.633,-8.956 c -1.25,-1.397 -3.008,-2.129996 -4.8,-1.982996 -1.83,0.147 -3.525,1.191996 -4.526,2.773996 -0.465,0.674 -4.57,5.83 -8.83,11.133 V 95.580094 c 0.523,-0.537 1.07,-1.084 1.07,-1.084 0.777,-0.684 2.525,-2.842 2.525,-5.38 0,-0.607 -0.093,-1.232 -0.332,-1.867 -0.498,-1.318 -1.7,-2.832 -4.34,-3.457 0.775,-2.988 1.078,-5.888 1.117,-8.134 0.005,-0.206 0.01,-0.41 0.01,-0.625 0,-5.987 -1.382,-11.036 -4.117,-15.02 -3.232,-4.727 -5.747,-6.318 -9.213,-8.525 l -0.894,-0.567 c -4.038,-2.578 -25.244,-13.71 -26.143,-14.21 -0.073,-0.028 -8.13,-4.012 -8.13,-4.012 -5.317,-2.686 -5.688,-4.57 -5.688,-5.586 v -0.186 c 0.122,-0.614 1.568,-2.85 4.605,-2.85 3.105,0 5.293,0.087 9.39,1.474 6.484,2.178 6.674,4.815 6.674,5.79 -0.005,0.245 -0.21,2.98 -0.21,2.98 l 13.5,9.218 20.237,-25.963 -16.43,-10.9850003 -2.18,2.1670001 c -0.726,0.742 -1.18,1.152 -1.45,1.3380002 -0.32,-0.04 -1.17,-0.1860002 -1.17,-0.1860002 l -3.63,-1.379 c -5.7,-2.3120001 -15.252,-6.16 -23.933,-6.16 -15.187,0 -23.167,7.2169999 -30.037,14.6000002 z"
     fill="#ffffff"
     id="path1" />
  <path
     d="m 23.64546,18.944094 c -4.09,4.345 -8.178,13.28 -8.745,19.11 -0.185,1.954 -0.283,3.78 -0.283,5.46 0,5.957 1.19,10.478 3.798,14.844 3.325,5.547 8.643,10.127 15.356,13.242 7.134,3.32 16.7,7.606 17.75,8.026 1.953,0.8 4.92,2.412 5.703,3.252 -1.016,0.742 -8.848,6.426 -9.346,6.777 -5.146,-1.67 -13.24,-0.732 -15.536,-0.205 -6.792,1.62 -12.984,4.65 -17.447,8.555 -4.462,3.896996 -7.8850004,8.427996 -8.9700004,11.855996 -0.98,3.106 -0.868,5.147 0.323,6.085 1.152,0.888 3.018,0.507 5.6930004,-1.133 2.857,-1.817 8.8,-5.547 16.192,-6.65 5.483,-0.8 10.98,-0.176 15.117,0.85 0,0 3.184,0.976 5.703,2.675 v 9.472 c -0.43,0.39 -2.68,2.44 -2.68,2.44 -0.377,0.362 -0.518,0.86 -0.518,1.34 0,0.282 0.05,0.546 0.137,0.78 0.205,0.547 0.747,0.83 0.747,0.83 l 27.852,16.963 c 0,0 6.612,-5.04 7.77,-5.918 0.453,0.752 1.03,1.71 1.342,2.246 -0.606,0.733 -7.74,9.454 -8.624,10.528 l -6.22,-5.556 c -1.548,-1.426 -2.76,-1.22 -3.335,-0.967 -1.055,0.478 -1.655,1.72 -1.655,3.437 v 15.87 l 9.296,8.886 c 1.485,1.465 2.764,1.71 3.59,1.66 0.917,-0.058 1.762,-0.517 2.367,-1.298 0,0 10.752,-13.81 13.56,-17.403 l 10.303,15.928 0.312,0.615 c 0.46,1.006 1.157,2.49 2.574,2.852 0.888,0.234 1.884,-0.04 2.94,-0.81 3.03,-2.198 10,-7.657 10.98,-8.643 l 0.24,-0.236 c 0.683,-0.683 1.225,-1.22 1.225,-2.04 v -16.348 c 0,-0.772 -0.434,-1.748 -1.284,-2.1 -0.56,-0.254 -1.484,-0.303 -2.642,0.82 0.06,-0.058 -5.61,4.23 -7.528,5.674 l -6.04,-9.61 c 0.635,-0.78 11.983,-15.116 12.852,-16.2 0.87,0.693 3.3,2.597 3.3,2.597 1.23,0.81 2.237,0.977 3.047,0.508 1.437,-0.8 1.36,-3.242 1.35,-3.525 v -12.676 l -7.897,-8.174 c -0.634,-0.713 -1.455,-1.055 -2.32,-0.996 -0.902,0.078 -1.757,0.615 -2.25,1.396 -0.42,0.665 -6.523,8.3 -10.81,13.633 -1.12,-0.888 -2.7,-1.533 -3.55,-1.816 V 94.431094 c 0.283,-0.292 2.085,-2.128 2.085,-2.128 0.303,-0.264 1.513,-1.66 1.513,-3.115 0,-0.293 -0.042,-0.557 -0.15,-0.83 -0.454,-1.22 -1.87,-1.836 -4.194,-1.836 -0.04,0 -0.772,0.07 -1.47,0.137 1.714,-3.896 2.212,-8.066 2.25,-11.015 0,-0.196 0.006,-0.39 0.006,-0.576 0,-5.38 -1.206,-9.883 -3.594,-13.37 -2.895,-4.228 -4.956,-5.537 -8.36,-7.685 l -0.917,-0.595 c -3.935,-2.51 -25.063,-13.613 -25.966,-14.082 -0.015,-0.01 -8.076,-4.004 -8.076,-4.004 -6.348,-3.214 -7.363,-6.007 -7.363,-8.33 0,-0.108 0,-0.206 0.01,-0.313 0.058,-1.914 2.807,-5.655 7.592,-5.655 3.32,0 5.83,0.108 10.357,1.622 5.874,1.972 8.725,4.824 8.725,8.73 -0.006,0.02 -0.103,1.396 -0.103,1.396 l 9.795,6.69 16.564,-21.281 -11.75,-7.86 -0.453,0.45 c -2.525,2.538 -2.627,2.508 -5.323,1.97 -0.712,-0.145 -2.226,-0.74 -4.16,-1.542 -5.507,-2.2180002 -14.736,-5.9480002 -22.866,-5.9480002 -14.014,0 -21.186,6.4660002 -27.89,13.6830002 z m 24.87,72.168 10.536,-7.656 v -0.38 c -0.122,-1.768 -5.166,-4.112 -6.944,-4.883 -1.01,-0.43 -10.713,-4.755 -17.686,-7.988 -6.43,-2.988 -11.51,-7.373 -14.678,-12.636 -2.305,-3.868 -4.32,-8.877 -3.3,-19.356 0.522,-5.46 4.496,-14.12 8.34,-18.213 6.455,-6.955 13.363,-13.1850002 26.752,-13.1850002 7.832,0 16.88,3.6520002 22.295,5.8400002 2.07,0.84 3.58,1.464 4.434,1.62 2.963,0.587 3.75,0.48 6.255,-1.953 0.87,0.587 8.183,5.47 9.326,6.242 -0.933,1.19 -13.843,17.763 -14.663,18.808 -0.982,-0.683 -7.217,-4.93 -7.842,-5.37 0.02,-0.264 0.034,-0.548 0.034,-0.548 0,-4.658 -3.286,-8.086 -9.785,-10.273 -4.737,-1.583 -7.476,-1.7 -10.845,-1.7 -5.83,0 -9.053,4.648 -9.14,7.138 -0.157,4.034 2.382,7.16 8.207,10.088 l 8.072,4.014 c 0.2,0.098 21.953,11.533 25.835,14.004 l 0.92,0.586 c 3.343,2.138 5.204,3.29 7.92,7.265 2.274,3.34 3.397,7.735 3.304,13.047 -0.044,3.106 -0.532,7.617 -2.597,11.553 l -0.66,1.26 4.107,-0.37 c 1.47,0 2.466,0.31 2.666,0.82 0.254,0.692 -0.606,1.972 -0.928,2.255 l -2.68,2.724 0.058,0.254 v 22.869996 l 0.562,0.158 c 1.23,0.38 3.413,1.26 4.013,2.08 l 0.6,0.83 0.626,-0.81 c 1.11,-1.358 10.797,-13.4 11.427,-14.395 0.234,-0.37 0.65,-0.634 1.064,-0.654 0.377,-0.048 0.724,0.127 1.04,0.47 0,0 6.412,6.65 7.5,7.773 v 12.264 c 0,0.752 -0.175,1.74 -0.57,1.963 -0.24,0.137 -0.757,-0.03 -1.372,-0.44 l -4.448,-3.495 -14.498,18.26 7.515,11.994 8.945,-6.778 c 0.562,-0.537 0.894,-0.625 1.04,-0.566 0.186,0.068 0.337,0.42 0.337,0.674 v 16.347 c 0,0.176 -0.352,0.537 -0.772,0.938 l -0.234,0.235 c -0.874,0.88 -7.632,6.192 -10.8,8.486 -0.665,0.49 -1.222,0.675 -1.652,0.578 -0.703,-0.176 -1.196,-1.24 -1.547,-2.012 l -0.41,-0.8 -11.49,-17.765 -14.902,19.123 c -0.235,0.302 -0.64,0.664 -1.24,0.712 -0.733,0.05 -1.553,-0.38 -2.398,-1.21 0,0 -8.384,-8.018 -8.848,-8.457 v -15.206 c 0,-1.24 0.376,-1.845 0.733,-2.01 0.39,-0.167 1.02,0.087 1.67,0.702 0.014,0.01 7.44,6.63 7.44,6.63 l 10.333,-12.637 -2.798,-4.658 c 0,0 -7.548,5.752 -8.3,6.328 -0.874,-0.508 -26.988,-16.445 -27.04,-16.465 -0.03,-0.068 -0.05,-0.137 -0.05,-0.234 0,-0.1 0.02,-0.206 0.068,-0.255 l 3.13,-2.842 0.005,-0.342 v -10.682 l -0.36,-0.225 c -2.106,-1.357 -3.81,-2.344 -6.847,-3.105 -5.13,-1.31 -11.176,-1.534 -15.385,-0.85 -7.71,1.23 -13.852,5 -16.792,6.855 -2.8320004,1.758 -3.7200004,1.377 -3.9260004,1.21 -0.43,-0.33 -0.64,-1.678 0.21,-4.374 0.977,-3.116 4.3220004,-7.51 8.5100004,-11.162996 4.283,-3.74 10.24,-6.65 16.783,-8.203 2.573,-0.605 10.567,-1.387 15.093,0.244 l 0.39,0.147 0.333,-0.244 z"
     id="path2" />
  <g
     id="g3"
     transform="translate(2.4784596,2.3710938)" />
  <g
     id="g4"
     transform="translate(2.4784596,2.3710938)">
    <path
       d="m 118.92,122.393 v -11.63 l -7.264,-6.524 -20.122,24.98 -2.823,-4.503 c 2.448,-1.826 5.602,-4.19 5.954,-4.355 0.586,-0.293 2.036,-1.172 2.758,-1.172 0.66,0 -1.01,-2.9 -5.805,-2.9 V 90.585 l 2.758,-3.066 c 0,0 -3.354,0.537 -4.936,0.068 -0.338,-0.117 -0.91,-0.38 -1.593,-0.742 0.903,-1.436 1.714,-3.066 2.32,-4.98 3.3,-10.41 1.142,-20.02 -6.68,-25.948 C 78,51.768 55.46,40.362 55.46,40.362 c 0,0 -13.638,-6.68 -15.108,-8.164 -1.055,-1.045 -3.198,-2.676 -3.198,-7.842 0,-3.076 3.428,-6.455 4.907,-7.15 2.355,-1.122 3.12,-1.65 7.916,-1.727 2.705,-0.03 5.21,0.614 5.552,0.653 2.97,0.313 10.024,2.637 13.647,7.55 1.402,1.386 1.675,5.477 1.675,5.477 l 5.66,3.624 12.346,-16.123 -6.68,-4.5 C 80.287,14.21 76.665,14.336 75.2,13.614 73.75,12.881 61.29,8.34 59.522,7.784 56.182,6.709 48.922,5.918 45,6.504 c -3.92,0.567 -10.356,1.768 -15.4,7.11 -5.88,6.25 -5.952,11.25 -5.952,13.945 0,4.208 1.09,9.765 5.815,14.49 6.792,6.798 17.134,11.066 19.458,12.335 4.127,2.295 17.145,9.11 19.025,10.195 7.993,4.65 11.04,9.59 10.166,15.84 -0.038,0.303 -0.14,0.596 -0.204,0.88 -3.5,-2.042 -8.423,-5.147 -10.406,-7.13 0,0 -1.186,1.27 -1.948,2.03 l -5.8,4.357 c 0.683,-2.822 0.76,-7.647 0.64,-8.125 -0.142,-0.586 -0.582,-5.234 -4.644,-8.125 -2.76,-1.973 -8.93,-5.674 -14.234,-8.28 -2.275,-1.124 -9.682,-5.607 -13.213,-8.556 0,0 -6.107,-5.683 -7.045,-9.17 -1.816,-3.993 -1.89,-13.436 -0.952,-14.384 0,0 -2.32,2.618 -3.91,7.852 -0.787,2.55 -1.31,5.88 -1.31,8.135 0,3.77 0.66,10.38 4.786,15.976 1.825,2.46 4.69,5.263 7.718,7.265 3.706,2.43 7.432,3.867 7.676,4.053 1.02,0.732 10.61,4.775 11.475,5.214 0.873,0.43 5.272,2.49 6.205,2.98 3.305,1.776 5.005,2.9 6.055,5.73 l -9.942,7.433 c 0,0 0.44,0.79 0.44,2.03 v 0.95 c -1.338,-0.45 -2.706,-0.84 -4.063,-1.076 -6.533,-1.114 -10.513,-1.055 -15.684,0.234 -5.74,1.416 -11.766,3.73 -17.43,9.394 C 5.933,106.494 6,110.762 6,110.762 l 6.393,-3.76 c 5.342,-3.008 12.378,-4.795 17.358,-4.795 11.872,0 18.034,3.418 19.748,5.332 v 11.513 c 0,2.285 -0.684,2.578 -1.197,3.008 -0.19,0.167 -0.365,0.186 -1.05,0.655 0,0 0.87,0.322 1.085,0.547 0.586,0.43 23.194,14.092 23.194,14.092 l 8.754,-6.426 4.326,6.885 -12.022,14.93 -8.27,-7.547 v 14.082 l 9.432,8.72 16.67,-20.927 13.692,21.798 11.035,-8.858 v -13.935 l -8.862,6.67 -8.985,-14.317 16.245,-20.39 5.376,4.355 z M 62.5,91.026 l 5.157,-3.78 c 1.4,1.153 3.047,2.227 4.692,3.174 -0.113,0.088 -0.19,0.166 -0.19,0.166 0,0 -5.95,5.078 -9.66,5.615 v -5.174 z m 9.03,33.105 -9.03,-5.516 v -13.672 c 3.78,-0.674 13.013,-5.07 17.79,-9.844 0.062,0.89 0.038,10.03 0.018,16.22 l -5.537,-8.837 -8.446,6.016 v 10.743 l 4.673,-3.097 3.496,5.576 -2.964,2.41 z"
       id="path4" />
  </g>
  <metadata
     id="metadata5">
    <rdf:RDF>
      <cc:Work
         rdf:about="">
        <dc:title>Chicago White Sox hat dark logo</dc:title>
      </cc:Work>
    </rdf:RDF>
  </metadata>
</svg>
