<svg xmlns="http://www.w3.org/2000/svg" viewBox="0 0 281.098 192.163"><title>Cincinnati Reds primary dark logo</title><path d="M158.008 192.163c78.275 0 123.09-51.093 123.09-97.48C281.098 39.126 219.06 0 152.82 0 99.633 0 62.774 31.466 42.716 55.292 15.206 88.02 0 92.177 0 92.177c21.315 18.69 31.345 28.172 41.243 38.885 27.913 30.203 51.028 61.1 116.765 61.1z" fill="#C6011F"/><path d="M156.64 178.997c-56.86 0-79.222-24.394-105.558-52.355-10.79-11.47-17.553-21.815-35.032-34.73l3.594 8.315c16.805 13.755 23.752 23.688 34.543 35.15 26.34 27.982 48.314 49.987 105.174 49.987 49.794 0 88.326-24.604 106.453-54.88l-2.73-6.368c-18.124 30.287-56.656 54.88-106.444 54.88z"/><path d="M158.097 36.6c-55.617 0-77.45 36.97-77.45 54.67 0 10.25 3 19.302 8.083 26.985-3.326-6.25-4.12-15.66-4.12-21.753 0-17.72 21-53.408 75.386-53.408 32.697 0 57.37 15.102 65.662 28.194h41.185c-.763-1.495-2.594-6.483-2.594-6.483H224.92C216.635 51.692 190.805 36.6 158.097 36.6z"/><path d="M51.08 126.642c26.337 27.96 48.7 52.355 105.558 52.355 49.788 0 88.32-24.595 106.442-54.88H224.2c-18.196 13.816-40.485 24.972-68.815 24.972-26.16 0-53.47-10.914-66.656-30.835-5.084-7.682-8.083-16.733-8.083-26.984 0-17.7 21.832-54.67 77.45-54.67 32.707 0 58.537 15.092 66.825 28.205h39.327c-18.25-36-65.32-57.712-112.405-57.712-46.235 0-81.574 26.667-101.843 50.682-26.87 31.844-33.953 34.14-33.953 34.14 17.478 12.912 24.24 23.256 35.03 34.727z" fill="#FFF"/><g><path d="M181.265 87.662h-8.756v-4.2h-13.066v8.526h4.3v-4.22h8.623l4.457 4.198h8.745v-11.64l-4.305-4.28M144.932 114.98l4.236 4.306h36.401V107.92l-4.305-4.294v11.355M159.444 99.302v8.513h4.3v-4.198h10.765v-7.325l-4.306-4.304v7.314M144.932 83.463l4.236 4.305h1.536v-4.305M94.913 83.463l4.298 4.305h1.538v-4.305M94.913 114.98l4.298 4.306h20.413v-7.156l-4.3-4.315v7.166M126.226 97.313l4.547 10.502h2.457l-2.7-6.22 6.483-5.303v-8.556l-4.31-4.304v8.556M109.493 99.207v8.608h4.294v-4.304h5.8l-1.848-4.303M135.645 114.98h-11.118l4.31 4.306h11.117v-7.156l-4.31-4.315M123.958 87.768v-2.453l-2.205-1.852h-12.26v8.567h4.294v-4.262"/><path fill="#FFF" d="M159.444 83.463h13.065v4.2h8.755V76.044H144.87v7.418H150.703v24.352h-5.835v7.166H181.264v-11.354h-8.756v4.19h-13.067V99.3h10.76v-7.314h-10.76M135.645 107.815h-4.872l-4.546-10.503 6.478-5.325V83.43l-8.798-7.386H94.913v7.418h5.835v24.352h-5.835v7.166h20.41v-7.166h-5.83v-8.608h8.246l1.846 4.304 4.94 11.47h11.12v-7.165zM113.787 92.03h-4.294v-8.567h12.26l2.205 1.853V90.272l-2.115 1.758h-8.056z"/><path d="M190.51 83.463l4.247 4.305h1.515v-4.305M218.087 87.768v-2.453l-2.205-1.852h-10.865v24.352h4.314V87.768"/><path d="M226.838 107.784l-8.782 7.197H190.51l4.247 4.306h24.851l11.54-9.45v-22.1l-4.31-4.304M255.614 99.302H244.58l-8.755-7.314 13.854 11.63h8.128v-2.496M270.795 103.617l-4.293-4.315.047 8.365-8.804 7.41H246.81l-2.282-1.947v2.04h-8.703l4.298 4.295h8.694v-2.02l2.31 1.925h8.386l11.324-9.292M257.808 87.662v-2.336l-2.247-1.894-8.607.03-2.252 1.885v4.83l2.19 1.81h2.12v-2.346l2.242-1.872 6.425-.02 4.43 4.218h8.688v-11.64l-4.293-4.28V87.66M246.654 107.752l2.325.01-4.452-4.22v2.43"/><path d="M226.838 107.784V83.432l-8.782-7.387h-27.614v7.418H196.272v24.352H190.442v7.166h27.614l8.782-7.196zm-17.507.03h-4.314v-24.35h10.866l2.205 1.852V106.047l-2.1 1.768h-6.656zM244.528 113.13l2.283 1.946h10.936l8.803-7.41-.048-8.364-8.767-7.314H246.89l-2.19-1.81v-4.83l2.253-1.885 8.608-.03 2.248 1.893v2.336h8.694V76.045h-8.694v1.883l-2.262-1.883H244.75l-8.925 7.387v8.556l8.756 7.314h11.034l2.194 1.82V106.047l-2.125 1.768-6.704-.053-2.326-.01-2.126-1.78v-2.43h-8.703v11.63h8.703" fill="#FFF"/></g><path d="M257.877 166.558h-2.79v7.62h-1.9v-7.62h-2.793v-1.642h7.483v1.642zm12.655 7.608h-1.89v-7.356h-.046l-2.672 7.356h-1.816l-2.594-7.356h-.047v7.367h-1.894v-9.26h3.273l2.152 6.05h.047l2.247-6.05h3.24v9.25z"/></svg>