<svg id="Layer_1" data-name="Layer 1" xmlns="http://www.w3.org/2000/svg" viewBox="0 0 849.72 716.59"><defs><style>.cls-1{fill:#0e395d;}.cls-2{fill:#e41e27;}.cls-3{fill:#fff;}</style></defs><title>cleveland guardians-logo</title><path class="cls-1" d="M454.82,817.5l79.82,40.79,45.18-19.07A260.83,260.83,0,0,0,663.68,853C807.93,853,924.86,736,924.86,591.79a260.46,260.46,0,0,0-82.5-190.5L845,342.14s0-26.61-19.51-31.93L353.72,141.71,297,152.35s-1.77,39,26.61,69.17l-188-67.4-60.3,10.65s-5.32,63.85,58.53,101.1c0,0-8.87,55,51.44,90.46,0,0-7.1,51.44,42.57,79.82,0,0-8.87,40.79,49.66,79.81l72.72,214.62,78.05,39,39-12.42Z" transform="translate(-75.14 -141.71)"/><path class="cls-2" d="M488.53,718.17l-16,92.23,58.53,28.38,58.54-259L490.3,539l-10.64,37.25,33.7,30.15-8.87,47.89a21.17,21.17,0,0,1-17.74,14.19l-67.4,14.19L366.14,531.93l99.33-147.22,145.44,56.76L612.69,390s3.54-14.19-14.19-21.29L442.41,312l-149,207.53,69.18,200.43,65.63,33.7Z" transform="translate(-75.14 -141.71)"/><polygon class="cls-3" points="557.95 417.71 526.02 426.58 430.24 385.79 458.62 376.92 557.95 417.71"/><polygon class="cls-3" points="346.87 384.01 307.85 396.43 355.74 524.14 391.22 515.27 346.87 384.01"/><polygon class="cls-3" points="586.33 121.5 557.95 130.37 249.32 18.62 281.25 11.53 586.33 121.5"/><path class="cls-3" d="M682.75,270.3l-28.38,7.1,133,49.66s7.09,0,14.19,10.64L829.08,328s0-7.1-21.28-12.42Z" transform="translate(-75.14 -141.71)"/><path class="cls-3" d="M622.44,280.94l-26.6,37.25-165-58.53s-23.06-19.51-24.83-56.76Z" transform="translate(-75.14 -141.71)"/><path class="cls-3" d="M393.63,197.58s1.77,30.15,14.19,53.21l-51.44-17.74S315.59,202.9,312,169.2Z" transform="translate(-75.14 -141.71)"/><path class="cls-3" d="M624.22,367.86s-5.33-10.65-26.61-16l-134.8-49.66L493,293.36l147.22,53.21s12.41,3.55,14.19,10.64Z" transform="translate(-75.14 -141.71)"/><polygon class="cls-3" points="394.76 144.56 362.84 153.43 27.6 32.81 64.85 25.72 394.76 144.56"/><path class="cls-3" d="M429.11,304l-40.8,55L271.24,312.87s-78-24.83-78-92.23Z" transform="translate(-75.14 -141.71)"/><path class="cls-3" d="M179,215.32l-90.46-33.7S85,245.47,207.39,288C207.39,288,183.44,265.87,179,215.32Z" transform="translate(-75.14 -141.71)"/><path class="cls-3" d="M381.21,371.4l-30.15,40.8-58.53-21.28S234,367.86,232.22,312.87Z" transform="translate(-75.14 -141.71)"/><path class="cls-3" d="M218,307.55s-3.55,28.38,21.29,60.31c0,0-86.92-19.51-94-94C145.31,273.85,195.86,299.57,218,307.55Z" transform="translate(-75.14 -141.71)"/><path class="cls-3" d="M342.19,424.62l-26.6,35.47s-44.35-19.51-47.89-67.4Z" transform="translate(-75.14 -141.71)"/><path class="cls-3" d="M256.17,390s-5.32,24.83,21.28,56.76c0,0-76.27-21.29-79.82-81.59Z" transform="translate(-75.14 -141.71)"/><path class="cls-3" d="M283.66,504.43l24.83-30.15s-51.44-21.28-67.4-30.15C241.09,444.13,242,484,283.66,504.43Z" transform="translate(-75.14 -141.71)"/><path class="cls-2" d="M792.72,364.31c3.55-19.51-10.64-24.83-10.64-24.83l-147.22-55-25.72,38.14,28.38,8.87s78-8.87,150.77,30.15Z" transform="translate(-75.14 -141.71)"/><path class="cls-3" d="M659.69,346c-1.15-.66,2.66,0,4,0C799.44,346,909.5,456,909.5,591.79S799.44,837.61,663.68,837.61a245.44,245.44,0,0,1-76.29-12.07l66.09-272.33L534.64,505.32l-56.76,17.74-14.19,56.76,33.7,31.92-5.32,33.71s-1.77,8.86-12.41,8.86l-46.12-134.8,69.17-104.65L616.23,461l51.44-19.51,3.55-78.05S669.44,351.64,659.69,346Z" transform="translate(-75.14 -141.71)"/><path class="cls-2" d="M852.14,712.85c7.09,3.54,1.77,17.73,1.77,17.73h3.55c5.32-5.32,1.77-17.73,1.77-17.73,3.55,0,17.74-19.51,17.74-19.51h-7.09C866.33,702.21,852.14,712.85,852.14,712.85Z" transform="translate(-75.14 -141.71)"/><path class="cls-2" d="M854.8,694.22h-5.32s-3.55,14.19-14.19,19.51c0,0,8,8,2.66,18.63l4.43.89s5.33-17.74-1.77-19.52C840.61,713.73,853,706.64,854.8,694.22Z" transform="translate(-75.14 -141.71)"/><path class="cls-2" d="M828.3,695.56s-3.2,16-12.8,22.4c0,0,11.2,8,5.6,18.4l4.8-1.6s1.2-15.6-4.4-17.2c0,0,11.2-12,12-21.6Z" transform="translate(-75.14 -141.71)"/><path class="cls-2" d="M810.7,701.16h-5.6a40.1,40.1,0,0,1-8.8,23.2c7.2,2.4,8.8,17.6,8.8,17.6h4c2.4-8-7.2-18.4-7.2-18.4C805.1,721.16,810.7,701.16,810.7,701.16Z" transform="translate(-75.14 -141.71)"/><path class="cls-2" d="M781.9,732.36s9.6-20.8,5.6-24l-5.6,1.6s-.8,20.8-6.4,24.8c0,0,16.8,8.8,12,16l5.6-2.4A29.85,29.85,0,0,0,781.9,732.36Z" transform="translate(-75.14 -141.71)"/><path class="cls-2" d="M760.7,744s8-17.6,5.2-26l-6.4,3.2s-.8,21.6-4.8,24.8c0,0,16.8,6.4,15.2,14.4l4.4-2S771.1,746.36,760.7,744Z" transform="translate(-75.14 -141.71)"/><path class="cls-2" d="M740.7,754.36s8-17.6,5.2-26l-6.4,3.2s-.8,21.6-4.8,24.8c0,0,16.8,6.4,15.2,14.4l4.4-2S751.1,756.76,740.7,754.36Z" transform="translate(-75.14 -141.71)"/><path class="cls-2" d="M721.9,764.36c3.2-6.4.8-24,.8-24l-6.4,3.2c4,8.8-1.6,23.2-1.6,23.2,6.8,2,18,13.2,18,13.2l6-2.8C736.3,770,721.9,764.36,721.9,764.36Z" transform="translate(-75.14 -141.71)"/><path class="cls-2" d="M701.5,772.76s1.6-20.8-.8-21.6l-5.2,2.8a31.12,31.12,0,0,1-.8,21.6s16.8,5.6,20,14.4l4-2.4S709.5,774.36,701.5,772.76Z" transform="translate(-75.14 -141.71)"/><path class="cls-2" d="M680.7,783.16s4-19.2,0-24l-5.2,2.8s4.8,16.8-1.6,23.2c0,0,16,4,20.8,13.6l6-2.8S689.5,782.36,680.7,783.16Z" transform="translate(-75.14 -141.71)"/><path class="cls-2" d="M663.9,790.36s1.6-20.8-.8-21.6l-5.2,2.8a31.12,31.12,0,0,1-.8,21.6s16.8,5.6,20,14.4l4-2.4S671.9,792,663.9,790.36Z" transform="translate(-75.14 -141.71)"/><path class="cls-2" d="M645.1,798.76c3.2-8-2.4-23.2-2.4-23.2l-4.8,3.2c5.6,3.2,1.6,21.6,1.6,21.6,5.6,1.6,19.2,13.6,19.2,13.6l4.8-1.6C661.1,803.56,645.1,798.76,645.1,798.76Z" transform="translate(-75.14 -141.71)"/><path class="cls-2" d="M627.5,803.56c.8-6.4-1.6-22.4-1.6-22.4l-5.6,3.2c4.8,2.4,2.4,20.8,2.4,20.8,4.8.8,18.4,12.8,18.4,12.8l4-1.6C641.1,810,627.5,803.56,627.5,803.56Z" transform="translate(-75.14 -141.71)"/><path class="cls-2" d="M609.9,807.56c3.2-4.8-1.6-21.6-1.6-21.6l-5.6,3.2c5.6,4.8,1.6,20,1.6,20,5.6,0,18.4,12.8,18.4,12.8l4.8-1.6C624.3,813.16,609.9,807.56,609.9,807.56Z" transform="translate(-75.14 -141.71)"/><path class="cls-2" d="M870.7,487.56s-.8,21.6,3.2,25.6l4-2.4s-5.2-15.6-4-28a14.74,14.74,0,0,1-13.6-8l-3.2,3.2S862.7,490,870.7,487.56Z" transform="translate(-75.14 -141.71)"/><path class="cls-2" d="M859.5,504.36s-2.4,22.4-.8,25.6l4.8-3.2s-1.2-20.4,0-28c0,0-12.8-.8-16-10.4l-3.2,4S854.7,503.56,859.5,504.36Z" transform="translate(-75.14 -141.71)"/><path class="cls-2" d="M843.5,517.16s-5.6,18.4-2.4,24l5.6-2.4a59.86,59.86,0,0,1,2.4-25.6s-13.6-4-16.8-14.4l-4.8,3.2S837.1,514.76,843.5,517.16Z" transform="translate(-75.14 -141.71)"/><path class="cls-2" d="M819.5,548.36l5.6-.8c-1.6-9.6,6.4-25.6,6.4-25.6-14-2-16.8-17.6-16.8-17.6l-6.4,2.4c.8,10.4,16,18.4,16,18.4C820.3,534,819.5,548.36,819.5,548.36Z" transform="translate(-75.14 -141.71)"/><path class="cls-2" d="M794.3,508.36h-7.6c-.8,12,15.2,21.6,15.2,21.6-8,4-8,21.6-8,21.6h7.2c-1.6-8.8,9.6-24,9.6-24C796.7,526.36,794.3,508.36,794.3,508.36Z" transform="translate(-75.14 -141.71)"/><path class="cls-2" d="M765.9,552.36h8c-.8-8.8,12-21.6,12-21.6-10.8-6-14.4-22.4-14.4-22.4h-4.8c-4,5.6,12,22.4,12,22.4C773.1,533.16,765.9,552.36,765.9,552.36Z" transform="translate(-75.14 -141.71)"/><path class="cls-2" d="M739.9,550.36h7.2s6.4-16,14-19.6c0,0-12-11.2-11.2-24.8l-8-1.6s4,20,10.4,25.6C752.3,530,739.1,543.16,739.9,550.36Z" transform="translate(-75.14 -141.71)"/><path class="cls-2" d="M710.7,546l8,.8s4.4-15.6,16.8-19.2c0,0-12-16-9.6-26.4l-8-1.6s4,22.4,8.8,26.4C726.7,526,712.3,538,710.7,546Z" transform="translate(-75.14 -141.71)"/><path class="cls-2" d="M709.1,522.76s-12-12.8-8.8-28.8l-8.8-2.4s2.4,25.6,8.8,28.8c0,0-16,10.4-16.8,19.2l7.6,1.2S695.9,527.16,709.1,522.76Z" transform="translate(-75.14 -141.71)"/><path class="cls-2" d="M657.9,530l7.2,2.4s10-15.6,17.6-16c0,0-9.6-19.2-7.2-30.4l-7.2-1.6s.8,20.8,6.4,28C674.7,512.36,661.1,520.36,657.9,530Z" transform="translate(-75.14 -141.71)"/><path class="cls-2" d="M632.3,521.16l7.6,2.8s8.8-15.2,18.8-16.4c0,0-8-14.4-6.4-29.6l-6.4-2.4s-.8,23.2,4,28C649.9,503.56,637.1,510.76,632.3,521.16Z" transform="translate(-75.14 -141.71)"/><path class="cls-2" d="M607.5,512.36l6.4,3.2s8.4-15.6,19.2-17.6c0,0-8-18.4-4.8-28l-7.2-2.4s1.6,24,4.8,27.2C625.9,494.76,610.7,502.76,607.5,512.36Z" transform="translate(-75.14 -141.71)"/><path class="cls-2" d="M604.3,462.76l-7.2-1.6s0,21.6,4,25.6c0,0-14.4,8-17.6,18.4l6.4,1.6s7.6-15.6,19.2-16.8C609.1,490,601.1,467.56,604.3,462.76Z" transform="translate(-75.14 -141.71)"/><path class="cls-2" d="M580.3,456.36l-7.2-.8s-2.4,18.4,3.2,24c0,0-16.8,12.8-16.8,20l6.8,1.2s8.8-17.6,18.8-18.8C585.1,482,577.1,470.76,580.3,456.36Z" transform="translate(-75.14 -141.71)"/><path class="cls-2" d="M557.1,451.56h-8s-2.4,18.4,3.2,22.4c0,0-16.8,12-19.2,20.8l7.2.8s10.8-16.4,20-19.2C560.3,476.36,553.1,458,557.1,451.56Z" transform="translate(-75.14 -141.71)"/><path class="cls-2" d="M534.7,450.76l-7.2-.8s-2.4,16.8,1.6,21.6c0,0-14.4,11.2-17.6,21.6l6,.4s8.8-18.4,18.8-20.4C536.3,473.16,529.1,459.56,534.7,450.76Z" transform="translate(-75.14 -141.71)"/><path class="cls-2" d="M513.9,450h-6.4s-3.2,17.6,0,22.4c0,0-13.6,10.4-15.2,19.2h5.2s7.2-15.6,16.4-19.2C513.9,472.36,508.3,458,513.9,450Z" transform="translate(-75.14 -141.71)"/><path class="cls-2" d="M494.7,452.36h-6.4s-3.2,16.8.8,21.6c0,0-11.2,10.4-13.6,19.2h5.2s6.4-15.6,14-20C494.7,473.16,488.3,460.36,494.7,452.36Z" transform="translate(-75.14 -141.71)"/></svg>