<?xml version="1.0" encoding="UTF-8" standalone="no"?>
<svg
   viewBox="0 0 184.85237 261.58496"
   version="1.1"
   id="svg1"
   sodipodi:docname="DET.svg"
   width="184.85237"
   height="261.58496"
   inkscape:version="1.4 (86a8ad7, 2024-10-11)"
   xmlns:inkscape="http://www.inkscape.org/namespaces/inkscape"
   xmlns:sodipodi="http://sodipodi.sourceforge.net/DTD/sodipodi-0.dtd"
   xmlns="http://www.w3.org/2000/svg"
   xmlns:svg="http://www.w3.org/2000/svg"
   xmlns:rdf="http://www.w3.org/1999/02/22-rdf-syntax-ns#"
   xmlns:cc="http://creativecommons.org/ns#"
   xmlns:dc="http://purl.org/dc/elements/1.1/">
  <defs
     id="defs1" />
  <sodipodi:namedview
     id="namedview1"
     pagecolor="#ffffff"
     bordercolor="#000000"
     borderopacity="0.25"
     inkscape:showpageshadow="2"
     inkscape:pageopacity="0.0"
     inkscape:pagecheckerboard="0"
     inkscape:deskcolor="#d1d1d1"
     inkscape:zoom="3.3819227"
     inkscape:cx="46.718986"
     inkscape:cy="144.44446"
     inkscape:window-width="3440"
     inkscape:window-height="1377"
     inkscape:window-x="-8"
     inkscape:window-y="-8"
     inkscape:window-maximized="1"
     inkscape:current-layer="svg1" />
  <title
     id="title1">Detroit Tigers light logo</title>
  <g
     fill="#FFF"
     id="g4"
     style="fill:#800000"
     transform="translate(8.1453039,8.143513)">
    <path
       id="path4"
       style="fill:#ffffff"
       sodipodi:type="inkscape:offset"
       inkscape:radius="3.7697804"
       inkscape:original="M 1.1425781 -4.3691406 C 0.15064072 -4.4112736 -1.326404 -4.1819741 -2.546875 -3.1386719 C -3.767346 -2.0953696 -4.2689521 -0.56293132 -4.3535156 0.51953125 C -4.5226426 2.6844564 -3.9017109 4.0075592 -3.0917969 5.7734375 A 4.3752043 4.3752043 0 0 0 -3.0878906 5.78125 C 6.3982707 26.360653 24.904644 39.787379 45.921875 46.853516 C 41.915349 50.438122 38.254244 53.903647 35.376953 57.625 C 31.750801 62.314895 29.251747 67.689902 27.976562 74.128906 C 22.54051 75.099924 17.307518 77.28472 12.765625 80.175781 C 7.2799929 83.667563 2.7449206 88.014801 0.26757812 92.974609 C -1.0324303 95.575113 -1.772561 97.822838 -1.6503906 100.24219 C -1.5281813 102.66231 0.13810187 105.32743 2.28125 106.33398 C 6.5675463 108.3471 10.137973 106.62216 13.214844 104.50586 L 13.203125 104.51562 C 16.705225 102.1244 21.929936 100.71827 26.945312 100.32031 L 26.945312 103.14844 C 15.29192 105.39968 5.1942062 113.25889 0.86914062 121.91797 C -0.43114989 124.51904 -1.1714481 126.76781 -1.0488281 129.1875 C -0.92616914 131.60796 0.73806618 134.27375 2.8828125 135.28125 C 7.1723051 137.29625 10.752717 135.56609 13.832031 133.43164 L 13.804688 133.45117 C 17.480528 130.94433 22.279809 129.26912 26.947266 128.73047 L 26.947266 157.58594 C 26.947266 169.27215 21.651349 174.21665 17.925781 177.66992 L 17.949219 177.65039 C 16.545343 178.93404 15.463648 180.3896 14.900391 182.16797 C 14.337133 183.94634 14.421142 186.25254 15.658203 188.05859 C 16.447721 189.21126 17.58845 189.87962 18.785156 190.34375 C 7.9905539 199.00652 1.8765671 211.02378 -1.1992188 221.76562 C -2.7642097 227.23118 -3.5547751 232.3798 -3.7421875 236.74219 C -3.9294517 241.10113 -3.7655514 244.47994 -2.3144531 247.53906 C -2.0350325 248.12277 -0.13392294 249.67138 -0.1328125 249.67188 C -0.13170005 249.67237 3.4204222 249.67252 3.421875 249.67188 C 3.4233278 249.67123 4.4949533 249.00846 4.7265625 248.7793 C 4.9581717 248.55014 5.0806104 248.38877 5.1757812 248.25977 C 5.5564648 247.74376 5.5677541 247.63272 5.6308594 247.50195 C 5.7570699 247.24042 5.8000093 247.12305 5.8632812 246.9668 C 5.9898252 246.65429 6.1292734 246.28981 6.3183594 245.81445 C 6.6965314 244.86375 7.2513436 243.50644 8.0136719 241.84766 C 9.5383285 238.53009 11.890656 234.02632 15.189453 229.44141 C 21.786477 220.27236 31.906349 210.95946 47.105469 209.15625 C 65.218593 207.022 87.845833 212.44754 107.23438 229.23242 A 4.3752043 4.3752043 0 0 0 113.84961 228.17578 C 125.633 208.52739 145.49233 197.25921 169.31641 193.19922 A 4.3752043 4.3752043 0 0 0 171.87109 186.00195 C 163.69016 176.67385 162.4768 174.52976 162.21094 164.33789 L 162.21094 66.792969 C 162.7487 59.235089 163.67943 58.592767 169.56445 53.087891 A 4.3752043 4.3752043 0 0 0 168.11523 45.796875 C 156.35855 41.376815 140.96984 26.097415 133.10938 10.335938 A 4.3752043 4.3752043 0 0 0 127.19531 8.3984375 C 86.575581 29.27201 42.317841 29.220248 8.5683594 -0.53320312 A 4.3752043 4.3752043 0 0 0 8.5605469 -0.54101562 C 7.5145815 -1.4581734 6.4343379 -2.2749704 5.3007812 -2.9472656 C 4.1672246 -3.6195609 3.1275523 -4.2848279 1.1425781 -4.3691406 z M 117.74805 47.636719 L 126.5918 56.466797 L 126.5918 80.408203 C 115.42314 83.027437 100.65499 82.879138 90.59375 80.109375 L 90.59375 79.726562 C 90.59375 70.035544 91.67133 58.85066 97.904297 51.962891 C 104.74594 51.110254 111.39635 49.666866 117.74805 47.636719 z M 69.857422 52.132812 C 71.474679 52.309451 73.093642 52.460796 74.714844 52.574219 C 72.372822 54.935166 70.215061 57.400278 68.333984 60.019531 C 66.891407 59.616791 65.431355 59.161411 64.017578 58.871094 C 65.747309 56.393859 67.683008 54.130349 69.857422 52.132812 z M 60.025391 75.107422 C 60.61344 75.167824 61.106094 75.369255 61.673828 75.466797 C 61.287028 77.591615 61.028102 79.802347 61.042969 82.179688 L 60.966797 140.20508 C 59.563795 140.30548 58.219125 140.32777 56.59375 140.29883 L 56.59375 79.726562 C 56.59375 78.28197 56.778101 76.724462 57.050781 75.126953 C 58.045725 75.123027 59.0663 75.008907 60.025391 75.107422 z M 126.5918 99.490234 L 126.5918 117.25195 C 115.03586 114.80095 101.64285 114.62511 90.59375 117.23828 L 90.59375 99.503906 C 101.63771 102.10397 115.03187 101.94015 126.5918 99.490234 z M 108.13672 134.21289 C 114.60357 134.15314 121.00617 134.9785 126.5957 136.31445 L 126.5957 172.15625 C 118.85573 174.95809 110.59085 179.92144 102.86328 186.25977 C 93.922987 182.11588 85.054251 179.2766 76.449219 177.77734 C 84.487456 169.64752 90.595703 158.21979 90.595703 144.17773 L 90.595703 136.62305 C 95.625712 135.21374 101.6887 134.27247 108.13672 134.21289 z M 55.005859 157.5957 C 57.034686 157.73308 58.964023 157.76699 60.957031 157.69141 C 60.92496 168.601 56.290082 173.54752 52.636719 176.96289 C 49.422654 177.31763 46.286533 177.85725 43.240234 178.60352 C 48.586348 173.12228 52.855084 166.09373 55.005859 157.5957 z "
       d="m 1.3027344,-8.1347656 c -1.72985038,-0.073476 -4.1438395,0.288698 -6.2988281,2.1308594 -2.2185809,1.8965223 -2.9620342,4.2694158 -3.1152344,6.2304687 -0.2342154,2.9980947 0.7907454,5.3683271 1.59375,7.1191406 a 3.7701574,3.7701574 0 0 0 0.00586,0.013672 c 0.00223,0.00483 0.00558,0.00884 0.00781,0.013672 C 2.603682,27.11974 19.575968,40.464082 38.941406,48.226562 c -2.358023,2.272604 -4.610592,4.5875 -6.546875,7.091797 -3.520222,4.552891 -6.035162,9.821664 -7.535156,15.810547 -5.055178,1.225786 -9.890255,3.176609 -14.117187,5.867188 -5.8873403,3.747482 -10.94198551,8.47757 -13.8476568,14.294922 -1.4320138,2.865037 -2.4772799,5.838794 -2.3105468,9.140624 0.2022241,4.00466 2.3135364,7.53904 6.09374997,9.31445 1.28341493,0.60278 2.58954633,0.88945 3.87109373,1.05274 -2.9237509,2.85566 -5.35659294,6.03975 -7.0527344,9.43555 -1.4323892,2.86579 -2.4779124,5.84186 -2.3105468,9.14453 0.2028094,4.00208 2.3120503,7.53799 6.09375,9.31445 2.8859037,1.35566 5.913172,1.49988 8.4335937,0.87891 2.4928274,-0.61418 4.5067844,-1.83255 6.2050784,-3.00586 a 3.7701574,3.7701574 0 0 0 0.0098,0 c 2.007108,-1.36881 4.584478,-2.35287 7.25,-3.10157 v 24.1211 c 0,10.54729 -4.098373,13.87388 -7.814453,17.31836 a 3.7701574,3.7701574 0 0 0 -0.0059,0.0215 c -1.717824,1.58322 -3.255101,3.59132 -4.050781,6.10352 -0.879103,2.77558 -0.795402,6.18537 1.242187,9.16015 0.09957,0.14537 0.238471,0.20805 0.34375,0.34375 -9.3665752,8.90366 -14.829858,20.113 -17.7167967,30.19532 -1.6449711,5.74488 -2.4821283,11.16205 -2.6835938,15.85156 -0.1948983,4.53664 -0.077544,8.64327 1.7871094,12.57422 a 3.7701574,3.7701574 0 0 0 0.00586,0.0117 c 0.5083874,1.06202 0.8127188,1.22213 1.1347656,1.55859 0.3220468,0.33646 0.6384865,0.63058 0.9355468,0.89844 0.2970604,0.26786 0.5721371,0.50439 0.7773438,0.67773 0.1026033,0.0867 0.1882663,0.15793 0.25,0.20899 0.030867,0.0255 0.055347,0.0451 0.074219,0.0605 0.00944,0.008 0.016022,0.0135 0.023437,0.0195 0.00144,0.001 0.00438,0.003 0.00586,0.004 a 3.7701574,3.7701574 0 0 0 0.8613282,0.52734 c 0,0 1.4986949,0.32029 1.50585933,0.32032 0.007164,3e-5 0.0108731,-1e-5 0.015625,0 0.009504,2e-5 0.0194701,-2e-5 0.03320312,0 0.02746614,3e-5 0.06626042,-3e-5 0.11523438,0 0.09794791,5e-5 0.23750325,-4e-5 0.40429687,0 0.33358723,7e-5 0.7782808,-1e-5 1.2226562,0 0.4443755,1e-5 0.8889323,6e-5 1.2226563,0 0.166862,-4e-5 0.3061101,5e-5 0.4042969,0 0.049093,-3e-5 0.087331,3e-5 0.1152344,0 0.013951,-2e-5 0.024812,2e-5 0.035156,0 a 3.7701574,3.7701574 0 0 0 1.5390625,-0.32813 c 0,0 0.4233257,-0.22267 0.4296875,-0.22656 0.00636,-0.004 0.00879,-0.006 0.011719,-0.008 0.00587,-0.004 0.011799,-0.006 0.017578,-0.01 0.011559,-0.007 0.025231,-0.0163 0.042969,-0.0273 0.035475,-0.0221 0.08395,-0.0529 0.1425781,-0.0899 0.117257,-0.074 0.2746264,-0.17411 0.4472657,-0.28711 0.3452786,-0.22599 0.4356462,-0.12475 1.3261718,-1.00586 0.3883999,-0.38429 0.7095427,-0.79755 0.8300782,-0.96093 0.512928,-0.69527 1.0398417,-1.82044 0.8164062,-1.35743 0.1726261,-0.35771 0.2925575,-0.66228 0.3320313,-0.75976 0.147652,-0.36464 0.2831388,-0.72193 0.4628906,-1.17383 0.3656045,-0.9191 0.8928385,-2.20477 1.6191405,-3.78516 1.450868,-3.157 3.699082,-7.45475 6.810547,-11.77929 6.236063,-8.66736 15.412401,-17.09425 29.296875,-18.74219 17.013389,-2.00467 38.625541,3.0836 57.220705,19.18164 3.57957,3.09887 9.87831,2.09295 12.31445,-1.9668 11.14949,-18.59137 29.83981,-29.275 52.86719,-33.19921 2.83932,-0.484 5.34513,-2.59034 6.30859,-5.30469 0.96347,-2.71436 0.34604,-5.92796 -1.55273,-8.09375 a 3.7701574,3.7701574 0 0 0 0,-0.002 c -4.05698,-4.62586 -6.14545,-7.27204 -7.20313,-9.58789 -1.05519,-2.31041 -1.3916,-4.73023 -1.52148,-9.66015 V 66.976562 c 0.25688,-3.546332 0.56602,-4.882755 1.16601,-5.921875 0.60641,-1.050227 2.03265,-2.442693 4.99414,-5.21289 h -0.002 c 2.01285,-1.882436 2.96306,-4.834065 2.42578,-7.53711 -0.53728,-2.703044 -2.54331,-5.067531 -5.12304,-6.037109 C 159.34912,38.473265 143.90016,23.528047 136.48242,8.6542969 a 3.7701574,3.7701574 0 0 0 0,-0.00195 C 134.56358,4.8083733 129.29405,3.0815009 125.47266,5.0449219 85.848304,25.406993 43.592141,25.311744 11.068359,-3.3554688 c -0.0025,-0.00219 -0.0053,-0.00367 -0.0078,-0.00586 A 3.7701574,3.7701574 0 0 0 11.046875,-3.375 C 9.8677109,-4.4089534 8.6066214,-5.3698029 7.2246094,-6.1894531 6.159688,-6.8210419 4.0719715,-8.017141 1.3027344,-8.1347656 Z M 116.61914,51.837891 l 6.20313,6.191406 v 19.171875 c -9.07715,1.636542 -20.06109,1.527508 -28.349614,-0.1875 0.234052,-8.18252 1.635553,-16.484514 5.656254,-21.609375 5.6448,-0.789289 11.15108,-1.987719 16.49023,-3.566406 z m 6.20313,52.056639 v 8.95117 c -9.35848,-1.48875 -19.28666,-1.58066 -28.458989,-0.0547 v -8.8418 c 9.167879,1.52008 19.096059,1.43203 28.458989,-0.0547 z m -14.65039,34.08789 c 5.07677,-0.0469 10.04701,0.58263 14.65429,1.48828 v 30.19336 c -6.88324,2.82942 -13.88244,7.06071 -20.56445,12.31641 -6.410798,-2.82671 -12.777206,-4.88837 -19.083986,-6.40625 6.495561,-8.25464 11.1875,-18.80854 11.1875,-31.39649 v -4.49414 c 4.153028,-0.9489 8.787136,-1.65479 13.806646,-1.70117 z m -53.177739,30.23242 c -0.05158,0.0987 -0.09554,0.21041 -0.148438,0.30664 0.05054,-0.10142 0.0985,-0.20469 0.148438,-0.30664 z" />
    <path
       d="M 157.836,164.452 V 66.587 c 0.583,-8.34 2.687,-11.033 8.74,-16.695 C 153.056,44.809 137.533,29.007 129.196,12.29 87.402,33.767 40.86,33.767 5.675,2.748 2.167,-0.328 -1.8,-1.902 0.884,3.95 10.836,25.54 31.48,38.97 54.67,44.933 41.323,56.497 33.457,63.333 31.7,77.983 20.296,78.823 8.05,87.186 4.182,94.93 c -4.42,8.84 2.124,9.02 6.554,5.973 5.662,-3.866 13.73,-5.36 20.585,-5.07 v 11.084 c -11.424,0.85 -22.668,9.21 -26.537,16.956 -4.42,8.84 2.126,9.033 6.555,5.963 5.66,-3.86 13.128,-5.963 19.983,-5.66 v 33.41 c 0,13.14 -6.55,19.704 -10.422,23.293 -3.9,3.566 -1.744,7.302 3.87,5.058 11.803,-4.7 24.072,-15.913 26.855,-32.953 4.493,0.592 9.903,0.662 13.712,0.032 v 4.57 c 0,13.138 -6.554,19.703 -10.444,23.292 -0.06,0.047 -0.1,0.097 -0.147,0.177 -12.54,1.092 -23.784,5.32 -32.722,12.267 C 1.638,209.21 -1.51,239.044 1.638,245.67 c 0.198,0.42 11.484,-36.89 44.956,-40.858 19.384,-2.284 43.196,3.534 63.503,21.114 12.525,-20.885 33.723,-32.82 58.486,-37.04 -8.358,-9.53 -10.466,-13.7 -10.746,-24.434 z m -26.87,-109.8 v 29.324 c -13.378,4.028 -32.698,3.9 -44.747,-0.43 v -3.82 c 0,-10.36 0.884,-23.53 9.42,-31.82 8.16,-0.9 16.078,-2.583 23.393,-5.17 l 11.934,11.917 z M 86.22,93.7 c 12.047,4.3 31.368,4.46 44.747,0.42 v 28.503 c -13.38,-4.038 -32.7,-3.898 -44.748,0.43 V 93.7 Z M 85.418,48.55 c -6.273,5.484 -11.665,10.584 -15.27,16.486 -4.77,-1.552 -9.16,-2.505 -13.43,-2.746 2.773,-5.532 6.713,-10.712 11.466,-14.7 5.72,0.73 11.503,1.042 17.234,0.96 z m -33.2,95.98 V 79.727 c 0,-2.853 0.45,-5.873 1.27,-8.928 4.723,-0.532 9.42,-0.042 13.45,1.374 -0.96,3.047 -1.543,6.302 -1.52,9.98 l -0.082,61.997 c -3.347,0.722 -8.51,0.82 -13.12,0.38 z m 51.303,46.785 C 90.56,184.928 77.803,181.6 65.88,180.9 76.582,173.713 86.22,161.024 86.22,144.177 v -10.973 c 12.05,-4.34 31.37,-4.49 44.75,-0.442 v 42.425 c -8.348,2.405 -18.49,8.378 -27.447,16.126 z"
       id="path3"
       style="fill:#800000"
       sodipodi:nodetypes="cccccccccccccccsccccsccccccccccccsccccccccccccccccsccccccccsccccc" />
  </g>
  <g
     fill="#FFF"
     id="g1"
     style="fill:#002255"
     transform="translate(8.1453039,8.143513)">
    <path
       d="M 157.836,164.452 V 66.587 c 0.583,-8.34 2.687,-11.033 8.74,-16.695 C 153.056,44.809 137.533,29.007 129.196,12.29 87.402,33.767 40.86,33.767 5.675,2.748 2.167,-0.328 -1.8,-1.902 0.884,3.95 10.836,25.54 31.48,38.97 54.67,44.933 41.323,56.497 33.457,63.333 31.7,77.983 20.296,78.823 8.05,87.186 4.182,94.93 c -4.42,8.84 2.124,9.02 6.554,5.973 5.662,-3.866 13.73,-5.36 20.585,-5.07 v 11.084 c -11.424,0.85 -22.668,9.21 -26.537,16.956 -4.42,8.84 2.126,9.033 6.555,5.963 5.66,-3.86 13.128,-5.963 19.983,-5.66 v 33.41 c 0,13.14 -6.55,19.704 -10.422,23.293 -3.9,3.566 -1.744,7.302 3.87,5.058 11.803,-4.7 24.072,-15.913 26.855,-32.953 4.493,0.592 9.903,0.662 13.712,0.032 v 4.57 c 0,13.138 -6.554,19.703 -10.444,23.292 -0.06,0.047 -0.1,0.097 -0.147,0.177 -12.54,1.092 -23.784,5.32 -32.722,12.267 C 1.638,209.21 -1.51,239.044 1.638,245.67 c 0.198,0.42 11.484,-36.89 44.956,-40.858 19.384,-2.284 43.196,3.534 63.503,21.114 12.525,-20.885 33.723,-32.82 58.486,-37.04 -8.358,-9.53 -10.466,-13.7 -10.746,-24.434 z m -26.87,-109.8 v 29.324 c -13.378,4.028 -32.698,3.9 -44.747,-0.43 v -3.82 c 0,-10.36 0.884,-23.53 9.42,-31.82 8.16,-0.9 16.078,-2.583 23.393,-5.17 l 11.934,11.917 z M 86.22,93.7 c 12.047,4.3 31.368,4.46 44.747,0.42 v 28.503 c -13.38,-4.038 -32.7,-3.898 -44.748,0.43 V 93.7 Z M 85.418,48.55 c -6.273,5.484 -11.665,10.584 -15.27,16.486 -4.77,-1.552 -9.16,-2.505 -13.43,-2.746 2.773,-5.532 6.713,-10.712 11.466,-14.7 5.72,0.73 11.503,1.042 17.234,0.96 z m -33.2,95.98 V 79.727 c 0,-2.853 0.45,-5.873 1.27,-8.928 4.723,-0.532 9.42,-0.042 13.45,1.374 -0.96,3.047 -1.543,6.302 -1.52,9.98 l -0.082,61.997 c -3.347,0.722 -8.51,0.82 -13.12,0.38 z m 51.303,46.785 C 90.56,184.928 77.803,181.6 65.88,180.9 76.582,173.713 86.22,161.024 86.22,144.177 v -10.973 c 12.05,-4.34 31.37,-4.49 44.75,-0.442 v 42.425 c -8.348,2.405 -18.49,8.378 -27.447,16.126 z"
       id="path1"
       style="fill:#002255"
       sodipodi:nodetypes="cccccccccccccccsccccsccccccccccccsccccccccccccccccsccccccccsccccc" />
    <path
       d="M 157.836,164.452 V 66.587 c 0.583,-8.34 2.687,-11.033 8.74,-16.695 C 153.056,44.809 137.533,29.007 129.196,12.29 87.402,33.767 40.86,33.767 5.675,2.748 2.167,-0.328 -1.8,-1.902 0.884,3.95 10.836,25.54 31.48,38.97 54.67,44.933 41.323,56.497 33.457,63.333 31.7,77.983 20.296,78.823 8.05,87.186 4.182,94.93 c -4.42,8.84 2.124,9.02 6.554,5.973 5.662,-3.866 13.73,-5.36 20.585,-5.07 v 11.084 c -11.424,0.85 -22.668,9.21 -26.537,16.956 -4.42,8.84 2.126,9.033 6.555,5.963 5.66,-3.86 13.128,-5.963 19.983,-5.66 v 33.41 c 0,13.14 -6.55,19.704 -10.422,23.293 -3.9,3.566 -1.744,7.302 3.87,5.058 11.803,-4.7 24.072,-15.913 26.855,-32.953 4.493,0.592 9.903,0.662 13.712,0.032 v 4.57 c 0,13.138 -6.554,19.703 -10.444,23.292 -0.06,0.047 -0.1,0.097 -0.147,0.177 -12.54,1.092 -23.784,5.32 -32.722,12.267 C 1.638,209.21 -1.51,239.044 1.638,245.67 c 0.198,0.42 11.484,-36.89 44.956,-40.858 19.384,-2.284 43.196,3.534 63.503,21.114 12.525,-20.885 33.723,-32.82 58.486,-37.04 -8.358,-9.53 -10.466,-13.7 -10.746,-24.434 z m -26.87,-109.8 v 29.324 c -13.378,4.028 -32.698,3.9 -44.747,-0.43 v -3.82 c 0,-10.36 0.884,-23.53 9.42,-31.82 8.16,-0.9 16.078,-2.583 23.393,-5.17 l 11.934,11.917 z M 86.22,93.7 c 12.047,4.3 31.368,4.46 44.747,0.42 v 28.503 c -13.38,-4.038 -32.7,-3.898 -44.748,0.43 V 93.7 Z M 85.418,48.55 c -6.273,5.484 -11.665,10.584 -15.27,16.486 -4.77,-1.552 -9.16,-2.505 -13.43,-2.746 2.773,-5.532 6.713,-10.712 11.466,-14.7 5.72,0.73 11.503,1.042 17.234,0.96 z m -33.2,95.98 V 79.727 c 0,-2.853 0.45,-5.873 1.27,-8.928 4.723,-0.532 9.42,-0.042 13.45,1.374 -0.96,3.047 -1.543,6.302 -1.52,9.98 l -0.082,61.997 c -3.347,0.722 -8.51,0.82 -13.12,0.38 z m 51.303,46.785 C 90.56,184.928 77.803,181.6 65.88,180.9 76.582,173.713 86.22,161.024 86.22,144.177 v -10.973 c 12.05,-4.34 31.37,-4.49 44.75,-0.442 v 42.425 c -8.348,2.405 -18.49,8.378 -27.447,16.126 z"
       id="path2"
       style="fill:#002255"
       sodipodi:nodetypes="cccccccccccccccsccccsccccccccccccsccccccccccccccccsccccccccsccccc" />
  </g>
  <metadata
     id="metadata4">
    <rdf:RDF>
      <cc:Work
         rdf:about="">
        <dc:title>Detroit Tigers light logo</dc:title>
      </cc:Work>
    </rdf:RDF>
  </metadata>
</svg>
