<?xml version="1.0" encoding="UTF-8" standalone="no"?>
<svg
   viewBox="0 0 139.27538 195.44142"
   version="1.1"
   id="svg2"
   sodipodi:docname="LAD.svg"
   width="139.27539"
   height="195.44142"
   inkscape:version="1.4 (86a8ad7, 2024-10-11)"
   xmlns:inkscape="http://www.inkscape.org/namespaces/inkscape"
   xmlns:sodipodi="http://sodipodi.sourceforge.net/DTD/sodipodi-0.dtd"
   xmlns="http://www.w3.org/2000/svg"
   xmlns:svg="http://www.w3.org/2000/svg"
   xmlns:rdf="http://www.w3.org/1999/02/22-rdf-syntax-ns#"
   xmlns:cc="http://creativecommons.org/ns#"
   xmlns:dc="http://purl.org/dc/elements/1.1/">
  <defs
     id="defs2" />
  <sodipodi:namedview
     id="namedview2"
     pagecolor="#ffffff"
     bordercolor="#000000"
     borderopacity="0.25"
     inkscape:showpageshadow="2"
     inkscape:pageopacity="0.0"
     inkscape:pagecheckerboard="0"
     inkscape:deskcolor="#d1d1d1"
     inkscape:zoom="4.4751182"
     inkscape:cx="36.200161"
     inkscape:cy="99.773901"
     inkscape:window-width="3440"
     inkscape:window-height="1377"
     inkscape:window-x="-8"
     inkscape:window-y="-8"
     inkscape:window-maximized="1"
     inkscape:current-layer="svg2" />
  <title
     id="title1">Los Angeles Dodgers hat dark logo</title>
  <path
     id="path2"
     style="fill:#ffffff"
     sodipodi:type="inkscape:offset"
     inkscape:radius="-2.455157"
     inkscape:original="M 46.314453 -7.3457031 L 0.703125 -7.2285156 C -3.1364204 -7.2185011 -6.6238683 -3.7243239 -6.625 0.11523438 A 3.9651224 3.9651224 0 0 0 -6.625 0.1171875 L -6.625 17.996094 A 3.9651224 3.9651224 0 0 0 -6.625 17.998047 C -6.6238533 21.843254 -3.1264569 25.340651 0.71875 25.341797 A 3.9651224 3.9651224 0 0 0 0.72070312 25.341797 L 6.5878906 25.341797 L 6.5878906 115.17383 L 0 115.17383 A 3.9651224 3.9651224 0 0 0 -0.001953125 115.17383 C -3.8471608 115.17497 -7.3445575 118.67237 -7.3457031 122.51758 A 3.9651224 3.9651224 0 0 0 -7.3457031 122.51953 L -7.3457031 140.68164 A 3.9651224 3.9651224 0 0 0 -7.3457031 140.68359 C -7.3445575 144.5288 -3.8471608 148.0262 -0.001953125 148.02734 A 3.9651224 3.9651224 0 0 0 0 148.02734 L 24.800781 148.02734 C 23.823159 152.11132 22.898806 155.97729 22.128906 159.21094 L 14.0625 159.21094 A 3.9651224 3.9651224 0 0 0 14.060547 159.21094 C 10.215339 159.21208 6.7179425 162.70948 6.7167969 166.55469 A 3.9651224 3.9651224 0 0 0 6.7167969 166.55664 L 6.7167969 185.66016 A 3.9651224 3.9651224 0 0 0 6.7167969 185.66211 C 6.7179399 189.51156 10.22477 193.01138 14.074219 193.00586 A 3.9651224 3.9651224 0 0 0 14.076172 193.00586 L 61.433594 192.91016 C 65.274556 192.90236 68.764488 189.40738 68.765625 185.56641 A 3.9651224 3.9651224 0 0 0 68.765625 185.56445 L 68.765625 166.55664 A 3.9651224 3.9651224 0 0 0 68.765625 166.55469 C 68.764479 162.70948 65.267082 159.21208 61.421875 159.21094 A 3.9651224 3.9651224 0 0 0 61.419922 159.21094 L 57.294922 159.21094 C 57.60743 157.83874 57.823298 156.88088 58.265625 154.94922 C 59.014128 151.68048 59.401909 149.97542 59.845703 148.02734 L 80.804688 148.02734 C 81.531588 151.18919 82.420602 155.07404 83.365234 159.21094 L 79.240234 159.21094 A 3.9651224 3.9651224 0 0 0 79.238281 159.21094 C 75.393074 159.21208 71.895677 162.70948 71.894531 166.55469 A 3.9651224 3.9651224 0 0 0 71.894531 166.55664 L 71.894531 185.56445 A 3.9651224 3.9651224 0 0 0 71.894531 185.56641 C 71.895668 189.40738 75.385601 192.90236 79.226562 192.91016 L 126.58008 193.00586 C 130.43236 193.01361 133.9425 189.50854 133.94141 185.65625 L 133.92969 166.55273 A 3.9651224 3.9651224 0 0 0 133.92969 166.55078 C 133.92633 162.70699 130.42973 159.21208 126.58594 159.21094 A 3.9651224 3.9651224 0 0 0 126.58398 159.21094 L 118.53516 159.21094 C 117.76216 155.96121 116.84125 152.0997 115.86914 148.02734 L 129.49414 148.02734 A 3.9651224 3.9651224 0 0 0 129.49609 148.02734 C 133.3413 148.0262 136.8387 144.5288 136.83984 140.68359 A 3.9651224 3.9651224 0 0 0 136.83984 140.68164 L 136.83984 102.61719 A 3.9651224 3.9651224 0 0 0 136.83984 102.61523 C 136.8387 98.770029 133.3413 95.27263 129.49609 95.271484 A 3.9651224 3.9651224 0 0 0 129.49414 95.271484 L 110.42578 95.271484 A 3.9651224 3.9651224 0 0 0 110.42383 95.271484 C 107.82912 95.272257 105.48655 96.923065 104.17578 99.140625 C 99.00164 77.499411 90.871094 43.503906 90.871094 43.503906 A 3.9651224 3.9651224 0 0 0 90.871094 43.501953 C 90.108835 40.321105 86.99747 37.866888 83.726562 37.867188 L 56.910156 37.867188 C 53.638134 37.867341 50.526254 40.323475 49.765625 43.505859 A 3.9651224 3.9651224 0 0 0 49.765625 43.507812 C 49.765625 43.507812 44.45544 65.753176 39.652344 85.873047 L 39.652344 25.341797 L 46.332031 25.341797 A 3.9651224 3.9651224 0 0 0 46.333984 25.341797 C 50.179192 25.340651 53.676588 21.843254 53.677734 17.998047 A 3.9651224 3.9651224 0 0 0 53.677734 17.996094 L 53.677734 0 A 3.9651224 3.9651224 0 0 0 53.677734 -0.001953125 C 53.676594 -3.8528225 50.167268 -7.3534512 46.316406 -7.3457031 A 3.9651224 3.9651224 0 0 0 46.314453 -7.3457031 z M 70.322266 102.23633 C 71.316564 106.5783 72.434725 111.46489 73.082031 114.29297 L 67.556641 114.29297 C 68.215699 111.42894 69.329081 106.56949 70.322266 102.23633 z "
     d="M 46.314453,-4.890625 0.70898437,-4.7734375 c -2.35389487,0.00614 -4.87821257,2.535344 -4.87890627,4.88867187 0,0 0,0.001953 0,0.001953 V 17.996094 c 0,0 0,0.002 0,0.002 7.029e-4,2.356931 2.5317418,4.887969 4.8886719,4.888672 0,0 0.001953,0 0.001953,0 H 6.5878906 a 2.4554026,2.4554026 0 0 1 2.4550782,2.455078 v 89.832033 a 2.4554026,2.4554026 0 0 1 -2.4550782,2.45508 H 0 c 0,0 -0.00195313,0 -0.00195313,0 -2.35692747,7e-4 -4.88796967,2.53173 -4.88867187,4.88867 0,0 0,0.002 0,0.002 v 18.16211 c 0,0 0,0.002 0,0.002 7.022e-4,2.35694 2.5317444,4.88798 4.88867187,4.88868 0,0 0.00195313,0 0.00195313,0 h 24.800781 a 2.4554026,2.4554026 0 0 1 2.388672,3.02734 c -0.977526,4.08358 -1.902408,7.94786 -2.671875,11.17969 a 2.4554026,2.4554026 0 0 1 -2.388672,1.88672 H 14.0625 c 0,0 -0.002,0 -0.002,0 -2.356928,6.9e-4 -4.8879698,2.53173 -4.888672,4.88867 0,0 0,0.002 0,0.002 v 19.10352 c 0,0 0,0.002 0,0.002 7.004e-4,2.3588 2.539232,4.89205 4.898438,4.88867 l 47.357421,-0.0957 c 2.354656,-0.005 4.882116,-2.53444 4.882813,-4.88867 0,0 0,-0.002 0,-0.002 v -19.00781 c 0,0 0,-0.002 0,-0.002 -7.03e-4,-2.35694 -2.531745,-4.88798 -4.888672,-4.88867 0,0 -0.002,0 -0.002,0 h -4.125 a 2.4554026,2.4554026 0 0 1 -2.394531,-3 c 0.311934,-1.36969 0.529705,-2.33125 0.972656,-4.26563 0.748221,-3.26751 1.134215,-4.96938 1.578125,-6.91797 a 2.4554026,2.4554026 0 0 1 2.394531,-1.91015 h 20.958984 a 2.4554026,2.4554026 0 0 1 2.392579,1.90429 c 0.727351,3.16382 1.615752,7.04989 2.560546,11.1875 a 2.4554026,2.4554026 0 0 1 -2.392578,3.00196 h -4.125 c 0,0 -0.002,0 -0.002,0 -2.356926,6.9e-4 -4.887969,2.53173 -4.888672,4.88867 0,0 0,0.002 0,0.002 v 19.00781 c 0,0 0,0.002 0,0.002 6.97e-4,2.35423 2.528159,4.88389 4.882813,4.88867 l 47.353518,0.0957 c 2.35942,0.005 4.89973,-2.53263 4.90039,-4.89258 v -0.002 l -0.0117,-19.10156 a 2.4554026,2.4554026 0 0 1 0,-0.002 v -0.002 c -0.003,-2.35564 -2.53327,-4.88407 -4.88867,-4.88476 0,0 -0.002,0 -0.002,0 h -8.04882 a 2.4554026,2.4554026 0 0 1 -2.38868,-1.88672 c -0.77273,-3.24863 -1.69398,-7.1096 -2.66601,-11.18164 a 2.4554026,2.4554026 0 0 1 2.38867,-3.02539 h 13.625 c 0,0 0.002,0 0.002,0 2.35693,-7e-4 4.88798,-2.53175 4.88868,-4.88868 0,0 0,-0.002 0,-0.002 v -38.06445 c 0,0 0,-0.002 0,-0.002 -7e-4,-2.35691 -2.53174,-4.887965 -4.88868,-4.888668 0,0 -0.002,0 -0.002,0 h -19.06836 c 0,0 -0.002,0 -0.002,0 -1.5538,4.63e-4 -3.20442,1.090101 -4.13477,2.664068 a 2.4554026,2.4554026 0 0 1 -4.50195,-0.679693 C 96.613013,78.069908 88.482422,44.074219 88.482422,44.074219 a 2.4554026,2.4554026 0 0 1 0,-0.0059 c -0.47909,-1.984407 -2.71519,-3.746281 -4.75586,-3.746093 H 56.910156 c -2.042879,9.5e-5 -4.279928,1.765007 -4.755859,3.751953 -1.35e-4,5.62e-4 1.34e-4,0.0014 0,0.002 a 2.4554026,2.4554026 0 0 1 0,0.002 c 0,0 -5.31018,22.24534 -10.113281,42.365234 a 2.4554026,2.4554026 0 0 1 -4.84375,-0.570312 v -60.53125 a 2.4554026,2.4554026 0 0 1 2.455078,-2.455078 h 6.679687 c 0,0 0.002,0 0.002,0 2.356932,-7.03e-4 4.88797,-2.531742 4.888672,-4.888672 0,0 0,-0.002 0,-0.002 V 0 c 0,0 0,-0.00195313 0,-0.00195313 -6.98e-4,-2.35970807 -2.540429,-4.89342017 -4.90039,-4.88867187 a 2.4554026,2.4554026 0 0 1 -0.002,0 z M 70.322266,99.78125 a 2.4554026,2.4554026 0 0 1 2.392578,1.90625 c 0.994366,4.34227 2.112497,9.23068 2.759765,12.05859 a 2.4554026,2.4554026 0 0 1 -2.392578,3.00196 h -5.52539 a 2.4554026,2.4554026 0 0 1 -2.392579,-3.00586 c 0.658468,-2.86147 1.772406,-7.72138 2.765625,-12.05469 a 2.4554026,2.4554026 0 0 1 2.392579,-1.90625 z"
     transform="translate(4.890625,4.8906317)" />
  <path
     d="m 115.31662,107.50764 v 19.01 l -8.422,0.01 c -0.388,-1.65 -18.277995,-76.424008 -18.277995,-76.424008 h -26.816 c 0,0 -17.856,74.775008 -18.244,76.425008 h -6.36 V 22.886632 h 14.027 V 4.8906317 l -45.613,0.118 V 22.886632 h 13.213 V 127.41064 h -13.933 v 18.162 h 34.108 c -0.566,2.355 -5.842,24.39 -6.183,25.875 h -13.862 v 19.103 l 47.356,-0.095 v -19.008 h -13.333 c 0.507,-2.344 5.572,-24.357 5.9,-25.875 h 32.674 c 0.364,1.518 5.404,23.53 5.923,25.875 h -13.343 v 19.008 l 47.355995,0.095 -0.012,-19.103 h -13.85 c -0.34,-1.485 -5.618,-23.52 -6.17,-25.875 h 22.93 v -38.065 z m -52.089995,19.02 c 0.563,-2.378 10.622,-46.250008 11.988,-52.292008 1.39,6.042 11.435,49.913008 11.978,52.293008 h -23.967 z"
     id="path1"
     sodipodi:nodetypes="cccccccccccccccccccccccccccccccccccccccc"
     style="fill:#005a9c" />
  <metadata
     id="metadata2">
    <rdf:RDF>
      <cc:Work
         rdf:about="">
        <dc:title>Los Angeles Dodgers hat dark logo</dc:title>
      </cc:Work>
    </rdf:RDF>
  </metadata>
</svg>
