<?xml version="1.0" encoding="utf-8"?>
<!-- Generator: Adobe Illustrator 27.0.0, SVG Export Plug-In . SVG Version: 6.00 Build 0)  -->
<svg version="1.1" id="Layer_1" xmlns="http://www.w3.org/2000/svg" xmlns:xlink="http://www.w3.org/1999/xlink" x="0px" y="0px"
	 viewBox="0 0 150 150" style="enable-background:new 0 0 150 150;" xml:space="preserve">
<style type="text/css">
	.st0{fill:#FFFFFF;}
	.st1{fill:#E31E34;}
</style>
<g>
	<path class="st0" d="M80.4,125.8c-3.6,0-7.1-0.2-10.5-0.5l0,0c-0.4,8.3-2.3,16.1-5.2,24.5h30.5c-2.9-8.3-4.8-16.2-5.2-24.5l0,0
		C86.9,125.7,83.7,125.8,80.4,125.8L80.4,125.8z"/>
	<path class="st1" d="M89.9,108.8L89.9,108.8c-3,0.4-6.3,0.6-9.6,0.6c-3.6,0-7-0.2-10.2-0.7l0,0c-10.2-1.4-18.5-4.8-24.2-9.5
		c-6.1-4.8-10-11.3-10-18.3s3.9-13.5,10-18.3c5.8-4.6,14.1-8.1,24.3-9.5l0,0c0-0.1,0-0.2,0-0.2c0-5.5,0-11-0.1-16.3
		c-19.4,1.9-33.7,9.9-47.5,23.6c-5.8,5.7-12.3,13.4-20.2,20.7c7.9,7.3,14.5,14.9,20.2,20.7c13.8,13.8,28,21.7,47.3,23.7l0,0
		c3.3,0.4,6.8,0.5,10.5,0.5c3.3,0,6.4-0.2,9.5-0.5l0,0c28.9-2.7,49.1-17.4,54.6-35.7l-21.8-0.1C117.4,99.3,105.8,106.6,89.9,108.8
		L89.9,108.8z"/>
	<path class="st1" d="M89.9,52.9L89.9,52.9c15.9,2.1,27.5,9.5,32.8,19.2l21.8-0.1C139,53.7,118.7,39,89.8,36.4l0,0
		C89.9,41.8,89.9,47.3,89.9,52.9L89.9,52.9z"/>
	<g>
		<polygon class="st0" points="107.7,133.1 106.8,135.2 106.8,135.2 105.5,131.4 103.3,131.4 103.3,137.3 104.6,137.3 104.6,132.6 
			104.6,132.6 106.2,137.3 107.4,137.3 107.7,136.6 109.1,132.6 109.1,132.6 109.1,137.3 110.3,137.3 110.3,131.4 108.3,131.4 		"/>
		<polygon class="st0" points="97.6,132.5 99.3,132.5 99.3,137.3 100.5,137.3 100.5,132.5 102.3,132.5 102.3,131.4 97.6,131.4 		"/>
	</g>
	<path class="st0" d="M70.2,53c0,18.6,0.1,37.8-0.1,55.7l0,0c3.2,0.5,6.6,0.7,10.2,0.7c3.3,0,6.6-0.2,9.6-0.6c0-18,0-37.2,0-55.8
		l0,0c0-5.6,0-11.1,0-16.6l0,0c0-1.7,0-3.5,0-5.2c0-5.8,0.1-10.4,0.2-14.3c18.5,1,35.9,6.9,51.4,17.2l-3.9-24.6
		c-16.1-5.8-36.8-8.6-57.5-8.6S38.6,3.7,22.5,9.4l-3.9,24.6C34.1,23.8,51.4,17.8,70,16.9c0.1,3.9,0.2,8.5,0.2,14.3
		c0,7,0,14.2,0.1,21.6C70.1,52.8,70.1,52.9,70.2,53L70.2,53L70.2,53z"/>
</g>
</svg>
