<?xml version="1.0" encoding="UTF-8" standalone="no"?>
<svg
   viewBox="0 0 196.02399 216.66969"
   version="1.1"
   id="svg2"
   sodipodi:docname="NYY_6.svg"
   width="196.02399"
   height="216.66969"
   inkscape:version="1.4 (86a8ad7, 2024-10-11)"
   xmlns:inkscape="http://www.inkscape.org/namespaces/inkscape"
   xmlns:sodipodi="http://sodipodi.sourceforge.net/DTD/sodipodi-0.dtd"
   xmlns="http://www.w3.org/2000/svg"
   xmlns:svg="http://www.w3.org/2000/svg"
   xmlns:rdf="http://www.w3.org/1999/02/22-rdf-syntax-ns#"
   xmlns:cc="http://creativecommons.org/ns#"
   xmlns:dc="http://purl.org/dc/elements/1.1/">
  <defs
     id="defs2" />
  <sodipodi:namedview
     id="namedview2"
     pagecolor="#ffffff"
     bordercolor="#000000"
     borderopacity="0.25"
     inkscape:showpageshadow="2"
     inkscape:pageopacity="0.0"
     inkscape:pagecheckerboard="0"
     inkscape:deskcolor="#d1d1d1"
     inkscape:zoom="4.239033"
     inkscape:cx="117.12577"
     inkscape:cy="118.30528"
     inkscape:window-width="3440"
     inkscape:window-height="1377"
     inkscape:window-x="-8"
     inkscape:window-y="-8"
     inkscape:window-maximized="1"
     inkscape:current-layer="svg2" />
  <title
     id="title1">New York Yankees hat dark logo</title>
  <g
     fill="#132448"
     id="g4"
     transform="translate(10.297533,10.350126)">
    <path
       d="M 175.387,166.952 C 172.625,170.27 156.3,186.337 142.2,196 139.855,162.3 123.648,140.613 97.1,122.122 v 0.012 c -0.83,17.99 -0.92,33.772 -0.28,44.818 0.554,9.555 5.128,15.365 12.585,21.45 -9.68,2.206 -38.043,1.79 -47.712,-1.24 1.11,-0.824 13.07,-7.456 14.107,-29.05 0.728,-15.52 0.823,-26.984 0.275,-45.928 l -1.128,-4.855 c -12.925,-9.52 -24.2,-19.315 -38.716,-34.99 13.284,35.143 -3.596,78.84 -5.523,94.887 -0.656,5.392 -2.36,16.33 -1.807,27.533 -4.14,-2.493 -20.89,-13.42 -28.9,-23.93 23.376,-39.976 40.245,-79.247 3.59,-114.94 6.926,-10.38 17.156,-19.648 25.31,-23.656 8.595,24.754 27.395,44.4 40.96,52.966 C 59.475,46.739 46.181,34.165 37.764,29.869 43.28,16.917 61.55,3.448 71.237,0 66.805,14.375 66.429,23.788 70.813,39.14 75.24,54.637 82.163,73.45 89.9,87.562 c 4.158,-7.194 18.824,-37.626 22.685,-50.903 3.888,-13.278 3.888,-25.17 2.218,-33.762 8.44,4.283 26.56,21.307 30.713,29.61 -8.853,1.92 -13.004,6.466 -18.26,15.472 -5.403,9.28 -19.092,44.282 -26.696,59.35 8.028,6.93 21.992,15.638 33.05,28.927 -12.167,-47.872 0.28,-84.257 16.332,-95.16 7.467,2.195 17.004,8.28 23.935,15.485 -26.018,10.927 -24.34,44.127 -24.485,46.596 -1.186,19.04 6.496,52.87 20.907,61.114 3.13,1.8 3.447,1.92 5.087,2.66 C 172.625,170.27 156.3,186.337 142.2,196"
       id="path3" />
    <path
       id="path4"
       sodipodi:type="inkscape:offset"
       inkscape:radius="1.4575433"
       inkscape:original="M 72.126953 -8.8476562 A 8.8935198 8.8935198 0 0 0 68.253906 -8.3769531 C 61.627994 -6.0185197 54.365304 -1.4265265 47.226562 4.5527344 C 40.753131 9.9747454 34.682074 16.420263 30.818359 24.056641 A 8.8935198 8.8935198 0 0 0 24.978516 24.251953 C 14.596036 29.355335 4.0084325 39.243598 -3.8046875 50.953125 A 8.8935198 8.8935198 0 0 0 -2.6113281 62.259766 C 14.059814 78.493378 17.754082 93.532719 15.492188 110.58203 C 13.230293 127.63134 3.8441796 146.64256 -7.6738281 166.33984 A 8.8935198 8.8935198 0 0 0 -7.0703125 176.21875 C 2.7606969 189.11811 19.4134 199.42684 24.3125 202.37695 A 8.8935198 8.8935198 0 0 0 37.78125 194.32227 C 37.286641 184.3022 38.830365 174.09382 39.535156 168.30078 A 8.8935198 8.8935198 0 0 0 39.537109 168.28711 C 40.248045 162.36683 45.028946 146.43927 47.951172 128.36328 C 49.452524 119.07638 50.472216 108.95793 50.113281 98.621094 C 55.759486 103.68647 61.295078 108.12875 67.003906 112.43164 L 67.197266 113.26758 C 67.710338 131.49122 67.625154 142.60519 66.917969 157.68555 C 66.475948 166.88997 63.877988 172.05286 61.59375 175.17969 C 60.451631 176.7431 59.361242 177.78772 58.537109 178.47266 C 57.712977 179.1576 58.222493 178.66306 56.392578 180.02148 A 8.8935198 8.8935198 0 0 0 59.033203 195.64844 C 66.124386 197.87062 75.434678 198.42078 85.351562 198.63672 C 95.268447 198.85266 104.58823 198.62026 111.38086 197.07227 A 8.8935198 8.8935198 0 0 0 115.02734 181.51172 C 108.33997 176.05474 106.09999 173.3758 105.69727 166.4375 L 105.69727 166.43555 C 105.30448 159.65521 105.30949 150.29069 105.50195 140.05469 C 122.16989 154.826 131.58893 171.62321 133.32812 196.61719 A 8.8935198 8.8935198 0 0 0 147.22656 203.33594 C 154.85234 198.10985 162.65132 191.48514 169.0332 185.66992 C 175.41508 179.8547 179.84369 175.49614 182.2207 172.64062 A 8.8935198 8.8935198 0 0 0 179.04492 158.8457 C 177.34117 158.07694 177.78511 158.33757 174.73242 156.58203 A 8.8935198 8.8935198 0 0 0 174.71484 156.57227 C 171.46892 154.71539 165.77404 146.05333 162.51172 135.21875 C 159.24939 124.38417 157.76895 111.73539 158.26758 103.73047 A 8.8935198 8.8935198 0 0 0 158.26953 103.69922 C 158.35129 102.30713 158.29365 102.10669 158.31055 101.05859 C 158.32745 100.0105 158.36951 98.650553 158.48828 97.050781 C 158.72583 93.851237 159.2784 89.707109 160.48242 85.494141 C 162.89046 77.068204 167.3389 68.971273 177.32031 64.779297 A 8.8935198 8.8935198 0 0 0 180.28516 50.416016 C 172.74862 42.581539 163.42779 36.369114 154.22852 33.25 A 8.8935198 8.8935198 0 0 0 153.46875 28.529297 C 150.16537 21.924932 144.38488 15.949074 137.9082 9.7636719 C 131.43153 3.5782693 124.9963 -1.9020828 118.82617 -5.0332031 A 8.8935198 8.8935198 0 0 0 106.07422 4.59375 C 107.45116 11.678007 107.53625 22.256851 104.05078 34.160156 A 8.8935198 8.8935198 0 0 0 104.04688 34.175781 C 102.00084 41.21158 95.725922 55.053585 90.0625 66.980469 C 85.858528 56.942826 82.068529 46.168849 79.363281 36.699219 L 79.363281 36.697266 C 75.280312 22.398704 75.582921 16.084202 79.734375 2.6191406 A 8.8935198 8.8935198 0 0 0 72.126953 -8.8476562 z M 120.86133 83.732422 C 119.83383 92.308819 119.76039 101.68926 120.62695 111.70312 C 116.99896 108.82811 114.4046 106.82243 111.58789 104.66016 C 114.49695 98.388484 117.61361 91.323633 120.86133 83.732422 z "
       d="M 72.273437,-10.298828 C 70.75503,-10.451493 69.203263,-10.261922 67.765625,-9.75 60.893618,-7.3039714 53.5212,-2.6203043 46.291016,3.4355469 39.984333,8.717893 34.051194,15.023828 30.050781,22.503906 28.178527,22.160338 26.229867,22.207222 24.453125,22.892578 a 1.457689,1.457689 0 0 0 -0.117188,0.05078 C 13.636593,28.202492 2.9226925,38.244443 -5.0175781,50.144531 c -1.3278034,1.990425 -1.9327796,4.450629 -1.6816406,6.830078 0.2511389,2.37945 1.3562362,4.660709 3.0703124,6.330078 16.4258873,15.994794 19.8957673,30.352514 17.6757813,47.085943 -2.211336,16.66821 -11.4926242,35.57053 -22.9785156,55.21289 -2.0552904,3.51528 -1.7667444,8.25909 0.7011718,11.49804 10.0850764,13.23273 26.8568878,23.55224 31.7910158,26.52344 3.19492,1.92276 7.450124,1.92947 10.65039,0.0156 3.200267,-1.91384 5.207638,-5.66425 5.025391,-9.38867 a 1.457689,1.457689 0 0 0 0,-0.002 c -0.484177,-9.80874 1.030138,-19.89597 1.742188,-25.74219 l 0.002,-0.0156 a 1.457689,1.457689 0 0 0 0.0039,-0.0312 c 0.327803,-2.72976 1.697736,-8.25017 3.349609,-15.24219 1.651873,-6.99202 3.586306,-15.52801 5.056641,-24.62305 1.357486,-8.39699 2.181272,-17.53515 2.101562,-26.88281 4.730565,4.12528 9.420592,7.92963 14.207032,11.54883 l 0.04297,0.18164 c 0.507556,18.10881 0.424537,29.16493 -0.279296,44.17383 -0.430443,8.95579 -2.903096,13.76856 -5.046875,16.70312 -1.063886,1.45632 -2.060637,2.408 -2.810547,3.03125 -0.393006,0.32663 -0.33956,0.28051 -0.552735,0.41797 -0.213174,0.13746 -0.598354,0.39096 -1.529297,1.08203 -3.046206,2.26151 -4.667286,6.29427 -4.035156,10.03516 0.63213,3.74088 3.489224,7.01731 7.109375,8.15234 7.373064,2.31052 16.771754,2.83801 26.722656,3.05469 9.959511,0.21687 19.341338,0.006 26.384768,-1.59961 3.75555,-0.85644 6.89848,-3.9801 7.77734,-7.73047 0.87887,-3.75036 -0.54916,-7.94506 -3.5332,-10.38086 -3.31493,-2.70502 -5.42847,-4.66263 -6.72266,-6.64844 -1.29418,-1.9858 -1.88129,-4.05693 -2.07422,-7.38085 a 1.457689,1.457689 0 0 0 0,-0.002 c -0.34327,-5.92562 -0.34943,-14.08424 -0.2207,-22.91992 14.90396,14.02327 23.31453,29.87908 24.94336,53.28711 0.25203,3.61736 2.55564,7.02141 5.82031,8.59961 3.26468,1.5782 7.36403,1.27011 10.35547,-0.7793 7.71732,-5.28882 15.55334,-11.9488 21.96484,-17.79101 6.40176,-5.83333 10.84623,-10.19661 13.32618,-13.17578 2.03157,-2.44089 2.84332,-5.84859 2.13086,-8.94336 -0.71246,-3.09478 -2.93377,-5.80446 -5.82813,-7.11133 -1.7298,-0.78052 -1.13396,-0.44432 -4.18555,-2.19922 a 1.457689,1.457689 0 0 0 -0.0176,-0.01 c -7.4e-4,-4.1e-4 -0.001,-0.002 -0.002,-0.002 -1.09395,-0.62581 -3.39638,-3.14854 -5.56836,-6.79102 -2.17197,-3.64247 -4.36832,-8.42102 -5.96289,-13.71679 -3.20666,-10.64969 -4.66648,-23.24315 -4.18554,-30.97461 v -0.004 c 6.9e-4,-0.0109 0.001,-0.0224 0.002,-0.0332 a 1.457689,1.457689 0 0 0 0,-0.002 c 0.0846,-1.44029 0.027,-1.71144 0.043,-2.70313 0.0166,-1.02943 0.0577,-2.35954 0.17383,-3.923827 0.23207,-3.125782 0.77635,-7.180231 1.94336,-11.263672 2.3455,-8.207137 6.49382,-15.779098 16,-19.771484 3.08348,-1.295874 5.45079,-4.173555 6.12695,-7.449219 0.67616,-3.275664 -0.35745,-6.856667 -2.67578,-9.267578 -7.42716,-7.720769 -16.53289,-13.831351 -25.68555,-17.136719 6.1e-4,-1.495178 -0.23165,-2.991381 -0.85742,-4.349609 a 1.457689,1.457689 0 0 0 -0.0215,-0.04297 C 151.32114,20.978773 145.41658,14.919062 138.91406,8.7089844 132.39963,2.4875183 125.90379,-3.0753992 119.48633,-6.3320312 a 1.457689,1.457689 0 0 0 -0.002,-0.00195 c -3.43401,-1.7408755 -7.84326,-1.3470898 -10.91602,0.9726563 C 105.4956,-3.041582 103.909,1.0915532 104.64258,4.8710937 105.96981,11.69962 106.07057,22.076349 102.65234,33.75 a 1.457689,1.457689 0 0 0 -0.006,0.01953 c -1.79717,6.180015 -7.234635,18.315529 -12.468746,29.455078 -3.661059,-9.058692 -7.006235,-18.502411 -9.412109,-26.923828 -1.6e-4,-5.61e-4 1.6e-4,-0.0014 0,-0.002 a 1.457689,1.457689 0 0 0 0,-0.002 C 76.718985,22.125539 77.007423,16.410344 81.126953,3.0488281 82.025442,0.13199181 81.548617,-3.1774234 79.861328,-5.7207031 78.174039,-8.2639829 75.310131,-9.9907588 72.273437,-10.296875 a 1.457689,1.457689 0 0 0 0,-0.002 z m 46.636723,102.03125 c -0.27224,5.401584 -0.25895,11.009998 0.13476,16.890628 -1.97746,-1.5512 -3.92036,-3.07138 -5.66406,-4.41211 1.74865,-3.79068 3.65432,-8.195425 5.5293,-12.478518 z" />
  </g>
  <g
     fill="#132448"
     id="g2"
     style="fill:#ffffff"
     transform="translate(10.297533,10.227001)">
    <path
       d="M 175.387,166.952 C 172.625,170.27 156.3,186.337 142.2,196 139.855,162.3 123.648,140.613 97.1,122.122 v 0.012 c -0.83,17.99 -0.92,33.772 -0.28,44.818 0.554,9.555 5.128,15.365 12.585,21.45 -9.68,2.206 -38.043,1.79 -47.712,-1.24 1.11,-0.824 13.07,-7.456 14.107,-29.05 0.728,-15.52 0.823,-26.984 0.275,-45.928 l -1.128,-4.855 c -12.925,-9.52 -24.2,-19.315 -38.716,-34.99 13.284,35.143 -3.596,78.84 -5.523,94.887 -0.656,5.392 -2.36,16.33 -1.807,27.533 -4.14,-2.493 -20.89,-13.42 -28.9,-23.93 23.376,-39.976 40.245,-79.247 3.59,-114.94 6.926,-10.38 17.156,-19.648 25.31,-23.656 8.595,24.754 27.395,44.4 40.96,52.966 C 59.475,46.739 46.181,34.165 37.764,29.869 43.28,16.917 61.55,3.448 71.237,0 66.805,14.375 66.429,23.788 70.813,39.14 75.24,54.637 82.163,73.45 89.9,87.562 c 4.158,-7.194 18.824,-37.626 22.685,-50.903 3.888,-13.278 3.888,-25.17 2.218,-33.762 8.44,4.283 26.56,21.307 30.713,29.61 -8.853,1.92 -13.004,6.466 -18.26,15.472 -5.403,9.28 -19.092,44.282 -26.696,59.35 8.028,6.93 21.992,15.638 33.05,28.927 -12.167,-47.872 0.28,-84.257 16.332,-95.16 7.467,2.195 17.004,8.28 23.935,15.485 -26.018,10.927 -24.34,44.127 -24.485,46.596 -1.186,19.04 6.496,52.87 20.907,61.114 3.13,1.8 3.447,1.92 5.087,2.66 C 172.625,170.27 156.3,186.337 142.2,196"
       id="path1"
       style="fill:#ffffff" />
    <path
       d="M 175.387,166.952 C 172.625,170.27 156.3,186.337 142.2,196 139.855,162.3 123.648,140.613 97.1,122.122 v 0.012 c -0.83,17.99 -0.92,33.772 -0.28,44.818 0.554,9.555 5.128,15.365 12.585,21.45 -9.68,2.206 -38.043,1.79 -47.712,-1.24 1.11,-0.824 13.07,-7.456 14.107,-29.05 0.728,-15.52 0.823,-26.984 0.275,-45.928 l -1.128,-4.855 c -12.925,-9.52 -24.2,-19.315 -38.716,-34.99 13.284,35.143 -3.596,78.84 -5.523,94.887 -0.656,5.392 -2.36,16.33 -1.807,27.533 -4.14,-2.493 -20.89,-13.42 -28.9,-23.93 23.376,-39.976 40.245,-79.247 3.59,-114.94 6.926,-10.38 17.156,-19.648 25.31,-23.656 8.595,24.754 27.395,44.4 40.96,52.966 C 59.475,46.739 46.181,34.165 37.764,29.869 43.28,16.917 61.55,3.448 71.237,0 66.805,14.375 66.429,23.788 70.813,39.14 75.24,54.637 82.163,73.45 89.9,87.562 c 4.158,-7.194 18.824,-37.626 22.685,-50.903 3.888,-13.278 3.888,-25.17 2.218,-33.762 8.44,4.283 26.56,21.307 30.713,29.61 -8.853,1.92 -13.004,6.466 -18.26,15.472 -5.403,9.28 -19.092,44.282 -26.696,59.35 8.028,6.93 21.992,15.638 33.05,28.927 -12.167,-47.872 0.28,-84.257 16.332,-95.16 7.467,2.195 17.004,8.28 23.935,15.485 -26.018,10.927 -24.34,44.127 -24.485,46.596 -1.186,19.04 6.496,52.87 20.907,61.114 3.13,1.8 3.447,1.92 5.087,2.66 C 172.625,170.27 156.3,186.337 142.2,196"
       id="path2"
       style="fill:#ffffff" />
  </g>
  <metadata
     id="metadata4">
    <rdf:RDF>
      <cc:Work
         rdf:about="">
        <dc:title>New York Yankees hat dark logo</dc:title>
      </cc:Work>
    </rdf:RDF>
  </metadata>
</svg>
