<svg enable-background="new 0 0 231.597 208.032" viewBox="0 0 231.597 208.032" xmlns="http://www.w3.org/2000/svg"><g fill="#003278"><path d="m81.024 48.633 23.38-.235s.286 4.746 6.192 4.746v8.197h-5.56c-5.206 0-21.439 9.051-22.135 30.535l7.835-.021 3.241-9.977 3.242 9.977h8.029v-7.21c0-6.14 4.995-11.137 11.136-11.137 5.695 0 10.271 4.52 11.127 10.992.175 1.324.296 2.613.366 3.867v-3.721c0-6.14 4.995-11.137 11.136-11.137 5.695 0 10.271 4.52 11.127 10.992.342 2.586.468 5.035.433 7.355h5.151l3.242-9.977 3.241 9.977 6.896.02c-.697-21.483-16.93-30.535-22.136-30.535h-5.56v-8.197c5.905 0 6.192-4.746 6.192-4.746l23.379.235 5.764 17.608h26.296v-22h-3.874v-29.812l-7.348-6.966h-43.979l-8.576-5.003h-26.519l-8.576 5.003h-43.98l-7.348 6.966v29.812h-3.874v22h26.296z"/><path d="m169.134 94.451-4.925 3.57 3.241 9.977-8.486-6.167-8.488 6.166 3.242-9.976-3.351-2.435c-1.196 12.396-7.149 20.449-10.392 23.982v1.823c0 3.576 2.897 6.485 6.458 6.485 3.576 0 6.485-2.909 6.485-6.485v-10.618c0-3.335 2.714-6.05 6.05-6.05s6.051 2.715 6.051 6.05v14.808c0 1.44 1.173 2.613 2.614 2.613 1.223 0 2.256-.826 2.535-1.996-.527-1.86-.793-3.791-.793-5.744 0-.917.079-1.813.193-2.698-.596-7.345-.449-15.131-.434-23.305z"/><path d="m102.633 128.194c1.441 0 2.614-1.172 2.615-2.612v-10.427-21.511l-6.025 4.378 3.241 9.976-8.487-6.166-8.486 6.166 3.241-9.976-5.864-4.241c.006 6.937.124 13.598-.177 19.949v1.979 9.874c.001 1.44 1.173 2.612 2.614 2.612 1.442 0 2.614-1.172 2.614-2.613v-14.808c0-3.335 2.715-6.05 6.051-6.05s6.05 2.715 6.05 6.05v14.808c0 1.44 1.172 2.612 2.613 2.612z"/><path d="m118.393 85.675c-.065-.621-.276-.92-.611-.92-.246 0-.434.307-.434.787v14.92c1.652-6.703 1.092-14.206 1.045-14.787z"/><path d="m141.033 85.68c-.066-.621-.277-.919-.612-.919-.246 0-.434.306-.434.786v14.92c1.652-6.703 1.093-14.205 1.046-14.787z"/><path d="m117.348 122.493c0 2.971 2.417 5.388 5.389 5.388 2.914 0 5.112-2.316 5.112-5.388l.027-25.957v-2.682c-.778 13.383-7.137 22.018-10.528 25.714z"/><path d="m164.839 140.358c-3.702 0-7.102-1.674-9.351-4.543-2.817 2.941-6.752 4.543-11.234 4.543-4.687 0-8.762-1.859-11.63-5.269-2.842 3.454-6.827 5.269-11.617 5.269-4.576 0-8.58-1.779-11.436-5.045-2.216 3.147-5.814 5.045-9.731 5.045-3.329 0-6.418-1.351-8.664-3.748-2.248 2.397-5.336 3.748-8.665 3.748-1.909 0-3.709-.462-5.31-1.264-2.036 4.204-4.787 8.193-8.52 11.947-15.518 15.606-12.414 27.422-12.414 27.422h61.603l-.538-2.248c-.846-1.237-2.994-4.404-2.994-4.404l-3.053-12.759c-.963-1.424-3.764-5.565-3.764-5.565l-.288-12.631h2.787l-.063 9.433c.96 1.418 3.763 5.564 3.763 5.564l3.055 12.765c.845 1.242 2.994 4.421 2.994 4.421l1.296 5.418-.001.008v2.381l-1.359 1.019c-.04.03-3.996 3.027-4.267 7.308-.02.16-.02.316-.02.475 0 2.768 1.559 5.681 4.641 8.667l1.024.995v6.264h9.84v-6.264l1.024-.995c3.082-2.987 4.641-5.899 4.641-8.667 0-.159 0-.315-.02-.475-.27-4.281-4.226-7.278-4.267-7.308l-1.379-1.034-.022-2.366h64.838s3.104-11.816-12.414-27.422c-4.429-4.454-7.482-9.236-9.589-14.318-2.3 2.265-5.494 3.633-8.896 3.633z"/><path d="m188.001 183.023h1.03v2.811h.699v-2.811h1.032v-.61h-2.761z"/><path d="m193.412 184.648h-.018l-.796-2.235h-1.211v3.421h.698v-2.724h.019l.955 2.724h.677l.99-2.724h.017v2.724h.697v-3.421h-1.201z"/></g><path d="m189.129 116.071c1.046-1.929 1.273-3.417.674-4.423-.498-.838-1.292-1.212-2.359-1.132-4.678.356-8.184 4.888-7.812 10.161.02.292.061.569.097.802l.069.441.435-.101c1.549-.359 6.775-1.838 8.896-5.748zm-8.004 3.925c-.038-4.187 2.75-7.703 6.426-7.962.319-.033.786.067.946.393.193.391.376.928-.704 2.919-1.437 2.649-4.763 4.043-6.668 4.65z" fill="#fff"/><path d="m119.902 85.341c-.302-1.951-1.459-2.243-2.12-2.243-1.077 0-1.954 1.034-1.954 2.306v7.406 3.788 9.722 1.572l.776-1.367c4.433-7.822 3.349-20.616 3.298-21.184zm-2.554.201c0-.48.188-.787.434-.787.335 0 .547.299.611.92.047.581.607 8.083-1.045 14.787z" fill="#fff"/><path d="m36.769 73.973c-.381 0-2.852.153-2.852.153l.004 20.05c.724-.087 1.631-.232 2.113-.332 6.229-1.165 10.099-5.15 10.099-10.398 0-.389-.021-.777-.061-1.156-.643-5.519-3.773-8.318-9.303-8.317zm-1.014 18.377-.317.06v-16.863s.983-.054 1.331-.054c4.698 0 7.247 2.281 7.793 6.973.034.314.051.647.051.981 0 4.469-3.394 7.881-8.858 8.903z" fill="#fff"/><path d="m230.081 119.401c-2.315-5.337-7.095-10.329-14.019-14.916l-.035-.025c-2.085-1.473-2.965-3.105-2.965-3.105l-.104-.157c-.397-.595-1.06-.948-1.777-.948-.45 0-.881.137-1.247.397l-5.05 3.595c-.898.64-1.357 1.748-1.166 2.825.592 3.366.198 6.848-1.173 10.348-3.1 7.018-8.303 11.043-14.275 11.043-.23 0-.458-.012-.685-.036 5.817-2.862 8.691-6.752 10.1-9.687 1.706-3.554 1.687-6.474 1.68-6.792-.01-11.265-10.772-11.394-11.231-11.394l-.063.001c-7.061-.001-13.225 4.197-16.405 10.373-.123-4.087-.105-8.312-.086-12.666.008-1.635.015-3.287.015-4.955.158-23.814-17.846-34.421-24.628-34.421h-3.1v-3.527c3.125-.68 4.812-2.637 5.606-4.476l19.717.198 5.215 15.931.554 1.695h1.783 26.296 2.46v-2.46-22.001-2.46h-2.46-1.413v-27.353-1.057l-.767-.728-7.348-6.966-.712-.674h-.981-43.314l-8.002-4.667-.575-.336h-.665-26.519-.665l-.575.336-8.002 4.667h-43.313-.982l-.711.674-7.348 6.966-.767.728v1.057 27.353h-1.413-2.46v2.46 21.111c-.249-.124-.486-.258-.743-.377-4.136-1.901-9.077-2.905-14.287-2.905-9.463 0-18.379 3.183-23.849 8.514-5.654 5.549-8.428 12.214-7.423 17.834.586 3.273 2.392 5.757 5.1 6.955 1.801.798 3.119 1.046 4.55 1.046 1.328 0 2.596-.277 3.729-.889 4.717-2.541 5.774-9.226 5.819-9.512 0 0 .194-1.084.203-1.741-.272.024-1.08.068-1.754.054-.461-.009-1.241-.081-1.327-.49-.015-.071-.022-.138-.022-.207 0-1.161 1.393-3.36 3.748-4.97v42.997c-3.695 4.028-5.725 8.148-5.725 11.636 0 .873.127 1.699.378 2.455.78 2.371 2.732 3.944 5.494 4.43.599.104 1.22.156 1.848.156 2.994 0 6.091-1.162 8.497-3.188 2.831-2.381 4.388-5.606 4.388-9.081v-22.385c7.071-2.604 13.974-5.709 18.147-11.301v39.611c0 3.508 2.853 6.36 6.359 6.36 3.507 0 6.36-2.853 6.36-6.36v-19.816c.017-1.234 1.048-2.251 2.299-2.251 1.266 0 2.296 1.03 2.296 2.297l.002 13.385-.002.825c0 3.77 1.765 7.131 4.507 9.317-1.94 4.086-4.573 7.944-8.162 11.552-16.323 16.414-13.191 29.242-13.049 29.779l.482 1.836h1.898 60.794c-1.466 1.438-3.813 4.296-4.074 8.029-.029.276-.029.515-.029.695 0 3.458 1.813 6.969 5.389 10.434l.276.267v5.224 2.46h2.46 9.84 2.46v-2.46-5.224l.278-.269c3.574-3.464 5.387-6.975 5.387-10.433 0-.18 0-.419-.029-.695-.261-3.732-2.608-6.59-4.074-8.029h60.794 1.898l.482-1.836c.142-.538 3.273-13.365-13.049-29.779-4.227-4.25-7.135-8.844-9.137-13.754 3.362 3.056 7.657 4.794 12.122 4.804.092.006.293.017.586.017 1.127 0 4.138-.166 7.731-1.706 2.857-1.188 5.415-2.913 7.654-5.148.265.305.997 1.148 1.971 2.291 2.704 3.172 5.856 4.76 10.902 4.665 8.03-.152 14.666-6.563 14.7-14.201-.009-1.865-.088-3.573-1.518-6.869zm-59.913 6.796c-.279 1.17-1.312 1.996-2.535 1.996-1.441 0-2.614-1.172-2.614-2.613v-14.808c0-3.335-2.715-6.05-6.051-6.05s-6.05 2.715-6.05 6.05v10.618c0 3.576-2.909 6.485-6.485 6.485-3.561 0-6.458-2.909-6.458-6.485v-1.823c3.243-3.534 9.196-11.587 10.392-23.982l3.351 2.435-3.242 9.976 8.488-6.166 8.486 6.167-3.241-9.977 4.925-3.57c-.015 8.174-.161 15.96.434 23.304-.114.885-.193 1.781-.193 2.698 0 1.955.266 3.885.793 5.745zm-20.172-32.794h6.851l2.117-6.516 2.116 6.516h.001 6.851l-5.542 4.027 2.116 6.516-5.542-4.027-5.543 4.027 2.117-6.516zm-101.031-49.162h3.874v-29.812l7.348-6.966h43.979l8.576-5.003h26.519l8.576 5.003h43.979l7.348 6.966v29.812h3.874v22h-26.296l-5.764-17.608-23.379-.235s-.286 4.746-6.192 4.746v8.197h5.56c5.206 0 21.439 9.051 22.136 30.535l-6.896-.02-3.241-9.977-3.242 9.977h-5.151c.035-2.32-.091-4.769-.433-7.355-.855-6.471-5.431-10.992-11.127-10.992-6.14 0-11.136 4.996-11.136 11.137v3.721c-.071-1.254-.192-2.543-.366-3.867-.855-6.471-5.431-10.992-11.127-10.992-6.14 0-11.136 4.996-11.136 11.137v7.21h-8.029l-3.242-9.977-3.241 9.977-7.835.021c.696-21.484 16.929-30.535 22.135-30.535h5.56v-8.197c-5.905 0-6.192-4.746-6.192-4.746l-23.38.235-5.763 17.608h-26.296zm78.911 49.613v2.682l-.027 25.957c0 3.072-2.198 5.388-5.112 5.388-2.972 0-5.389-2.417-5.389-5.388v-2.924c3.391-3.696 9.751-12.331 10.528-25.715zm-33.906 10.87c-3.336 0-6.051 2.715-6.051 6.05v14.808c0 1.44-1.172 2.613-2.614 2.613-1.44 0-2.613-1.171-2.614-2.612v-9.874-1.979c.3-6.351.182-13.011.177-19.949l5.864 4.241-3.241 9.976 8.486-6.166 8.487 6.166-3.241-9.976 6.025-4.378v21.512 10.427c-.001 1.439-1.173 2.612-2.615 2.612-1.441 0-2.613-1.172-2.614-2.613v-14.808c0-3.336-2.713-6.05-6.049-6.05zm-8.961-11.321h6.851l2.117-6.516 2.117 6.516h6.851l-5.542 4.027 2.117 6.516-5.543-4.027-5.542 4.027 2.116-6.516zm-9.748-24.701h1.782l.555-1.695 5.215-15.931 19.717-.198c.793 1.84 2.481 3.797 5.606 4.476v3.527h-3.101c-6.782 0-24.628 10.584-24.628 34.421 0 1.668.007 3.32.014 4.955.009 2.083.017 4.134.011 6.157-2.167-3-5.684-4.964-9.66-4.964-1.654 0-3.276.343-4.778 1.003v-20.584c0-3.506-2.853-6.36-6.36-6.36-1.408 0-2.708.466-3.763 1.245-.971-2.275-2.456-4.303-4.39-6.052zm-41.379 35.822-.273.1v23.448c0 3.019-1.366 5.831-3.847 7.918-2.136 1.799-4.876 2.83-7.517 2.83-.542 0-1.075-.044-1.585-.132-2.185-.384-3.717-1.596-4.316-3.412-.199-.602-.3-1.268-.3-1.977 0-3.147 2.045-7.127 5.613-10.917l.112-.121v-45.5-.655l-.592.279c-3.358 1.591-6.196 4.912-6.196 7.25 0 .174.018.349.054.52.129.62.667 1.662 2.804 1.662h.083c-.118.666-1.226 6.309-5.062 8.377-.91.491-1.916.739-2.988.739-1.588-.075-2.504-.339-3.947-.945-2.23-1.001-3.73-3.074-4.226-5.838-.917-5.125 1.696-11.285 6.987-16.477 5.116-4.985 13.848-8.082 22.789-8.082 4.993 0 9.713.956 13.652 2.766 6.848 3.147 10.619 8.613 10.619 15.388 0 .445-.012.843-.036 1.22-.79 12.875-10.776 17.544-21.828 21.559zm149.441 46.517c15.518 15.606 12.414 27.422 12.414 27.422h-64.838l.022 2.366 1.379 1.034c.04.03 3.997 3.027 4.267 7.308.02.16.02.316.02.475 0 2.768-1.559 5.681-4.641 8.667l-1.024.995v6.264h-9.84v-6.264l-1.024-.995c-3.082-2.987-4.641-5.899-4.641-8.667 0-.159 0-.315.02-.475.27-4.281 4.226-7.278 4.267-7.308l1.359-1.019v-2.381l.001-.008-1.296-5.418s-2.15-3.178-2.994-4.421l-3.055-12.765s-2.803-4.145-3.763-5.564l.063-9.433h-2.787l.288 12.631s2.801 4.141 3.764 5.565l3.053 12.759s2.147 3.167 2.994 4.404l.538 2.248h-61.604s-3.104-11.816 12.414-27.422c3.734-3.755 6.484-7.744 8.52-11.947 1.602.801 3.401 1.264 5.31 1.264 3.329 0 6.418-1.351 8.665-3.748 2.247 2.397 5.335 3.748 8.664 3.748 3.917 0 7.514-1.898 9.731-5.045 2.857 3.266 6.861 5.045 11.436 5.045 4.79 0 8.775-1.815 11.617-5.269 2.868 3.41 6.943 5.269 11.63 5.269 4.482 0 8.416-1.602 11.234-4.543 2.25 2.869 5.649 4.543 9.351 4.543 3.402 0 6.597-1.368 8.895-3.635 2.109 5.084 5.161 9.866 9.591 14.32zm46.753-24.846v.025c0 3.324-1.435 6.488-4.041 8.911-2.534 2.355-5.772 3.647-9.137 3.825-3.601.19-6.772-.946-9.638-4.109-1.545-1.706-2.194-2.446-2.194-2.446 2.816-3.216 4.6-6.666 4.6-6.666 1.614 1.804 2.764 3.603 5.565 4.409 2.545.732 6.171-.588 6.171-4.746.002-.076.042-1.889-.977-4.225-.935-2.142-2.983-5.144-7.421-7.29l-.448-.195-.038-.013-.118.492c-1.305 5.039-3.112 9.412-5.373 13.005-2.863 4.786-6.649 8.181-11.255 10.098-3.335 1.428-6.099 1.583-7.133 1.583-.327 0-.508-.015-.508-.015l-.019-.002h-.017c-4.834 0-9.472-2.193-12.728-6.019l-.408-.48-.279.566c-1.775 3.604-5.638 5.934-9.839 5.934-3.666 0-6.993-1.882-8.898-5.038l-.311-.515-.371.475c-2.59 3.323-6.395 5.078-11.004 5.078-4.699 0-8.712-2.066-11.299-5.818l-.344-.499-.34.502c-2.612 3.858-6.401 5.815-11.264 5.815-4.642 0-8.626-2.024-11.214-5.7l-.395-.561-.313.609c-1.795 3.486-5.337 5.651-9.245 5.651-3.306 0-6.343-1.529-8.332-4.195l-.332-.446-.333.446c-1.988 2.666-5.026 4.195-8.332 4.195-5.672 0-10.298-4.565-10.397-10.214v-.187l-.002-14.364-.003-.004c-.084-2.032-1.762-3.659-3.814-3.659-2.077 0-3.79 1.69-3.818 3.771v19.817c0 2.668-2.172 4.839-4.84 4.839-2.669 0-4.84-2.171-4.84-4.839v-39.437-2.561c1.35-2.505 2.217-5.44 2.432-8.941.026-.405.038-.835.038-1.312 0-1.933-.284-3.765-.828-5.481.854-.759 1.967-1.236 3.198-1.236 2.668 0 4.84 2.172 4.84 4.84v22.434.764l.641-.416c1.691-1.1 3.647-1.681 5.656-1.681 5.735 0 10.4 4.665 10.4 10.399v4.339 9.876c.001 2.278 1.855 4.13 4.134 4.13s4.134-1.854 4.134-4.133v-14.807c0-2.498 2.032-4.53 4.53-4.53s4.529 2.033 4.529 4.53v14.807c0 2.28 1.855 4.133 4.134 4.133s4.133-1.853 4.134-4.132v-40.936c0-5.302 4.313-9.617 9.616-9.617 4.912 0 8.867 3.977 9.62 9.67 2.457 18.591-6.218 30.075-10.062 34.151l-.113.12v3.524c0 3.809 3.1 6.908 6.909 6.908 3.648 0 6.521-2.92 6.63-6.687l.03-.021v-38.048c0-5.302 4.314-9.617 9.616-9.617 4.912 0 8.867 3.977 9.62 9.67 2.457 18.591-6.219 30.075-10.062 34.151l-.113.12v2.422c0 4.414 3.579 8.006 7.977 8.006 4.414 0 8.006-3.591 8.006-8.006v-10.617c0-2.498 2.032-4.53 4.529-4.53 2.499 0 4.53 2.033 4.53 4.53v14.807c.001 2.28 1.855 4.133 4.134 4.133 2.055 0 3.771-1.474 4.081-3.506l.014-.091-.026-.09c-.536-1.8-.807-3.675-.807-5.573 0-10.137 7.715-18.384 17.206-18.385h.033c.994 0 9.709.278 9.71 9.903 0 .027.073 2.788-1.55 6.145-2.712 5.61-8.005 8.565-11.968 10.057l-.843.318.79.433c1.271.699 2.616 1.053 3.996 1.053 3.126 0 10.913-1.166 15.682-11.985 1.482-3.772 1.907-7.536 1.263-11.19-.089-.502.128-1.021.552-1.321l5.049-3.594c.108-.077.234-.117.365-.117.208 0 .399.1.509.266l.093.14c.119.223 1.061 1.897 3.357 3.519l.066.047c15.848 10.49 14.886 20.331 14.874 20.427zm-19.677-2.004c1.212-2.509 2.256-5.289 3.112-8.318 6.458 3.741 6.372 9.422 6.37 9.482v.031c-.146 3.408-3.149 3.897-5.28 2.903-.618-.287-1.826-1.224-2.786-2.358-.66-.779-1.198-1.461-1.416-1.74z" fill="#fff"/><path d="m142.53 85.341c-.303-1.951-1.459-2.243-2.12-2.243-1.077 0-1.954 1.034-1.954 2.306v7.406 3.788 9.722 1.572l.776-1.367c4.434-7.822 3.35-20.616 3.298-21.184zm-2.543.206c0-.48.188-.786.434-.786.335 0 .547.298.612.919.047.582.606 8.083-1.046 14.786z" fill="#fff"/><path d="m215.205 105.743-.066-.047c-2.296-1.621-3.238-3.296-3.357-3.519l-.093-.14c-.111-.166-.302-.266-.509-.266-.131 0-.257.04-.365.117l-5.049 3.594c-.424.301-.64.819-.552 1.321.644 3.654.219 7.418-1.263 11.19-4.769 10.819-12.556 11.985-15.682 11.985-1.38 0-2.725-.354-3.996-1.053l-.79-.433.843-.318c3.963-1.492 9.256-4.448 11.968-10.057 1.622-3.357 1.55-6.118 1.55-6.145-.001-9.625-8.717-9.903-9.71-9.903h-.034c-9.491.001-17.206 8.248-17.206 18.385 0 1.899.271 3.774.807 5.573l.026.09-.014.091c-.311 2.033-2.027 3.506-4.081 3.506-2.279 0-4.133-1.853-4.134-4.133v-14.807c0-2.498-2.032-4.53-4.53-4.53s-4.529 2.033-4.529 4.53v10.617c0 4.414-3.591 8.006-8.006 8.006-4.398 0-7.977-3.591-7.977-8.006v-2.422l.113-.12c3.843-4.075 12.52-15.56 10.062-34.151-.753-5.694-4.708-9.67-9.62-9.67-5.302 0-9.616 4.315-9.616 9.617v38.048l-.03.021c-.109 3.767-2.982 6.687-6.63 6.687-3.809 0-6.909-3.099-6.909-6.908v-3.524l.113-.12c3.844-4.075 12.52-15.56 10.062-34.151-.753-5.694-4.708-9.67-9.62-9.67-5.302 0-9.616 4.315-9.616 9.617v40.937c-.001 2.279-1.855 4.132-4.134 4.132s-4.134-1.853-4.134-4.133v-14.807c0-2.498-2.032-4.53-4.529-4.53-2.499 0-4.53 2.033-4.53 4.53v14.807c0 2.279-1.855 4.133-4.134 4.133s-4.133-1.852-4.134-4.13v-9.876-4.339c0-5.735-4.666-10.399-10.4-10.399-2.009 0-3.965.581-5.656 1.681l-.641.416v-.764-22.434c0-2.668-2.172-4.84-4.84-4.84-1.231 0-2.343.477-3.198 1.236.544 1.716.828 3.548.828 5.481 0 .477-.012.908-.038 1.312-.215 3.5-1.082 6.436-2.432 8.941v2.561 39.439c0 2.668 2.171 4.839 4.84 4.839 2.668 0 4.84-2.171 4.84-4.839v-19.817c.028-2.081 1.741-3.771 3.818-3.771 2.052 0 3.73 1.627 3.814 3.659l.003.004.002 14.364v.187c.099 5.649 4.725 10.214 10.397 10.214 3.307 0 6.344-1.529 8.332-4.195l.333-.446.332.446c1.989 2.666 5.027 4.195 8.332 4.195 3.908 0 7.451-2.165 9.245-5.651l.313-.609.395.561c2.588 3.676 6.572 5.7 11.214 5.7 4.863 0 8.652-1.956 11.264-5.815l.34-.502.344.499c2.587 3.752 6.6 5.818 11.299 5.818 4.609 0 8.414-1.755 11.004-5.078l.371-.475.311.515c1.906 3.155 5.233 5.038 8.898 5.038 4.201 0 8.064-2.329 9.839-5.934l.279-.566.408.48c3.255 3.826 7.894 6.019 12.728 6.019h.017l.019.002s.182.015.508.015c1.034 0 3.798-.154 7.133-1.583 4.606-1.917 8.392-5.312 11.255-10.098 2.261-3.593 4.067-7.966 5.373-13.005l.118-.492.038.013.448.195c4.439 2.147 6.486 5.149 7.421 7.29 1.02 2.335.979 4.149.977 4.225 0 4.158-3.625 5.479-6.171 4.746-2.801-.806-3.951-2.606-5.565-4.409 0 0-1.783 3.45-4.6 6.666 0 0 .649.74 2.194 2.446 2.866 3.162 6.037 4.298 9.638 4.109 3.365-.179 6.603-1.47 9.137-3.825 2.606-2.423 4.041-5.588 4.041-8.911v-.025l.003-.025c.019-.1.981-9.94-14.867-20.43zm-76.749.579v-9.722-3.788-7.406c0-1.272.877-2.306 1.954-2.306.662 0 1.818.292 2.12 2.243.051.568 1.136 13.362-3.299 21.185l-.776 1.367v-1.573zm-22.629 0v-9.722-3.788-7.406c0-1.272.877-2.306 1.954-2.306.662 0 1.819.292 2.12 2.243.051.568 1.136 13.362-3.299 21.185l-.776 1.367v-1.573zm63.97 15.599-.069-.441c-.036-.233-.077-.51-.097-.802-.372-5.273 3.134-9.805 7.812-10.161 1.067-.081 1.861.294 2.359 1.132.599 1.006.372 2.494-.674 4.423-2.121 3.91-7.347 5.389-8.897 5.749z" fill="#e81828"/><path d="m153.421 103.946 5.543-4.027 5.542 4.027-2.116-6.516 5.542-4.027h-6.85-.001l-2.117-6.516-2.117 6.516h-6.851l5.542 4.027z" fill="#003278"/><path d="m88.435 103.946 5.542-4.027 5.543 4.027-2.117-6.516 5.542-4.027h-6.85l-2.118-6.515-2.117 6.515h-6.851l5.542 4.027z" fill="#003278"/><path d="m55.746 81.744c0-6.775-3.772-12.24-10.619-15.388-3.938-1.81-8.658-2.766-13.652-2.766-8.941 0-17.674 3.097-22.789 8.082-5.291 5.193-7.904 11.354-6.987 16.478.495 2.764 1.995 4.837 4.226 5.838 1.444.606 2.36.871 3.947.945 1.072 0 2.078-.248 2.988-.739 3.836-2.068 4.944-7.711 5.062-8.377-.027 0-.054 0-.083 0-2.138 0-2.675-1.042-2.804-1.662-.036-.171-.054-.346-.054-.52 0-2.338 2.838-5.659 6.196-7.25l.592-.279v.655 45.5l-.112.121c-3.568 3.79-5.613 7.77-5.613 10.917 0 .709.101 1.375.3 1.977.598 1.816 2.131 3.027 4.316 3.412.509.088 1.043.132 1.585.132 2.641 0 5.381-1.031 7.517-2.83 2.482-2.087 3.847-4.899 3.847-7.918v-23.448l.273-.1c11.052-4.015 21.038-8.684 21.828-21.56.024-.376.036-.775.036-1.22zm-19.711 12.101c-.482.1-1.389.245-2.113.332l-.004-20.05s2.471-.153 2.852-.153c5.53-.001 8.66 2.798 9.303 8.317.04.379.061.767.061 1.156-.001 5.248-3.87 9.232-10.099 10.398z" fill="#e81828"/></svg>