<?xml version="1.0" encoding="UTF-8" standalone="no"?>
<svg
   id="Layer_1"
   data-name="Layer 1"
   viewBox="0 0 176.8178 239.22593"
   version="1.1"
   sodipodi:docname="PIT.svg"
   width="176.81779"
   height="239.22594"
   inkscape:version="1.4 (86a8ad7, 2024-10-11)"
   xmlns:inkscape="http://www.inkscape.org/namespaces/inkscape"
   xmlns:sodipodi="http://sodipodi.sourceforge.net/DTD/sodipodi-0.dtd"
   xmlns="http://www.w3.org/2000/svg"
   xmlns:svg="http://www.w3.org/2000/svg">
  <sodipodi:namedview
     id="namedview2"
     pagecolor="#ffffff"
     bordercolor="#000000"
     borderopacity="0.25"
     inkscape:showpageshadow="2"
     inkscape:pageopacity="0.0"
     inkscape:pagecheckerboard="0"
     inkscape:deskcolor="#d1d1d1"
     inkscape:zoom="3.8461737"
     inkscape:cx="44.979767"
     inkscape:cy="120.24938"
     inkscape:window-width="3440"
     inkscape:window-height="1377"
     inkscape:window-x="-8"
     inkscape:window-y="-8"
     inkscape:window-maximized="1"
     inkscape:current-layer="Layer_1" />
  <defs
     id="defs1">
    <style
       id="style1">.cls-1{fill:#ffce34}</style>
  </defs>
  <path
     id="path2"
     style="fill:#000000"
     class="cls-1"
     sodipodi:type="inkscape:offset"
     inkscape:radius="11.583809"
     inkscape:original="M 218.84961 72.310547 C 211.29961 79.690547 203.84992 81.410156 192.16992 81.410156 L 113.84961 81.300781 L 103.19922 108 A 17.4 17.4 0 0 1 113.84961 124.2207 L 113.84961 246.32031 A 17.38 17.38 0 0 1 103.19922 262.5293 L 113.84961 288.36914 L 143.75977 288.36914 L 154.42969 262.5293 A 17.38 17.38 0 0 1 143.75977 246.32031 L 143.75977 198.17969 L 192.16992 198.17969 C 203.88992 198.17969 211.29961 201.06922 218.84961 208.44922 C 223.77961 193.26922 238.61961 181.94922 256.84961 177.44922 C 249.93961 165.57922 247.23047 155.03906 247.23047 144.03906 L 247.2207 144 C 247.2207 133 248.75992 121.04969 255.66992 109.17969 C 237.44992 104.65969 223.39961 87.490547 218.84961 72.310547 z M 143.90039 107.08008 L 205.90039 107.08008 C 215.71039 107.08008 221.90039 113.26094 221.90039 121.46094 L 221.90039 158.36914 C 221.90039 166.97914 217.04039 171.67969 205.90039 171.67969 L 143.90039 171.67969 L 143.90039 107.08008 z "
     d="m 217.81445,60.773437 a 11.584967,11.584967 0 0 0 -7.0625,3.253907 c -5.46613,5.343058 -8.03907,5.798289 -18.5664,5.798828 l -78.32032,-0.109375 a 11.584967,11.584967 0 0 0 -10.77539,7.292969 L 92.439453,103.70898 a 11.584967,11.584967 0 0 0 6.267578,14.96875 c 2.278469,0.95877 -0.435264,-0.69254 1.464849,0.88868 1.9001,1.58121 -0.216138,-0.78707 1.14062,1.27929 1.35676,2.06637 0.0232,-0.81739 0.71875,1.55469 0.6956,2.37209 0.26034,-0.77262 0.23438,1.69922 a 11.584967,11.584967 0 0 0 0,0.12109 v 122.09961 a 11.584967,11.584967 0 0 0 0,0.12305 c 0.0261,2.46291 0.46093,-0.67009 -0.23243,1.69336 -0.69335,2.36345 0.6338,-0.50768 -0.71875,1.55078 -1.352542,2.05846 0.75545,-0.29908 -1.13867,1.27539 -1.894115,1.57447 0.81004,-0.0668 -1.460936,0.88672 a 11.584967,11.584967 0 0 0 -6.22461,15.09375 l 10.650396,25.83984 a 11.584967,11.584967 0 0 0 10.70898,7.16992 h 29.91016 a 11.584967,11.584967 0 0 0 10.70703,-7.1621 l 10.66992,-25.83985 a 11.584967,11.584967 0 0 0 -6.23438,-15.10742 c -2.2718,-0.95067 0.43062,0.68557 -1.46484,-0.88672 -1.89546,-1.57229 0.21345,0.78358 -1.14063,-1.27344 -1.35407,-2.05702 -0.0239,0.80992 -0.71875,-1.55273 -0.6948,-2.36265 -0.25933,0.76921 -0.23437,-1.69336 a 11.584967,11.584967 0 0 0 0,-0.11719 v -36.55664 h 36.82617 c 9.81603,0 12.66041,1.18047 18.58203,6.96875 a 11.584967,11.584967 0 0 0 19.11524,-4.70508 c 3.34312,-10.29382 14.49598,-19.56471 29.75781,-23.33203 a 11.584967,11.584967 0 0 0 7.23633,-17.07422 c -6.07228,-10.43096 -8.04688,-18.48398 -8.04688,-27.58203 a 11.584967,11.584967 0 0 0 -0.008,-0.0703 c 0.003,-9.90793 1.29534,-19.3762 6.875,-28.96094 A 11.584967,11.584967 0 0 0 258.45898,97.9375 C 245.54177,94.73301 233.30195,80.183004 229.94531,68.984375 a 11.584967,11.584967 0 0 0 -12.13086,-8.210938 z m -62.33008,57.890623 h 50.41602 c 4.94436,0 4.41602,0.42645 4.41602,2.79688 v 36.9082 c 0,0.85788 -0.0157,1.03333 -0.0195,1.17773 -0.0913,0.0219 -1.04398,0.54883 -4.39648,0.54883 h -50.41602 z"
     transform="translate(-91.615573,-60.727189)" />
  <path
     class="cls-1"
     d="m 155.60443,83.272811 c 0,-11 1.54,-22.95 8.45,-34.82 -18.22,-4.52 -32.27,-21.69 -36.82,-36.87 -7.55,7.38 -15,9.1 -26.68,9.1 l -78.320003,-0.11 -10.65,26.7 a 17.4,17.4 0 0 1 10.65,16.22 V 185.59281 a 17.38,17.38 0 0 1 -10.65,16.21 l 10.65,25.84 h 29.91 l 10.67,-25.84 a 17.38,17.38 0 0 1 -10.67,-16.21 v -48.14 h 48.410003 c 11.72,0 19.13,2.89 26.68,10.27 4.93,-15.18 19.77,-26.5 38,-31 -6.91,-11.87 -9.62,-22.409999 -9.62,-33.409999 m -41.33,27.639999 H 52.284427 V 46.352811 h 62.000003 c 9.81,0 16,6.18 16,14.38 v 36.91 c 0,8.609999 -4.86,13.309999 -16,13.309999"
     id="path1" />
</svg>
