<?xml version="1.0" encoding="UTF-8" standalone="no"?>
<svg
   viewBox="0 0 409.79309 528.87701"
   version="1.1"
   id="svg1"
   sodipodi:docname="SD.svg"
   xml:space="preserve"
   width="409.79309"
   height="528.87701"
   inkscape:version="1.4 (86a8ad7, 2024-10-11)"
   xmlns:inkscape="http://www.inkscape.org/namespaces/inkscape"
   xmlns:sodipodi="http://sodipodi.sourceforge.net/DTD/sodipodi-0.dtd"
   xmlns="http://www.w3.org/2000/svg"
   xmlns:svg="http://www.w3.org/2000/svg"><defs
     id="defs1" /><sodipodi:namedview
     id="namedview1"
     pagecolor="#ffffff"
     bordercolor="#000000"
     borderopacity="0.25"
     inkscape:showpageshadow="2"
     inkscape:pageopacity="0.0"
     inkscape:pagecheckerboard="0"
     inkscape:deskcolor="#d1d1d1"
     inkscape:zoom="1.2239583"
     inkscape:cx="262.26383"
     inkscape:cy="291.26808"
     inkscape:window-width="1484"
     inkscape:window-height="1211"
     inkscape:window-x="1852"
     inkscape:window-y="99"
     inkscape:window-maximized="0"
     inkscape:current-layer="svg1" /><g
     id="g2"
     transform="matrix(5.8139565,0,0,5.8139565,24.516274,24.516274)">
	<path
   id="path1-0"
   style="fill:#2f241d"
   sodipodi:type="inkscape:offset"
   inkscape:radius="4.2158275"
   inkscape:original="M 9.09375 0 C 4.07175 0 0 4.07075 0 9.09375 L 0 27.992188 C 0 33.014187 4.07175 37.085938 9.09375 37.085938 L 34.109375 37.085938 C 35.805375 37.085938 37.181641 38.46025 37.181641 40.15625 L 37.181641 56.529297 C 37.181641 58.217297 35.799328 59.599609 34.111328 59.599609 L 27.455078 59.599609 L 27.455078 40.357422 L 18.796875 40.357422 L 18.796875 59.599609 L 11.238281 59.599609 C 9.5432812 59.599609 8.171875 58.224297 8.171875 56.529297 L 8.171875 54.894531 C 8.171875 49.455531 9.6328125 48.199219 9.6328125 48.199219 L 0.54101562 48.199219 L 0.54101562 57.478516 C 0.54101562 62.499516 4.6118125 66.570312 9.6328125 66.570312 L 18.796875 66.570312 L 18.796875 74.208984 C 18.796875 79.662984 16.802734 82.533203 16.802734 82.533203 L 50.191406 82.533203 C 56.740406 82.533203 62.050781 77.223828 62.050781 70.673828 L 62.050781 29.427734 C 62.049781 22.875734 56.7395 17.564453 50.1875 17.564453 L 16.800781 17.568359 C 16.800781 17.568359 18.796875 20.438578 18.796875 25.892578 L 18.796875 30.113281 L 11.730469 30.113281 C 10.034469 30.113281 8.6582031 28.738969 8.6582031 27.042969 L 8.6582031 9.8769531 C 8.6582031 8.1879531 10.041469 6.8066406 11.730469 6.8066406 L 34.642578 6.8066406 C 36.405578 6.8306406 37.565219 8.5801719 37.324219 10.326172 C 37.091219 12.017172 36.207031 13.029297 36.207031 13.029297 L 45.300781 13.029297 L 45.300781 9.09375 C 45.300781 4.07075 41.228078 -1.1842379e-15 36.205078 0 L 9.09375 0 z M 27.453125 24.574219 L 48.710938 24.574219 C 51.296937 24.574219 53.392578 26.671813 53.392578 29.257812 L 53.392578 70.841797 C 53.392578 73.427797 51.294984 75.523438 48.708984 75.523438 L 27.455078 75.523438 L 27.455078 66.570312 L 36.748047 66.570312 C 41.769047 66.570312 45.839844 62.499516 45.839844 57.478516 L 45.839844 39.207031 C 45.839844 34.185031 41.769094 30.113281 36.746094 30.113281 L 27.453125 30.113281 L 27.453125 24.574219 z "
   d="m 9.09375,-4.2167969 c -7.3001866,0 -13.3105469,6.0092543 -13.3105469,13.3105469 v 18.898437 c 0,7.300746 6.0098001,13.310547 13.3105469,13.310547 h 5.486328 v 14.080078 h -2.191406 v -0.488281 c 0,-2.342037 0.320132,-3.523829 0.470703,-3.933594 0.07528,-0.204882 0.105996,-0.220184 0.03906,-0.121093 -0.06693,0.09909 -0.517579,0.55664 -0.517579,0.55664 A 4.216249,4.216249 0 0 0 9.6328125,43.982422 H 0.54101562 a 4.216249,4.216249 0 0 0 -4.21679692,4.216797 v 9.279297 c 1e-7,7.299666 6.0089277,13.308593 13.3085938,13.308593 h 4.9472655 v 3.421875 c 0,2.213191 -0.398704,3.80146 -0.751953,4.792969 -0.353249,0.99151 -0.488281,1.125 -0.488281,1.125 A 4.216249,4.216249 0 0 0 16.802734,86.75 h 33.388672 c 8.827558,0 16.076172,-7.247533 16.076172,-16.076172 V 29.427734 C 66.266231,20.598179 59.017832,13.347656 50.1875,13.347656 h -0.802734 a 4.216249,4.216249 0 0 0 0.132812,-0.318359 V 9.09375 c 0,-7.3018258 -6.011767,-13.3105469 -13.3125,-13.3105469 z M 12.875,11.023438 h 20.042969 a 4.216249,4.216249 0 0 0 -0.339844,2.326171 l -15.777344,0.002 a 4.216249,4.216249 0 0 0 -3.460937,6.623046 c 0,0 0.134781,0.135708 0.488281,1.126953 0.3535,0.991246 0.751953,2.578329 0.751953,4.791016 v 0.0039 H 12.875 Z m 31.75,17.767578 h 4.085937 c 0.306263,0 0.464844,0.158411 0.464844,0.466796 v 5.34375 C 48.280855,32.216991 46.624287,30.311078 44.625,28.791016 Z M 31.671875,41.302734 h 1.292969 v 14.080078 h -1.292969 z m 17.503906,20.779297 v 8.759766 c 0,0.306264 -0.15841,0.464844 -0.466797,0.464844 H 31.671875 v -0.519532 h 5.076172 c 5.677975,0 10.532385,-3.654587 12.427734,-8.705078 z" />
	
</g><g
     fill="#ffc427"
     id="g1"
     transform="translate(23.837863,24.098165)"><path
       d="M 291.879,102.155 97.712,102.17 c 0,0 11.606,16.691 11.606,48.41 v 24.553 H 68.22 c -9.864,0 -17.859,-7.996 -17.859,-17.859 V 57.44 c 0,-9.822 8.037,-17.859 17.859,-17.859 l 133.257,0.002 c 10.251,0.137 16.992,10.317 15.592,20.473 -1.356,9.834 -6.491,15.723 -6.491,15.723 l 52.876,0.001 V 52.886 C 263.453,23.678 239.776,0 210.567,0 H 52.885 C 23.677,0 0,23.678 0,52.886 v 109.912 c 0,29.208 23.677,52.885 52.885,52.885 h 145.491 c 9.862,0 17.859,7.996 17.859,17.859 v 95.228 c 0,9.815 -8.031,17.846 -17.846,17.846 H 159.672 V 234.71 H 109.318 V 346.615 H 65.36 c -9.857,0 -17.846,-7.99 -17.846,-17.846 v -9.507 c 0,-31.632 8.502,-38.942 8.502,-38.942 L 3.141,280.319 v 53.963 c 0,29.203 23.675,52.878 52.878,52.878 h 53.298 v 44.429 c 0,31.718 -11.606,48.41 -11.606,48.41 L 291.903,480 c 38.09,0 68.968,-30.878 68.968,-68.968 v -239.89 c 0,-38.103 -30.889,-68.99 -68.992,-68.987 z m 18.638,309.838 c 0,15.042 -12.194,27.236 -27.235,27.236 h -123.61 v -52.07 h 54.047 c 29.203,0 52.877,-23.674 52.877,-52.878 V 228.019 c 0,-29.208 -23.678,-52.886 -52.886,-52.886 h -54.038 v -32.208 h 123.615 c 15.039,0 27.231,12.192 27.231,27.232 z"
       id="path1"
       sodipodi:nodetypes="ccscsssccccccsssssssssccccsssccsscsccssccsccssssccscc" /></g></svg>
