<?xml version="1.0" encoding="utf-8"?>
<!-- Generator: Adobe Illustrator 24.1.2, SVG Export Plug-In . SVG Version: 6.00 Build 0)  -->
<svg version="1.1" id="Layer_1" xmlns="http://www.w3.org/2000/svg" xmlns:xlink="http://www.w3.org/1999/xlink" x="0px" y="0px"
	 viewBox="0 0 205.1 210" style="enable-background:new 0 0 205.1 210;" xml:space="preserve">
<style type="text/css">
	.st0{fill:#FFFFFF;}
	.st1{fill:#001541;}
	.st2{fill:#FEDB00;}
	.st3{fill:#BE0A14;}
</style>
<path class="st0" d="M103,147.4c0.1,0,0.1,0,0.2,0c6.4-2.5,13.1-5.2,17.8-7.1c-5.4-2-9.5-3.7-9.5-3.7l-10.7,9.8
	C100.2,147.2,100.3,147.3,103,147.4 M111.8,138.4c1,0.4,2.7,1.1,4.9,1.9c-3.7,1.5-8,3.2-12.3,4.9L111.8,138.4z"/>
<path class="st0" d="M77.3,156c0.7,0,1.4,0.1,2.1,0.1c3-1.1,5.4-1.9,7.4-2.6c0.9-0.3,2.3-0.8,3.9-1.4c0.2-0.7,0.7-1.7,1.5-2.4
	c1-0.9,1.7-1.2,3.2-1.4c0.3-0.1,0.4-0.3,0.6-0.5l11.6-12.7l-3.3-1.3c0,0-10.3,6.7-13.7,6.9c0,0-13.9,14.3-14,14.8
	C76.5,155.9,76.7,156,77.3,156 M91.3,142.1c3.6-0.7,10.6-4.9,13.1-6.6l0.5,0.2l-10.1,11l0.1,0.1c-1.5,0.3-2.6,0.6-3.9,1.8
	c-0.8,0.8-1.3,1.7-1.6,2.3c-1.3,0.5-2.4,0.9-3.2,1.1c-1.9,0.6-4,1.4-6.7,2.3C82.2,151.6,87.6,146,91.3,142.1"/>
<path class="st0" d="M200.3,170c-2.6-3-22.4-20.1-39.4-34.6c16.1-7.6,30.3-14.1,31.9-14.8c0.7-0.3,1.4-0.5,2-0.5
	c0.1,0,0.4,0.2,0.6,0.4c0.5,0.4,1,0.8,1.7,1c0.4,0.2,0.9,0.3,1.4,0.3c1.6,0,3-0.9,3.6-1.3c1-0.7,1.7-2.2,1.8-3.1
	c0.2-2.1-0.3-4.1-1.5-7c-1.4-3.2-3.4-5.3-4.7-6.2c-0.8-0.5-1.6-0.8-2.5-0.8c-0.3,0-0.6,0-0.9,0.1c-1.5,0.2-2.9,1.3-3.7,2.8
	c-0.7,1.3-0.5,2.7-0.4,3.1l0,0c-0.2,0.2-0.9,0.6-1.4,0.9l-0.3,0.2l-0.4,0.2c-2.8,1.2-18.3,7.7-37,15.5c-0.8-1.2-1.9-2.6-3.1-3.5
	c-0.2-4.9-4.2-10.8-7.1-12.9c0-3.2-2.8-8.3-5.6-9.9c-12.9-22.8-24.4-37.4-35.2-44.7l-0.3-0.2c-1.9-1.3-2.3-1.6-2.4-2.9
	c-0.7-9.1-3.1-17.8-6.2-22.3c1.2-1.8,3.1-5.3,4.4-10.3l1-4l-1.7,1.1c0.5-1.5,1.1-3.5,1.6-6.2c0,0,0.1-1,0-1.9
	c-0.1-0.6-0.5-1.6-0.5-1.6s-1.1,1.6-1.1,1.6c0.2-1.7,0.1-3.9-0.9-6.3L92.9,0l-1.7,1.9C86.6,7,79.7,9.6,73.5,12
	c-1.4,0.5-2.7,1-3.9,1.5c-9.8,4.1-15.9,8.4-21.6,20.7c-0.2,0.1-0.3,0.3-0.5,0.4c-2.6,2.2-8,6.7-11,15.7L36,51.5l1,0.7
	c3.2,2.1,6.7,3.5,11.2,5.1c0,0.1,0,0.3,0,0.4c-16.4,36.5,15,58,40.9,71.2c-1.6,3-3,5.7-3.3,8.9l-15.6,17.4c-0.8,0.2-2.3,0.8-3.5,1.9
	c-0.8,0.8-1.3,1.8-1.6,2.8c-14,5.5-33.8,13.7-60.4,25.1c-0.6,0.3-1.1,0.6-1.4,0.9c-1.7,1.4-5.4,5.6-2,15c2,5.5,6.1,9.1,10.5,9.1
	c0.9,0,1.8-0.2,2.5-0.5c0,0,0.9-0.3,1.2-0.5c39.1-18.8,65.7-32.2,78.9-40.1c4.7-2.8,28.2-14.8,36.9-19.2c1.8-0.9,3.7-1.9,5.6-2.8
	l0,0c3.1,4.7,26.8,40.3,36,52.4c3.7,4.9,8.1,7.6,12.4,7.6c4.1,0,7.4-2.5,8.7-6.2c4-0.3,7.3-5.2,7.6-11.2c1-0.6,1.8-1.8,2.3-2.9
	C204.9,184.6,207.2,177.9,200.3,170 M200.3,188.4c0,6.5-3.8,11.5-7.3,10.7c-1.4,7-10.6,10-18.7-0.6c-9.8-13-36.3-52.8-36.3-52.8
	c-0.4-0.1-0.8-0.2-1.2-0.3c-2.1,1-4.2,2.1-6.2,3.1c-8.1,4.1-32.2,16.4-37,19.2c-13.1,7.8-39.6,21.2-78.8,40c-0.3,0.1-1,0.4-1.1,0.4
	c-3.5,1.4-8.7-1.1-11-7.7c-2.5-6.9-1.1-11.3,1.5-13.3c0.3-0.3,0.6-0.5,1.1-0.7c30.1-12.8,48.8-20.5,61.1-25.3
	c0.2-0.8,0.6-2.1,1.4-2.8c1.3-1.2,3.3-1.7,3.3-1.7l16.3-18.2c0.2-3.6,1.9-6.5,3.9-10.2C59.8,112.4,34.5,91.5,49.8,58
	c0-0.2-0.1-1.8-0.1-1.8c-5.1-1.7-8.6-3.2-11.9-5.3c3.3-9.7,9.5-14,11.4-15.7c5.3-11.6,10.7-16,20.9-20.2c6.8-2.8,16.2-5.5,22.2-12
	c1.8,4.6,0.2,8.1-0.1,9.4c1.8-1.1,2.6-2.8,2.5-1.8c-1.5,7.5-3.2,9.5-3.9,10.3c1.3-0.4,3-1.5,3-1.5c-1.5,5.5-3.7,9.2-4.8,10.8
	c3,3.6,5.8,12.3,6.6,22.3c0.2,2.2,1.3,2.8,3.4,4.3c13.2,8.9,25.7,28.2,34.9,44.5c2.9,1.3,5.8,7.4,5.1,9.6c2.6,1.2,7.6,8,7.2,12.9
	c1.4,0.8,2.9,2.8,4.1,4.7c20.7-8.6,37.7-15.8,38.6-16.2c1.3-0.7,2.4-1.2,2.6-2c0-0.1,0.1-0.4,0.1-0.5c-0.1-0.6-0.3-1.5,0.2-2.4
	c0.7-1.3,1.7-1.9,2.6-2c0.7-0.1,1.5-0.1,2.3,0.4c1,0.7,2.9,2.5,4.2,5.5c1.1,2.6,1.5,4.4,1.4,6.2c0,0.5-0.5,1.5-1.1,2
	c-0.3,0.2-2.1,1.4-3.5,0.8c-0.5-0.2-0.9-0.5-1.3-0.8c-0.4-0.3-0.8-0.6-1.1-0.7c-0.7-0.1-1.9,0.1-3,0.5c-0.2,0.1-16.2,7.4-34.1,15.9
	c12.9,11,38.2,32.7,41,36C207.3,180.4,202.1,188.5,200.3,188.4"/>
<path class="st1" d="M158.1,135c17.9-8.5,33.9-15.8,34.1-15.9c1.1-0.5,2.3-0.7,3-0.5c0.3,0.1,0.7,0.4,1.1,0.7
	c0.4,0.3,0.8,0.6,1.3,0.8c1.4,0.6,3.2-0.6,3.5-0.8c0.6-0.4,1.1-1.5,1.1-2c0.1-1.8-0.3-3.6-1.4-6.2c-1.3-3-3.2-4.8-4.2-5.5
	c-0.9-0.6-1.6-0.6-2.3-0.5c-0.8,0.1-1.9,0.8-2.6,2c-0.5,0.8-0.3,1.8-0.2,2.4c0,0.1-0.1,0.4-0.1,0.5c-0.2,0.8-1.3,1.3-2.6,2
	c-0.9,0.4-17.9,7.6-38.6,16.2c-1.2-1.9-2.7-3.9-4.1-4.7c0.3-4.9-4.7-11.8-7.2-12.9c0.7-2.2-2.2-8.3-5.1-9.6
	c-9.2-16.3-21.7-35.6-34.9-44.5c-2.1-1.4-3.3-2.1-3.4-4.3C94.9,42.2,92,33.6,89.1,30c1.1-1.5,3.3-5.2,4.8-10.8c0,0-1.7,1.1-3,1.5
	c0.7-0.8,2.4-2.7,3.9-10.3c0.1-0.9-0.7,0.8-2.5,1.8c0.3-1.3,1.9-4.8,0.1-9.4c-5.9,6.6-15.4,9.3-22.2,12
	c-10.3,4.2-15.6,8.7-20.9,20.2c-1.9,1.7-8.1,6-11.4,15.7c3.3,2.1,6.8,3.5,11.9,5.3c0,0,0,1.6,0.1,1.8c-15.4,33.6,10,54.5,41.5,70.3
	c-2,3.7-3.7,6.6-3.9,10.2l-16.3,18.2c0,0-2,0.5-3.3,1.7c-0.8,0.7-1.2,2-1.4,2.8c-12.3,4.8-31,12.5-61.1,25.3
	c-0.5,0.2-0.8,0.4-1.1,0.7c-2.6,2-4,6.3-1.5,13.3c2.4,6.5,7.5,9.1,11,7.7c0,0,0.8-0.3,1.1-0.4c39.2-18.8,65.7-32.3,78.8-40
	c4.8-2.8,28.9-15.1,37-19.2c2-1,4.1-2,6.2-3.1c0.4,0.1,0.8,0.2,1.2,0.3c0,0,26.4,39.8,36.3,52.8c8.1,10.7,17.3,7.6,18.7,0.6
	c3.5,0.9,7.3-4.2,7.3-10.7c1.8,0.1,7-7.9-1.1-17.4C196.3,167.7,171,146,158.1,135 M189.9,114L189.9,114L189.9,114
	c1.2-0.7,3.8-1.9,3.9-3.9c0-0.3-0.4-1.5-0.1-2c0.6-1,1.7-1,2.1-0.6c0.4,0.2,2.1,1.7,3.2,4.4c1.2,2.8,1.3,4.2,1.2,5.2
	c0,0.1-0.6,1.1-1.8,1c-0.2,0-0.3-0.2-0.5-0.3c0.1-0.6-0.1-1.9-0.3-2.6c-0.7-2-1-2.8-1.6-3.6c-0.5-0.3-0.4,0.3-0.4,0.3s0.7,0.9,0,2.4
	c-0.5,1.1-1.8,1.9-3.2,2.6c-0.3,0.1-0.6,0.2-1,0.3c-0.3,0.1-16.7,7.6-35,16.3c-1.8-1.6-3.3-2.8-4.3-3.7
	C172.8,121.2,189.7,114.1,189.9,114 M143.3,122.3c-9.5-2.2-42.6-14.5-52-22.5c1.3-0.2,4.2-1.9,4.3-3c3.9,1.5,6.4,1.4,8.5,1
	c12.1,8.7,31.2,13.1,34.3,15.2C142.6,115.9,144.8,122.7,143.3,122.3 M136.8,110.1c-3-0.9-17-5.1-30.1-12.9c1.4-0.6,1.7-1.5,1.9-2.4
	c3.7,1.5,5.7,1,7,0.3c3.9,2.4,9.3,4.7,15.8,7C135.8,103.7,137.4,109.7,136.8,110.1 M41.4,50.4c2.3-0.2,6.8-1.8,9.1-1.8
	c1.6,0,3.2,0.1,5.1,0.6c-1.3-0.9-2-1.7-3.7-1.8c-4.5-0.4-5.4,1.3-11.4,2.6c0,0,3-7.7,9.8-11.8c2.7,1.2,2.1,4.8,2.1,4.7
	c3.3-1.4,5.8,3.5,5,6.9c-1.4,6.2-6.3,4.3-6.3,4.3C48.9,53.6,41.4,50.4,41.4,50.4 M90.6,140.6c3.5-0.2,13.7-6.9,13.7-6.9l3.3,1.3
	L96,147.8c-0.2,0.2-0.4,0.5-0.6,0.5c-1.5,0.3-2.2,0.5-3.2,1.4c-0.8,0.7-1.3,1.7-1.5,2.4c-1.6,0.6-3,1.1-3.9,1.4
	c-2,0.7-4.4,1.5-7.4,2.6c-0.6-0.1-1.3-0.1-2.1-0.1c-0.6,0-0.8-0.1-0.6-0.6C76.7,154.9,90.6,140.6,90.6,140.6 M111.5,136.6
	c0,0,4.1,1.7,9.5,3.7c-4.7,1.9-11.5,4.6-17.8,7.1c-0.1,0-0.1,0-0.2,0c-2.7-0.1-2.8-0.2-2.2-0.9L111.5,136.6z M82.4,171.6
	c-14.2,7.7-36.1,18.7-65.3,32.7c0.5-2,0.4-4.7-0.8-7.8c-1.5-4.1-3.9-5.6-3.9-5.6c1.1,1.3,1.6,2.5,2.4,4.3c1.9,4.8,1.4,9.7-1.5,10.8
	c-2.9,1.2-6.7-2-8.6-6.8c-1.8-4.5-1.2-9.3,1.2-10.9c0.1,0,0.3-0.2,0.4-0.2c38.5-16.4,70.4-28.8,70.5-28.8c1.1,0,3.2,0.1,4.8,1.8
	C84,163.7,83.7,169.4,82.4,171.6 M105.5,159c-5.8,3-10.8,5.7-12.9,6.9c-2.2,1.3-4.9,2.8-8,4.5c3.3-3.9,2-11-1.6-13.3
	c1.6-0.6,3.1-1.1,4.3-1.5c2.5-0.8,7.9-2.9,13.9-5.2c0.7,0.1,2.3,0.5,3.2,1.2C106.5,153.1,106.5,157,105.5,159 M129.8,146.5
	c-0.2,0.1-11.7,5.9-22,11.2c2.3-3,0.6-7.2-1.9-9.2c6.9-2.7,13.9-5.5,18.2-7.2c3.2,1.1,6.6,2.2,9.8,3.1
	C132.4,145.2,131.1,145.9,129.8,146.5 M106.1,132.1c0,0,2.1-1.8,1.3-3.5c-0.5-1.2-0.8-1.9-2.4-3.2c-1.7-1-2.1-0.3-1.4,0.5
	c0.7,0.8,2.1,3.1,0.7,4.7c-2.3,2.6-8.7,5.6-12.3,7.6c-1.6,0.3-2.4,0.3-2.5-1.1c-0.2-1.7,2.2-5.4,5.1-10c-4.9-2.3-54.8-24-46.1-56.9
	c1.5-3,9.7-14,17.9-14c-0.6-1.5,0.2-10.7,7.1-17.6c-1.6,0.4-3.7-0.2-5.2-0.8c-0.6-0.4-1.3-1.1-2.5-1.8c-1.7-1-3.9-0.5-5.5,0.4
	c-0.9,0.6-7.2,0.4-8.2-1.3c2.7-6.5,8-13.1,18.3-17.5c7-3,15.2-4.7,20.4-10.1c0.2,8.4-12.2,14.1-12.2,14.1c7.5-1.7,12.6-6.8,12.6-6.7
	C88,23.1,80,27.8,80,27.8c2.6-0.4,7.5-2.6,9.6-4.2c0,0-0.9,4.4-8,10.6c0,0,3.5-0.8,5.5-2.3c3.5,4.6,6.2,12.6,6.3,22.3
	c0,1.9,0.9,6,1.9,6.5c1.4,0.7,0.2-2.1,0.6-3.4c14.3,8.7,25.3,26.3,35.3,42.9c-3.2-1-10.2-3.8-14.3-5.9c0.4-0.5,0.5-0.8,0.5-1.4
	c0.2-3.1-2.5-5.1-4-5.8c-0.4-0.2-0.6-0.1-0.7,0.1c-0.1,0.2-0.1,0.4,0,0.5c0.7,0.5,3.4,2.1,3.2,4.8c-0.1,0.7-1,1.7-2.5,1.8
	c-3.5,0.4-9.3-2.6-16.5-10c-0.2-0.2-0.6-0.7-1.1-0.4c-0.5,0.3-0.4,0.7-0.2,0.9c3.7,6.1,11.3,9.6,11.3,9.6c-0.5,2.1-3.1,2.2-5.5,2.1
	c-8.9-0.3-15-10.2-16.6-12.8c-0.3-0.5-0.7-0.6-1-0.5c-0.3,0.2-0.5,0.3-0.3,0.8c0.2,0.8,3.8,8.2,10.2,11.9c0.8,0.5-2.4,2.5-4.4,2.5
	c-3.7-0.1-12.5-3.5-15.5-16.4c0-0.2-0.2-0.5-0.7-0.4c-0.5,0.1-0.5,0.4-0.4,0.8c1.7,14.2,12.2,17.4,16.1,17.8
	c6.5,6.4,30.1,17.2,54.7,24.4c4.6,1.3,9.3,14,5.7,12.9c-1.3-0.4-3-1-4.8-1.6c-12.1-4.1-30.4-11.5-50.3-21.1
	c-13.7-6.6-36.9-21.6-25.7-42.4c1.5-3.1,3-4.6,3.3-4.9c0.1-0.1,0.2-0.5,0.2-0.6c-0.5-1.4-1.8-1.3-5.3,4.6
	c-11.9,22.9,12,37.9,26.5,45.1c9.3,4.6,25.8,11.7,37.5,16.4l6.4,10.4C130.9,142.2,111.8,134.6,106.1,132.1 M61.3,41.8
	c-0.1,1.6,1.1,2.9,2.6,3c1,0.1,2-0.3,2.5-1c-0.7,1.1-1.9,1.8-3.3,1.7c-1.9-0.1-3.4-1.8-3.3-3.8c0.1-1.9,1.8-3.4,3.8-3.3
	c1.3,0.1,2.4,0.9,2.9,1.9c-2.4-0.3-3,2.1-3,2.1c-1.6-1.9,0.5-3,0.5-3C62.7,39.2,61.4,40.2,61.3,41.8 M197.9,185.3
	c0,0-38.7-40.2-38.7-40l-2.6-0.1c0,0,38.8,40,40.8,42.9c1.4,2.1-1.2,9.5-5,7.9c-2.1-0.9-40.1-50.2-40.1-50.2h-2.6l40.5,51.9
	c1.7,2.6-2.4,5.7-5.8,5.1c-1.7-0.3-5.3-2.6-7-4.6c-9.7-11.3-30.7-43.3-44-64.3c15.2,5.1,21.2,9.5,19.5,1.6c-0.2-1-0.4-2.1-0.8-3
	c0,0,42.6,35.4,45.8,40.6C203.6,179.6,200,187.7,197.9,185.3"/>
<path class="st2" d="M76.7,159.4c-0.1,0-31.9,12.4-70.5,28.8c-0.2,0.1-0.3,0.2-0.4,0.2c-2.4,1.6-3,6.5-1.2,10.9
	c1.9,4.8,5.7,8,8.6,6.8c2.9-1.2,3.4-6.1,1.5-10.8c-0.7-1.8-1.2-3.1-2.4-4.3c0,0,2.4,1.5,3.9,5.6c1.1,3.1,1.3,5.8,0.8,7.8
	c29.2-14,51.1-25,65.3-32.7c1.3-2.2,1.6-7.9-0.9-10.4C79.9,159.5,77.9,159.3,76.7,159.4"/>
<path class="st3" d="M152,132.6c0.4,0.8,0.6,1.9,0.8,3c1.7,7.9-4.3,3.5-19.5-1.6c13.3,21,34.3,53,44,64.3c1.7,2,5.3,4.3,7,4.6
	c3.4,0.6,7.5-2.5,5.8-5.1l-40.5-51.9h2.6c0,0,38.1,49.3,40.1,50.2c3.8,1.7,6.4-5.7,5-7.9c-2-2.9-40.8-42.9-40.8-42.9l2.6,0.1
	c0-0.2,38.7,40,38.7,40c2.1,2.4,5.7-5.7-0.1-12.2C194.6,168,152,132.6,152,132.6"/>
<path class="st3" d="M93,116.6c-14.5-7.2-38.4-22.2-26.5-45.1c3.5-5.8,4.8-6,5.3-4.6c0,0.1-0.1,0.5-0.2,0.6
	c-0.2,0.2-1.8,1.7-3.3,4.9c-11.2,20.9,12,35.8,25.7,42.4c19.8,9.6,38.2,17,50.3,21.1c1.8,0.6,3.5,1.3,4.8,1.6
	c3.6,1.1-1.1-11.6-5.7-12.9c-24.5-7.2-48.1-18-54.7-24.4c-3.9-0.5-14.4-3.7-16.1-17.8c-0.1-0.4-0.1-0.7,0.4-0.8
	c0.4-0.1,0.6,0.2,0.7,0.4c3,12.9,11.8,16.3,15.5,16.4c2,0.1,5.3-2,4.4-2.5c-6.4-3.7-9.9-11.1-10.2-11.9c-0.2-0.5,0-0.6,0.3-0.8
	c0.3-0.2,0.6,0,1,0.5c1.6,2.5,7.7,12.5,16.6,12.8c2.4,0.1,5,0,5.5-2.1c0,0-7.6-3.5-11.3-9.6c-0.1-0.2-0.2-0.6,0.2-0.9
	c0.5-0.3,0.9,0.2,1.1,0.4c7.2,7.4,13,10.4,16.5,10c1.4-0.1,2.4-1.1,2.5-1.8c0.2-2.7-2.5-4.3-3.2-4.8c-0.1-0.1-0.2-0.3,0-0.5
	c0.1-0.1,0.4-0.2,0.7-0.1c1.4,0.7,4.2,2.7,4,5.8c0,0.6-0.1,0.9-0.5,1.4c4.1,2.1,11.1,4.9,14.3,5.9c-9.9-16.7-20.9-34.2-35.3-42.9
	c-0.4,1.2,0.8,4.1-0.6,3.4c-1-0.5-1.8-4.6-1.9-6.5c-0.2-9.6-2.8-17.6-6.3-22.3c-1.9,1.5-5.5,2.3-5.5,2.3c7-6.3,8-10.6,8-10.6
	c-2.1,1.6-7,3.8-9.6,4.2c0,0,8-4.7,11.3-13.1c0-0.1-5.1,5-12.6,6.7c0,0,12.5-5.7,12.2-14.1c-5.2,5.4-13.4,7.2-20.4,10.1
	c-10.3,4.3-15.6,11-18.3,17.5c1,1.7,7.2,1.9,8.2,1.3c1.6-0.9,3.7-1.4,5.5-0.4c1.3,0.7,1.9,1.4,2.5,1.8c1.5,0.7,3.6,1.2,5.2,0.8
	c-6.9,7-7.7,16.1-7.1,17.6c-8.2,0-16.4,11.1-17.9,14c-8.7,32.9,41.1,54.6,46.1,56.9c-2.9,4.6-5.3,8.3-5.1,10
	c0.2,1.4,0.9,1.4,2.5,1.1c3.6-2.1,10.1-5,12.3-7.6c1.4-1.6-0.1-3.9-0.7-4.7c-0.7-0.8-0.3-1.5,1.4-0.5c1.6,1.3,1.9,2.1,2.4,3.2
	c0.7,1.7-1.3,3.5-1.3,3.5c5.6,2.5,24.8,10.1,30.7,11.3l-6.4-10.4C118.7,128.3,102.3,121.2,93,116.6"/>
<path class="st3" d="M95.7,96.8c-0.1,1.1-3,2.7-4.3,3c9.4,8,42.5,20.3,52,22.5c1.5,0.4-0.7-6.4-4.8-9.2c-3-2-22.2-6.5-34.3-15.2
	C102.1,98.2,99.5,98.3,95.7,96.8"/>
<path class="st3" d="M108.6,94.8c-0.1,0.9-0.4,1.8-1.9,2.4c13.1,7.8,27,12,30.1,12.9c0.6-0.4-1-6.4-5.3-8c-6.5-2.3-12-4.6-15.8-7
	C114.2,95.9,112.2,96.3,108.6,94.8"/>
<path class="st0" d="M63.6,42.4c0,0,0.5-2.4,3-2.1c-0.5-1.1-1.6-1.9-2.9-1.9c-1.9-0.1-3.6,1.3-3.8,3.3c-0.1,2,1.3,3.6,3.3,3.8
	c1.4,0.1,2.6-0.6,3.3-1.7c-0.5,0.8-1.5,1.1-2.5,1c-1.6-0.1-2.7-1.5-2.6-3c0.1-1.6,1.4-2.6,2.7-2.4C64,39.4,62,40.5,63.6,42.4"/>
<path class="st2" d="M57.5,49.7c0.8-3.4-1.8-8.2-5-6.9c0,0,0.6-3.5-2.1-4.7c-6.7,4.1-9.8,11.8-9.8,11.8c5.9-1.3,6.9-3,11.4-2.6
	c1.6,0.1,2.4,0.9,3.7,1.8c-2-0.4-3.5-0.5-5.1-0.6c-2.3,0-6.9,1.6-9.1,1.8c0,0,7.6,3.3,9.9,3.6C51.3,54,56.1,55.9,57.5,49.7"/>
<path class="st2" d="M191.4,117.2c0.3-0.1,0.7-0.2,1-0.3c1.3-0.7,2.7-1.5,3.2-2.6c0.7-1.4,0-2.4,0-2.4s0-0.6,0.4-0.3
	c0.6,0.8,1,1.6,1.6,3.6c0.2,0.7,0.5,2,0.4,2.6c0.2,0.1,0.4,0.3,0.5,0.3c1.2,0.1,1.8-1,1.8-1c0.1-1,0-2.4-1.2-5.2
	c-1.2-2.7-2.8-4.2-3.2-4.4c-0.4-0.4-1.5-0.4-2.1,0.6c-0.3,0.5,0.1,1.7,0.1,2c-0.1,2-2.8,3.2-3.8,3.8l0,0l-0.1,0
	c-0.2,0.1-17.1,7.2-37.9,15.9c1,0.9,2.5,2.1,4.3,3.7C174.7,124.9,191.1,117.4,191.4,117.2"/>
<path class="st2" d="M101.3,150.3c-6,2.3-11.4,4.4-13.9,5.2c-1.3,0.4-2.7,0.9-4.3,1.5c3.6,2.3,4.9,9.4,1.6,13.3c3-1.7,5.7-3.2,8-4.5
	c2-1.2,7.1-3.9,12.9-6.9c1-2,1-5.8-1-7.4C103.6,150.8,102.1,150.5,101.3,150.3"/>
<path class="st2" d="M105.8,148.6c2.5,2,4.3,6.2,1.9,9.2c10.3-5.3,21.8-11.1,22-11.2c1.3-0.7,2.7-1.3,4-2c-3.2-0.9-6.6-2-9.8-3.1
	C119.8,143.1,112.7,145.9,105.8,148.6"/>
<path class="st0" d="M195.5,155.3H194v4.2h-1v-4.2h-1.5v-0.9h4.1V155.3z M202.6,159.5h-1.1v-4.1h0l-1.5,4.1h-1l-1.4-4.1h0v4.1h-1
	v-5.1h1.8l1.2,3.4h0l1.3-3.4h1.8V159.5z"/>
</svg>
