<?xml version="1.0" encoding="UTF-8" standalone="no"?>
<svg
   viewBox="0 0 130.088 148.232"
   version="1.1"
   id="svg3"
   sodipodi:docname="TEX_2.svg"
   inkscape:version="1.4 (86a8ad7, 2024-10-11)"
   xmlns:inkscape="http://www.inkscape.org/namespaces/inkscape"
   xmlns:sodipodi="http://sodipodi.sourceforge.net/DTD/sodipodi-0.dtd"
   xmlns="http://www.w3.org/2000/svg"
   xmlns:svg="http://www.w3.org/2000/svg"
   xmlns:rdf="http://www.w3.org/1999/02/22-rdf-syntax-ns#"
   xmlns:cc="http://creativecommons.org/ns#"
   xmlns:dc="http://purl.org/dc/elements/1.1/">
  <defs
     id="defs3" />
  <sodipodi:namedview
     id="namedview3"
     pagecolor="#ffffff"
     bordercolor="#000000"
     borderopacity="0.25"
     inkscape:showpageshadow="2"
     inkscape:pageopacity="0.0"
     inkscape:pagecheckerboard="0"
     inkscape:deskcolor="#d1d1d1"
     inkscape:zoom="5.6050684"
     inkscape:cx="69.223063"
     inkscape:cy="70.025907"
     inkscape:window-width="3440"
     inkscape:window-height="1377"
     inkscape:window-x="-8"
     inkscape:window-y="-8"
     inkscape:window-maximized="1"
     inkscape:current-layer="svg3" />
  <title
     id="title1">Texas Rangers cap logo</title>
  <path
     fill="#003278"
     d="M17.085 42.598l-.035 4.335H0l6.29 7.93h18.275l.015-3.125c0-17.383 1.65-28.398 19.83-30.38v-2.305c-19.625.068-27.316 6.6-27.325 23.545m58.823 30.419v38.213c0 1.973.454 3.897 5.81 3.897h2.706V76.592c0-7.813 10.82-10.8 10.82-10.8s-2.652-1.056-5.347-2.97l-4.673 1.328c-.097.02-9.316 2.715-9.316 8.867M122.002.293v46.64h-12.657l6.768 8.467h13.975V8.818M75.908 50.79c0 4.737 6.86 8.458 9.507 9.474l2.578 1.005c-1.968-1.797-3.57-4.122-3.57-6.885v-32.51l1.534.107c4.6 0 8.95 1.563 12.578 4.21-4.854-4.512-12.485-6.934-22.627-7.012v31.61zm-43.633 88.624v.078l6.65 8.74h60.152v-20.136l-7.14-8.3v19.618"
     id="path1"
     style="fill:#c0111f;fill-opacity:1" />
  <path
     fill="#c0111f"
     d="M.43 42.842h12.65c0-.127.025-.215.025-.313 0-.313-.024-.43-.102-.138 0-18.994 9.75-27.44 31.6-27.44h3.898v35.84c0 5.868-3.964 9.325-7.148 11.298 3.208 1.806 7.15 5.04 7.15 10.918v37.89c0 5.127-3.65 8.31-9.533 8.31h-6.53v16.134h55.41V119.21h-6.13c-8.178 0-9.897-4.327-9.897-7.98V73.008c0-5.86 4.605-9.18 8.204-10.987-3.555-2.118-8.203-5.77-8.203-11.23V16.983l1.52-1.963h2.045c21.172 0 33.32 9.62 33.32 26.396 0 0-.004.752-.02 1.426h9.23V0H.43v42.842z"
     id="path2"
     style="fill:#ffffff;fill-opacity:1" />
  <metadata
     id="metadata3">
    <rdf:RDF>
      <cc:Work
         rdf:about="">
        <dc:title>Texas Rangers cap logo</dc:title>
      </cc:Work>
    </rdf:RDF>
  </metadata>
</svg>
