<?xml version="1.0" encoding="utf-8"?>
<!-- Generator: Adobe Illustrator 24.0.3, SVG Export Plug-In . SVG Version: 6.00 Build 0)  -->
<svg version="1.1" id="Layer_1" xmlns="http://www.w3.org/2000/svg" xmlns:xlink="http://www.w3.org/1999/xlink" x="0px" y="0px"
	 viewBox="0 0 128.2 146.1" style="enable-background:new 0 0 128.2 146.1;" xml:space="preserve">
<style type="text/css">
	.st0{fill:#003278;}
	.st1{fill:#FFFFFF;}
</style>
<g>
	<path class="st0" d="M17,42.3v4.3H0.3l6.2,7.8h17.9v-3.1c0-17,1.6-27.8,19.4-29.7c0-1,0-1.8,0-2.3C24.5,19.2,17,25.7,17,42.3z"/>
	<path class="st0" d="M74.6,72.1v37.5c0,1.9,0.4,3.8,5.7,3.8H83c0-0.1,0-0.2,0-0.3V75.6c0-7.7,10.6-10.5,10.6-10.5s-2.6-1-5.3-2.9
		l-4.6,1.2C83.7,63.4,74.6,66,74.6,72.1z"/>
	<polygon class="st0" points="119.7,0.9 119.7,46.6 107.4,46.6 114,54.8 127.7,54.8 127.7,9.2 	"/>
	<path class="st0" d="M74.6,50.3c0,4.7,6.8,8.2,9.3,9.2l2.5,1c-1.9-1.8-3.5-4.1-3.5-6.8V22l1.5,0.1c4.5,0,8.7,1.5,12.3,4.2
		c-4.8-4.4-12.2-6.8-22.2-6.9C74.6,23.1,74.6,50.3,74.6,50.3z"/>
	<polygon class="st0" points="31.9,137.1 31.9,137.2 38.5,145.7 97.3,145.7 97.3,126 90.3,117.9 90.3,137.1 	"/>
	<path class="st1" d="M0.7,42.5c2.7,0,9.8,0,12.4,0c0-0.1,0-0.2,0-0.3c0-0.3,0-0.4-0.1-0.1c0-18.6,9.5-26.8,30.9-26.8h3.8v35.1
		c0,5.8-3.9,9.1-7,11c3.2,1.8,7,5,7,10.7v37.1c0,5.1-3.6,8.1-9.3,8.1c0,0-4.1,0-6.4,0c0,2.9,0,12.9,0,15.8c3.6,0,50.7,0,54.3,0
		c0-2.9,0-12.9,0-15.8c-2.3,0-6,0-6,0c-8,0-9.7-4.3-9.7-7.9V72.1c0-5.8,4.5-9,8-10.7c-3.5-2.1-8-5.7-8-11V15.3H72h2
		c20.8,0,32.6,9.4,32.6,25.8c0,0,0,0.7,0,1.4c2.4,0,6.7,0,9,0c0-3.5,0-38.5,0-41.9c-3.7,0-111.2,0-115,0C0.7,4,0.7,39,0.7,42.5z"/>
	<path class="st1" d="M115.8,42.5c-2.4,0-6.7,0-9,0c0-0.7,0-1.4,0-1.4c0-16.4-11.9-25.8-32.6-25.8h-2h-1.5v35.1c0,5.4,4.6,8.9,8,11
		c-3.6,1.8-8,5.1-8,10.7v37.5c0,3.6,1.7,7.9,9.7,7.9c0,0,3.8,0,6,0c0,2.9,0,12.9,0,15.8c-3.6,0-50.7,0-54.3,0c0-2.9,0-12.9,0-15.8
		c2.3,0,6.4,0,6.4,0c5.8,0,9.3-3.1,9.3-8.1V72.1c0-5.8-3.9-8.9-7-10.7c3.1-1.9,7-5.3,7-11V15.2H44c-21.4,0-30.9,8.2-30.9,26.8
		c0.1-0.3,0.1-0.2,0.1,0.1c0,0.1,0,0.2,0,0.3c-2.6,0-9.7,0-12.4,0c0-3.5,0-38.5,0-41.9c3.8,0,111.2,0,115.1,0
		C115.8,4,115.8,39,115.8,42.5z"/>
	<polygon class="st0" points="100,138.6 102.1,138.6 102.1,144.4 103.5,144.4 103.5,138.6 105.5,138.6 105.5,137.4 100,137.4 	"/>
	<polygon class="st0" points="110.9,141.9 110.9,141.9 109.3,137.4 106.8,137.4 106.8,144.4 108.2,144.4 108.2,138.8 108.3,138.8 
		110.2,144.4 111.6,144.4 113.6,138.8 113.7,138.8 113.7,144.4 115.1,144.4 115.1,137.4 112.6,137.4 	"/>
</g>
</svg>
