<?xml version="1.0" encoding="UTF-8" standalone="no"?>
<svg
   viewBox="0 0 267.29687 267.01"
   version="1.1"
   id="svg1"
   sodipodi:docname="WSH.svg"
   width="267.29688"
   height="267.01001"
   inkscape:version="1.4 (86a8ad7, 2024-10-11)"
   xmlns:inkscape="http://www.inkscape.org/namespaces/inkscape"
   xmlns:sodipodi="http://sodipodi.sourceforge.net/DTD/sodipodi-0.dtd"
   xmlns="http://www.w3.org/2000/svg"
   xmlns:svg="http://www.w3.org/2000/svg"
   xmlns:rdf="http://www.w3.org/1999/02/22-rdf-syntax-ns#"
   xmlns:cc="http://creativecommons.org/ns#"
   xmlns:dc="http://purl.org/dc/elements/1.1/">
  <defs
     id="defs1" />
  <sodipodi:namedview
     id="namedview1"
     pagecolor="#ffffff"
     bordercolor="#000000"
     borderopacity="0.25"
     inkscape:showpageshadow="2"
     inkscape:pageopacity="0.0"
     inkscape:pagecheckerboard="0"
     inkscape:deskcolor="#d1d1d1"
     inkscape:zoom="3.3447547"
     inkscape:cx="72.352092"
     inkscape:cy="111.96636"
     inkscape:window-width="3440"
     inkscape:window-height="1377"
     inkscape:window-x="-8"
     inkscape:window-y="-8"
     inkscape:window-maximized="1"
     inkscape:current-layer="svg1" />
  <title
     id="title1">Washington Nationals dark logo</title>
  <path
     id="path2"
     style="fill:#041e42;fill-opacity:1"
     sodipodi:type="inkscape:offset"
     inkscape:radius="9.3192024"
     inkscape:original="M 209.77734 0.021484375 C 194.14223 -0.65923438 182.34766 14.832484 182.34766 24.771484 C 205.46466 29.681484 226.06817 52.806188 216.82617 112.86719 C 209.30617 161.94719 180.34561 192.52705 162.09961 193.12305 C 177.21961 172.46305 187.37211 149.11525 192.91211 126.28125 C 209.46511 58.13525 182.96289 36.140375 161.96289 35.109375 C 136.45589 33.837375 110.94227 68.568781 103.82227 109.55078 C 98.195266 142.03078 98.88925 175.18305 118.65625 199.49805 C 101.20125 221.55805 59.220938 228.37137 66.585938 175.23438 C 72.769937 130.75838 94.864125 81.725516 107.07812 57.603516 L 107.44141 56.958984 C 114.00341 43.528984 119.20536 33.996891 121.44336 30.212891 L 116.52344 30.148438 C 68.747438 30.970438 30.799891 41.983922 13.087891 66.169922 C -3.5001094 88.812922 -3.9793437 112.64578 9.7226562 126.80078 L 11.726562 128.7793 C 15.736562 132.8193 21.002141 134.90039 26.244141 134.90039 L 26.283203 134.90039 C 31.009203 134.90039 35.808016 133.12791 39.416016 129.50391 C 43.030016 125.91391 44.810875 121.09923 44.796875 116.36523 C 44.796875 111.11523 42.700969 105.8518 38.667969 101.8418 C 36.557969 99.731797 34.094516 98.153094 31.478516 97.121094 L 31.558594 96.976562 C 31.913594 96.106562 32.340641 95.270219 32.806641 94.449219 C 36.010641 88.829219 41.605391 83.708156 48.900391 80.035156 C 54.626391 77.153156 61.389172 75.173594 68.701172 74.433594 L 67.546875 76.896484 C 57.418875 95.656484 42.619984 131.38558 37.958984 150.01758 C 23.393984 208.27758 46.935719 242.39706 72.386719 247.16406 C 103.02972 252.88106 126.57291 238.01822 139.00391 218.82422 C 153.83591 228.22722 192.98025 233.65581 222.40625 181.25781 C 256.27025 120.87281 257.50044 31.840437 226.39844 6.8984375 C 220.62769 2.2729375 214.98905 0.24839063 209.77734 0.021484375 z M 157.02734 75.736328 C 159.09734 75.898328 161.44942 76.574406 163.10742 80.566406 C 164.46042 83.802406 165.07227 88.086172 165.07227 93.076172 C 165.07227 117.98917 150.19144 160.45312 139.77344 179.45312 C 133.95344 165.29913 131.29688 148.63331 131.29688 132.82031 C 131.29688 113.72231 135.10427 95.961969 141.69727 85.542969 C 146.04727 78.682969 151.19134 75.365328 157.02734 75.736328 z "
     d="M 210.18359,-9.2890625 C 199.19512,-9.7674767 189.86443,-4.5933205 183.52539,1.9101562 177.18635,8.413633 173.0293,16.115631 173.0293,24.771484 a 9.3201343,9.3201343 0 0 0 1.23828,3.496094 c -3.95846,-1.417014 -7.96533,-2.27581 -11.83985,-2.466797 h -0.008 c -14.33704,-0.711991 -27.25363,6.78624 -37.875,18.087891 2.21171,-4.16225 3.97743,-7.338068 4.91992,-8.931641 a 9.3201343,9.3201343 0 0 0 -7.89843,-14.0625 l -4.91993,-0.06445 a 9.3201343,9.3201343 0 0 0 -0.2832,0 C 67.240585,21.675248 26.232415,32.446987 5.5683594,60.664062 -12.80988,85.752405 -14.385477,115.2947 3.0273438,133.2832 a 9.3201343,9.3201343 0 0 0 0.1484375,0.14844 l 1.9374999,1.91211 c 5.7562388,5.7993 13.4223578,8.875 21.1308598,8.875 h 0.03906 c 1.277303,0 2.556877,-0.18774 3.833984,-0.36328 -0.339329,1.2165 -0.916178,2.76896 -1.199218,3.90039 a 9.3201343,9.3201343 0 0 0 0,0.002 c -15.3457,61.3828 9.415993,102.50948 41.753906,108.56641 a 9.3201343,9.3201343 0 0 0 0.0059,0 c 30.742046,5.73548 56.028216,-7.30388 71.166016,-25.76563 9.51951,3.73326 21.94168,5.29362 35.75195,1.67188 17.97838,-4.71482 37.29139,-18.55307 52.93555,-46.41016 a 9.3201343,9.3201343 0 0 0 0.004,-0.004 C 248.39938,153.9616 257.3992,115.41155 258.08203,80.972656 258.76487,46.53376 252.04828,15.523211 232.22852,-0.37109375 a 9.3201343,9.3201343 0 0 0 -0.002,-0.001953 C 225.1797,-6.0214081 217.51007,-8.970084 210.18359,-9.2890625 Z M 188.83594,36.980469 c 5.65724,2.876321 10.67083,7.490207 14.53515,15.292968 5.69728,11.503825 8.67948,30.351845 4.24414,59.175783 a 9.3201343,9.3201343 0 0 0 0,0.006 c -2.35082,15.34287 -7.04153,28.45874 -12.63281,39.35547 2.74461,-7.43386 5.18227,-14.89464 6.98633,-22.33008 v -0.002 c 8.59951,-35.403993 6.45786,-60.236639 -2.13867,-77.169926 -2.97197,-5.854131 -6.77493,-10.557681 -10.99414,-14.328125 z m -34.06446,48.230468 c 0.50927,1.678956 0.98243,4.285894 0.98243,7.865235 0,14.146368 -6.64582,37.874768 -13.8086,57.437498 -0.80898,-5.88393 -1.33008,-11.84232 -1.33008,-17.69336 0,-17.85941 4.05598,-34.549716 8.95704,-42.294919 2.34884,-3.702444 3.82473,-4.93224 5.19921,-5.314454 z M 50.808594,89.701172 c -1.178694,2.549652 -2.318991,5.3713 -3.496094,8.046875 -0.680525,-0.840396 -1.285304,-1.728418 -2.064453,-2.503906 -0.244774,-0.244571 -0.539612,-0.407827 -0.791016,-0.642579 1.715447,-1.737522 3.841629,-3.396848 6.351563,-4.90039 z m 43.636718,19.593748 c -5.134035,30.55036 -5.047332,63.12322 12.029298,89.2207 -6.944753,5.64117 -16.102264,8.88098 -21.460938,7.88672 -3.372855,-0.6258 -5.468684,-1.83655 -7.480469,-5.95117 -2.011549,-4.11413 -3.395557,-11.81753 -1.716797,-23.93359 v -0.004 c 3.088843,-22.212 10.5336,-46.06631 18.628906,-67.21875 z m -40.330078,7.04297 c 0,0.009 -0.0013,0.0182 -0.002,0.0137 -1.1e-5,-0.005 0.002,-0.009 0.002,-0.0137 z m -8.095703,19.74023 c -0.01172,0.0124 -0.02083,0.0202 -0.01367,0.0117 0.0043,-0.004 0.0093,-0.007 0.01367,-0.0117 z"
     transform="translate(9.1681332,9.3197669)" />
  <path
     d="m 235.56613,16.217767 c -23.083,-18.5020001 -44.05,4.622 -44.05,17.874 23.117,4.91 43.72,28.035 34.478,88.096003 -7.52,49.08 -36.48,79.66 -54.726,80.256 15.12,-20.66 25.273,-44.008 30.813,-66.842 16.553,-68.146003 -9.95,-90.142003 -30.95,-91.173003 -25.507,-1.272 -51.02,33.46 -58.14,74.442003 -5.627,32.48 -4.934,65.633 14.833,89.948 -17.455,22.06 -59.434997,28.872 -52.069997,-24.265 6.184,-44.476 28.277997,-93.508003 40.491997,-117.630003 l 0.363,-0.645 c 6.562,-13.43 11.764,-22.963 14.002,-26.747 l -4.92,-0.064 c -47.775997,0.822 -85.722997,11.836 -103.434997,36.022 -16.5879998,22.643 -17.0679998,46.475003 -3.366,60.630003 l 2.005,1.98 c 4.01,4.04 9.275,6.12 14.517,6.12 h 0.04 c 4.726,0 9.524,-1.772 13.132,-5.396 3.614,-3.59 5.394,-8.404 5.38,-13.138 0,-5.25 -2.095,-10.515 -6.128,-14.525 -2.11,-2.11 -4.574,-3.688 -7.19,-4.72 l 0.08,-0.144 c 0.355,-0.87 0.782,-1.707 1.248,-2.528 3.204,-5.620003 8.8,-10.740003 16.095,-14.413003 5.726,-2.882 12.488,-4.863 19.8,-5.603 l -1.154,2.463 c -10.128,18.760003 -24.927,54.490003 -29.588,73.122003 -14.565,58.26 8.977,92.38 34.428,97.147 30.642997,5.717 54.184997,-9.146 66.615997,-28.34 14.832,9.403 53.977,14.83 83.403,-37.568 33.864,-60.385 35.094,-149.417003 3.992,-174.359003 z m -86.624,172.555003 c -5.82,-14.154 -8.477,-30.82 -8.477,-46.633 0,-19.098 3.807,-36.858 10.4,-47.277003 4.35,-6.86 9.494,-10.177 15.33,-9.806 2.07,0.162 4.422,0.838 6.08,4.83 1.353,3.236 1.965,7.52 1.965,12.510003 0,24.913 -14.88,67.376 -25.298,86.376 z"
     fill="#ab0003"
     id="path1"
     sodipodi:nodetypes="ccccccccccccccccsscccccccccccccccscccsc" />
  <metadata
     id="metadata2">
    <rdf:RDF>
      <cc:Work
         rdf:about="">
        <dc:title>Washington Nationals dark logo</dc:title>
      </cc:Work>
    </rdf:RDF>
  </metadata>
</svg>
