<svg width="112" height="112" fill="none" xmlns="http://www.w3.org/2000/svg"><path d="M102.729 67.713c-.077.744-.17 1.487-.227 2.232-.411 5.32-2.171 10.065-6.025 13.914-.557.556-1.13 1.106-1.757 1.58-.647.488-1.091 1.091-1.478 1.788-3.569 6.43-8.808 11.158-15.284 14.593-5.018 2.662-10.381 4.243-16.039 4.844-.958.102-1.922.149-2.883.228-.08.006-.153.07-.23.109h-.464c-.964-.038-1.927-.082-2.89-.106-.195-.005-.391.069-.587.106h-.58c-.556-.073-1.112-.166-1.672-.213-7.838-.678-15.056-3.103-21.539-7.562-4.473-3.076-8.116-6.922-10.825-11.622a2.49 2.49 0 0 0-.63-.724c-5.12-3.894-7.91-9.113-8.667-15.38-.929-7.697-.045-15.172 3.245-22.284.098-.21.133-.473.12-.707-.11-2.118-.344-4.236-.336-6.353.01-2.8.542-5.546 1.27-8.252.043-.165.025-.467-.075-.53-1.28-.801-1.728-2.109-1.99-3.435-.721-3.64-1.36-7.308-1.182-11.035.19-3.99 1.503-7.563 4.542-10.339 1.547-1.414 3.494-2.134 5.42-2.871 1.314-.503 2.68-.682 4.08-.711.349-.008.723-.09 1.04-.236 3.478-1.61 6.977-1.51 10.49-.145 1.737.674 3.3 1.651 4.737 2.825.277.226.512.294.876.199 4.425-1.168 8.67-.63 12.741 1.384.41.202.727.26 1.17.038 4.15-2.083 8.475-2.672 13.008-1.448.203.055.522-.06.703-.202 2.05-1.604 4.264-2.889 6.83-3.485 2.988-.695 5.887-.498 8.656.915.209.107.478.122.722.134 7.452.39 12.933 4.728 13.992 12.205.425 2.995.011 5.907-.549 8.824-.202 1.05-.475 2.085-.709 3.128-.032.148-.05.305-.034.454.155 1.565-.423 2.8-1.634 3.694.327 1.522.684 3.003.957 4.5.457 2.502.41 5.024.142 7.545-.116 1.083-.263 2.163-.373 3.246-.02.195.04.417.124.6 1.874 4.083 3.076 8.35 3.518 12.818.094.95.105 1.909.166 2.863.011.194.072.385.11.578v2.296ZM16.544 32.947c-1.679 5.123-2.01 10.264-1.3 15.493.047.35-.04.743-.16 1.082-.707 1.974-1.573 3.902-2.143 5.913-1.279 4.511-1.573 9.14-1.304 13.806.193 3.35.991 6.553 2.434 9.6 1.456 3.076 3.766 5.424 6.384 7.525.175.14.344.31.452.502 3.307 5.871 8.032 10.333 13.911 13.6 8.39 4.662 17.413 6.278 26.939 5.286 6.196-.645 12.006-2.493 17.373-5.643 5.836-3.427 10.507-7.982 13.671-13.985.18-.341.45-.666.754-.906 3.227-2.553 5.673-5.654 6.917-9.603 1.399-4.444 1.449-9.004 1.047-13.578-.392-4.453-1.661-8.685-3.534-12.745a1.437 1.437 0 0 1-.114-.713c.114-1.122.268-2.24.39-3.36.335-3.084.249-6.149-.484-9.176-.26-1.068-.58-2.122-.876-3.192 1.447-.658 2.057-1.774 1.878-3.33-.02-.168 0-.346.034-.511.317-1.474.671-2.94.957-4.42.557-2.875.763-5.76.056-8.646-.7-2.864-1.953-5.463-4.426-7.18-2.567-1.781-5.419-2.988-8.671-2.879-.222.008-.475-.025-.665-.128-2.76-1.492-5.662-1.63-8.632-.842-2.426.643-4.51 1.935-6.424 3.522-.172.143-.497.258-.692.198-4.411-1.35-8.645-.837-12.714 1.207-.768.387-1.356.374-2.124-.009-4.001-1.994-8.175-2.47-12.502-1.184-.325.097-.548.08-.819-.153-1.36-1.171-2.844-2.168-4.508-2.865-3.531-1.48-7.052-1.656-10.542.154a1.286 1.286 0 0 1-.606.12c-1.724-.05-3.373.261-4.96.931C19.926 7.52 18.288 8.163 17 9.4c-2.713 2.602-3.894 5.883-4.064 9.525-.17 3.67.453 7.282 1.175 10.864.278 1.373.76 2.728 2.434 3.158Z" fill="#902C38"/><path d="M54.867 107c.195-.037.391-.11.586-.105.963.023 1.927.068 2.89.105h-3.476Z" fill="#BC837D"/><path d="M16.544 32.947c-1.673-.43-2.156-1.785-2.433-3.159-.721-3.581-1.345-7.194-1.174-10.863.17-3.643 1.35-6.924 4.063-9.525 1.29-1.237 2.928-1.88 4.543-2.562a11.716 11.716 0 0 1 4.959-.931c.202.006.43-.029.606-.12 3.49-1.81 7.011-1.635 10.543-.156 1.664.697 3.148 1.693 4.509 2.866.27.232.493.249.819.152 4.326-1.286 8.5-.81 12.5 1.184.77.383 1.357.396 2.125.01 4.068-2.044 8.302-2.556 12.714-1.208.195.06.52-.055.692-.198 1.914-1.587 3.998-2.878 6.424-3.522 2.97-.788 5.872-.651 8.632.842.19.103.444.136.665.128 3.253-.11 6.104 1.098 8.671 2.88 2.473 1.716 3.725 4.315 4.426 7.179.707 2.887.501 5.77-.056 8.646-.286 1.48-.64 2.947-.957 4.42a1.59 1.59 0 0 0-.034.51c.18 1.557-.431 2.673-1.878 3.331.295 1.07.617 2.124.876 3.192.733 3.027.82 6.092.484 9.176-.122 1.12-.276 2.238-.39 3.36-.023.233.016.5.114.713 1.873 4.06 3.142 8.292 3.534 12.745.403 4.574.352 9.135-1.047 13.578-1.243 3.949-3.69 7.05-6.917 9.603-.303.24-.575.565-.754.906-3.164 6.002-7.835 10.559-13.67 13.985-5.368 3.151-11.178 4.998-17.374 5.643-9.526.992-18.55-.624-26.939-5.286-5.878-3.267-10.604-7.729-13.911-13.6a1.831 1.831 0 0 0-.451-.502c-2.618-2.101-4.93-4.449-6.385-7.525a25.684 25.684 0 0 1-2.434-9.6c-.269-4.665.025-9.294 1.304-13.805.57-2.012 1.436-3.94 2.143-5.914.12-.339.207-.733.16-1.082-.713-5.227-.38-10.368 1.298-15.49Zm4.839-3.473c-.556 1.1-1.196 2.132-1.618 3.244-2.009 5.302-2.304 10.759-1.374 16.313.04.238-.026.516-.115.748-.775 2.028-1.71 4.01-2.326 6.084-1.326 4.463-1.6 9.058-1.297 13.684a22.92 22.92 0 0 0 2.087 8.17c1.317 2.851 3.492 4.96 5.904 6.88.249.198.504.432.652.705 3.6 6.632 9.025 11.317 15.844 14.458 7.792 3.59 15.968 4.557 24.433 3.236 5.75-.897 11.074-2.909 15.899-6.152 4.802-3.23 8.603-7.342 11.135-12.558.133-.274.396-.51.646-.701 2.96-2.247 5.28-4.961 6.4-8.556 1.402-4.496 1.374-9.087.84-13.692-.481-4.132-1.77-8.039-3.607-11.773a.82.82 0 0 1-.09-.426c.216-1.877.498-3.75.657-5.631.314-3.72-.263-7.32-1.763-10.747-.515-1.175-1.214-2.272-1.867-3.476.239.15.429.297.641.398.29.138.588.303.9.35 1.318.2 2.266-.459 2.624-1.919a86.878 86.878 0 0 0 1.015-4.819c.449-2.408.562-4.828-.08-7.221-.696-2.597-1.929-4.838-4.495-6.079a29.58 29.58 0 0 0-2.544-1.082c-1.287-.48-2.623-.572-3.986-.4a1.012 1.012 0 0 1-.674-.174c-1.062-.815-2.282-1.166-3.591-1.282-2.716-.241-5.091.668-7.24 2.208-1.103.79-2.11 1.711-3.159 2.572-4.092-2.001-8.208-1.776-12.214.29-1.735.895-3.211.874-4.933-.048-2.867-1.536-5.983-1.966-9.19-1.237-1.017.232-1.99.663-3.046 1.025-.152-.158-.344-.373-.552-.572-1.864-1.79-3.922-3.295-6.482-3.93-2.43-.602-4.782-.483-6.888 1.085-.13.095-.349.093-.528.098-.96.031-1.962-.116-2.867.115-1.31.334-2.56.913-3.814 1.436-1.074.449-1.904 1.22-2.586 2.148-2.06 2.81-2.457 6.01-2.141 9.34.206 2.165.565 4.317.846 6.476.16 1.224.899 1.925 2.159 1.993.843.045 1.648-.098 2.385-.58Z" fill="#FDFAFA"/><path d="M21.383 29.474c-.736.483-1.541.627-2.385.581-1.26-.068-2-.768-2.159-1.992-.281-2.16-.64-4.311-.846-6.477-.316-3.33.08-6.53 2.141-9.34.682-.928 1.511-1.7 2.586-2.147 1.254-.524 2.505-1.102 3.814-1.436.905-.231 1.908-.084 2.867-.115.178-.006.398-.003.528-.099 2.106-1.568 4.459-1.686 6.888-1.084 2.56.634 4.617 2.14 6.482 3.93.208.199.4.413.552.571 1.057-.361 2.029-.793 3.046-1.024 3.207-.73 6.323-.3 9.19 1.236 1.722.922 3.198.944 4.933.049 4.006-2.067 8.122-2.292 12.214-.29 1.049-.861 2.056-1.783 3.159-2.573 2.148-1.54 4.524-2.449 7.24-2.208 1.309.116 2.529.468 3.59 1.282.172.131.458.201.675.174 1.363-.172 2.699-.08 3.986.4a29.8 29.8 0 0 1 2.544 1.083c2.567 1.24 3.8 3.482 4.495 6.078.642 2.393.529 4.814.08 7.222a87.405 87.405 0 0 1-1.015 4.818c-.358 1.46-1.306 2.12-2.625 1.92-.31-.048-.609-.213-.899-.351-.212-.101-.402-.248-.64-.398.652 1.204 1.35 2.3 1.866 3.477 1.5 3.425 2.077 7.026 1.763 10.746-.159 1.882-.441 3.754-.658 5.631a.812.812 0 0 0 .091.427c1.837 3.734 3.126 7.64 3.606 11.773.535 4.605.563 9.195-.839 13.69-1.12 3.597-3.44 6.31-6.4 8.557-.25.19-.513.427-.646.701-2.532 5.217-6.333 9.33-11.135 12.558-4.825 3.244-10.148 5.255-15.899 6.153-8.465 1.321-16.64.354-24.433-3.237-6.819-3.14-12.244-7.827-15.844-14.458-.148-.273-.403-.507-.652-.704-2.412-1.92-4.587-4.03-5.904-6.88a22.906 22.906 0 0 1-2.087-8.17c-.304-4.627-.03-9.222 1.296-13.685.617-2.074 1.551-4.055 2.327-6.084.09-.232.155-.51.115-.748-.93-5.554-.635-11.01 1.374-16.313.42-1.112 1.062-2.143 1.618-3.244Zm8.588 3.112c.284-.049.568-.102.854-.145 1.754-.262 3.415.146 5.023.767 2.364.913 4.698 1.902 7.058 2.825 1.327.518 2.686.943 4.143.919 2.412-.04 4.005-2.777 2.78-4.848-.906-1.534-2.266-2.629-3.777-3.548-.017-.01-.061.026-.114.05 1.185 1.1 1.922 2.427 2.138 4.025.218 1.613-1.032 2.878-2.643 2.637a6.97 6.97 0 0 1-1.45-.37c-1.65-.63-3.277-1.323-4.933-1.938-2.229-.827-4.5-1.517-6.923-1.305-.809.07-1.674.107-2.253.835l-.1.157c.066-.019.132-.04.197-.061Zm-8.793 41.631c-.205-.695-.454-1.38-.607-2.087-.98-4.503-.719-9.01.047-13.507.715-4.19 1.92-8.248 3.399-12.23.093-.25.057-.547.08-.821-.193.052-.25.127-.296.207-3.05 5.365-5.163 11.034-5.698 17.218-.292 3.379-.114 6.731.744 10.014.777 2.968 2.093 5.667 4.489 7.726 1.144.983 2.453 1.646 3.974 1.9-.26-.337-.58-.604-.863-.902-.523-.552-1.111-1.07-1.515-1.7-.481-.75-.846-1.585-1.173-2.418-.963-2.454-1.475-4.98-.994-7.622.16-.875.364-1.743.576-2.749-.27.324-.479.544-.653.787-1.313 1.837-1.756 3.873-1.402 6.09l-.108.094ZM49.322 20.14l-.206-.098-.033.057.148.13c.5.319.968.715 1.508.942a80.905 80.905 0 0 0 4.453 1.726c1.007.356 1.604.998 1.65 2.043.069 1.585.095 3.172.089 4.758a10.251 10.251 0 0 1-.217 2.046c-.171.824-.662 1.06-1.465.764a3.045 3.045 0 0 1-.89-.516 21.621 21.621 0 0 1-1.656-1.52c-3.239-3.367-7.26-4.84-11.886-4.872-.11-.001-.22.04-.332.063 2.215.385 4.364.891 6.38 1.846 2.29 1.083 4.27 2.514 5.492 4.807.2.373.501.733.841.984 1.889 1.39 4.773 1.291 6.567-.196.157-.13.303-.303.383-.486.594-1.35 1.536-2.424 2.679-3.332 2.394-1.903 5.186-2.878 8.17-3.39.304-.052.61-.09.916-.13.306-.038.611-.082.919-.101.284-.018.57-.004.855-.004-1.723.392-3.39.895-4.97 1.65-2.175 1.04-4.17 2.325-5.62 4.298-.543.737-.781 1.523-.594 2.473.39 1.965 1.538 2.992 3.547 2.817 1.08-.095 2.174-.36 3.19-.735 2.199-.81 4.347-1.749 6.523-2.616 1.795-.715 3.615-1.35 5.598-1.21 1.801.126 3.222.92 4.202 2.495-.2.03-.401.027-.548-.063-1.652-1.019-3.29-.834-4.93.004.78 3.83.181 5-3.668 7.141 3.74 3.059 6.024 6.93 6.818 11.679.65 3.889-.717 12.332-2.242 13.304 1.042-3.58 1.556-7.196.997-10.908-.678-4.499-2.852-8.066-6.726-10.555-3.362-2.16-7.136-3.172-11.062-3.521-4.627-.412-9.273-.702-13.924-.382-3.129.215-6.189.797-9.112 1.955-5.77 2.283-9.35 6.362-10.37 12.516-.098.594-.157 1.195-.234 1.792l.143.042c.8-3.49 2.255-6.639 4.815-9.204 2.404-2.409 6.826-4.526 9.41-4.517-3.1 2.341-5.572 5.111-6.437 9.007a1.25 1.25 0 0 0 .377-.44c.851-1.535 1.862-2.965 3.148-4.16 5.881-5.474 12.782-7.158 20.52-5.058 6.023 1.635 10.313 5.395 12.774 11.13.1.233.168.48.242.696-.49.33-.552-.033-.68-.27-2.233-4.147-5.715-6.653-10.319-7.73l-.681 2.156h-2.99c-.271-.578-.463-1.147-.786-1.63-.316-.471-.97-.491-1.15-.068-.37.873-.827 1.763-.935 2.681-.24 2.047-.266 4.118-.417 6.177-.096 1.304.761 2.397 2.08 2.585 1.603.227 3.206.452 4.802.716.432.071.695-.024.976-.36 2.016-2.414 3.557-5.08 4.534-8.13.493.826 1.036 1.617 1.459 2.465 1.362 2.736 1.528 5.526.235 8.342-.156.341-.09.508.219.736 3.634 2.703 5.708 6.283 6.154 10.784.153 1.54.314 3.083.587 4.604.365 2.027 1.991 2.922 3.969 2.267.435-.144.86-.336 1.265-.55 2.565-1.354 3.794-3.725 4.698-6.278.79-2.23.818-4.57.646-6.908.33-.2.506-.108.58.245.267 1.287.663 2.56.79 3.86.43 4.402-.711 8.22-4.448 10.99-.322.238-.603.532-.904.8l-.072.02c.012.004.028.015.033.011.013-.01.021-.028.031-.043 1.365-.085 2.574-.614 3.694-1.34 2.248-1.46 3.67-3.574 4.642-5.998 1.765-4.407 2.018-8.996 1.47-13.644-.56-4.748-2.032-9.24-4.234-13.48-1.236-2.377-2.649-4.665-3.981-6.994 1.734 1.573 3.302 3.307 4.765 5.178.139-1.206.262-2.387.256-3.568a26.398 26.398 0 0 0-.233-3.543C90.654 32.617 87.39 27.172 82 22.96c-.787-.616-1.589-1.213-2.384-1.818l.054-.089.904.153c.28-1.187.288-2.245-.7-3.097-.91-.786-1.835-.582-2.784-.096-.194.1-.413.151-.75.271.842-1.414 1.788-2.427 3.467-2.444l-.008-.143-2.387-1.315c.553-.384 1.126-.262 1.683-.123 1.452.36 2.73 1.104 3.814 2.079 2.084 1.873 4.07 3.855 6.115 5.772.853.8 1.737 1.569 2.641 2.311.269.22.644.35.99.42.144.028.375-.19.498-.348.045-.058-.102-.265-.15-.375.115-.155.32-.316.362-.51.501-2.39.806-4.787.307-7.221-.488-2.387-2.779-3.748-5.275-3.858.086.142.166.271.244.402.83 1.399 1.66 2.8 1.98 4.422.03.152-.076.33-.118.496-.137-.102-.355-.177-.398-.308-.453-1.39-1.437-2.425-2.347-3.507-2.121-2.523-4.887-3.375-8.083-2.919-2.663.38-4.287 2.09-5.335 4.424-.301.671-.533 1.373-.798 2.063-.084-.009-.152.005-.193-.023a8.899 8.899 0 0 1-.515-.366c-2.865-2.182-6.068-3.186-9.647-2.43-2.082.44-4.102 1.157-6.155 1.73-.256.072-.565.108-.813.037-1.551-.448-3.09-.934-4.637-1.4-2.69-.81-5.353-.783-7.979.27-.168.069-.322.174-.482.262l.06.158c.241-.029.481-.063.723-.086.69-.066 1.38-.163 2.072-.184 3.393-.103 6.604.717 9.726 1.944.244.096.441.307.66.464-.236.197-.443.49-.714.573-.789.24-1.594.458-2.41.565-1.35.178-2.713.262-4.071.386 5.81.916 11.602.814 17.395-.264-.34.264-.686.505-1.06.69-2.714 1.358-5.663 1.538-8.613 1.57-2.596.026-5.146-.366-7.57-1.36Zm7.351 54.099c-.066-.076-.102-.1-.112-.132a3.602 3.602 0 0 1-.086-.332c-.326-1.502-1.04-2.753-2.222-3.789-.594-.52-1.116-.797-1.891-.55-.493.158-1.015.221-1.515.36-.494.137-.976.315-1.464.475 2.624.242 4.469 1.54 5.69 3.77.76 1.391 1.262 2.89 1.398 4.453.206 2.355.31 4.722.364 7.087.044 1.884-.05 3.772-.084 5.669.026 0 .088.015.139-.002 4.199-1.408 8.336-2.958 12.133-5.272 1.22-.743 2.37-1.582 3.254-2.726.672-.867.933-1.8.621-2.898-.46-1.624-1.174-3.112-2.26-4.404-.662-.786-1.406-1.504-2.205-2.349.25-.049.455-.147.637-.116 1.62.276 3.092.909 4.437 1.844.955.663 1.234.553 1.55-.583.046-.164.113-.341.093-.503-.099-.805-.173-1.618-.345-2.41-.911-4.21-3.587-6.911-7.523-8.477-3.54-1.407-7.248-1.911-11.039-1.834-3.272.067-6.492.49-9.588 1.604-2.397.863-4.522 2.13-6.116 4.157-.123.156-.197.35-.336.605.17-.043.213-.043.241-.064a4.65 4.65 0 0 0 .266-.219c4.04-3.56 8.938-4.705 14.157-4.894.536-.02 1.228.132 1.595.472.675.625.607 1.53.34 2.365-.237.744-.815 1.073-1.575 1.139a8.76 8.76 0 0 0-.858.126c-1.424.27-2.816.637-4.084 1.365-.7.403-1.29.913-1.731 1.72.483-.284.842-.542 1.237-.723 3.68-1.681 7.481-1.947 11.382-.904 1.387.37 2.718.87 3.761 1.905.21.208.362.471.591.777-.973-.387-1.793-.776-2.65-1.037-.88-.268-1.796-.423-2.702-.596a.78.78 0 0 0-.563.133c-1.38 1.103-2.508 2.379-2.78 4.207-.028.184-.098.365-.157.581ZM27.008 86.525c8.182 10.412 18.723 16.024 32.176 15.245 11.797-.682 20.914-6.375 27.841-15.693-2.349.578-4.68.499-7.028.128-.347-.055-.835.047-1.094.267-6.76 5.747-14.684 8.2-23.471 8.037-2.215-.04-4.448-.451-6.622-.922-5.227-1.133-9.89-3.458-13.986-6.89-.182-.152-.512-.208-.763-.19-.901.069-1.799.276-2.696.268-1.42-.012-2.84-.156-4.357-.25Zm10.928-72.226a8.178 8.178 0 0 0-5.027-.147c-2.67.749-4.62 2.467-6.201 4.639-.677.93-1.256 1.93-1.879 2.898l.199.183c.26-.189.552-.346.773-.571 2.166-2.206 4.56-4.123 7.289-5.604.828-.45 1.7-.819 2.69-1.29l-1.621 1.721c1.203.02 1.724.91 2.403 1.71-.222-.045-.373-.07-.521-.107-2.099-.524-3.64.943-3.217 3.065.19.948.168 1.003-.668 1.532-.21.133-.433.25-.647.378-3.442 2.08-5.997 4.94-7.647 8.588-1.297 2.866-1.99 5.894-2.347 8.997-.228 1.978-.212 3.964.146 6.05.033-.207.052-.3.063-.393.437-3.518 1.243-6.946 2.545-10.252 2.202-5.59 5.51-10.351 10.53-13.837.142-.099.236-.322.277-.503.257-1.157 1.105-1.785 2.294-1.675.169.015.338.028.534.044.47-1.6-.204-2.801-1.276-3.87l1.308-1.556ZM30.82 65.587c-.042-.162-.073-.328-.13-.484-.902-2.521-1.408-5.116-1.444-7.792-.064-4.898 1.427-9.24 4.742-12.924.717-.796 1.428-1.598 2.077-2.324-1.35-.377-2.654-1.16-3.343-2.7-.666-1.485-.575-3.005-.12-4.528a5.395 5.395 0 0 0-3.312-.658c-.55.062-.988.253-1.022.9 1.71-.042 1.882-.015 2.575.398-.345 2.872-.063 5.505 2.789 7.154-7.67 7.134-6.449 16.902-2.812 22.958Zm11.728-12.262-.204-.083c-.506.756-1.075 1.479-1.507 2.275-1.113 2.056-1.482 4.28-1.285 6.593.048.569-.08.94-.55 1.353-.919.804-1.798 1.687-2.529 2.659-1.976 2.63-2.836 5.64-2.8 8.909.01 1.037-.028 2.067-.473 3.03-.447.97-1.17 1.524-2.3 1.504-1.035-.02-1.914-.433-2.7-1.03-.692-.524-1.313-1.14-1.965-1.715a.69.69 0 0 0 .105.485c1.085 1.636 2.55 2.8 4.441 3.388 1.844.573 3.431-.296 3.784-2.172.328-1.742.47-3.518.713-5.276.393-2.834 1.297-5.467 3.283-7.616.972-1.051 2.047-2.01 3.127-3.063-1.45-3.142-.629-6.218.86-9.241Zm-.244-3.043c.245-.043.385-.057.52-.093 1.298-.34 2.597-.682 3.893-1.03.491-.132.85-.001 1.237.352.486.444 1.045.855 1.643 1.12 1.047.466 2.097.312 3.102-.245.812-.45 1.265-.273 1.32.518.097 1.408.134 2.82.197 4.245-.733-.112-1.081.093-1.144.612-.061.508.253.79.953.86.023.837-.455 1.345-1.205 1.518-.969.223-1.965.34-2.953.466-.2.026-.441-.065-.626-.168-1.524-.851-2.874-1.925-4.084-3.175-.118-.121-.258-.221-.388-.332.088.312.21.565.368.793.927 1.336 1.853 2.673 2.809 3.99.11.152.418.266.613.24 1.603-.22 3.198-.5 4.8-.719 1.627-.222 2.427-1.201 2.28-2.83-.123-1.37-.217-2.743-.32-4.116-.11-1.448-.204-2.898-.85-4.242-.316-.66-.891-.764-1.332-.173a3.085 3.085 0 0 0-.539 1.183c-.088.424-.27.514-.66.494a15.03 15.03 0 0 0-1.796.003c-.41.03-.586-.142-.713-.49-.214-.587-.462-1.163-.7-1.752-2.347.556-4.456 1.47-6.425 2.971ZM21.087 24.381c-2.344-2.957-1.265-8.116 1.813-9.854-.153.835-.345 1.648-.441 2.473-.097.822-.098 1.655-.144 2.516.124-.04.17-.04.19-.062.1-.117.19-.24.287-.36 1.303-1.623 2.756-3.097 4.441-4.331 1.74-1.275 3.617-2.246 5.816-2.479 1.285-.136 2.53.038 3.803.44-.742-.798-1.782-1.373-3.24-1.561-2.75-.354-5.333.035-7.343 2.157-.895.944-1.681 1.988-2.516 2.987-.12.143-.234.29-.35.436l-.18-.104 1.568-4.143c-2.573.332-4.537 1.435-5.386 4.092-.648 2.024-.687 4.011.019 6.007.268.764.652 1.464 1.663 1.786Zm23.479 49.688-.02.196c-.237.192-.479.38-.71.578-1.706 1.466-2.851 3.271-3.465 5.433-.342 1.206-.14 2.287.726 3.124 1 .965 2.067 1.902 3.239 2.644 1.544.978 3.218 1.755 4.837 2.618.057-.073.115-.146.171-.22-.112-.125-.205-.28-.341-.37-.942-.63-1.922-1.206-2.835-1.873-1.402-1.022-2.718-2.143-3.62-3.658-.455-.762-.577-1.559-.349-2.42.608-2.295 2.01-4.076 3.8-5.547 1.23-1.012 2.608-1.852 3.973-2.806-1.007.104-2.015.165-3.008.319-2.053.317-4.006.929-5.733 2.12-.207.143-.363.36-.556.553 1.16-.283 2.232-.557 3.312-.797.176-.038.385.068.578.106Zm6.232-35.28h11.324c-.376-.356-.64-.765-1.012-.922-.589-.248-1.246-.431-1.882-.457a71.95 71.95 0 0 0-4.97-.027c-.779.023-1.565.17-2.324.357-.574.141-1.005.533-1.136 1.049Zm22.514 2.155c2.01-.197 3.59-2.496 3.197-4.843l-2.396.74c.597 1.54.468 2.896-.8 4.103ZM36.111 36.14c-.22 2.49 1.357 4.873 2.957 4.772-.267-.606-.687-1.23-.8-1.906-.114-.681.076-1.412.138-2.17l-2.295-.696Zm34.038 20.995-2.763 3.772 2.058.795c.761-1.475 1.035-2.972.705-4.567Zm-24.284 3.803L43.1 57.173c-.328 1.626-.05 3.12.715 4.566l2.049-.802Zm5.247-4.308c.012-.414-.29-.755-.685-.768-.496-.016-.705.303-.718.717-.014.418.207.737.67.782.372.037.721-.328.733-.73Zm-1.623-3.724c.457-.062.661-.329.65-.778-.012-.451-.23-.725-.699-.72-.483.005-.677.33-.665.755.013.428.243.708.714.742Z" fill="#8D2634"/><path d="M85.238 82.772c.3-.269.581-.562.903-.8 3.737-2.77 4.879-6.588 4.448-10.99-.127-1.3-.523-2.573-.79-3.86-.074-.353-.25-.445-.58-.245.172 2.338.144 4.678-.646 6.908-.904 2.553-2.133 4.924-4.698 6.278-.406.214-.83.406-1.265.55-1.978.656-3.603-.24-3.969-2.267-.273-1.52-.434-3.065-.587-4.604-.446-4.501-2.52-8.082-6.154-10.784-.308-.228-.375-.395-.219-.736 1.294-2.816 1.127-5.607-.236-8.342-.422-.848-.965-1.639-1.458-2.466-.977 3.05-2.518 5.717-4.534 8.13-.28.337-.543.431-.976.36-1.597-.262-3.199-.488-4.801-.715-1.32-.188-2.177-1.282-2.081-2.585.15-2.058.177-4.13.417-6.177.107-.919.565-1.808.936-2.681.179-.423.833-.403 1.15.069.322.482.514 1.05.785 1.629h2.99l.681-2.157c4.604 1.078 8.086 3.584 10.32 7.73.127.238.19.6.68.27-.076-.216-.143-.462-.243-.694-2.462-5.736-6.75-9.496-12.774-11.131-7.738-2.1-14.64-.416-20.52 5.057-1.286 1.197-2.296 2.627-3.148 4.16a1.25 1.25 0 0 1-.377.441c.864-3.896 3.337-6.667 6.438-9.007-2.585-.01-7.008 2.108-9.41 4.517-2.56 2.565-4.015 5.715-4.816 9.204l-.143-.042c.077-.597.136-1.198.234-1.792 1.019-6.155 4.6-10.233 10.37-12.517 2.924-1.157 5.983-1.739 9.112-1.954 4.651-.32 9.297-.03 13.924.382 3.926.349 7.7 1.362 11.062 3.521 3.874 2.489 6.048 6.057 6.726 10.555.56 3.712.045 7.329-.997 10.908 1.525-.97 2.892-9.415 2.242-13.304-.795-4.75-3.078-8.62-6.818-11.679 3.85-2.14 4.449-3.31 3.668-7.14 1.641-.84 3.278-1.024 4.93-.005.147.09.349.093.548.063-.98-1.575-2.4-2.369-4.202-2.495-1.983-.139-3.803.495-5.598 1.21-2.176.867-4.324 1.806-6.522 2.616a12.482 12.482 0 0 1-3.19.735c-2.01.175-3.16-.852-3.548-2.817-.188-.95.05-1.736.593-2.473 1.451-1.973 3.446-3.258 5.621-4.298 1.58-.756 3.247-1.258 4.97-1.65-.285 0-.571-.014-.855.004-.308.018-.613.063-.92.102-.305.039-.611.077-.915.13-2.984.512-5.776 1.486-8.17 3.39-1.142.907-2.085 1.981-2.678 3.33-.081.184-.227.357-.384.487-1.794 1.487-4.679 1.586-6.567.196-.34-.25-.642-.61-.84-.984-1.223-2.293-3.204-3.724-5.493-4.807-2.016-.954-4.165-1.46-6.38-1.846.111-.023.221-.064.332-.064 4.625.033 8.647 1.505 11.886 4.873a21.49 21.49 0 0 0 1.655 1.52c.258.218.572.398.89.516.804.297 1.295.06 1.466-.764.14-.669.214-1.363.217-2.046a101.72 101.72 0 0 0-.09-4.758c-.045-1.046-.643-1.687-1.65-2.043a80.905 80.905 0 0 1-4.452-1.726c-.54-.227-1.008-.623-1.508-.942l.09-.09c2.425.994 4.975 1.386 7.568 1.358 2.95-.03 5.9-.211 8.614-1.569a6.492 6.492 0 0 0 1.06-.69c-5.793 1.077-11.585 1.18-17.395.264 1.358-.124 2.721-.209 4.072-.386.814-.108 1.62-.326 2.408-.565.272-.082.479-.376.715-.574-.22-.157-.417-.367-.66-.463-3.123-1.228-6.334-2.048-9.726-1.945-.692.021-1.382.119-2.072.185-.242.023-.482.057-.724.086-.02-.053-.039-.106-.06-.158.161-.088.314-.194.483-.262 2.626-1.054 5.29-1.08 7.979-.27 1.546.465 3.086.952 4.637 1.4.248.071.557.036.813-.037 2.053-.574 4.073-1.291 6.154-1.73 3.58-.757 6.783.248 9.648 2.43.167.127.338.25.515.366.041.027.109.014.193.022.265-.69.496-1.391.798-2.063 1.048-2.332 2.672-4.043 5.335-4.423 3.195-.457 5.962.395 8.083 2.918.91 1.083 1.894 2.118 2.347 3.507.042.132.26.208.397.309.043-.166.15-.345.12-.497-.322-1.62-1.151-3.022-1.982-4.422-.077-.13-.156-.26-.243-.401 2.496.11 4.787 1.47 5.275 3.858.498 2.434.194 4.831-.307 7.22-.041.195-.247.355-.362.51.047.111.195.318.15.376-.124.158-.354.375-.498.347-.347-.069-.721-.2-.99-.42a52.722 52.722 0 0 1-2.642-2.31c-2.044-1.918-4.03-3.899-6.114-5.773-1.085-.975-2.363-1.717-3.815-2.079-.556-.139-1.129-.26-1.682.124l2.387 1.315.007.142c-1.679.018-2.625 1.031-3.467 2.445.338-.12.557-.172.75-.271.95-.487 1.874-.69 2.785.095.987.854.979 1.912.7 3.097l-.904-.152-.054.088c.794.606 1.597 1.203 2.383 1.818 5.39 4.213 8.653 9.657 9.607 16.414.165 1.17.227 2.36.233 3.543.007 1.18-.117 2.362-.255 3.568-1.463-1.872-3.032-3.606-4.766-5.179 1.333 2.33 2.746 4.617 3.981 6.995 2.202 4.24 3.674 8.732 4.234 13.48.55 4.647.296 9.237-1.47 13.643-.97 2.424-2.393 4.539-4.641 5.998-1.121.727-2.33 1.255-3.694 1.34l.01.014ZM63.204 52.05c.012.448.204.766.628.79.432.022.65-.27.655-.7.005-.446-.28-.767-.678-.752-.447.018-.567.32-.605.662Zm-1.037 4.37c-.003.53.298.868.686.843.421-.029.594-.296.603-.687.01-.443-.192-.764-.649-.776-.44-.012-.617.31-.64.62Zm-2.06-.419c-.054-.614-.264-.906-.699-.89-.393.013-.616.271-.616.685.001.442.245.736.662.67.267-.043.49-.342.654-.465Z" fill="#FDFCFC"/><path d="M56.672 74.238c.059-.216.129-.397.157-.583.272-1.828 1.398-3.103 2.779-4.207a.777.777 0 0 1 .563-.133c.906.172 1.822.328 2.702.596.858.261 1.677.65 2.65 1.037-.23-.306-.381-.57-.59-.777-1.044-1.036-2.375-1.534-3.761-1.905-3.9-1.042-7.702-.777-11.382.904-.396.18-.755.439-1.238.724.441-.808 1.03-1.318 1.732-1.72 1.267-.73 2.66-1.096 4.084-1.366.283-.054.57-.102.857-.126.76-.066 1.34-.395 1.576-1.139.267-.835.334-1.74-.34-2.365-.368-.34-1.06-.492-1.596-.472-5.219.19-10.117 1.335-14.157 4.894-.086.076-.173.15-.265.22-.029.02-.073.02-.241.063.138-.254.212-.448.336-.605 1.593-2.028 3.718-3.294 6.115-4.157 3.096-1.114 6.317-1.537 9.589-1.604 3.791-.077 7.5.426 11.038 1.834 3.937 1.566 6.612 4.268 7.523 8.478.172.791.247 1.604.345 2.41.02.16-.046.338-.092.502-.316 1.136-.596 1.246-1.55.583-1.346-.935-2.818-1.568-4.438-1.844-.182-.031-.387.067-.637.116.799.846 1.544 1.563 2.205 2.349 1.087 1.292 1.8 2.78 2.26 4.404.311 1.099.05 2.03-.62 2.898-.884 1.143-2.035 1.982-3.255 2.726-3.796 2.314-7.934 3.864-12.133 5.272-.05.017-.113.002-.138.002.033-1.897.127-3.785.084-5.669-.055-2.364-.159-4.731-.364-7.087-.137-1.563-.638-3.062-1.4-4.453-1.22-2.23-3.065-3.528-5.688-3.77.487-.16.969-.338 1.463-.475.5-.139 1.023-.201 1.515-.36.776-.248 1.298.03 1.891.55 1.183 1.036 1.896 2.287 2.222 3.789.025.112.053.223.086.331.01.035.047.06.113.135Z" fill="#FEFCFC"/><path d="M27.008 86.524c1.518.095 2.937.238 4.357.25.897.008 1.795-.199 2.696-.267.25-.019.58.037.763.19 4.095 3.431 8.759 5.757 13.986 6.889 2.174.471 4.407.882 6.622.923 8.787.162 16.711-2.291 23.47-8.037.259-.22.748-.322 1.095-.267 2.348.37 4.68.45 7.028-.129-6.927 9.32-16.045 15.012-27.841 15.693-13.453.779-23.994-4.833-32.176-15.245Zm32.125 11.193c.974.974 1.838 1.818 2.678 2.686.313.322.525.292.783-.05.3-.398.635-.77.951-1.156.595-.727 1.188-1.455 1.813-2.221 0 .645.022 1.198-.01 1.747-.016.276.062.63-.367.747-.066.018-.127.288-.083.4.04.1.248.218.349.194a31.699 31.699 0 0 0 2.443-.682c.119-.04.194-.384.184-.582-.011-.23-.209-.457-.203-.681.028-1.05.086-2.1.163-3.146.016-.22.17-.425.238-.645.048-.152.12-.348.062-.466-.042-.084-.296-.127-.432-.094-.728.179-1.446.394-2.171.582-.479.125-1.106.07-.949.871.008.039-.057.095-.093.138l-2.267 2.713c-.396-.44-.728-.837-1.087-1.207-.437-.448-1.08-.761-.936-1.474-1.159 0-2.273-.018-3.385.01-.353.01-.416.372-.217.533.341.276.256.596.26.918.008.994.014 1.99-.009 2.985-.004.191-.15.376-.216.57-.046.137-.124.307-.079.42.04.102.23.204.352.203a36.816 36.816 0 0 0 2.253-.085.57.57 0 0 0 .405-.286c.038-.087-.13-.267-.212-.401-.068-.111-.204-.215-.208-.325-.02-.684-.01-1.368-.01-2.216ZM47.87 95.23c-.866.894-1.798 1.86-2.74 2.817-.1.103-.256.148-.376.233-.12.087-.33.2-.322.287.014.152.131.378.26.424.685.248 1.384.465 2.086.663.382.107.487-.118.419-.453-.098-.48.066-.648.54-.55 1.073.22 2.146.443 3.22.66.419.083.755.494.693.917-.054.363.128.487.44.518.881.087 1.762.179 2.644.244.116.008.34-.123.344-.199a.69.69 0 0 0-.162-.476c-.311-.325-.7-.582-.989-.923-.916-1.084-1.8-2.194-2.698-3.292-.178-.218-.363-.391-.18-.738.145-.273-.077-.427-.379-.481-.794-.145-1.58-.331-2.375-.47-.177-.032-.507.02-.538.108-.055.17.052.396.113.711Zm22.7-1.483c-.047.735-.117 1.571-.149 2.41-.039 1.047.543 1.597 1.554 1.336 2.532-.652 4.686-1.946 6.264-4.042.374-.496.548-1.17.703-1.789.134-.53.075-1.106.163-1.65.094-.58-.093-1.23.417-1.729.076-.074-.04-.338-.066-.514-.136.032-.297.028-.402.102-.678.473-1.345.962-2.013 1.448-.325.236-.432.478-.047.771.08.061.127.22.12.331-.043.744-.053 1.497-.185 2.227-.07.387-.272.856-.572 1.078-.918.68-1.907 1.266-2.883 1.865-.18.11-.43.108-.771.184.082-1.134.154-2.172.24-3.21.006-.073.142-.128.169-.208.059-.18.087-.37.128-.557-.175-.003-.373-.061-.521-.001-.693.283-1.38.583-2.053.911-.196.096-.42.28-.473.467-.035.126.208.33.376.57Zm-33.254-2.943c-.7.621-1.415 1.26-2.138 1.892-.092.08-.226.115-.34.171-.123.06-.336.11-.347.185-.02.148.025.373.13.456.603.476 1.227.925 1.856 1.366.092.065.314.094.36.04.081-.093.086-.262.098-.401.013-.143-.004-.288-.01-.432.152.054.315.088.453.165.887.5 1.765 1.013 2.651 1.511.548.308.901.715.892 1.385-.002.145.15.362.287.425.8.372 1.614.719 2.436 1.043.133.053.328-.047.495-.076-.045-.17-.046-.372-.143-.506-.187-.26-.466-.456-.639-.722-.989-1.526-1.96-3.062-2.932-4.599-.185-.294-.45-.566-.262-.98.037-.082-.077-.306-.181-.367-.81-.479-1.628-.944-2.461-1.382-.07-.036-.357.138-.377.245-.029.156.093.34.172.581ZM37.936 14.299l-1.307 1.555c1.07 1.068 1.745 2.27 1.276 3.87-.196-.017-.365-.029-.534-.044-1.19-.11-2.038.518-2.295 1.675-.04.182-.134.404-.277.503-5.02 3.485-8.328 8.248-10.53 13.837-1.301 3.306-2.108 6.734-2.544 10.251-.012.094-.03.187-.064.394-.357-2.086-.373-4.072-.146-6.05.357-3.104 1.05-6.132 2.348-8.998 1.65-3.647 4.204-6.507 7.647-8.587.213-.129.436-.246.647-.379.835-.528.857-.583.668-1.53-.423-2.122 1.117-3.59 3.217-3.066.147.037.298.063.521.108-.68-.8-1.2-1.691-2.404-1.711l1.62-1.721c-.988.47-1.86.84-2.689 1.29-2.729 1.48-5.122 3.397-7.288 5.603-.221.226-.514.383-.773.571l-.2-.183c.624-.968 1.203-1.968 1.88-2.898 1.58-2.172 3.531-3.89 6.2-4.639a8.177 8.177 0 0 1 5.027.149Z" fill="#FBF8F8"/><path d="M21.286 74.122c-.354-2.215.09-4.252 1.402-6.09.174-.243.382-.462.653-.786-.212 1.006-.416 1.873-.576 2.749-.481 2.642.03 5.167.994 7.622.327.832.692 1.667 1.173 2.418.404.63.992 1.148 1.515 1.7.284.298.602.565.863.902-1.521-.254-2.83-.917-3.974-1.9-2.396-2.06-3.712-4.759-4.488-7.726-.86-3.283-1.037-6.635-.745-10.014.534-6.184 2.648-11.853 5.698-17.218.046-.08.103-.155.297-.208-.024.275.011.572-.081.822-1.48 3.983-2.685 8.04-3.398 12.23-.766 4.497-1.028 9.003-.048 13.507.154.706.403 1.392.607 2.087l.124.26.08-.024-.096-.331Z" fill="#FBF7F7"/><path d="M30.82 65.587c-3.638-6.057-4.858-15.825 2.812-22.959-2.852-1.648-3.134-4.282-2.788-7.154-.694-.413-.866-.44-2.576-.397.035-.648.472-.839 1.022-.9a5.395 5.395 0 0 1 3.313.658c-.456 1.522-.547 3.042.118 4.528.69 1.54 1.993 2.322 3.344 2.7-.648.725-1.36 1.527-2.077 2.324-3.315 3.683-4.806 8.024-4.742 12.923.036 2.677.543 5.271 1.445 7.792.056.158.087.323.13.484Z" fill="#FAF7F6"/><path d="M42.548 53.325c-1.489 3.023-2.31 6.098-.858 9.241-1.08 1.052-2.155 2.011-3.128 3.063-1.986 2.149-2.89 4.782-3.283 7.616-.243 1.758-.385 3.534-.712 5.276-.353 1.875-1.94 2.745-3.785 2.172-1.89-.587-3.355-1.752-4.441-3.388a.685.685 0 0 1-.105-.485c.652.576 1.273 1.191 1.965 1.716.786.596 1.665 1.01 2.7 1.028 1.131.02 1.853-.533 2.3-1.503.444-.963.484-1.993.472-3.03-.035-3.269.826-6.279 2.802-8.91.73-.971 1.61-1.854 2.528-2.658.47-.414.599-.784.55-1.353-.196-2.314.173-4.537 1.286-6.594.43-.795 1-1.518 1.506-2.274l.203.083Z" fill="#FAF6F5"/><path d="M42.304 50.282c1.969-1.5 4.078-2.415 6.426-2.971.237.589.485 1.164.7 1.751.127.349.302.52.712.49a14.885 14.885 0 0 1 1.795-.002c.39.02.572-.07.661-.495.087-.415.284-.84.539-1.182.441-.59 1.016-.487 1.333.172.645 1.344.739 2.794.849 4.242.104 1.373.198 2.746.32 4.117.147 1.63-.653 2.608-2.28 2.83-1.602.219-3.197.498-4.8.718-.195.026-.503-.087-.613-.24-.956-1.315-1.882-2.653-2.809-3.989a2.584 2.584 0 0 1-.368-.793c.13.11.27.21.388.332 1.21 1.25 2.56 2.324 4.084 3.174.185.104.426.194.626.169.989-.127 1.984-.243 2.953-.466.75-.173 1.228-.681 1.205-1.518-.7-.07-1.014-.353-.953-.86.062-.52.411-.724 1.144-.612-.063-1.425-.1-2.837-.197-4.245-.055-.791-.508-.968-1.32-.519-1.005.557-2.055.712-3.102.247-.6-.267-1.157-.678-1.643-1.12-.388-.355-.746-.485-1.237-.353-1.296.348-2.595.69-3.893 1.03-.134.035-.275.05-.52.093ZM21.087 24.38c-1.011-.322-1.395-1.022-1.664-1.785-.706-1.996-.666-3.983-.019-6.008.85-2.657 2.813-3.76 5.387-4.092l-1.57 4.144.18.103c.118-.146.232-.293.351-.436.835-1 1.622-2.043 2.516-2.987 2.01-2.121 4.594-2.51 7.344-2.157 1.457.188 2.497.763 3.24 1.562-1.274-.402-2.52-.577-3.804-.44-2.199.232-4.074 1.204-5.815 2.478-1.686 1.234-3.139 2.708-4.442 4.331-.096.12-.187.244-.287.36-.02.023-.066.023-.19.062.045-.86.047-1.694.144-2.515.097-.825.289-1.638.441-2.474-3.076 1.739-4.155 6.898-1.812 9.854Z" fill="#FAF6F6"/><path d="M29.875 32.49c.58-.727 1.444-.764 2.252-.834 2.424-.211 4.694.478 6.923 1.305 1.656.615 3.284 1.307 4.934 1.938a6.97 6.97 0 0 0 1.45.37c1.61.241 2.86-1.024 2.643-2.637-.216-1.598-.954-2.924-2.139-4.024.054-.025.098-.06.114-.05 1.512.919 2.871 2.013 3.778 3.547 1.224 2.072-.368 4.809-2.78 4.848-1.458.024-2.816-.4-4.143-.92-2.36-.922-4.695-1.91-7.059-2.823-1.608-.621-3.269-1.03-5.023-.768-.285.043-.569.097-.853.145a6.258 6.258 0 0 0-.097-.096Z" fill="#FBF7F7"/><path d="M44.566 74.068c-.194-.038-.403-.144-.58-.104-1.08.24-2.153.514-3.312.797.193-.195.35-.41.557-.552 1.726-1.193 3.68-1.804 5.732-2.121.993-.154 2.001-.215 3.009-.32-1.366.955-2.743 1.794-3.974 2.807-1.789 1.47-3.192 3.252-3.8 5.546-.227.862-.105 1.66.349 2.42.903 1.516 2.219 2.637 3.62 3.659.914.666 1.893 1.244 2.835 1.872.137.091.229.247.342.371l-.172.22c-1.618-.863-3.293-1.64-4.837-2.618-1.172-.743-2.24-1.679-3.239-2.644-.866-.837-1.068-1.919-.726-3.124.615-2.161 1.76-3.967 3.465-5.433.231-.2.473-.386.71-.578.008-.067.014-.132.02-.198Z" fill="#FAF6F6"/><path d="M50.798 38.788c.131-.515.562-.907 1.137-1.049.759-.186 1.545-.335 2.323-.356a71.952 71.952 0 0 1 4.971.027c.636.026 1.293.209 1.882.456.372.157.637.566 1.012.922H50.798Z" fill="#FBF7F7"/><path d="M73.312 40.944c1.27-1.208 1.398-2.563.801-4.104l2.396-.74c.393 2.347-1.188 4.647-3.197 4.844Z" fill="#F9F5F5"/><path d="m36.11 36.139 2.295.695c-.061.76-.252 1.49-.138 2.17.113.676.533 1.301.8 1.907-1.599.101-3.177-2.282-2.956-4.772Z" fill="#FBF7F7"/><path d="M70.15 57.134c.33 1.595.056 3.093-.706 4.567l-2.058-.795 2.763-3.772Z" fill="#FAF6F6"/><path d="m45.865 60.936-2.05.803c-.764-1.446-1.041-2.94-.714-4.566l2.764 3.763Z" fill="#F9F4F4"/><path d="M51.112 56.629c-.012.402-.361.767-.732.731-.464-.046-.684-.365-.67-.782.012-.414.221-.733.717-.717.395.012.697.354.685.768Z" fill="#F5EEEE"/><path d="M49.49 52.904c-.472-.035-.702-.315-.715-.742-.012-.426.182-.75.665-.756.469-.005.687.27.698.721.012.449-.192.716-.649.777Z" fill="#F8F2F2"/><path d="m29.971 32.586-.196.063.1-.158.096.095Z" fill="#FBF7F7"/><path d="m49.229 20.228-.148-.13.034-.057.205.098-.091.089ZM85.23 82.76c-.01.015-.018.032-.032.044-.004.003-.02-.008-.032-.012l.072-.02-.008-.011Z" fill="#FDFCFC"/><path d="M63.204 52.051c.038-.341.158-.644.605-.662.397-.016.684.306.678.75-.005.432-.222.724-.655.7-.424-.021-.616-.34-.628-.788Z" fill="#902D39"/><path d="M62.167 56.422c.022-.31.2-.633.64-.62.456.01.658.332.648.775-.008.391-.18.659-.603.687-.387.025-.688-.313-.685-.842Z" fill="#902B39"/><path d="M60.108 56.003c-.163.123-.387.422-.654.464-.417.066-.661-.228-.662-.67 0-.412.223-.671.616-.685.434-.015.644.277.7.89Z" fill="#902D3A"/><path d="M59.133 97.717c0 .848-.01 1.532.01 2.216.003.109.14.213.208.324.082.135.25.314.212.402a.565.565 0 0 1-.405.285c-.75.054-1.501.077-2.253.085-.122.002-.311-.101-.352-.202-.045-.113.033-.283.08-.421.064-.193.211-.378.215-.57.023-.995.016-1.99.008-2.985-.003-.321.083-.642-.259-.917-.2-.161-.136-.524.217-.533 1.112-.028 2.226-.01 3.385-.01-.143.712.499 1.025.936 1.474.36.37.692.766 1.087 1.206l2.267-2.712c.036-.044.1-.1.093-.138-.157-.802.47-.747.949-.871.725-.188 1.444-.404 2.17-.583.137-.033.39.01.433.095.059.117-.014.313-.062.466-.068.219-.222.425-.238.644a67.468 67.468 0 0 0-.163 3.146c-.006.225.192.451.203.68.01.2-.065.543-.184.583-.8.267-1.622.48-2.443.682-.1.025-.31-.094-.349-.193-.044-.112.017-.383.083-.4.43-.117.351-.472.368-.747.031-.55.009-1.103.009-1.748-.625.766-1.218 1.495-1.813 2.221-.316.386-.651.758-.951 1.156-.258.342-.47.373-.783.05-.84-.867-1.703-1.711-2.678-2.685ZM47.87 95.23c-.06-.315-.168-.54-.11-.712.03-.088.36-.14.537-.108.795.139 1.582.325 2.375.47.302.055.524.21.38.481-.184.347.001.52.179.738.898 1.099 1.782 2.209 2.698 3.292.29.342.677.6.99.924.108.114.17.318.161.475-.005.076-.228.208-.343.199-.883-.064-1.765-.157-2.645-.243-.312-.031-.494-.156-.44-.519.062-.422-.274-.834-.693-.918-1.074-.215-2.147-.438-3.22-.659-.474-.097-.639.072-.54.55.069.336-.036.56-.419.453-.703-.197-1.4-.414-2.086-.663-.129-.046-.245-.271-.26-.424-.007-.086.2-.2.323-.287.12-.086.275-.13.376-.232.938-.957 1.87-1.923 2.737-2.817Zm2.319 2.717c-.357-.505-.636-.9-.864-1.22l-.954.829 1.818.391ZM70.57 93.747c-.17-.241-.412-.444-.376-.57.052-.188.277-.371.473-.467.673-.328 1.36-.628 2.052-.911.149-.06.347-.003.522 0-.041.187-.07.378-.129.558-.026.08-.162.135-.168.207-.087 1.038-.158 2.078-.24 3.211.34-.077.59-.074.77-.184.977-.6 1.966-1.186 2.883-1.865.3-.222.503-.691.573-1.078.132-.73.141-1.483.185-2.227.007-.11-.04-.27-.12-.331-.385-.293-.279-.535.046-.772.669-.486 1.335-.974 2.014-1.447.105-.075.267-.07.402-.102.027.176.141.44.066.514-.51.5-.324 1.148-.417 1.728-.09.545-.03 1.12-.163 1.65-.155.62-.33 1.293-.703 1.79-1.579 2.095-3.733 3.39-6.264 4.042-1.011.26-1.593-.29-1.554-1.336.032-.838.1-1.675.147-2.41ZM37.316 90.805c-.08-.241-.2-.425-.171-.581.02-.107.306-.282.376-.244.833.438 1.652.902 2.462 1.382.103.06.218.284.18.366-.188.413.077.686.263.98a478.502 478.502 0 0 0 2.932 4.6c.173.266.452.462.64.721.096.134.097.336.141.506-.166.03-.361.13-.495.076a46.139 46.139 0 0 1-2.436-1.042c-.137-.064-.287-.281-.286-.426.008-.67-.345-1.076-.892-1.384-.887-.5-1.765-1.013-2.651-1.512-.138-.078-.3-.111-.453-.165.005.144.022.29.01.432-.012.14-.017.308-.099.402-.046.053-.268.023-.36-.04a41.422 41.422 0 0 1-1.855-1.366c-.106-.084-.15-.31-.13-.456.01-.076.224-.125.346-.185.114-.057.249-.091.341-.172.723-.632 1.437-1.271 2.137-1.892Zm1.87 3.2c.024-.03.048-.06.07-.091l-.734-1.299c-.25.215-.449.383-.69.589l1.355.802Z" fill="#8E2836"/><path d="m21.286 74.122.097.331-.08.024-.124-.26.107-.095Z" fill="#8D2634"/><path d="m50.189 97.947-1.818-.391.954-.83.864 1.22Z" fill="#F4ECEC"/><path d="m39.187 94.005-1.355-.802c.241-.207.44-.374.69-.589l.735 1.299-.07.092Z" fill="#F1E7E7"/></svg>