<?xml version="1.0" encoding="UTF-8" standalone="no"?>
<svg
   width="105.48828"
   height="105.48828"
   viewBox="0 0 105.48828 105.48828"
   fill="none"
   version="1.1"
   id="svg1"
   sodipodi:docname="AFA.svg"
   inkscape:version="1.4 (86a8ad7, 2024-10-11)"
   xmlns:inkscape="http://www.inkscape.org/namespaces/inkscape"
   xmlns:sodipodi="http://sodipodi.sourceforge.net/DTD/sodipodi-0.dtd"
   xmlns:xlink="http://www.w3.org/1999/xlink"
   xmlns="http://www.w3.org/2000/svg"
   xmlns:svg="http://www.w3.org/2000/svg">
  <defs
     id="defs1" />
  <sodipodi:namedview
     id="namedview1"
     pagecolor="#ffffff"
     bordercolor="#000000"
     borderopacity="0.25"
     inkscape:showpageshadow="2"
     inkscape:pageopacity="0.0"
     inkscape:pagecheckerboard="0"
     inkscape:deskcolor="#d1d1d1"
     inkscape:zoom="4.1542523"
     inkscape:cx="58.855356"
     inkscape:cy="54.763163"
     inkscape:window-width="1517"
     inkscape:window-height="1211"
     inkscape:window-x="1801"
     inkscape:window-y="73"
     inkscape:window-maximized="0"
     inkscape:current-layer="svg1" />
  <path
     style="fill:#ffffff;fill-opacity:1"
     sodipodi:type="inkscape:offset"
     inkscape:radius="2.7445984"
     inkscape:original="M 26.021484 2.7441406 L 9.7246094 59.925781 L 2.7441406 59.925781 L 2.7441406 69.699219 L 26.109375 69.699219 L 26.109375 59.925781 L 20.982422 59.925781 L 23.160156 52.257812 L 39.982422 52.257812 L 42.039062 59.925781 L 36.232422 59.925781 L 36.232422 69.699219 L 61.154297 69.699219 L 61.154297 92.970703 L 54.628906 92.970703 L 54.628906 102.74414 L 78.117188 102.74414 L 78.117188 92.970703 L 71.59375 92.970703 L 71.59375 69.699219 L 85.126953 69.699219 L 85.126953 73.609375 L 93.609375 73.609375 L 93.609375 56.015625 L 85.126953 56.015625 L 85.126953 59.927734 L 71.59375 59.927734 L 71.59375 42.482422 L 92.955078 42.482422 L 92.955078 48.998047 L 102.74414 48.998047 L 102.74414 32.710938 L 54.628906 32.710938 L 54.628906 42.482422 L 61.152344 42.482422 L 61.152344 59.925781 L 53.419922 59.925781 L 36.494141 2.7441406 L 26.021484 2.7441406 z M 30.660156 21.632812 L 37.189453 42.744141 L 24.966797 42.744141 L 30.660156 21.632812 z "
     xlink:href="#path2"
     id="path3"
     inkscape:href="#path2"
     d="m 23.277344,-2.7441406 a 2.7448728,2.7448728 0 0 0 -2.638672,1.99218748 L 4.9082031,54.4375 H 0 a 2.7448728,2.7448728 0 0 0 -2.7441406,2.744141 v 9.773437 A 2.7448728,2.7448728 0 0 0 0,69.699219 h 23.365234 a 2.7448728,2.7448728 0 0 0 2.744141,-2.744141 V 57.181641 A 2.7448728,2.7448728 0 0 0 23.365234,54.4375 h -1.49414 l 0.61914,-2.179688 h 12.642578 l 0.583985,2.179688 h -2.228516 a 2.7448728,2.7448728 0 0 0 -2.74414,2.744141 v 9.773437 a 2.7448728,2.7448728 0 0 0 2.74414,2.744141 h 22.177735 v 17.783203 h -3.78125 a 2.7448728,2.7448728 0 0 0 -2.744141,2.74414 V 100 a 2.7448728,2.7448728 0 0 0 2.744141,2.74414 H 75.373047 A 2.7448728,2.7448728 0 0 0 78.117187,100 v -9.773438 a 2.7448728,2.7448728 0 0 0 -2.74414,-2.74414 H 71.59375 V 69.699219 h 8.044922 v 1.166015 a 2.7448728,2.7448728 0 0 0 2.74414,2.744141 h 8.482422 a 2.7448728,2.7448728 0 0 0 2.744141,-2.744141 v -17.59375 a 2.7448728,2.7448728 0 0 0 -2.744141,-2.74414 h -8.482422 a 2.7448728,2.7448728 0 0 0 -2.74414,2.74414 v 1.167969 H 71.59375 V 42.482422 h 15.873047 v 3.771484 a 2.7448728,2.7448728 0 0 0 2.74414,2.744141 H 100 a 2.7448728,2.7448728 0 0 0 2.74414,-2.744141 V 29.966797 A 2.7448728,2.7448728 0 0 0 100,27.222656 H 51.884766 a 2.7448728,2.7448728 0 0 0 -2.744141,2.744141 v 9.771484 a 2.7448728,2.7448728 0 0 0 2.744141,2.744141 h 3.779296 V 54.4375 h -2.9375 L 36.380859,-0.77929687 A 2.7448728,2.7448728 0 0 0 33.75,-2.7441406 Z m 4.820312,31.5039066 2.626953,8.496093 h -4.917968 z" />
  <path
     fill-rule="evenodd"
     clip-rule="evenodd"
     d="M 26.020841,2.7441406 9.7252506,59.926341 h -6.98111 v 9.7722 H 26.108541 v -9.7722 h -5.1255 l 2.1778,-7.6689 h 16.8222 l 2.0555,7.6689 h -5.8066 v 9.7722 h 24.9222 v 23.2723 h -6.5256 v 9.773299 h 23.4889 v -9.773299 h -6.5244 v -23.2711 h 13.5333 v 3.9088 h 8.4822 v -17.5922 h -8.4811 v 3.9111 h -13.5333 v -17.4444 h 21.3611 v 6.5144 h 9.788899 v -16.2866 H 54.628541 v 9.7722 h 6.5245 v 17.4422 h -7.7333 L 36.494141,2.7441406 h -10.4722 z m 4.6389,18.8889004 6.5288,21.1111 h -12.2222 z"
     fill="white"
     id="path1"
     style="fill:#003594;fill-opacity:1" />
  <path
     fill-rule="evenodd"
     clip-rule="evenodd"
     d="M 26.020841,2.7441406 9.7252506,59.926341 h -6.98111 v 9.7722 H 26.108541 v -9.7722 h -5.1255 l 2.1778,-7.6689 h 16.8222 l 2.0555,7.6689 h -5.8066 v 9.7722 h 24.9222 v 23.2723 h -6.5256 v 9.773299 h 23.4889 v -9.773299 h -6.5244 v -23.2711 h 13.5333 v 3.9088 h 8.4822 v -17.5922 h -8.4811 v 3.9111 h -13.5333 v -17.4444 h 21.3611 v 6.5144 h 9.788899 v -16.2866 H 54.628541 v 9.7722 h 6.5245 v 17.4422 h -7.7333 L 36.494141,2.7441406 h -10.4722 z m 4.6389,18.8889004 6.5288,21.1111 h -12.2222 z"
     fill="white"
     id="path2"
     style="fill:#003594;fill-opacity:1" />
</svg>
