<?xml version="1.0" encoding="UTF-8" standalone="no"?>
<svg
   width="62.550896"
   height="60.191502"
   viewBox="0 0 62.550896 60.191502"
   fill="none"
   version="1.1"
   id="svg2"
   sodipodi:docname="ALA.svg"
   inkscape:version="1.4 (86a8ad7, 2024-10-11)"
   xmlns:inkscape="http://www.inkscape.org/namespaces/inkscape"
   xmlns:sodipodi="http://sodipodi.sourceforge.net/DTD/sodipodi-0.dtd"
   xmlns="http://www.w3.org/2000/svg"
   xmlns:svg="http://www.w3.org/2000/svg">
  <defs
     id="defs2" />
  <sodipodi:namedview
     id="namedview2"
     pagecolor="#ffffff"
     bordercolor="#000000"
     borderopacity="0.25"
     inkscape:showpageshadow="2"
     inkscape:pageopacity="0.0"
     inkscape:pagecheckerboard="0"
     inkscape:deskcolor="#d1d1d1"
     inkscape:zoom="10.385631"
     inkscape:cx="41.403359"
     inkscape:cy="43.762387"
     inkscape:window-width="1644"
     inkscape:window-height="1211"
     inkscape:window-x="52"
     inkscape:window-y="52"
     inkscape:window-maximized="0"
     inkscape:current-layer="svg2" />
  <path
     id="path2"
     style="fill:#ffffff;fill-opacity:1"
     sodipodi:type="inkscape:offset"
     inkscape:radius="2.1029372"
     inkscape:original="M 56.533203 3.5273438 C 53.704803 5.6909567 50.856269 7.8850612 48.480469 8.2382812 C 46.311469 8.7620613 33.050322 9.8028849 33.982422 3.7324219 C 32.501022 3.8506079 31.667681 5.5934763 31.675781 7.0976562 C 32.153881 13.648947 40.669516 12.349614 45.853516 12.990234 C 40.502916 19.689241 35.802034 26.626094 31.552734 33.808594 C 28.185734 34.453194 27.740953 30.2759 28.314453 29.125 C 28.314453 29.125 26.092669 29.748041 25.230469 32.181641 C 24.189569 34.738741 25.367387 39.062987 28.992188 39.304688 C 25.404988 45.616887 21.100958 55.957525 12.298828 53.890625 C 9.3535784 53.283525 5.9158025 48.295478 7.6953125 45.330078 C 8.7885325 43.811078 7.1666069 42.744547 5.3105469 44.998047 C 0.74292688 50.038447 5.1483703 60.106353 14.71875 59.501953 C 25.00765 59.724953 31.950266 46.937344 35.697266 39.339844 L 45.453125 37.804688 L 44.835938 45.765625 C 43.605737 65.563125 57.855469 57.921875 57.855469 57.921875 C 59.836469 57.022075 61.910375 54.854325 61.859375 52.328125 C 61.751875 51.477925 61.281394 51.807128 60.808594 52.048828 L 60.8125 52.052734 C 55.7856 54.648834 52.006969 54.10335 51.605469 50.96875 C 51.151469 47.46345 51.401206 42.532644 51.566406 40.652344 C 51.626806 39.963444 51.83715 37.739206 51.96875 37.066406 C 53.68655 36.707806 55.980469 35.869316 55.980469 38.853516 C 56.848069 38.411716 58.438337 37.106703 58.710938 35.720703 C 60.224537 28.558403 52.720703 30.4375 52.720703 30.4375 C 54.551303 21.9765 56.519338 12.965617 60.710938 5.5292969 L 56.533203 3.5273438 z M 50.529297 15.480469 C 48.893497 20.694069 47.562916 26.610206 46.291016 31.878906 L 38.90625 32.779297 C 42.58615 26.892797 44.597197 21.450169 50.529297 15.480469 z "
     d="m 57.441406,1.6308594 a 2.1031475,2.1031475 0 0 0 -2.185547,0.2265625 c -2.832147,2.1664797 -5.719305,4.0978888 -7.083984,4.3007812 a 2.1031475,2.1031475 0 0 0 -0.185547,0.035156 C 47.764894,6.2468322 46.505492,6.4360438 45.064453,6.5078125 43.623414,6.5795812 41.890822,6.5661571 40.328125,6.3710937 38.765428,6.1760304 37.380892,5.7553992 36.699219,5.3105469 36.017546,4.8656946 35.93968,4.8379509 36.060547,4.0507812 A 2.1031475,2.1031475 0 0 0 33.814453,1.6367187 c -1.52643,0.1217785 -2.699196,1.1223558 -3.335937,2.1582032 -0.636742,1.0358474 -0.912415,2.1696523 -0.90625,3.3144531 A 2.1031475,2.1031475 0 0 0 29.578125,7.25 c 0.152876,2.0948206 1.071311,3.889407 2.417969,5.041016 1.346657,1.151608 2.967995,1.703771 4.585937,2.03125 1.777147,0.359702 3.583757,0.470481 5.273438,0.541015 -4.117519,5.409062 -7.904437,10.946385 -11.333985,16.650391 -0.04509,-0.06254 -0.07329,-0.06193 -0.123047,-0.181641 -0.108847,-0.26187 -0.183689,-0.644189 -0.191406,-0.951172 -0.0077,-0.306982 0.12174,-0.582264 -0.0098,-0.318359 a 2.1031475,2.1031475 0 0 0 -2.451172,-2.962891 c 0,0 -3.249714,0.978106 -4.470703,4.330078 -0.763942,1.908771 -0.687116,4.06114 0.15625,6.015625 0.495345,1.147955 1.397671,2.198457 2.55664,2.947266 -1.520818,2.790015 -3.111848,5.755348 -4.996094,7.992188 -2.364539,2.807009 -4.645887,4.296581 -8.21289,3.458984 a 2.1031475,2.1031475 0 0 0 -0.05664,-0.01367 C 12.206919,51.72377 10.799171,50.712438 10.033203,49.421875 9.267235,48.131312 9.1834148,46.936417 9.4980469,46.412109 l -0.095703,0.146485 C 9.8878182,45.88404 10.23328,45.079185 10.138672,44.115234 10.044064,43.151284 9.2601886,42.097878 8.3027344,41.763672 6.4060273,41.101614 4.9423911,42.164329 3.7265625,43.626953 -2.1527831,50.185565 3.763195,62.206764 14.75,61.59375 c 5.98841,0.09672 10.831024,-3.532663 14.515625,-7.880859 3.421392,-4.037584 5.925262,-8.723428 7.792969,-12.457032 l 6.09375,-0.958984 -0.41211,5.306641 a 2.1031475,2.1031475 0 0 0 -0.0039,0.03125 c -0.322616,5.191836 0.325621,8.825963 1.78125,11.414062 1.455629,2.588099 3.825402,3.929038 6.023438,4.292969 4.326007,0.716261 8.106651,-1.462537 8.228515,-1.533203 2.620792,-1.207034 5.265684,-3.844212 5.191406,-7.523438 a 2.1031475,2.1031475 0 0 0 -0.01563,-0.220703 c -0.05294,-0.418699 -0.133265,-0.908558 -0.574218,-1.470703 -0.440954,-0.562145 -1.376861,-0.935433 -1.96875,-0.916016 -1.183778,0.03883 -1.407203,0.424649 -1.550782,0.498047 a 2.1031475,2.1031475 0 0 0 -0.0059,0.0078 c -2.268376,1.171129 -4.152012,1.508804 -5.109375,1.388672 -0.95763,-0.120166 -0.947842,-0.113171 -1.044922,-0.871094 a 2.1031475,2.1031475 0 0 0 0,-0.002 c -0.409115,-3.158751 -0.182615,-8.118213 -0.0293,-9.863282 0.03385,-0.386105 0.125508,-1.157172 0.216797,-1.974609 3.68e-4,-5.5e-5 0.0016,5.5e-5 0.002,0 a 2.1031475,2.1031475 0 0 0 3.054688,1.865234 c 0.716928,-0.365074 1.429215,-0.888452 2.140625,-1.61914 0.709031,-0.728246 1.42953,-1.645773 1.693359,-2.96875 0.442273,-2.108194 0.285588,-3.927274 -0.544922,-5.333985 -0.833005,-1.410938 -2.227098,-2.148291 -3.427734,-2.451171 -0.521396,-0.131531 -0.905747,-0.05715 -1.386719,-0.08984 C 57.093974,20.63281 58.97992,12.883706 62.542969,6.5625 A 2.1031475,2.1031475 0 0 0 61.619141,3.6328125 Z M 45.929687,24.876953 c -0.419298,1.722481 -0.922485,3.439409 -1.316406,5.087891 l -1.78125,0.216797 c 1.000437,-1.777431 2.063045,-3.601954 3.097656,-5.304688 z"
     transform="translate(-1.4115716,-1.4248227)" />
  <g
     inkscape:groupmode="layer"
     id="layer1"
     inkscape:label="Layer 1"
     transform="translate(-17.615952,-11.115005)" />
  <path
     d="m 59.400642,50.627362 c -5.0269,2.5961 -8.8062,2.0521 -9.2077,-1.0825 -0.454,-3.5053 -0.2028,-8.4368 -0.0376,-10.3171 0.0604,-0.6889 0.2699,-2.913 0.4015,-3.5858 1.7178,-0.3586 4.0116,-1.1967 4.0116,1.7875 0.8676,-0.4418 2.4591,-1.7473 2.7317,-3.1333 1.5136,-7.1623 -5.9912,-5.2834 -5.9912,-5.2834 1.8306,-8.461 3.7994,-17.471377 7.991,-24.907697 l -4.1781,-2.002443 c -2.8284,2.163613 -5.677,4.356763 -8.0528,4.709983 -2.169,0.52378 -15.43,1.56462 -14.4979,-4.505843 -1.4814,0.118186 -2.3141,1.861433 -2.306,3.365613 0.4781,6.55129 8.9929,5.25256 14.1769,5.89318 -5.3506,6.699007 -10.0525,13.635707 -14.3018,20.818207 -3.367,0.6446 -3.8115,-3.5322 -3.238,-4.6831 0,0 -2.2214,0.6231 -3.0836,3.0567 -1.0409,2.5571 0.137,6.8803 3.7618,7.122 -3.5872,6.3122 -7.8903,16.6535 -16.69243,14.5866 -2.9452493,-0.6071 -6.3847293,-5.595 -4.6052193,-8.5604 1.09322,-1.519 -0.52781,-2.5853 -2.38387,-0.3318 -4.56762,5.0404 -0.16116,15.1077 9.4092193,14.5033 10.2889,0.223 17.231,-12.5653 20.978,-20.1628 l 9.7557,-1.5337 -0.6178,7.9601 c -1.2302,19.7975 13.0193,12.1557 13.0193,12.1557 1.981,-0.8998 4.0559,-3.0661 4.0049,-5.5923 -0.1075,-0.8502 -0.5775,-0.5211 -1.0503,-0.2794 z m -14.5221,-20.1735 -7.3839,0.8998 c 3.6799,-5.8865 5.6917,-11.3284 11.6238,-17.2981 -1.6358,5.2136 -2.968,11.1296 -4.2399,16.3983 z"
     fill="white"
     id="path1"
     style="fill:#8f2935;fill-opacity:1" />
</svg>
