<svg width="63" height="72" viewBox="0 0 63 72" fill="none" xmlns="http://www.w3.org/2000/svg">
<g clip-path="url(#clip0_4618_269402)">
<path d="M61.8327 1.74545H7.73455L5.99455 0H3.48545L3.33818 0.147273C3.07091 0.0490909 2.78727 0 2.49273 0C1.82727 0 1.2 0.261818 0.730909 0.730909C0.0272728 1.42909 -0.169091 2.45455 0.147273 3.33273L0 3.48V5.99455L1.74 7.73455V30.0055C1.74 35.2909 2.62909 40.4073 4.26545 45.1582L1.66909 47.7545L2.56909 48.4745C3.16909 48.9545 3.79636 49.4073 4.44 49.8327C4.44 49.8327 4.44 49.8327 4.44545 49.8327C4.69636 49.9964 4.94727 50.1545 5.19818 50.3073C5.20364 50.3073 5.21455 50.3127 5.22 50.3182C5.47091 50.4709 5.72182 50.6182 5.97818 50.76C5.98909 50.76 6 50.7709 6.00545 50.7764C6.25636 50.9182 6.51273 51.0545 6.77455 51.1855C6.78545 51.1855 6.79636 51.1964 6.80727 51.2018C6.82364 51.2127 6.84 51.2182 6.85636 51.2291C11.9236 61.0091 20.4109 68.5527 30.8018 71.6727L31.6691 71.9346L31.7345 71.9182L31.8382 71.9455L32.7436 71.6727C40.6091 69.3055 47.3891 64.4073 52.4127 57.9218H56.8527H57.9109V52.3745L56.7109 51.1745C59.9727 44.8527 61.8109 37.5982 61.8109 30V1.74545H61.8327ZM1.74 6.24L1.05818 5.55818V3.92182L1.47818 3.50182C0.921818 2.94545 0.921818 2.03455 1.47818 1.47818C2.03455 0.921818 2.94545 0.921818 3.50182 1.47818L3.92182 1.05818H5.55273L6.23455 1.74L5.33455 2.64L11.8145 9.12C13.2982 7.81636 14.8909 6.67636 16.5655 5.70545L17.7327 6.87273C15.8618 7.92 14.1 9.18546 12.48 10.6582C10.3527 12.6 8.55818 14.8255 7.13455 17.2582L5.97818 16.1018C6.88909 14.5909 7.93636 13.1618 9.11455 11.82L2.64 5.34L1.74 6.24ZM42.6109 48.1527C41.82 48.3545 40.9909 48.4582 40.14 48.4582C36.7964 48.4582 33.8236 46.8273 31.98 44.3182C28.1509 47.7927 23.22 49.7073 18.0818 49.7073C17.4764 49.7073 16.8655 49.68 16.26 49.6255C12.1964 49.2709 8.50364 47.7545 5.48727 45.4364L7.92 43.0036L16.4891 34.4291H21.3655C23.4273 34.4291 25.2873 33.3764 26.2255 31.7618C26.4109 31.4455 26.5636 31.1018 26.6673 30.7418V30.72H26.6727H17.9455L12.7582 35.9073H9.75818L23.8473 21.8182L25.6145 20.0509C25.6909 20.0073 25.7673 19.9691 25.8491 19.9309C27.6327 19.0364 29.6509 18.5291 31.7836 18.5291C39.0982 18.5291 45.0327 24.4582 45.0327 31.7782C45.0327 36.8618 42.1691 41.28 37.9636 43.5L42.6055 48.1418L42.6109 48.1527ZM18.9055 8.04545L19.6909 8.83091C18.24 9.58364 16.8545 10.4836 15.5618 11.52L16.9527 12.9109L24.12 20.0782L22.0964 22.1018L13.4291 13.4345C11.7 15.1582 10.2436 17.1055 9.08727 19.2109L8.30727 18.4309C9.68182 15.9927 11.4436 13.7673 13.56 11.8418C15.1964 10.3473 16.9964 9.08182 18.9109 8.05091M20.6127 23.5855L20.0727 24.1255L13.4291 17.4818V16.4018L20.6127 23.5855ZM51.7691 44.8036L45.5345 38.5636C46.5218 36.5564 47.0673 34.3418 47.1055 32.0618C47.1764 27.9764 45.6491 24.1091 42.8073 21.1636C42.4909 20.8364 42.1582 20.52 41.82 20.2255C39.1145 17.8745 35.6509 16.5491 32.0673 16.4836C31.62 16.4727 31.1673 16.4836 30.7145 16.5164C28.7182 16.6582 26.7927 17.1818 25.0309 18.0545L18.7964 11.82C22.6527 9.3 27.2782 7.87091 32.22 7.95273C45.3655 8.18182 55.8764 19.0636 55.6473 32.2091C55.5655 36.8564 54.1527 41.1709 51.7855 44.7982M2.80364 30.0109V7.00364L4.46727 8.66727V30.0109C4.46727 34.5218 5.15455 38.8964 6.42545 43.0036L5.10545 44.3236C3.61091 39.8182 2.80364 34.9909 2.80364 30.0055M3.26182 47.6618L4.01455 46.9091C7.37455 49.5545 11.5145 51.2836 16.08 51.6818C16.7455 51.7418 17.4164 51.7691 18.0818 51.7691C23.0345 51.7691 27.8182 50.1545 31.7618 47.1764C33.9491 49.2491 36.8945 50.52 40.14 50.52C41.5855 50.52 42.9764 50.2636 44.2636 49.8L45.0873 50.6236C43.56 51.24 41.8909 51.5782 40.14 51.5782C36.9273 51.5782 33.9873 50.4382 31.6909 48.5345C27.2673 51.6273 21.7745 53.2418 15.9927 52.7345C11.1655 52.3091 6.80182 50.4709 3.26727 47.6618M34.5164 59.0182L36.2018 64.2L31.7945 60.9982L27.3873 64.2L29.0727 59.0182L24.6655 55.8164H30.1091L31.7945 50.6345L33.48 55.8164H38.9236L34.5164 59.0182ZM32.4545 70.6582L31.8327 70.8436L31.7618 70.8273L31.7182 70.8382L31.1182 70.6582C21.4418 67.7509 13.4618 60.9 8.46546 51.9655C8.59091 52.02 8.72182 52.0691 8.84727 52.1236C8.98364 52.1782 9.12 52.2327 9.25636 52.2818C9.26182 52.2818 9.27273 52.2873 9.27818 52.2927C9.40909 52.3418 9.54 52.3909 9.67091 52.4345C9.68182 52.4345 9.68727 52.44 9.69273 52.4455C9.82909 52.4945 9.96546 52.5436 10.1073 52.5873C10.1127 52.5873 10.1182 52.5873 10.1291 52.5927C10.26 52.6364 10.3855 52.68 10.5164 52.7182C10.5327 52.7182 10.5491 52.7291 10.5655 52.7345C10.6745 52.7727 10.7891 52.8055 10.9036 52.8382C15.72 60.5782 22.9527 66.4691 31.5927 69.0655L31.7673 69.12H31.7727H31.7836L31.9636 69.0655C39.3818 66.8345 45.7582 62.1818 50.46 56.0127L51.6436 57.1964C46.7455 63.5509 40.1236 68.3455 32.4382 70.6582M56.8527 56.8636H52.8055L41.8418 45.9V44.82L53.1218 56.1H56.0891L56.8527 56.8636ZM56.8527 52.8164V56.8636L42.6 42.6109C42.6873 42.5236 42.7691 42.4364 42.8564 42.3491C43.44 41.7382 43.9691 41.0891 44.4327 40.4018L44.4818 40.4509L56.8527 52.8218V52.8164ZM60.7582 30C60.7582 37.3091 59.0182 44.2855 55.9309 50.3891L54.6927 49.1509C57.5182 43.3964 59.0945 36.8455 59.0945 30V4.46727H8.66182L6.99818 2.80364H60.7745V30.0109L60.7582 30Z" fill="#16191E"/>
<path d="M8.66181 4.46723H59.1109V30.0109C59.1109 36.8563 57.5291 43.4072 54.7091 49.1618L55.9473 50.4C59.04 44.2963 60.7745 37.32 60.7745 30.0109V2.80359H6.99817L8.66181 4.46723Z" fill="#D5BA8C"/>
<path d="M6.42541 43.0037C5.14904 38.8964 4.46723 34.5164 4.46723 30.0109V8.6673L2.80359 7.00366V30.0109C2.80359 34.9964 3.61086 39.8237 5.10541 44.3291L6.42541 43.0091V43.0037Z" fill="#D5BA8C"/>
<path d="M31.9745 69.0709L31.7945 69.1255H31.7836H31.7782L31.6036 69.0709C22.9636 66.4746 15.7364 60.5837 10.9145 52.8437C10.8 52.8109 10.6909 52.7782 10.5764 52.74C10.56 52.7346 10.5436 52.7291 10.5273 52.7237C10.3964 52.68 10.2709 52.6419 10.14 52.5982C10.1345 52.5982 10.1291 52.5982 10.1182 52.5928C9.98182 52.5491 9.84 52.5 9.70364 52.4509C9.69273 52.4509 9.68727 52.4455 9.67636 52.44C9.54545 52.3909 9.41455 52.3473 9.28364 52.2982C9.27818 52.2982 9.26727 52.2928 9.26182 52.2873C9.12545 52.2328 8.98909 52.1837 8.85273 52.1291C8.85273 52.1291 8.85273 52.1291 8.84727 52.1291C8.71636 52.08 8.59091 52.0255 8.46545 51.9709C13.4618 60.9055 21.4418 67.7564 31.1182 70.6637L31.7182 70.8437L31.7618 70.8328L31.8327 70.8491L32.4545 70.6637C40.14 68.3509 46.7564 63.5564 51.66 57.2019L50.4764 56.0182C45.7691 62.1873 39.3927 66.84 31.98 69.0709" fill="#D5BA8C"/>
<path d="M15.9873 52.7455C21.7691 53.2528 27.2618 51.6328 31.6855 48.5455C33.9818 50.4491 36.9218 51.5891 40.1346 51.5891C41.8855 51.5891 43.5546 51.251 45.0818 50.6346L44.2582 49.811C42.9709 50.2746 41.58 50.531 40.1346 50.531C36.8946 50.531 33.9437 49.26 31.7564 47.1873C27.8182 50.1655 23.0346 51.78 18.0818 51.78C17.4164 51.78 16.7455 51.7528 16.08 51.6928C11.5146 51.2946 7.37457 49.5655 4.01457 46.92L3.26184 47.6728C6.79639 50.4819 11.16 52.3255 15.9873 52.7455Z" fill="#D5BA8C"/>
<path d="M38.9182 55.8218H33.4746L31.7891 50.64L30.1037 55.8218H24.66L29.0673 59.0237L27.3819 64.2055L31.7891 61.0037L36.1964 64.2055L34.5164 59.0237L38.9182 55.8218Z" fill="#D5BA8C"/>
<path d="M13.4236 17.4709L20.0672 24.1145L20.6072 23.58L13.4236 16.3909V17.4709Z" fill="#D5BA8C"/>
<path d="M53.1436 56.1054L41.8582 44.8254V45.9054L52.8272 56.8691H56.8745L56.1109 56.1054H53.1436Z" fill="#D5BA8C"/>
<path d="M44.5036 40.4563L44.4546 40.4072C43.9855 41.0945 43.4564 41.749 42.8782 42.3545C42.7909 42.4418 42.7091 42.529 42.6218 42.6163L56.8746 56.869V52.8218L44.5036 40.4509V40.4563Z" fill="#D5BA8C"/>
<path d="M5.97814 16.0964L7.13451 17.2528C8.55814 14.82 10.3527 12.5946 12.48 10.6528C14.0945 9.18005 15.8563 7.91459 17.7327 6.86732L16.5654 5.7055C14.8854 6.67641 13.2927 7.81641 11.8145 9.12005L5.33996 2.64005L6.23996 1.74005L5.55814 1.05823H3.92724L3.50723 1.47823C2.95087 0.921864 2.04542 0.921864 1.4836 1.47823C0.927235 2.03459 0.927235 2.9455 1.4836 3.50186L1.0636 3.92186V5.55823L1.74542 6.24005L2.64542 5.34005L9.12542 11.82C7.94724 13.1564 6.89996 14.591 5.98905 16.1019" fill="#D5BA8C"/>
<path d="M13.5545 11.8309C11.4436 13.7564 9.6763 15.9819 8.30176 18.42L9.08176 19.2C10.2381 17.0946 11.6945 15.1473 13.4181 13.4237L22.0854 22.0964L24.109 20.0728L16.9418 12.9055L15.5508 11.5146C16.849 10.4837 18.229 9.58368 19.6799 8.82549L18.8945 8.04004C16.9799 9.06549 15.1799 10.3364 13.5436 11.8309" fill="#D5BA8C"/>
<path d="M27.6601 15.9436C28.2928 15.78 28.9419 15.649 29.5964 15.5672L29.2201 11.7C28.3146 11.8145 27.4146 11.989 26.5419 12.2236L27.6601 15.949V15.9436Z" fill="#16191E"/>
<path d="M51.4146 36.84C51.6382 35.9673 51.8019 35.0782 51.9109 34.1782L48.0382 33.851C47.9564 34.5 47.8364 35.1437 47.6782 35.771L51.4146 36.84Z" fill="#16191E"/>
<path d="M47.3345 36.9491C47.1763 37.4182 47.0018 37.8818 46.8054 38.3346L49.7127 41.2418C50.2581 40.2109 50.7109 39.1309 51.0709 38.0182L47.3345 36.9491Z" fill="#16191E"/>
<path d="M48.1255 30.6709C48.1582 31.1346 48.1691 31.6037 48.1582 32.0728C48.1582 32.2582 48.1473 32.4437 48.1364 32.6291L52.0091 32.9564C52.0254 32.6891 52.0364 32.4164 52.0418 32.1437C52.0527 31.5055 52.0364 30.8728 51.9873 30.2455L48.12 30.6764L48.1255 30.6709Z" fill="#16191E"/>
<path d="M47.6073 27.5345C47.7764 28.1618 47.9073 28.8055 48 29.4545L51.8673 29.0236C51.7418 28.1236 51.5618 27.2345 51.3218 26.3618L47.6073 27.5345Z" fill="#16191E"/>
<path d="M34.0145 15.5672C34.669 15.6545 35.3181 15.7854 35.9509 15.9545L37.069 12.2345C36.1909 12 35.2963 11.82 34.3909 11.7L34.009 15.5727L34.0145 15.5672Z" fill="#16191E"/>
<path d="M50.9509 25.1891C50.6563 24.3327 50.3018 23.4927 49.8927 22.6854L46.4781 24.5509C46.7672 25.14 47.0236 25.7454 47.2418 26.3618L50.9509 25.1891Z" fill="#16191E"/>
<path d="M40.0309 17.6455C40.5982 17.9727 41.1436 18.3382 41.6727 18.7364L44.1218 15.72C43.4018 15.1637 42.6382 14.6618 41.8527 14.2091L40.0309 17.6455Z" fill="#16191E"/>
<path d="M42.6163 19.5163C42.9436 19.8054 43.26 20.1054 43.56 20.4218C43.7127 20.58 43.86 20.7436 44.0072 20.9018L46.9963 18.4145C46.7891 18.18 46.5763 17.9509 46.3582 17.7218C45.9491 17.2963 45.5127 16.8818 45.0654 16.4945L42.6163 19.5163Z" fill="#16191E"/>
<path d="M40.7618 13.6309C39.9491 13.2273 39.1036 12.8782 38.2418 12.5891L37.1182 16.3146C37.74 16.5273 38.3509 16.7782 38.94 17.0673L40.7563 13.6309H40.7618Z" fill="#16191E"/>
<path d="M33.1745 11.58C32.8309 11.5582 32.4872 11.5418 32.1436 11.5364C32.0236 11.5364 31.9036 11.5364 31.7836 11.5364C31.3363 11.5364 30.889 11.5527 30.4418 11.58L30.8181 15.4473C31.14 15.4309 31.4618 15.42 31.7836 15.42C31.8818 15.42 31.98 15.42 32.0781 15.42C32.3181 15.42 32.5581 15.4309 32.7981 15.4473L33.1745 11.58Z" fill="#16191E"/>
<path d="M49.3091 21.6109C48.8509 20.8309 48.3436 20.0782 47.7818 19.3582L44.7927 21.8454C45.1964 22.3691 45.5618 22.9145 45.8945 23.4709L49.3091 21.6054V21.6109Z" fill="#16191E"/>
<path d="M25.3692 12.5673C24.3219 12.9164 23.3073 13.3527 22.3364 13.8654L25.2437 16.7727C25.6528 16.5982 26.0673 16.4345 26.4873 16.2927L25.3692 12.5673Z" fill="#16191E"/>
<path d="M55.6309 32.2036C55.86 19.0582 45.3546 8.17634 32.2037 7.94725C27.2618 7.85997 22.6364 9.29452 18.78 11.8145L25.0146 18.0491C26.7764 17.1818 28.7018 16.6527 30.7037 16.5109C31.1564 16.4782 31.6091 16.4672 32.0564 16.4782C35.6455 16.5382 39.1091 17.8691 41.8091 20.2145C42.1473 20.5091 42.48 20.8254 42.7964 21.1527C45.6437 24.0982 47.1709 27.9709 47.1 32.0509C47.0619 34.3363 46.5164 36.5509 45.5291 38.5527L51.7691 44.7927C54.1419 41.1654 55.5491 36.8454 55.6309 32.2036ZM52.0473 32.1382C52.0473 32.4109 52.0309 32.6782 52.0146 32.9509L48.1419 32.6236C48.1528 32.4382 48.1582 32.2527 48.1637 32.0672C48.1746 31.5982 48.1637 31.1291 48.1309 30.6654L51.9982 30.2345C52.0473 30.8618 52.0637 31.4945 52.0528 32.1327M48.0055 29.4436C47.9128 28.7945 47.7819 28.1509 47.6128 27.5236L51.3218 26.3509C51.5618 27.2236 51.7473 28.1127 51.8673 29.0127L48 29.4436H48.0055ZM46.3691 17.7109C46.5873 17.9345 46.8 18.1691 47.0073 18.4036L44.0182 20.8909C43.8709 20.7272 43.7237 20.5636 43.5709 20.4054C43.2709 20.0891 42.9491 19.7891 42.6219 19.5L45.0709 16.4782C45.5182 16.8654 45.9491 17.28 46.3637 17.7054M44.1219 15.7036L41.6728 18.72C41.1491 18.3218 40.5982 17.9563 40.0309 17.6291L41.8528 14.1927C42.6382 14.6454 43.3964 15.1472 44.1219 15.7036ZM37.0746 12.2182L35.9564 15.9436C35.3182 15.7745 34.6746 15.6491 34.02 15.5563L34.4018 11.6836C35.3073 11.7982 36.2019 11.9782 37.08 12.2182M29.6073 15.5454C28.9528 15.6327 28.3037 15.7582 27.6709 15.9218L26.5528 12.1963C27.4309 11.9618 28.3255 11.7872 29.2309 11.6727L29.6073 15.54V15.5454ZM25.2546 16.7618L22.3418 13.8545C23.3182 13.3418 24.3328 12.9054 25.3746 12.5563L26.4928 16.2818C26.0728 16.4236 25.6582 16.5872 25.2491 16.7618M32.0782 15.4036C31.98 15.4036 31.8818 15.4036 31.7837 15.4036C31.4618 15.4036 31.14 15.4145 30.8182 15.4309L30.4418 11.5582C30.8837 11.5309 31.3364 11.5145 31.7837 11.5145C31.9037 11.5145 32.0237 11.5145 32.1437 11.5145C32.4873 11.52 32.8309 11.5363 33.1746 11.5582L32.7928 15.4254C32.5528 15.4091 32.3128 15.4036 32.0728 15.3982M37.1237 16.2927L38.2419 12.5672C39.1037 12.8563 39.9437 13.2054 40.7619 13.6091L38.9455 17.0454C38.3509 16.7563 37.7455 16.5054 37.1237 16.2927ZM44.7928 21.8291L47.7819 19.3418C48.3437 20.0618 48.8564 20.8145 49.3091 21.5945L45.8946 23.46C45.5619 22.8982 45.1964 22.3527 44.7928 21.8345M46.4782 24.54L49.8928 22.6745C50.3019 23.4872 50.6564 24.3218 50.9509 25.1782L47.2419 26.3509C47.0237 25.7345 46.7728 25.1291 46.4782 24.54ZM48.0328 33.84L51.9055 34.1672C51.7964 35.0672 51.6328 35.9618 51.4091 36.8291L47.6728 35.76C47.8309 35.1327 47.9509 34.4891 48.0328 33.84ZM49.7128 41.2309L46.8055 38.3236C47.0018 37.8709 47.1819 37.4072 47.3346 36.9382L51.0709 38.0072C50.7109 39.12 50.2582 40.2 49.7128 41.2309Z" fill="#D5BA8C"/>
<path d="M37.9637 43.5109C42.1691 41.2909 45.0328 36.8782 45.0328 31.7891C45.0328 24.4746 39.1037 18.54 31.7837 18.54C29.6509 18.54 27.6328 19.0419 25.8491 19.9419C25.7728 19.98 25.6964 20.0182 25.6146 20.0619L23.8473 21.8291L9.75821 35.9182H12.7582L17.9455 30.7309H26.6728L26.6673 30.7582C26.5582 31.1182 26.4109 31.4564 26.2255 31.7782C25.2873 33.3873 23.4273 34.4455 21.3655 34.4455H16.4891L7.92003 43.02L5.4873 45.4528C8.50912 47.7709 12.1964 49.2873 16.26 49.6419C16.8655 49.6964 17.4764 49.7237 18.0819 49.7237C23.2146 49.7237 28.1509 47.8091 31.98 44.3346C33.8237 46.8437 36.7964 48.4746 40.14 48.4746C40.9909 48.4746 41.82 48.3655 42.6109 48.1691L37.9691 43.5273L37.9637 43.5109Z" fill="#D5BA8C"/>
<path d="M55.2328 59.1055C55.9691 59.1055 56.58 59.6891 56.58 60.4528C56.58 61.2164 55.9691 61.8 55.2328 61.8C54.4964 61.8 53.8855 61.2109 53.8855 60.4528C53.8855 59.6946 54.4964 59.1055 55.2328 59.1055ZM55.2328 62.0564C56.1328 62.0564 56.8418 61.3473 56.8418 60.4528C56.8418 59.5582 56.1328 58.8491 55.2328 58.8491C54.3328 58.8491 53.6237 59.5582 53.6237 60.4528C53.6237 61.3473 54.3328 62.0564 55.2328 62.0564ZM55.5109 60.5291C55.7509 60.5237 55.9909 60.3873 55.9909 60.0328C55.9909 59.6509 55.6964 59.5528 55.3691 59.5528H54.6109V61.3582H54.8727V60.5237H55.2055L55.6691 61.3582H55.9691L55.5109 60.5237V60.5291ZM55.3255 59.82C55.5437 59.82 55.7346 59.8364 55.7346 60.0655C55.7346 60.3109 55.4018 60.2673 55.1564 60.2673H54.8782V59.82H55.3255Z" fill="#D5BA8C"/>
</g>
<defs>
<clipPath id="clip0_4618_269402">
<rect width="61.8327" height="71.9509" fill="white"/>
</clipPath>
</defs>
</svg>
