<?xml version="1.0" encoding="UTF-8" standalone="no"?>
<svg
   width="191.44531"
   height="225.45711"
   viewBox="0 0 191.44531 225.45711"
   version="1.1"
   id="svg1"
   sodipodi:docname="BAY.svg"
   inkscape:version="1.4 (86a8ad7, 2024-10-11)"
   xmlns:inkscape="http://www.inkscape.org/namespaces/inkscape"
   xmlns:sodipodi="http://sodipodi.sourceforge.net/DTD/sodipodi-0.dtd"
   xmlns:xlink="http://www.w3.org/1999/xlink"
   xmlns="http://www.w3.org/2000/svg"
   xmlns:svg="http://www.w3.org/2000/svg">
  <defs
     id="defs1" />
  <sodipodi:namedview
     id="namedview1"
     pagecolor="#ffffff"
     bordercolor="#000000"
     borderopacity="0.25"
     inkscape:showpageshadow="2"
     inkscape:pageopacity="0.0"
     inkscape:pagecheckerboard="0"
     inkscape:deskcolor="#d1d1d1"
     inkscape:zoom="0.51928154"
     inkscape:cx="-458.32555"
     inkscape:cy="170.42778"
     inkscape:window-width="3440"
     inkscape:window-height="1377"
     inkscape:window-x="-8"
     inkscape:window-y="-8"
     inkscape:window-maximized="1"
     inkscape:current-layer="g1" />
  <g
     fill="#f2af36"
     fill-rule="evenodd"
     id="g1"
     transform="translate(13.722656,13.728557)">
    <polyline
       points="73.619 108 73.619 102.248 83 102.25 83 80 42 80 42 102.25 51.378 102.25 51.378 108 73.619 108"
       id="polyline4"
       style="fill:#f2af36;fill-opacity:1"
       transform="matrix(1.8801245,0,0,1.7173253,-6.3269334,-13.1307)" />
    <path
       sodipodi:type="inkscape:offset"
       inkscape:radius="13.136191"
       inkscape:original="M 42 80 L 42 102.25 L 51.378906 102.25 L 51.378906 108 L 73.619141 108 L 73.619141 102.24805 L 83 102.25 L 83 80 L 42 80 z "
       xlink:href="#polyline1"
       id="path3"
       inkscape:href="#polyline1"
       d="M 42,66.863281 A 13.137505,13.137505 0 0 0 28.863281,80 v 22.25 a 13.137505,13.137505 0 0 0 12.294922,12.78711 13.137505,13.137505 0 0 0 10.220703,6.09961 H 73.619141 A 13.137505,13.137505 0 0 0 83.783203,115.17578 13.137505,13.137505 0 0 0 96.136719,102.25 V 80 A 13.137505,13.137505 0 0 0 83,66.863281 Z" />
    <polyline
       points="73.619 108 73.619 102.248 83 102.25 83 80 42 80 42 102.25 51.378 102.25 51.378 108 73.619 108"
       id="polyline1" />
    <path
       sodipodi:type="inkscape:offset"
       inkscape:radius="13.722992"
       inkscape:original="M 0 0 L 0 22.226562 L 10.673828 22.226562 L 10.673828 111.64648 L 0 111.64648 L 0 133.875 L 51.349609 133.875 L 51.349609 167.22852 C 51.349609 174.02502 51.350396 178.51537 56.644531 183.83594 L 65.455078 192.67383 C 70.751702 197.9994 75.04018 198 81.53125 198 L 124.48438 198 C 130.9717 198 135.25791 198.0002 140.53711 192.69336 L 149.38281 183.81836 C 154.66077 178.51402 154.66016 174.02502 154.66016 167.22852 L 154.66016 107.4375 L 143.58398 102.42188 L 164 102.41992 L 164 80.195312 L 123.17188 80.195312 L 123.17188 102.42188 L 132.51172 102.42188 L 132.51172 167.22852 C 132.51172 168.88425 132.31896 169.50846 131.57617 170.25391 L 127.01367 174.83008 C 126.25221 175.59676 125.69018 175.77148 123.99805 175.77148 L 82.011719 175.77148 C 80.322075 175.77148 79.757914 175.5966 78.990234 174.82617 L 74.435547 170.25781 C 73.690262 169.50861 73.496094 168.88425 73.496094 167.22852 L 73.496094 133.875 L 83.505859 133.875 C 90.278122 133.875 94.752375 133.87559 100.05273 128.5625 L 108.85938 119.7207 C 114.16844 114.40137 114.16797 110.00359 114.16797 103.3457 L 114.16797 79.263672 C 114.16797 72.609521 114.16907 68.213408 108.87891 62.914062 L 105.83203 59.855469 L 108.85938 56.816406 C 114.16844 51.49833 114.16797 47.100551 114.16797 40.441406 L 114.16797 30.521484 C 114.16797 23.867334 114.16907 19.471221 108.87891 14.171875 L 100.03711 5.2949219 C 94.75293 -0.000678125 90.279367 0 83.505859 0 L 0 0 z M 21.748047 22.226562 L 83.505859 22.226562 C 85.156933 22.226562 85.777978 22.42181 86.519531 23.166016 L 91.080078 27.744141 C 91.844026 28.509575 92.017578 29.074544 92.017578 30.771484 L 92.017578 40.199219 C 92.017578 41.896158 91.843853 42.462538 91.076172 43.230469 L 86.523438 47.800781 C 85.778153 48.548733 85.156933 48.742188 83.505859 48.742188 L 32.822266 48.742188 L 32.822266 27.244141 L 21.748047 22.226562 z M 32.822266 70.96875 L 83.505859 70.96875 C 85.158177 70.96875 85.777978 71.162044 86.519531 71.90625 L 91.080078 76.486328 C 91.844026 77.250512 92.017578 77.81478 92.017578 79.511719 L 92.017578 103.10156 C 92.017578 104.7985 91.843853 105.36684 91.076172 106.13477 L 86.523438 110.70508 C 85.821701 111.40933 85.217262 111.6201 83.771484 111.64258 L 32.822266 111.64648 L 32.822266 70.96875 z "
       xlink:href="#path1"
       id="path4"
       d="M 0,-13.722656 A 13.724364,13.724364 0 0 0 -13.722656,0 v 22.226562 a 13.724364,13.724364 0 0 0 10.6738279,12.90625 V 98.740234 A 13.724364,13.724364 0 0 0 -13.722656,111.64648 V 133.875 A 13.724364,13.724364 0 0 0 0,147.59766 h 37.626953 v 19.63086 c 0,3.39878 -0.150313,7.3188 1.074219,12.19726 1.224532,4.87846 4.206524,10.06151 8.214844,14.08984 a 13.724364,13.724364 0 0 0 0.0098,0.01 l 8.810547,8.83789 c 3.952255,3.9698 9.001638,6.98159 13.835938,8.24609 4.839054,1.26575 8.713026,1.11329 11.958984,1.11329 h 42.95313 c 3.24351,0 7.10999,0.1536 11.94335,-1.10743 4.8294,-1.25999 9.88028,-4.26924 13.82813,-8.23437 l 0.01,-0.01 8.83594,-8.86523 a 13.724364,13.724364 0 0 0 0.01,-0.008 c 4.00441,-4.02443 6.98105,-9.20805 8.20117,-14.08203 1.22012,-4.87399 1.07031,-8.78966 1.07031,-12.1875 V 114.9668 a 13.724364,13.724364 0 0 0 9.33985,-12.54688 V 80.195312 A 13.724364,13.724364 0 0 0 164,66.472656 h -37.43945 c -0.54142,-1.876535 -1.3394,-3.768578 -2.34571,-5.625 l -5.63281,5.654297 -0.0117,0.0098 c 1.99213,-1.995506 3.73671,-4.27226 5.13867,-6.65625 -1.39546,-2.372895 -3.12651,-4.640883 -5.10742,-6.626953 l 5.60938,5.632812 c 1.13227,-2.088704 2.05259,-4.22955 2.58984,-6.332031 1.24199,-4.860406 1.08985,-8.758641 1.08985,-12.087891 v -9.919922 c -1e-5,-3.326318 0.15144,-7.217771 -1.08594,-12.072265 -1.23627,-4.850125 -4.22264,-9.9697066 -8.20313,-13.9609378 l -0.01,-0.011719 -8.83203,-8.8652344 a 13.724364,13.724364 0 0 0 -0.008,-0.00977 c -4.00999,-4.0186548 -9.19073,-7.0166925 -14.068356,-8.2460935 -4.877627,-1.229402 -8.791439,-1.078125 -12.177735,-1.078125 z m 46.544922,98.414062 h 31.75 v 13.228516 l -31.75,0.002 z m 72.244138,44.474614 v 32.88281 H 87.21875 v -14.50391 c 2.519812,-0.0473 5.230267,-0.20947 8.474609,-1.0293 4.882461,-1.23376 10.060301,-4.23815 14.074221,-8.26171 a 13.724364,13.724364 0 0 0 0.008,-0.008 l 8.79688,-8.83203 0.01,-0.01 c 0.0742,-0.0745 0.13348,-0.16305 0.20703,-0.23828 z" />
    <path
       d="M 32.822396,111.64713 V 70.968033 H 83.5055 c 1.652318,0 2.271937,0.193543 3.01349,0.937749 l 4.561292,4.580114 c 0.763948,0.764184 0.938139,1.329831 0.938139,3.02677 V 103.1025 c 0,1.69694 -0.175435,2.26383 -0.943116,3.03176 l -4.552583,4.57138 c -0.701737,0.70425 -1.305182,0.91527 -2.75096,0.93775 z M 83.5055,22.227535 c 1.651074,0 2.271937,0.193543 3.01349,0.937749 l 4.561292,4.578865 c 0.763948,0.765434 0.938139,1.33108 0.938139,3.02802 v 9.426193 c 0,1.696939 -0.175435,2.263834 -0.943116,3.031765 L 86.522722,47.8015 c -0.745285,0.747952 -1.366148,0.941495 -3.017222,0.941495 H 32.822396 V 27.244682 L 21.748881,22.227535 Z M 164,102.41948 V 80.194439 h -40.82892 v 22.227531 h 9.34032 v 64.80711 c 0,1.65573 -0.19161,2.27882 -0.9344,3.02427 l -4.56254,4.57637 c -0.76146,0.76668 -1.32509,0.94274 -3.01722,0.94274 H 82.012442 c -1.689644,0 -2.254518,-0.17606 -3.022198,-0.94649 l -4.553828,-4.56887 c -0.745285,-0.7492 -0.939382,-1.37229 -0.939382,-3.02802 V 133.87467 H 83.5055 c 6.772263,0 11.246461,0 16.54682,-5.31309 l 8.8078,-8.84056 c 5.30906,-5.31933 5.30782,-9.71714 5.30782,-16.37503 V 79.262933 c 0,-6.654151 0.001,-11.049461 -5.28916,-16.348807 l -3.04584,-3.057988 3.02718,-3.040506 c 5.30906,-5.318076 5.30782,-9.715884 5.30782,-16.375029 v -9.918168 c 0,-6.65415 0.001,-11.05071 -5.28916,-16.350056 L 100.03614,5.2956 C 94.751961,0 90.279008,0 83.5055,0 H 0 V 22.227535 H 10.674122 V 111.64713 H 0 v 22.22754 h 51.350004 v 33.35441 c 0,6.7965 0,11.28546 5.294135,16.60603 l 8.810288,8.83932 C 70.751051,198 75.041105,198 81.532175,198 h 42.951555 c 6.48733,0 10.77366,0 16.05286,-5.30684 l 8.84637,-8.87428 c 5.27796,-5.30434 5.27796,-9.7933 5.27796,-16.5898 v -59.79121 l -11.076,-5.0159 z"
       id="path2"
       sodipodi:nodetypes="ccsccssccccsccssccscccscccccsccssccscsccsscccssccscccccccsccssccsccc"
       style="fill:#144432;fill-opacity:1" />
    <polyline
       points="73.619 108 73.619 102.248 83 102.25 83 80 42 80 42 102.25 51.378 102.25 51.378 108 73.619 108"
       id="polyline2"
       style="fill:#144432;fill-opacity:1" />
  </g>
</svg>
