<svg width="80" height="65" viewBox="0 0 80 65" xmlns="http://www.w3.org/2000/svg" xmlns:xlink="http://www.w3.org/1999/xlink"><defs><path id="a" d="M0 .1h35.856v58.406H0z"/><path id="c" d="M0 64.594h79.674V.1H0z"/></defs><g fill="none" fill-rule="evenodd"><path d="M14.255 48.727h11.572V31.668H14.255v17.06zm0-26.406h11.572v-11.83H14.255v11.83zM.8 48.727h4.226V10.491H.799V1.21h28.538l5.72 5.622v15.294l-4.095 4.117 4.095 4.249v21.634l-5.785 5.883H.799v-9.282z" fill="#C00"/><g transform="translate(0 .307)"><mask id="b" fill="#fff"><use xlink:href="#a"/></mask><path d="M29.01 1.707l5.248 5.156v14.623l-4.418 4.442 4.418 4.583v20.978l-5.32 5.41H1.598v-7.675h4.226V9.381H1.598V1.707h27.413zM0 .1v10.888h4.225v36.629H0v10.89h29.606l6.25-6.357V29.86s-2.95-3.062-3.773-3.914l3.773-3.794V6.186L29.662.1H0z" fill="#A3011B" mask="url(#b)"/><mask id="d" fill="#fff"><use xlink:href="#c"/></mask><path d="M15.054 21.21h9.973V10.989h-9.973v10.223zm-1.598 1.608h13.17V9.38h-13.17v13.437zM15.054 47.617h9.973V32.165h-9.973v15.452zm-1.598 1.607h13.17V30.558h-13.17v18.666z" fill="#A3011B" mask="url(#d)"/><path fill="#C00" mask="url(#d)" d="M39.028.903h17.68v9.282h-4.224V48.42H65.42V10.185h-4.226V.903h17.68v9.282H74.65v41.83l-5.655 5.687H49.038l-5.785-5.687v-41.83h-4.225z"/><path d="M78.075 1.707V9.38h-4.224v42.301L68.664 56.9h-19.3l-5.312-5.222V9.381h-4.225V1.707h16.082V9.38h-4.224v39.843h14.534V9.381h-4.226V1.707h16.082zM60.395.1v10.888h4.225v36.629H53.284V10.988h4.224V.1h-19.28v10.888h4.225v41.365l6.259 6.153h20.614l6.124-6.158v-41.36h4.224V.1h-19.28z" fill="#A3011B" mask="url(#d)"/><path d="M44.48 62.162l-1.43-.66s-1.285 1.814-2.071 2.604c-.786.792-2.217.455-2.698.135-.48-.322-2.187-1.813-4.212-2.818-2.026-1.005-4.302-2.878-4.302-2.878-.364-.34-2.555-2.478-2.62-4.94-.069-2.685.169-4.868 2.741-5.27l.209-.473-1.87-2.136 2.69.396.47-.893s.272-.21.626-.024c.354.187.656.35.656.35l1.336-2.423s-.447-.956-1.29-2.019c-.84-1.063-1.167-2.055-.98-3.274.185-1.22.709-3.25 1.326-4.001.166.14-3.145-2.384-1.585-4.595 1.978-2.805 3.429-3.577 5.928-5.405 2.51-1.837 2.458-1.35 2.375-.572-.083.776-1.068 1.62-1.92 2.199.078-.27-.917 2.318-1.552 2.828.013.206-.466 1.395-.582 1.464 0 0 2.493-2.146 4.327-1.688 1.835.459 3.861 1.928 3.861 1.928s.773.057.98.126c0 0-.961-1.049.21-2.325.806-.879 1.903-1.694 4.145-2.54.333-.124.608.042.04.818-.563.777-.767.622-.767.622s-.378 1.108-.77 1.731c-.098.158-.317 1.232-.772 2.4 0 0 3.924 2.359 4.905 4.88.4 1.026.15 1.927-1.145 3.439 0 0 .073 1.185-.387 2.036 0 0 .966.523 1.515 1.09 0 0 1.81.419 2.064.897.252.477.78 3.075.031 5.04-.747 1.966-1.81 3.082-2.605 3.106 0 0-.484.558-.821.63-.338.073-.542-.053-.706.12-.164.173-.486.695-1.063.673-.577-.024-.75-.08-.75-.08s-1.628.81-2.178.902c0 0 2.936 2.147 3.176 7.387.107 2.331-1.399 2.184-2.267 1.941a52.582 52.582 0 0 1-2.268-.728" fill="#231F20" mask="url(#d)"/><path d="M40.915 28.78s4.461 4.386 4.798 6.251c.082.455.078 1.05-.423.684-.5-.366-2.466-1.605-2.83-1.77-.364-.164-.502-.166-.273.258.233.423.966 1.799 2.834 3.433 1.868 1.635 2.262 1.988 2.357 2.316.095.328-.19 1.484-.325 1.69-.136.204-.757.243-1.246.324-.49.083-1.721.616-2.766 1.786-.23.257-.469.312-1.08.544-.613.232-1.937 1.077-2.25 2.438 0 0-1.196-1.864-2.183-2.192-.987-.328-1.16-.557-1.691.082-.531.64-1.154 1.646-1.208 2.913-.054 1.27.176 2.618.867 3.366.691.75 1.096 1.157 1.368 1.115.272-.04 1.531-1.378 1.844-1.497 0 0-.408.454-.422.628 0 0 1.126-.546 2.075-.368 0 0-.082-.696-.068-.845 0 0-.949-.192-1.572.068-.622.26-1.615.694-2.006.708-.392.014-.891-.315-1.137-.886-.244-.571-.258-.83-.258-.83s.323.885.677 1.104c0 0-.705-1.785.231-4.155 0 0-.543.505-.868 1.254 0 0 .337-1.462 1.276-2.004.446-.257.772-.096.677-.014a1.498 1.498 0 0 1-.259.164s.5.326.677.572c.178.246.248.204.49.273.242.068.606.87.85 1.226.246.355.651.666.896.776.245.11.462.423.462.423s.01-.777.324-1.009c0 0-.34 1.402-.15 2.453.19 1.05.842 2.955 2.278 3.2 1.436.247 3.385.11 4.807-.871 1.422-.98 2.52-2.22 3.415-4.224 0 0-.095 1.022-.84 1.895-.077.089-.067.311.137.407.203.096.948.369.948.369s.299.039.718-.329c.419-.365 1.664-1.634 1.895-3.854.232-2.22-.175-3.28-.554-3.444-.38-.164-1.6-.762-3.171-.736-1.572.028-3.32.203-3.32.203s1.504-.53 4.147-.449c0 0-1.032-.571-3.075-.872 0 0 .043-1.214.245-1.662.2-.448.918-1.266 1.218-1.987.298-.723.663-2.139.676-2.425.013-.288-.098-.546-.231-.192-.133.356-.515 1.32-.636 1.444-.122.123-.297.071-.35-.161-.055-.233-.464-1.946-1.208-3.201-.745-1.255-1.812-2.563-3.303-2.713 0 0 1.609 1.283 1.827 1.895 0 0-1.53-1.485-3.157-2.452-1.626-.968-2.154-1.12-2.154-1.12" fill="#FFF" mask="url(#d)"/><path d="M33.719 33.582s.969-2.45 4.184-4.694c1.06-.74 2.1-.595 3.574.85 1.472 1.443 3.042 3.49 3.754 5.127.179.415.288.78-.2.395-.487-.384-2.45-1.534-2.852-1.69-.402-.157-.744-.237-.587.422.155.659 1.652 2.895 3.852 4.539.845.63 1.665 1.286 1.593 1.796-.072.509-.362 1.189-.362 1.189s-2.462.266-6.442-3.276c-1.886-1.678-2.657-2.65-3.862-2.28-.553.169-.749.436-.868.703 0 0 .627-.825 2.1-.097 0 0-1.11-.17-1.81.363 0 0 1.547-.368 2.099.147.338.314.313.654.313.654s-.9.846-.952 2.524c0 0 .376-1.82.856-2.069 0 0-.628 1.778-.647 3.042 0 0 .056.98-.138 1.004-.192.025-1.374-.097-1.592.206 0 0 .82-.06 1 .292 0 0-.77.206-1.084.072-.314-.134-2.365-2.572-2.269-4.755.097-2.184 1.35-3.543 1.35-3.543s-.76.537-.986.83c-.092.119-.279.206-.165-.305.112-.511.653-1.852 1.438-2.576 0 0-.55.223-1.297 1.13" fill="#231F20" mask="url(#d)"/><path d="M39.91 38.349l1.339.941s.37.502.297 1.113c-.086.722-.219 1.602-.882 1.937l-1.234.484s-.827-.911-.79-1.89c.036-.978.48-2.212 1.27-2.585" fill="#929497" mask="url(#d)"/><path d="M46.224 30.971s-.056-.387.133-.731c0 0-.249.299-.267.566 0 0-.34-.756-.176-1.107.166-.35.982-1.412.982-1.412s.093.701-.091 1.301-.362 1.29-.58 1.383" fill="#C00" mask="url(#d)"/><path d="M47.034 28.075s.11 1.125-.247 2.103c0 0 .302-.627.404-1.328 0 0 .073.24.046.397 0 0 .165-.877.21-1.291 0 0 .44-.279.607-1.366 0 0 .835-.516 1.027-.866 0 0-1.3.567-2.56 1.566-1.212.96-1.542 1.836-1.542 1.836s-.074.499.459 1.163c0 0 .294-.682.743-1.282.45-.6 1.064-1.31 1.248-1.457 0 0-.366.47-.395.525" fill="#231F20" mask="url(#d)"/><path d="M45.952 27.983s1.251-1.346 2.564-1.888c0 0-.123.186-.21.237-.087.052-1.546.926-2.354 1.65" fill="#E6E6E7" mask="url(#d)"/><path d="M33.527 32.188s-.117-2.399.403-3.108c.519-.709 1.635-1.589 1.635-1.589s-.218 2.065-1.488 4.175c0 0 .046-.764.162-1.02 0 0-.402.592-.518 1.308l-.194.234z" fill="#C00" mask="url(#d)"/><path d="M35.82 27.32s-.255 1.76-1.224 3.707c0 0 .914-1.137 1.154-2.609 0 0 1.108-1.52 1.394-2.71 0 0 .055.591-.093.927 0 0 .473-1.238.59-1.38.116-.139 1.123-.778 1.27-1.183.148-.405.193-.545-.221-.292-.414.253-4.411 2.98-5.93 4.724 0 0 1.58-1.31 1.89-1.434 0 0-3.222 2.586-2.448 4.269 0 0 .093-.748.31-1.028 0 0-.185 1.745.465 2.399l.145-.183s-.125-2.439.567-3.4c.692-.961 2.07-2.37 2.886-2.635l-.755.828z" fill="#231F20" mask="url(#d)"/><path d="M41.765 39.755s2.103 1.534 2.724 1.626c0 0-2.171.446-2.924.666 0 0 .437-1.125.2-2.292M39.667 38.092s-1.21 1.142-1.247 2.567c-.036 1.424.584 2.312.584 2.312l-.255.073s-1.082-1.107-.954-2.493c.127-1.39.77-2.347 1.252-2.685.182-.129.31-.092.42 0 .109.092.2.226.2.226" fill="#FFF" mask="url(#d)"/><path d="M40.202 40.232c.074.208.262 1.222-.092 1.907-.352.685-.789.257-.88.073-.093-.184-.237-.94 0-1.534.237-.593.758-1.06.972-.446" fill="#231F20" mask="url(#d)"/><path d="M40.591 41.307s.182-.336.182-1.203c0 0 .348.495.092 1.552 0 0 .499-1.113.146-2.274 0 0-.753-.52-.9-.648-.146-.128-.389-.067-.516.06-.128.129-.626.643-.736 1.254l.145-.146s-.255.649-.145 1.387c0 0 .368-1.732.9-1.889.499-.147.693.227.79.575.097.349.042 1.332.042 1.332M41.84 40.618s.468.195.812.436c.344.242.73.561.73.561l1.107-.234s-.603-.07-2.724-1.626c0 0 .108.675.074.863M39.08 38.801s-.152-.344-.544-.4c0 0 .349-.48.582-.573.234-.093.321-.019.55.264 0 0-.425.43-.588.709" fill="#E6E6E7" mask="url(#d)"/><path d="M36.987 38.845s-.282.477-.238 1.43c0 0 .118-1 .379-1.299l-.141-.13z" fill="#231F20" mask="url(#d)"/><path d="M37.52 38.352s-.653.94-.728 2.287h.185s.053-1.15.544-2.287M37.824 38.934s-.35 1.157-.426 2.306c0 0-.119-.079-.119-.22 0-.142.22-1.608.545-2.086" fill="#E6E6E7" mask="url(#d)"/><path d="M42.137 39.085s.86.865 4.082 1.784l.142-.32.144-.023s-.033.455-.122.6c-.088.144-.22.078-.22.078s-2.901-.876-4.026-2.12" fill="#231F20" mask="url(#d)"/><path d="M49.722 40.293s.197.35-.03.863l.177.01s.383-.664.08-1.106l-.227.233z" fill="#FFF" mask="url(#d)"/><path d="M49.642 40.42l-.132.153s-.01.38-.11.465c-.102.088-.212-.03-.222-.203l-.157.103s.005.178.107.188c.101.01.403.01.403.01s.272-.269.11-.716" fill="#929497" mask="url(#d)"/><path d="M49.117 41.278l.04.121s.944.174 1.806.544c0 0-.19-.471-1.382-.655-.172-.026-.464-.01-.464-.01M50.323 39.766s0 .959-.302 1.451l.172.04s.402-.39.332-1.623l-.202.132z" fill="#231F20" mask="url(#d)"/><path d="M34.653 32.322s2.11-2.688 3.53-3.38c1.418-.692 2.588.355 3.045.755.46.401 2.317 2.287 3.736 4.933 0 0-2.966-4.51-4.26-4.721-1.292-.212-1.77.083-1.77.083s.289-.442 1.187-.38c0 0-1.003-.607-2.984.82-1.98 1.426-2.316 1.932-2.316 1.932l-.168-.042zM36.505 35.222s1.226-.17 1.783.412a39.86 39.86 0 0 1 1.34 1.518s-1.41-1.575-2.34-1.622c-.93-.045-1.84-.01-2.453 1.405 0 0 1.341-1.506 2.5-1.073 1.157.434 1.93 1.45 2.395 1.85.466.4 2.214 1.896 3.305 2.5.186.105.874.366 1.225.434 0 0-2.51-1.244-3.826-2.98-.219-.29-1.783-2.603-2.816-2.649-1.034-.045-1.113.205-1.113.205" fill="#E6E6E7" mask="url(#d)"/><path d="M46.218 40.869s-3.976-.996-4.966-2.73c0 0 1.609 1.309 3.682 1.825.453.113 1.078.273 1.402.286 0 0 .1.232-.118.619" fill="#E6E6E7" mask="url(#d)"/><path d="M46.49 41.244h.13s.36-.773.32-1.007c-.065-.39-.618-.842-2.792-2.615 0 0 1.904 1.96 2.24 2.342.296.338.36.647.103 1.28" fill="#E6E6E7" mask="url(#d)"/><path d="M39.24 40.99c.044-.282.133-.502.196-.492.065.01.082.247.038.53-.045.28-.132.5-.198.49-.065-.01-.08-.247-.036-.528" fill="#FFF" mask="url(#d)"/><path d="M46.699 31.057s1.97 2.726 2.239 4.17c.13.698.073 1.36.298.928.224-.433.567-1.603.762-1.593.195.01.42.227.4.669-.019.442-.465 3.033-1.865 4.537 0 0 .025.922-.168 1.311 0 0 2.147-1.553 3.016-3.203.912-1.732-.194-3.081-1.181-4.125-1.772-1.867-3.501-2.694-3.501-2.694" fill="#231F20" mask="url(#d)"/><path d="M47.022 31.317s1.001 1.41 1.385 2.314c0 0-.278-.954-.533-1.345 0 0 1.72 1.034 2.897 2.506 0 0-1.049-1.842-3.75-3.475M48.85 40.06l.002-.222s1.596-1.25 1.98-1.766c.387-.513.612-1.09.563-2.028 0 0 .432.874-.115 1.815-.546.94-1.008 1.44-2.065 2.391l-.326.05-.04-.24z" fill="#E6E6E7" mask="url(#d)"/><path d="M48.9 40.262s.783-.638 1.625-1.592c0 0-.833 1.217-1.676 1.943 0 0-.181.092-.192.02-.01-.07.032-.319.1-.471l.092-.103.05.203zM35.513 43.532s.543-.795 1.972-.488c0 0 .573.65 1.269.412.696-.24 2.67-.977 3.422-.94 0 0-2.03.7-2.726 1.458 0 0 2.03-.988 2.783-.988l.306.134-.306.289s-1.781.411-2.496 1.733c0 0-.202-.745-1.232-1.168 0 0 1.06.93 1.155 1.61l-.038.643s-1.067-2-2.955-2.272c-.669-.096-1.564.411-2.565 2.721 0 0 .305-2.012 1.697-2.952.581-.391 1.45-.019 1.525 0 .077.019-.752-.538-1.811-.192" fill="#231F20" mask="url(#d)"/><path d="M41.316 42.752s-1.115.39-2.468 1.125c0 0 .408-.499.977-.707.567-.21 1.49-.418 1.49-.418M39.523 44.388s1.572-1.205 2.51-1.303l.316.043-.4.208s-1.145.29-2.426 1.052M35.675 43.444s.491-.359 1.13-.22c.637.14 1.322.585 1.668.874.346.29 1.078 1.139 1.078 1.582 0 0-.69-1.247-1.628-1.512-.938-.264-1.313-.473-1.794-.264-.481.209-.924.582-1.433 1.413 0 0 .333-.887 1.09-1.455.759-.568 2.137.14 2.137.14s-.498-.485-1.063-.582c-.564-.098-.852-.073-1.185.024M46.946 44.377s-.086.196.5.502c.585.305 1.231.675 1.294.988.063.313 1.015 1.027 1.295 1.184.28.157.032.526.28.557.25.031.68-.18.743-.494.061-.314-1.295-2.118-1.295-2.118l-2.817-.62z" fill="#E6E6E7" mask="url(#d)"/><path d="M49.282 45.826s.52.404.758.675c.238.27.69.677.898.677.21 0 .381-.192.745-.618.362-.424.451-.61.576-.934.126-.323.445-.973.616-1.155.17-.184.335-.51.042-.75-.295-.238-1.147-.649-2.272-.663-1.125-.014-2.53.074-3.33.495-.8.422-.66.93.085 1.085.743.155 1.7.533 2.077.875.141.127.407.34.155.313-.252-.028-.35 0-.35 0" fill="#231F20" mask="url(#d)"/><path d="M51.473 45.668s.294-1.211.182-1.805c-.054-.286-.354-.422.167-.352.52.069.965.378.87.706-.055.197-.167.37-.196.099-.027-.27-.38-.14-.492.028-.111.167-.125.278-.14.52-.013.242-.39.804-.39.804" fill="#231F20" mask="url(#d)"/><path d="M51.473 44.877s.21-1.046-.45-1.552c0 0-1.069-.206-2.667.143-.772.17-1.557.594-1.292.847.264.254 1.234.32 1.67.562.437.243 1.757.724 1.293 1.13 0 0 .503.159.42-.082-.085-.243-.772-.906-1.798-1.258-1.023-.352-1.092-.426-1.107-.51 0 0 .713.2 1.177.187.466-.014.798.238 1.294.197.504-.044.996-.158 1.023-.566 0 0 .465.464.437.902" fill="#231F20" mask="url(#d)"/><path d="M51.753 43.877l-.112-.31s.772.042.968.465c.037.08 0 .227 0 .227s-.095-.2-.433-.312c-.34-.112-.423-.07-.423-.07M51.389 44.217s-.045-.493-.408-.776c0 0-1.094-.155-2.304.07-1.208.224-1.585.601-1.557.675.028.073.45.256.772.34 0 0-.48-.255-.437-.41l.115-.084.532.154s.604-.38 1.349-.436c.742-.056 1.417 0 1.544.127l-.028-.169s.339.241.422.51" fill="#FFF" mask="url(#d)"/><path d="M39.944 48.6s-.148.586-.095.957c0 0 .292-.406.472-.44v-.13s-.3-.353-.377-.388M40.047 49.635s.128-.207.274-.268l-.008.353s-.198-.076-.266-.085" fill="#E6E6E7" mask="url(#d)"/><path d="M39.73 48.495s-.12.605-.051 1.088c0 0-.653.024-1.021.215 0 0 .42-1.103 1.072-1.303M39.532 48.392s-.868.567-1.15 1.26c0 0-.73-1.286-.07-2.96 0 0 .556 1.257.954 1.536.085.06.266.164.266.164" fill="#FFF" mask="url(#d)"/><path d="M37.902 47.064s-.327 1.682.284 2.864c0 0-.85.645-1.665.534 0 0-.181-.06-.068-.518.11-.455.454-1.87 1.449-2.88" fill="#FFF" mask="url(#d)"/><path d="M37.747 46.38s.338.024.386.133c0 0-1.64 1.601-1.906 3.409 0 0-.76-2.123.434-4.318 0 0 .204-.158.35-.061.145.097.627.593.736.837" fill="#FFF" mask="url(#d)"/><path d="M36.52 45.88s.09-.185.14-.276c0 0 .206-.158.35-.06.146.095.628.593.737.836 0 0 .338.024.386.134 0 0-.888.866-1.463 2.044 0 0 .006-1.262.64-1.937 0 0-.78-.54-.79-.742M37.615 49.842c-.113-.28-.075-1.81-.075-1.81-.228.177-.777.888-.777.888.221-.583.575-1.284 1.139-1.856 0 0-.327 1.682.284 2.864 0 0-.154.116-.393.241 0 0-.064-.05-.178-.327M38.828 48.187c-.204-.088-.201-.498-.39-.625-.19-.126-.38.158-.38.158.034-.319.112-.663.255-1.028 0 0 .556 1.257.953 1.536.085.06.266.164.266.164s-.868.568-1.15 1.26l-.057-.118c-.089-.712.503-1.347.503-1.347M39.385 48.693a.982.982 0 0 1 .345-.197s-.12.604-.051 1.087l-.35.033c-.081-.34.056-.923.056-.923M44.399 30.457s2.47 1.953 2.895 3.457c0 0-.21-1.827-.995-2.541-.784-.714-1.497-.893-1.9-.916M46.448 36.808s-.073.291.087.415c.16.125 1.144.838 1.457.838.314 0 .587-.427.587-.427l-.15-.286s-.333.211-.634.148c-.302-.062-1.347-.688-1.347-.688" fill="#E6E6E7" mask="url(#d)"/><path d="M46.248 37.039s1.376 1.22 1.783 1.163c.407-.057.624-.639.624-.639s-.442.459-.624.436c-.182-.023-.457-.092-1.783-.96" fill="#231F20" mask="url(#d)"/><path d="M47.005 42.646c.358-.11 1.788-.491 4.058-.42 0 0-1.032-.57-3.075-.872 0 0 .043-1.214.245-1.662.2-.448.918-1.266 1.218-1.987.298-.722.662-2.139.676-2.425.013-.288-.098-.546-.231-.192l-.026.07-.172.74c-.075.755-.908 2.6-1.499 3.014-.591.413-1.11-.113-1.292-.278-.18-.162-2.385-2.03-3.341-3.104-.956-1.076-.158-.71.14-.59.299.117.947.343.947.343-.782-.51-1.924-1.216-2.192-1.338-.365-.163-.503-.166-.274.258.232.423.966 1.799 2.834 3.433 1.868 1.635 2.261 1.988 2.358 2.315.094.33-.192 1.485-.326 1.69-.136.205-.757.244-1.246.325-.386.065-1.23.41-2.081 1.123 0 0 1.457-1.022 3.954-1.14l.952.091s-1.385.118-2.248.64l.62-.034z" fill="#E6E6E7" mask="url(#d)"/><path d="M46.35 37.808s-.125-.312-.125-.435c0 0 1.12 1.012 1.644.963.524-.05.587-.3.587-.3l.415.017-.267.469-.562.366-.55-.204-1.142-.876z" fill="#E6E6E7" mask="url(#d)"/><path d="M46.031 37.574s1.364 1.473 2.068 1.428c0 0 .536-.108.772-.95 0 0-.463.767-.816.743-.355-.023-.956-.387-2.024-1.22M47.996 40s-.07 1.116-.232 1.46l-.268.07s.359-.906.5-1.53M47.366 42.014s1.03-.26 2.326-.189l.38.118s-2.015-.031-2.706.07" fill="#231F20" mask="url(#d)"/><path d="M51.132 47.621c-.32.973-1.104 2.134-1.568 2.675-.461.542-1.127 1.208-2.613 1.96-1.487.754-2.745.558-2.745.558l-.07-.304c-.657.093-1.624-.984-1.624-.984s.172-.15.344-.242.154-.211 0-.291c-.76-.401-1.289-1.588-1.289-1.588.184.08.517-.047.517-.047-.497-.184-.573-.845-.551-1.18.024-.333-.393-.764-.462-.964-.07-.2.228-.753.228-.753-.783.253-1.264 1.287-1.264 1.287s-.091-.069-.59-.51c-.496-.444-.518-.812-.667-1.042-.15-.232-.739-.312-.762-.393-.043-.156-.6-.603-.6-.603.08-.138-.09-.28-.344-.27-1.314.06-1.712 2.27-1.712 2.27-.042-.504-.014-1.096.599-2.033.613-.937 1.38-.69 1.38-.69-.824-.29-1.008-.45-1.502.147-.531.64-1.154 1.646-1.208 2.913-.054 1.27.177 2.617.867 3.366.691.75 1.096 1.157 1.368 1.115.272-.04 1.531-1.378 1.844-1.497 0 0-.408.454-.422.628 0 0 1.126-.546 2.075-.368 0 0-.082-.696-.068-.845 0 0-.949-.191-1.572.068-.622.26-1.615.694-2.006.708-.391.014-.891-.315-1.137-.886-.244-.571-.258-.83-.258-.83s.323.885.677 1.104c0 0-.705-1.785.231-4.155 0 0-.543.505-.868 1.254 0 0 .337-1.462 1.276-2.004.446-.257.772-.096.677-.014-.095.083-.259.164-.259.164s.5.326.677.571c.178.247.248.206.49.275.242.067.606.869.85 1.225.246.355.651.666.896.775.245.11.462.424.462.424s.01-.777.324-1.009c0 0-.34 1.402-.15 2.453.19 1.05.842 2.955 2.278 3.2 1.436.247 3.385.11 4.807-.871 1.415-.976 2.509-2.206 3.406-4.192l.038-.575z" fill="#E6E6E7" mask="url(#d)"/><path d="M36.54 50.976s.098.687.535.519c.438-.168.703-.657.703-.657s-.594.168-.821.157c-.225-.009-.417-.019-.417-.019M38.68 50.818s.13-.401.545-.46c.414-.06.624.03.624.03s-.32.231-.545.262c-.227.029-.624.168-.624.168" fill="#FFF" mask="url(#d)"/><path d="M53.966 46.526c-.374 1.706-1.064 2.53-1.475 3.035-.408.505-.864.81-1.416.67-.548-.14-.47-.65-.47-.65-.095.159-.207.32-.341.478-.078.089-.068.311.136.407.204.096.948.368.948.368s.299.04.718-.327c.419-.366 1.663-1.634 1.895-3.854l.005-.127zM43.33 50.83s-.32-.083-.212-.238c.107-.156.25-.142.357-.2.108-.06-.068-.204.12-.216.188-.013.2.164.176.32-.024.156-.036.312-.036.312l-.223.083-.182-.06z" fill="#E6E6E7" mask="url(#d)"/><path d="M43.32 50.636s.113.229.26.183c.147-.045.159-.275.159-.275s.214.286-.036.401c-.249.115-.35-.045-.373-.115-.023-.067-.01-.194-.01-.194" fill="#231F20" mask="url(#d)"/><path d="M42.927 49.147s-.39-.051-.247-.24c.142-.189.187-.345.271-.38.084-.037.333.026.25.287-.083.261-.274.333-.274.333" fill="#E6E6E7" mask="url(#d)"/><path d="M43.023 48.73s.33.239.136.446c-.194.204-.465.01-.488-.058 0 0 .272.01.34-.07.07-.08.012-.318.012-.318" fill="#231F20" mask="url(#d)"/><path d="M34.278 43.7l-1.695 3.105s.691 1.028.981 1.26c0 0 .152-1.946.743-2.783.592-.836-.03-1.583-.03-1.583" fill="#E6E6E7" mask="url(#d)"/><path d="M34.078 44.06s-.689 1.444-.725 2.245c-.035.8-.07 1.421-.07 1.421l-.7-.92 1.495-2.747zM40.997 52.18s-.135-.624-.392-.707c-.256-.083-1.883-.362-2.676.257 0 0 1.132.422 2 .458.869.035 1.068-.008 1.068-.008" fill="#FFF" mask="url(#d)"/><path d="M38.906 51.372c-.363.048-.715.153-.977.358 0 0 1.132.422 2 .458.869.034 1.068-.008 1.068-.008l-.096-.314c-1.187.114-1.995-.494-1.995-.494" fill="#E6E6E7" mask="url(#d)"/><path d="M32.574 45.9l-.246.384s-.135-.067-.158-.225c0 0-.224.023.135.754.36.732 1.904 3.15 2.72 3.95l-.38.157s-.684-.777-.84-.866c0 0 .144-.79-.906-1.554-.729-.527-1.5.114-1.5.114s-.536-.158-.985-.203l1.276-2.622s.135-.496.884.112" fill="#C00" mask="url(#d)"/><path d="M31.31 48.14s-.123-.405.47-.708c0 0-.47-.248-.973.799l-.18-.045 1.198-2.353s.076-.155.279-.1c0 0-.222.293-.1.641.122.35.346.843 1.186 2.15 0 0-.301-.26-.683-.384 0 0-.301-.55-.503-.483-.202.068-.617.304-.695.483M28.87 46.082l2.003.338-.314.506-1.051-.642.951.822-.134.303zM31.69 48.749s.515-.483 1.13-.023c.617.46.594 1.013.594 1.013l-.314-.168s-.07-.48-.511-.765c0 0 .254.449.254.54 0 0-.973-.575-1.153-.597M34.913 51.223s.212-.155.391-.077l.517.663s0 .44-.046.53c0 0-.682-.947-.862-1.116" fill="#FFF" mask="url(#d)"/><path d="M35.942 51.945l-.032.551.1.28s.313-.136.18-.663l-.248-.168z" fill="#E6E6E7" mask="url(#d)"/><path d="M36.256 53.25s.403-.226.269-.776c0 0 .61.422 1.185-.452 0 0 1.602.7 3.426.452 0 0 .413.766 1.208 1 0 0-.615 0-.795.53-.178.528-.01 1.079.314 1.168l1.231-.044s-1.131.721-2.474.698l-.48-.338-1.041-2.598s-.379-.518-1.254-.024c-.359.204-.359.867-.246 1.048l.336.315-1.387-.384-.292-.596z" fill="#C00" mask="url(#d)"/><path d="M39.166 54.87l-.527-.27-.75-1.002s-.16-.48.372-.633c.532-.154.754.094.854.38.098.288.763 1.923.763 1.923l-.52-.325-.835-1.347s-.22-.415.033-.525c0 0-.39.002-.337.356.027.178.947 1.443.947 1.443M44.838 54.669l-2.53.145s-.62.106-.627-.338c-.007-.445.339-.783.58-.79.239-.007 2.577.983 2.577.983" fill="#FFF" mask="url(#d)"/><path d="M27.458 52.087s.07-1.628 1.218-2.205c0 0-1.353 2.151-.422 4.981.669 2.031 2.417 3.033 2.417 3.033s.069-3.18 1.168-3.834c1.098-.651 2.846-.772 4.137-.397 0 0-.85-3.206-4.137-4.585-3.287-1.378-4.183 1.33-4.233 1.703-.05.372-.148 1.304-.148 1.304" fill="#231F20" mask="url(#d)"/><path d="M35.174 53.502s.55.09.802.163c0 0-.85-3.206-4.137-4.585-2.648-1.11-3.744.432-4.097 1.267 0 0 .71-1.452 2.558-1.267 0 0-1.158.253-1.467 1.106 0 0 1.061-1.378 2.76-.446 1.7.932 3.303 2.653 3.581 3.762M41.106 56.062s1.398.954 1.753 1.373c0 0 1.69-.385 1.958-.385 0 0-1.362-1.314-1.929-1.374-.567-.06-.802.206-.98.237-.179.03-.802.149-.802.149" fill="#E6E6E7" mask="url(#d)"/><path d="M43.342 57.322s-.497-.657-.76-.815c-.264-.158.088-.302.39-.214.301.089 1.412.814 1.412.814l-1.042.215z" fill="#FFF" mask="url(#d)"/><path d="M42.023 58.24s1.705-1.11 3.352-.913c0 0-.16 1.119-.148 1.506 0 0-.42.14-.534.184 0 0-1.267-.283-1.977-.15-.18.035-.396.21-.453.14-.057-.071.273-.3.273-.377 0-.081-.07-.183-.206-.241a4.157 4.157 0 0 1-.307-.148" fill="#231F20" mask="url(#d)"/><path d="M44.874 57.304s-.17.06-.035.31c.137.25.137.409-.044.432-.182.022-1.43.001-1.749.184-.32.183-.41.273-.41.273s-.191-.124-.18-.262a.888.888 0 0 1 .112-.309s1.41-.662 2.306-.628" fill="#E6E6E7" mask="url(#d)"/><path d="M41.45 58.641s.104 2.19-1.37 3.001c-1.475.812-2.63.782-3.194.567 0 0 2.072 2.037 3.054 1.372.982-.666 3.611-3.918 4.348-4.197 0 0-1.309-.328-1.927-.176-.284.07-.458-.149-.319-.32.11-.137.371-.367.047-.373a2.857 2.857 0 0 0-.422.012l-.217.114z" fill="#231F20" mask="url(#d)"/><path d="M45.199 59.4s-.713.673-1.255 1.322c0 0 2.314 1.544 3.758 1.45.798-.051.823-.673.823-1.502 0-.826.016-3.203-1.57-5.383-.924-1.271-1.696-1.579-1.696-1.579s-1.214.18-1.935.078l2.19.93-1.698.366s.976.615 1.671 1.655c0 0 .306-1.092.926-1.296 0 0-.493.98-.493 1.604 0 0 .441-.828 1.035-.905 0 0-1.092 1.301-.976 2.953.026.357.094.724-.236.724-.331 0-.603-.29-.544-.417" fill="#231F20" mask="url(#d)"/><path d="M45.963 54.572l-.235.01c.225.195.793.852.793.852-.17.29-.287.916-.287.916s.17-.387.267-.55c.095-.164.245.02.44.152.196.133.118.27.118.27-.762.797-.902 2.145-.902 2.145.102-.563.492-1.134.731-1.487.306-.456.5.062.738.813.58 1.83.025 3.729.025 3.729 0 .443.655.481.655.481.21-.268.219-.71.219-1.233 0-.826.016-3.203-1.57-5.383-.924-1.271-1.696-1.578-1.69-1.578.175 0 .698.863.698.863" fill="#E6E6E7" mask="url(#d)"/><path d="M42.525 57.523c.271 0-2.045-1.907-4.658-2.933-2.611-1.023-3.558-1.149-5.306-.651-.87.247-1.544 1.65-1.52 2.427 0 0-.05.877.082 1.504.132.628.618.762.618.762l.294.014s.033-.554.206-.677c0 0-.05-2.825 1.815-3.626 0 0-1.602 1.18-1.347 3.081 0 0-.033.644.123 1.321.157.678.803.808.803.808s.264.117.569.117c0 0-.246-3.451 1.947-4.229 0 0-2.169 1.703-1.396 3.858 0 0 .353.05.55.528.198.48.541.827.443 1.023 0 0 1.372 1.471 3.492.423 2.119-1.05 1.765-3.255 1.765-3.255s-.403-1.114-.55-1.297c0 0 .59.644.846 1.272 0 0 .954-.47 1.224-.47" fill="#FFF" mask="url(#d)"/><path d="M39.738 55.576c.284.177 1.746 1.63 1.746 1.63-.099-.018-.622.025-.622.025.16.224.33.494.439.762 0 0 .954-.47 1.224-.47.194 0-.926-.967-2.528-1.893l-.259-.054zM35.183 56.533c-.455.697-.745 1.808-.488 2.874 0 0 .082.255.257.743.129.355.836.873.836.873s1.332 1.298 3.452.25c2.119-1.05 1.765-3.255 1.765-3.255s-.097-.268-.207-.565c0 0 .206 2.186-1.362 2.986-1.568.802-2.316.486-2.679.437-.355-.047-.622-.394-.873-.563 0 0-.29-.388-.387-.583-.078-.157-.26-.722-.26-.722s-.265-1.018-.193-1.552c.072-.534.139-.923.139-.923M32.583 55.32c-.41.414-.724.899-.724.899-.52.91-.825-.009-.825-.009-.089.328-.066.984-.04 1.52.033.645.665.983.665.983l.677.339s-.098-.76-.095-1.083c0 0-.045-2.551 1.55-3.492 0 0-.798.43-1.208.844" fill="#E6E6E7" mask="url(#d)"/><path d="M34.659 56.29c-.58.51-.943 1.651-.943 1.651-.498.53-.996-.31-.996-.31-.032.225.02.642.048.824.144.903.77 1.29.77 1.29s.361.15.665.15c0 0-.24-3.605 1.88-4.429 0 0-.846.316-1.424.824" fill="#E6E6E7" mask="url(#d)"/><path d="M48.445 52.36s1.44-1.486 1.63-1.894c0 0 .305.299.623.384.317.086.381.308.276.393-.107.085-.706.456-1.311.512-.235.02-.497.434-.666.52-.171.086-.552.086-.552.086" fill="#FFF" mask="url(#d)"/><path d="M50.477 51.308c.127-.109 0-.16-.255-.202-.337-.057-.915.33-.915.33.345-.386.682-.786.767-.97 0 0 .306.299.624.384.318.086.381.308.276.393-.107.085-.707.457-1.312.512a.292.292 0 0 0-.029.004s.717-.345.844-.451M43.641 49.638s-.39-.05-.247-.24c.142-.19.189-.345.27-.38.085-.036.335.026.252.287-.083.26-.275.333-.275.333" fill="#E6E6E7" mask="url(#d)"/><path d="M43.398 49.483s.124.308.351.24c.228-.069.351-.376.068-.525 0 0 .023.297-.114.32-.134.023-.305-.035-.305-.035" fill="#231F20" mask="url(#d)"/><path d="M44.001 48.995s-.319-.081-.211-.238c.106-.155.249-.14.356-.2.108-.06-.069-.205.12-.217.188-.011.2.165.176.322-.025.156-.035.311-.035.311l-.225.084-.18-.062z" fill="#E6E6E7" mask="url(#d)"/><path d="M44.101 49.003s.273.092.363.012c.092-.08.07-.365-.191-.423 0 0 .08.216.034.285-.046.07-.206.126-.206.126" fill="#231F20" mask="url(#d)"/><path d="M43.638 48.384s-.312-.032-.198-.152c.115-.123.15-.221.217-.244.067-.023.267.016.201.184-.067.166-.22.212-.22.212" fill="#E6E6E7" mask="url(#d)"/><path d="M43.58 48.376s.271.126.385-.046c.114-.172-.157-.399-.306-.353 0 0 .17.136.125.239-.045.102-.204.16-.204.16" fill="#231F20" mask="url(#d)"/><path fill="#E6E6E7" mask="url(#d)" d="M29.508 46.284l.951.822-.134.303-1.455-1.327zM31.717 48.726s.488-.453 1.104 0c.62.457.593 1.013.593 1.013l-.314-.168s-.065-.455-.478-.743c0 0-.444-.18-.905-.102M38.496 53.077c-.106.017-.317.084-.277.35.027.178.947 1.443.947 1.443l-.527-.27-.75-1.002s-.168-.51.372-.633c.566-.131.663.078.663.078-.359-.018-.428.034-.428.034M44.838 54.669l-2.53.145s-.62.106-.627-.338c-.007-.444.335-.78.582-.79 0 0-.216.231-.242.44-.024.21.124.272.765.309.64.037 1.356.061 1.356.061l.696.173z"/><path d="M42.108 53.927s-.13.363.125.39c.254.029 1.971.193 1.971.193l-1.95-.02s-.34.016-.286-.232c.055-.248.14-.331.14-.331" fill="#231F20" mask="url(#d)"/><path d="M38.865 41.247s.514-2.421 1.67-2.054l-.598-.389s-1.061.44-1.072 2.443" fill="#FFF" mask="url(#d)"/></g></g></svg>