<?xml version="1.0" encoding="UTF-8" standalone="no"?>
<svg
   xml:space="preserve"
   height="148.23618"
   viewBox="0 0 97.711015 148.2332"
   width="97.710503"
   version="1.1"
   id="svg3"
   sodipodi:docname="CIN_2.svg"
   inkscape:version="1.4 (86a8ad7, 2024-10-11)"
   xmlns:inkscape="http://www.inkscape.org/namespaces/inkscape"
   xmlns:sodipodi="http://sodipodi.sourceforge.net/DTD/sodipodi-0.dtd"
   xmlns="http://www.w3.org/2000/svg"
   xmlns:svg="http://www.w3.org/2000/svg"><defs
     id="defs3" /><sodipodi:namedview
     id="namedview3"
     pagecolor="#ffffff"
     bordercolor="#000000"
     borderopacity="0.25"
     inkscape:showpageshadow="2"
     inkscape:pageopacity="0.0"
     inkscape:pagecheckerboard="0"
     inkscape:deskcolor="#d1d1d1"
     inkscape:zoom="0.37285957"
     inkscape:cx="1314.1677"
     inkscape:cy="435.82091"
     inkscape:window-width="3440"
     inkscape:window-height="1377"
     inkscape:window-x="-8"
     inkscape:window-y="-8"
     inkscape:window-maximized="1"
     inkscape:current-layer="svg3" /><g
     transform="matrix(1.25,0,0,-1.25,-344.95612,362.76155)"
     id="g4"
     style="fill:#000000"><path
       id="path3"
       style="fill:#000000"
       sodipodi:type="inkscape:offset"
       inkscape:radius="4.0285678"
       inkscape:original="M 279.99414 175.65039 L 284.11914 189.75 L 318.72461 189.75 L 314.59961 175.65039 L 279.99414 175.65039 z "
       d="m 279.99414,171.62109 a 4.0289706,4.0289706 0 0 0 -3.86719,5.16016 l 4.125,14.09961 a 4.0289706,4.0289706 0 0 0 3.86719,2.89844 h 34.60547 a 4.0289706,4.0289706 0 0 0 3.86719,-5.16016 l -4.125,-14.09961 a 4.0289706,4.0289706 0 0 0 -3.86719,-2.89844 z" /><path
       id="path4"
       style="fill:#000000"
       sodipodi:type="inkscape:offset"
       inkscape:radius="5.9370723"
       inkscape:original="M 72.251953 0.00390625 C 62.924402 -0.22722909 48.539529 9.8760361 46.597656 20.285156 C 46.053906 23.227656 46.810645 25.435469 48.359375 26.667969 C 48.889375 27.241719 49.568544 27.649269 50.402344 27.824219 C 53.006144 28.374219 55.98755 27.495958 58.53125 25.523438 C 60.27005 24.173437 61.798516 22.319659 62.853516 20.068359 C 63.552266 18.570859 64.008722 17.191953 64.232422 15.939453 C 64.552422 14.180653 64.444844 12.678097 64.027344 11.466797 C 63.778594 10.753047 63.429297 10.141719 62.998047 9.6367188 C 62.570547 9.1367188 62.057061 8.7447075 61.488281 8.4609375 C 60.727031 8.0871875 59.909922 7.8896094 59.044922 7.8496094 C 60.166122 7.2971094 61.357684 7.004375 62.521484 7.046875 C 63.463984 7.078125 64.319141 7.321875 65.056641 7.734375 C 65.066641 7.743125 65.086562 7.7510156 65.101562 7.7597656 C 65.367812 7.1497656 65.663437 6.5656531 65.992188 6.0019531 C 67.562187 3.3431531 69.825184 1.2442969 72.271484 0.091796875 L 72.251953 0.00390625 z M 46.810547 5.9238281 C 39.131747 7.3450281 29.146422 17.781813 29.357422 26.382812 C 29.414922 28.825312 30.427344 30.455781 31.902344 31.175781 C 32.439844 31.544531 33.063437 31.753906 33.773438 31.753906 C 36.002237 31.756406 38.293309 30.552734 40.037109 28.552734 C 41.225909 27.187734 42.159872 25.452216 42.638672 23.478516 C 42.957422 22.168516 43.079531 20.995184 43.050781 19.958984 C 43.007031 18.503984 42.665078 17.325781 42.111328 16.425781 C 41.788828 15.900781 41.391056 15.473828 40.947266 15.142578 C 40.507266 14.818828 40.021613 14.588437 39.507812 14.460938 C 38.820312 14.288438 38.11255 14.269062 37.40625 14.382812 C 38.2275 13.754062 39.147081 13.325703 40.113281 13.158203 C 40.889531 13.026953 41.628594 13.075 42.308594 13.28125 C 42.322344 13.28505 42.334453 13.288652 42.345703 13.294922 C 42.458203 12.763672 42.603594 12.250441 42.777344 11.744141 C 43.589844 9.3891408 45.06255 7.3553906 46.84375 6.0253906 L 46.810547 5.9238281 z M 82.701172 13.529297 C 76.311472 13.697767 68.027125 17.509034 65.203125 23.115234 C 64.208125 25.079034 64.269141 26.792656 65.056641 27.972656 C 65.294141 28.490156 65.668379 28.912598 66.193359 29.205078 C 67.843359 30.125078 70.058153 30.108437 72.189453 29.242188 C 73.650653 28.644687 75.077472 27.648544 76.263672 26.277344 C 77.058672 25.364844 77.646094 24.483984 78.058594 23.646484 C 78.652344 22.472684 78.890234 21.392578 78.865234 20.455078 C 78.846484 19.902578 78.734922 19.396925 78.544922 18.953125 C 78.359922 18.515625 78.098281 18.130136 77.769531 17.816406 C 77.335781 17.396406 76.816651 17.091875 76.244141 16.890625 C 77.127891 16.728125 77.983231 16.765547 78.769531 17.029297 C 79.400781 17.240547 79.923331 17.590547 80.332031 18.029297 C 80.345781 18.041797 80.359375 18.048437 80.359375 18.054688 C 80.670625 17.682188 80.991641 17.331426 81.337891 17.003906 C 82.925391 15.478906 84.857003 14.474425 86.720703 14.140625 L 86.730469 14.017578 C 85.547969 13.645628 84.175672 13.490417 82.701172 13.529297 z M 26.855469 18.275391 C 21.041669 20.186591 14.434875 29.218859 15.546875 35.755859 C 15.861875 37.612059 16.827187 38.748672 18.054688 39.138672 C 18.512187 39.363672 19.021749 39.455859 19.574219 39.380859 C 21.309219 39.143359 22.955391 37.981378 24.087891 36.267578 C 24.865391 35.098778 25.399481 33.673488 25.550781 32.117188 C 25.650781 31.080987 25.622578 30.172812 25.486328 29.382812 C 25.291328 28.281613 24.891494 27.417969 24.365234 26.792969 C 24.055234 26.424219 23.699796 26.139854 23.322266 25.933594 C 22.942266 25.736094 22.536777 25.611563 22.123047 25.570312 C 21.571797 25.514063 21.017969 25.575811 20.480469 25.738281 C 21.051719 25.168281 21.718125 24.742412 22.453125 24.513672 C 23.038125 24.327422 23.619269 24.289141 24.167969 24.369141 C 24.180469 24.374141 24.193125 24.3737 24.203125 24.375 C 24.230625 23.96125 24.283984 23.549561 24.365234 23.144531 C 24.737734 21.258331 25.661797 19.549844 26.904297 18.339844 L 26.855469 18.275391 z M 50.78125 34.029297 C 28.28925 34.029297 9.3267812 54.170734 4.9257812 75.177734 C -0.14921875 99.406734 14.643863 114.17923 31.351562 113.86523 C 49.237562 113.52398 57.738937 94.347344 59.210938 90.402344 L 59.041016 90.375 C 52.907216 100.504 43.769531 104.10547 39.769531 104.10547 C 22.807531 104.10547 22.655156 87.275312 26.285156 73.820312 C 31.301356 55.216313 39.185547 43.658203 50.685547 43.658203 C 54.850547 43.658203 60.848594 46.603422 62.183594 59.919922 L 62.419922 59.947266 C 63.522422 56.853466 69.019531 39.056641 69.019531 39.056641 C 63.562031 36.040441 58.00625 34.029297 50.78125 34.029297 z "
       d="M 72.398437,-5.9316406 C 65.517468,-6.10215 58.883067,-2.9883069 53.066406,1.4257812 52.501994,1.8540966 51.991477,2.3620774 51.443359,2.8183594 A 5.937666,5.937666 0 0 0 45.730469,0.0859375 C 39.786596,1.1860354 34.793834,4.8916362 30.685547,9.5175781 29.821065,10.490987 29.021446,11.539924 28.251953,12.609375 a 5.937666,5.937666 0 0 0 -3.25,0.02539 c -4.909022,1.613767 -8.500191,5.154588 -11.316406,9.322265 -2.816215,4.167678 -4.9499915,9.164379 -3.9921876,14.794922 0.5179986,3.04902 2.5532726,6.04178 5.4707036,7.484375 C 7.1684696,52.509926 1.4035374,63.038333 -0.88476563,73.960937 -3.7092047,87.445339 -1.0388966,99.170245 5.2675781,107.34961 c 6.3064749,8.17936 16.0596759,12.64166 26.1953129,12.45117 a 5.937666,5.937666 0 0 0 0.002,0 c 11.045733,-0.21074 19.263623,-6.33604 24.488281,-12.46289 5.224658,-6.12685 7.877112,-12.331574 8.820312,-14.859374 a 5.937666,5.937666 0 0 0 -4.61914,-7.9375 l -0.169922,-0.02734 a 5.937666,5.937666 0 0 0 -6.021484,2.785156 c -2.551745,4.213803 -5.663175,6.972158 -8.449219,8.671875 -2.786044,1.699717 -5.52599,2.197266 -5.744141,2.197266 -3.258679,0 -5.002419,-0.728565 -6.171875,-1.621094 C 32.4282,95.654346 31.596261,94.390526 31.007812,92.357422 29.830916,88.291214 30.370175,81.473469 32.017578,75.367187 a 5.937666,5.937666 0 0 0 0,-0.002 c 2.385013,-8.845497 5.45511,-15.733596 8.732422,-19.96875 3.277312,-4.235154 6.174571,-5.800781 9.935547,-5.800781 0.683062,0 1.369474,0.04196 2.421875,1.197266 1.0524,1.155308 2.584168,3.895398 3.167969,9.71875 a 5.937666,5.937666 0 0 0 5.226562,5.30664 l 0.236328,0.02734 a 5.937666,5.937666 0 0 0 6.273438,-3.90625 c 1.42447,-3.997301 6.679687,-21.130859 6.679687,-21.130859 a 5.937666,5.937666 0 0 0 -1.322265,-5.742188 c 0.349986,-0.115079 0.717417,-0.186344 1.05664,-0.324219 a 5.937666,5.937666 0 0 0 0.01172,-0.0039 c 2.344475,-0.958682 4.513463,-2.495936 6.308594,-4.568359 1.078034,-1.238518 1.95703,-2.52972 2.625,-3.88086 0.686813,-1.366762 1.053644,-2.8119 1.240234,-4.273437 a 5.937666,5.937666 0 0 0 0.304688,-0.154297 c 0.199195,-0.238395 0.362188,-0.412718 0.501953,-0.544922 a 5.937666,5.937666 0 0 0 0.0332,-0.03125 c 0.791643,-0.760476 1.786544,-1.205879 2.316406,-1.300781 a 5.937666,5.937666 0 0 0 4.871094,-5.373047 l 0.0098,-0.123047 A 5.937666,5.937666 0 0 0 88.511719,8.3535156 C 86.526028,7.7289257 84.532657,7.5413369 82.544922,7.59375 c -4.291518,0.1131496 -8.631679,1.3364421 -12.625,3.404297 -0.01834,-0.08423 -0.02882,-0.170096 -0.04883,-0.253906 a 5.937666,5.937666 0 0 0 0.671875,-0.609375 c 0.172966,-0.3962788 0.359029,-0.7619417 0.5625,-1.1132816 l 0.002,-0.00195 c 0.995494,-1.6846821 2.486599,-2.9871922 3.695312,-3.5566407 a 5.937666,5.937666 0 0 0 3.263672,-6.6582031 l -0.01953,-0.087891 A 5.937666,5.937666 0 0 0 72.398437,-5.9316406 Z M 40.9375,8.6992188 l 0.01563,0.00391 c -0.0026,-6.619e-4 -0.0052,6.598e-4 -0.0078,0 -0.0029,-7.178e-4 -0.0049,-0.00319 -0.0078,-0.00391 z m 40.931641,4.8222652 0.03125,0.0293 c -0.0072,-0.007 -0.0162,-0.01062 -0.02344,-0.01758 -0.0035,-0.0034 -0.0043,-0.0084 -0.0078,-0.01172 z m 2.132812,3.095703 0.01172,0.02344 c -0.0021,-0.005 -0.0076,-0.0086 -0.0098,-0.01367 -0.0013,-0.0031 -6.12e-4,-0.0066 -0.002,-0.0098 z m -9.580078,1.4375 a 5.937666,5.937666 0 0 0 1.804687,4.177735 c -0.0543,-0.04389 -0.119875,-0.06415 -0.167968,-0.111328 -0.07686,-0.07938 -0.06742,-0.04419 -0.164063,-0.154297 -0.235356,-0.26816 -0.855867,-1.278148 -0.855469,-1.277344 3.99e-4,8.04e-4 -0.617187,-2.635547 -0.617187,-2.634766 z m -34.966797,0.425782 a 5.937666,5.937666 0 0 0 1.318359,0.05469 l 0.115235,0.265625 c -0.01336,0.06468 -0.04579,0.120624 -0.05859,0.185547 -0.07062,-0.0049 -0.110463,0.0018 -0.191406,-0.01758 -0.104134,-0.02577 -0.507002,-0.111194 -1.183594,-0.488281 z m 37.191406,4.023437 a 5.937666,5.937666 0 0 0 0.580078,0.210938 c -0.03713,5.59e-4 -0.1212,0.01731 -0.34375,-0.05664 a 5.937666,5.937666 0 0 1 -0.002,0 c -0.08014,-0.02705 -0.150561,-0.11201 -0.234375,-0.154297 z m -54.683593,7.376953 c 1.328954,0.531582 1.972475,0.45259 1.392578,0.359375 -0.01502,-0.0018 -0.0301,0.0061 -0.04492,0.0039 z m 2.123046,0.195313 c 0.0117,0.03626 0.03094,0.06931 0.04297,0.105469 -0.174638,0.0428 -0.36632,0.04595 -0.560547,0.04297 a 5.937666,5.937666 0 0 0 0.517578,-0.148437 z m 4.955079,9.464844 -0.0098,0.01563 c 0.0019,-0.0029 0.002,-0.0069 0.0039,-0.0098 0.0015,-0.0023 0.0044,-0.0036 0.0059,-0.0059 z m -13.607422,4.925781 c 0.141672,0.06968 0.318597,0.08458 0.466797,0.146484 0.12687,0.04749 0.227539,0.142328 0.357421,0.183594 z"
       transform="matrix(0.8,0,0,-0.8,280,285.46)" /></g><path
     d="M 48.29388,143.19905 H 5.03763 l 5.15625,-17.625 h 43.25625 z"
     fill="#e00122"
     id="path1"
     style="stroke-width:1.25" /><path
     d="m 77.29788,5.94045 c -9.3275,-0.2325 -23.714,9.8712 -25.656,20.281 -0.54375,2.9425 0.212975,5.1503 1.7617,6.3828 0.53,0.57375 1.2092,0.98125 2.043,1.1562 2.6038,0.55 5.5852,-0.328275 8.1289,-2.3008 1.7388,-1.35 3.2673,-3.2038 4.3223,-5.4551 0.69875,-1.4975 1.1552,-2.8764 1.3789,-4.1289 0.32,-1.7588 0.212425,-3.2614 -0.205075,-4.4727 -0.24875,-0.71375 -0.59805,-1.3251 -1.0293,-1.8301 -0.4275,-0.5 -0.941025,-0.892025 -1.5098,-1.1758 -0.76125,-0.37375 -1.5784,-0.571325 -2.4434,-0.611325 1.1212,-0.5525 2.3128,-0.845225 3.4766,-0.802725 0.9425,0.03125 1.7977,0.275 2.5352,0.6875 0.01,0.0087 0.02988,0.01662 0.04488,0.02537 0.26625,-0.61 0.561887,-1.1941 0.890637,-1.7578 1.57,-2.6588 3.833,-4.7577 6.279301,-5.9102 l -0.019,-0.087 z m -25.443,5.9199 c -7.6788,1.4212 -17.664,11.858 -17.453,20.459 0.0575,2.4425 1.0699,4.073 2.5449,4.793 0.5375,0.36875 1.1611,0.578125 1.8711,0.578125 2.2288,0.0025 4.5199,-1.2012 6.2637,-3.2012 1.1888,-1.365 2.1228,-3.1005 2.6016,-5.0742 0.31875,-1.31 0.440862,-2.4833 0.412112,-3.5195 -0.04375,-1.455 -0.3857,-2.6332 -0.93945,-3.5332 -0.3225,-0.525 -0.720312,-0.95195 -1.1641,-1.2832 -0.44,-0.32375 -0.9257,-0.554138 -1.4395,-0.681637 -0.6875,-0.1725 -1.3953,-0.191888 -2.1016,-0.07813 0.82125,-0.62875 1.7408,-1.0571 2.707,-1.2246 0.77625,-0.13125 1.5153,-0.08325 2.1953,0.123 0.01375,0.0038 0.02587,0.0075 0.03713,0.01363 0.1125,-0.53125 0.257888,-1.0445 0.431638,-1.5508 0.8125,-2.355 2.2852,-4.3888 4.0664,-5.7188 l -0.03325,-0.101625 z m 35.891,7.6055 c -6.3897,0.168475 -14.674,3.9797 -17.498,9.5859 -0.995,1.9638 -0.933975,3.6774 -0.146475,4.8574 0.2375,0.5175 0.611712,0.939925 1.1367,1.2324 1.65,0.92 3.8648,0.903363 5.9961,0.03712 1.4612,-0.5975 2.888,-1.5936 4.0742,-2.9648 0.795,-0.9125 1.3824,-1.7934 1.7949,-2.6309 0.59375,-1.1738 0.831637,-2.2539 0.806637,-3.1914 -0.01875,-0.5525 -0.130312,-1.0582 -0.320312,-1.502 -0.185,-0.4375 -0.446638,-0.822962 -0.775388,-1.1367 -0.43375,-0.42 -0.952887,-0.724525 -1.5254,-0.925775 0.88375,-0.1625 1.7391,-0.125087 2.5254,0.138663 0.63125,0.21125 1.1538,0.56125 1.5625,1 0.01375,0.0125 0.02738,0.01913 0.02738,0.02538 0.31125,-0.3725 0.632275,-0.723288 0.978525,-1.0508 1.5875,-1.525 3.5191,-2.5295 5.3828,-2.8633 l 0.01,-0.123 c -1.1825,-0.37195 -2.5548,-0.527163 -4.0293,-0.488288 z m -55.846,4.7461 c -5.8138,1.9112 -12.421,10.943 -11.309,17.48 0.315,1.8562 1.2803,2.9928 2.5078,3.3828 0.4575,0.225 0.967025,0.3172 1.5195,0.2422 1.735,-0.2375 3.3812,-1.3995 4.5137,-3.1133 0.7775,-1.1688 1.3116,-2.5941 1.4629,-4.1504 0.1,-1.0362 0.07175,-1.9444 -0.0645,-2.7344 -0.195,-1.1012 -0.594838,-1.9648 -1.1211,-2.5898 -0.31,-0.36875 -0.665475,-0.653125 -1.043,-0.859387 -0.38,-0.1975 -0.785475,-0.322025 -1.1992,-0.363275 -0.55125,-0.05625 -1.1051,0.005 -1.6426,0.167962 0.57125,-0.57 1.2377,-0.99585 1.9727,-1.2246 0.585,-0.18625 1.1661,-0.224525 1.7148,-0.144525 0.0125,0.005 0.02512,0.005 0.03513,0.0063 0.0275,-0.41375 0.08087,-0.825475 0.162112,-1.2305 0.3725,-1.8862 1.2966,-3.5947 2.5391,-4.8047 l -0.04887,-0.0645 z m 23.925,15.754 c -22.492,0 -41.454,20.141 -45.855,41.148 -5.075,24.229 9.7183,39.00101 26.426,38.68701 17.886,-0.34125 26.387,-19.51801 27.859,-23.46301 l -0.17,-0.026 c -6.1338,10.12901 -15.271,13.73001 -19.271,13.73001 -16.962,0 -17.114,-16.83001 -13.484,-30.28501 5.0162,-18.604 12.9,-30.162 24.4,-30.162 4.165,0 10.163,2.9455 11.498,16.262 l 0.236325,0.02738 c 1.1025,-3.0938 6.5996,-20.891 6.5996,-20.891 -5.4575,-3.0162 -11.013,-5.0273 -18.238,-5.0273 z"
     id="path2"
     style="stroke-width:1;fill:#ffffff" /></svg>
