<svg viewBox="0 0 43 68" xmlns="http://www.w3.org/2000/svg" xmlns:xlink="http://www.w3.org/1999/xlink"><defs><path id="a" d="M0 .223h23.876v8.756H0z"/><path id="c" d="M.079.182h28.839V67.98H.078z"/></defs><g fill="none" fill-rule="evenodd"><g transform="translate(-.035 59)"><mask id="b" fill="#fff"><use xlink:href="#a"/></mask><path fill="#E00122" mask="url(#b)" d="M0 9h21.334L23.876.223H2.542L0 9"/></g><path d="M1.965 41.405C1.965 50.433 7.835 56 15.143 56c7.933 0 12.313-7.258 14.004-11.462l-.086-.012c-3.01 4.943-7.504 6.704-9.471 6.704-4.013 0-7.56-2-7.56-8.632 0-5.039 3.814-20.893 12.849-20.893 4.175 0 5.48 4.953 5.725 7.943l.118.012 3.243-10.203C31.86 18.35 29.233 17 24.879 17 11.64 17 1.965 30.812 1.965 41.405M8.955 19c1.59 0 3.334-1.803 3.334-3.888 0-2.056-1.105-2.67-2.037-2.67-.253 0-.643.089-.643.089.519-.5 1.382-.767 1.945-.644.12-1.759 1.41-2.855 1.41-2.855L12.942 9c-2.502.699-5.976 4.33-5.976 7.51 0 1.808 1.079 2.49 1.99 2.49" fill="#FFFFFE"/><g transform="translate(13.965)"><mask id="d" fill="#fff"><use xlink:href="#c"/></mask><path d="M2.35 15.871c2.392 0 4.615-2.733 4.615-5.723 0-2.175-1.374-2.894-2.359-2.894-.192 0-.48.034-.48.034.845-.666 1.926-.761 2.484-.536.499-2.403 2.26-3.594 2.26-3.594l-.016-.05C5.288 3.73.08 8.712.08 13.02c0 2.172 1.38 2.851 2.27 2.851M11.374 14.009c3.19 0 6.326-3.353 6.326-7.08 0-2.817-2.696-2.867-2.696-2.867 1.229-.604 2.295-.453 3.04-.046C19.21 1.262 21.65.23 21.65.23l-.007-.044C16.467.025 8.658 6.128 8.658 11.066c0 1.619 1.006 2.943 2.716 2.943M27.188 6.864c-4.592 0-9.464 3.297-9.464 6.114 0 1.22.93 1.973 2.21 1.973 2.891 0 5.027-2.802 5.027-4.714 0-1.321-1.314-1.709-1.314-1.709.548-.102 1.457-.071 2.07.576 1.392-1.677 3.195-1.935 3.195-1.935l.006-.061s-.738-.244-1.73-.244" fill="#FFFFFE" mask="url(#d)"/><path d="M9.98 67.716a1.05 1.05 0 0 1-1.06-1.04 1.05 1.05 0 0 1 1.06-1.042 1.05 1.05 0 0 1 1.06 1.042 1.05 1.05 0 0 1-1.06 1.04zm0-2.366c-.744 0-1.347.594-1.347 1.326 0 .73.603 1.324 1.348 1.324.744 0 1.347-.593 1.347-1.324 0-.732-.603-1.326-1.347-1.326z" fill="#BD2531" mask="url(#d)"/></g><path d="M24.551 66.812h-.325v-.438h.325c.084 0 .152.1.152.22s-.068.218-.152.218zm.413-.218c0-.329-.185-.594-.413-.594h-.586v2h.26v-.813h.188l.263.813h.289l-.275-.848c.16-.082.274-.301.274-.558z" fill="#BD2531"/></g></svg>
