<?xml version="1.0" encoding="UTF-8" standalone="no"?>
<!-- Created with Inkscape (http://www.inkscape.org/) -->

<svg
   width="130.97438mm"
   height="95.675743mm"
   viewBox="0 0 130.97438 95.675742"
   version="1.1"
   id="svg1"
   xml:space="preserve"
   inkscape:version="1.4 (86a8ad7, 2024-10-11)"
   sodipodi:docname="COLO.svg"
   xmlns:inkscape="http://www.inkscape.org/namespaces/inkscape"
   xmlns:sodipodi="http://sodipodi.sourceforge.net/DTD/sodipodi-0.dtd"
   xmlns="http://www.w3.org/2000/svg"
   xmlns:svg="http://www.w3.org/2000/svg"><sodipodi:namedview
     id="namedview1"
     pagecolor="#ffffff"
     bordercolor="#000000"
     borderopacity="0.25"
     inkscape:showpageshadow="2"
     inkscape:pageopacity="0.0"
     inkscape:pagecheckerboard="0"
     inkscape:deskcolor="#d1d1d1"
     inkscape:document-units="mm"
     inkscape:zoom="1.4803312"
     inkscape:cx="239.13567"
     inkscape:cy="132.74057"
     inkscape:window-width="1828"
     inkscape:window-height="1211"
     inkscape:window-x="13"
     inkscape:window-y="43"
     inkscape:window-maximized="0"
     inkscape:current-layer="layer1" /><defs
     id="defs1" /><g
     inkscape:label="Layer 1"
     inkscape:groupmode="layer"
     id="layer1"
     transform="translate(-8.5662718,-150.65102)"><path
       style="fill:#c9bb7b;fill-opacity:1"
       d="m 17.388959,245.83895 c -1.577019,-1.03986 -5.960248,-7.89671 -7.351335,-11.49997 -0.4601533,-1.19191 -1.0093744,-3.0123 -1.2204912,-4.0453 -0.3652372,-1.78713 -0.3560378,-1.9539 0.1897302,-3.43959 0.3154684,-0.85876 0.9120502,-2.53616 1.325737,-3.72756 0.978228,-2.81722 1.621452,-4.0663 3.192075,-6.19867 1.646345,-2.23517 1.977682,-3.07777 2.193925,-5.57923 0.395886,-4.57954 2.368197,-7.8656 6.166905,-10.27467 l 1.199609,-0.76077 -0.04421,-2.72379 c -0.03852,-2.37343 0.23112,-5.38914 0.64315,-7.19298 0.102981,-0.45085 -0.189753,-0.7627 -1.525707,-1.62538 -3.569098,-2.3047 -4.397233,-5.4844 -2.009007,-7.71377 0.867623,-0.80991 2.52564,-1.12663 5.937257,-1.13414 2.650809,-0.006 2.984446,-0.0608 3.439584,-0.56702 2.310335,-2.56942 9.178145,-5.79916 14.575355,-6.85439 l 1.63591,-0.31985 1.188239,-2.04502 c 7.230114,-12.44341 23.593817,-20.71152 38.270151,-19.3368 10.518596,0.98527 19.391844,5.95172 25.076084,14.03536 0.66512,0.94588 1.28267,1.80781 1.37231,1.91538 0.0897,0.10758 1.40848,0.3206 2.93074,0.4734 3.89125,0.39057 7.32031,1.35918 10.70524,3.02391 7.53054,3.70358 12.15209,9.76625 13.92527,18.26752 0.49585,2.37729 0.42955,8.08541 -0.11954,10.29028 -0.98231,3.94456 -3.50332,8.25145 -7.37574,12.60074 -3.06959,3.4476 -11.85358,11.75652 -13.09263,12.38454 -0.55565,0.28164 -1.50701,0.59476 -2.11413,0.69584 -0.60712,0.10107 -1.65376,0.5325 -2.32586,0.95874 -4.44672,2.82003 -6.05976,2.91298 -8.69857,0.50126 l -1.44147,-1.31743 -1.91866,1.97873 c -2.02672,2.09016 -4.716817,4.08782 -7.13346,5.29728 -0.871907,0.43636 -2.473998,1.71353 -3.996863,3.18625 -3.728504,3.60573 -5.548459,4.40256 -11.144541,4.87938 -1.640406,0.13977 -3.69693,0.37617 -4.570055,0.52533 -2.37223,0.40526 -3.601244,0.33504 -4.579985,-0.26168 -1.467765,-0.89487 -1.729581,-1.94655 -1.513259,-6.07852 0.339077,-6.47672 1.213003,-10.16535 3.058512,-12.90925 l 1.016052,-1.51066 -3.197378,-0.0746 -3.197378,-0.0746 -2.143282,1.0345 c -4.723373,2.27985 -8.779355,3.19964 -14.99071,3.39948 -5.545506,0.17842 -7.758265,-0.16878 -11.626532,-1.82431 -1.382448,-0.59165 -2.902514,-1.24091 -3.377924,-1.44279 -0.825193,-0.35042 -0.875442,-0.33797 -1.108342,0.2746 -0.134178,0.35292 -0.3769,2.58778 -0.539381,4.96637 -0.162481,2.37858 -0.461769,5.13209 -0.665084,6.1189 -0.534386,2.59369 -1.816766,5.01184 -3.513917,6.62608 -2.387119,2.2705 -3.037277,2.93927 -4.482654,4.61097 -2.277373,2.63398 -5.220953,3.67663 -7.023738,2.48791 z m 2.990955,-3.54677 c 0.483452,-0.32742 1.602387,-1.46412 2.486523,-2.526 0.884136,-1.06187 2.031464,-2.21171 2.549619,-2.55519 1.816128,-1.20388 3.166115,-3.56862 3.664574,-6.41913 0.14719,-0.84172 0.393395,-3.39111 0.547123,-5.6653 0.332008,-4.91161 0.744378,-6.52941 1.91551,-7.51485 1.204346,-1.01339 3.000624,-0.83971 6.175148,0.59707 4.611243,2.08704 5.741861,2.32418 10.964922,2.29986 3.630684,-0.0169 5.172807,-0.13957 7.14375,-0.56821 2.638659,-0.57386 7.14375,-2.10447 7.14375,-2.4271 0,-0.10379 -0.773906,-1.25107 -1.719792,-2.5495 -0.945885,-1.29844 -1.718247,-2.54172 -1.71636,-2.76284 0.0019,-0.22112 0.238468,-1.89032 0.525735,-3.70933 0.287267,-1.81901 0.523848,-3.57974 0.525735,-3.91273 l 0.0034,-0.60544 -5.085668,0.032 -5.085668,0.032 -2.555193,-3.52762 -2.555192,-3.52763 1.651799,-11.1125 c 0.90849,-6.11187 1.619666,-11.15088 1.580392,-11.19779 -0.184785,-0.22072 -6.018283,1.39125 -8.356684,2.30921 -3.525369,1.38391 -6.103159,2.95873 -8.135764,4.97031 l -1.686769,1.66932 h -3.920012 c -2.156007,0 -3.984948,0.10506 -4.064314,0.23348 -0.308583,0.4993 1.003376,1.61489 3.284928,2.79327 1.311417,0.67732 2.384394,1.38584 2.384394,1.57449 0,0.18865 -0.242849,1.04625 -0.539664,1.90577 -0.837278,2.42461 -1.201712,6.5467 -0.82737,9.35832 0.171364,1.28709 0.241116,2.52376 0.155005,2.74816 -0.08611,0.2244 -0.911814,0.76143 -1.834894,1.19339 -2.06983,0.96859 -3.771074,2.50329 -4.73192,4.26868 -0.57587,1.05806 -0.783691,1.90965 -0.983026,4.02816 -0.297837,3.16536 -0.636244,4.01281 -2.963661,7.42168 -1.054994,1.54521 -1.923655,3.16012 -2.186886,4.0656 -0.24018,0.82619 -0.779923,2.22769 -1.199429,3.11444 -0.419506,0.88674 -0.762832,1.98668 -0.762947,2.44429 -2.82e-4,1.12149 0.941121,4.10276 1.909524,6.04714 0.891093,1.78916 4.972305,8.06979 5.243825,8.06979 0.09709,0 0.572073,-0.26789 1.055525,-0.59531 z m 55.555503,-5.4901 c 1.67349,-0.28911 3.765239,-0.52645 4.648332,-0.52742 1.844186,-0.002 4.120968,-0.60723 5.273543,-1.40182 0.436563,-0.30097 1.866278,-1.56759 3.177145,-2.81472 1.446201,-1.37588 3.058805,-2.61916 4.101042,-3.16182 3.577341,-1.8626 6.771421,-4.65178 9.504871,-8.29995 1.48363,-1.98012 2.12868,-2.03647 3.02868,-0.26459 0.83139,1.63681 2.72231,3.77032 3.34162,3.77032 0.26757,0 1.47784,-0.59058 2.68949,-1.31239 1.21164,-0.72181 2.88559,-1.48867 3.71989,-1.70415 0.8343,-0.21547 1.68819,-0.4881 1.89755,-0.60585 0.20936,-0.11774 2.43506,-2.1786 4.946,-4.5797 11.02544,-10.5431 13.79123,-15.02067 13.7662,-22.28623 -0.0146,-4.2395 -0.852,-7.79262 -2.60452,-11.05127 -3.68624,-6.85421 -11.09028,-11.24188 -20.0513,-11.88252 -3.23084,-0.23097 -3.68641,-0.49151 -5.46288,-3.12412 -7.63442,-11.31371 -21.665013,-15.92389 -36.018404,-11.83494 -4.44548,1.26642 -10.089184,4.02107 -13.408973,6.54482 l -1.465995,1.11447 13.320985,0.13229 13.320986,0.13229 2.575016,3.54494 2.575016,3.54493 -0.616947,4.12798 c -0.33932,2.27039 -0.646427,4.2836 -0.682459,4.47379 -0.09508,0.50187 -9.08524,0.49728 -9.010603,-0.005 0.49142,-3.30442 0.875298,-6.12778 0.875298,-6.43767 0,-0.34072 -1.37156,-0.38286 -10.503542,-0.32272 l -10.503542,0.0692 -1.51741,10.31875 c -0.834576,5.67531 -1.586819,10.7687 -1.671652,11.31864 l -0.15424,0.9999 3.510088,-0.0738 3.510089,-0.0739 0.445484,-3.04271 c 0.245016,-1.67349 0.514314,-3.48919 0.598439,-4.03489 l 0.152956,-0.99219 h -1.405358 -1.405357 l 0.542335,-3.58364 0.542335,-3.58364 6.085417,0.007 c 5.659336,0.006 6.082286,0.0394 6.040713,0.47478 -0.08323,0.87161 -1.952692,13.69298 -2.083992,14.29265 -0.127647,0.58299 -0.08096,0.59531 2.255946,0.59531 1.322152,0 2.386291,-0.11151 2.386291,-0.25007 0,-0.62053 1.078163,-7.50546 1.208313,-7.71605 0.08021,-0.12978 2.103338,-0.23596 4.495844,-0.23596 4.148279,0 4.35001,0.0241 4.35001,0.52008 0,0.28604 -0.297547,2.51846 -0.661215,4.96093 l -0.661216,4.44086 -3.638264,3.57188 -3.638263,3.57187 -3.543425,-0.0814 c -1.948883,-0.0448 -3.641176,0.0164 -3.760652,0.13586 -0.211979,0.21198 -1.030299,5.10576 -1.030299,6.16147 0,0.52092 0.166697,0.53091 8.863542,0.53091 4.874948,0 8.86384,-0.0893 8.864204,-0.19844 0.0016,-0.4932 4.513369,-30.59754 4.59838,-30.68255 0.243515,-0.24351 12.070181,-0.18766 12.075721,0.057 0.003,0.14552 -0.19834,1.78263 -0.44809,3.63802 l -0.4541,3.37344 h -1.37531 c -1.20816,0 -1.39242,0.0724 -1.516057,0.59531 -0.07741,0.32742 -0.934515,6.01266 -1.904681,12.63386 l -1.763936,12.03854 -3.610562,3.63802 -3.610562,3.63802 -5.030628,9.9e-4 c -4.482151,8.8e-4 -5.120845,0.056 -5.858094,0.50555 -2.331802,1.42188 -3.963441,4.07043 -4.740831,7.69554 -0.379594,1.77012 -0.886373,9.52766 -0.622128,9.52325 0.05775,-9.7e-4 1.474226,-0.2383 3.147716,-0.52741 z m 37.504693,-36.68773 c 0.1819,-0.0734 0.47955,-0.0734 0.66145,0 0.18191,0.0734 0.0331,0.13345 -0.33072,0.13345 -0.36381,0 -0.51264,-0.0601 -0.33073,-0.13345 z m 2.3151,-0.88311 c 0.26339,-0.29104 0.53842,-0.52916 0.61118,-0.52916 0.0728,0 -0.0832,0.23812 -0.3466,0.52916 -0.26339,0.29104 -0.53842,0.52917 -0.61118,0.52917 -0.0728,0 0.0832,-0.23813 0.3466,-0.52917 z m -4.82273,-2.38125 c 0,-0.65484 0.0516,-0.92273 0.11466,-0.59531 0.0631,0.32742 0.0631,0.8632 0,1.19062 -0.0631,0.32743 -0.11466,0.0595 -0.11466,-0.59531 z m 2.44148,-5.82083 c 0.26339,-0.29104 0.53842,-0.52917 0.61118,-0.52917 0.0728,0 -0.0832,0.23813 -0.3466,0.52917 -0.26339,0.29104 -0.53842,0.52917 -0.61118,0.52917 -0.0728,0 0.0832,-0.23813 0.3466,-0.52917 z m 2.11667,-2.11667 c 0.26339,-0.29104 0.53842,-0.52916 0.61118,-0.52916 0.0728,0 -0.0832,0.23812 -0.3466,0.52916 -0.26339,0.29104 -0.53842,0.52917 -0.61118,0.52917 -0.0728,0 0.0832,-0.23813 0.3466,-0.52917 z"
       id="path2" /><path
       style="fill:#000000;fill-opacity:1"
       d="m 17.009544,239.64635 c -2.496783,-3.78448 -3.507396,-5.72815 -4.279175,-8.22996 -0.737885,-2.39194 -0.706945,-3.16538 0.203618,-5.09012 0.419506,-0.88675 0.959249,-2.28825 1.199429,-3.11444 0.263231,-0.90548 1.131892,-2.52039 2.186886,-4.0656 2.327417,-3.40887 2.665824,-4.25632 2.963661,-7.42168 0.199335,-2.11851 0.407156,-2.9701 0.983026,-4.02816 0.960846,-1.76539 2.66209,-3.30009 4.73192,-4.26868 0.92308,-0.43196 1.748783,-0.96899 1.834894,-1.19339 0.08611,-0.2244 0.01636,-1.46107 -0.155005,-2.74816 -0.374342,-2.81162 -0.0099,-6.93371 0.82737,-9.35832 0.296815,-0.85952 0.539664,-1.71712 0.539664,-1.90577 0,-0.18865 -1.072977,-0.89717 -2.384394,-1.57449 -2.281552,-1.17838 -3.593511,-2.29397 -3.284928,-2.79327 0.07937,-0.12842 1.908307,-0.23348 4.064314,-0.23348 h 3.920012 l 1.686769,-1.66932 c 2.032605,-2.01158 4.610395,-3.5864 8.135764,-4.97031 2.338401,-0.91796 8.171899,-2.52993 8.356684,-2.30921 0.03927,0.0469 -0.671902,5.08592 -1.580392,11.19779 l -1.651799,11.1125 2.555192,3.52763 2.555193,3.52762 5.085668,-0.032 5.085668,-0.032 -0.0034,0.60544 c -0.0019,0.33299 -0.238468,2.09372 -0.525735,3.91273 -0.287267,1.81901 -0.523848,3.48821 -0.525735,3.70933 -0.0019,0.22112 0.770475,1.4644 1.71636,2.76284 0.945886,1.29843 1.719792,2.44571 1.719792,2.5495 0,0.32263 -4.505091,1.85324 -7.14375,2.4271 -1.970943,0.42864 -3.513066,0.55129 -7.14375,0.56821 -5.223061,0.0243 -6.353679,-0.21282 -10.964922,-2.29986 -3.174524,-1.43678 -4.970802,-1.61046 -6.175148,-0.59707 -1.171132,0.98544 -1.583502,2.60324 -1.91551,7.51485 -0.153728,2.27419 -0.399933,4.82358 -0.547123,5.6653 -0.498459,2.85051 -1.848446,5.21525 -3.664574,6.41913 -0.518155,0.34348 -1.665483,1.49332 -2.549619,2.55519 -1.420495,1.70607 -3.026512,3.12131 -3.542048,3.12131 -0.09709,0 -1.138767,-1.45851 -2.314845,-3.24114 z m 55.823947,-6.08542 c 0.241536,-6.03901 1.341072,-9.79703 3.497347,-11.9533 1.977261,-1.97726 2.069723,-2.00138 7.677916,-2.00248 l 5.030628,-9.9e-4 3.610562,-3.63802 3.610562,-3.63802 1.763936,-12.03854 c 0.970166,-6.6212 1.827272,-12.30644 1.904681,-12.63386 0.123637,-0.52296 0.307897,-0.59531 1.516057,-0.59531 h 1.37531 l 0.4541,-3.37344 c 0.24975,-1.85539 0.45139,-3.4925 0.44809,-3.63802 -0.006,-0.24469 -11.832206,-0.30054 -12.075721,-0.057 -0.08501,0.085 -4.596734,30.18935 -4.59838,30.68255 -3.64e-4,0.10914 -3.989256,0.19844 -8.864204,0.19844 -8.696845,0 -8.863542,-0.01 -8.863542,-0.53091 0,-1.05571 0.81832,-5.94949 1.030299,-6.16147 0.119476,-0.11948 1.811769,-0.18062 3.760652,-0.13586 l 3.543425,0.0814 3.638263,-3.57187 3.638264,-3.57188 0.661216,-4.44086 c 0.363668,-2.44247 0.661215,-4.67489 0.661215,-4.96093 0,-0.49596 -0.201731,-0.52008 -4.35001,-0.52008 -2.392506,0 -4.415635,0.10618 -4.495844,0.23596 -0.13015,0.21059 -1.208313,7.09552 -1.208313,7.71605 0,0.13856 -1.064139,0.25007 -2.386291,0.25007 -2.336904,0 -2.383593,-0.0123 -2.255946,-0.59531 0.1313,-0.59967 2.000766,-13.42104 2.083992,-14.29265 0.04157,-0.43539 -0.381377,-0.46863 -6.040713,-0.47478 l -6.085417,-0.007 -0.542335,3.58364 -0.542335,3.58364 h 1.405357 1.405358 l -0.152956,0.99219 c -0.08413,0.5457 -0.353423,2.3614 -0.598439,4.03489 l -0.445484,3.04271 -3.510089,0.0739 -3.510088,0.0738 0.15424,-0.9999 c 0.08483,-0.54994 0.837076,-5.64333 1.671652,-11.31864 l 1.51741,-10.31875 10.503542,-0.0692 c 9.131982,-0.0601 10.503542,-0.018 10.503542,0.32272 0,0.30989 -0.383878,3.13325 -0.875298,6.43767 -0.07464,0.50188 8.915526,0.50647 9.010603,0.005 0.03603,-0.19019 0.343139,-2.2034 0.682459,-4.47379 l 0.616947,-4.12798 -2.575016,-3.54493 -2.575016,-3.54494 -13.320986,-0.13229 -13.320985,-0.13229 1.465995,-1.11447 c 3.319789,-2.52375 8.963493,-5.2784 13.408973,-6.54482 4.98418,-1.41988 10.326056,-1.84079 15.040324,-1.18509 8.438756,1.17372 16.2598,6.02785 20.97808,13.02003 1.77647,2.63261 2.23204,2.89315 5.46288,3.12412 8.96102,0.64064 16.36506,5.02831 20.0513,11.88252 1.75252,3.25865 2.58991,6.81177 2.60452,11.05127 0.025,7.26556 -2.74076,11.74313 -13.7662,22.28623 -2.51094,2.4011 -4.73664,4.46196 -4.946,4.5797 -0.20936,0.11775 -1.06325,0.39038 -1.89755,0.60585 -0.8343,0.21548 -2.50825,0.98234 -3.71989,1.70415 -1.21165,0.72181 -2.42192,1.31239 -2.68949,1.31239 -0.61931,0 -2.51023,-2.13351 -3.34162,-3.77032 -0.9,-1.77188 -1.54505,-1.71553 -3.02868,0.26459 -2.73345,3.64817 -5.92753,6.43735 -9.504871,8.29995 -1.042237,0.54266 -2.654841,1.78594 -4.101042,3.16182 -1.310867,1.24713 -2.740582,2.51375 -3.177145,2.81472 -1.152575,0.79459 -3.429357,1.39981 -5.273543,1.40182 -0.883093,9.7e-4 -2.974842,0.23831 -4.648332,0.52742 -1.67349,0.28911 -3.089962,0.52644 -3.147716,0.52741 -0.05775,9.6e-4 -0.03715,-1.69489 0.04579,-3.76856 z m 42.789429,-34.02575 c 0.67921,-0.4967 1.07238,-1.47914 2.61029,-6.5225 0.4439,-1.45568 1.40739,-3.81513 2.1411,-5.24321 0.73372,-1.42809 1.33403,-2.6501 1.33403,-2.71558 0,-0.2769 -2.91444,1.37665 -4.54713,2.57989 -4.80356,3.54006 -7.24597,8.07047 -5.89066,10.92658 0.80073,1.6874 2.77366,2.12929 4.35237,0.97482 z"
       id="path1" /></g></svg>
