<?xml version="1.0" encoding="UTF-8" standalone="no"?>
<svg
   width="142.04289"
   height="126.90234"
   viewBox="0 0 142.04289 126.90234"
   fill="none"
   version="1.1"
   id="svg2"
   sodipodi:docname="DUKE.svg"
   inkscape:version="1.4 (86a8ad7, 2024-10-11)"
   xmlns:inkscape="http://www.inkscape.org/namespaces/inkscape"
   xmlns:sodipodi="http://sodipodi.sourceforge.net/DTD/sodipodi-0.dtd"
   xmlns:xlink="http://www.w3.org/1999/xlink"
   xmlns="http://www.w3.org/2000/svg"
   xmlns:svg="http://www.w3.org/2000/svg">
  <defs
     id="defs2" />
  <sodipodi:namedview
     id="namedview2"
     pagecolor="#ffffff"
     bordercolor="#000000"
     borderopacity="0.25"
     inkscape:showpageshadow="2"
     inkscape:pageopacity="0.0"
     inkscape:pagecheckerboard="0"
     inkscape:deskcolor="#d1d1d1"
     inkscape:zoom="6.9237539"
     inkscape:cx="89.257939"
     inkscape:cy="74.742691"
     inkscape:window-width="3440"
     inkscape:window-height="1377"
     inkscape:window-x="-8"
     inkscape:window-y="-8"
     inkscape:window-maximized="1"
     inkscape:current-layer="svg2" />
  <path
     style="fill:#ffffff"
     sodipodi:type="inkscape:offset"
     inkscape:radius="4.1660075"
     inkscape:original="M -107.33984 22.359375 L -91.28125 49.167969 L -91.28125 114.12109 L -107.33984 140.92969 L 1.1953125 140.85352 C 25.757313 140.85352 26.371094 124.64057 26.371094 111.97656 L 26.371094 44.929688 C 26.371094 38.827587 24.710532 22.359375 -2.4804688 22.359375 L -107.33984 22.359375 z M -35.416016 24.044922 L -20.353516 49.167969 L -20.353516 114.12109 L -35.416016 139.24414 L -50.480469 114.12109 L -50.480469 49.167969 L -35.416016 24.044922 z "
     xlink:href="#path2"
     id="path3"
     d="M -107.33984,18.193359 A 4.1664241,4.1664241 0 0 0 -110.91406,24.5 l 15.466794,25.820312 v 62.648438 l -15.466794,25.82031 a 4.1664241,4.1664241 0 0 0 3.57617,6.30664 l 108.5332025,-0.0762 c 13.1976365,0 21.4574755,-4.8695 25.4140625,-11.78711 3.956587,-6.91761 3.927734,-14.85655 3.927734,-21.25586 V 44.929687 c 0,-3.428948 -0.430045,-10.146738 -5.113281,-16.138671 C 20.740592,22.799082 11.956078,18.193359 -2.4804688,18.193359 Z m 71.923824,13.951172 10.896485,18.175781 v 62.648438 l -10.896485,18.17578 -10.898437,-18.17578 V 50.320312 Z"
     transform="translate(111.50578,-18.193359)" />
  <path
     d="M 91.15273,95.927426 76.08893,121.05073 61.02513,95.927426 V 30.974224 L 76.08893,5.8508336 91.15273,30.974224 Z M 109.05054,4.1657236 H 4.1655299 L 20.22513,30.974224 V 95.927426 L 4.1655299,122.73572 112.70154,122.65973 c 24.562,0 25.175,-16.213 25.175,-28.877006 0,-5.2085 0,-65.5659 0,-67.0468 0,-6.1021 -1.66,-22.5702004 -28.851,-22.5702004"
     fill="#0a2f87"
     id="path1" />
</svg>
