<svg width="151" height="48" viewBox="0 0 151 48" fill="none" xmlns="http://www.w3.org/2000/svg">
<path fill-rule="evenodd" clip-rule="evenodd" d="M136.901 30.2496C136.045 32.1504 134.041 33.6521 130.371 34.623C127.175 35.4376 122.464 35.8902 115.852 35.9807C109.315 36.0301 104.929 35.6434 102.679 34.9645C100.082 34.2116 99.7451 33.2695 100.531 31.5415L113.519 2.83659C113.894 2.00552 113.951 1.25262 113.746 0.577887C113.746 0.577887 126.784 0.384519 127.068 0.524402C127.125 0.697199 115.215 26.6373 115.215 26.6373C114.523 28.1596 114.959 29.2746 116 29.9657C116.955 30.5993 118.35 30.8174 119.493 30.838C122.061 30.838 124.41 30.0686 125.385 27.9127L136.975 0.713656L149.914 0.672514L136.901 30.2496ZM41.3109 34.8164H5.36494C5.86276 34.3227 6.26184 33.7755 6.56629 33.1501L20.8755 3.66766C21.3569 2.67614 21.5174 1.72575 21.3651 0.874111L57.6978 0.800055L54.2789 8.32907C52.049 7.05367 47.8648 5.77414 43.8041 5.77414L33.8436 5.90168L29.6265 14.5786L40.9941 14.7061L37.929 20.1945H26.944L22.7311 28.9948L35.5016 28.8714C40.3522 28.9948 45.8982 27.3121 46.2315 27.2092L41.3109 34.8123V34.8164ZM3.39834 41.1934L135.646 41.5267L0 47.9984L3.39834 41.1934ZM74.2246 13.6734L87.2584 5.30512C91.1176 2.58151 91.0559 0.619029 91.0559 0.619029L104.217 0.536745L95.5897 6.82738L84.074 15.278L89.5418 35.1291H89.1551C87.4148 35.1126 85.1273 35.1455 82.9673 35.1785C81.3751 35.199 79.857 35.2237 78.6844 35.2361L77.446 35.2278L72.3321 17.6354L64.4862 35.1785L51.6828 35.3348L52.1888 34.8287C52.7196 34.298 53.1475 33.6973 53.4519 33.0185L66.6339 3.71292C67.144 2.58563 67.2016 1.65993 66.9712 0.915253L66.856 0.540859L79.6348 0.56143L74.2246 13.6776V13.6734Z" fill="#861F41"/>
<path d="M141.62 30.9161C141.85 30.9161 142.072 30.9737 142.29 31.093C142.508 31.2123 142.677 31.3769 142.8 31.5991C142.92 31.8171 142.981 32.0475 142.981 32.282C142.981 32.5165 142.92 32.7428 142.8 32.9609C142.681 33.1789 142.512 33.3476 142.294 33.4669C142.076 33.5862 141.85 33.6479 141.616 33.6479C141.381 33.6479 141.155 33.5862 140.937 33.4669C140.719 33.3476 140.55 33.1789 140.431 32.9609C140.311 32.7428 140.25 32.5165 140.25 32.282C140.25 32.0475 140.311 31.8171 140.435 31.5991C140.558 31.381 140.727 31.2123 140.945 31.093C141.163 30.9737 141.385 30.9161 141.616 30.9161H141.62ZM141.62 31.1424C141.426 31.1424 141.241 31.1918 141.06 31.2905C140.879 31.3892 140.735 31.5291 140.632 31.7102C140.529 31.8912 140.48 32.0845 140.48 32.282C140.48 32.4795 140.529 32.6688 140.632 32.8457C140.731 33.0267 140.875 33.1666 141.056 33.2653C141.237 33.3682 141.426 33.4176 141.624 33.4176C141.821 33.4176 142.011 33.3682 142.192 33.2653C142.373 33.1666 142.512 33.0267 142.611 32.8457C142.71 32.6646 142.763 32.4754 142.763 32.282C142.763 32.0887 142.714 31.8953 142.611 31.7102C142.508 31.5291 142.368 31.3851 142.187 31.2905C142.006 31.1918 141.817 31.1424 141.628 31.1424H141.62ZM141.023 33.0349V31.5662H141.529C141.702 31.5662 141.825 31.5785 141.904 31.6073C141.982 31.6361 142.043 31.6814 142.089 31.7513C142.134 31.8171 142.159 31.8912 142.159 31.9652C142.159 32.0722 142.122 32.1668 142.043 32.245C141.965 32.3232 141.867 32.3684 141.739 32.3808C141.792 32.4013 141.834 32.4301 141.862 32.4589C141.92 32.5165 141.994 32.6153 142.08 32.751L142.257 33.039H141.969L141.838 32.8086C141.735 32.6276 141.653 32.5124 141.591 32.4672C141.546 32.4343 141.484 32.4178 141.402 32.4178H141.262V33.0432H141.023V33.0349ZM141.262 32.208H141.55C141.685 32.208 141.78 32.1874 141.829 32.1463C141.879 32.1051 141.904 32.0516 141.904 31.9817C141.904 31.9364 141.891 31.8994 141.867 31.8665C141.842 31.8336 141.809 31.8048 141.768 31.7883C141.727 31.7719 141.644 31.7636 141.529 31.7636H141.258V32.208H141.262Z" fill="#8A003A"/>
</svg>