<?xml version="1.0" encoding="UTF-8" standalone="no"?>
<svg
   width="113.48368"
   height="115.72257"
   fill="none"
   version="1.1"
   id="svg14"
   sodipodi:docname="FSU.svg"
   inkscape:version="1.4 (86a8ad7, 2024-10-11)"
   xmlns:inkscape="http://www.inkscape.org/namespaces/inkscape"
   xmlns:sodipodi="http://sodipodi.sourceforge.net/DTD/sodipodi-0.dtd"
   xmlns="http://www.w3.org/2000/svg"
   xmlns:svg="http://www.w3.org/2000/svg">
  <sodipodi:namedview
     id="namedview14"
     pagecolor="#ffffff"
     bordercolor="#000000"
     borderopacity="0.25"
     inkscape:showpageshadow="2"
     inkscape:pageopacity="0.0"
     inkscape:pagecheckerboard="0"
     inkscape:deskcolor="#d1d1d1"
     inkscape:zoom="9.7916667"
     inkscape:cx="56.782979"
     inkscape:cy="57.855319"
     inkscape:window-width="3440"
     inkscape:window-height="1377"
     inkscape:window-x="-8"
     inkscape:window-y="-8"
     inkscape:window-maximized="1"
     inkscape:current-layer="svg14" />
  <path
     fill="#0d1118"
     d="m 59.945,2.139 c -3.812,0 -7.535,0.38 -11.138,1.104 -2.533,0.16 -5.595,0.598 -7.603,1.53 -2.168,0 -4.23,0.312 -6.145,0.92 -1.954,0.447 -3.583,1.633 -5.28,2.693 -1.934,1.726 -4.89,3.991 -4.73,4.132 -0.19,0.098 -0.855,1.09 -1.789,1.556 -2.955,1.478 -6.85,5.916 -8.483,8.328 0,0 -2.324,3.403 -3.14,4.74 -0.905,1.643 -5.061,9.411 -6.719,14.02 -0.32,1.293 -0.457,3.568 -0.661,4.429 -0.126,0.768 -1.386,5.658 -1.07,9.8 0.049,0.652 0.151,1.046 0.103,1.532 -0.05,2.134 -0.302,3.476 0.106,5.63 0,0 0.01,-0.04 0.015,-0.054 0.141,2.187 0.404,4.336 0.788,6.446 0,0.039 0,0.078 0.004,0.117 0.798,4.331 1.746,8.595 3.301,12.606 0,0 1.109,4.229 1.629,5.337 0.457,0.501 0.841,0.564 0.948,1.075 0.651,2.95 1.347,4.754 3.369,7.059 a 0.813,0.813 0 0 0 0.583,0.194 c 0.21,-0.01 0.399,-0.078 0.555,-0.073 0.063,0 0.126,0.015 0.175,0.054 1.443,2.197 0.515,1.001 2.698,2.97 0.89,0.749 1.779,1.497 2.746,2.085 0.093,0.049 0.57,0.175 1.007,0.175 0.146,0 0.291,-0.014 0.418,-0.048 10.092,9.276 23.549,14.949 38.303,14.949 4.56,0 8.994,-0.545 13.248,-1.57 -1.323,-0.462 -2.62,-0.939 -3.895,-1.435 a 54.908,54.908 0 0 1 -9.353,0.803 54.217,54.217 0 0 1 -33.768,-11.731 c 0.034,-0.17 0.054,-0.355 0.054,-0.588 0,-0.462 0.034,-0.943 0,-1.4 -0.068,-0.885 -0.428,-1.434 -0.71,-2.222 a 2.172,2.172 0 0 1 -0.112,-0.647 c 9.11,8.313 21.23,13.384 34.536,13.384 1.157,0 2.3,-0.044 3.437,-0.117 a 98.778,98.778 0 0 1 -4.258,-2.095 c -1.04,-0.02 -2.081,-0.068 -3.107,-0.151 a 110.767,110.767 0 0 1 -9.135,-5.693 c -7.034,-4.851 -11.04,-9.888 -11.079,-9.931 -0.748,1.857 -1.264,3.908 -1.264,3.908 l -1.507,-2.445 c -0.569,-0.865 -0.87,-2.12 -1.084,-3.423 l -1.823,2.912 -0.695,-3.52 c 0,0 -0.375,-2.98 -0.413,-4.19 -0.034,0.049 -2.198,1.877 -2.198,1.877 l -0.16,-2.869 c 0,-0.034 -0.02,-2.82 -1.712,-5.444 -0.865,0.228 -1.769,0.35 -2.707,0.35 a 10.57,10.57 0 0 1 -4.137,-0.837 10.628,10.628 0 0 1 -6.49,-9.79 c 0,-5.868 4.759,-10.623 10.627,-10.623 2.017,0 3.904,0.564 5.508,1.541 a 10.614,10.614 0 0 1 5.114,9.086 c 0,1.833 -0.467,3.554 -1.283,5.061 0.656,0.579 1.18,1.07 1.575,1.44 a 9.44,9.44 0 0 1 3.801,-0.638 l 0.486,2.232 c 0.175,-0.005 0.35,-0.01 0.52,-0.01 0.487,-0.049 0.978,-0.092 1.474,-0.107 0.85,-0.03 1.692,0 2.523,0.068 0.044,-0.34 0.218,-0.651 0.476,-1.05 0.52,-0.817 1.24,-1.41 1.702,-2.27 0.413,-0.773 1.25,-2.436 1.667,-3.209 0.166,-0.306 0.36,-0.617 0.452,-0.958 0.112,0.03 1.23,0.064 1.614,0.36 a 0.395,0.395 0 0 1 0.117,0.141 c 0.15,0.413 0.384,0.778 0.666,1.094 1.225,1.366 3.393,1.833 3.977,1.663 0.476,-0.137 0.977,-0.01 1.39,0.277 l 0.117,0.087 c 0.194,0.16 0.37,0.355 0.496,0.579 0.15,0.262 0.593,0.87 0.967,1.526 1.565,2.732 9.256,11.434 12.042,14.079 a 135.392,135.392 0 0 0 0.277,0.262 c 0.258,0.234 0.457,0.394 0.578,0.467 1.182,0.69 2.523,1.03 3.802,0.37 0.768,-0.399 1.104,-1.162 1.57,-1.843 0.18,-0.258 0.346,-0.52 0.54,-0.773 0.33,-0.428 0.72,-0.885 1.191,-1.162 0.326,-0.194 8.809,-1.711 9.796,-1.852 1.171,-0.165 2.042,-0.37 2.965,-0.578 1.012,-0.234 3.797,-0.676 4.312,-1.07 -0.02,-0.068 -0.102,-0.049 -0.15,-0.049 l -0.36,0.054 c -0.311,0.049 -0.204,0.024 -0.544,0.044 -4.22,0.277 -8.095,-0.589 -11.999,-1.22 l -6.096,-0.667 c -1.07,-0.16 -2.304,-0.087 -3.306,-0.248 l -0.048,0.05 C 67.621,80.593 65.2,80.175 63.095,79.008 A 15.062,15.062 0 0 1 60.12,76.68 c -0.885,-0.9 -1.624,-1.91 -2.066,-2.961 -0.52,-0.89 -1.556,-3.34 -1.765,-4.356 0,0 0.826,-1.035 0.9,-2.1 -1.464,0.938 -2.825,1.711 -4.566,1.405 a 5.466,5.466 0 0 1 -1.006,-0.287 c -0.544,-0.433 -1.128,-0.953 -1.755,-1.39 -0.598,-0.413 -1.24,-0.744 -1.925,-0.846 -2.572,-0.447 -2.907,-0.034 -4.118,-1.123 2.402,-6.602 3.661,-2.922 6.515,-8.63 0.223,0.278 0.233,0.662 0.447,0.934 0.073,0.093 0.17,0.175 0.311,0.234 0.768,0.165 1.473,0.471 2.08,1.016 0.079,0.072 0.156,0.15 0.23,0.228 l 0.024,0.024 c 0.272,-1.837 0.447,-3.724 1.016,-5.44 -0.073,-0.18 0.107,-0.31 0.034,-0.461 -0.03,-0.156 -0.234,-0.477 -0.413,-0.73 -0.137,-0.194 -0.253,-0.345 -0.253,-0.345 0,0 -0.034,-0.087 -0.078,-0.184 v -0.005 l -0.015,-0.02 a 1.151,1.151 0 0 0 -0.111,-0.194 l -0.035,-0.034 c -0.097,-0.054 -0.724,-0.948 -0.763,-0.997 -0.374,-0.919 -1.166,-1.672 -1.72,-2.465 0,0.005 0,0.015 -0.006,0.02 -1.06,-2.553 -2.046,-3.89 -2.64,-4.54 -0.004,-0.006 -0.01,-0.015 -0.019,-0.02 -0.034,-0.04 -0.068,-0.073 -0.102,-0.107 a 1.905,1.905 0 0 1 -0.097,-0.102 l -0.01,-0.01 c 0,0 -0.01,-0.015 -0.02,-0.02 a 0.968,0.968 0 0 0 -0.16,-0.155 c 0,0 -1.434,-1.181 -1.691,-1.298 1.016,3.602 0,8.09 -0.307,9.48 -0.31,-0.418 -0.31,-6.092 -0.49,-6.617 -0.244,2.003 -0.327,7.58 -3.078,9.942 0.438,-1.706 2.25,-7.457 2.275,-7.535 -0.32,0.544 -1.629,3.442 -2.397,3.597 1.498,-4.949 2.28,-8.784 2.242,-9.13 -0.438,0.71 -0.963,1.901 -1.133,2.728 -0.248,-1.264 0.33,-2.523 0.71,-3.71 l -0.166,-0.641 c 0.04,-0.059 0.073,-0.102 0.097,-0.112 -0.262,-0.267 -0.52,-0.554 -0.763,-0.85 -0.058,-0.074 -0.111,-0.147 -0.17,-0.22 -0.063,-0.077 -0.126,-0.16 -0.19,-0.238 l -0.335,-0.466 -0.024,-0.04 c -0.02,-0.033 -0.04,-0.067 -0.063,-0.097 -0.102,-0.15 -0.2,-0.301 -0.292,-0.452 -0.195,-0.325 -0.37,-0.646 -0.53,-0.962 0,-0.01 0.01,-0.02 0.015,-0.03 l -0.049,-0.053 c -0.015,-0.024 -0.024,-0.049 -0.039,-0.073 -0.55,-1.133 -0.87,-2.26 -0.928,-3.636 0,-0.166 0.024,-0.35 0,-0.448 0.092,-0.077 0.038,-0.209 0.048,-0.31 a 0.13,0.13 0 0 0 -0.053,-0.044 c 0.014,-0.486 0.053,-1.002 0.13,-1.56 0.015,-0.137 0.05,-0.263 0.079,-0.385 0.097,-0.326 0.194,-0.651 0.238,-0.972 0.02,-0.054 0.044,-0.102 0.063,-0.156 0.136,-0.316 0.258,-0.476 0.447,-0.773 0.107,-0.165 0.253,-0.301 0.355,-0.471 0.321,-0.506 0.759,-0.832 1.128,-1.289 0.311,-0.257 0.622,-0.505 0.938,-0.753 0.132,-0.093 0.253,-0.175 0.336,-0.233 0.204,-0.142 0.34,-0.273 0.462,-0.39 0.34,-0.267 0.685,-0.534 1.02,-0.806 0,-0.015 0,-0.025 -0.01,-0.034 0.424,-0.253 1.386,-0.837 2.694,-1.6 l 0.112,-0.044 -0.02,-0.01 c 0.744,-0.442 0.496,-0.422 1.162,-0.976 0.059,-0.05 0.107,-0.088 0.156,-0.127 h 0.024 l -0.01,-0.01 c 0.477,-0.398 0.589,-0.486 1.211,-0.88 0.739,-0.471 0.87,-0.51 1.687,-0.753 0.243,-0.073 1.099,-0.535 1.444,-0.598 -0.025,0.014 0.228,-0.097 0.505,-0.21 0.122,-0.033 0.239,-0.082 0.365,-0.155 a 3.4,3.4 0 0 1 0.248,-0.102 c 0.953,-0.301 1.283,-0.291 2.372,-0.432 l 0.112,-0.01 h 0.01 c 0.044,-0.01 0.082,-0.015 0.131,-0.024 1.595,-0.22 2.625,-0.482 4.113,-0.491 a 0.192,0.192 0 0 1 -0.024,-0.044 c -0.04,-0.083 0.102,-0.049 0.597,-0.068 0.025,0 0.02,-0.049 -0.01,-0.127 0.03,0.034 0.054,0.068 0.083,0.102 a 0.282,0.282 0 0 1 0.078,-0.077 c -1.478,-2.747 -2.367,-5.265 -5.07,-7.088 3.092,1.478 5.377,4.117 6.952,7.204 0.082,-0.01 0.121,0.088 0.209,0.059 0.102,-0.122 0.053,-0.214 -0.015,-0.312 -0.015,-0.024 -0.034,-0.048 -0.049,-0.067 a 0.26,0.26 0 0 1 -0.048,-0.18 C 64.69,16.33 64.476,15.736 64.257,15.168 63.742,13.816 63.207,12.586 62.297,11.23 61.651,10.583 61.189,9.742 60.674,9.144 c 1.26,0.89 2.465,2.105 3.515,3.301 0.01,0.03 0.02,0.059 0.034,0.088 0.097,0.2 0.306,0.36 0.365,0.574 0.077,0.087 0.136,0.194 0.184,0.3 0.01,0.025 0.025,0.045 0.034,0.069 0.073,0.155 0.151,0.301 0.292,0.389 -0.01,-1.109 -0.19,-1.784 -0.457,-2.241 -0.442,-0.759 -1.128,-0.9 -1.643,-1.4 A 2.222,2.222 0 0 1 62.886,9.951 C 62.619,9.208 62.327,7.73 61.802,6.378 61.442,5.45 60.975,4.589 60.329,4.054 c 1.21,0.764 2.858,1.717 3.544,3.01 0.243,0.462 0.608,1.098 0.967,1.915 0.637,1.459 1.24,3.5 1.08,6.203 0.34,-0.481 0.369,-1.079 0.559,-1.623 0.37,-1.77 0.19,-3.822 -0.049,-5.586 1.089,2.285 1.536,4.38 1.254,7.175 l 0.049,0.049 c 0.778,-0.661 0.909,-1.157 1.385,-1.945 -0.398,1.668 -0.928,3.287 -2.085,4.628 l 0.2,0.2 c 4.5,1.935 8.57,4.968 12.245,8.794 0.165,0.229 0.316,0.467 0.438,0.72 0.267,0.549 0.393,1.157 0.233,1.828 0,0.641 -0.705,1.75 -0.408,2.362 a 0.67,0.67 0 0 0 0.277,0.282 c 0.72,0.37 3.184,0.788 4.424,1.488 0.102,0.053 0.194,0.107 0.296,0.16 0.102,0.054 0.204,0.107 0.306,0.165 0,0 0.005,0 0.01,0.005 0.112,0.063 0.224,0.122 0.33,0.185 0.06,0.034 0.127,0.068 0.186,0.102 0.004,0 0.01,0.005 0.014,0.01 0.102,0.058 0.2,0.112 0.292,0.17 0.082,0.049 0.16,0.097 0.238,0.141 0.15,0.092 0.301,0.185 0.447,0.272 0.073,0.044 0.141,0.088 0.214,0.136 0.097,0.064 0.19,0.122 0.282,0.185 0.02,0.01 0.034,0.024 0.054,0.034 0.116,0.078 0.228,0.15 0.34,0.229 0.005,0 0.015,0.01 0.02,0.014 0.174,0.122 0.344,0.243 0.52,0.365 0.01,0.01 0.019,0.014 0.034,0.024 0.17,0.127 0.34,0.248 0.51,0.374 a 20.7,20.7 0 0 1 0.083,0.068 c 0.19,0.146 0.384,0.297 0.573,0.448 0.034,0.029 0.073,0.058 0.107,0.087 0.195,0.156 0.39,0.316 0.579,0.481 1.439,1.216 2.844,2.567 4.686,4.196 0,0 0.034,0.039 0.054,0.058 0,0.005 0.005,0.01 0.01,0.015 0.243,0.292 0.65,0.885 0.66,1.517 0,0.16 -0.019,0.32 -0.077,0.48 -0.579,1.659 -1.945,1.47 -2.849,2.976 -0.438,0.564 -1.05,1.459 -1.162,1.702 0.267,1.424 0.754,1.648 1.084,2.022 0.384,0.442 1.007,0.783 1.172,1.264 a 0.753,0.753 0 0 1 -0.01,0.535 5.33,5.33 0 0 0 -0.462,1.468 c -4.482,0.792 -8.38,4.171 -8.38,4.171 l -0.098,0.15 c -0.054,2.937 -0.219,6.67 0.496,9.485 0.078,0.307 0.16,0.603 0.262,0.885 0.136,0.491 0.282,0.973 0.447,1.444 a 24.262,24.262 0 0 0 2.519,5.236 30.106,30.106 0 0 0 2.017,2.79 l 1.318,1.566 c -0.841,-1.872 -2.28,-4.264 -3.432,-6.578 a 31.645,31.645 0 0 1 -0.754,-1.614 c -0.355,-0.821 -0.642,-1.614 -0.822,-2.348 2.15,1.021 4.439,1.497 6.923,1.677 0.88,0.248 1.566,0.448 1.847,1.395 -0.048,0.36 -0.247,0.657 -0.456,0.958 -0.652,1.026 -0.54,2.562 0.111,3.564 0.078,0.107 0.151,0.209 0.224,0.316 0.01,0.02 0.024,0.034 0.039,0.053 0,0.005 0.005,0.01 0.01,0.015 0.583,0.865 1.03,1.779 1.458,2.712 0.015,0.054 0.02,0.102 0.03,0.156 0.106,0.617 -0.122,1.186 -0.39,1.682 -1.25,1.191 -2.615,2.105 -4.224,2.436 -5.82,1.307 -11.775,2.323 -16.617,5.999 -0.69,0.52 -1.346,1.123 -2.008,1.677 -0.646,0.544 -1.278,1.118 -1.774,1.803 a 7.1,7.1 0 0 0 -0.32,0.487 l 0.057,0.038 0.04,0.025 v 0.89 c 0.393,-0.453 0.743,-0.968 1.268,-1.255 0.015,0.015 0.03,0.03 0.04,0.049 a 9.276,9.276 0 0 0 -0.434,0.729 c -0.476,0.919 -0.578,1.891 -0.559,2.893 l 0.384,-0.069 c 0.078,-0.01 0.156,-0.019 0.224,-0.038 0.56,-0.122 0.797,-0.453 0.797,-0.453 0.384,0.253 0.754,0.501 1.104,0.75 v -0.02 c 0.38,-1.935 0.812,-4.327 1.871,-5.392 1.124,-1.123 3.661,-2.489 7.147,-3.845 3.14,-1.215 11.692,-3.252 12.557,-3.811 0.384,-0.248 2.017,-0.885 2.737,-2.694 l 0.097,-0.238 c 0.574,-1.439 0.661,-1.658 -0.909,-3.772 -1.458,-1.964 -1.001,-2.951 -0.783,-3.428 0.015,-0.029 0.03,-0.058 0.04,-0.082 0.024,-0.068 0.077,-0.151 0.145,-0.268 0.433,-0.739 0.788,-1.54 0.569,-2.246 a 0.984,0.984 0 0 0 -0.053,-0.126 c -0.01,-0.02 -0.015,-0.039 -0.025,-0.058 -0.121,-0.248 -0.32,-0.482 -0.632,-0.69 -1.278,-0.866 -2.362,-1.294 -2.931,-1.372 a 0.284,0.284 0 0 1 -0.068,-0.01 c -0.025,0 -0.044,-0.004 -0.068,-0.004 -0.17,-0.02 -0.263,-0.034 -0.331,-0.073 -0.107,-0.068 -0.185,-0.185 -0.253,-0.326 v -0.01 l -0.034,-0.077 a 6.072,6.072 0 0 1 -0.087,-0.234 c 0,-0.005 -0.005,-0.014 -0.01,-0.024 l -0.058,-0.17 a 3.108,3.108 0 0 0 -0.21,-0.51 1.133,1.133 0 0 0 -0.257,-0.18 c -0.467,-0.244 -1.279,-0.394 -1.736,-0.424 -0.058,0 -0.111,-0.004 -0.155,-0.004 a 1.01,1.01 0 0 1 -0.282,-0.049 h -0.005 a 0.416,0.416 0 0 1 -0.073,-0.024 0.069,0.069 0 0 1 -0.03,-0.01 0.07,0.07 0 0 1 -0.028,-0.01 C 90.071,66.782 89.663,66.5 89.575,66.505 L 87.072,65.878 C 86.488,65.503 86.24,65.275 86.148,64.915 a 1.573,1.573 0 0 1 -0.014,-0.068 c 0,-0.024 -0.01,-0.049 -0.015,-0.073 -0.054,-0.35 -0.015,-0.822 0,-1.604 0.029,-1.736 -0.097,-2.105 0.068,-2.242 0,0 0.496,0.142 1.089,0.005 0.574,-0.13 2.042,-0.69 2.168,-1.025 0,0 2.951,-1.148 3.077,-2.052 A 4.538,4.538 0 0 0 92.41,56.096 C 92.405,56.076 92.4,56.067 92.4,56.067 l -0.083,-0.165 0.17,-0.078 c 0.17,-0.073 1.648,-0.73 2.008,-0.788 0.355,-0.058 0.69,-0.165 0.812,-0.811 0.073,-0.404 0.204,-0.92 0.306,-1.332 0.073,-0.297 0.156,-0.632 0.16,-0.71 -0.028,-0.146 -0.408,-0.997 -0.865,-1.56 -0.301,-0.375 -0.982,-1.211 -0.996,-1.99 0,-0.257 0.063,-0.51 0.243,-0.733 0.617,-0.763 2.309,-2.266 2.644,-2.557 0.798,-0.7 0.89,-2.198 0.282,-3.228 -0.194,-0.336 -0.534,-0.764 -0.957,-1.24 -1.507,-1.697 -4.099,-4.02 -5.348,-5.06 -1.351,-1.129 -5.299,-3.438 -6.364,-3.953 -0.16,-0.078 -0.32,-0.146 -0.471,-0.219 -0.579,-0.262 -1.133,-0.37 -1.352,-0.729 -0.097,-0.165 -0.126,-0.384 -0.058,-0.69 0.039,-0.185 0.083,-0.346 0.131,-0.501 0.17,-0.617 0.292,-1.045 -0.068,-1.755 a 3.785,3.785 0 0 0 -0.184,-0.32 c -0.759,-1.197 -3.306,-3.86 -4.95,-5.174 -1.608,-1.288 -7.126,-4.808 -7.126,-4.808 l 0.637,-1.614 c 0.034,-0.116 0.053,-0.345 0.038,-0.345 0.098,-0.496 0.258,-1.22 0.307,-1.643 0.02,0 0.039,-0.175 0.034,-0.219 v -0.01 c 0.044,-0.568 0.048,-1.244 0.024,-1.657 a 3.872,3.872 0 0 0 -0.082,-0.399 c -0.015,-0.053 -0.025,-0.111 -0.044,-0.165 l -0.2,0.015 c 0,0 0,-0.034 -0.005,-0.049 -0.01,-0.2 -0.043,-0.38 -0.082,-0.54 21.765,5.008 38.055,24.531 38.055,47.798 0,12.893 -5.007,24.628 -13.165,33.393 a 49.267,49.267 0 0 1 -13.932,10.453 c 0.675,0.452 1.39,0.909 2.182,1.37 C 100.237,95.421 111.219,78.41 111.219,58.828 111.219,32.931 92.006,11.522 67.057,8.065 66.975,7.919 66.892,7.773 66.804,7.623 66.26,6.703 65.608,5.766 65.19,5.333 L 64.442,4.555 c 27.982,2.275 49.985,25.707 49.985,54.273 0,20.049 -10.836,37.565 -26.966,47.02 a 73.87,73.87 0 0 0 2.377,1.104 c 0,0 0.058,-0.039 0.156,-0.097 0.32,-0.2 0.636,-0.404 0.952,-0.608 0.132,-0.088 0.263,-0.17 0.394,-0.258 a 60.34,60.34 0 0 0 4.166,-3.043 58.525,58.525 0 0 0 3.987,-3.5 c 0.525,-0.506 1.04,-1.021 1.541,-1.546 a 56.18,56.18 0 0 0 4.122,-4.803 c 7.244,-9.46 11.464,-21.25 11.464,-34.273 0,-31.24 -25.416,-56.66 -56.656,-56.66 m 26.33,64.754 c 0.69,-0.175 1.138,-0.015 1.317,0.525 v 0.014 c 0,0.015 0.005,0.025 0.01,0.04 0.073,-0.044 0.146,-0.098 0.214,-0.103 0.613,-0.034 1.26,0.185 1.78,0.55 a 0.474,0.474 0 0 1 0.087,0.082 c 0.024,0.03 0.048,0.064 0.073,0.098 0.116,-0.064 0.272,-0.156 0.355,-0.132 0.66,0.165 1.414,0.204 1.949,0.423 0.102,0.044 0.141,0.233 0.224,0.306 -0.2,0.579 -0.846,0.35 -1.323,0.346 -0.384,-0.083 -0.884,-0.064 -1.142,-0.404 -0.316,0.2 -0.744,-0.048 -1.099,-0.097 -0.355,-0.131 -0.714,-0.214 -0.948,-0.404 -0.53,-0.233 -1.264,-0.49 -1.677,-0.938 A 1.262,1.262 0 0 1 85.92,66.962 c 0.18,-0.01 0.233,-0.02 0.369,-0.059 m 4.701,-9.115 c -0.326,0.384 -0.948,0.481 -1.444,0.384 -0.117,0.374 -1.152,1.347 -1.774,0.85 -1.6,1.663 -2.266,0.395 -2.48,0.171 0.453,-0.467 0.812,-1.288 1.61,-1.191 0.476,-0.564 0.807,-1.342 2.046,-1.376 0.287,-0.627 0.939,-0.656 1.371,-0.957 0.355,-0.132 0.433,0.204 0.608,0.384 0.044,0.097 0.087,0.209 0.131,0.335 0.146,0.433 0.238,0.977 -0.063,1.4 M 64.84,5.532 c 0.015,0.034 0.034,0.073 0.049,0.112 0.068,0.18 0.131,0.423 0.185,0.68 0.039,0.176 0.073,0.35 0.102,0.52 C 64.87,6.48 64.398,5.984 63.727,5.401 A 13.61,13.61 0 0 0 62.4,4.395 c 0.656,0.029 1.308,0.068 1.954,0.121 l 0.481,1.016 z"
     id="path2"
     transform="translate(-3.1363193,-2.139)"
     mask="url(#mask24)" />
  <path
     fill="#0d1118"
     d="m 53.26,64.487 c -0.379,0.238 -0.86,0.389 -1.327,0.248 -0.559,-0.17 -1.03,-0.54 -1.565,-0.758 -0.739,-0.501 -1.604,-0.7 -2.494,-0.807 l 0.311,0.199 c 1.099,0.19 1.886,1.157 2.844,1.726 0.72,0.379 1.954,0.612 2.645,0 0.447,-0.239 0.588,-0.705 0.66,-1.167 0,-0.89 -0.31,-1.774 -1.117,-2.188 -0.695,0.57 -1.118,1.44 -1.216,2.339 0.292,-0.34 0.438,-0.768 0.86,-1.021 0.36,-0.068 0.599,0.087 0.818,0.36 0.068,0.379 -0.088,0.787 -0.409,1.07 M 89.201,42.732 c 0.268,0.117 0.525,0.34 0.822,0.39 a 0.279,0.279 0 0 0 0.32,-0.195 c 0.137,-0.472 -0.738,-0.895 -1.03,-1.162 -0.21,-0.2 -0.476,-0.345 -0.632,-0.589 -0.121,-0.19 -0.117,-0.68 -0.38,-0.729 -0.32,-0.058 -0.631,0.131 -0.874,0.321 -0.229,0.175 -0.477,0.316 -0.7,0.496 -0.146,0.117 -0.399,0.258 -0.413,0.467 0.01,-0.122 1.346,0.34 1.448,0.379 0.481,0.2 0.963,0.413 1.44,0.627 M 66.265,39.986 c -2.504,2.47 -4.536,5.07 -5.576,8.342 0.66,-0.89 1.166,-1.901 1.968,-2.747 1.265,-2.144 2.762,-4.336 5.032,-5.644 2.324,-1.745 5.1,-2.436 8.036,-2.742 0.107,0.058 0.34,0.087 0.399,0 -0.229,-0.16 -0.525,-0.16 -0.754,-0.311 a 0.379,0.379 0 0 1 -0.117,-0.117 c -0.043,-0.078 -0.038,-0.155 -0.126,-0.258 -0.19,-0.223 -0.55,-0.13 -0.758,-0.33 -0.17,-0.165 -0.272,-0.52 -0.21,-0.749 0.112,-0.384 0.594,-0.15 0.9,-0.233 0.097,-0.049 0.91,-0.336 0.91,-0.336 -0.725,-0.88 -2.295,-0.49 -2.747,-0.247 -1.367,0.427 -2.806,0.7 -4.011,1.516 l -0.049,-0.048 c 0.53,-0.749 -1.356,0.296 -2.8,1.653 0.01,-0.151 -0.19,-0.404 -0.715,-1.225 0.102,-1.07 0.788,-2.028 1.43,-2.947 1.463,-1.706 5.27,-3.403 5.23,-3.203 0.628,0.608 1.425,1.026 2.037,1.78 0.263,0.32 0.38,0.675 0.51,1.059 0.254,-1.036 1.474,-1.342 2.237,-1.828 -0.16,0.102 -0.846,-0.19 -1.06,-0.219 -0.02,-0.418 0.19,-0.583 0.491,-0.768 0.263,-0.165 0.37,-0.802 0.36,-1.074 -0.01,-0.34 0.005,-0.783 -0.262,-0.992 -1.853,-1.439 -5.353,-2.547 -5.756,-1.96 -0.093,0.137 0.85,0.784 1.098,1.104 -0.073,-0.097 -1.74,-0.554 -1.881,-0.564 a 6.335,6.335 0 0 0 -1.39,0.098 c -0.958,0.16 -7.074,3.87 -7.555,4.103 0.02,1.487 3.938,-0.263 4.662,-0.603 -1.774,0.875 -6.548,4.813 -7.404,6.63 1.619,-0.091 4.414,-2.323 5.416,-2.62 1.41,-0.417 0.52,2.057 0.52,2.057 0,0 -1.59,1.074 0.739,0.841 0.573,-0.058 0.267,0.126 0,0.496 -0.457,0.617 -0.7,1.37 -0.554,1.458 0.457,-0.194 0.782,-0.37 1.01,-0.525 1.167,-0.462 3.297,-1.137 4.395,-1.42 l 0.05,0.05 c -1.11,0.7 -2.334,1.069 -3.453,1.725 v 0.102 c 0.448,0.205 0.05,0.51 -0.262,0.71"
     id="path3"
     transform="translate(-3.1363193,-2.139)"
     mask="url(#mask23)" />
  <path
     fill="#0d1118"
     d="m 84.656,48.78 c 0.67,0.102 0.753,0.277 3.16,-1.415 0.86,-0.797 2.323,-0.238 3.043,-1.269 0.088,-0.16 0.078,-0.447 -0.102,-0.51 -1.595,-0.38 -2.796,0.627 -4.01,1.726 -1.138,0.607 -2.397,-0.102 -3.418,-0.657 -0.812,-0.559 -0.91,-0.836 -0.987,-1.755 -0.953,-1.429 -1.945,-2.566 -1.945,-2.566 l -1.22,-1.478 C 77.797,39.3 76.629,38.721 76.629,38.721 l -1.118,-0.918 c -0.102,-0.132 -0.252,0.039 -0.301,0.058 1.575,1.828 3.704,3.534 4.823,5.59 0,0 1.59,2.178 1.934,4.473 0.69,3.082 0.52,6.466 0.287,9.611 -0.121,2.912 -0.039,4.502 0.321,6.986 0.486,3.082 1.001,4.405 1.775,6.023 -0.156,-0.456 -0.2,-1.526 -0.2,-1.526 -0.73,-3.544 -1.483,-8.017 -0.919,-11.176 0.438,-2.966 0.822,-6.34 0,-9.252 0.243,-0.55 1.172,0.146 1.415,0.2"
     id="path4"
     transform="translate(-3.1363193,-2.139)"
     mask="url(#mask22)" />
  <path
     fill="#ffffff"
     d="m 96.347,81.157 c 0.268,-0.496 0.496,-1.06 0.39,-1.682 -0.01,-0.049 -0.015,-0.102 -0.03,-0.15 -0.427,-0.934 -0.875,-1.848 -1.458,-2.713 0,0 0,-0.01 -0.005,-0.015 l -0.039,-0.053 a 7.403,7.403 0 0 0 -0.224,-0.316 c -0.646,-1.002 -0.758,-2.533 -0.111,-3.564 0.209,-0.301 0.408,-0.598 0.457,-0.958 -0.282,-0.948 -0.968,-1.147 -1.848,-1.395 -2.484,-0.18 -4.774,-0.656 -6.922,-1.677 0.18,0.734 0.471,1.526 0.821,2.348 0.229,0.53 0.481,1.07 0.754,1.614 1.152,2.319 2.59,4.706 3.432,6.578 l -1.318,-1.566 a 30.105,30.105 0 0 1 -2.017,-2.79 24.6,24.6 0 0 1 -2.966,-6.68 9.394,9.394 0 0 1 -0.262,-0.885 c -0.715,-2.815 -0.55,-6.548 -0.496,-9.484 l 0.102,-0.151 c 0,0 3.899,-3.379 8.381,-4.171 0.093,-0.52 0.229,-1.007 0.462,-1.468 a 0.78,0.78 0 0 0 0.01,-0.535 c -0.17,-0.477 -0.788,-0.817 -1.172,-1.264 -0.325,-0.374 -0.816,-0.598 -1.084,-2.027 0.117,-0.243 0.725,-1.138 1.162,-1.702 0.91,-1.507 2.27,-1.317 2.849,-2.975 0.058,-0.16 0.082,-0.321 0.078,-0.481 -0.01,-0.632 -0.423,-1.225 -0.662,-1.517 0,0 -0.01,-0.01 -0.01,-0.015 V 41.458 L 94.568,41.4 c -1.842,-1.628 -3.247,-2.98 -4.686,-4.195 -3.355,1.696 -4.609,4.283 -4.828,5.08 0,0 -1.614,0.083 -2.08,0.768 -0.064,0.092 -0.122,0.19 -0.175,0.292 -0.764,-1.05 -1.41,-1.804 -1.425,-1.823 l -0.19,-0.229 -1.06,-1.283 a 11.86,11.86 0 0 0 -0.33,-0.355 13.006,13.006 0 0 0 -1.653,-1.473 c 1.036,-1.313 2.212,-2.543 3.651,-3.471 0.297,-0.063 0.56,-0.204 0.822,-0.35 0.224,-0.16 0.2,-0.151 0.54,-0.282 0.31,-0.127 0.86,-0.33 1.307,-0.52 0.093,0.048 0.18,0.092 0.268,0.14 -0.102,-0.053 -0.195,-0.106 -0.297,-0.16 -1.24,-0.7 -3.704,-1.113 -4.424,-1.488 a 0.619,0.619 0 0 1 -0.277,-0.282 c -0.292,-0.612 0.409,-1.72 0.409,-2.362 0.165,-0.671 0.034,-1.279 -0.234,-1.828 a 4.46,4.46 0 0 0 -0.437,-0.715 c -3.67,-3.82 -7.745,-6.86 -12.246,-8.794 l -0.2,-0.2 c 1.157,-1.346 1.687,-2.965 2.086,-4.628 -0.477,0.788 -0.613,1.284 -1.386,1.945 l -0.048,-0.048 c 0.277,-2.796 -0.17,-4.891 -1.254,-7.176 0.238,1.765 0.417,3.821 0.048,5.59 -0.19,0.55 -0.219,1.148 -0.559,1.624 0.16,-2.707 -0.447,-4.75 -1.084,-6.208 -0.355,-0.816 -0.72,-1.448 -0.963,-1.915 -0.68,-1.293 -2.328,-2.246 -3.539,-3.01 0.647,0.53 1.114,1.396 1.473,2.324 0.525,1.352 0.817,2.83 1.084,3.574 0.04,0.107 0.073,0.199 0.112,0.272 0.52,0.496 1.2,0.642 1.643,1.4 0.268,0.452 0.448,1.133 0.457,2.241 -0.14,-0.087 -0.219,-0.233 -0.291,-0.389 a 0.45,0.45 0 0 0 -0.034,-0.068 c -0.054,-0.107 -0.107,-0.214 -0.185,-0.301 -0.058,-0.21 -0.268,-0.375 -0.365,-0.574 a 0.639,0.639 0 0 1 -0.034,-0.088 c -1.045,-1.2 -2.255,-2.416 -3.51,-3.3 0.516,0.598 0.977,1.434 1.624,2.085 0.914,1.356 1.444,2.586 1.96,3.938 0.218,0.569 0.432,1.162 0.67,1.794 a 0.26,0.26 0 0 0 0.049,0.18 c 0.014,0.024 0.034,0.048 0.048,0.073 0.063,0.097 0.117,0.19 0.015,0.31 -0.088,0.03 -0.127,-0.072 -0.21,-0.058 -1.574,-3.082 -3.854,-5.722 -6.951,-7.2 2.703,1.829 3.597,4.347 5.07,7.089 a 0.538,0.538 0 0 0 -0.077,0.077 c -0.03,-0.034 -0.054,-0.068 -0.083,-0.102 0.03,0.078 0.034,0.127 0.01,0.127 -0.491,0.02 -0.632,-0.015 -0.598,0.068 l 0.024,0.044 c -1.488,0.01 -2.518,0.272 -4.113,0.49 -0.044,0.005 -0.087,0.01 -0.126,0.02 h -0.01 l -0.112,0.014 c -1.084,0.142 -1.42,0.137 -2.372,0.433 -0.015,0 -0.112,0.044 -0.248,0.102 a 1.682,1.682 0 0 1 -0.365,0.156 c -0.272,0.117 -0.53,0.224 -0.5,0.209 -0.35,0.063 -1.206,0.53 -1.444,0.598 -0.817,0.243 -0.948,0.282 -1.687,0.753 -0.622,0.399 -0.74,0.486 -1.21,0.88 l 0.01,0.01 h -0.025 c -0.049,0.039 -0.097,0.078 -0.15,0.126 -0.662,0.555 -0.414,0.54 -1.163,0.978 0,0 0.015,0.004 0.02,0.01 l -0.112,0.043 c -1.308,0.763 -2.27,1.342 -2.693,1.6 0,0.01 0.01,0.019 0.01,0.038 -0.336,0.273 -0.676,0.54 -1.017,0.807 -0.121,0.117 -0.257,0.248 -0.462,0.39 -0.082,0.058 -0.199,0.14 -0.335,0.233 -0.311,0.248 -0.627,0.495 -0.938,0.753 -0.37,0.457 -0.807,0.778 -1.128,1.288 -0.107,0.17 -0.248,0.307 -0.36,0.472 -0.19,0.292 -0.311,0.452 -0.447,0.773 -0.02,0.049 -0.044,0.102 -0.063,0.155 -0.04,0.317 -0.141,0.647 -0.239,0.973 -0.029,0.121 -0.063,0.243 -0.077,0.384 -0.073,0.559 -0.112,1.074 -0.127,1.56 0,0 0.04,0.02 0.054,0.044 -0.01,0.102 0.039,0.229 -0.049,0.311 0.03,0.098 0,0.282 0,0.448 0.059,1.375 0.38,2.498 0.929,3.636 0.014,0.024 0.024,0.048 0.039,0.073 l 0.048,0.053 -0.014,0.03 c 0.16,0.316 0.335,0.636 0.53,0.962 0.087,0.15 0.19,0.301 0.291,0.452 0.02,0.03 0.044,0.063 0.063,0.097 l 0.025,0.04 c 0.107,0.155 0.218,0.31 0.335,0.466 0.058,0.083 0.127,0.16 0.19,0.238 0.058,0.073 0.111,0.146 0.17,0.219 0.243,0.296 0.5,0.583 0.763,0.85 0,0 -0.058,0.054 -0.097,0.113 l 0.165,0.641 c -0.379,1.186 -0.957,2.445 -0.71,3.71 0.17,-0.827 0.696,-2.018 1.133,-2.728 0.039,0.336 -0.739,4.176 -2.241,9.13 0.768,-0.156 2.08,-3.053 2.397,-3.597 0,0 -1.833,5.819 -2.276,7.535 2.747,-2.358 2.835,-7.939 3.078,-9.937 0.18,0.52 0.185,6.194 0.49,6.617 0.312,-1.386 1.323,-5.878 0.307,-9.48 0.263,0.116 1.692,1.298 1.692,1.298 a 0.973,0.973 0 0 1 0.16,0.155 3.558,3.558 0 0 0 0.03,0.03 c 0.034,0.029 0.063,0.063 0.097,0.097 0.034,0.034 0.068,0.068 0.102,0.106 0.005,0.01 0.014,0.015 0.02,0.02 0.592,0.647 1.58,1.988 2.639,4.54 0,-0.01 0,-0.014 0.005,-0.019 0.554,0.793 1.346,1.55 1.72,2.465 0.035,0.048 0.667,0.943 0.764,0.996 a 0.18,0.18 0 0 1 0.034,0.03 c 0.039,0.043 0.078,0.121 0.117,0.199 l 0.014,0.02 v 0.004 c 0.044,0.098 0.073,0.185 0.078,0.185 0,0 0.117,0.15 0.253,0.345 0.175,0.248 0.384,0.569 0.413,0.73 0.073,0.145 -0.102,0.281 -0.034,0.461 -0.569,1.716 -0.748,3.603 -1.016,5.44 L 53.426,58.809 A 5.024,5.024 0 0 0 53.197,58.58 c -0.607,-0.549 -1.312,-0.85 -2.08,-1.016 a 0.75,0.75 0 0 1 -0.311,-0.233 c -0.214,-0.272 -0.224,-0.661 -0.448,-0.933 -2.853,5.702 -4.113,2.027 -6.514,8.629 1.21,1.089 1.546,0.675 4.117,1.123 0.686,0.097 1.328,0.432 1.926,0.846 0.627,0.432 1.215,0.957 1.755,1.385 0.35,0.136 0.685,0.229 1.006,0.287 1.735,0.306 3.097,-0.467 4.565,-1.405 -0.073,1.065 -0.9,2.1 -0.9,2.1 0.21,1.016 1.245,3.471 1.76,4.36 0.443,1.056 1.177,2.062 2.066,2.961 0.885,0.9 1.926,1.697 2.97,2.33 2.106,1.166 4.532,1.584 7.065,1.725 l 0.048,-0.049 c 0.997,0.16 2.236,0.088 3.301,0.248 l 6.096,0.666 c 3.904,0.627 7.774,1.498 11.998,1.22 0.346,-0.019 0.229,0 0.545,-0.043 l 0.36,-0.054 c 0.048,0 0.13,-0.02 0.15,0.049 -0.515,0.389 -3.3,0.836 -4.312,1.07 -0.924,0.213 -1.794,0.413 -2.965,0.578 -0.982,0.14 -9.466,1.658 -9.791,1.852 -0.472,0.277 -0.856,0.734 -1.191,1.162 -0.195,0.248 -0.36,0.51 -0.54,0.768 -0.467,0.68 -0.802,1.444 -1.57,1.843 -1.279,0.66 -2.62,0.32 -3.802,-0.37 A 4.48,4.48 0 0 1 67.923,89.212 L 67.908,89.198 A 10.12,10.12 0 0 1 67.641,88.95 C 64.86,86.305 57.164,77.608 55.599,74.87 55.225,74.214 54.782,73.606 54.631,73.344 a 2.188,2.188 0 0 0 -0.495,-0.579 l -0.117,-0.087 c -0.413,-0.287 -0.914,-0.414 -1.39,-0.278 -0.584,0.17 -2.752,-0.296 -3.977,-1.662 a 3.39,3.39 0 0 1 -0.666,-1.094 0.29,0.29 0 0 0 -0.117,-0.14 c -0.384,-0.297 -1.502,-0.331 -1.614,-0.36 -0.087,0.34 -0.282,0.646 -0.452,0.957 -0.418,0.773 -1.25,2.436 -1.667,3.209 -0.462,0.855 -1.177,1.453 -1.702,2.27 -0.258,0.398 -0.433,0.71 -0.476,1.055 a 21.782,21.782 0 0 0 -2.523,-0.073 18.76,18.76 0 0 0 -1.474,0.112 c -0.175,0 -0.35,0 -0.52,0.005 l -0.486,-2.232 a 18.33,18.33 0 0 0 -0.734,0 9.57,9.57 0 0 0 -3.067,0.637 c -0.394,-0.374 -0.92,-0.86 -1.576,-1.439 a 10.27,10.27 0 0 1 -0.704,1.118 c 0.719,0.584 1.307,1.08 1.77,1.478 0.092,0.078 0.174,0.156 0.257,0.224 a 9.486,9.486 0 0 1 3.038,-0.754 c 0.243,-0.02 0.486,-0.034 0.74,-0.034 l 0.578,2.256 A 29.922,29.922 0 0 1 39.23,77.69 c 3.437,-0.277 7.414,0.982 10.16,2.567 0,0 5.188,2.878 8.338,5.459 0.486,0.413 0.652,0.442 1.04,0.89 0,0 -4.04,1.784 -10.787,1.716 5.129,1.696 12.664,0.175 12.664,0.175 2.79,1.609 3.743,2.353 6.451,4.054 l 3.296,2.076 c -1.181,-0.112 -2.863,1.42 -6.14,2.615 1.21,0.16 3.306,0.278 5.12,0.103 l 2.435,-0.433 c -0.02,-1.001 0.083,-1.974 0.559,-2.893 0.131,-0.248 0.277,-0.49 0.433,-0.729 a 0.193,0.193 0 0 0 -0.04,-0.048 c -0.524,0.286 -0.874,0.797 -1.268,1.254 v -0.89 l -0.039,-0.024 -0.058,-0.034 c 0.111,-0.18 0.223,-0.35 0.32,-0.486 0.496,-0.686 1.128,-1.26 1.775,-1.804 0.666,-0.554 1.322,-1.157 2.008,-1.677 4.842,-3.67 10.797,-4.691 16.616,-6 1.61,-0.33 2.975,-1.248 4.225,-2.435 M 53.664,65.09 c -0.69,0.612 -1.925,0.38 -2.645,0 -0.957,-0.569 -1.75,-1.536 -2.844,-1.726 l -0.31,-0.2 c 0.889,0.113 1.754,0.312 2.493,0.808 0.54,0.218 1.011,0.588 1.566,0.758 0.466,0.141 0.948,-0.01 1.327,-0.248 0.32,-0.282 0.481,-0.69 0.408,-1.07 -0.219,-0.267 -0.462,-0.427 -0.817,-0.36 -0.418,0.249 -0.568,0.681 -0.86,1.022 0.097,-0.9 0.52,-1.765 1.215,-2.334 0.812,0.409 1.118,1.298 1.118,2.183 -0.072,0.462 -0.209,0.929 -0.66,1.167 M 86.712,41.26 c 0.224,-0.18 0.472,-0.322 0.7,-0.497 0.243,-0.19 0.55,-0.379 0.875,-0.32 0.263,0.048 0.258,0.539 0.38,0.729 0.155,0.248 0.422,0.393 0.631,0.588 0.292,0.267 1.167,0.69 1.031,1.162 -0.044,0.146 -0.185,0.214 -0.32,0.194 -0.297,-0.048 -0.555,-0.267 -0.822,-0.389 -0.477,-0.214 -0.953,-0.428 -1.44,-0.627 -0.102,-0.039 -1.438,-0.5 -1.448,-0.38 0.014,-0.208 0.267,-0.35 0.413,-0.466 M 66.508,39.266 v -0.102 c 1.118,-0.657 2.343,-1.026 3.452,-1.726 l -0.049,-0.049 c -1.099,0.282 -3.228,0.958 -4.395,1.42 -0.223,0.156 -0.554,0.33 -1.011,0.525 -0.146,-0.088 0.097,-0.841 0.554,-1.459 0.268,-0.369 0.579,-0.554 0,-0.495 -2.333,0.233 -0.739,-0.841 -0.739,-0.841 0,0 0.89,-2.475 -0.52,-2.057 -1.001,0.297 -3.801,2.528 -5.415,2.62 0.86,-1.818 5.629,-5.75 7.404,-6.63 -0.725,0.34 -4.643,2.09 -4.663,0.602 0.482,-0.233 6.597,-3.947 7.555,-4.103 a 6.356,6.356 0 0 1 1.39,-0.097 c 0.141,0.01 1.809,0.467 1.882,0.564 -0.248,-0.316 -1.191,-0.967 -1.099,-1.104 0.404,-0.588 3.904,0.52 5.756,1.96 0.267,0.209 0.253,0.646 0.263,0.991 0.004,0.277 -0.098,0.914 -0.36,1.075 -0.302,0.19 -0.51,0.35 -0.491,0.768 0.214,0.029 0.9,0.32 1.055,0.219 -0.763,0.486 -1.979,0.792 -2.236,1.828 -0.132,-0.385 -0.248,-0.74 -0.511,-1.06 -0.608,-0.749 -1.405,-1.167 -2.037,-1.78 0.039,-0.199 -3.763,1.498 -5.23,3.204 -0.638,0.919 -1.328,1.877 -1.43,2.946 0.525,0.822 0.724,1.075 0.715,1.225 1.443,-1.356 3.33,-2.401 2.8,-1.653 l 0.048,0.049 c 1.21,-0.817 2.645,-1.089 4.016,-1.517 0.447,-0.238 2.022,-0.627 2.742,0.248 0,0 -0.812,0.282 -0.91,0.335 -0.306,0.088 -0.787,-0.15 -0.899,0.234 -0.063,0.228 0.04,0.583 0.21,0.748 0.208,0.2 0.568,0.107 0.758,0.336 0.082,0.102 0.082,0.18 0.126,0.258 0.02,0.038 0.054,0.073 0.117,0.116 0.228,0.151 0.525,0.156 0.753,0.312 -0.058,0.087 -0.286,0.058 -0.398,0 -2.937,0.31 -5.712,0.996 -8.036,2.741 -2.27,1.308 -3.773,3.496 -5.032,5.645 -0.802,0.845 -1.308,1.857 -1.969,2.746 1.04,-3.272 3.073,-5.873 5.576,-8.342 0.311,-0.2 0.705,-0.506 0.263,-0.71 m -0.175,22.382 c 0.291,-1.478 0.403,-1.905 0.909,-3.325 -1.177,1.517 -2.173,2.484 -2.883,2.43 a 28.567,28.567 0 0 1 1.08,-3.961 c -1.372,1.614 -2.747,2.635 -4.22,2.513 1.429,-7.273 5.566,-13.938 11.351,-18.546 h 1.366 c 0.297,0.31 0.593,0.612 0.885,0.909 0.326,0.325 0.637,0.651 0.943,0.967 0.54,0.569 1.026,1.128 1.395,1.677 0.117,0.17 0.224,0.34 0.316,0.506 0.059,0.112 0.127,0.219 0.204,0.32 0.253,0.356 0.856,1.333 1.196,2.354 -7.622,6.563 -7.486,16.261 -12.547,14.151 m 16.232,2.854 c -0.36,-2.484 -0.442,-4.069 -0.32,-6.986 0.228,-3.145 0.398,-6.524 -0.287,-9.61 -0.346,-2.29 -1.935,-4.474 -1.935,-4.474 -1.118,-2.056 -3.243,-3.762 -4.823,-5.59 0.049,-0.02 0.2,-0.19 0.302,-0.058 l 1.113,0.918 c 0,0 1.162,0.579 2.547,2.135 l 1.22,1.477 c 0,0 0.992,1.143 1.945,2.567 0.078,0.92 0.175,1.196 0.987,1.755 1.02,0.56 2.28,1.27 3.418,0.661 1.215,-1.098 2.416,-2.105 4.01,-1.725 0.18,0.063 0.19,0.35 0.102,0.51 -0.72,1.026 -2.187,0.472 -3.043,1.269 -2.406,1.692 -2.489,1.517 -3.16,1.415 -0.238,-0.054 -1.171,-0.754 -1.415,-0.2 0.822,2.912 0.438,6.286 0,9.252 -0.568,3.16 0.19,7.632 0.92,11.176 0,0 0.038,1.07 0.199,1.526 -0.773,-1.618 -1.289,-2.94 -1.775,-6.023"
     id="path6"
     transform="translate(-3.1363193,-2.139)"
     mask="url(#mask20)" />
  <path
     fill="#ffffff"
     d="M 87.11,35.114 87.057,35.08 c -0.092,-0.063 -0.19,-0.121 -0.282,-0.184 -0.068,-0.044 -0.14,-0.088 -0.214,-0.137 a 13.572,13.572 0 0 0 -0.447,-0.272 6.187,6.187 0 0 0 -0.238,-0.14 c -0.097,-0.06 -0.195,-0.113 -0.292,-0.171 -0.005,0 -0.01,-0.005 -0.014,-0.01 0.17,0.098 0.325,0.195 0.49,0.297 0.365,0.219 0.715,0.432 1.055,0.656 m 1.415,1.006 a 19.416,19.416 0 0 0 -0.505,-0.374 c -0.01,-0.01 -0.025,-0.014 -0.034,-0.024 -0.17,-0.122 -0.34,-0.243 -0.516,-0.365 0.205,0.141 0.399,0.282 0.593,0.428 0.151,0.112 0.312,0.219 0.462,0.335 z m -4.58,-0.301 c 0.17,-0.126 0.346,-0.253 0.516,-0.37 -0.058,0.04 -0.112,0.074 -0.17,0.112 -0.117,0.083 -0.234,0.175 -0.35,0.258 m 4.779,32.718 c 0.355,0.048 0.787,0.296 1.098,0.097 0.258,0.34 0.764,0.32 1.143,0.403 0.471,0 1.123,0.234 1.322,-0.345 -0.082,-0.073 -0.121,-0.262 -0.228,-0.306 -0.53,-0.219 -1.284,-0.263 -1.945,-0.423 -0.087,-0.02 -0.238,0.073 -0.355,0.131 -0.024,-0.034 -0.044,-0.063 -0.073,-0.097 A 0.478,0.478 0 0 0 89.6,67.919 c -0.52,-0.364 -1.172,-0.583 -1.78,-0.55 -0.068,0.006 -0.145,0.06 -0.213,0.103 0,-0.015 -0.005,-0.024 -0.01,-0.039 v -0.014 c -0.18,-0.54 -0.627,-0.705 -1.318,-0.525 a 1.679,1.679 0 0 1 -0.37,0.058 c 0.05,0.092 0.118,0.18 0.19,0.258 0.414,0.447 1.148,0.704 1.678,0.938 0.238,0.19 0.593,0.267 0.948,0.403 m -0.968,-9.538 c 0.627,0.496 1.663,-0.476 1.775,-0.85 0.496,0.097 1.118,0 1.444,-0.385 0.306,-0.423 0.209,-0.967 0.063,-1.4 A 4.876,4.876 0 0 0 90.908,56.043 C 90.733,55.858 90.66,55.527 90.3,55.659 c -0.438,0.296 -1.084,0.325 -1.371,0.957 -1.245,0.04 -1.57,0.812 -2.047,1.376 -0.792,-0.097 -1.152,0.725 -1.609,1.191 0.214,0.224 0.885,1.488 2.48,-0.17 M 36.887,91.38 c 0,0 -1.4,-1.93 -1.531,-2.513 0,0 -0.895,2.105 -1.298,3.909 -1.016,-1.522 -1.099,-5.27 -1.318,-6.908 0,0 -1.614,2.664 -2.08,3.47 -0.263,-2.206 -0.57,-3.883 -0.312,-6.742 -1.162,0.481 -1.667,1.089 -2.435,1.736 v -0.098 c -0.015,-0.554 -0.175,-3.18 -1.736,-5.77 -0.398,0.16 -0.807,0.296 -1.225,0.403 1.692,2.62 1.711,5.406 1.711,5.445 l 0.16,2.868 c 0,0 2.164,-1.823 2.198,-1.871 0.034,1.21 0.413,4.19 0.413,4.19 0,0 0.696,3.49 0.696,3.515 l 1.823,-2.912 c 0.209,1.303 0.51,2.557 1.084,3.422 l 1.507,2.446 c 0,0 0.515,-2.047 1.264,-3.909 0.034,0.03 4.035,5.076 11.084,9.932 a 111.02,111.02 0 0 0 9.134,5.693 c 1.026,0.083 2.062,0.131 3.107,0.151 -3.914,-2.042 -7.725,-4.342 -11.6,-6.967 -3.957,-2.761 -7.52,-5.785 -10.641,-9.494"
     id="path7"
     transform="translate(-3.1363193,-2.139)"
     mask="url(#mask19)" />
  <path
     fill="#782f40"
     d="m 91,111.366 c 0.749,-0.374 1.502,-1.094 3.65,-1.138 0,0 -2.274,-1.157 -3.179,-2.445 -1.75,0.462 -5.274,2.518 -6.99,2.445 1.434,-0.685 1.39,-0.797 2.912,-1.609 l 1.614,-1.205 0.811,-0.501 a 67.392,67.392 0 0 1 -2.377,-1.104 51.128,51.128 0 0 1 -3.354,-1.793 43.308,43.308 0 0 1 -2.183,-1.376 c -2.577,-1.731 -4.545,-3.442 -7.579,-5.533 -0.355,-0.243 -0.72,-0.49 -1.103,-0.748 0,0 -0.239,0.335 -0.798,0.452 a 2.41,2.41 0 0 1 -0.223,0.039 l -0.384,0.068 -2.436,0.432 c -1.813,0.175 -3.909,0.059 -5.12,-0.102 3.282,-1.196 4.964,-2.727 6.14,-2.615 l -3.295,-2.076 c -2.713,-1.697 -3.66,-2.44 -6.451,-4.05 0,0 -7.536,1.522 -12.665,-0.175 6.748,0.064 10.788,-1.72 10.788,-1.72 -0.389,-0.453 -0.554,-0.477 -1.04,-0.89 -3.155,-2.581 -8.338,-5.46 -8.338,-5.46 -2.751,-1.58 -6.728,-2.844 -10.16,-2.566 -0.661,0.058 -1.322,0.136 -1.974,0.238 l -0.578,-2.256 c -0.253,0 -0.496,0.015 -0.74,0.034 a 9.488,9.488 0 0 0 -3.038,0.754 c -0.077,-0.068 -0.165,-0.146 -0.257,-0.224 -0.457,-0.399 -1.055,-0.9 -1.77,-1.473 0,0 -0.01,-0.005 -0.01,-0.01 -0.228,0.321 -0.476,0.627 -0.739,0.92 a 37.818,37.818 0 0 1 1.644,1.56 c 0.218,0.218 0.423,0.447 0.646,0.66 1.337,-0.86 2.625,-1.312 4.278,-1.263 -1.337,0.642 -1.983,1.283 -2.693,2.504 l 0.131,0.286 c 4.4,-0.748 8.435,-1.492 12.655,1.186 3.47,1.926 5.43,3.258 8.356,5.698 -8.22,1.775 -12.834,0.812 -12.834,0.812 0,0 5.085,2.353 8.756,3.019 4.346,0.802 8.925,-0.336 8.925,-0.336 2.164,1.41 5.012,3.078 7.137,4.536 l -1.065,0.623 c -3.028,1.439 -7.72,2.877 -10.7,2.09 0.253,0.233 3.384,1.006 3.739,1.045 0.267,0.034 0.534,0.063 0.807,0.097 0.14,0.015 0.291,0.034 0.437,0.049 l 0.38,0.044 0.612,0.063 a 33.142,33.142 0 0 0 0.914,0.092 l 0.136,0.015 c 0.248,0.024 0.5,0.044 0.749,0.063 a 0.3,0.3 0 0 1 0.092,0.01 l 0.788,0.058 c 0.019,0 0.043,0 0.063,0.005 0.267,0.02 0.54,0.034 0.812,0.049 h 0.043 c 0.278,0.014 0.555,0.029 0.827,0.038 h 0.024 c 0.282,0.01 0.56,0.02 0.841,0.025 h 0.015 c 0.282,0.005 0.564,0.01 0.846,0.01 0.282,0 0.564,0 0.84,-0.01 1.6,-0.034 3.15,-0.165 4.57,-0.457 1.226,0.89 1.965,1.424 3.219,2.246 a 44.933,44.933 0 0 1 0.778,0.515 c 0.14,0.097 0.281,0.19 0.418,0.287 0.053,0.039 0.112,0.078 0.165,0.112 0.18,0.126 0.355,0.248 0.525,0.369 h 0.005 c 0.175,0.127 0.34,0.248 0.51,0.365 0.049,0.034 0.093,0.068 0.141,0.102 0.122,0.087 0.243,0.18 0.365,0.267 0.039,0.03 0.082,0.059 0.121,0.088 l 0.92,0.685 c 0.009,0.01 0.019,0.015 0.033,0.025 0.175,0.131 0.34,0.257 0.506,0.379 0.044,0.034 0.087,0.063 0.131,0.097 0.102,0.078 0.204,0.151 0.301,0.229 l 0.273,0.199 c 0.048,0.034 0.097,0.068 0.14,0.107 0.074,0.053 0.151,0.112 0.224,0.165 0.044,0.034 0.093,0.068 0.136,0.097 0.098,0.068 0.19,0.136 0.282,0.2 l 0.064,0.043 c 0.126,0.088 0.248,0.171 0.37,0.253 0.009,0.005 0.019,0.01 0.023,0.02 l 0.336,0.218 c 0.034,0.025 0.073,0.044 0.107,0.068 0.082,0.054 0.165,0.103 0.248,0.151 0.121,0.068 0.238,0.136 0.355,0.204 l 2.596,1.318 c -3.068,0.933 -12.674,-0.773 -26.811,-7.273 l -0.277,0.068 c 18.22,11.065 33.65,15.406 33.65,15.406 l -0.111,0.175 c 0,0 -13.121,-2.611 -29.174,-11.133 -10.515,-5.556 -20.257,-12.28 -28.449,-20.54 0,0 -0.603,0.55 -0.749,1.236 0,0 -0.418,-1.289 -0.515,-2.422 0,0 -0.87,0.161 -1.629,1.1 0,0 -0.228,-1.6 -0.033,-3.044 0,0 -1.6,-1.682 -3.486,-3.525 -0.423,-0.413 -0.856,-0.83 -1.293,-1.244 -0.302,-0.282 -0.598,-0.564 -0.895,-0.831 a 8.87,8.87 0 0 1 -1.857,0.967 8.764,8.764 0 0 1 -8.897,-1.59 8.77,8.77 0 0 0 6.632,3.029 c 0.986,0 1.925,-0.17 2.81,-0.467 0.418,0.486 0.773,0.987 1.074,1.493 1.56,2.59 1.72,5.216 1.735,5.765 v 0.103 c 0.769,-0.652 1.274,-1.26 2.436,-1.736 -0.258,2.854 0.049,4.536 0.311,6.743 0.467,-0.812 2.08,-3.471 2.08,-3.471 0.22,1.638 0.302,5.386 1.318,6.908 0.399,-1.799 1.294,-3.909 1.294,-3.909 0.13,0.584 1.53,2.514 1.53,2.514 3.122,3.704 6.685,6.733 10.643,9.494 3.874,2.625 7.685,4.925 11.599,6.966 a 101.627,101.627 0 0 0 10.175,4.614 c 1.274,0.496 2.572,0.972 3.894,1.434 a 122.7,122.7 0 0 0 5.445,1.745 c 12.674,3.719 24.404,1.658 24.404,1.658 0,0 -4.385,-3.101 -6.883,-5.518 -1.323,0.098 -3.88,-0.009 -5.159,-0.403"
     id="path8"
     transform="translate(-3.1363193,-2.139)"
     mask="url(#mask18)" />
  <path
     fill="#782f40"
     d="m 70.951,10.997 a 3.32,3.32 0 0 1 0.088,0.583 l 0.2,-0.01 0.043,0.166 c 0.034,0.13 0.063,0.267 0.088,0.398 0.024,0.413 0.019,1.09 -0.025,1.658 v 0.01 c 0.005,0.039 -0.014,0.223 -0.034,0.223 -0.049,0.423 -0.209,1.148 -0.306,1.643 0.014,0 -0.01,0.229 -0.039,0.346 l -0.632,1.614 c 0,0 5.523,3.52 7.127,4.808 1.643,1.312 4.19,3.976 4.949,5.172 0.073,0.112 0.131,0.219 0.185,0.321 0.36,0.71 0.238,1.138 0.068,1.755 -0.044,0.156 -0.088,0.32 -0.132,0.5 -0.068,0.312 -0.043,0.526 0.059,0.691 0.218,0.36 0.773,0.467 1.351,0.73 0.156,0.067 0.311,0.14 0.472,0.218 1.064,0.52 5.012,2.83 6.363,3.952 1.245,1.04 3.84,3.36 5.348,5.061 0.423,0.477 0.758,0.904 0.958,1.24 0.607,1.03 0.51,2.528 -0.282,3.228 -0.33,0.292 -2.028,1.794 -2.645,2.557 a 1.08,1.08 0 0 0 -0.243,0.734 c 0.015,0.778 0.69,1.614 0.997,1.988 0.457,0.564 0.836,1.415 0.865,1.56 -0.005,0.079 -0.088,0.414 -0.16,0.71 -0.103,0.414 -0.234,0.93 -0.307,1.333 -0.116,0.646 -0.452,0.753 -0.812,0.812 -0.36,0.058 -1.842,0.714 -2.007,0.787 l -0.17,0.073 0.082,0.165 c 0,0 0,0.01 0.01,0.03 0.044,0.155 0.233,0.894 0.112,1.76 -0.127,0.899 -3.078,2.05 -3.078,2.05 -0.126,0.341 -1.594,0.9 -2.163,1.027 -0.593,0.136 -1.089,-0.005 -1.089,-0.005 -0.165,0.14 -0.039,0.51 -0.068,2.246 -0.015,0.782 -0.053,1.259 0,1.604 0,0.024 0.01,0.049 0.015,0.073 l 0.014,0.068 c 0.097,0.36 0.345,0.588 0.924,0.963 l 2.504,0.627 c 0.087,-0.005 0.495,0.282 0.899,0.432 0.01,0 0.02,0.01 0.029,0.01 0.01,0 0.02,0.005 0.03,0.01 0.023,0.005 0.048,0.014 0.072,0.024 h 0.005 c 0.097,0.03 0.194,0.049 0.282,0.049 0.044,0 0.097,0 0.156,0.005 0.456,0.029 1.268,0.18 1.735,0.423 a 0.998,0.998 0 0 1 0.258,0.18 c 0.082,0.145 0.145,0.325 0.209,0.51 l 0.058,0.17 c 0,0.01 0.005,0.015 0.01,0.024 0.029,0.083 0.058,0.16 0.087,0.234 0.01,0.024 0.025,0.053 0.034,0.078 v 0.01 c 0.068,0.14 0.146,0.257 0.253,0.325 0.068,0.044 0.16,0.058 0.33,0.078 0.025,0 0.044,0 0.069,0.005 a 0.29,0.29 0 0 1 0.068,0.01 c 0.569,0.082 1.653,0.505 2.931,1.37 0.311,0.21 0.516,0.443 0.632,0.69 0.01,0.02 0.015,0.04 0.025,0.059 0.019,0.044 0.038,0.083 0.053,0.131 0.224,0.705 -0.136,1.507 -0.569,2.246 -0.068,0.117 -0.116,0.2 -0.146,0.268 l -0.038,0.087 c -0.22,0.477 -0.676,1.463 0.777,3.427 1.57,2.12 1.483,2.339 0.91,3.773 l -0.098,0.238 c -0.714,1.809 -2.353,2.445 -2.737,2.693 -0.865,0.554 -9.421,2.591 -12.557,3.812 -3.486,1.356 -6.023,2.722 -7.146,3.845 -1.06,1.065 -1.498,3.457 -1.877,5.391 v 0.02 c 3.034,2.09 5.003,3.802 7.58,5.532 A 49.348,49.348 0 0 0 95.837,92.173 c 8.158,-8.765 13.165,-20.505 13.165,-33.393 0,-23.267 -16.286,-42.786 -38.055,-47.798 m 1.477,85.838 c 0.56,-0.12 0.798,-0.451 0.798,-0.451 0,0 -0.239,0.335 -0.798,0.452 z"
     id="path9"
     transform="translate(-3.1363193,-2.139)"
     mask="url(#mask17)" />
  <path
     fill="#782f40"
     d="m 85.56,34.166 c -0.058,-0.034 -0.127,-0.068 -0.185,-0.102 l -0.33,-0.184 c 0,0 -0.005,0 -0.01,-0.005 -0.102,-0.054 -0.204,-0.112 -0.306,-0.166 -0.088,-0.048 -0.175,-0.097 -0.268,-0.14 -0.447,0.189 -0.996,0.398 -1.308,0.52 -0.34,0.136 -0.316,0.126 -0.54,0.282 -0.262,0.145 -0.524,0.286 -0.82,0.35 -1.44,0.923 -2.616,2.153 -3.652,3.47 0.448,0.331 1.021,0.813 1.653,1.474 0.078,-0.088 0.151,-0.175 0.224,-0.263 0.112,-0.121 0.214,-0.243 0.326,-0.364 0.194,-0.214 0.398,-0.419 0.598,-0.623 0.116,-0.117 0.233,-0.238 0.35,-0.355 0.199,-0.194 0.403,-0.379 0.607,-0.569 0.132,-0.121 0.263,-0.242 0.399,-0.36 0.194,-0.17 0.398,-0.33 0.598,-0.495 a 16.997,16.997 0 0 1 1.055,-0.807 c 0.116,-0.083 0.228,-0.175 0.35,-0.258 l 0.17,-0.111 c 0.515,-0.355 1.05,-0.681 1.59,-0.992 C 85.895,34.37 85.74,34.273 85.57,34.176 m -4.385,7.122 0.19,0.228 c 0,0 0.665,0.773 1.424,1.824 0.053,-0.102 0.111,-0.2 0.175,-0.292 0.466,-0.68 2.08,-0.768 2.08,-0.768 0.219,-0.797 1.473,-3.384 4.828,-5.08 -0.195,-0.16 -0.384,-0.321 -0.579,-0.482 -0.034,-0.029 -0.073,-0.058 -0.112,-0.087 -0.184,-0.146 -0.364,-0.292 -0.554,-0.433 -0.01,-0.005 -0.014,-0.01 -0.02,-0.014 l -0.072,-0.059 c 0,0 -0.01,-0.005 -0.01,-0.01 -0.15,-0.111 -0.311,-0.223 -0.462,-0.335 a 21.964,21.964 0 0 0 -6.888,5.508 z m -5.401,1.347 C 75.482,42.324 75.166,42.003 74.84,41.677 74.549,41.381 74.252,41.079 73.956,40.768 h -1.367 c -5.79,4.604 -9.922,11.274 -11.351,18.547 1.473,0.121 2.849,-0.9 4.22,-2.514 A 30.43,30.43 0 0 1 75.784,42.65 M 78.9,47.506 A 10.172,10.172 0 0 0 77.704,45.153 2.767,2.767 0 0 1 77.5,44.833 c -0.093,-0.17 -0.2,-0.341 -0.316,-0.506 a 31.945,31.945 0 0 0 -9.918,14.01 c -0.505,1.42 -0.622,1.848 -0.909,3.326 5.06,2.105 4.925,-7.594 12.548,-14.152 m -48.197,20.355 -4.268,-4.269 -1.468,1.464 0.5,0.014 c 0.112,0 0.423,0.059 0.574,0.214 l 3.408,3.403 c -0.166,0.18 -0.452,0.491 -0.724,0.773 -0.419,0.428 -0.69,0.676 -0.91,0.875 l -3.364,-3.364 c -0.481,-0.481 -1.269,-0.01 -1.303,0.01 l -2.425,1.526 -0.107,0.064 -0.778,-0.773 1.789,-1.79 c 0,0 0.243,-0.242 0.51,-0.267 0,0 0.088,-0.9 0.486,-1.58 l 0.214,-0.374 -0.398,0.233 c -0.676,0.39 -1.493,0.496 -1.503,0.496 -0.024,0.243 -0.31,0.481 -0.31,0.481 0,0 -3.482,3.476 -4.055,4.055 L 15.56,68.04 c 0.243,-0.272 0.569,-0.637 1.04,-1.065 0.652,-0.598 0.89,-0.739 1.021,-0.812 0.506,-0.286 0.972,-0.335 0.972,-0.335 L 17.3,64.54 17.227,64.593 c 0,0 -1.21,0.943 -1.89,1.624 -0.856,0.86 -1.887,2.256 -1.897,2.27 l -0.16,0.214 0.496,-0.097 c 0.248,-0.034 0.486,0.165 0.486,0.165 l 1.303,1.303 -0.292,0.287 c -0.253,0.253 -0.55,0.428 -0.579,0.442 l -0.194,0.102 0.773,0.263 0.19,0.19 0.248,0.821 0.121,-0.233 c 0,0 0.175,-0.321 0.442,-0.589 l 0.287,-0.286 1.172,1.171 0.17,0.17 c 0,0 0.32,0.307 0.263,0.676 -0.059,0.365 -0.107,0.593 -0.107,0.593 l 0.019,-0.01 2.125,-2.129 c 0,0 -0.273,0.044 -0.623,0.107 -0.35,0.063 -0.7,-0.301 -0.7,-0.301 l -0.165,-0.166 -1.133,-1.132 1.235,-1.235 1.074,1.08 c 0,0 0.584,0.529 1.318,0.072 0,0 2.114,-1.327 2.547,-1.594 l 0.793,0.792 c -0.195,0.267 -0.778,0.885 -1.021,1.108 -1.186,1.186 -2.076,1.143 -2.076,1.143 l 1.346,1.341 c 0,0 1.085,-0.797 1.74,-1.448 0.492,-0.496 0.871,-0.934 1.032,-1.118 l 2.104,2.1 0.185,-0.15 v -0.006 c 0.18,-0.136 1.128,-0.88 1.896,-1.648 0.686,-0.685 1.668,-1.978 1.668,-1.978 l 0.384,-0.491 -0.481,0.058 c 0,0 -0.34,0.063 -0.628,-0.224 m -7.554,-7.16 c 2.212,0 4.23,0.822 5.775,2.169 A 8.78,8.78 0 0 0 16.464,62.037 l 0.86,0.86 a 8.747,8.747 0 0 1 5.815,-2.207"
     id="path10"
     transform="translate(-3.1363193,-2.139)"
     mask="url(#mask16)" />
  <path
     fill="#ceb888"
     d="m 59.945,110.053 c -13.306,0 -25.425,-5.07 -34.536,-13.383 0.01,0.228 0.04,0.447 0.112,0.647 0.287,0.782 0.642,1.336 0.71,2.221 0.034,0.462 0,0.938 0,1.4 0,0.238 -0.02,0.418 -0.054,0.589 a 54.222,54.222 0 0 0 33.768,11.73 c 3.189,0 6.315,-0.277 9.353,-0.802 a 101.69,101.69 0 0 1 -5.916,-2.523 c -1.138,0.078 -2.28,0.117 -3.437,0.117 M 64.427,4.521 65.176,5.299 c 0.413,0.433 1.07,1.376 1.614,2.29 0.087,0.15 0.175,0.296 0.253,0.442 24.949,3.457 44.161,24.861 44.161,50.763 0,19.577 -10.982,36.593 -27.117,45.226 a 50.633,50.633 0 0 0 3.354,1.794 c 16.131,-9.455 26.967,-26.971 26.967,-47.015 0,-28.57 -21.998,-51.998 -49.98,-54.273"
     id="path11"
     transform="translate(-3.1363193,-2.139)"
     mask="url(#mask15)" />
  <path
     fill="#ceb888"
     d="M 65.17,6.845 A 10.79,10.79 0 0 0 65.069,6.325 4.776,4.776 0 0 0 64.884,5.645 C 64.87,5.605 64.854,5.566 64.835,5.532 L 64.355,4.516 A 51.402,51.402 0 0 0 62.4,4.395 c 0.442,0.296 0.904,0.637 1.322,1.006 0.671,0.588 1.143,1.08 1.449,1.444 z M 81.185,41.298 A 21.786,21.786 0 0 1 88.073,35.79 C 87.874,35.649 87.684,35.503 87.48,35.362 h -0.005 c 0,0 -0.01,-0.005 -0.014,-0.01 -0.112,-0.077 -0.224,-0.155 -0.345,-0.228 a 39.85,39.85 0 0 0 -1.05,-0.656 c -0.54,0.31 -1.075,0.641 -1.59,0.991 -0.175,0.117 -0.345,0.243 -0.516,0.37 a 16.774,16.774 0 0 0 -1.054,0.807 c -0.2,0.16 -0.404,0.326 -0.598,0.496 a 13.89,13.89 0 0 0 -0.399,0.36 21.99,21.99 0 0 0 -0.608,0.568 c -0.116,0.117 -0.233,0.234 -0.35,0.355 -0.2,0.204 -0.398,0.413 -0.598,0.622 -0.111,0.122 -0.214,0.244 -0.325,0.365 -0.073,0.087 -0.151,0.175 -0.224,0.262 0.107,0.112 0.219,0.229 0.33,0.355 l 1.06,1.284 m -13.933,17.03 a 31.985,31.985 0 0 1 9.918,-14.011 c -0.374,-0.55 -0.86,-1.104 -1.395,-1.672 a 30.372,30.372 0 0 0 -10.326,14.15 28.636,28.636 0 0 0 -1.08,3.967 c 0.71,0.059 1.707,-0.914 2.883,-2.43 m -7.895,41.454 c 14.137,6.5 23.749,8.206 26.816,7.273 l -2.596,-1.318 a 8.896,8.896 0 0 1 -0.355,-0.204 c -0.082,-0.049 -0.165,-0.097 -0.248,-0.151 -0.034,-0.024 -0.073,-0.043 -0.107,-0.068 a 7.123,7.123 0 0 1 -0.335,-0.218 c -0.01,-0.005 -0.02,-0.01 -0.025,-0.02 -0.121,-0.083 -0.243,-0.165 -0.369,-0.253 l -0.063,-0.043 c -0.093,-0.064 -0.185,-0.132 -0.282,-0.2 a 2.287,2.287 0 0 0 -0.136,-0.097 c -0.073,-0.053 -0.15,-0.112 -0.224,-0.165 a 2.583,2.583 0 0 1 -0.14,-0.107 c -0.088,-0.068 -0.18,-0.131 -0.273,-0.204 l -0.301,-0.229 c -0.044,-0.034 -0.088,-0.063 -0.127,-0.097 a 31.222,31.222 0 0 1 -0.505,-0.379 c -0.01,-0.01 -0.02,-0.015 -0.03,-0.025 -0.291,-0.218 -0.598,-0.447 -0.918,-0.68 l -0.122,-0.088 c -0.117,-0.087 -0.238,-0.175 -0.365,-0.267 -0.043,-0.034 -0.092,-0.068 -0.14,-0.102 a 23.26,23.26 0 0 0 -0.511,-0.365 h -0.005 c -0.17,-0.121 -0.345,-0.243 -0.525,-0.369 -0.053,-0.039 -0.112,-0.073 -0.165,-0.112 -0.136,-0.092 -0.277,-0.19 -0.418,-0.287 l -0.175,-0.117 a 32.54,32.54 0 0 0 -0.603,-0.398 c -1.254,-0.817 -1.993,-1.357 -3.218,-2.246 -1.42,0.291 -2.97,0.428 -4.57,0.462 -0.282,0.005 -0.56,0.01 -0.841,0.01 -0.282,0 -0.564,0 -0.846,-0.01 h -0.015 c -0.277,-0.005 -0.559,-0.015 -0.84,-0.025 h -0.025 a 44.57,44.57 0 0 1 -0.826,-0.039 h -0.044 c -0.273,-0.014 -0.54,-0.034 -0.812,-0.048 -0.02,0 -0.044,0 -0.063,-0.005 l -0.788,-0.058 a 0.604,0.604 0 0 1 -0.092,-0.01 c -0.253,-0.02 -0.5,-0.044 -0.749,-0.063 l -0.136,-0.015 c -0.233,-0.02 -0.467,-0.044 -0.7,-0.068 -0.073,-0.005 -0.141,-0.015 -0.214,-0.024 -0.204,-0.02 -0.408,-0.044 -0.613,-0.063 l -0.379,-0.044 c -0.145,-0.015 -0.291,-0.034 -0.437,-0.049 -0.272,-0.034 -0.54,-0.063 -0.807,-0.097 -0.35,-0.039 -3.486,-0.812 -3.739,-1.045 2.985,0.792 7.672,-0.647 10.7,-2.09 l 1.065,-0.623 c -2.124,-1.463 -4.973,-3.126 -7.137,-4.536 0,0 -4.574,1.138 -8.925,0.336 -3.67,-0.666 -8.756,-3.02 -8.756,-3.02 0,0 4.609,0.968 12.835,-0.811 -2.927,-2.445 -4.886,-3.777 -8.357,-5.698 -4.215,-2.678 -8.255,-1.93 -12.655,-1.181 l -0.13,-0.287 c 0.709,-1.225 1.355,-1.862 2.692,-2.504 -1.653,-0.043 -2.946,0.404 -4.278,1.264 -0.223,-0.213 -0.427,-0.442 -0.646,-0.666 0,0 -0.57,-0.583 -1.643,-1.56 0.262,-0.292 0.51,-0.598 0.739,-0.919 l 0.01,0.01 c 0.257,-0.36 0.49,-0.73 0.704,-1.118 A 10.618,10.618 0 0 0 27.747,59.514 10.552,10.552 0 0 0 22.239,57.978 c -5.867,0 -10.627,4.754 -10.627,10.622 0,4.4 2.679,8.177 6.49,9.79 a 10.57,10.57 0 0 0 4.137,0.837 10.575,10.575 0 0 0 3.933,-0.754 10.94,10.94 0 0 0 -1.074,-1.492 8.825,8.825 0 0 1 -2.81,0.467 8.78,8.78 0 0 1 -6.636,-3.029 8.764,8.764 0 0 0 8.897,1.59 8.626,8.626 0 0 0 1.857,-0.963 c 0.296,0.268 0.593,0.55 0.894,0.831 0.438,0.414 0.87,0.832 1.293,1.245 a 151.053,151.053 0 0 1 3.486,3.525 c -0.19,1.448 0.034,3.048 0.034,3.048 0.758,-0.938 1.629,-1.099 1.629,-1.099 0.102,1.133 0.52,2.421 0.52,2.421 0.146,-0.685 0.744,-1.235 0.744,-1.235 8.191,8.26 17.934,14.983 28.449,20.54 16.047,8.522 29.173,11.133 29.173,11.133 l 0.112,-0.175 c 0,0 -15.43,-4.342 -33.646,-15.406 l 0.277,-0.068 M 22.288,59.83 a 8.78,8.78 0 0 1 6.636,3.029 8.764,8.764 0 0 0 -5.776,-2.169 8.747,8.747 0 0 0 -5.814,2.207 l -0.86,-0.86 a 8.784,8.784 0 0 1 5.819,-2.207 m 5.59,12.319 c 0,0 -0.01,0.005 0,0.005 l -0.184,0.15 -2.105,-2.1 c -0.16,0.185 -0.54,0.623 -1.03,1.118 -0.657,0.652 -1.741,1.449 -1.741,1.449 0,0 -1.342,-1.342 -1.347,-1.342 0,0 0.89,0.044 2.076,-1.142 0.243,-0.229 0.826,-0.846 1.02,-1.113 l -0.791,-0.793 -2.548,1.595 a 1.102,1.102 0 0 1 -1.317,-0.073 l -1.08,-1.084 -1.234,1.234 1.132,1.133 0.166,0.165 c 0,0 0.35,0.365 0.7,0.302 0.35,-0.063 0.622,-0.107 0.622,-0.107 l -2.125,2.13 -0.019,0.009 c 0,0 0.049,-0.224 0.107,-0.593 0.058,-0.37 -0.262,-0.676 -0.262,-0.676 l -0.17,-0.175 -1.172,-1.171 -0.287,0.286 c -0.263,0.268 -0.438,0.584 -0.443,0.589 l -0.121,0.233 -0.248,-0.822 -0.19,-0.19 -0.772,-0.262 0.194,-0.102 c 0.03,-0.02 0.33,-0.19 0.578,-0.442 l 0.292,-0.287 -1.303,-1.303 c 0,0 -0.238,-0.2 -0.486,-0.165 l -0.496,0.097 0.16,-0.214 c 0,0 1.041,-1.41 1.897,-2.27 0.68,-0.68 1.876,-1.614 1.89,-1.624 l 0.074,-0.053 1.293,1.288 c 0,0 -0.467,0.049 -0.973,0.335 -0.126,0.073 -0.369,0.21 -1.02,0.812 -0.472,0.428 -0.798,0.797 -1.04,1.07 l 1.015,1.016 4.055,-4.055 c 0,0 0.287,-0.238 0.31,-0.481 0.006,0 0.822,-0.107 1.503,-0.496 l 0.399,-0.233 -0.214,0.374 c -0.399,0.68 -0.486,1.58 -0.486,1.58 -0.268,0.024 -0.51,0.267 -0.51,0.267 l -1.79,1.79 0.778,0.772 c 0,0 0.107,-0.068 0.107,-0.063 l 2.426,-1.526 c 0.034,-0.02 0.821,-0.491 1.303,-0.01 l 3.364,3.364 c 0.219,-0.194 0.49,-0.447 0.909,-0.875 0.272,-0.282 0.559,-0.593 0.724,-0.773 -0.627,-0.622 -3.199,-3.194 -3.408,-3.403 -0.15,-0.155 -0.457,-0.214 -0.573,-0.214 l -0.501,-0.014 1.468,-1.464 4.268,4.269 c 0.287,0.287 0.623,0.223 0.628,0.223 l 0.48,-0.058 c 0,0 -0.383,0.491 -0.383,0.486 0,0 -0.982,1.298 -1.668,1.984 a 21.708,21.708 0 0 1 -1.896,1.648"
     id="path12"
     transform="translate(-3.1363193,-2.139)"
     mask="url(#mask14)" />
  <path
     fill="#ffffff"
     d="m 104.364,103.014 a 2.705,2.705 0 0 1 2.717,2.713 2.704,2.704 0 0 1 -2.717,2.712 2.716,2.716 0 0 1 -2.723,-2.712 2.716,2.716 0 0 1 2.723,-2.713 z m 0,5.955 a 3.221,3.221 0 0 0 3.247,-3.242 3.217,3.217 0 0 0 -3.247,-3.238 3.22,3.22 0 0 0 -3.248,3.238 3.225,3.225 0 0 0 3.248,3.242 z m 0.559,-3.077 c 0.481,-0.015 0.967,-0.282 0.967,-0.997 0,-0.768 -0.593,-0.962 -1.249,-0.962 h -1.531 v 3.646 h 0.53 v -1.682 h 0.675 l 0.929,1.682 h 0.603 l -0.924,-1.682 z m -0.379,-1.434 c 0.437,0 0.821,0.034 0.821,0.496 0,0.491 -0.675,0.413 -1.171,0.413 h -0.559 v -0.909 z"
     id="path13"
     transform="translate(-3.1363193,-2.139)"
     mask="url(#mask1)" />
  <defs
     id="defs14">
    <mask
       maskUnits="userSpaceOnUse"
       id="mask1">
      <g
         id="g14"
         transform="translate(1)">
        <path
           fill="#ffffff"
           d="M 117.744,0 H 0 v 120 h 117.744 z"
           id="path14" />
      </g>
    </mask>
    <mask
       maskUnits="userSpaceOnUse"
       id="mask14">
      <g
         id="g15"
         transform="translate(1)">
        <path
           fill="#ffffff"
           d="M 117.744,0 H 0 v 120 h 117.744 z"
           id="path15" />
      </g>
    </mask>
    <mask
       maskUnits="userSpaceOnUse"
       id="mask15">
      <g
         id="g16"
         transform="translate(1)">
        <path
           fill="#ffffff"
           d="M 117.744,0 H 0 v 120 h 117.744 z"
           id="path16" />
      </g>
    </mask>
    <mask
       maskUnits="userSpaceOnUse"
       id="mask16">
      <g
         id="g17"
         transform="translate(1)">
        <path
           fill="#ffffff"
           d="M 117.744,0 H 0 v 120 h 117.744 z"
           id="path17" />
      </g>
    </mask>
    <mask
       maskUnits="userSpaceOnUse"
       id="mask17">
      <g
         id="g18"
         transform="translate(1)">
        <path
           fill="#ffffff"
           d="M 117.744,0 H 0 v 120 h 117.744 z"
           id="path18" />
      </g>
    </mask>
    <mask
       maskUnits="userSpaceOnUse"
       id="mask18">
      <g
         id="g19"
         transform="translate(1)">
        <path
           fill="#ffffff"
           d="M 117.744,0 H 0 v 120 h 117.744 z"
           id="path19" />
      </g>
    </mask>
    <mask
       maskUnits="userSpaceOnUse"
       id="mask19">
      <g
         id="g20"
         transform="translate(1)">
        <path
           fill="#ffffff"
           d="M 117.744,0 H 0 v 120 h 117.744 z"
           id="path20" />
      </g>
    </mask>
    <mask
       maskUnits="userSpaceOnUse"
       id="mask20">
      <g
         id="g21"
         transform="translate(1)">
        <path
           fill="#ffffff"
           d="M 117.744,0 H 0 v 120 h 117.744 z"
           id="path21" />
      </g>
    </mask>
    <mask
       maskUnits="userSpaceOnUse"
       id="mask21">
      <g
         id="g22"
         transform="translate(1)">
        <path
           fill="#ffffff"
           d="M 117.744,0 H 0 v 120 h 117.744 z"
           id="path22" />
      </g>
    </mask>
    <mask
       maskUnits="userSpaceOnUse"
       id="mask22">
      <g
         id="g23"
         transform="translate(1)">
        <path
           fill="#ffffff"
           d="M 117.744,0 H 0 v 120 h 117.744 z"
           id="path23" />
      </g>
    </mask>
    <mask
       maskUnits="userSpaceOnUse"
       id="mask23">
      <g
         id="g24"
         transform="translate(1)">
        <path
           fill="#ffffff"
           d="M 117.744,0 H 0 v 120 h 117.744 z"
           id="path24" />
      </g>
    </mask>
    <mask
       maskUnits="userSpaceOnUse"
       id="mask24">
      <g
         id="g25"
         transform="translate(1)">
        <path
           fill="#ffffff"
           d="M 117.744,0 H 0 v 120 h 117.744 z"
           id="path25" />
      </g>
    </mask>
  </defs>
</svg>
