<?xml version="1.0" encoding="utf-8"?>
<!-- Generator: Adobe Illustrator 27.7.0, SVG Export Plug-In . SVG Version: 6.00 Build 0)  -->
<svg version="1.1" id="Lope" xmlns="http://www.w3.org/2000/svg" xmlns:xlink="http://www.w3.org/1999/xlink" x="0px" y="0px"
	 viewBox="0 0 359.1 127.1" style="enable-background:new 0 0 359.1 127.1;" xml:space="preserve">
<style type="text/css">
	.st0{fill:#552B9A;}
</style>
<polygon class="st0" points="157,65.2 125.2,65.2 121.3,79 153.2,79 "/>
<polygon class="st0" points="116,98.3 147.9,98.3 151.3,85.7 119.5,85.7 "/>
<polygon class="st0" points="158.5,59.6 162.7,44.6 130.8,44.6 126.7,59.6 "/>
<path class="st0" d="M207.8,97.9l-23.7-8.5l-3.1,11.3c-0.9,3.1-4.3,5.6-7.8,5.6l-59.4,0l-3.2,11.5c-0.6,2.2-0.2,4.6,1.3,6.4
	c1.4,1.8,3.6,2.9,5.9,2.9h87.8l6.1-22C212.4,102.1,210.8,98.9,207.8,97.9L207.8,97.9z"/>
<path class="st0" d="M167.9,25.7c0.2-0.6,0.5-1.2,0.8-1.8h-32.2l-0.9,3.5L132,40.2h31.9C163.9,40.2,167.9,25.7,167.9,25.7z"/>
<path class="st0" d="M137.6,20.1l-0.2,0.7H203l-0.9,3.6c-0.8,3,0.8,6.1,3.8,7.2l23.7,8.6L238,9.3c0.6-2.2,0.1-4.6-1.3-6.4
	c-1.4-1.8-3.6-2.9-5.9-2.9h-96.2C140.7,8.8,138.8,15.8,137.6,20.1L137.6,20.1z"/>
<polygon class="st0" points="46.6,65.2 14.8,65.2 10.9,79 42.8,79 "/>
<polygon class="st0" points="52.3,44.6 20.4,44.6 16.3,59.6 48.1,59.6 "/>
<polygon class="st0" points="40.9,85.7 9.1,85.7 5.6,98.3 37.5,98.3 "/>
<path class="st0" d="M57.5,25.7c0.2-0.6,0.4-1.2,0.8-1.7L26,24.3l-4.4,15.9h31.9C53.5,40.2,57.5,25.7,57.5,25.7z"/>
<path class="st0" d="M27.2,20.1l-0.3,1.1l65.7-0.4l-1,3.6c-0.8,3,0.8,6.1,3.8,7.2l23.7,8.6l8.5-30.9c0.6-2.2,0.2-4.6-1.3-6.4
	c-1.4-1.8-3.6-2.9-5.9-2.9H24.3C30.2,8.8,28.4,15.8,27.2,20.1L27.2,20.1z"/>
<path class="st0" d="M109.6,66c-1.1-1.5-2.9-2.4-4.8-2.4H63.4l10.8,12.5c1.4,2.2,1.8,4.9,1,7.7l-4.6,16.7c-0.9,3.4-4.1,5.8-7.7,5.8
	l-59.6,0l-3.2,11.5c-0.6,2.2-0.2,4.6,1.3,6.4c1.4,1.8,3.6,2.9,5.9,2.9h87.8l15.4-55.9C111.1,69.4,110.7,67.4,109.6,66L109.6,66z"/>
<polygon class="st0" points="226.4,98.3 258.3,98.3 261.7,85.7 229.9,85.7 "/>
<polygon class="st0" points="268.9,59.6 273.1,44.6 241.2,44.6 237.1,59.6 "/>
<polygon class="st0" points="267.4,65.2 235.5,65.2 231.7,79 263.6,79 "/>
<path class="st0" d="M319.2,0l-27.7,100.5c-0.9,3.4-4.1,5.8-7.6,5.8h-27.8v0h-31.9l-3.2,11.5c-0.6,2.2-0.1,4.6,1.2,6.4
	c1.4,1.8,3.6,2.9,5.9,2.9H316l29.6-107.8c1.1-4.3,3.2-13.6,13.5-19.3L319.2,0L319.2,0z"/>
<polygon class="st0" points="278.8,24 246.9,24 242.4,40.2 274.3,40.2 "/>
<path class="st0" d="M248,20.1l-0.2,0.7h31.9L285.4,0h-40.3C251.1,8.8,249.1,15.8,248,20.1L248,20.1z"/>
</svg>
