<svg width="130" height="106" viewBox="0 0 130 106" xmlns="http://www.w3.org/2000/svg" xmlns:xlink="http://www.w3.org/1999/xlink"><defs><filter x="-2.2%" y="-4%" width="104.5%" height="111.3%" filterUnits="objectBoundingBox" id="a"><feOffset dy="2" in="SourceAlpha" result="shadowOffsetOuter1"/><feGaussianBlur stdDeviation="2" in="shadowOffsetOuter1" result="shadowBlurOuter1"/><feColorMatrix values="0 0 0 0 0 0 0 0 0 0 0 0 0 0 0 0 0 0 0.1 0" in="shadowBlurOuter1" result="shadowMatrixOuter1"/><feMerge><feMergeNode in="shadowMatrixOuter1"/><feMergeNode in="SourceGraphic"/></feMerge></filter><path id="b" d="M0 .13h124.608V100H0z"/></defs><g filter="url(#a)" transform="translate(-98 -11)" fill="none" fill-rule="evenodd"><g transform="translate(101 12)"><mask id="c" fill="white"><use xlink:href="#b"/></mask><path d="M66.433 100c.264 0 .521-.039.762-.116 2.33-.74 2.196-4.314 2.152-5.488a27.818 27.818 0 0 0-.23-2.59c2.04-.942 3.388-2.002 4.326-2.74.26-.204.488-.383.668-.509.768-.348 4.685-.941 7.919-1.296l.028-.003c6.537-.845 9.666-2.935 10.9-4.031.574.066 1.212.1 1.905.1 2.7 0 5.647-.499 6.65-.74.174-.041.594-.11 1.46-.11.629 0 1.197.037 1.374.05.17.026.513.068.993.068 1.277 0 3.866-.303 6.859-2.335 4.019-2.727 4.805-6.77 5.063-8.098.019-.094.033-.17.046-.227a.774.774 0 0 1 .112-.252c5.927-2.06 7.188-5.958 7.188-6.656 0-.103-.008-.225-.025-.492-.029-.446-.082-1.278-.113-2.398-.05-1.759-.334-4.014-2.114-5.853-1.06-1.095-2.465-1.595-3.461-1.822-.473-2.668-1.413-5.183-1.459-5.303l-.046-.11c-2.274-4.812-6.428-5.606-6.603-5.637l-2.193-.393.138.595c-.14-.161-.29-.322-.446-.481-1.29-1.314-3.075-2.009-5.162-2.009-1.23 0-2.22.24-2.61.35 0-.002-.002-.004-.004-.005-.301-.301-.89-.79-1.534-1.303a6.091 6.091 0 0 0 2.148-1.414c1.046-1.083 1.57-2.502 1.516-4.106-.119-3.508-2.89-5.961-5.194-7.401-2.244-1.403-5.731-2.605-8.035-3.209a2.166 2.166 0 0 1-.34-.117c.169-.092.35-.192.543-.3 1.143-.634 1.556-1.475 1.702-2.068.2-.816.03-1.691-.478-2.463-.603-.916-2.366-1.938-3.364-2.466l-.095-.046c-2.259-.995-3.385-2.492-4.69-4.227-.672-.893-1.366-1.816-2.252-2.718-2.749-2.799-4.764-3.394-7.983-3.608a8.663 8.663 0 0 0-.58-.02c-3.037 0-4.935 1.614-5.847 2.389-.893.759-1.372 2.176-1.756 3.315l-.048.14-.22-.071c-.478-.157-1.112-.364-1.955-.632-2.976-.947-6.725-1.146-9.346-1.146-1.068 0-1.95.036-2.417.07-.199.014-.434.032-.698.053-1.072.084-2.693.21-4.001.21-.384 0-.719-.01-.996-.032-.312-.077-1.092-.643-2.846-3.524a14.6 14.6 0 0 0-.391-.623c-.746-1.086-2.428-2.816-4.71-4.12C34.126.592 30.599.29 28.903.145L28.87.143A3.436 3.436 0 0 0 28.58.13c-2.396 0-3.974 2.472-4.953 4.332-.435.826-1.107 1.708-3.596 1.708-.47 0-.993-.032-1.556-.095a21.913 21.913 0 0 0-2.397-.154c-.678 0-2.6 0-3.307 1.103-.38.477-1.228 1.787-.749 3.523.471 1.708 2.278 3.982 3.074 4.672.468.406 1.454 1.104 2.694 1.796a7.039 7.039 0 0 1-.153.09l-.128-.049c-.356-.137-3.532-1.341-5.66-1.341-1.14 0-1.966.347-2.455 1.03-1.062 1.488.173 3.518 1.368 5.122a29.06 29.06 0 0 0 1.291 1.599c-4.653 6.163-6.068 14.358-6.418 17.01C.566 42.89.22 44.03.086 44.47c-.564 1.851 1.797 3.026 3.066 3.658.98.488 1.971.895 2.431 1.077-.045 1.111.63 6.346.84 7.926l.022.131c1.057 4.687 2.642 8.239 3.53 10.003-1.207.904-2.606 2.286-2.505 3.788.133 2.004 2.785 2.359 3.783 2.493.858.115 1.748.163 2.392.183 1.73 3.41 4.848 6.955 5.001 7.128 4.058 4.487 10.122 7.344 12.378 8.305.092 1.173.253 3.147.352 3.905.195 1.496 1.14 2.233 2.005 2.326.136.023.276.034.418.034 1.843 0 4.082-2.05 5.442-3.511 1.171.5 3.312 1.277 6.612 1.985 2.04.437 4.772.659 8.118.659 2.227 0 4.157-.1 5.181-.163.47.563 1.232 1.445 2.103 2.335 2.869 2.93 4.329 3.268 5.178 3.268zm0 0c.264 0 .521-.039.762-.116 2.33-.74 2.196-4.314 2.152-5.488a27.818 27.818 0 0 0-.23-2.59c2.04-.942 3.388-2.002 4.326-2.74.26-.204.488-.383.668-.509.768-.348 4.685-.941 7.919-1.296l.028-.003c6.537-.845 9.666-2.935 10.9-4.031.574.066 1.212.1 1.905.1 2.7 0 5.647-.499 6.65-.74.174-.041.594-.11 1.46-.11.629 0 1.197.037 1.374.05.17.026.513.068.993.068 1.277 0 3.866-.303 6.859-2.335 4.019-2.727 4.805-6.77 5.063-8.098.019-.094.033-.17.046-.227a.774.774 0 0 1 .112-.252c5.927-2.06 7.188-5.958 7.188-6.656 0-.103-.008-.225-.025-.492-.029-.446-.082-1.278-.113-2.398-.05-1.759-.334-4.014-2.114-5.853-1.06-1.095-2.465-1.595-3.461-1.822-.473-2.668-1.413-5.183-1.459-5.303l-.046-.11c-2.274-4.812-6.428-5.606-6.603-5.637l-2.193-.393.138.595c-.14-.161-.29-.322-.446-.481-1.29-1.314-3.075-2.009-5.162-2.009-1.23 0-2.22.24-2.61.35 0-.002-.002-.004-.004-.005-.301-.301-.89-.79-1.534-1.303a6.091 6.091 0 0 0 2.148-1.414c1.046-1.083 1.57-2.502 1.516-4.106-.119-3.508-2.89-5.961-5.194-7.401-2.244-1.403-5.731-2.605-8.035-3.209a2.166 2.166 0 0 1-.34-.117c.169-.092.35-.192.543-.3 1.143-.634 1.556-1.475 1.702-2.068.2-.816.03-1.691-.478-2.463-.603-.916-2.366-1.938-3.364-2.466l-.095-.046c-2.259-.995-3.385-2.492-4.69-4.227-.672-.893-1.366-1.816-2.252-2.718-2.749-2.799-4.764-3.394-7.983-3.608a8.663 8.663 0 0 0-.58-.02c-3.037 0-4.935 1.614-5.847 2.389-.893.759-1.372 2.176-1.756 3.315l-.048.14-.22-.071c-.478-.157-1.112-.364-1.955-.632-2.976-.947-6.725-1.146-9.346-1.146-1.068 0-1.95.036-2.417.07-.199.014-.434.032-.698.053-1.072.084-2.693.21-4.001.21-.384 0-.719-.01-.996-.032-.312-.077-1.092-.643-2.846-3.524a14.6 14.6 0 0 0-.391-.623c-.746-1.086-2.428-2.816-4.71-4.12C34.126.592 30.599.29 28.903.145L28.87.143A3.436 3.436 0 0 0 28.58.13c-2.396 0-3.974 2.472-4.953 4.332-.435.826-1.107 1.708-3.596 1.708-.47 0-.993-.032-1.556-.095a21.913 21.913 0 0 0-2.397-.154c-.678 0-2.6 0-3.307 1.103-.38.477-1.228 1.787-.749 3.523.471 1.708 2.278 3.982 3.074 4.672.468.406 1.454 1.104 2.694 1.796a7.039 7.039 0 0 1-.153.09l-.128-.049c-.356-.137-3.532-1.341-5.66-1.341-1.14 0-1.966.347-2.455 1.03-1.062 1.488.173 3.518 1.368 5.122a29.06 29.06 0 0 0 1.291 1.599c-4.653 6.163-6.068 14.358-6.418 17.01C.566 42.89.22 44.03.086 44.47c-.564 1.851 1.797 3.026 3.066 3.658.98.488 1.971.895 2.431 1.077-.045 1.111.63 6.346.84 7.926l.022.131c1.057 4.687 2.642 8.239 3.53 10.003-1.207.904-2.606 2.286-2.505 3.788.133 2.004 2.785 2.359 3.783 2.493.858.115 1.748.163 2.392.183 1.73 3.41 4.848 6.955 5.001 7.128 4.058 4.487 10.122 7.344 12.378 8.305.092 1.173.253 3.147.352 3.905.195 1.496 1.14 2.233 2.005 2.326.136.023.276.034.418.034 1.843 0 4.082-2.05 5.442-3.511 1.171.5 3.312 1.277 6.612 1.985 2.04.437 4.772.659 8.118.659 2.227 0 4.157-.1 5.181-.163.47.563 1.232 1.445 2.103 2.335 2.869 2.93 4.329 3.268 5.178 3.268z" fill="#FFFFFE" mask="url(#c)"/></g><path d="M121.662 28.776c-2.016-.824-3.912-2.07-4.602-2.668-.689-.598-2.252-2.62-2.62-3.952-.367-1.333.552-2.298.552-2.298s.23-.781 4.32-.322c4.09.46 5.699-.643 6.618-2.39.919-1.746 2.206-3.676 3.814-3.538 1.609.138 4.917.414 7.17 1.7 2.251 1.287 3.722 2.941 4.227 3.677.506.735 2.574 4.641 4.32 4.78 1.746.137 4.642-.139 5.928-.23 1.287-.093 7.17-.276 11.214 1.01 4.044 1.287 3.246 1.16 3.599.764.353-.396.858-3.015 1.777-3.797.92-.78 2.62-2.206 5.377-2.022 2.758.184 4.504.598 7.031 3.171 2.528 2.574 3.54 5.56 7.4 7.261 0 0 2.337 1.237 2.823 1.975.485.737.531 1.748-.71 2.437a57.324 57.324 0 0 1-1.976 1.057s.184 1.562 2.114 2.068 5.423 1.654 7.629 3.033c2.206 1.379 4.412 3.493 4.504 6.204.091 2.712-1.977 4.642-5.745 4.596 0 0 3.263 2.435 4.044 3.217.781.78 1.333.413 1.333.413s3.952-1.287 6.434 1.241c2.481 2.528 2.481 5.285 2.711 8.87 0 0 1.894-2.469.58-8.174 0 0 3.556.637 5.532 4.819 0 0 1.196 3.174 1.54 6.068 0 0 2.32.136 3.7 1.56 1.378 1.425 1.654 3.217 1.7 4.872.046 1.654.137 2.665.137 2.849 0 .184-1.01 3.585-6.525 5.377 0 0-.552.413-.736 1.195-.183.781-.643 4.825-4.503 7.445-3.86 2.62-6.848 2.022-6.848 2.022s-2.206-.184-3.354.092c-1.15.275-5.837 1.057-8.732.505 0 0-2.39 3.08-10.57 4.136 0 0-7.537.827-8.548 1.517-1.01.689-2.655 2.346-5.831 3.585 0 0 1.282 6.939-.74 7.582-2.022.643-6.94-5.607-6.94-5.607s-8.502.69-13.649-.413c-5.147-1.103-7.286-2.347-7.286-2.347s-3.56 4.185-5.306 3.817c0 0-.597 0-.735-1.057s-.413-4.733-.413-4.733-7.905-2.987-12.684-8.272c0 0-3.644-4.123-5.154-7.6 0 0-5.554.063-5.646-1.316-.092-1.378 2.964-3.212 2.964-3.212s-2.55-4.278-4.02-10.804c0 0-.874-6.618-.828-7.675.046-1.057-.69-1.333-.69-1.333s-5.192-1.976-4.87-3.033c.321-1.057 5.509-3.437 5.509-3.437s.995-11.001 6.98-18.051c0 0-4.31-4.523-3.39-5.81.919-1.286 6.387.828 6.387.828s.552.46 1.471-.092c.92-.552 2.212-1.56 2.212-1.56" fill="#1C284D"/><path d="M129.147 29.83c-2.941.529-6.09-.46-6.09-.46l-2.227 1.88s1.837.81 2.25 1.062c.414.253.869.868 1.078 1.434 0 0 2.534-3.52 5.035-3.686.344-.023-.046-.23-.046-.23zm-12.163 17.985l4.54-7.829c-3.703.322-5.456-3.074-5.456-3.074-5.51 6.5-6.471 16.318-6.471 16.318 5.633-1.508 6.774-.115 6.774-.115-.797-2.39.613-5.3.613-5.3zm-2.773 30.82l4.848-3.653s1.38-.873 2.827-.23c0 0-2.97-5.065-3.576-8.162a249.778 249.778 0 0 0-1.225-5.94s-1.564.798-3.127.752c-1.562-.046-4.366-.92-4.366-.92s.276 7.584 1.954 11.926c1.677 4.343 2.665 6.227 2.665 6.227zm10.594 3.233c-.256 1.034-.599 1.34-2.483 1.846-1.884.505-5.193.39-5.193.39s1.333 3.493 5.573 7.541 10.817 7.05 10.817 7.05.407-2.275.775-3.515c.367-1.241.827-1.448.827-1.448s-2.183.16-3.7-.85c-1.516-1.011-3.653-4.458-3.653-4.458s-1.585-2.872-2-4.366c-.413-1.493-.915-2.381-.963-2.19zm16.36 18.964c.872.46 4.41 1.953 8.915 2.367 4.503.413 9.904.165 9.904.165s-.437-.923-.506-2.118c-.07-1.195.969-1.604.969-1.604-7.97 1.339-11.332.73-14.25.202-2.919-.528-4.01-2.236-4.01-2.236s-.15.903-.38 1.34c-.23.437-.453.895-1.053 1.712l.41.172zm30.123-1.516c-1.394 1.316-3.376 2.176-3.376 2.176s-.185-.844-.254-1.096c-.07-.253-.324-.546-.324-.546.206-.177.6-.259.6-.259l3.63-.642s.138-.024-.276.367z" fill="#C02537"/><path d="M211.504 70.797s2.477.348 3.672-.801c1.195-1.15 1.563-2.022 1.425-3.447-.138-1.425-.644-3.17-1.103-4.182-.46-1.01-1.527-2.197-1.798-2.018-.27.18-.023 1.064-.023 1.064s.258 2.103-.11 2.838c-.367.736-1.792 3.447-1.93 4.734-.137 1.287-.133 1.812-.133 1.812zm-5.887.118s1.47.276 2.16.505c.69.23.873.69 1.655-.137.78-.828.551-2.62.183-3.355-.367-.736-2.068-.736-2.068-.736s-1.792.138-2.94.46c-1.15.322-.915 3.075-.915 3.075l1.925.188zm-6.432-.881c.6-.023 2.52.416 2.52.416.314-.281.374-1.695.374-2.247 0-.551-.12-.85-.12-.85s-.662.299-.983.39c-.322.093-.827-.091-1.241-.137-.414-.046-1.93.322-2.574.552-.643.23-.597.275-.965.919-.367.643-.873 1.286-.873 1.286s3.26-.306 3.862-.329zm-10.571-1.693s-1.333-.046-1.563.92c-.23.965.232 1.507.346 1.374.114-.134.267-.313.711-.226.445.087 3.768.138 3.768.138s2.567-.112 2.547-.883c-.019-.771-.531-1.04-.531-1.04s-.867.177-1.142.177c0 0-1.471.23-1.93.23-.46 0-1.241-.46-1.241-.46s-.552-.276-.965-.23zm-6.894-6.663s-.505-.69-.551-.092c-.046.597-.46 4.78-.598 5.285-.138.505-.78 2.252-.78 2.252s-.552 1.424.045 1.424c0 0 1.492-.06 2.62-.367 1.127-.308 2.013-.63 2.16-.965.146-.337.275-.598-.047-1.609-.321-1.011-2.297-5.147-2.849-5.928zm9.283-6.48s-.854.028-.856.228c-.002.2.979.385 1.469.385.49 0 2.39.122 2.88.735.49.613.796 1.103.796 1.41 0 .306.072 1.358.588 1.26.515-.097.904-1.023.924-1.571.02-.548-.899-1.59-1.757-1.957-.857-.368-1.286-.49-4.044-.49zM136.96 95.456s-.306.06-.551.704c-.245.643-.92 3.83-.643 4.473 0 0 .091.061.245-.551.153-.613.674-1.808.674-1.808s.49-1.256.674-1.41c.184-.152.245-.306.184-.704-.062-.398-.215-.582-.583-.704zm3.34.183s.551.337.704.858c.153.521-1.378 2.972-2.328 4.136-.95 1.164-3.214 3.262-3.214 3.262s-.463-3.017-.524-4.242c-.061-1.226.368-3.677.889-4.75.52-1.071 1.378-1.04 1.378-1.04 1.532.122 3.095 1.776 3.095 1.776zm20.68-26.5c-.521-.859-.92-1.716-1.342-1.856-.422-.139-.742.477-1.324 1.273-.582.797-1.133 1.256-1.133 1.256s-.399.46-.363-.795c.037-1.255 1.435-3.34 1.435-3.34s.858-1.287 1.317-1.44c.46-.154 1.257 1.44 1.257 1.44l1.899 3.277s.49.828.858.889c.368.061 2.573-3.217 2.573-3.217s1.165-1.654 2.513-1.777c1.348-.122 1.869 3.002 2.144 3.799.276.796.276.95.95 1.195.674.245 1.838-1.593 1.838-1.593l2.451-2.727s-4.197-1.96-4.994-2.727c0 0-.919-.735-1.041-.827-.123-.092-.398-.306-.705-.153-.306.153-.95 1.532-2.083 1.47-1.134-.06-1.79-1.827-1.79-1.827s-.753-1.91-1.427-1.849c-.674.061-1.716 1.103-2.206 1.96-.49.859-.552 1.318-1.134 1.288-.582-.031-1.01-.828-1.01-.828s-.788-1.287-1.712-1.103c-.924.184-1.812 4.32-1.812 4.32s-.705 6.373.214 8.854c.92 2.482 2.972 2.727 4.596 1.961 1.624-.766 2.093-1.817 2.272-1.567.18.25 1.22 3.322 3.028 2.843 0 0 .43.042 1.379-.632.95-.674 4.718-3.524 6.25-4.29 1.532-.765 4.03-1.329 4.298-2.012.267-.684 1.086-3.398 1.086-3.398s-1.401-.901-1.983-.38c-.582.52-3.186 3.584-3.186 3.584s-1.824 1.952-2.597 1.742c-.774-.21-.988-.976-.988-.976s-1.87-3.37-2.543-3.094c-.674.276-2.145 2.85-2.145 2.85s-.993 1.641-2.137 1.683c-.789.028-2.183-2.419-2.703-3.277zm5.985-18.428c.471.016 1.827-.537 1.796-1.701-.03-1.165-1.133-1.195-1.133-1.195s-1.677.15-1.869 1.746c-.092.766.735 1.134 1.206 1.15zm-3.167-2.59c.184-.551.705-1.379 1.011-1.501.307-.123.377-.3.377-.3s.328-.282-.99-1.232c-1.317-.95-6.188-3.86-6.188-3.86s-.399-.215-.766-.43c-.368-.214-.661-.165-.797.031-.135.197-1.44 1.563-1.286 3.738.153 2.175.306 1.593.03 2.727-.275 1.134 1.011 1.256 1.47 1.225.46-.03 2.299-.551 3.31-.245 1.01.307 2.463.717 3.437 1.998 0 0 .208-1.6.392-2.15zM116.67 32.703s0 .206.344.505c.345.299 2.336 1.924 2.336 1.924s.785.367.971.44c.186.072.439.256.6.325.16.068.344.252.344-.023 0-.276-.46-.874-.712-.989-.253-.114-3.493-2.504-3.883-2.182zm5.055 1.034c1.608.827 1.195 2.205 1.195 2.205s-.23 2.298-1.744 2.426c-1.513.128-2.622-1.093-2.622-1.093s-3.171-3.906-3.965-4.962c-.794-1.057-.493-1.104-.493-1.104.368-.39 6.02 1.7 7.629 2.528zM109.27 56.6s-.648-.034-.715.12c-.066.155.532.185.532.185s.941.177 1.4.27c.46.091 2.16.229 2.16.229s2.092.203 2.15-.06c.056-.262-.978-.515-.978-.515s-2.435-.298-4.55-.23zm-.138 1.516c-.322-.138-2.62-.919-3.125-1.01-.506-.093-.526-.362-.526-.362.095-.408 2.364-1.201 3.72-1.66 1.356-.46 3.768-1.035 5.032-1.035 1.264 0 1.54.23 1.976 1.057.437.827.161 3.01-.345 3.7-.505.689-1.86.643-1.86.643-1.586.115-4.55-1.195-4.872-1.333zm11.282 20.405s-.39 0-1.608.528c-1.218.529-2.988 1.517-2.988 1.517s-.114.115-.045.206c.068.092.252-.023.252-.023s1.057-.367 1.264-.39c.207-.023 1.31-.322 1.746-.506.437-.184 1.122-.69 1.285-.759.163-.068.626-.12.601-.37-.024-.25-.507-.203-.507-.203zm2.505-.483s.78 2.068.437 3.297c-.344 1.228-3.838.862-4.803.84-.965-.024-4.55.252-4.963.206-.414-.046-.391-.437-.391-.437s.069-.62 3.585-3.286c3.515-2.665 4.067-2.32 4.067-2.32 1.401.069 2.068 1.7 2.068 1.7zm39.89 23.897s-.322.138-.3.414c.024.275.46 1.01.46 1.01l1.475 2.039s.308.41.393.346c.085-.063-.254-.762-.254-.762l-.419-.956s-.23-.597-.368-.758c-.137-.161-.23-.482-.23-.482s.047-.185-.022-.414c-.07-.23-.368-.437-.736-.437zm2.366-1.838c.46.092.643.827.643.827l.736 2.987s.735 3.906-.092 3.952c-.827.046-3.171-2.895-3.171-2.895s-1.976-2.481-1.884-3.17c.092-.69.772-1.092.772-1.092 1.048-.495 2.537-.701 2.996-.61z" fill="#FFFFFE"/><path d="M136.469 73.826s.123 2.254.552 2.199c.428-.055.857-.606.98-.851.122-.246 1.47-3.8 1.838-4.78.368-.98 3.922-8.395 6.311-10.784 2.39-2.39 2.55-2.334 2.593-2.852.042-.518-.877-.763-1.551-.334-.674.428-3.125 1.348-7.72 9.436 0 0-2.635 4.29-3.003 7.966zm21.848-47.369s-2.344-.78-2.666-.183c-.321.597 1.517.965 1.517.965s2.941 1.424 3.585 1.976c.643.551 1.973 1.865 2.665 2.068.692.202 1.24.367 1.424-.138.184-.506-.321-1.425-.689-1.655-.367-.23-4.228-2.527-5.836-3.033zm48.22 33.566s-.828 0-1.218.782c-.391.78.046 1.194.298 1.263.253.07.942-.046 1.264-.551.322-.506.597-1.24-.345-1.494zm-3.103.736s1.31-.023 1.126-1.172c-.184-1.15-1.263-1.08-1.263-1.08s-.991-.05-1.057.965c-.07 1.057 1.194 1.287 1.194 1.287zm-14.866.275s-1.034.092-1.15 1.172c0 0 .162 1.103 1.196 1.057 1.034-.046 1.057-1.103 1.057-1.103s.069-.965-1.103-1.126zm-3.562-1.86s-.988.068-1.126.918c0 0 .07.759 1.011.713.942-.046 1.156-.714 1.15-.874-.008-.16.022-.712-1.035-.758zm-7.33 1.309s-.85.115-.942.942c-.092.827.85.85 1.08.781.23-.069.758-.505.62-1.08-.137-.574-.758-.643-.758-.643zm7.996-2.099c1.211.323 4.473.98 5.209 1.103.735.123 2.328 1.103 3.002 2.145.674 1.041 1.627 1.121 1.627 1.121 1.198.141 2.662-2.04 2.907-4.185.246-2.145-.98-3.554-.98-3.554s-1.532-1.838-5.576-1.593c0 0-1.41.346-3.676 1.164-2.267.818-4.355 1.262-4.78 2.451-.306.858 1.057 1.025 2.267 1.348zm-35.248 5.086c.69-2.941 1.793-6.526 2.85-8.502 1.057-1.976 3.584-4.09 5.147-4.412 1.562-.321 4.503 1.839 4.503 1.839s4.826 3.676 7.215 4.917c2.39 1.24 3.217 1.287 4.826 1.608 1.608.322 4.136.138 4.136.138s2.114-.092 1.893-.419c-.22-.327-1.571-.3-1.571-.3s-1.7-.2-3.263-.522c-1.563-.321-2.886-1.443-2.886-1.443 1.895-2.18 6.01-1.36 6.838-1.498.827-.138-.184-1.7-.322-2.022-.138-.321-1.608-.551-2.85-.919-1.24-.368-4.09-2.85-4.09-2.85l-12.315-9.19s-2.804-1.976-5.405-2.405c-2.6-.429-3.465 1.532-3.787 2.359-.321.827-.275 1.424 0 1.608.276.184.736-.138.736-.138s.689-.827 1.562-.919c.873-.092 1.327 1.158 1.327 1.158-1.246 1.066-1.603 1.967-1.694 4.173-.092 2.206.84 3.408.84 3.408s.676.59.67 1.04c-.007.45-.316.883-1.327 1.205-1.01.321-1.562.092-2.187-.095-.624-.187-2.454.416-2.638.462-.184.046-.827.184-.873-.275-.046-.46 2.39-2.482 2.39-2.482s2.251-2.206 2.068-2.895c-.184-.69-.644-1.011-.644-1.011s-2.16-1.563-3.355-3.263c-1.194-1.7-1.149-3.677-1.149-3.677.138-4.044 3.993-3.778 3.993-3.778 6.199-.24 13.838 6.398 16.826 8.696 2.987 2.297 9.099 6.617 9.099 6.617s2.39 1.425 3.814 1.609c1.425.184 2.62-1.839 2.736-2.684.116-.846-.438-1.728-.832-1.734-.394-.006-.37 1.156-.37 1.156s.029.734-.878 1.017c-.907.282-3.827-2.305-3.827-2.305s-4.044-3.998-9.191-8.823c-5.147-4.826-8.961-6.388-12.178-7.675-3.217-1.287-6.296-1.333-7.95-1.103-1.655.23-5.01 3.493-5.177 8.21-.166 4.718 4.992 7.783 4.992 7.783s1.38.827 1.471 1.103c.092.275-.046.597-.551 1.148-.506.552-2.528 2.804-2.896 3.585-.367.781-.137.781-.126 1.59.01.809-2.263 2.27-2.263 2.27s-9.1 6.204-14.293 10.157c-5.193 3.952-5.744 7.996-5.744 7.996-2.16-3.4-3.677-8.732-4.09-10.8-.414-2.068.046-2.16.046-2.16.735-.413 1.612.303 3.079 1.563s1.908 2.924 1.908 2.924.022 1.074.462.994c.44-.08.25-1.437.111-2.218-.137-.781-.643-1.562-1.332-2.62-.69-1.056-4.964-4.595-5.285-4.825-.322-.23-.69-.643-.729-.9-.039-.258.499-.432.499-.432s.368-.092.414-.598c.046-.505-1.011-1.884-.965-2.757.046-.873.321-1.976 1.148-3.355.828-1.379 5.01-8.686 6.162-11.534 1.152-2.848 2.958-3.768 2.958-3.768s1.542-.828 1.85-.069c.307.76.485 3.467.473 4.02-.011.553.035.533.035.533.356-.11.885-1.866 1.298-3.107.414-1.24.276-2.527.092-2.803-.184-.276-.512-1.717-.512-1.717 1.143-.384 2.764-1.454 3.361-2.327.598-.873.777-.7.777-.7.96-.15 2.716 1.527 2.992 1.849.275.322.827.322.735-.781-.092-1.103-1.379-1.885-1.379-1.885l-1.54-.779-.068-.875s.092-1.379-.414-1.379c-.505 0-.965.69-1.608 1.885-.644 1.194-1.609 1.792-1.609 1.792-1.838 1.103-4.228 1.7-9.007 1.24-4.78-.459-6.893-4.595-7.077-5.238-.184-.644.138-1.011.138-1.011s.306-.291.858-.138c.551.153 2.565.747 5.035.511 0 0 .173.316-.225.837-.399.52-.491.99-.491.99s.092.205 1.042-.5c.95-.705.766-1.195 1.47-1.562.705-.368 1.318-.582 2.33-1.777 1.01-1.195 1.899-2.727 1.899-2.727s.551-1.072 1.378-1.072c.827 0 2.88.46 3.432.674.551.214 2.94.766 4.32 2.267 1.378 1.501 3.982 4.902 3.982 4.902s2.451 3.094 3.095 3.646c.643.551 1.391 1.298 1.783.817 0 0 .116-.113-.068-.603s-.367-.797.031-.98c.398-.184 5.852-1.839 11.673-.644 0 0 5.116 1.502 7.628 2.298 2.513.797 10.08 3.309 10.08 3.309s3.584 1.164 5.086 2.022c1.501.858 4.596 3.186 4.596 3.186s.97.737.822.935c-.149.199-.608.107-.608.107s-.62.006-.57.356c.05.349 1.152.563 1.152.563s3.278.214 4.013.46c0 0 1.563.306 4.902 2.083 3.34 1.777 3.86 2.39 4.382 3.768.52 1.379.551 3.064.03 3.708-.52.643-1.96 1.041-3.707.98-1.746-.061-5.025-.49-7.445-2.819-2.42-2.328-3.125-4.963-3.125-4.963s-1.139-2.514-1.838-3.309c-.7-.795-2.083-2.481-2.727-2.236 0 0-.183.06.031.582.214.52 3.384 5.62 3.384 5.62s-1.025.17-3.568-2.434-6.066-5.055-6.893-4.902c-.827.153-1.287.245-1.256.644.03.398 1.01 1.01 1.01 1.01l9.008 7.17s2.42 1.746 2.696 4.197c.276 2.45-.52 4.075-1.96 5.116-1.44 1.042-2.727 1.87-2.85 2.206-.122.337.433.151.6.122.166-.03 5.864-1.776 7.182-2.144 1.317-.368 4.167-1.042 5.239-1.01 1.072.03 2.482.367 4.075 1.99 1.593 1.624 1.47 2.084 1.47 2.084s-.276.46.582.398c.858-.061 2.88-.613 5.27.46 2.39 1.072 3.8 3.094 4.075 4.626.276 1.532.184 3.186-.307 3.431-.49.245-1.256.123-1.256.123s-2.123-.457-2.731-.412c-.608.044-2.875.106-2.967.106-.092 0-2.176.153-3.707-1.011 0 0-.464-.384-.676-.667-.213-.283-.489-.529-.642-.283-.153.245-.03.735-.03.735s.03.827-.613 1.317c-.644.49-2.654 1.773-3.87 1.744-1.216-.028-1.91-.528-4.045-.462-2.134.066-2.073.128-2.226-.393-.153-.52-2.298-6.25-5.73-6.71 0 0-.428-.091-.428.766 0 .858-.03 1.134 0 1.716.03.582.351 3.639-.422 3.581-.773-.058-1.845-.885-1.845-.885l-6.495-4.167-7.66-5.637s-2.665-1.777-4.167-1.654c-1.5.122-2.818 2.022-3.033 2.972-.214.95-.034 1.384.153 1.286.188-.097 1.287-1.256 1.471-1.194.184.06-.061.52-.061.52s-1.287 2.697-2.084 5.178c-.796 2.482-1.9 7.169-1.409 11.458.49 4.29 1.072 8.241 1.992 11.06.919 2.819 3.125 7.384 3.125 7.384s.612 1.317.245 2.573c-.368 1.257-1.318 4.381-5.331 4.412-4.014.03-8.334.061-10.233-1.593-1.9-1.655-3.033-4.044-7.782-4.963 0 0-2.482-.092-3.278-.674-.797-.582-2.022-1.685-3.952-5.454-1.93-3.768-3.86-8.578-3.738-10.937.122-2.36 1.777-4.473 1.777-4.473s2.481-3.493 6.464-6.495c3.983-3.002 11.183-7.966 11.183-7.966s4.517-3.202 7.13-3.21c0 0-1.217 2.046-1.952 5.6-.736 3.554-1.954 6.535-1.954 6.535s-.555 1.025.115 1.032c.67.008 1.593-.091 1.9-.857.306-.766.536-1.931.536-1.931zm-10.57-20.496s-.78-1.884-1.057-2.758c-.275-.873-.321-1.47-.321-2.711 0-1.24-.736-1.379-.736-1.379s-.321.046-.413.506c-.092.46-.138 1.792-.046 2.344.092.551.643 2.251.965 2.849.322.597 1.195 1.884 1.011 2.665-.184.782-.073 1.146-1.346 3.147 0 0 2.22-1.033 2.22-3.33l-.277-1.333zm47.335 5.75s-.326 1.918-.37 2.542c-.044.623.231 1.178.231 1.178l3.095-.861s-.827-3.33-2.956-2.86zm27.956 33.986s-4.166.245-5.514 2.206c-1.348 1.96-3.86 3.738-3.86 3.738s-2.954 2.256-2.61 2.598c.342.343 1.756.139 1.756.139s4.224-.409 5.94-1.696c1.715-1.286 3.002-1.899 4.288-6.985zm-.15-2.483c6.344-.584 6.83-3.215 7.136-4.012.306-.796-.062-1.042-.123-2.88-.061-1.838-.98-2.696-1.654-3.002-.674-.307-.98-1.287-3.983.367-3.002 1.655-5.576 1.655-5.576 1.655s2.16.85 2.49 1.007c.329.157.819.647.329 1.076-.49.43-1.41.49-1.961.368-.552-.123-2.513-1.47-8.395-2.329-5.882-.858-12.21-.201-12.21-.201s-.535.14-2.128-.166c-1.593-.307-3.432-.613-4.963-.613-1.532 0-6.557.92-9.927 3.37-3.37 2.451-6.679 5.576-6.679 5.576s-2.083 1.9-5.086 1.777c-3.002-.123-4.777-1.9-4.777-1.9s1.285 5.454 2.327 7.66c1.041 2.206 2.022 4.411 1.776 6.311-.245 1.9-.919 2.757-.919 2.757s-.429.368.307.674c.735.307 2.634.98 4.595.736 1.961-.246 6.25-1.348 6.25-1.348s2.74-.699 4.106-.736c1.366-.037 5.085.062 6.862-.245 1.777-.306 7.905-1.593 9.437-3.799 1.532-2.206 1.532-3.002 2.45-3.493.92-.49 1.043-.122.92.307-.123.429-1.43 2.802-1.43 2.802s1.038.353 2.704.185c1.667-.169 2.954-.659 6.017-2.987 3.064-2.329 5.887-5.404 5.887-5.404s-2.823.318-6.438-.417c-3.615-.736-9.314-3.309-9.314-3.309s-4.595-1.777-8.7-1.654c-4.106.122-8.273 1.164-8.273 1.164s-4.363 1.018-4.326.264c.037-.754.895-1.122.895-1.122s5.517-3.165 9.53-2.9c4.012.265 10.936 1.368 14 2.165 3.063.796 10.538 3.737 13.173 3.737s4.044-.367 4.902-.674c.858-.306.768-.767.768-.767zm-36.721-57.75c1.286.69 2.619 3.401 3.446 4.734.827 1.333 2.895 2.987 3.355 3.263.46.275 3.125 1.516 3.125 1.516s.69.368.815.808c.125.44-.953 1.03-2.102 1.26-1.149.23-2.298-.321-3.033-.873a28.3 28.3 0 0 0-3.217-2.068c-1.195-.643-2.298-2.895-2.298-2.895s-1.23-2.636-1.424-2.987c-.194-.352-.735-.736-1.055-.527-.319.209.09.757.503 1.4.414.643.644 1.47.828 2.16.183.69.551 1.47.367 1.424a92.981 92.981 0 0 1-3.033-.965c-.643-.23-5.469-1.7-6.02-1.93-.552-.23-.444-1.01-.444-1.01s.367-1.747 1.47-3.31c1.103-1.562 3.432-1.348 3.432-1.348 3.538.215 3.998.66 5.285 1.348z" fill="#BDC1C2"/><path d="M178.773 108.213v-3.923h-.718l-1.159 3.14-1.176-3.14h-.735v3.923h.417v-3.423l1.288 3.423h.33l1.276-3.423v3.423h.477zm-5.947 0v-3.488h-1.124v-.435h2.741v.435h-1.13v3.488h-.487z" fill="#000000"/></g></svg>