<svg width="194" height="178" viewBox="0 0 194 178" fill="none" xmlns="http://www.w3.org/2000/svg">
<g clip-path="url(#clip0_3163_201871)">
<path d="M35.535 71.8691L34.899 74.5731L35.536 71.8691H35.535ZM131.206 96.5671C132.696 96.8714 134.235 96.8297 135.706 96.4451C134.234 96.825 132.696 96.8667 131.206 96.5671" fill="#EE3124"/>
<path d="M143.08 7.20508L128.993 66.9591L119.249 59.8001L87.609 59.8401L87.701 59.8001L100.101 7.20508H57.229L52.613 26.7851L42.333 71.6111C46.167 71.5631 50.083 71.5111 54.002 71.4571C56.055 71.4321 58.107 71.3921 60.148 71.3511V75.0271C58.0883 74.94 56.0283 74.8617 53.968 74.7921C47.28 74.5581 34.324 74.1281 34.322 74.1281L33.728 76.6711L40.684 77.0001L39.1 84.2851H39.115C45.569 84.1631 52.842 84.0711 60.151 83.9501V87.2001C52.668 86.8941 45.225 86.6181 38.658 86.3311C36.139 86.2201 31.532 85.9921 31.529 85.9921L31.077 87.9531L37.977 88.3401L36.459 95.0071C43.075 94.7911 51.523 94.6761 60.159 94.5211V97.6711C51.376 97.2711 42.784 96.9141 36.119 96.5061L29.146 96.1141L28.616 98.3581H28.631L35.124 98.9721L18.6 171.064H61.471L75.92 109.683L75.593 109.515H118.958V109.683H118.921L104.451 171.064H147.323L185.952 7.20508H143.08Z" fill="#DA1A32"/>
<path d="M124.695 87.957H135.703V96.119H124.695V87.957Z" fill="white"/>
<path d="M35.534 69.0039L34.898 71.7079L35.535 69.0039H35.534Z" fill="#231F20"/>
<path d="M131.206 93.7001C132.696 94.0044 134.235 93.9627 135.706 93.5781C134.234 93.958 132.696 93.9997 131.206 93.7001" fill="#231F20"/>
<path d="M90.224 94.85C86.0091 94.4684 81.7816 94.2416 77.55 94.17C72.911 94.17 67.961 94.389 63.013 94.47C53.401 94.654 43.796 94.77 36.45 95.009L37.968 88.342L31.068 87.954L29.347 95.212L23.419 95.379V95.796L29.136 96.116L36.109 96.508C43.49 96.96 53.237 97.346 62.988 97.808C67.935 98.029 72.88 98.39 77.518 98.514C82.156 98.57 86.487 98.414 90.199 98.186C94.345 97.9694 98.4771 97.5399 102.579 96.899L103.904 96.483C103.904 96.483 97.641 95.488 90.224 94.852V94.85ZM105.817 85.928C105.817 85.928 100.242 84.94 91.872 84.309C87.687 83.979 82.804 83.709 77.572 83.634C72.337 83.634 66.752 83.852 61.172 83.934C53.522 84.063 45.872 84.158 39.119 84.286H39.1L40.684 77L33.728 76.668L31.9 84.448C31.41 84.462 30.926 84.475 30.454 84.49L16.492 84.836V85.25L30.445 85.938L31.539 85.996C33.752 86.112 36.139 86.224 38.658 86.334C45.516 86.634 53.327 86.921 61.141 87.244C66.723 87.463 72.303 87.821 77.541 87.944C82.775 88 87.662 87.844 91.852 87.618C100.231 87.192 108.775 86.341 108.775 86.341L105.817 85.928Z" fill="#231F20"/>
<path d="M147.323 171.065H104.451L118.921 109.683H133.758C135.998 109.683 139.129 115.865 140.558 121.492L142.14 127.703L156.44 102.768L150.026 90.2L148.25 81.107L128.993 66.96L143.08 7.20604H185.951L147.323 171.065ZM140.507 101.245L141.454 101.251L145.254 104.351L142.488 100.041L142.58 99.477C142.612 99.283 143.298 95.367 146.236 94.244L150.514 102.62L143.709 114.488C141.831 109.897 138.58 104.419 133.76 104.419H130.812L125.193 101.055L140.507 101.245ZM130.38 89.33L135.703 93.58C134.232 93.9646 132.693 94.0064 131.203 93.702C129.849 93.267 129.037 92.102 130.378 89.33H130.38ZM192 2.42004C191.471 1.74808 190.796 1.2053 190.026 0.8328C189.257 0.460302 188.412 0.267858 187.557 0.270044H142.039C140.772 0.266271 139.54 0.692579 138.547 1.47928C137.553 2.26598 136.855 3.36654 136.568 4.60104L122.919 62.5L119.249 59.8H94.827L107.219 7.23604C107.415 6.40392 107.42 5.53824 107.234 4.70383C107.048 3.86943 106.676 3.08793 106.145 2.41785C105.614 1.74778 104.938 1.2065 104.169 0.834545C103.399 0.462592 102.555 0.269609 101.7 0.270044H56.187C54.9197 0.266498 53.6887 0.69291 52.6951 1.47959C51.7016 2.26628 51.0042 3.36671 50.717 4.60104L36.963 62.947L34.888 71.7L34.323 71.707H34.886C28.486 71.793 22.515 71.887 17.413 72.017L0.780029 72.366V72.783L17.402 73.476C22.359 73.704 28.139 73.916 34.331 74.128C40.596 74.343 47.284 74.558 53.972 74.791C60.622 75.012 67.272 75.373 73.504 75.497C79.739 75.553 85.561 75.397 90.553 75.169C100.533 74.74 110.712 73.883 110.712 73.883L107.198 73.466C107.198 73.466 100.557 72.466 90.586 71.835C85.6 71.502 79.786 71.228 73.548 71.155C67.312 71.15 60.659 71.374 54.006 71.455C50.088 71.511 46.172 71.56 42.338 71.609L52.612 26.786L57.228 7.20604H100.1L87.7 59.8L75.33 65.247L115.905 65.065L143.566 84.236L144.748 90.291C143.717 90.6896 142.773 91.285 141.969 92.044L139.769 85.944L116.145 71.987C116.731 84.245 122.472 87.258 122.472 87.258L113.4 83.774C113.4 90.742 116.841 94.629 120.909 96.793L109.673 96.655L122.645 104.42L65.545 104.355L75.921 109.683L61.472 171.065H18.6L35.113 98.978L28.62 98.363L28.468 98.347L11.488 171.008C11.2914 171.843 11.2861 172.711 11.4726 173.549C11.659 174.386 12.0324 175.17 12.5648 175.842C13.0971 176.515 13.7747 177.058 14.5467 177.432C15.3188 177.806 16.1653 178 17.023 178H62.467C63.7473 178.004 64.991 177.573 65.9948 176.779C66.9986 175.984 67.7031 174.872 67.993 173.625L83.169 109.683H111.8L97.34 171.008C97.1428 171.843 97.1371 172.711 97.3232 173.549C97.5094 174.386 97.8827 175.171 98.415 175.843C98.9474 176.516 99.6251 177.059 100.397 177.433C101.169 177.806 102.016 178 102.874 178H148.319C149.599 178.004 150.843 177.573 151.847 176.778C152.85 175.984 153.555 174.872 153.845 173.625L193.07 7.23804C193.269 6.4064 193.276 5.54044 193.09 4.70572C192.905 3.871 192.532 3.08938 192 2.42004" fill="#231F20"/>
</g>
<defs>
<clipPath id="clip0_3163_201871">
<rect width="194" height="178" fill="white"/>
</clipPath>
</defs>
</svg>
