<?xml version="1.0" encoding="UTF-8" standalone="no"?>
<svg
   width="54.747002"
   height="37.695"
   viewBox="0 0 54.747002 37.695"
   fill="none"
   version="1.1"
   id="svg12"
   sodipodi:docname="ISU.svg"
   inkscape:version="1.4 (86a8ad7, 2024-10-11)"
   xmlns:inkscape="http://www.inkscape.org/namespaces/inkscape"
   xmlns:sodipodi="http://sodipodi.sourceforge.net/DTD/sodipodi-0.dtd"
   xmlns="http://www.w3.org/2000/svg"
   xmlns:svg="http://www.w3.org/2000/svg">
  <sodipodi:namedview
     id="namedview12"
     pagecolor="#ffffff"
     bordercolor="#000000"
     borderopacity="0.25"
     inkscape:showpageshadow="2"
     inkscape:pageopacity="0.0"
     inkscape:pagecheckerboard="0"
     inkscape:deskcolor="#d1d1d1"
     inkscape:zoom="16.319444"
     inkscape:cx="27.880851"
     inkscape:cy="20.864681"
     inkscape:window-width="3440"
     inkscape:window-height="1377"
     inkscape:window-x="-8"
     inkscape:window-y="-8"
     inkscape:window-maximized="1"
     inkscape:current-layer="svg12" />
  <g
     clip-path="url(#clip0)"
     id="g11"
     transform="translate(-2.162,-15.12)">
    <path
       d="M 35.302,43.726 V 24.204 h 3.803 L 40.563,15.12 H 18.32 l 1.458,9.084 h 3.82 v 19.522 h -3.764 l -1.457,9.089 H 40.52 l -1.458,-9.09 -3.759,10e-4 z"
       fill="#fdc82f"
       id="path1" />
    <path
       d="m 37.925,22.82 1.014,-6.316 H 19.941 l 1.014,6.317 h 4.023 V 45.11 h -3.966 l -1.014,6.321 H 38.896 L 37.882,45.11 H 33.92 V 22.82 Z"
       fill="#a71930"
       id="path2" />
    <path
       d="m 38.94,16.504 -3.274,3.157 H 29.45 v 6.813 c -0.882,0.001 -1.763,0.018 -2.644,0.052 -0.859,3.354 -1.718,6.725 -2.576,10.111 -0.567,0.042 -1.135,0.091 -1.7,0.148 l 0.487,3.286 a 71.174,71.174 0 0 1 4.343,-0.264 c 0.213,-0.945 0.425,-1.89 0.639,-2.834 0.483,-0.01 0.967,-0.015 1.451,-0.016 V 48.209 H 23.295 L 20,51.43 h 18.896 l -1.016,-6.32 -2.215,3.099 h -4.86 l 3.115,-3.1 v -5.2 c 0.674,0.041 1.348,0.092 2.022,0.153 0.161,-1.097 0.325,-2.193 0.486,-3.288 a 62.895,62.895 0 0 0 -1.065,-0.096 c 0.127,-0.928 0.253,-1.856 0.377,-2.784 a 74.634,74.634 0 0 0 -1.693,-0.128 c -0.044,-0.16 -0.084,-0.32 -0.127,-0.48 v -1.99 a 72.04,72.04 0 0 1 3.427,0.291 c -0.026,-0.453 -0.049,-0.907 -0.072,-1.36 0.285,0.031 0.573,0.065 0.861,0.099 v 6.633 c -0.305,-0.036 -0.613,-0.072 -0.918,-0.106 l -0.545,3.279 c 2.261,0.226 4.51,0.56 6.748,1.003 -0.181,-1.148 -0.36,-2.293 -0.538,-3.438 -0.36,-0.069 -0.72,-0.133 -1.078,-0.196 v -6.634 l 0.867,0.156 c -0.023,0.447 -0.049,0.893 -0.072,1.34 1.161,0.216 2.316,0.46 3.468,0.733 0.08,-1.541 0.164,-3.084 0.248,-4.626 A 71.592,71.592 0 0 0 33.92,26.61 v -3.79 h 4.003 l 1.017,-6.317 z m -15.644,3.156 -2.34,3.16 h 4.023 l 3.312,-3.16 z m 2.02,6.937 a 71.547,71.547 0 0 0 -12.72,1.91 l 0.245,4.626 a 71.69,71.69 0 0 1 3.468,-0.74 l -0.071,-1.341 c 0.285,-0.053 0.57,-0.105 0.856,-0.156 v 6.633 c -0.358,0.063 -0.713,0.128 -1.067,0.197 l -0.537,3.439 a 71.915,71.915 0 0 1 6.73,-1.017 l -0.541,-3.276 c -0.307,0.034 -0.614,0.07 -0.919,0.108 v -6.634 c 0.286,-0.035 0.574,-0.069 0.86,-0.101 l -0.071,1.361 a 73.556,73.556 0 0 1 3.516,-0.308 z m 21.413,1.973 c 0.176,1.154 0.355,2.31 0.533,3.466 0.248,0.064 0.496,0.13 0.743,0.196 v 1.633 a 74.963,74.963 0 0 0 -1.365,-0.35 c 0.222,1.165 0.444,2.331 0.663,3.498 0.233,0.06 0.47,0.122 0.702,0.184 v 1.666 C 47.651,38.771 47.3,38.679 46.945,38.591 l -0.532,3.202 A 71.382,71.382 0 0 1 56.9,45.216 c -0.075,-1.593 -0.153,-3.187 -0.23,-4.782 a 72.539,72.539 0 0 0 -3.347,-1.275 c 0.017,0.458 0.04,0.916 0.06,1.375 a 68.05,68.05 0 0 0 -1.797,-0.61 v -1.667 c 0.749,0.242 1.498,0.5 2.24,0.768 0.263,-1.017 0.522,-2.032 0.781,-3.046 a 72.747,72.747 0 0 0 -3.02,-1.054 V 33.29 a 68.42,68.42 0 0 1 1.796,0.61 c -0.02,0.443 -0.043,0.885 -0.06,1.33 1.123,0.396 2.238,0.822 3.346,1.277 0.078,-1.53 0.159,-3.06 0.24,-4.589 A 71.406,71.406 0 0 0 46.728,28.57 Z m -34.733,0.091 a 70.92,70.92 0 0 0 -7.088,2.19 c -1.524,0.557 -2.746,2.073 -2.746,3.915 v 2.161 c 0,1.568 1.221,2.546 2.745,2.024 a 71.848,71.848 0 0 1 3.699,-1.156 c 0.058,-0.016 0.105,0.018 0.105,0.078 v 1.562 a 0.15,0.15 0 0 1 -0.103,0.137 c -0.967,0.297 -1.929,0.614 -2.885,0.951 l 0.07,-1.377 c -1.119,0.393 -2.232,0.816 -3.334,1.268 l -0.238,4.778 a 71.306,71.306 0 0 1 7.263,-2.55 c 1.55,-0.455 2.823,-1.718 2.823,-3.608 v -2.43 c 0,-1.567 -1.272,-2.562 -2.82,-2.146 a 70.785,70.785 0 0 0 -3.71,1.107 C 5.719,35.585 5.671,35.55 5.671,35.491 v -1.48 c 0,-0.06 0.046,-0.124 0.104,-0.144 0.875,-0.308 1.754,-0.599 2.637,-0.872 l -0.07,1.376 c 1.129,-0.35 2.265,-0.672 3.408,-0.966 z m 17.456,2.673 v 2.292 h -0.626 c 0.208,-0.765 0.417,-1.528 0.627,-2.292 z"
       fill="#822433"
       id="path3" />
    <path
       d="m 34.458,30.637 c 0.731,0.05 1.46,0.113 2.19,0.186 -0.023,-0.454 -0.049,-0.907 -0.073,-1.362 0.757,0.076 1.512,0.162 2.265,0.262 v 8.018 a 88.6,88.6 0 0 0 -1.023,-0.128 l -0.316,1.913 c 1.707,0.191 3.409,0.444 5.103,0.76 L 42.289,38.28 a 67.3,67.3 0 0 0 -1.184,-0.205 v -8.019 c 0.755,0.124 1.51,0.26 2.26,0.408 l -0.072,1.339 c 0.723,0.142 1.443,0.295 2.16,0.458 0.06,-1.087 0.117,-2.172 0.176,-3.26 A 71.763,71.763 0 0 0 34.281,27.324 l 0.177,3.313 m 19.535,9.454 0.063,1.377 a 70.389,70.389 0 0 0 -3.15,-1.07 v -3.05 c 0.8,0.25 1.598,0.516 2.392,0.795 l 0.456,-1.784 a 72.03,72.03 0 0 0 -2.849,-0.96 v -3.017 c 1.057,0.33 2.108,0.685 3.151,1.067 l -0.063,1.33 c 0.7,0.254 1.394,0.52 2.087,0.796 0.056,-1.078 0.113,-2.155 0.167,-3.234 a 71.538,71.538 0 0 0 -8.708,-2.873 c 0.102,0.677 0.205,1.353 0.309,2.03 0.281,0.074 0.564,0.151 0.845,0.229 v 3.019 a 67.953,67.953 0 0 0 -1.166,-0.314 c 0.105,0.676 0.207,1.353 0.311,2.03 0.286,0.075 0.57,0.153 0.855,0.231 v 3.053 a 54.278,54.278 0 0 0 -1.16,-0.312 c -0.103,0.623 -0.205,1.245 -0.31,1.868 a 71.651,71.651 0 0 1 9.018,2.95 c -0.054,-1.12 -0.109,-2.243 -0.16,-3.364 a 72.164,72.164 0 0 0 -2.088,-0.797 m -19.979,-3.687 0.629,0.042 0.284,-1.926 a 79.773,79.773 0 0 0 -1.422,-0.093 c -0.644,-2.419 -1.29,-4.83 -1.936,-7.231 A 72.339,72.339 0 0 0 27.361,27.2 c -0.863,3.348 -1.727,6.712 -2.589,10.091 -0.476,0.033 -0.952,0.07 -1.428,0.11 l 0.285,1.924 a 70.64,70.64 0 0 1 3.177,-0.192 c 0.31,-1.298 0.623,-2.591 0.933,-3.884 l 0.495,1.027 a 70.8,70.8 0 0 1 3.236,0.014 l 0.684,2.84 c 1.06,0.037 2.117,0.1 3.175,0.186 l 0.287,-1.924 c -0.475,-0.04 -0.95,-0.076 -1.425,-0.108 z m -4.761,-7.286 h 0.455 c 0.43,1.734 0.858,3.472 1.287,5.214 a 69.996,69.996 0 0 0 -3.029,0.002 l 1.287,-5.216 m -15.796,3.18 c 0.718,-0.166 1.437,-0.321 2.158,-0.463 -0.024,-0.447 -0.046,-0.893 -0.072,-1.34 a 72.2,72.2 0 0 1 2.248,-0.41 v 8.019 c -0.391,0.065 -0.78,0.132 -1.172,0.204 l -0.313,2.007 a 71.825,71.825 0 0 1 5.088,-0.77 l -0.317,-1.91 c -0.34,0.04 -0.68,0.082 -1.02,0.129 v -8.019 c 0.753,-0.1 1.507,-0.19 2.262,-0.265 l -0.073,1.36 c 0.73,-0.075 1.46,-0.138 2.19,-0.19 l 0.178,-3.313 c -3.805,0.261 -7.595,0.83 -11.332,1.701 l 0.175,3.26 m -3.972,2.853 a 71.594,71.594 0 0 0 -3.71,1.108 C 5.344,36.399 4.994,36.161 4.994,35.718 v -1.463 c 0,-0.441 0.348,-0.926 0.779,-1.078 a 71.8,71.8 0 0 1 3.316,-1.079 l -0.07,1.375 c 0.702,-0.21 1.408,-0.41 2.116,-0.599 l 0.173,-3.342 a 71.57,71.57 0 0 0 -6.402,2.012 c -1.153,0.422 -2.08,1.765 -2.08,2.95 v 2.368 c 0,1.184 0.926,1.792 2.076,1.398 a 70.888,70.888 0 0 1 3.7,-1.157 c 0.436,-0.122 0.792,0.142 0.792,0.585 v 1.544 c 0,0.44 -0.355,0.903 -0.79,1.035 -1.19,0.364 -2.374,0.76 -3.551,1.19 L 5.145,40.07 c -0.701,0.255 -1.4,0.52 -2.096,0.798 -0.056,1.122 -0.113,2.243 -0.167,3.365 a 71.683,71.683 0 0 1 6.6,-2.284 c 1.172,-0.343 2.134,-1.553 2.134,-2.74 v -2.446 c 0,-1.184 -0.96,-1.927 -2.13,-1.612"
       fill="#fada63"
       id="path4" />
    <path
       d="m 38.84,29.723 c 0.342,-0.281 0.684,-0.558 1.026,-0.833 a 71.519,71.519 0 0 0 -4.445,-0.507 l 0.022,0.03 c -0.007,-0.008 -0.014,-0.013 -0.022,-0.02 0.022,0.398 0.043,0.797 0.066,1.195 -0.343,0.347 -0.685,0.697 -1.028,1.049 0.731,0.05 1.46,0.113 2.19,0.186 -0.023,-0.455 -0.049,-0.907 -0.072,-1.362 0.756,0.076 1.51,0.162 2.264,0.262 m 5.666,0.011 -0.08,1.23 c -0.378,0.276 -0.755,0.556 -1.133,0.839 0.723,0.142 1.443,0.295 2.16,0.458 l 0.175,-3.26 c -0.374,0.241 -0.748,0.486 -1.122,0.733"
       fill="#fdc82f"
       id="path5" />
    <path
       d="m 41.289,39.08 a 58.68,58.68 0 0 0 -1.07,-0.17 l 0.886,-0.835 v -8.018 c 0.755,0.123 1.509,0.26 2.26,0.407 0.376,-0.25 0.752,-0.497 1.127,-0.742 -1.5,-0.32 -3.006,-0.592 -4.518,-0.816 v 9.968 a 69.978,69.978 0 0 0 -1.416,-0.196 c -0.352,0.28 -0.705,0.563 -1.058,0.848 1.707,0.192 3.409,0.445 5.104,0.76 l -0.315,-2.005 c -0.334,0.263 -0.666,0.531 -1,0.8 M 17.79,30.084 c 0.342,-0.38 0.683,-0.76 1.024,-1.136 a 71.682,71.682 0 0 0 -4.411,0.81 0.31,0.31 0 0 0 0.022,0.024 l -0.022,-0.014 0.063,1.175 c -0.336,0.449 -0.673,0.9 -1.01,1.355 0.72,-0.166 1.438,-0.321 2.16,-0.463 l -0.073,-1.339 c 0.748,-0.15 1.497,-0.287 2.248,-0.412 m 5.684,-1.677 a 354,354 0 0 0 -0.082,1.254 c -0.382,0.39 -0.765,0.783 -1.147,1.178 a 71.56,71.56 0 0 1 2.19,-0.19 l 0.178,-3.313 c -0.38,0.355 -0.76,0.71 -1.14,1.07"
       fill="#fdc82f"
       id="path6" />
    <path
       d="m 20.073,38.736 c -0.037,0.005 -0.423,0.056 -0.904,0.126 0.295,-0.368 0.592,-0.734 0.887,-1.098 v -8.018 c 0.754,-0.101 1.508,-0.19 2.263,-0.266 0.38,-0.364 0.76,-0.724 1.14,-1.08 a 70.49,70.49 0 0 0 -4.537,0.533 v 9.966 c -0.504,0.075 -1.215,0.191 -1.566,0.252 -0.35,0.385 -0.7,0.773 -1.05,1.164 a 71.8,71.8 0 0 1 5.089,-0.769 l -0.318,-1.911 c -0.335,0.366 -0.67,0.731 -1.004,1.101 m 36.005,2.153 c -0.33,0.195 -0.664,0.392 -0.996,0.593 l 0.08,1.374 c -1.338,-0.584 -6.246,-2.135 -6.903,-2.254 -0.346,0.23 -0.692,0.464 -1.038,0.7 3.05,0.78 6.064,1.764 9.017,2.95 -0.053,-1.12 -0.108,-2.242 -0.16,-3.363 m -2.085,-6.111 c 0.366,-0.223 0.732,-0.444 1.094,-0.662 0.027,-0.405 0.052,-0.812 0.08,-1.216 0.36,-0.189 0.72,-0.374 1.08,-0.559 -0.054,1.079 -0.11,2.156 -0.167,3.235 A 72.282,72.282 0 0 0 53.993,34.778 M 48.69,31.727 49.692,31.039 A 64.798,64.798 0 0 0 48.83,30.793 c -0.328,0.232 -0.657,0.467 -0.984,0.706 0.28,0.075 0.563,0.15 0.845,0.228 m -0.001,4.967 c 0.335,-0.232 0.668,-0.461 1.002,-0.688 a 66.864,66.864 0 0 0 -0.862,-0.247 90.5,90.5 0 0 0 -0.995,0.703 c 0.286,0.076 0.57,0.152 0.855,0.232"
       fill="#fdc82f"
       id="path7" />
    <path
       d="m 54.054,33.448 c 0.37,-0.188 0.742,-0.375 1.11,-0.558 a 71.428,71.428 0 0 0 -5.365,-1.818 l -10e-4,9.966 c 0.37,-0.165 0.738,-0.326 1.105,-0.485 v -3.205 c 0.802,0.25 1.6,0.516 2.394,0.796 l 0.455,-1.786 c -0.342,0.201 -0.685,0.406 -1.028,0.613 a 67.49,67.49 0 0 0 -1.82,-0.598 v -3.992 c 1.057,0.332 2.107,0.688 3.15,1.067 m -19.48,4.838 A 66.556,66.556 0 0 0 33.172,38.2 c -0.338,0.308 -0.679,0.617 -1.018,0.93 1.06,0.037 2.118,0.1 3.176,0.186 l 0.285,-1.923 c -0.346,0.294 -0.693,0.592 -1.04,0.893 m -1.344,-0.138 c 0.321,-0.29 0.64,-0.578 0.96,-0.864 -0.058,-0.292 -0.116,-0.586 -0.176,-0.88 l 0.627,0.042 c 0.097,-0.641 0.191,-1.284 0.285,-1.925 -0.34,0.298 -0.68,0.6 -1.02,0.903 a 71.797,71.797 0 0 0 -5.07,-0.13 l -0.603,0.982 a 71.057,71.057 0 0 1 4.546,0.062 l 0.451,1.81 m -3.522,-9.03 c 0.312,-0.324 0.625,-0.648 0.938,-0.969 a 73.1,73.1 0 0 0 -2.217,0 c -0.84,3.336 -1.683,6.686 -2.524,10.05 -0.413,0.022 -0.824,0.046 -1.237,0.074 -0.346,0.349 -0.694,0.699 -1.04,1.052 a 70.516,70.516 0 0 1 3.177,-0.191 c 0.816,-3.353 1.631,-6.691 2.447,-10.016 h 0.456"
       fill="#fdc82f"
       id="path8" />
    <path
       d="m 32.503,35.3 c 0.335,-0.292 0.67,-0.585 1.003,-0.873 -0.644,-2.419 -1.291,-4.83 -1.937,-7.231 -0.308,0.316 -0.614,0.637 -0.922,0.958 0.619,2.373 1.237,4.757 1.856,7.146 M 5.146,40.07 c -0.03,0.463 -0.062,0.924 -0.093,1.387 -0.364,0.46 -0.727,0.922 -1.09,1.388 0.024,-0.482 0.05,-0.962 0.073,-1.444 0.37,-0.446 0.74,-0.89 1.11,-1.33"
       fill="#fdc82f"
       id="path9" />
    <path
       d="m 11.614,39.21 v -2.447 c 0,-0.639 -0.278,-1.145 -0.718,-1.43 -0.286,0.307 -0.57,0.618 -0.854,0.932 0.273,0.228 0.442,0.568 0.442,1.007 v 1.656 c 0,1.04 -0.838,2.001 -1.864,2.315 a 71.969,71.969 0 0 0 -4.657,1.602 c -0.361,0.458 -0.723,0.92 -1.081,1.387 a 71.683,71.683 0 0 1 6.6,-2.283 c 1.172,-0.344 2.132,-1.553 2.132,-2.74 M 5.668,32.234 C 4.655,32.594 3.94,33.61 3.94,34.649 v 1.44 c 0,0.51 0.146,0.842 0.466,1.042 l 0.786,-0.952 a 0.578,0.578 0 0 1 -0.199,-0.46 v -1.463 c 0,-0.442 0.35,-0.927 0.78,-1.079 a 71.804,71.804 0 0 1 3.315,-1.079 c 0.369,-0.435 0.739,-0.869 1.109,-1.299 a 71.268,71.268 0 0 0 -4.528,1.436"
       fill="#fdc82f"
       id="path10" />
    <path
       d="m 8.71,36.209 a 69.82,69.82 0 0 0 -3.105,0.949 c -0.47,0.156 -0.898,0.156 -1.222,-0.003 -0.283,0.35 -0.565,0.703 -0.848,1.056 0.366,0.197 0.842,0.228 1.367,0.05 a 70.8,70.8 0 0 1 3.7,-1.158 c 0.239,-0.066 0.451,-0.014 0.597,0.118 0.282,-0.32 0.562,-0.64 0.843,-0.956 C 9.732,36.035 9.364,36.01 8.71,36.209 m 0.308,-2.736 c 0.362,-0.439 0.725,-0.874 1.087,-1.306 0.031,-0.452 0.06,-0.903 0.092,-1.354 0.37,-0.43 0.74,-0.857 1.11,-1.281 l -0.172,3.342 c -0.708,0.189 -1.414,0.388 -2.117,0.6"
       fill="#fdc82f"
       id="path11" />
  </g>
  <defs
     id="defs12">
    <clipPath
       id="clip0">
      <path
         fill="#ffffff"
         transform="translate(2.16,15.12)"
         d="M 0,0 H 54.749 V 37.696 H 0 Z"
         id="path12" />
    </clipPath>
  </defs>
</svg>
