<?xml version="1.0" encoding="UTF-8" standalone="no"?>
<svg
   width="50.964844"
   height="63.386719"
   viewBox="0 0 50.964844 63.386719"
   fill="none"
   version="1.1"
   id="svg1"
   sodipodi:docname="IU.svg"
   inkscape:version="1.4 (86a8ad7, 2024-10-11)"
   xmlns:inkscape="http://www.inkscape.org/namespaces/inkscape"
   xmlns:sodipodi="http://sodipodi.sourceforge.net/DTD/sodipodi-0.dtd"
   xmlns="http://www.w3.org/2000/svg"
   xmlns:svg="http://www.w3.org/2000/svg">
  <path
     id="path2"
     style="fill:#ffffff;fill-opacity:1"
     sodipodi:type="inkscape:offset"
     inkscape:radius="1.7937874"
     inkscape:original="M 17.953125 2.4433594 L 17.953125 6.953125 L 21.457031 6.953125 L 21.457031 39.986328 L 14.794922 39.986328 L 14.794922 14.900391 L 17.900391 14.900391 L 17.900391 10.388672 L 2.4433594 10.388672 L 2.4433594 14.900391 L 5.9296875 14.900391 L 5.9296875 43.941406 L 11.621094 49.736328 L 21.457031 49.736328 L 21.457031 56.431641 L 17.970703 56.431641 L 17.970703 62.244141 L 34.365234 62.244141 L 34.365234 56.431641 L 30.876953 56.431641 L 30.876953 49.736328 L 40.644531 49.736328 L 46.318359 43.941406 L 46.318359 14.900391 L 49.822266 14.900391 L 49.822266 10.388672 L 34.365234 10.388672 L 34.365234 14.900391 L 37.470703 14.900391 L 37.470703 39.986328 L 30.876953 39.986328 L 30.876953 6.953125 L 34.382812 6.953125 L 34.382812 2.4433594 L 17.953125 2.4433594 z "
     d="M 17.953125,0.65039062 A 1.7939667,1.7939667 0 0 0 16.160156,2.4433594 V 6.953125 a 1.7939667,1.7939667 0 0 0 1.642578,1.6425781 H 2.4433594 A 1.7939667,1.7939667 0 0 0 0.65039062,10.388672 v 4.511719 a 1.7939667,1.7939667 0 0 0 1.79296878,1.792968 h 1.6933593 v 27.248047 a 1.7939667,1.7939667 0 0 0 0.5136719,1.257813 l 5.6914064,5.794922 a 1.7939667,1.7939667 0 0 0 1.279297,0.535156 h 8.042968 v 3.109375 h -1.693359 a 1.7939667,1.7939667 0 0 0 -1.792969,1.792969 v 5.8125 a 1.7939667,1.7939667 0 0 0 1.792969,1.792968 h 16.394531 a 1.7939667,1.7939667 0 0 0 1.792969,-1.792968 v -5.8125 a 1.7939667,1.7939667 0 0 0 -1.792969,-1.792969 h -1.695312 v -3.109375 h 7.974609 a 1.7939667,1.7939667 0 0 0 1.28125,-0.53711 l 5.673828,-5.794921 a 1.7939667,1.7939667 0 0 0 0.511719,-1.25586 V 16.693359 h 1.710938 a 1.7939667,1.7939667 0 0 0 1.792968,-1.792968 V 10.388672 A 1.7939667,1.7939667 0 0 0 49.822266,8.5957031 H 34.533203 A 1.7939667,1.7939667 0 0 0 36.175781,6.953125 V 2.4433594 A 1.7939667,1.7939667 0 0 0 34.382812,0.65039062 Z m 0.09766,8.09570318 h 1.613281 V 10.359375 A 1.7939667,1.7939667 0 0 0 18.050781,8.7460938 Z m 14.619141,0 h 1.544922 a 1.7939667,1.7939667 0 0 0 -1.544922,1.5449222 z m -13.00586,6.1835942 v 23.263671 h -3.076171 v -21.5 h 1.3125 a 1.7939667,1.7939667 0 0 0 1.763671,-1.763671 z m 13.00586,0.06836 a 1.7939667,1.7939667 0 0 0 1.695312,1.695312 h 1.3125 v 21.5 h -3.007812 z"
     transform="translate(-0.65039062,-0.65039062)" />
  <defs
     id="defs1" />
  <sodipodi:namedview
     id="namedview1"
     pagecolor="#ffffff"
     bordercolor="#000000"
     borderopacity="0.25"
     inkscape:showpageshadow="2"
     inkscape:pageopacity="0.0"
     inkscape:pagecheckerboard="0"
     inkscape:deskcolor="#d1d1d1"
     inkscape:zoom="13.847508"
     inkscape:cx="26.719609"
     inkscape:cy="32.460714"
     inkscape:window-width="3440"
     inkscape:window-height="1377"
     inkscape:window-x="-8"
     inkscape:window-y="-8"
     inkscape:window-maximized="1"
     inkscape:current-layer="svg1" />
  <path
     d="m 33.714578,9.7386284 v 4.5106396 h 3.1054 v 25.0861 h -6.5925 V 6.3036088 h 3.5044 v -4.51064 h -16.4291 v 4.51064 h 3.5044 V 39.335368 h -6.6618 v -25.0861 h 3.1054 V 9.7386284 H 1.7931212 v 4.5106396 h 3.4870669 v 29.0416 l 5.6903499,5.7944 h 9.83664 v 6.6966 h -3.487 v 5.8118 h 16.3944 v -5.8118 h -3.4871 v -6.6966 h 9.7673 l 5.673,-5.7944 v -29.0416 h 3.5044 V 9.7386284 Z"
     fill="white"
     id="path1"
     style="fill:#990000;fill-opacity:1" />
</svg>
