<?xml version="1.0" encoding="UTF-8" standalone="no"?>
<svg
   width="48.033939"
   height="36.192379"
   viewBox="0 0 48.033939 36.192379"
   fill="none"
   version="1.1"
   id="svg10"
   sodipodi:docname="KSU.svg"
   inkscape:version="1.4 (86a8ad7, 2024-10-11)"
   xmlns:inkscape="http://www.inkscape.org/namespaces/inkscape"
   xmlns:sodipodi="http://sodipodi.sourceforge.net/DTD/sodipodi-0.dtd"
   xmlns:xlink="http://www.w3.org/1999/xlink"
   xmlns="http://www.w3.org/2000/svg"
   xmlns:svg="http://www.w3.org/2000/svg">
  <sodipodi:namedview
     id="namedview10"
     pagecolor="#ffffff"
     bordercolor="#000000"
     borderopacity="0.25"
     inkscape:showpageshadow="2"
     inkscape:pageopacity="0.0"
     inkscape:pagecheckerboard="0"
     inkscape:deskcolor="#d1d1d1"
     inkscape:zoom="11.942029"
     inkscape:cx="50.619539"
     inkscape:cy="15.198422"
     inkscape:window-width="2147"
     inkscape:window-height="1211"
     inkscape:window-x="78"
     inkscape:window-y="78"
     inkscape:window-maximized="0"
     inkscape:current-layer="svg10" />
  <path
     fill-rule="evenodd"
     clip-rule="evenodd"
     d="m 37.377404,24.111563 c 0.3805,-0.8335 0.7134,-1.747 0.761,-2.7029 -0.0357,-0.1154 -0.1498,-0.1271 -0.2544,-0.1389 -0.8038,1.1066 -1.9001,2.0625 -3.1723,2.4486 -0.5636,0.1719 -1.4101,0.2873 -1.9785,0.1271 -1.2413,-0.3531 -2.057,-1.6645 -2.2424,-2.8606 -0.459,-0.1248 -0.9394,-0.2119 -1.4245,-0.2614 -3.0367,-0.306 -6.1186,0.4686 -7.8545,3.075 -1.1153,1.754 -0.925,4.2733 0.0571,6.1498 0.3115,0.5933 0.8775,1.2314 1.4839,1.5492 0.252,-0.7628 0.8156,-1.4574 1.4838,-1.9824 0.8038,-0.5109 1.6789,-0.8335 2.6895,-0.8641 1.7598,-0.0589 3.3934,0.9794 4.1853,2.5499 2.2425,-1.0125 4.4516,-2.4628 6.2209,-4.3511 0.4399,-0.4685 0.9084,-0.9771 1.2413,-1.5257 -0.3448,-0.4426 -0.7895,-0.8287 -1.1962,-1.2125 z m -19.8919,8.7185 c -1.8049,-2.2555 -2.1497,-5.8202 -0.8038,-8.4054 1.3222,-2.9595 4.4611,-4.4522 7.4741,-4.8384 2.1497,-0.3202 4.404,-0.0682 6.4848,0.3179 0.1498,-1.0807 0.4827,-1.9024 0.4827,-1.9024 -0.9892,-0.226 -1.9666,-0.5109 -2.9654,-0.7063 -2.8987,-0.558 -5.9806,-0.9442 -9.0268,-0.6263 -2.944,0.3084 -5.75,1.0477 -8.23267,2.5051 -1.8524602,0.9912 -3.7263202,2.6535 -4.4611202,4.6242 -0.32341,0.8664 -0.61115,1.754 -0.61115,2.7335 0.03567,2.9501 2.01416,5.7849 4.7488602,7.0139 1.71458,0.8664 3.76198,1.3114 5.79518,0.89 0.7015,-0.1484 1.403,-0.2967 2.0023,-0.6381 -0.3234,-0.3084 -0.5993,-0.6145 -0.887,-0.9677 z m -4.3565,-26.8195303 c 1.2294,0.32021 2.7585,0.22839 3.8048,-0.4544 1.1628,-0.74166 1.7882,-2.4039 1.6099,-3.769482 H 7.1602238 c 1.51954,2.038952 3.5527302,3.734162 5.9687802,4.223882 z m 33.2991,4.3063003 c -0.7467,2.36853 -1.9666,4.54173 -3.5289,6.56893 -0.4947,-0.033 -0.9893,-0.1483 -1.4839,-0.2166 -0.3924,0.8664 -0.9203,1.7211 -1.736,2.3921 -0.057,0.0377 -0.1617,0.0235 -0.2068,-0.033 -0.1974,-0.2731 0.0689,-0.5933 0.0903,-0.8899 0.2069,-0.9677 -0.0452,-1.9589 -0.6658,-2.6747 -0.4495,-0.4097 -0.9322,-0.6946 -1.4839,-0.8311 -2.3233,-0.4568 -4.4492,0.7746 -5.75,2.6534 -3.9784,-1.2431 -8.8414,-2.2673 -13.2787,-1.7328 -6.0948,0.8664 -12.1896502,2.6888 -15.9730462,8.1205 -0.29725,0.4544 -0.573098,0.9111 -0.815654,1.3773 V 4.4730827 c 1.66698,-0.67102 3.40292,-1.14898 5.17452,-1.58219 1.84058,2.3003 4.3683902,3.82598 7.1506802,4.17915 2.0831,0.27311 4.1282,-0.61451 5.0722,-2.48159 0.4233,-0.83819 0.654,-1.86944 0.459,-2.870082 2.8417,-0.240154 5.876,-0.1153677 8.6369,0.261345 1.6099,0.216609 3.1603,0.602739 4.668,1.092467 0.7847,0.25663 1.5528,0.56978 2.2995,0.92294 0.0928,0.04474 0.1593,0.09183 0.1498,0.19307 0,0.09182 -0.0452,0.19777 -0.1379,0.19542 -0.9916,-0.0259 -1.9214,-0.06828 -2.8869,-0.11537 -0.1189,-0.00471 -0.2069,0.02354 -0.2758,0.12479 -0.0428,0.06592 0.0713,0.10359 0.1379,0.11536 1.4601,0.2378 3.7477,0.57684 6.7606,1.45741 2.6135,0.76284 5.0485,1.98245 7.291,3.64469 0.214,0.16011 0.4352,0.3979003 0.3329,0.7063403 z"
     fill="white"
     id="path9"
     style="fill:#330a57;fill-opacity:1" />
  <defs
     id="defs10" />
  <path
     style="fill:#ffffff;fill-opacity:1"
     sodipodi:type="inkscape:offset"
     inkscape:radius="1.5953614"
     inkscape:original="M 19.451172 1.71875 C 19.646172 2.719392 19.415488 3.7497006 18.992188 4.5878906 C 18.048188 6.4549706 16.004975 7.3434225 13.921875 7.0703125 C 11.139585 6.7171425 8.6101112 5.190925 6.7695312 2.890625 C 4.9979312 3.323835 3.2626831 3.8016363 1.5957031 4.4726562 L 1.5957031 25.050781 C 1.8382591 24.584581 2.1148594 24.128228 2.4121094 23.673828 C 6.1955054 18.242128 12.289966 16.419134 18.384766 15.552734 C 22.822066 15.018234 27.685662 16.042056 31.664062 17.285156 C 32.964863 15.406356 35.090762 14.176013 37.414062 14.632812 C 37.965762 14.769312 38.446984 15.053191 38.896484 15.462891 C 39.517084 16.178691 39.7694 17.170972 39.5625 18.138672 C 39.5411 18.435272 39.275256 18.754244 39.472656 19.027344 C 39.517756 19.083844 39.622687 19.098247 39.679688 19.060547 C 40.495387 18.389547 41.023616 17.536322 41.416016 16.669922 C 41.910616 16.738222 42.403737 16.853719 42.898438 16.886719 C 44.460737 14.859519 45.681034 12.684936 46.427734 10.316406 C 46.530034 10.007966 46.309703 9.7714381 46.095703 9.6113281 C 43.853203 7.9490881 41.418188 6.7276837 38.804688 5.9648438 C 35.791787 5.0842737 33.503069 4.7456125 32.042969 4.5078125 C 31.976369 4.4960425 31.86345 4.4584981 31.90625 4.3925781 C 31.97515 4.2913281 32.062741 4.2628681 32.181641 4.2675781 C 33.147141 4.3146681 34.076759 4.3569125 35.068359 4.3828125 C 35.161059 4.3851625 35.207031 4.27932 35.207031 4.1875 C 35.216531 4.08626 35.149441 4.0408338 35.056641 3.9960938 C 34.309941 3.6429338 33.542513 3.3288956 32.757812 3.0722656 C 31.250112 2.5825376 29.699744 2.1970778 28.089844 1.9804688 C 25.328944 1.6037561 22.292872 1.478596 19.451172 1.71875 z M 7.1601562 1.7871094 C 8.6796962 3.8260614 10.712856 5.5200456 13.128906 6.0097656 C 14.358306 6.3299756 15.887294 6.2394306 16.933594 5.5566406 C 18.096394 4.8149806 18.721269 3.1526914 18.542969 1.7871094 L 7.1601562 1.7871094 z M 23.699219 16.654297 C 22.185631 16.527734 20.653959 16.510972 19.130859 16.669922 C 16.186859 16.978322 13.381107 17.716428 10.898438 19.173828 C 9.0459773 20.165028 7.1723 21.828128 6.4375 23.798828 C 6.11409 24.665228 5.8261719 25.55175 5.8261719 26.53125 C 5.8618419 29.48135 7.8395186 32.315922 10.574219 33.544922 C 12.288799 34.411322 14.337894 34.856947 16.371094 34.435547 C 17.072594 34.287147 17.773747 34.138275 18.373047 33.796875 C 18.049647 33.488475 17.774028 33.183278 17.486328 32.830078 C 15.681428 30.574578 15.335741 27.009028 16.681641 24.423828 C 18.003841 21.464328 21.14325 19.972137 24.15625 19.585938 C 26.30595 19.265738 28.559825 19.518197 30.640625 19.904297 C 30.790425 18.823597 31.123047 18.001953 31.123047 18.001953 C 30.133847 17.775953 29.157003 17.490322 28.158203 17.294922 C 26.708853 17.015922 25.212806 16.780859 23.699219 16.654297 z M 26.802734 20.708984 C 24.573472 20.919922 22.512863 21.844028 21.210938 23.798828 C 20.095637 25.552828 20.287431 28.072719 21.269531 29.949219 C 21.581031 30.542519 22.145553 31.180247 22.751953 31.498047 C 23.003953 30.735247 23.568128 30.040625 24.236328 29.515625 C 25.040128 29.004725 25.915181 28.680991 26.925781 28.650391 C 28.685581 28.591491 30.319428 29.630672 31.111328 31.201172 C 33.353828 30.188672 35.562731 28.737909 37.332031 26.849609 C 37.771931 26.381109 38.241319 25.872819 38.574219 25.324219 C 38.229419 24.881619 37.783653 24.495128 37.376953 24.111328 C 37.757453 23.277828 38.091072 22.364103 38.138672 21.408203 C 38.102972 21.292803 37.989366 21.281331 37.884766 21.269531 C 37.080966 22.376131 35.983137 23.33265 34.710938 23.71875 C 34.147337 23.89065 33.300822 24.005903 32.732422 23.845703 C 31.491122 23.492603 30.675634 22.180475 30.490234 20.984375 C 30.031234 20.859575 29.551506 20.772156 29.066406 20.722656 C 28.307231 20.646156 27.545822 20.638672 26.802734 20.708984 z "
     xlink:href="#path10"
     id="path11"
     inkscape:href="#path10"
     d="m 22.257812,-1.5722656 c -1.515638,-0.05025 -3.04558,-0.020581 -4.537109,0.1054687 a 1.5955209,1.5955209 0 0 0 -0.517578,0.2871094 1.5955209,1.5955209 0 0 0 -0.255859,-0.2246094 H 5.5644531 A 1.5955209,1.5955209 0 0 0 4.1796875,-0.06445312 C 2.5829207,0.33865129 0.98050424,0.76200366 -0.59570312,1.3964844 A 1.5955209,1.5955209 0 0 0 -1.5957031,2.8769531 V 23.455078 a 1.5955209,1.5955209 0 0 0 3.0117187,0.736328 C 1.6215285,23.796404 1.8664491,23.393041 2.1367188,22.978516 2.485851,22.478509 2.9427135,22.142839 3.3339844,21.707031 2.999743,22.606219 2.6347655,23.667965 2.6347656,24.935547 a 1.5955209,1.5955209 0 0 0 0,0.01953 c 0.043977,3.637174 2.3660013,6.934468 5.65625,8.429688 1.9701804,0.989089 4.3607164,1.524924 6.8085934,1.017578 a 1.5955209,1.5955209 0 0 0 0.0059,-0.002 c 0.699501,-0.147978 1.567667,-0.301683 2.460937,-0.810547 a 1.5955209,1.5955209 0 0 0 0.3125,-2.541016 C 17.614411,30.796601 17.39089,30.549602 17.136719,30.238281 l -0.002,-0.002 c -1.353443,-1.693414 -1.649339,-4.717383 -0.632813,-6.669922 a 1.5955209,1.5955209 0 0 0 0.04102,-0.08594 c 0.36864,-0.825134 0.985098,-1.473902 1.6875,-2.041016 -1.468804,2.393015 -1.170667,5.361525 0.0293,7.654297 a 1.5955209,1.5955209 0 0 0 0.002,0.002 c 0.461548,0.87909 1.131232,1.682586 2.154297,2.21875 a 1.5955209,1.5955209 0 0 0 2.255859,-0.912109 c 0.113569,-0.34377 0.467821,-0.798338 0.904297,-1.16211 0.588604,-0.361222 1.134127,-0.571552 1.802734,-0.591797 a 1.5955209,1.5955209 0 0 0 0.0039,0 c 1.099807,-0.03681 2.186891,0.640362 2.708985,1.675782 a 1.5955209,1.5955209 0 0 0 2.080078,0.734375 c 2.404523,-1.085654 4.783391,-2.639671 6.726562,-4.712891 0.446402,-0.475424 0.99215,-1.045495 1.44336,-1.789062 a 1.5955209,1.5955209 0 0 0 -0.105469,-1.808594 c -0.242778,-0.311641 -0.45408,-0.476796 -0.691406,-0.707031 0.246916,-0.68023 0.550264,-1.314383 0.591797,-2.148438 a 1.5955209,1.5955209 0 0 0 -0.07031,-0.550781 c -0.04001,-0.129327 -0.184174,-0.168762 -0.263672,-0.289063 0.344057,0.0431 0.709598,0.04148 1.16211,-0.257812 a 1.5955209,1.5955209 0 0 0 0.132812,-0.09766 c 0.691809,-0.569087 1.16933,-1.226487 1.572266,-1.890625 0.190915,0.02745 0.305518,0.06137 0.527344,0.07617 a 1.5955209,1.5955209 0 0 0 1.36914,-0.617187 c 1.649139,-2.13988 2.966354,-4.474785 3.779297,-7.0429687 v -0.00195 C 46.541964,8.6264014 46.400421,7.9154361 46.160156,7.5058594 45.919621,7.0958215 45.653519,6.8867502 45.455078,6.7382812 a 1.5955209,1.5955209 0 0 0 -0.0059,-0.00391 C 43.062742,4.9654133 40.452877,3.6561354 37.65625,2.8398438 36.48536,2.4976316 35.998611,2.484202 35.042969,2.2753906 34.970305,1.9508639 34.93391,1.5967591 34.75,1.3964844 34.46874,1.0901973 34.255483,1.0116742 34.154297,0.96289063 a 1.5955209,1.5955209 0 0 0 -0.01172,-0.003906 C 33.344397,0.58147609 32.516287,0.24156709 31.658203,-0.0390625 a 1.5955209,1.5955209 0 0 0 -0.0039,-0.0019531 C 30.074906,-0.55402994 28.430671,-0.96535314 26.707031,-1.1972656 l 0.002,0.00195 C 25.27437,-1.3910594 23.773451,-1.5220152 22.257812,-1.5722656 Z m 12.949219,4.1640625 -0.0078,0.1484375 c 0.0016,-0.017048 -0.01837,-0.037024 -0.01758,-0.054687 9.62e-4,-0.02996 0.02539,-0.063339 0.02539,-0.09375 z M 11.130859,5.9589844 c 0.0086,0.00225 0.01869,-2.71e-4 0.02734,0.00195 0.02059,0.00432 0.03794,0.015344 0.05859,0.019531 z m 24.339844,8.6484376 c 0.206787,0.05602 0.410378,0.185613 0.640625,0.375 0.253456,0.324599 0.394321,0.761657 0.294922,1.226562 a 1.5955209,1.5955209 0 0 0 -0.03125,0.21875 c 0.02045,-0.283451 0.0263,-0.196627 -0.06641,0.119141 -0.08038,0.273801 -0.103651,0.94631 0.18164,1.546875 -0.0021,-1.63e-4 -0.01977,-0.0057 -0.02148,-0.0059 a 1.5955209,1.5955209 0 0 0 -1.470703,0.648437 c -0.654773,0.901433 -1.530107,1.61185 -2.345703,1.859375 a 1.5955209,1.5955209 0 0 0 -0.002,0.002 c -0.32697,0.09973 -1.097215,0.110989 -1.078125,0.117188 -0.417754,-0.118834 -0.997577,-0.899453 -1.101563,-1.570313 A 1.5955209,1.5955209 0 0 0 30.341797,19 1.5955209,1.5955209 0 0 0 30.625,18.527344 c 0.120801,-0.871494 0.380859,-1.521485 0.380859,-1.521485 a 1.5955209,1.5955209 0 0 0 0.02734,-0.287109 1.5955209,1.5955209 0 0 0 0.347656,-0.119141 c 1.014815,-1.465739 2.49594,-2.286455 4.089844,-1.992187 z M 8.5507813,16.171875 c -0.00823,0.0044 -0.01521,0.01316 -0.023437,0.01758 -0.010501,0.0061 -0.022711,0.0075 -0.033203,0.01367 z" />
  <path
     fill-rule="evenodd"
     clip-rule="evenodd"
     d="m 37.377404,24.111563 c 0.3805,-0.8335 0.7134,-1.747 0.761,-2.7029 -0.0357,-0.1154 -0.1498,-0.1271 -0.2544,-0.1389 -0.8038,1.1066 -1.9001,2.0625 -3.1723,2.4486 -0.5636,0.1719 -1.4101,0.2873 -1.9785,0.1271 -1.2413,-0.3531 -2.057,-1.6645 -2.2424,-2.8606 -0.459,-0.1248 -0.9394,-0.2119 -1.4245,-0.2614 -3.0367,-0.306 -6.1186,0.4686 -7.8545,3.075 -1.1153,1.754 -0.925,4.2733 0.0571,6.1498 0.3115,0.5933 0.8775,1.2314 1.4839,1.5492 0.252,-0.7628 0.8156,-1.4574 1.4838,-1.9824 0.8038,-0.5109 1.6789,-0.8335 2.6895,-0.8641 1.7598,-0.0589 3.3934,0.9794 4.1853,2.5499 2.2425,-1.0125 4.4516,-2.4628 6.2209,-4.3511 0.4399,-0.4685 0.9084,-0.9771 1.2413,-1.5257 -0.3448,-0.4426 -0.7895,-0.8287 -1.1962,-1.2125 z m -19.8919,8.7185 c -1.8049,-2.2555 -2.1497,-5.8202 -0.8038,-8.4054 1.3222,-2.9595 4.4611,-4.4522 7.4741,-4.8384 2.1497,-0.3202 4.404,-0.0682 6.4848,0.3179 0.1498,-1.0807 0.4827,-1.9024 0.4827,-1.9024 -0.9892,-0.226 -1.9666,-0.5109 -2.9654,-0.7063 -2.8987,-0.558 -5.9806,-0.9442 -9.0268,-0.6263 -2.944,0.3084 -5.75,1.0477 -8.23267,2.5051 -1.8524602,0.9912 -3.7263202,2.6535 -4.4611202,4.6242 -0.32341,0.8664 -0.61115,1.754 -0.61115,2.7335 0.03567,2.9501 2.01416,5.7849 4.7488602,7.0139 1.71458,0.8664 3.76198,1.3114 5.79518,0.89 0.7015,-0.1484 1.403,-0.2967 2.0023,-0.6381 -0.3234,-0.3084 -0.5993,-0.6145 -0.887,-0.9677 z m -4.3565,-26.8195303 c 1.2294,0.32021 2.7585,0.22839 3.8048,-0.4544 1.1628,-0.74166 1.7882,-2.4039 1.6099,-3.769482 H 7.1602238 c 1.51954,2.038952 3.5527302,3.734162 5.9687802,4.223882 z m 33.2991,4.3063003 c -0.7467,2.36853 -1.9666,4.54173 -3.5289,6.56893 -0.4947,-0.033 -0.9893,-0.1483 -1.4839,-0.2166 -0.3924,0.8664 -0.9203,1.7211 -1.736,2.3921 -0.057,0.0377 -0.1617,0.0235 -0.2068,-0.033 -0.1974,-0.2731 0.0689,-0.5933 0.0903,-0.8899 0.2069,-0.9677 -0.0452,-1.9589 -0.6658,-2.6747 -0.4495,-0.4097 -0.9322,-0.6946 -1.4839,-0.8311 -2.3233,-0.4568 -4.4492,0.7746 -5.75,2.6534 -3.9784,-1.2431 -8.8414,-2.2673 -13.2787,-1.7328 -6.0948,0.8664 -12.1896502,2.6888 -15.9730462,8.1205 -0.29725,0.4544 -0.573098,0.9111 -0.815654,1.3773 V 4.4730827 c 1.66698,-0.67102 3.40292,-1.14898 5.17452,-1.58219 1.84058,2.3003 4.3683902,3.82598 7.1506802,4.17915 2.0831,0.27311 4.1282,-0.61451 5.0722,-2.48159 0.4233,-0.83819 0.654,-1.86944 0.459,-2.870082 2.8417,-0.240154 5.876,-0.1153677 8.6369,0.261345 1.6099,0.216609 3.1603,0.602739 4.668,1.092467 0.7847,0.25663 1.5528,0.56978 2.2995,0.92294 0.0928,0.04474 0.1593,0.09183 0.1498,0.19307 0,0.09182 -0.0452,0.19777 -0.1379,0.19542 -0.9916,-0.0259 -1.9214,-0.06828 -2.8869,-0.11537 -0.1189,-0.00471 -0.2069,0.02354 -0.2758,0.12479 -0.0428,0.06592 0.0713,0.10359 0.1379,0.11536 1.4601,0.2378 3.7477,0.57684 6.7606,1.45741 2.6135,0.76284 5.0485,1.98245 7.291,3.64469 0.214,0.16011 0.4352,0.3979003 0.3329,0.7063403 z"
     fill="white"
     id="path10"
     style="fill:#330a57;fill-opacity:1" />
</svg>
