<svg width="88" height="96" viewBox="0 0 88 96" fill="none" xmlns="http://www.w3.org/2000/svg">
<g clip-path="url(#clip0_4877_259936)">
<path d="M87.1271 83.3223H59.9643V51.6584L49.071 76.2186H38.4289L27.528 51.6507V83.3223H0.745728L7.74664 67.9583V17.1256L1.32406 0H26.5502L43.7405 39.7454L60.946 0H86.0655L79.7495 17.0381V67.9393L87.1271 83.3223Z" fill="#231F20"/>
<path d="M84.0414 81.378H61.9124V42.4811L47.8117 74.2744H39.6997L25.5914 42.4735V81.3742H3.76678L9.69093 68.3768V16.7718L4.12825 1.94427H25.268L43.7367 44.6384L62.2206 1.94427H83.269L77.8052 16.688V68.3806L84.0414 81.378Z" fill="#FFD520"/>
<path d="M81.7927 79.9664L76.3898 68.704V16.4331L81.2372 3.35587H63.1489L43.7404 48.1997L24.3433 3.35587H6.1714L11.1101 16.5168L11.1063 68.6888L5.96594 79.9664H24.1721V35.8036L40.6128 72.8627H46.887L63.324 35.8074V79.9664H81.7927Z" fill="#E31936"/>
<path d="M68.0953 89.5736H63.3697L67.2735 92.0924V94.6531H72.0638L68.0953 91.9935V89.5736Z" fill="#231F20"/>
<path d="M77.8395 91.2021L81.8879 93.8693V94.6531H83.9577L82.7135 93.8198V89.5736H77.0291V90.0226L76.3366 89.5736H72.1437V94.6531H77.8395V91.2021Z" fill="#231F20"/>
<path d="M58.3168 89.5736V92.0924V94.6531H63.2251V89.5736H58.3168Z" fill="#231F20"/>
<path d="M63.3697 89.5736H63.2251V94.6531H67.2735V92.0924L63.3697 89.5736Z" fill="#FFD520"/>
<path d="M68.0953 89.5736V91.9935L72.0637 94.6531H72.1436V89.5736H68.0953Z" fill="#FFD520"/>
<path d="M77.0291 89.5736H76.3366L77.0291 90.0226V89.5736Z" fill="#FFD520"/>
<path d="M77.8395 91.2021V94.6531H81.8878V93.8693L77.8395 91.2021Z" fill="#FFD520"/>
<path d="M83.9577 94.6531H85.4111L83.6419 92.0696L85.3921 89.5736H82.7135V93.8198L83.9577 94.6531Z" fill="#FFD520"/>
<path d="M29.7957 92.0924C29.7957 91.2402 31.0475 90.5401 32.7711 90.4373C32.8396 90.1215 32.9347 89.8324 33.0565 89.5736H29.6017V92.0924H29.7995H29.7957Z" fill="white"/>
<path d="M41.7581 90.171V89.5698H36.0661C36.1536 89.7563 36.2297 89.9541 36.2906 90.171H41.7581Z" fill="white"/>
<path d="M58.0809 92.0924C58.0809 92.9523 56.833 93.6486 55.1094 93.7552C55.0371 94.0862 54.9343 94.3868 54.8088 94.6531H58.3206V92.0924H58.0809Z" fill="white"/>
<path d="M46.0538 94.0215V94.6531H51.822C51.7307 94.459 51.647 94.2498 51.5823 94.0215H46.0538Z" fill="white"/>
<path d="M36.2944 94.0215C36.2297 94.2498 36.146 94.459 36.0547 94.6531H41.7581V94.0215H36.2906H36.2944Z" fill="#E31936"/>
<path d="M29.7958 92.0962V92.0924H29.5941V94.6531H33.0679C32.9386 94.3868 32.8396 94.0862 32.7674 93.7552C31.04 93.6486 29.792 92.9485 29.792 92.0962H29.7958Z" fill="#E31936"/>
<path d="M58.0809 92.0924H58.3206V89.5736H54.824C54.9457 89.8324 55.0409 90.1215 55.1093 90.4373C56.8329 90.5401 58.0771 91.244 58.0809 92.0924Z" fill="#E31936"/>
<path d="M51.5823 90.171C51.6431 89.9541 51.7192 89.7563 51.8068 89.5698H46.0538V90.171H51.5823Z" fill="#E31936"/>
<path d="M29.7957 92.0924C29.7957 92.0924 29.7957 92.0924 29.7957 92.0962C29.7957 92.9485 31.0437 93.6486 32.7711 93.7552C32.8434 94.0862 32.9423 94.3868 33.0717 94.6531H36.0547C36.146 94.4591 36.2297 94.2498 36.2944 94.0215H41.7619V94.6531H43.9117V92.0924H29.7995H29.7957Z" fill="white"/>
<path d="M58.0809 92.0962L43.9079 92.0924V94.6531H46.0538V94.0215H51.5823C51.647 94.2498 51.7268 94.4591 51.822 94.6531H54.805C54.9343 94.3868 55.0333 94.0862 55.1056 93.7552C56.833 93.6486 58.0771 92.9485 58.0771 92.0962H58.0809Z" fill="#E31936"/>
<path d="M58.081 92.0924C58.0772 91.244 56.8292 90.5401 55.1094 90.4373C55.0409 90.1215 54.9458 89.8324 54.824 89.5736H51.8106C51.7231 89.7601 51.647 89.9579 51.5861 90.1748H46.0577V89.5736H43.9117V92.0924H58.0848H58.081Z" fill="white"/>
<path d="M29.7957 92.0924H43.9079V89.5736H41.7582V90.1748H36.2906C36.2297 89.9579 36.1536 89.7601 36.0661 89.5736H33.0527C32.9309 89.8324 32.8358 90.1215 32.7673 90.4373C31.0437 90.5401 29.7957 91.244 29.7919 92.0924H29.7957Z" fill="#E31936"/>
<path d="M2.48838 89.5736L4.24242 92.0658L2.46936 94.6531H5.73772V89.5736H2.48838Z" fill="#231F20"/>
<path d="M25.2376 89.5736H19.5493V90.0226L18.8568 89.5736H14.6601V94.6531H20.3598V91.2021L24.4081 93.8693V94.6531H26.4817L25.2376 93.8198V89.5736Z" fill="#231F20"/>
<path d="M10.6117 89.5736H5.88232L9.78229 92.0924V94.6531H14.584L10.6117 91.9935V89.5736Z" fill="#231F20"/>
<path d="M5.88232 89.5736H5.73773V94.6531H9.78228V92.0924L5.88232 89.5736Z" fill="#FFD520"/>
<path d="M10.6117 89.5736V91.9935L14.584 94.6531H14.66V89.5736H10.6117Z" fill="#FFD520"/>
<path d="M19.5493 89.5736H18.8568L19.5493 90.0226V89.5736Z" fill="#FFD520"/>
<path d="M20.3597 91.2021V94.6531H24.4081V93.8693L20.3597 91.2021Z" fill="#FFD520"/>
<path d="M29.5979 89.5736H25.2375V93.8198L26.4817 94.6531H29.5903L29.5941 92.0924L29.5979 89.5736Z" fill="#FFD520"/>
<path d="M87.8767 96H0L2.32476 92.0734L0.00760969 88.2229H87.8729L85.5519 92.0734L87.8729 96.0038L87.8767 96ZM2.46934 94.6531H85.4111L83.6419 92.0696L85.3959 89.5736H2.48837L4.2424 92.0658L2.46934 94.6531Z" fill="#231F20"/>
</g>
<defs>
<clipPath id="clip0_4877_259936">
<rect width="87.8767" height="96" fill="white"/>
</clipPath>
</defs>
</svg>
