<?xml version="1.0" encoding="UTF-8" standalone="no"?>
<svg
   width="62.573502"
   height="54.38517"
   viewBox="0 0 62.573501 54.38517"
   fill="none"
   version="1.1"
   id="svg4"
   sodipodi:docname="MEM.svg"
   inkscape:version="1.4 (86a8ad7, 2024-10-11)"
   xmlns:inkscape="http://www.inkscape.org/namespaces/inkscape"
   xmlns:sodipodi="http://sodipodi.sourceforge.net/DTD/sodipodi-0.dtd"
   xmlns="http://www.w3.org/2000/svg"
   xmlns:svg="http://www.w3.org/2000/svg">
  <defs
     id="defs4" />
  <sodipodi:namedview
     id="namedview4"
     pagecolor="#ffffff"
     bordercolor="#000000"
     borderopacity="0.25"
     inkscape:showpageshadow="2"
     inkscape:pageopacity="0.0"
     inkscape:pagecheckerboard="0"
     inkscape:deskcolor="#d1d1d1"
     inkscape:zoom="18.951613"
     inkscape:cx="31.606809"
     inkscape:cy="27.095319"
     inkscape:window-width="3440"
     inkscape:window-height="1377"
     inkscape:window-x="-8"
     inkscape:window-y="-8"
     inkscape:window-maximized="1"
     inkscape:current-layer="svg4" />
  <path
     d="m 26.317657,54.38517 v -7.5623 l -3.169,5.6267 -3.1689,-5.6267 v 7.5623 H 1.7853563 v -12.6398 h 2.60178 v -16.826 h -2.60178 v -12.8198 h 1.35941 c -0.12604,-0.126 -0.24307,-0.2521 -0.36911,-0.3781 -0.07202,-0.081 -0.15305,-0.153 -0.23407,-0.2341 -0.86426,-0.8642 -1.85455004,-1.8545 -2.28668004,-3.2589 -0.477141,-1.5215 -0.279082,-3.21398 0.54916,-4.64541 C 1.7403463,1.97158 3.4058463,0.79222996 5.5034663,0.27007996 6.2236763,0.09002 6.9799063,0 7.7451263,0 8.8254563,0 9.9327563,0.17105 11.130156,0.53114996 13.704857,1.30538 15.145357,2.59277 15.406357,4.34829 c 0.1171,0.76523 -0.072,1.48544 -0.5401,2.08858 -0.7292,0.9273 -1.6025,1.1254 -2.1967,1.1254 -1.0533,0 -2.016601,-0.5672 -2.8718007,-1.0803 -0.43214,-0.2611 -0.92729,-0.54921 -1.20637,-0.61223 -0.15305,-0.03601 -0.3151,-0.05402 -0.47715,-0.05402 -0.50415,0 -0.95428,0.16205 -1.22436,0.44115 -0.07202,0.072 -0.09003,0.117 -0.09003,0.126 0,0.009 0.00901,0.063 0.06302,0.1441 0.08103,0.153 0.22507,0.2971 0.41413,0.4501 0.51315,0.4051 1.04431,0.7832 1.60247,1.1793 0.82829,0.5942 1.6924897,1.2064 2.4937907,1.9176 0.7022,0.6302 1.2873,1.3144 1.7285,2.0256 h 1.5304 l 0.3691,0.6482 c 2.5658,-2.1876 5.5007,-4.5373 8.7056,-6.4009 4.1502,-2.41271 8.0304,-3.58305 11.8745,-3.58305 0.8373,0 1.6745,0.05401 2.5028,0.17105 2.0616,0.27908 3.8171,0.86426 5.3656,1.78253 0.027,0.009 0.072,0.03601 0.135,0.07202 0.3151,0.16205 0.8463,0.45013 1.2964,0.76523 1.6655,0.23407 3.259,0.81922 4.7534,1.42242 0.2431,0.099 0.4772,0.144 0.7022,0.144 0.1081,0 0.2251,-0.009 0.3331,-0.036 0.2701,-0.054 0.5852,-0.117 0.9453,-0.117 0.027,0 0.054,0 0.09,0 0.9633,0.027 1.6475,0.5672 1.8906,1.4944 0.135,0.4952 0.126,1.0263 -0.018,1.5665 -0.072,0.2881 -0.1801,0.5942 -0.3241,0.9453 -0.108,0.2611 -0.072,0.4051 0.018,0.5762 0.3601,0.6572 0.4051,1.3233 0.3961,1.8815 0,0.3961 -0.018,0.8193 -0.045,1.3414 0,0.045 0,0.054 0.009,0.072 0.4771,0.7653 0.6752,1.6385 0.6032,2.6018 0,0.045 -0.009,0.09 -0.018,0.135 0.8462,0.7383 1.5034,1.6655 2.0076,2.8359 0.2701,0.6122 0.5221,1.2694 0.7832,1.9896 0.2611,0.7202 0.7022,1.2153 1.3954,1.5394 l 0.1621,0.0811 c 0.261,0.126 0.5041,0.243 0.7562,0.3511 0.7652,0.3331 1.3234,0.8372 1.6655,1.4944 0,0 0.018,0.009 0.027,0.027 0.8733,0.6392 1.2874,1.5395 1.2154,2.6018 0,0.027 0,0.09 0,0.144 0,0.0991 0.009,0.2161 0,0.3421 0,0.1981 0.027,0.3871 0.117,0.5852 0.2611,0.5852 0.2971,1.2154 0.108,1.8185 -0.054,0.1711 -0.126,0.3421 -0.216,0.5042 0.081,0.5672 0,1.1253 -0.2521,1.6295 -0.3421,0.7022 -0.9633,1.1613 -1.7465,1.2964 -0.1081,0.018 -0.2161,0.027 -0.3241,0.027 -0.1081,0 -0.1981,0 -0.2971,-0.027 -0.4502,0.4051 -1.0263,0.6302 -1.6295,0.6302 -0.2161,0 -0.4231,-0.0271 -0.6392,-0.0811 -0.9273,-0.234 -1.6745,-0.7112 -2.2237,-1.4314 -0.3871,-0.4951 -0.5941,-1.0443 -0.6211,-1.6385 0,-0.054 0,-0.108 -0.009,-0.171 0,-0.0721 -0.0181,-0.1531 -0.0181,-0.2431 l -0.045,-0.036 c -0.261,-0.1981 -0.5041,-0.3871 -0.7562,-0.5582 -0.7832,-0.5401 -1.3504,-1.1433 -1.7465,-1.8455 -0.027,-0.036 -0.099,-0.0901 -0.1981,-0.1351 l -0.09,-0.036 c -0.108,-0.045 -0.2251,-0.099 -0.3421,-0.162 -0.9453,-0.4592 -1.6745,-1.1074 -2.1696,-1.9266 0,-0.009 -0.009,-0.018 -0.018,-0.036 -0.3872,0.162 -0.7473,0.198 -0.9183,0.2161 h -0.045 c -0.4592,0.054 -0.9273,0.108 -1.4225,0.108 -0.171,0 -0.3421,0 -0.5041,-0.018 -0.6482,-0.054 -1.2694,-0.2161 -1.8455,-0.4772 0.081,0.0721 0.162,0.1531 0.243,0.2341 0.1261,0.126 0.2971,0.3331 0.4231,0.6032 0.0631,0.135 0.1081,0.2791 0.1261,0.4231 0.027,0.027 0.054,0.054 0.081,0.09 0.1531,0.1711 0.4051,0.5582 0.3331,1.1434 -0.045,0.3871 -0.18,0.7202 -0.2791,0.9363 0.1531,0.297 0.1981,0.6481 0.1351,1.0173 -0.0631,0.3781 -0.2341,0.7292 -0.5222,1.0713 -0.063,0.081 -0.135,0.153 -0.198,0.225 0.018,0.2521 -0.0181,0.5582 -0.1891,0.9003 -0.126,0.2521 -0.3061,0.4862 -0.5402,0.6932 -0.09,0.081 -0.171,0.1531 -0.261,0.2251 -0.1531,0.4411 -0.4322,0.8192 -0.8463,1.1523 -0.3061,0.2521 -0.6392,0.4502 -0.9903,0.5852 v 5.4016 h 2.6018 v 12.6398 h -18.1764 z"
     fill="#ffffff"
     id="path1" />
  <path
     d="m 14.055857,4.5554 c 0.1261,0.91827 -0.5761,1.52145 -1.3054,1.60247 -0.3241,0.036 -0.6301,-0.036 -0.9272,-0.15304 -0.3061,-0.12604 -0.5942,-0.28809 -0.882301,-0.46814 -0.3061,-0.19806 -0.6032,-0.40512 -0.9183,-0.58517 C 8.9963863,4.38435 7.9340663,4.27632 6.8357463,4.70844 c -0.35111,0.13504 -0.6572,0.3421 -0.91828,0.61219 -0.54016,0.55816 -0.63018,1.23334 -0.23406,1.90854 0.18905,0.3331 0.45013,0.6032 0.75622,0.8373 1.08032,0.8552 2.24166,1.6114 3.26793,2.5477 0.5491997,0.4952 1.0533997,1.0443 1.4945007,1.6385 0.2431,0.3331 0.7112,0.8193 0.9363,1.3324 H 6.2055563 c -0.03601,-0.045 -0.07202,-0.009 -0.10803,-0.072 -0.38712,-0.5762 -0.78323,-1.1073 -1.24237,-1.6295 -0.38712,-0.4411 -0.81024,-0.8372 -1.22436,-1.2514 -0.46814,-0.4591 -0.93628,-0.9272 -1.3414,-1.4494 -0.45014,-0.5852 -0.76523,-1.2334 -0.88226,-1.9716 -0.14405,-0.8912 0,-1.7465 0.39611,-2.56575 0.56717,-1.17935 1.48544,-2.01659 2.6738,-2.54775 1.29638,-0.57617 2.65578,-0.82825 4.0692,-0.72022 0.47715,0.03602 0.94529,0.12604 1.40441,0.26108 0.7111997,0.19806 1.4224007,0.41412 2.0976007,0.72922 0.5762,0.27008 1.0894,0.62118 1.4945,1.12533 0.2521,0.30609 0.4501,0.64819 0.5041,1.05331 m 43.564,22.49768 c -0.2881,0.5222 0.5041,1.2604 -0.3151,1.6745 -0.2701,0.144 -0.6032,0.144 -0.8733,-0.018 -0.4321,-0.2701 -0.6302,-0.8012 -0.7022,-1.3054 -0.072,-0.5041 -0.045,-1.0263 -0.1891,-1.5214 -0.189,-0.6212 -0.6842,-1.0353 -1.2963,-1.2154 -0.4682,-0.135 -1.3955,-0.2611 -1.7736,0.126 -0.036,0.036 -0.072,0.0811 -0.099,0.1261 v 0.027 l 0.3151,0.144 c 0.2341,0.1081 0.4321,0.2431 0.5852,0.4231 0.09,0.0991 0.198,0.2251 0.2611,0.3602 0.063,0.126 -0.0631,0.261 -0.1891,0.207 -0.4411,-0.171 -0.8643,-0.2431 -1.3774,-0.117 -0.2071,0.054 -0.3961,0.18 -0.5132,0.3511 -0.3331,0.099 -0.6572,0.2431 -0.9813,0.3691 -0.036,-0.054 -0.072,-0.108 -0.108,-0.1621 -0.054,-0.09 -0.117,-0.189 -0.171,-0.279 -0.0991,-0.1621 -0.2071,-0.3241 -0.2971,-0.4862 v -0.018 c -0.045,-0.054 -0.0721,-0.117 -0.1171,-0.18 -0.063,-0.0901 -0.162,-0.1981 -0.3151,-0.1981 -0.108,0 -0.207,0.063 -0.288,0.1891 -0.2161,0.3151 -0.5132,0.4681 -1.0444,0.5221 h -0.045 c -0.4141,0.054 -0.8462,0.099 -1.2693,0.099 -0.1351,0 -0.2701,0 -0.3962,-0.018 -0.8012,-0.063 -1.5124,-0.3331 -2.1696,-0.8282 -0.2161,-0.1621 -0.4411,-0.3871 -0.6662,-0.6302 -0.5222,-0.5402 -1.1073,-1.1613 -1.8816,-1.1613 -0.054,0 -0.108,0 -0.162,0 -0.8733,0.09 -1.8996,0.4231 -1.8996,1.1613 v 2.2957 c 0,0.2701 0.6572,0.4501 1.1344,0.5311 0.027,0.0541 0.063,0.1081 0.108,0.1441 0.108,0.099 0.2431,0.162 0.3961,0.162 h 0.126 c 0,0 -0.009,0.036 -0.009,0.0541 -0.027,0.207 0.1441,0.324 0.1891,0.4951 0.081,0.2881 0.063,0.6212 0.063,0.9183 0,0.9002 -0.153,1.8185 -0.4051,2.6828 -0.036,0.108 -0.063,0.225 -0.126,0.3331 -0.0991,0.162 -0.2611,0.2791 -0.4052,0.4141 -0.4411,0.4051 -0.7112,0.9723 -0.7562,1.5665 -0.2791,0.18 -0.5491,0.3691 -0.8192,0.5581 -0.2881,-0.117 -0.5762,-0.2611 -0.9003,-0.4321 -0.3601,-0.1981 -0.7472,-0.4321 -1.1973,-0.7472 -0.7563,-0.5222 -1.5035,-1.0263 -2.2057,-1.5755 l -0.063,-0.045 c -0.6392,-0.4952 -1.3054,-1.0173 -1.9086,-1.5665 -1.6925,-1.5484 -3.52,-3.0069 -5.2756,-4.4203 l -0.5041,-0.4051 c -0.153,-0.117 -0.2701,-0.2161 -0.3961,-0.3331 -0.063,-0.063 -0.1351,-0.09 -0.2071,-0.09 -0.081,0 -0.162,0.036 -0.225,0.117 -0.1351,0.153 -0.2431,0.3151 -0.3692,0.5132 -0.5581,0.8732 -1.0623,1.7825 -1.4944,2.5657 -0.3061,0.5582 -0.6662,1.2244 -0.9813,1.9086 -0.054,0.117 -0.108,0.2341 -0.162,0.3511 -0.8553,-1.4224 -6.9051,-11.8025 -8.7506,-15.2145 1.2423,-1.6475 3.1869,-2.9979 5.0595,-4.3123 0.5851,-0.4051 1.1433,-0.7922 1.6655,-1.1794 1.9445,-1.4404 3.592,-2.5027 5.1945,-3.3219 1.7555,-0.90032 3.43,-1.5215 5.1405,-1.89061 0.8733,-0.18906 1.7826,-0.31509 2.7188,-0.38712 0.5042,-0.03601 1.0083,-0.06301 1.5035,-0.06301 0.3331,0 0.6662,0.009 0.9993,0.027 1.5484,0.08103 3.0159,0.37812 4.3843,0.88227 0.7832,0.28808 1.5124,0.71121 2.1516,1.08927 0.6662,0.3872 1.3234,0.6122 2.0076,0.6752 0.8283,0.0811 1.7015,0.3241 2.7368,0.7653 0.4231,0.18 0.8013,0.3421 1.1524,0.4771 0.4051,0.1621 0.8102,0.2431 1.2063,0.2431 0.1981,0 0.4051,-0.018 0.6032,-0.063 0.2161,-0.045 0.4501,-0.0901 0.6752,-0.0901 0.018,0 0.036,0 0.054,0 0.3601,0.009 0.5312,0.1441 0.6212,0.4862 0.072,0.2701 0.072,0.5582 -0.018,0.8823 0,0.027 -0.009,0.045 -0.018,0.072 0.036,-0.1981 0.045,-0.4141 0.027,-0.6122 0,-0.036 0,-0.072 -0.018,-0.108 -0.09,-0.3872 -0.4141,-0.7473 -0.8012,-0.7022 -0.1891,0.018 -0.3511,0.126 -0.5312,0.18 -0.144,0.045 -0.2971,0.054 -0.4501,0.063 -0.3241,0.027 -0.6392,0.045 -0.9633,0.072 0.2701,0 0.9092,0.9363 1.2694,1.3324 0.3601,0.3962 0.5671,0.8823 0.6932,1.4135 -0.6842,-0.2971 -1.4315,-0.2971 -2.1697,-0.3872 -0.3871,-0.045 -0.9903,0.2251 -0.7292,0.6842 0.027,0.0451 0.072,0.0901 0.126,0.1261 0.1621,0.117 0.4142,0.207 0.5402,0.2971 0.4321,0.3151 0.7562,0.6122 0.8372,1.1343 0.0541,0.3781 0.0271,0.8913 0.4232,1.1073 0.3421,0.1891 0.5401,-0.297 0.7382,-0.4591 0.2431,-0.2071 0.6032,-0.2341 0.7652,-0.5402 0.1891,-0.3511 0.072,-1.0083 -0.054,-1.3774 -0.171,-0.4951 -0.3241,-0.9543 0.063,-1.5844 0.018,-0.036 0.036,-0.0721 0.054,-0.1081 -0.018,0.054 -0.045,0.1171 -0.072,0.1711 -0.2521,0.6032 -0.225,1.1883 0.081,1.7465 0.2071,0.3781 0.2341,0.8102 0.2251,1.2154 0,0.216 -0.009,0.4591 -0.018,0.7112 0,-0.1081 -0.018,-0.1801 -0.036,-0.1891 -0.144,-0.063 -0.2881,0.081 -0.3331,0.2341 -0.036,0.144 -0.027,0.3061 -0.09,0.4501 -0.0811,0.1801 -0.2791,0.2791 -0.4142,0.4231 -0.6031,0.6482 0.6482,2.3137 -0.5851,2.5118 -0.5222,0.09 -1.0533,-0.1711 -1.5665,-0.2431 -0.5131,-0.072 -1.1523,-0.3511 -1.6655,-0.216 -0.072,0.018 -0.144,0.045 -0.2161,0.063 -0.8732,0.207 -1.7285,-0.6662 -2.5837,-0.2881 -0.8463,0.3781 -1.5395,0.7922 -2.5028,0.8913 -0.5131,0.054 -1.0263,0.045 -1.5394,-0.0361 -0.4141,-0.063 -1.0893,-0.135 -1.3954,-0.4321 -0.4412,-0.4231 -0.1711,-1.3774 0.063,-1.8365 0.2431,-0.4502 0.6932,-0.8103 1.1973,-0.8643 0.2881,-0.027 0.5402,-0.036 0.6392,-0.3601 0.2521,-0.7652 -0.045,-1.0893 -0.6572,-1.4854 -0.4321,-0.2791 -0.7922,-0.6752 -0.9903,-1.1434 -0.243,-0.5761 -0.108,-1.1343 -0.144,-1.7375 -0.081,-1.3054 -1.2514,-2.4487 -2.5478,-2.5027 -1.6564,-0.0811 -1.0893,2.3767 -0.8102,3.3129 0.072,0.2251 0.153,0.4502 0.126,0.6843 -0.063,0.7922 -0.6662,1.4044 -1.0803,2.0346 -0.5311,0.8012 -0.7742,1.7465 -0.8642,2.6918 -0.0631,0.6571 -0.1351,1.3594 0,2.0076 0.162,0.8192 0.6572,1.5664 1.0983,2.2506 0.3961,0.6032 0.9723,1.1344 1.6655,1.3594 0.4231,0.1351 0.8732,0.1441 1.3234,0.1711 1.2423,0.072 2.6288,0.3421 3.6911,1.0533 1.0263,0.6932 1.7105,1.7645 2.7188,2.4847 0.8552,0.6122 2.0796,0.7923 3.0879,0.4952 0.9543,-0.2791 1.7465,-1.1164 2.1696,-1.9896 0.2521,-0.5132 0.6482,-1.5035 0.2431,-2.0256 -0.036,-0.045 -0.5221,0.6122 -0.5221,0.7292 0.018,-0.3151 -0.1711,-0.4681 -0.3331,-0.7472 -0.0901,0.153 -0.1801,0.3151 -0.2701,0.4681 0.063,-0.108 -0.3241,-0.5401 -0.2521,-0.7652 0.054,-0.1711 0.1801,-0.3061 0.2971,-0.4411 0.2341,-0.2971 0.4141,-0.6302 0.5131,-0.9903 0.0631,0.243 0.1351,0.4861 0.1981,0.7292 0.3061,-0.0901 0.4771,-0.4051 0.6122,-0.6842 0.018,0.4411 0.081,0.8732 0.18,1.3054 0.3872,-0.3962 0.7743,-0.8553 0.8373,-1.4135 0.045,-0.3601 0.072,-0.5941 0.171,-0.8462 0.045,-0.108 0.0991,-0.2251 0.1711,-0.3691 0.2881,-0.5222 0.6482,-1.0623 0.7382,-1.6745 0.099,-0.7202 -0.18,-1.3324 -0.3331,-2.0256 0,-0.018 0,-0.045 0,-0.081 0.036,0.153 0.099,0.297 0.1801,0.4321 0.3241,0.5221 0.4591,1.1073 0.4051,1.7915 0,0.081 -0.027,0.1711 -0.081,0.2881 -0.0991,0.2251 -0.0541,0.4411 0.126,0.6212 0.045,0.045 0.099,0.09 0.153,0.135 0.8103,0.6392 1.4405,1.4765 1.9086,2.5658 0.2611,0.5852 0.5042,1.2154 0.7562,1.9086 0.3781,1.0533 1.0804,1.8275 2.0977,2.3046 l 0.153,0.0721 c 0.2611,0.126 0.5312,0.252 0.8012,0.3691 0.4952,0.225 0.8283,0.5131 1.0353,0.9092 0.0901,0.1711 0.2251,0.3241 0.4142,0.4592 0.4681,0.3421 0.6842,0.7742 0.6752,1.3234 -0.0901,-0.1081 -0.2251,-0.1801 -0.4051,-0.1801 -0.0541,0 -0.1081,0 -0.1531,0.018 -0.108,-0.081 -0.2341,-0.126 -0.3781,-0.09 -0.3511,0.09 -0.6482,1.3054 -1.0713,0.9093 -0.0991,-0.0901 -0.1261,-0.2341 -0.1081,-0.3691 0.027,-0.2251 0.1441,-0.5222 0.2431,-0.7293 0.2251,-0.4321 0.2881,-0.9452 -0.2701,-1.1433 -0.3511,-0.126 -0.9993,-0.099 -1.1973,0.2701 m -15.8267,-14.5213 c 0,0.108 0.036,0.216 0.099,0.2971 0.126,0.171 0.3601,0.216 0.5762,0.216 0.5671,-0.018 0.7832,-0.18 1.2423,0.2521 0.2161,0.1981 0.6212,0.4501 0.8373,0.6392 0.2161,0.198 0.4951,0.3151 0.7742,0.3961 0.3241,0.09 0.6662,0.009 0.9723,-0.108 0.3691,-0.1441 1.0353,-0.3781 1.0983,-0.8283 0.0811,-0.5671 -0.7382,-0.9633 -1.1433,-1.1793 -0.2971,-0.1531 -0.6032,-0.2881 -0.9273,-0.3691 -0.3241,-0.0721 -0.6842,-0.009 -0.9903,-0.1261 -0.5941,-0.234 -0.8102,-0.5671 -1.4944,-0.3691 -0.4862,0.1351 -0.9993,0.4682 -1.0533,1.0083 0,0.054 0,0.1081 0,0.1711 m -2.5838,11.6674 c -0.027,-0.2881 -0.2971,-0.4231 -0.5492,-0.279 -0.144,0.081 -0.234,0.216 -0.297,0.3601 -0.1891,0.4141 -0.1711,0.8282 -0.0631,1.2693 0.1081,0.4682 0.3691,0.8013 0.8193,0.9813 0.009,0 0.027,0 0.054,0.009 0.045,-0.045 0.027,-0.081 0.027,-0.117 0,-0.7112 0,-1.4224 0.009,-2.1336 0,-0.027 0,-0.0631 0,-0.0901 z"
     fill="#8e908f"
     id="path2" />
  <path
     d="m 61.283557,30.08687 c -0.153,-0.3511 -0.225,-0.7202 -0.216,-1.1073 0,-0.171 -0.018,-0.3511 0,-0.5221 0.045,-0.6662 -0.1981,-1.1794 -0.7382,-1.5665 -0.1441,-0.108 -0.2791,-0.2341 -0.3601,-0.4051 -0.2431,-0.4772 -0.6392,-0.7743 -1.1164,-0.9903 -0.3151,-0.1441 -0.6302,-0.2881 -0.9453,-0.4412 -0.9722,-0.4591 -1.6474,-1.1883 -2.0075,-2.2056 -0.2341,-0.6482 -0.4862,-1.2874 -0.7563,-1.9176 -0.4501,-1.0263 -1.0713,-1.9356 -1.9626,-2.6288 -0.045,-0.036 -0.09,-0.081 -0.135,-0.117 -0.126,-0.126 -0.171,-0.2611 -0.09,-0.4321 0.054,-0.1081 0.09,-0.2251 0.099,-0.3511 0.054,-0.6752 -0.072,-1.3144 -0.4321,-1.8906 -0.1441,-0.2341 -0.2071,-0.4861 -0.1891,-0.7562 0.018,-0.4321 0.036,-0.8643 0.045,-1.2964 0,-0.4501 -0.027,-0.9003 -0.252,-1.3054 -0.2881,-0.5221 -0.2971,-1.0533 -0.0721,-1.5935 0.1081,-0.261 0.2071,-0.5221 0.2791,-0.7922 0.081,-0.3241 0.0991,-0.6392 0.018,-0.9633 -0.108,-0.4231 -0.3421,-0.6032 -0.7832,-0.6212 -0.2611,0 -0.5132,0.036 -0.7652,0.0901 -0.5942,0.117 -1.1614,0.045 -1.7105,-0.1801 -1.4945,-0.6032 -3.133,-1.2064 -4.7715,-1.3864 -0.4951,-0.4141 -1.4134,-0.86426 -1.5754,-0.95429 -0.7382,-0.44113 -1.4945,-0.77423 -2.2957,-1.03531 -0.8463,-0.27908 -1.7285,-0.46813 -2.6198,-0.59417 -9.0567,-1.23337 -16.835,4.94247 -23.2449,10.47907 l -0.7382,-1.3053 h -1.5395 c -0.4231,-0.8913 -1.0983,-1.6835 -1.818501,-2.3317 -1.2603797,-1.1344 -2.7188097,-2.0076 -4.0421997,-3.0519 -0.3151,-0.2521 -0.54016,-0.5042 -0.70221,-0.7923 -0.3421,-0.6032 -0.27908,-1.18833 0.20706,-1.68348 0.70221,-0.72922 1.83654,-0.93628 2.79983,-0.72922 1.5034197,0.3241 3.6551207,2.8358 5.1045207,0.9903 0.2791,-0.36011 0.3601,-0.77423 0.2971,-1.17935 -0.2431,-1.64749 -2.0346,-2.43073 -3.448001,-2.86285 C 9.1671263,1.16132 7.4926363,0.99026996 5.8091363,1.40439 c -1.60248,0.39612 -3.11493,1.30539 -3.96118,2.75482 -0.63919,1.10733 -0.83725,2.47576 -0.45013,3.70006 0.38711,1.2424 1.3504,2.1157 2.23266,3.0159 0.55817,0.5672 1.09833,1.1614 1.61148,1.7736 0.18005,0.216 0.36911,0.4141 0.54916,0.6211 h -2.82684 v 10.4431 h 2.60178 v 19.1847 h -2.60178 v 10.2721 H 18.790957 v -10.2721 h -2.5747 v -5.1765 l 6.932,12.2887 6.9321,-12.2887 v 5.1765 h -2.5748 v 10.2721 h 15.8267 v -10.2721 h -2.6018 v -7.5352 c 0.5132,-0.018 0.9903,-0.1891 1.4225,-0.5492 0.234,-0.189 0.4231,-0.4141 0.5041,-0.7112 0.045,-0.153 0.1351,-0.27 0.2521,-0.3691 0.108,-0.09 0.2071,-0.171 0.3151,-0.2611 0.108,-0.099 0.198,-0.207 0.2701,-0.3331 0.162,-0.3241 0.054,-0.5311 -0.3061,-0.5671 -0.027,0 -0.027,0 -0.018,-0.036 0.036,-0.054 0.108,-0.0811 0.171,-0.1261 0.2521,-0.18 0.4952,-0.3781 0.6932,-0.6212 0.1261,-0.153 0.2341,-0.315 0.2701,-0.5221 0.054,-0.3151 -0.108,-0.4591 -0.4141,-0.3781 -0.099,0.027 -0.1891,0.099 -0.2881,0.054 0,-0.072 0.063,-0.099 0.099,-0.135 0.2251,-0.2521 0.4051,-0.5222 0.5492,-0.8283 0.09,-0.189 0.162,-0.3871 0.1891,-0.6032 0.027,-0.216 -0.0721,-0.2971 -0.2791,-0.2701 -0.1711,0.0271 -0.3421,0.0811 -0.5042,0.1351 -0.2521,0.081 -0.5041,0.108 -0.7652,0.063 -0.117,-0.018 -0.2341,-0.045 -0.3331,-0.144 0.171,-0.0721 0.3241,-0.1351 0.4681,-0.2071 0.1891,-0.099 0.3871,-0.162 0.6032,-0.1891 0.063,0 0.135,-0.027 0.1981,-0.045 0.189,-0.072 0.243,-0.189 0.162,-0.3781 -0.045,-0.108 -0.117,-0.189 -0.198,-0.2791 -0.5672,-0.5941 -1.2514,-0.8192 -2.0617,-0.7022 -0.3241,0.045 -0.8192,0.1441 -0.9993,-0.225 v -2.9709 c 0.0721,-0.2971 0.2701,-0.4141 0.7743,-0.4412 h 0.162 c 1.0353,0.0541 1.6925,1.1884 2.4217,1.7376 0.6752,0.5041 1.4225,0.7922 2.2597,0.8642 0.5852,0.045 1.1614,-0.018 1.7465,-0.081 0.4682,-0.054 0.8823,-0.1801 1.1704,-0.5942 0.108,-0.162 0.207,-0.144 0.3241,0.018 0.036,0.054 0.072,0.1171 0.108,0.1711 0.1441,0.2611 0.3151,0.5131 0.4772,0.7742 0.4051,0.6662 0.9902,1.1343 1.6835,1.4764 0.126,0.0631 0.261,0.1171 0.3961,0.1801 0.3151,0.135 0.5851,0.3421 0.7472,0.6392 0.3421,0.6032 0.8192,1.0623 1.3864,1.4494 0.3061,0.2071 0.6032,0.4321 0.9003,0.6572 0.261,0.1981 0.3961,0.4682 0.4141,0.8013 0,0.153 0.027,0.306 0.036,0.4501 0.018,0.3691 0.1621,0.6932 0.3781,0.9813 0.4051,0.5221 0.9453,0.8462 1.5755,1.0083 0.5672,0.144 1.0713,-0.063 1.4134,-0.5312 0.036,-0.054 0.072,-0.108 0.117,-0.171 0.0541,-0.0811 0.1261,-0.0991 0.2161,-0.0631 0.054,0.0271 0.108,0.0541 0.1621,0.0901 0.153,0.099 0.315,0.135 0.4951,0.099 0.4051,-0.063 0.6932,-0.2791 0.8733,-0.6482 0.171,-0.3511 0.198,-0.7112 0.117,-1.0893 -0.045,-0.1891 -0.009,-0.3421 0.09,-0.4952 0.081,-0.117 0.1441,-0.252 0.1891,-0.3871 0.108,-0.3421 0.072,-0.6752 -0.063,-0.9993 M 9.5812563,2.76379 c 0.045,-0.15304 0.117,-0.29708 0.1981,-0.43212 0.063,-0.10804 0.135,-0.16205 0.2249997,-0.18006 0.6932,0.19806 1.278401,0.37811 1.845601,0.64819 0.207,0.09903 0.3961,0.19806 0.5671,0.3151 0.018,0.02701 0.027,0.06302 0.0361,0.09002 0.045,0.20707 -0.4772,0.63019 -0.5762,0.80124 -0.2071,0.36011 -0.3331,0.77423 -0.3241,1.19736 0,0.02701 -0.594201,-0.27008 -0.954301,-0.46814 -0.09,-0.06302 -0.1891,-0.11704 -0.2881,-0.17105 0,-0.009 -0.018,-0.02701 -0.027,-0.03601 0.072,-0.09903 0.1801,-0.13504 0.2701,-0.19806 0.198,-0.13504 0.3871,-0.26108 0.5491,-0.44113 0.216101,-0.24307 0.324101,-0.51315 0.216101,-0.83725 -0.072,-0.19806 -0.189001,-0.24307 -0.369101,-0.12604 -0.099,0.06302 -0.1891,0.15305 -0.2881,0.22507 -0.189,0.14404 -0.3961,0.24307 -0.6482,0.22507 C 9.6352563,3.34897 9.4732263,3.1149 9.5812563,2.75479 M 42.441057,7.40017 c 1.2423,-0.126 2.4757,0.108 3.637,0.5312 0.1441,0.054 0.2971,0.117 0.3962,0.234 0.099,0.1171 0.126,0.3151 0.018,0.4232 -0.0901,0.09 -0.2341,0.09 -0.3601,0.09 -0.8643,-0.018 -1.7466,0.027 -2.5208,0.4051 -0.09,0.045 -0.3871,0.2431 -0.2701,0.3511 0.063,0.054 0.2611,0.027 0.3421,0.018 0.1711,0 0.3421,-0.018 0.5132,-0.036 0.3331,-0.027 0.6662,-0.072 0.9993,-0.099 0.6212,-0.036 1.2874,0.018 1.8005,0.3871 0.045,0.036 0.099,0.072 0.108,0.126 0.0541,0.1621 -0.18,0.2701 -0.3601,0.2701 -0.9903,0.045 -2.0796,-0.126 -2.8988,0.4411 -0.063,0.045 -0.1351,0.1171 -0.0991,0.1891 0.0271,0.063 0.1171,0.072 0.1891,0.072 1.0083,-0.027 2.0256,0.036 3.0249,0.1891 0.162,0.027 0.3601,0.117 0.3241,0.27 -0.045,0.1441 -0.2521,0.1351 -0.4051,0.0901 -0.1441,-0.045 -0.3691,-0.045 -0.3961,0.099 -0.009,0.063 0.018,0.126 0.054,0.1711 0.207,0.279 0.6031,0.3331 0.9453,0.315 0.3511,-0.018 0.7112,-0.081 1.0353,0.0361 0.198,0.072 0.3691,0.207 0.5761,0.225 0.2071,0.018 0.4502,-0.171 0.3691,-0.3601 -0.099,-0.2431 -0.5671,-0.189 -0.5941,-0.4411 -0.027,-0.2251 0.3061,-0.2701 0.5221,-0.2341 0.2791,0.045 0.5582,0.081 0.8373,0.1081 0.099,0.009 0.216,0.009 0.27,-0.0631 0.0901,-0.117 -0.027,-0.2791 -0.144,-0.3601 -0.5672,-0.4051 -1.3324,-0.3781 -1.9806,-0.6212 -0.099,-0.036 -0.2251,-0.117 -0.198,-0.225 0.018,-0.0901 0.126,-0.1261 0.216,-0.1441 0.5312,-0.072 1.0533,0.1621 1.5665,0.3241 0.045,0.018 0.108,0.027 0.153,0 0.1171,-0.054 0.054,-0.225 -0.036,-0.3241 -0.4681,-0.5311 -1.1163,-0.9002 -1.8185,-1.0173 -0.1261,-0.018 -0.2881,-0.063 -0.3151,-0.189 -0.027,-0.1351 0.117,-0.2431 0.2521,-0.2701 0.7202,-0.1531 1.3414,0.6752 2.0706,0.6032 0.2881,-0.027 0.5401,-0.1981 0.8102,-0.2971 0.2701,-0.099 0.6122,-0.1261 0.8103,0.09 0.171,0.1801 0.162,0.4681 0.117,0.7112 -0.099,0.5132 -0.3061,0.9993 -0.5132,1.4855 -0.189,-0.2071 -0.108,-0.5312 0,-0.7923 0.1171,-0.252 0.2701,-0.5221 0.1981,-0.7922 -0.027,-0.081 -0.072,-0.1621 -0.153,-0.1891 -0.1891,-0.063 -0.3151,0.1711 -0.4592,0.3061 -0.153,0.1531 -0.4141,0.1891 -0.6032,0.0901 0.0991,0.6211 0.3421,1.2153 0.6932,1.7375 0.2791,0.3961 0.6302,0.7832 0.6933,1.2783 -0.2431,-0.09 -0.5132,-0.099 -0.7563,-0.036 -0.117,0.036 -0.4141,0.2791 -0.5131,0.2431 -0.063,-0.018 -0.0901,-0.099 -0.072,-0.162 0.045,-0.1621 0.225,-0.2611 0.3691,-0.3331 0.144,-0.0721 0.3331,-0.2161 0.225,-0.3331 -0.027,-0.027 -0.054,-0.036 -0.09,-0.045 -0.4861,-0.1621 -1.0713,0.234 -1.0893,0.7472 -0.072,-0.0901 -0.1441,-0.1801 -0.2521,-0.2251 -0.108,-0.045 -0.2431,-0.009 -0.2881,0.099 -0.036,0.0901 0.009,0.1801 0.054,0.2701 0.2971,0.5582 0.5852,1.1163 0.8823,1.6745 0.072,0.1351 0.1801,0.2881 0.3241,0.2521 0.063,-0.018 0.117,-0.072 0.162,-0.117 0.1801,-0.1891 0.3602,-0.3872 0.5402,-0.5762 0.054,-0.054 0.108,-0.1171 0.1801,-0.1351 0.162,-0.036 0.297,0.1261 0.3151,0.2881 0.018,0.1621 -0.0451,0.3151 -0.0631,0.4772 -0.099,0.7022 0.5312,1.2783 0.6842,1.9716 0.1981,0.8822 -0.3871,1.7285 -0.9452,2.4397 -0.0991,0.126 -0.2791,0.2701 -0.4052,0.162 -0.081,-0.072 -0.063,-0.207 -0.018,-0.3061 0.1171,-0.2881 0.3511,-0.5041 0.5132,-0.7652 0.3691,-0.5852 0.3331,-1.4044 -0.081,-1.9536 -0.0271,-0.036 -0.0631,-0.072 -0.0991,-0.099 -0.171,-0.081 -0.3241,0.1801 -0.2881,0.3691 0.036,0.1891 0.1441,0.3871 0.0541,0.5672 -0.1171,0.225 -0.4412,0.198 -0.6842,0.135 -0.1801,-0.045 -0.3602,-0.09 -0.5402,-0.135 -0.2791,-0.072 -0.5672,-0.1351 -0.8553,-0.1171 -0.288,0.0271 -0.5851,0.1531 -0.7382,0.4052 -0.153,0.252 -0.09,0.6211 0.1621,0.7652 0.252,0.144 0.6392,-0.072 0.5941,-0.3601 0.2341,0 0.5492,0.081 0.5492,0.3151 0,0.162 -0.162,0.2971 -0.153,0.4591 0.009,0.2611 0.4321,0.3601 0.4321,0.6212 0,0.2071 -0.2611,0.2881 -0.4681,0.3241 -1.2334,0.18 -2.4668,0.3421 -3.7001,0.5041 -0.1081,0.018 -0.2251,0.0271 -0.3331,-0.009 -0.0991,-0.045 -0.1891,-0.162 -0.1531,-0.261 0.6572,0.036 1.3144,-0.036 1.9536,-0.2071 0.171,-0.045 0.3691,-0.2341 0.2341,-0.3421 -0.0541,-0.045 -0.1441,-0.036 -0.2161,-0.018 -0.7472,0.171 -1.5215,0.1981 -2.2777,0.081 -0.135,-0.018 -0.2881,-0.054 -0.3781,-0.162 -0.09,-0.1081 -0.063,-0.3151 0.081,-0.3421 0.063,-0.018 0.1351,0.018 0.1981,0.045 0.7652,0.3421 1.6745,0.3511 2.4487,0.036 0.1531,-0.063 0.3151,-0.2341 0.2071,-0.3511 -0.063,-0.072 -0.1801,-0.045 -0.2791,-0.018 -0.8373,0.2431 -1.8005,0.2431 -2.5028,-0.2701 -0.099,-0.072 -0.189,-0.171 -0.171,-0.2881 0.018,-0.108 0.153,-0.171 0.2611,-0.162 0.108,0.009 0.216,0.072 0.3061,0.126 0.6392,0.3601 1.4224,0.4591 2.1336,0.2791 0.126,-0.036 0.2791,-0.135 0.2251,-0.2521 -0.036,-0.099 -0.1711,-0.099 -0.2791,-0.09 -0.6842,0.063 -1.3864,-0.117 -1.9626,-0.4952 -0.036,-0.027 -0.072,-0.054 -0.099,-0.09 -0.063,-0.117 0.081,-0.2611 0.216,-0.2521 0.1351,0 0.2431,0.0991 0.3601,0.1801 0.4232,0.3061 0.9723,0.4231 1.4945,0.3241 0.099,-0.018 0.2701,-0.099 0.3061,-0.2071 0.09,-0.216 -0.2341,-0.144 -0.3601,-0.153 -0.3961,-0.045 -0.7833,-0.2521 -1.0263,-0.5672 -0.0991,-0.126 -0.1711,-0.2701 -0.3061,-0.3511 -0.2881,-0.189 -0.6572,-0.027 -0.9633,0.126 -0.7292,0.3602 -1.5305,0.6392 -2.3497,0.6212 -0.8193,-0.018 -1.6565,-0.3961 -2.0796,-1.0983 -0.1441,-0.2521 -0.2071,-0.6302 0.036,-0.7832 0.2611,-0.1621 0.5762,0.09 0.8102,0.2881 0.2431,0.198 0.5222,0.3511 0.8193,0.4591 0.18,0.063 0.3871,0.099 0.5671,0.027 0.1801,-0.072 0.3061,-0.2881 0.2251,-0.4591 -0.045,-0.0901 -0.135,-0.1441 -0.2161,-0.2071 -0.225,-0.153 -0.4231,-0.3331 -0.5941,-0.5402 -0.1171,-0.144 -0.2161,-0.3781 -0.0631,-0.4861 0.1531,-0.108 0.3421,0.063 0.4592,0.1981 0.3151,0.3601 0.7382,0.6392 1.1973,0.7922 0.1351,0.045 0.3151,0.063 0.4052,-0.054 0.072,-0.0991 0.027,-0.2611 -0.0631,-0.3421 -0.09,-0.09 -0.216,-0.1351 -0.3331,-0.1981 -0.225,-0.126 -0.5761,-0.7112 -0.099,-0.6482 0.3691,0.054 0.6572,0.4502 1.0353,0.5402 0.2431,0.054 0.5582,-0.036 0.7292,0.207 0.1081,0.1531 -0.018,0.2341 0.2341,0.1891 0.3781,-0.063 0.7112,-0.4951 1.1253,-0.2791 0.1711,0.09 0.3511,0.3061 0.5132,0.1891 0.081,-0.054 0.09,-0.1621 0.135,-0.2431 0.0811,-0.162 0.2521,-0.2611 0.4142,-0.3331 0.162,-0.072 0.3421,-0.153 0.4501,-0.2971 0.108,-0.144 0.099,-0.3871 -0.063,-0.4771 -0.1261,-0.063 -0.2971,-0.018 -0.3961,-0.1081 -0.0811,-0.072 -0.0811,-0.198 -0.0991,-0.306 -0.063,-0.3331 -0.3781,-0.5492 -0.6662,-0.7383 -0.5221,-0.3331 -1.0803,-0.6842 -1.7015,-0.7022 -0.3781,-0.009 -0.7742,0.1081 -1.1523,0.027 -0.081,-0.018 -0.1261,-0.045 -0.1171,0.0631 0,0.072 0.0541,0.144 0.0991,0.189 0.09,0.108 0.216,0.1891 0.3511,0.2341 0.234,0.081 0.4861,0.081 0.7382,0.126 0.5942,0.099 1.1433,0.4772 1.4494,0.9993 0.027,0.036 0.045,0.09 0.036,0.1351 -0.018,0.072 -0.108,0.09 -0.189,0.081 -0.3871,-0.036 -0.7022,-0.3241 -1.0263,-0.5402 -0.8103,-0.5401 -1.9086,-0.6212 -2.7909,-0.207 -0.198,0.09 -0.4681,0.207 -0.6211,0.036 -0.0631,-0.0721 -0.0811,-0.1801 -0.0901,-0.2791 -0.018,-0.6572 0.4142,-1.2424 0.8553,-1.7285 0.063,-0.0721 0.135,-0.1531 0.117,-0.2431 -0.036,-0.1711 -0.2881,-0.1621 -0.4501,-0.09 -0.6302,0.2701 -1.1974,0.6932 -1.6385,1.2243 -0.099,0.1171 -0.2701,0.2611 -0.3961,0.1621 -0.072,-0.063 -0.072,-0.1801 -0.045,-0.2701 0.117,-0.4951 0.4771,-0.8913 0.8732,-1.2064 0.3151,-0.252 0.6482,-0.4681 0.9543,-0.7382 0.09,-0.081 0.3241,-0.2521 0.081,-0.3061 -0.126,-0.027 -0.279,0.027 -0.3871,0.0721 -0.6122,0.27 -1.1883,0.6121 -1.7195,1.0083 -0.063,0.045 -0.189,0.117 -0.2701,0.09 -0.207,-0.072 0.2791,-0.6302 0.3601,-0.7112 0.2971,-0.3151 0.6572,-0.5492 1.0263,-0.7653 0.5762,-0.3241 1.1704,-0.6031 1.7916,-0.8282 -0.7202,-0.2521 -1.5125,-0.1891 -2.2777,-0.126 0.3151,-0.2971 0.9003,-0.4682 1.3324,-0.5222 0.054,0 0.108,-0.009 0.153,-0.018 m 9.2188,5.9688 c -0.027,0.099 -0.063,0.198 -0.1261,0.2881 -0.036,0.054 -0.081,0.099 -0.126,0.135 -0.009,0.009 -0.135,0.09 -0.135,0.045 0,-0.2161 0,-0.4231 -0.0901,-0.6392 -0.054,-0.126 -0.171,-0.198 -0.018,-0.2521 0.2881,-0.108 0.5762,0.0541 0.4952,0.4142 m -0.9003,0.7382 c -0.117,0 -0.2251,-0.063 -0.3061,-0.1441 -0.072,-0.081 -0.09,-0.189 -0.09,-0.297 0,-0.0721 0,-0.1351 0.009,-0.2071 0.018,-0.081 0.108,-0.1711 0.1801,-0.099 0.045,0.045 0.045,0.117 0.063,0.171 0.018,0.054 0.045,0.108 0.081,0.1621 0.054,0.081 0.117,0.153 0.189,0.216 0.0181,0.018 0.0361,0.036 0.0451,0.054 0.045,0.0901 -0.1081,0.1441 -0.1711,0.1441 z m 0.3871,6.815 c -0.063,0.1351 -0.243,0.3871 -0.3781,0.4411 0,-0.018 0,-0.027 0,-0.045 -0.072,-0.4231 -0.045,-0.8642 -0.135,-1.2874 0.243,0.0181 0.4861,0.0541 0.7202,0.1171 0.135,0.036 -0.063,0.4591 -0.1981,0.7652 m -0.7202,-0.9363 c -0.018,0.1441 -0.054,0.2881 -0.108,0.4322 -0.045,0.117 -0.1531,0.252 -0.2521,0.3421 -0.018,0.018 -0.054,0.036 -0.063,0.018 0,0 -0.009,-0.018 -0.009,-0.027 -0.009,-0.0361 -0.1351,-0.6392 -0.1531,-0.7923 0.1981,0 0.3962,0.009 0.5942,0.036 m -0.9903,2.1247 c 0.1261,0.216 0.2071,0.4591 0.2521,0.7022 -0.099,-0.027 -0.2071,-0.045 -0.3151,-0.054 -0.054,0 -0.117,-0.009 -0.171,-0.018 0.108,-0.1891 0.144,-0.4232 0.234,-0.6302 z m -0.2521,-1.2964 c -0.126,-0.2161 -0.135,-0.5672 -0.126,-0.8283 0.045,0 0.099,0 0.1441,-0.009 0.144,0 0.297,-0.009 0.4411,-0.018 -0.009,0.1081 -0.036,0.1981 -0.072,0.3151 0,0.027 -0.3061,0.6752 -0.3872,0.5402 z m -3.448,1.3684 c -0.189,-0.1261 -0.3331,-0.2881 -0.4951,-0.4501 -0.1261,-0.1171 -1.2784,-1.2334 -0.4862,-1.2154 0.0811,0 0.1261,0.027 0.1711,0.054 0.3421,0.2161 0.6122,0.2881 1.0173,0.1981 0.5131,-0.1171 1.3234,0.189 1.2604,0.8552 0,0.054 -0.027,0.1261 -0.0721,0.1441 -0.09,0.036 -0.135,-0.0901 -0.189,-0.2521 -0.3781,-1.2694 -1.0353,0.7652 -1.2064,0.6662 z m 1.1254,0.5762 c -0.0991,0.009 -0.1891,0.027 -0.2881,0.036 -0.072,0.009 -0.4502,0.054 -0.6842,0.135 0,-0.045 0.018,-0.099 0.018,-0.108 0.063,-0.2521 0.18,-0.4772 0.3061,-0.7022 0.117,-0.2161 0.225,-0.4412 0.3871,-0.6302 0.054,-0.063 0.126,0.2881 0.126,0.3061 0.036,0.198 0.09,0.4051 0.1081,0.6122 0,0.036 0.054,0.297 0.018,0.3511 m 0.5041,-0.7653 c 0.1621,0.2071 0.2521,0.4502 0.2521,0.6932 -0.1891,0.009 -0.3691,0.027 -0.5582,0.045 0.1261,-0.234 0.1981,-0.4951 0.3061,-0.7382 z m -0.3061,-1.6114 c 0,0 0,-0.0451 -0.009,-0.0721 0,0 0,-0.018 0,-0.027 0.3061,-0.063 0.6122,-0.117 0.9183,-0.171 0.036,0 0.072,0 0.108,0 -0.144,0 -0.2341,1.2063 -0.3331,1.3414 -0.3781,-0.1711 -0.6302,-0.6572 -0.6932,-1.0713 m 1.0353,1.6564 c 0,0 0.045,0.0631 0.072,0.1261 0.0721,0.162 0.1621,0.4231 0.2161,0.5131 -0.1891,0 -0.3781,0 -0.5582,0 0.0721,-0.117 0.2161,-0.5761 0.2791,-0.6392 m 0.1351,-1.9445 c 0,0 0,-0.018 0,-0.027 0.216,-0.0361 0.4231,-0.0631 0.6392,-0.0811 0,0.2161 -0.1081,0.4772 -0.1981,0.6482 -0.018,0.045 -0.1621,0.3511 -0.2251,0.2341 0,-0.009 -0.009,-0.018 -0.018,-0.027 -0.126,-0.2431 -0.171,-0.4772 -0.198,-0.7472 z m 0.5041,1.9445 c 0,0 0.063,0.0901 0.09,0.1441 0.0991,0.162 0.1981,0.3601 0.1981,0.5221 -0.153,-0.009 -0.3061,-0.027 -0.4591,-0.027 -0.027,0 0.153,-0.6121 0.171,-0.6392 z m -3.9432,-8.1114 c -0.306,-0.117 -0.5401,-0.2881 -0.7472,-0.4861 -0.072,-0.072 -0.063,-0.1441 0.009,-0.2071 0.1711,-0.144 0.3691,-0.234 0.6032,-0.252 0.09,0 0.135,0.018 0.135,0.117 -0.018,0.2701 -0.009,0.5311 0,0.8192 m 0.4592,0.1891 c 0.216,-0.1891 0.3331,-0.4501 0.3961,-0.7292 0,-0.018 0.027,-0.027 0.045,-0.018 0.1711,0.117 0.2791,0.261 0.3961,0.4051 0.072,0.099 0.045,0.189 -0.045,0.2611 -0.099,0.081 -0.216,0.126 -0.3331,0.135 -0.135,0.009 -0.2791,0.009 -0.4501,-0.045 m -6.3019,-8.69659 c 0.9543,0 1.9086,0.30609 2.5928,0.90029 -0.2161,0.018 -0.4682,0.072 -0.7292,0.126 -0.5942,0.126 -1.2514,0.2791 -1.7195,0.072 -0.8643,-0.3691 -1.6385,-0.57614 -2.5838,-0.66616 -0.036,0 -0.063,0 -0.099,0 0.8372,-0.24308 1.6384,-0.43213 2.5387,-0.44114 m -2.8989,3.1149 c 0.0091,-0.072 0.0271,-0.144 0.0541,-0.216 0.099,-0.3241 0.2971,-0.5402 0.5851,-0.6392 0.2071,-0.054 0.4412,-0.054 0.6842,-0.018 0.0541,0.018 0.1171,0.045 0.1711,0.072 0.18,0.09 0.3331,0.2071 0.4771,0.3421 0.2611,0.2521 0.5222,0.5131 0.7743,0.7652 0.171,0.1711 0.234,0.3601 0.171,0.6032 -0.054,0.1981 -0.18,0.2881 -0.3871,0.2701 -0.2521,-0.027 -0.4591,-0.1441 -0.6212,-0.3331 -0.09,-0.1081 -0.171,-0.2251 -0.2611,-0.3421 -0.108,-0.1261 -0.225,-0.2431 -0.3961,-0.2161 -0.198,0.036 -0.2791,0.1891 -0.3331,0.3601 -0.045,0.1351 -0.045,0.2791 -0.027,0.4231 0.054,0.4322 0.1981,0.8373 0.4231,1.2154 0.0991,0.1621 0.1891,0.3241 0.2881,0.4952 0.036,0.063 0.0901,0.135 0.027,0.207 -0.054,0.072 -0.135,0.063 -0.207,0.054 -0.1081,-0.018 -0.2161,-0.054 -0.3061,-0.099 -0.1711,-0.117 -0.3331,-0.2611 -0.4502,-0.3601 -0.036,-0.027 -0.063,-0.063 -0.099,-0.09 -0.036,-0.054 -0.081,-0.1081 -0.117,-0.1621 0,0 0,-0.009 0,-0.018 -0.054,-0.09 -0.099,-0.189 -0.1441,-0.2881 -0.27,-0.6482 -0.3961,-1.3144 -0.288,-2.0166 m -26.5579307,3.214 c 0.35113,0.09 0.6842297,0.2521 0.9813297,0.4861 0.216,0.1621 0.4411,0.3151 0.5671,0.5672 0.045,0.09 0.036,0.144 0,0.162 -0.108,0.0631 -0.4321,-0.072 -0.5221,-0.081 -0.3781,-0.045 -0.9182997,-0.072 -1.2964097,-0.036 -0.60318,0.072 -1.31439,0.2611 -1.90857,0.036 -0.55816,-0.207 0.50415,-0.7742 0.70221,-0.9002 0.45914,-0.2791 0.94528,-0.3872 1.47644,-0.2521 m -2.88086,-7.6883 c 0.06302,-0.24307 0.18906,-0.45914 0.36011,-0.64819 0.19806,-0.22507 0.39612,-0.44114 0.59418,-0.6572 0.15304,-0.18005 0.27008,-0.37811 0.32409,-0.61218 0.01801,-0.06302 0.04502,-0.12604 0.07202,-0.18906 0.02701,-0.05401 0.05402,-0.09903 0.09003,-0.12603 0.15305,0 0.31509,0 0.46814,0.018 0.08102,0 0.16205,0.01801 0.24307,0.02701 0.03601,0.03601 0.05402,0.07202 0.05402,0.11703 -0.08103,0.53116 -0.25208,0.9903 -0.54917,1.40442 -0.09902,0.13504 -0.20706,0.26108 -0.33309,0.37811 -0.10804,0.09903 -0.22507,0.18906 -0.36911,0.23407 -0.23407,0.03601 -0.47715,0.09903 -0.71121,0.17105 -0.03602,0.00901 -0.08103,0.01801 -0.11704,0.02701 -0.10803,0.02701 -0.16205,-0.02701 -0.13504,-0.13504 m -3.50204,-0.46814 c 0.43213,-0.44113 0.95428,-0.80124 1.56647,-1.07132 0.15304,-0.07202 0.31509,-0.13504 0.46813,-0.18905 0.08103,-0.01801 0.15305,-0.03601 0.23407,-0.04502 0.15305,-0.018 0.29709,-0.03601 0.45014,0 0.20706,0.06302 0.29709,0.19806 0.26108,0.40512 -0.02701,0.13504 -0.08103,0.26108 -0.14405,0.37812 -0.09903,0.19806 -0.20706,0.38711 -0.30609,0.58517 -0.12604,0.27008 -0.20706,0.54916 -0.23407,0.86426 -0.18005,-0.17105 -0.3331,-0.3331 -0.49514,-0.47714 -0.51316,-0.46814 -1.09833,-0.6482 -1.79154,-0.44114 v -0.018 m -0.64819,4.24924 c -0.12604,0.1891 -0.21606,0.2521 -0.30609,0.1801 -0.13504,-0.2971 -0.22507,-0.5942 -0.27008,-0.9093 -0.05402,-0.3601 -0.06302,-0.7202 -0.01801,-1.06231 0,-0.02701 0.01801,-0.05402 0.03601,-0.09003 0.15305,-0.36911 0.45014,-0.58517 0.82825,-0.6842 0.21606,-0.05402 0.45013,0.02701 0.43213,0.3331 -0.009,0.12604 -0.01801,0.26108 -0.01801,0.38711 0,0.17103 0.08103,0.23403 0.24308,0.19803 0.10803,-0.018 0.21606,-0.05398 0.32409,-0.08999 0.18906,-0.06302 0.37811,-0.10804 0.56717,-0.15305 0.07202,-0.01801 0.15305,-0.02701 0.22507,-0.009 0.12603,0.027 0.18005,0.10803 0.15304,0.23404 -0.04501,0.2251 -0.18905,0.3781 -0.40512,0.4412 -0.29709,0.09 -0.58517,0.207 -0.85525,0.3691 -0.36911,0.225 -0.69321,0.4861 -0.93628,0.8462 m 1.63849,1.7195 c -0.28809,0.1981 -0.6482,0.3871 -0.82825,-0.045 -0.09003,-0.2341 0,-0.6032 0.11704,-0.8102 0.28808,-0.4952 0.72021,-0.8283 1.26037,-1.0263 0.53116,-0.1891 1.03531,0.243 1.08932,0.7022 0.02701,0.2701 0.09903,0.5581 0.05402,0.7652 -0.04501,0.1981 -0.18906,0.3061 -0.56717,0.2431 -0.26108,-0.045 -0.51315,-0.027 -0.76523,0.018 -0.12603,0.027 -0.24307,0.09 -0.3511,0.162 m 1.39541,2.2147 c -0.17105,-0.1801 -0.38711,-0.3151 -0.53115,-0.5312 -0.07203,-0.108 -0.13504,-0.225 -0.12604,-0.3601 0.018,-0.234 0.20706,-0.3691 0.45013,-0.3421 0.12604,0.018 0.25208,0.036 0.37811,0.063 0.28809,0.0451 0.48615,-0.081 0.55817,-0.3601 0.03601,-0.126 0.05402,-0.252 0.05402,-0.3781 0,-0.153 0.027,-0.3061 0.05401,-0.4501 0.06302,-0.3151 0.29709,-0.4681 0.56717,-0.4141 0.31509,0.234 0.63019,0.4591 0.94528,0.6752 0.11704,0.081 0.23407,0.171 0.35111,0.252 0.018,0.0271 0.03601,0.0451 0.05401,0.0721 -0.06302,0.072 -0.14404,0.09 -0.22506,0.117 -0.80124,0.3151 -1.43143,0.8372 -1.88156,1.5755 -0.22507,0.3691 -0.35111,0.3871 -0.6572,0.072 m 36.6409207,32.4006 v 7.8683 h -13.423 v -7.8683 h 2.5747 v -10.8572 l -8.1294,14.4223 -8.1294,-14.4223 v 10.8572 h 2.5748 v 7.8683 H 4.1616463 v -7.8683 h 2.61077 v -21.5974 h -2.60177 v -8.0394 h 9.0477107 l 9.9299,17.6002 3.6011,-6.3829 c 0,0 0.009,0.027 0.018,0.036 0.1801,0.1441 0.4051,0.3421 0.6662,0.5582 l -4.2853,7.6073 -10.4521,-18.5275 H 5.0529063 v 6.2748 h 2.60178 v 23.353 h -2.60178 v 6.0948 H 16.702357 v -6.0948 h -2.5748 v -15.1245 l 9.0207,15.9977 8.8767,-15.7456 c 0.045,0.036 0.099,0.081 0.144,0.117 v 14.7464 h -2.5748 v 6.0948 h 11.6405 v -6.0948 h -2.5928 v -10.074 c 0.2881,0.108 0.5762,0.198 0.8823,0.2791 v 8.9126 h 2.6108 z m -5.9508,-12.8648 c 0.009,-0.2161 0.171,-1.0443 0.3961,-0.4862 0.2611,0.6572 0.5402,1.2424 0.8823,1.8276 0.099,0.162 0.189,0.3241 0.2971,0.4861 0.063,0.0991 0.126,0.2251 0.081,0.3331 -0.1891,0.018 -0.3601,-0.099 -0.5042,-0.216 -0.3331,-0.2611 -0.7742,-0.5312 -0.9993,-0.9003 -0.171,-0.2881 -0.171,-0.7202 -0.162,-1.0443 m 5.5546,3.2229 c -0.3241,0.1531 -0.6662,0.2521 -1.0263,0.2071 -0.243,-0.027 -0.3511,-0.108 -0.3601,-0.2701 0,-0.207 0.1621,-0.3961 0.3691,-0.4231 0.1081,-0.009 0.2071,0 0.3151,0.027 0.3151,0.081 0.6212,0.1801 0.9723,0.1981 -0.081,0.135 -0.171,0.207 -0.2701,0.252 m -0.6211,-0.7922 c -0.0541,-0.018 -0.1171,-0.045 -0.1621,-0.072 -0.2071,-0.1351 -0.2341,-0.3601 -0.054,-0.5402 0.171,-0.171 0.3871,-0.252 0.6392,-0.252 0.216,0 0.4231,0.054 0.6302,0.099 0.2791,0.054 0.5671,0.09 0.8822,0.126 -0.4771,0.6572 -1.1973,0.8913 -1.9265,0.6482 m 1.5664,-4.0332 c 0.3781,0.045 0.7562,0.045 1.1164,-0.126 0.063,-0.027 0.135,-0.072 0.189,-0.018 0.063,0.054 0.018,0.126 0,0.189 -0.2161,0.6392 -0.9633,1.1974 -1.6475,1.2154 -0.2521,0 -0.3961,-0.09 -0.4861,-0.3241 -0.0991,-0.2611 -0.0991,-0.5222 0,-0.7742 0.072,-0.1981 0.171,-0.2611 0.3871,-0.2341 0.153,0.018 0.2971,0.045 0.4501,0.072 m -0.9092,-1.6655 c 0.063,-0.072 0.144,-0.117 0.234,-0.126 0.5312,-0.027 1.0173,0.081 1.4044,0.4771 0.018,0.018 0.0361,0.045 0.0721,0.1081 -0.4502,0.063 -0.8283,0.216 -1.2244,0.3421 -0.2341,0.081 -0.4051,0.027 -0.5041,-0.1261 -0.1261,-0.189 -0.1171,-0.5401 0.009,-0.6842 m -0.2881,3.8712 c 0.126,-0.4592 0.3871,-0.6302 0.8552,-0.5582 0.3241,0.045 0.6392,0.108 0.9633,0.081 0.1531,-0.009 0.2971,-0.036 0.4501,-0.072 0.0451,-0.009 0.0901,-0.036 0.1351,0 0,0.108 -0.063,0.1981 -0.1351,0.2701 -0.5221,0.5491 -1.1703,0.8192 -1.9265,0.7832 -0.3241,-0.018 -0.4322,-0.189 -0.3511,-0.5041 m -0.4952,-3.259 c 0.054,0.045 0.099,0.108 0.1441,0.162 0.3871,0.5672 0.144,1.3595 0.036,1.9716 -0.1531,0.8373 -0.4142,1.6745 -0.9183,2.3767 -0.6032,0.8283 -1.4224,0.6122 -1.9266,-0.171 -0.8192,-1.2784 -0.216,-2.4848 0.7743,-3.448 -1.0804,-0.3601 -1.5845,0.7202 -2.0617,0.3331 -0.261,-0.2071 -0.7832,-0.9903 -0.9722,-1.7286 -1.0173,0.7383 -1.1794,1.9806 -0.9633,2.1247 -0.9903,-0.9183 -1.5485,-2.3407 -0.6752,-4.0602 -0.6302,-0.1801 -1.9716,0.135 -1.9446,1.2964 0,0.297 0.09,0.4861 0.126,0.7652 -0.198,-0.2161 -2.6918,-2.1697 -2.6107,-2.2327 0.9542,-0.7832 1.7555,-0.7832 2.6467,-0.8372 -0.6842,-0.4232 -1.3774,-0.9273 -1.9625,-1.4855 -0.9093,-0.8732 -1.1074,-2.4487 0.243,-2.9709 -0.117,0.0451 -0.054,0.9273 -0.027,1.0534 0.0991,0.4051 0.3691,0.7472 0.7112,0.9813 0.4862,0.3331 1.0533,0.4501 1.5485,0.7652 0.6842,0.4321 1.2514,1.0533 1.6025,1.7825 0.3781,-1.8725 -1.7375,-3.1599 -2.6648,-4.4833 -0.9273,-1.3234 -1.4765,-3.142 -1.3234,-4.7534 0.018,-0.1891 0.2881,-1.5125 0.3871,-1.5305 -0.8553,0.1711 -1.3864,1.2694 -1.5305,2.0346 -0.027,0.1261 -0.162,0.9273 -0.072,1.0083 -1.0713,-0.9993 -1.7015,-4.9425 0.7923,-8.4535 -2.0797,0.6932 -2.8989,3.1599 -3.0609,4.3573 -0.3782,-0.4411 -0.3962,-1.2874 -0.3782,-1.8185 -1.3954,2.1336 -0.9813,5.5456 -0.4141,7.9043 0.1351,0.5492 0.3151,1.1343 0.7472,1.5035 0.018,-0.6933 0.3511,-1.3775 0.8823,-1.8186 -0.2251,1.5575 -0.3691,3.5741 0.7382,4.8435 -2.9349,-1.1614 -4.1502,-4.4834 -4.3483,-7.8324 -0.4951,0.5942 -0.7202,2.5298 -0.5491,3.7721 0.153,1.1254 0.3331,1.8726 0.9452,3.358 -0.9902,-0.8192 -1.7645,-1.7825 -2.5837,-2.1516 0.2431,1.2604 0.5221,1.9086 0.6932,3.0249 0.198,1.2964 0.144,2.7638 -0.2431,4.0332 -0.036,-0.7562 -0.2521,-1.5485 -0.4501,-2.2777 -0.3871,-1.4314 -0.6752,-2.7728 -1.1524,-4.1772 -0.6031,-1.7735 -1.0533,-3.0339 -1.7375,-3.8262 -0.009,1.2064 -0.108,2.4128 -0.18,3.6281 -0.4772,-1.2063 -1.0984,-2.5927 -1.2964,-2.9709 -0.5672,-1.1163 -1.2154,-2.0436 -2.3677,-3.547 1.2243,0.018 2.1066,0.4231 3.2409,1.6115 -0.045,-1.1884 -0.4141,-1.9536 -0.7112,-2.3497 1.7195,0 3.0519,3.7901 3.43,5.5996 1.2964,-2.0526 1.1884,-5.8067 0.6032,-8.5885 1.1794,0.3331 1.7916,1.8455 2.0166,3.0249 0.1801,-0.1621 0.2791,-0.3961 0.3601,-0.6302 0.5582,-1.5755 0.7743,-3.1599 1.6835,-4.6184 0.6842,-1.0983 1.7195,-1.9626 2.8629,-2.5387 0.9993,-0.50418 2.2146,-0.98132 3.6731,-0.75626 -0.4232,0.08103 -0.9813,0.36016 -1.2424,0.51316 -0.4321,0.2521 -0.8733,0.6032 -1.1253,1.0443 0.252,-0.162 1.4854,-0.3781 1.7915,-0.4051 0.8643,-0.063 1.8546,-0.1261 2.6108,0.3601 -0.9363,0.2881 -2.1157,1.2874 -2.7548,2.0256 -0.8373,0.9633 -1.2424,2.2597 -1.4225,3.502 0.7833,-0.5221 1.5935,-1.0353 2.4758,-1.3774 0.8012,-0.3061 1.7195,-0.4951 2.5747,-0.3601 -0.9002,0.5312 -1.6565,1.1524 -2.2326,2.0256 -0.9813,1.5485 -1.5575,3.7901 -0.8463,5.5637 0.5762,1.4404 1.8636,2.4937 2.7728,3.7181 0.4412,0.6032 0.8463,1.2694 0.9993,2.0076 0.2071,1.0083 0.009,1.7285 -0.7382,2.4127 0.5402,0.5041 1.7916,0.2161 2.6828,0.2341 -0.081,0.3691 -0.2701,0.9542 -1.0173,1.0803 0.9363,0.7472 1.6925,0.2611 2.3227,0.135 0.4591,-0.09 1.0173,-0.045 1.3684,0.2791 m -1.8185,-2.0616 c 0,0 -0.036,0 -0.054,-0.009 -0.4502,-0.1801 -0.7022,-0.5132 -0.8193,-0.9813 -0.099,-0.4321 -0.117,-0.8553 0.063,-1.2604 0.0631,-0.144 0.1531,-0.2791 0.2971,-0.3601 0.2521,-0.144 0.5222,-0.009 0.5492,0.2791 0,0.027 0,0.063 0,0.09 0,0.7112 0,1.4224 -0.009,2.1337 0,0.036 0.009,0.072 -0.027,0.117 m 10.7582,-2.5748 c -0.3601,0.2791 -0.6212,0.6392 -0.9003,0.9813 -0.3961,0.4862 -0.9183,0.7112 -1.5305,0.7112 -0.6121,0 -1.2243,-0.036 -1.8275,-0.153 -0.6032,-0.1171 -1.0803,-0.4141 -1.4134,-0.9363 -0.1261,-0.2071 -0.2701,-0.4051 -0.4051,-0.6032 -0.8643,-1.2333 -2.8179,-1.2784 -3.5741,-2.4757 -0.2251,-0.3511 -0.5131,-0.6572 -0.6932,-1.0353 -0.018,-0.036 -0.045,-0.063 -0.072,-0.09 -0.054,-0.0541 -0.1171,-0.0721 -0.1891,-0.0541 -0.3511,0.1261 0.1261,1.3324 0.1981,1.5575 -0.2971,-0.081 -0.6482,-0.5222 -0.8463,-0.7472 -0.243,-0.2971 -0.4501,-0.6302 -0.6122,-0.9723 -0.3241,-0.6842 -0.5041,-1.4134 -0.6211,-2.1516 0,-0.0181 0,-0.0451 0,-0.0631 -0.018,-0.09 0,-0.207 -0.1261,-0.216 -0.108,-0.009 -0.144,0.099 -0.18,0.18 -0.1531,0.3511 -0.2431,0.7202 -0.2881,1.0893 -0.09,0.7383 -0.081,1.4855 -0.018,2.2237 0,0.027 0,0.063 0,0.09 -0.009,0 -0.018,0 -0.027,0 -0.036,-0.018 -0.063,-0.036 -0.0991,-0.054 0,0 -0.018,-0.018 -0.027,-0.027 -0.9272,-0.8102 -1.4854,-1.8545 -1.8815,-3.0069 -0.2431,-0.7022 -0.2161,-1.4134 -0.1621,-2.1336 0.018,-0.2251 0.045,-0.4411 0.0811,-0.6662 0.063,-0.2611 0.108,-0.5042 0.171,-0.7202 0.018,-0.054 0.036,-0.1171 0.054,-0.1711 0.2251,-0.6662 0.6122,-1.2243 1.0893,-1.7375 0.1171,-0.126 0.2431,-0.2521 0.3692,-0.3691 0.027,-0.027 0.054,-0.045 0.081,-0.063 0.09,-0.045 0.153,0 0.216,0.117 0.027,0.054 0.0361,0.117 0.0631,0.1711 0.063,0.18 0.135,0.3511 0.234,0.5131 0.1891,0.3061 0.4592,0.4502 0.8103,0.4411 0.3871,-0.009 0.7472,-0.126 1.0713,-0.3331 0.18,-0.117 0.207,-0.225 0.117,-0.4231 -0.036,-0.072 -0.072,-0.135 -0.117,-0.198 -0.3331,-0.4232 -0.3961,-0.9183 -0.3691,-1.4405 0.018,-0.279 0.135,-0.8102 0.3871,-0.9993 0,0 0.018,-0.009 0.027,-0.018 0,0.2251 0.018,0.4232 0.036,0.6122 0.045,0.4051 0.1351,0.7923 0.3061,1.1614 0.162,0.3511 0.3961,0.6482 0.7022,0.8822 0.2431,0.1891 0.4862,0.3871 0.7382,0.5582 0.2161,0.144 0.3691,0.3331 0.4051,0.6032 0.0271,0.18 -0.027,0.2881 -0.198,0.4141 -0.045,-0.054 -0.036,-0.126 -0.045,-0.1891 -0.045,-0.234 -0.2071,-0.3511 -0.4412,-0.3331 -0.108,0.009 -0.207,0.0541 -0.297,0.0991 -0.2431,0.126 -0.4502,0.2971 -0.6302,0.5131 -0.4772,0.5492 -0.7202,1.1974 -0.8103,1.9176 -0.099,0.8192 0.054,1.6025 0.3691,2.3497 0.0721,0.162 0.1531,0.3151 0.2611,0.4501 0.045,0.054 0.09,0.1351 0.1801,0.1081 0.09,-0.0271 0.09,-0.1081 0.099,-0.1891 0.027,-0.1981 0.054,-0.3871 0.081,-0.5852 0.009,-0.081 0.036,-0.153 0.072,-0.216 0.0631,-0.0991 0.1441,-0.0991 0.2161,0 0.036,0.045 0.063,0.108 0.072,0.162 0.0811,0.4231 0.2791,0.8012 0.4952,1.1614 0.09,0.144 0.171,0.288 0.2611,0.4321 0.036,0.054 0.072,0.117 0.117,0.162 0.126,0.1351 0.198,0.1171 0.2431,-0.054 0.027,-0.09 0.036,-0.18 0.054,-0.2701 0.135,-0.6212 0.4771,-1.1073 0.9813,-1.4764 0.3331,-0.2431 0.7112,-0.3331 1.1163,-0.3061 0.2521,0.018 0.3421,0.1891 0.2071,0.4051 -0.0811,0.1261 -0.1801,0.2251 -0.2791,0.3241 -0.2881,0.3151 -0.4952,0.6662 -0.5582,1.0893 -0.054,0.3511 0.054,0.6212 0.3421,0.8283 0.2341,0.162 0.4592,0.3511 0.6662,0.5582 0.3691,0.3601 0.6392,0.7832 0.8373,1.2603 0.081,0.2071 0.162,0.4232 0.279,0.6212 0.0991,0.1801 0.2251,0.3421 0.3962,0.4591 0.216,0.1531 0.4411,0.1981 0.6842,0.1081 0.4681,-0.1711 0.9542,-0.2431 1.4494,-0.2611 0.6842,-0.027 1.3594,-0.018 2.0436,0.072 0.1981,0.027 0.3871,0.072 0.5672,0.1621 0.099,0.054 0.108,0.099 0.027,0.171 m 0.3781,-1.0353 c -0.018,0.054 -0.036,0.108 -0.054,0.1531 0,0 0,0.018 -0.009,0.018 -0.009,0 -0.018,0 -0.027,0 -0.0991,-0.1081 -0.2341,-0.1801 -0.3781,-0.2251 0.126,-0.153 0.3691,-0.6212 0.3961,-0.6752 0,0 0,-0.009 0.009,-0.009 0,0 0.009,0 0.018,0 0.189,0.171 0.099,0.5312 0.045,0.7382 z m 6.4819,9.6779 c -0.3421,-0.045 -0.216,0.189 -0.171,0.6122 -0.6662,-0.1531 -0.4232,-1.0893 -0.2881,-1.5125 0.216,-0.6482 -0.1801,-1.0173 -0.6932,-1.3864 -0.4051,-0.2881 -0.9453,-0.4861 -1.1434,-0.9813 -0.216,-0.5311 -0.036,-1.1163 0.1801,-1.6205 -0.8373,-0.027 -2.2777,0.0451 -2.6018,-1.0173 -0.2881,-0.9633 1.2154,-0.5401 1.6295,-0.3421 -0.036,-1.2783 -1.6115,-1.5394 -2.5478,-1.4674 0.1261,-0.6212 1.0444,-0.7292 1.5575,-0.7562 -0.6032,-0.5222 -1.3594,-0.8013 -2.1606,-0.8013 0.081,-0.234 0.3961,-1.3324 -0.1981,-1.5754 -0.2251,-0.0901 -0.3601,0.4591 -0.4861,-0.009 -0.0901,-0.3421 0.4501,-0.5312 0.5041,-0.8373 0.054,0.1261 0.063,0.2971 0.1801,0.6122 0.045,0.126 0.189,0.1891 0.3151,0.135 0.3781,-0.171 0.7112,-0.8012 0.8822,-0.9362 0.054,-0.0361 0.1171,0.009 0.0991,0.072 -0.1891,0.5491 -0.4952,1.6835 -0.1621,2.1516 0.2251,-1.1253 1.4134,-2.4037 2.7908,-1.7915 -0.9633,0.3421 -1.4764,1.0443 -1.6745,1.4404 0.1171,-0.2341 2.7188,-0.063 1.0533,1.0803 0.4862,0.1441 1.0894,0.3781 1.5215,0 0.036,0.4052 -0.3241,0.7923 -0.3601,1.2064 -0.099,0.9183 0.7112,1.7555 1.4224,2.2147 -0.099,-0.4952 -0.153,-1.3144 0.3781,-1.5935 0.5222,-0.2791 1.3864,0.054 1.7375,0.4861 -0.3151,0.1261 -0.5671,0.1081 -0.9812,0.4051 -0.2881,0.2071 -0.3512,0.5222 -0.2971,0.8643 0.054,0.3421 0.216,0.6032 0.153,0.9633 -0.045,0.2791 -0.2161,0.4951 -0.099,0.7652 0.099,0.2341 0.3691,0.1891 0.207,0.5312 -0.144,0.2971 -0.5401,0.4411 -0.6932,0.7742 -0.3331,0.7382 0.2701,1.3504 0.5132,1.9986 0.198,0.5222 0.009,0.4501 -0.4141,0.3511 -0.0541,-0.009 -0.1081,-0.027 -0.1441,-0.027 m 2.0346,0.9363 c -0.153,0.243 -0.3781,0.3781 -0.6662,0.3511 -0.5131,-0.045 -0.9182,-0.2791 -1.1703,-0.7472 -0.018,-0.0361 -0.054,-0.0811 -0.027,-0.1351 0.108,-0.027 0.216,0.027 0.3241,0.036 0.288,0 0.5761,-0.045 0.8462,-0.117 0.1981,-0.045 0.3871,-0.027 0.5672,0.09 0.2071,0.1351 0.2521,0.3241 0.117,0.5222 m -0.9723,-4.7084 c 0,0 -0.09,0.018 -0.135,0.027 -0.018,0 -0.045,0 -0.081,-0.009 0.3061,-0.4141 0.225,-0.8643 0.153,-1.3144 -0.018,-0.09 -0.036,-0.1801 -0.045,-0.2701 -0.018,-0.1891 0.036,-0.2791 0.2251,-0.3331 0.279,-0.081 0.5491,-0.054 0.8102,0.099 0.135,0.0811 0.2071,0.1981 0.2161,0.3511 0,0.0811 0.009,0.1711 -0.018,0.2431 -0.1801,0.5852 -0.5312,1.0083 -1.1254,1.2064 z m 1.2424,0.099 c -0.054,0 -0.081,-0.036 -0.099,-0.081 -0.018,-0.045 -0.027,-0.09 -0.027,-0.1171 0.018,-0.135 0.036,-0.252 0.108,-0.3511 0.09,-0.135 0.171,-0.261 0.2791,-0.3871 0.144,-0.189 0.2701,-0.3781 0.3511,-0.6032 0.072,-0.198 0.162,-0.225 0.3511,-0.135 0.2431,0.117 0.4051,0.3061 0.5041,0.5582 0.018,0.045 0.027,0.09 0,0.126 -0.036,0.045 -0.081,0.018 -0.126,0.009 -0.072,-0.018 -0.144,-0.054 -0.2161,-0.072 -0.3241,-0.09 -0.5671,0.009 -0.7202,0.3061 -0.09,0.18 -0.171,0.3691 -0.2611,0.5581 -0.018,0.0451 -0.036,0.0811 -0.054,0.1261 -0.018,0.036 -0.045,0.063 -0.081,0.063 m 0.081,0.7472 c -0.027,-0.09 0.045,-0.135 0.1081,-0.18 0.252,-0.1711 0.3691,-0.4052 0.3961,-0.7022 0.009,-0.1081 0.036,-0.2251 0.072,-0.3331 0.081,-0.2611 0.2431,-0.3331 0.4861,-0.2251 0.2611,0.108 0.4052,0.3151 0.4232,0.5942 0.018,0.3151 -0.0991,0.5761 -0.3781,0.7382 -0.1261,0.072 -0.2701,0.099 -0.4052,0.135 -0.153,0.036 -0.3151,0.054 -0.4681,0.054 h -0.027 c -0.081,0 -0.1801,0.0271 -0.2071,-0.081 z m 1.2064,3.439 c -0.2341,0.2161 -0.5222,0.2431 -0.7832,0.0631 -0.1351,-0.0901 -0.2251,-0.1981 -0.3331,-0.3872 0.054,-0.018 0.09,-0.036 0.126,-0.036 0.3781,-0.081 0.6662,-0.279 0.8733,-0.5941 0.054,-0.0901 0.117,-0.1981 0.243,-0.1711 0.1351,0.027 0.1531,0.1621 0.1711,0.2701 0.045,0.3331 -0.027,0.6302 -0.2791,0.8642 m 0.4861,-2.0616 c -0.108,0.4142 -0.4141,0.6032 -0.8552,0.5582 -0.3241,-0.036 -0.5852,-0.1981 -0.7833,-0.4591 0.0721,-0.0721 0.1441,-0.0811 0.2071,-0.0991 0.2701,-0.108 0.5042,-0.261 0.6842,-0.5041 0.072,-0.108 0.1621,-0.1981 0.2701,-0.2701 0.1981,-0.126 0.3421,-0.081 0.4321,0.135 0.0901,0.2071 0.1081,0.4232 0.054,0.6392 m -21.9035,-16.934 c -0.5851,0.8193 -1.1703,1.6115 -1.2603,2.6378 0,0.072 -0.009,0.153 -0.036,0.2251 -0.0271,0.072 -0.0901,0.081 -0.1441,0.027 -0.2611,-0.2521 -0.3421,-0.7653 -0.3781,-1.0984 -0.2161,0.1441 -0.3961,0.4502 -0.5222,0.6752 -0.144,0.2431 -0.243,0.5042 -0.3241,0.7653 -0.153,0.4951 -0.288,1.0803 -0.3151,1.5934 -0.5221,-0.5761 -0.6121,-1.7555 -0.6211,-2.5117 0,-0.8823 0.153,-1.7825 0.5311,-2.5838 0.045,-0.108 0.0991,-0.207 0.1801,-0.2881 0.144,-0.162 0.243,-0.144 0.3421,0.0541 0.225,0.4411 0.2791,0.8822 0.8912,0.8552 0.4052,-0.018 0.8013,-0.2341 1.1344,-0.4501 0.099,-0.063 0.189,-0.1261 0.2881,-0.1711 0.09,-0.045 0.189,-0.072 0.27,0.018 0.0811,0.0901 0.0271,0.1891 -0.036,0.2701 m 9.2188,2.2327 c 0.063,0.144 0,0.2611 -0.1531,0.2971 -0.153,0.036 -0.3061,0.027 -0.4501,-0.009 -0.4411,-0.1081 -0.8102,-0.3241 -1.0353,-0.7383 -0.018,-0.027 -0.027,-0.054 -0.018,-0.09 0.126,0 0.198,0.099 0.2791,0.1711 0.108,0.081 0.216,0.171 0.3421,0.207 0.144,0.045 0.2971,0.063 0.4501,0.018 0.117,-0.036 0.2341,-0.045 0.3601,-0.018 0.108,0.018 0.1801,0.081 0.2161,0.1801"
     fill="#003087"
     id="path3" />
  <path
     d="m 45.943357,50.35207 c 0,-0.9543 0.7742,-1.7195 1.7195,-1.7195 0.9453,0 1.7195,0.7652 1.7195,1.7195 0,0.9543 -0.7652,1.7195 -1.7195,1.7195 -0.9543,0 -1.7195,-0.7742 -1.7195,-1.7195 z m 0.2341,0 c 0,0.8102 0.6662,1.4854 1.4854,1.4854 0.8193,0 1.4855,-0.6752 1.4855,-1.4854 0,-0.8102 -0.6662,-1.4854 -1.4855,-1.4854 -0.8192,0 -1.4854,0.6572 -1.4854,1.4854 z m 1.9536,0.9903 -0.5132,-0.7832 h -0.3601 v 0.7832 h -0.2611 v -1.9716 h 0.8013 c 0.3331,0 0.6211,0.2341 0.6211,0.6032 0,0.4411 -0.3871,0.5852 -0.5041,0.5852 l 0.5311,0.7922 h -0.324 z m -0.8643,-1.7375 v 0.7112 h 0.5402 c 0.171,0 0.3601,-0.144 0.3601,-0.3511 0,-0.2161 -0.1891,-0.3691 -0.3601,-0.3691 h -0.5402 z"
     fill="#ffffff"
     id="path4" />
</svg>
