<?xml version="1.0" encoding="UTF-8" standalone="no"?>
<svg
   width="88.871964"
   height="64"
   viewBox="0 0 88.871964 64"
   fill="none"
   version="1.1"
   id="svg3"
   sodipodi:docname="MICH.svg"
   inkscape:version="1.4 (86a8ad7, 2024-10-11)"
   xmlns:inkscape="http://www.inkscape.org/namespaces/inkscape"
   xmlns:sodipodi="http://sodipodi.sourceforge.net/DTD/sodipodi-0.dtd"
   xmlns="http://www.w3.org/2000/svg"
   xmlns:svg="http://www.w3.org/2000/svg">
  <defs
     id="defs3" />
  <sodipodi:namedview
     id="namedview3"
     pagecolor="#ffffff"
     bordercolor="#000000"
     borderopacity="0.25"
     inkscape:showpageshadow="2"
     inkscape:pageopacity="0.0"
     inkscape:pagecheckerboard="0"
     inkscape:deskcolor="#d1d1d1"
     inkscape:zoom="9.1796875"
     inkscape:cx="33.00766"
     inkscape:cy="32.517447"
     inkscape:window-width="2274"
     inkscape:window-height="1211"
     inkscape:window-x="26"
     inkscape:window-y="26"
     inkscape:window-maximized="0"
     inkscape:current-layer="svg3" />
  <path
     d="M 87.400364,17.5852 V 1.47119 h -24.7615 c 0,0 -16.1002,22.30261 -18.1999,25.21041 -2.0997,-2.9078 -18.1999,-25.21041 -18.1999,-25.21041 H 1.470704 V 17.5852 h 6.67213 V 46.408 h -6.67213 v 16.1139 h 31.46816 V 46.408 h -7.1211 V 25.6318 c 4.013,5.5186 18.6143,25.5972 18.6143,25.5972 0,0 14.6082,-20.0786 18.6143,-25.5972 V 46.408 h -7.1211 v 16.1139 h 31.4682 V 46.408 h -6.6791 V 17.5852 h 6.6791 z"
     fill="#ffcf01"
     id="path1" />
  <path
     d="M 87.400864,1.47118 V 17.5851 h -6.6722 v 28.8228 h 6.6722 v 16.114 h -31.4682 v -16.114 h 7.1211 V 25.6318 c -4.013,5.5186 -18.6143,25.5972 -18.6143,25.5972 0,0 -14.6013,-20.0786 -18.6143,-25.5972 v 20.7761 h 7.1211 v 16.114 H 1.471184 v -16.114 h 6.67214 V 17.5921 H 1.471184 V 1.47118 h 24.76148 c 0,0 16.1002,22.30262 18.1999,25.21042 2.0997,-2.9078 18.1999,-25.21042 18.1999,-25.21042 h 24.7614 z M 44.439464,24.1606 C 40.785664,19.1047 26.985564,0 26.985564,0 H 0 V 19.0632 H 6.672134 V 44.9368 H 0 V 64 H 34.410564 V 44.9368 h -7.1211 V 30.1697 c 5.7535,7.9153 17.1431,23.5665 17.1431,23.5665 0,0 11.3896,-15.6512 17.1431,-23.5665 v 14.7671 h -7.1211 V 64 h 34.4174 V 44.9368 h -6.6721 V 19.0632 h 6.6721 V 0 h -26.9855 c 0,0 -13.7932,19.1047 -17.447,24.1675"
     fill="#0d2345"
     id="path2" />
</svg>
