<?xml version="1.0" encoding="UTF-8" standalone="no"?>
<svg
   width="199.5976"
   height="181.27846"
   viewBox="0 0 199.5976 181.27846"
   version="1.1"
   id="svg1"
   sodipodi:docname="MISS.svg"
   inkscape:version="1.4 (86a8ad7, 2024-10-11)"
   xmlns:inkscape="http://www.inkscape.org/namespaces/inkscape"
   xmlns:sodipodi="http://sodipodi.sourceforge.net/DTD/sodipodi-0.dtd"
   xmlns="http://www.w3.org/2000/svg"
   xmlns:svg="http://www.w3.org/2000/svg"
   xmlns:rdf="http://www.w3.org/1999/02/22-rdf-syntax-ns#"
   xmlns:cc="http://creativecommons.org/ns#"
   xmlns:dc="http://purl.org/dc/elements/1.1/">
  <defs
     id="defs1" />
  <sodipodi:namedview
     id="namedview1"
     pagecolor="#ffffff"
     bordercolor="#000000"
     borderopacity="0.25"
     inkscape:showpageshadow="2"
     inkscape:pageopacity="0.0"
     inkscape:pagecheckerboard="0"
     inkscape:deskcolor="#d1d1d1"
     inkscape:zoom="5.875"
     inkscape:cx="100.08511"
     inkscape:cy="90.638298"
     inkscape:window-width="3440"
     inkscape:window-height="1377"
     inkscape:window-x="-8"
     inkscape:window-y="-8"
     inkscape:window-maximized="1"
     inkscape:current-layer="svg1" />
  <!-- Generator: Sketch 54.1 (76490) - https://sketchapp.com -->
  <title
     id="title1">ole-miss</title>
  <desc
     id="desc1">Created with Sketch.</desc>
  <g
     id="g1"
     stroke="none"
     stroke-width="1"
     fill="none"
     fill-rule="evenodd"
     transform="translate(0,-9.362942)">
    <g
       id="ole-miss_BGL">
      <g
         id="ole-miss"
         transform="translate(0,9)">
        <g
           id="g10"
           transform="matrix(1,0,0,-1,0,181.6414)"
           fill-rule="nonzero">
          <g
             id="g12">
            <path
               d="m 117.62599,59.755955 c -0.53189,-1.531648 -0.81733,-3.423826 0.11408,-4.874609 0.70373,-1.320818 2.22912,-2.200722 3.60915,-2.693622 1.66161,-0.28592 3.80361,-0.441396 5.18267,0.512636 2.08664,1.765583 3.54705,4.670036 2.59302,7.263537 -0.84381,2.018292 -3.18364,2.927558 -5.40987,3.005055 -2.56414,0.103971 -4.93045,-1.06426 -6.08905,-3.212997"
               id="path14"
               fill="#e51636" />
            <path
               d="m 170.49193,16.727412 c -1.80457,0.960626 -3.83586,1.427485 -6.0852,1.350036 4.11216,4.718701 6.90013,9.931167 9.46378,15.240481 1.10036,-1.479615 0.56511,-3.91379 1.01902,-5.595138 -0.17185,-4.154031 -1.97305,-7.776173 -4.3976,-10.995379 z m -30.77352,12.443225 c -0.75909,-4.069843 -2.33358,-7.802166 -4.28111,-11.404573 l -0.56462,-0.415932 c -1.77184,0.986763 -3.55042,1.895499 -5.86089,1.662142 l -0.22431,0.207413 c 3.97256,4.69314 7.8349,9.434993 10.47942,14.617568 0.99014,-1.142286 0.48039,-3.164332 0.45151,-4.666618 z m 56.24741,-7.153309 c -0.3408,0.908736 -1.38243,1.194176 -2.36919,1.142623 -3.91721,-1.869506 -4.73213,-6.640529 -8.2272,-9.126209 -1.83057,-1.142816 -4.08616,-3.161492 -6.1988,-1.758797 3.01468,3.36828 4.95548,7.175259 6.53622,11.089579 2.142,6.169531 0.9574,13.374344 -0.90204,19.180409 -0.87317,3.605776 1.49266,6.741227 2.59302,9.954223 -0.19832,0.879423 -0.39615,1.758845 -1.23995,2.38219 -2.33647,0.960289 -5.69242,1.81757 -7.88929,0 -8.56847,-8.470757 -13.66691,-18.921299 -19.49892,-28.61237 -3.38532,-4.251648 -5.89121,-9.256173 -10.82407,-12.443224 -1.26546,-0.415307 -2.61901,-1.550807 -3.93983,-0.934826 2.70325,2.362888 4.64405,5.10864 6.19543,8.090927 3.86185,7.026762 0.93189,15.471576 -0.11023,22.809722 -1.04212,3.832876 1.83008,6.864019 1.46378,10.573767 -1.44116,1.629362 -3.77762,2.047653 -6.0852,1.658243 -7.07533,-2.151625 -9.01901,-9.25574 -13.07629,-14.202166 -6.62094,-9.541805 -13.32948,-19.492707 -22.9911,-27.683706 -0.67822,-0.364043 -1.72322,-0.260024 -2.25848,0.311384 -0.75957,1.505704 -0.53574,3.913742 0.2272,5.497521 2.76149,6.397015 7.04548,12.332996 11.15764,18.142478 1.66498,3.472443 6.03032,5.907052 5.30012,10.054344 -0.5651,0.856799 -1.66498,1.428159 -2.7071,1.661613 -1.97305,0.383153 -4.31288,0.331648 -5.74778,-1.142238 -8.87605,-7.208231 -15.07821,-16.43509 -19.050778,-26.126161 -1.012756,-2.46633 -1.519134,-5.108111 -3.041155,-7.360674 -1.239952,-0.571408 -2.508785,-1.142238 -4.060169,-1.038267 -0.587244,0.363466 -0.704211,1.116101 -0.788447,1.765584 1.298195,7.386233 4.650782,13.994223 8.230565,20.524187 5.014204,10.52515 12.819734,19.77805 18.145844,30.065896 2.03129,3.706378 5.6337,6.711913 6.42215,10.989169 -0.19447,2.541516 -1.9408,4.511191 -3.82961,6.426474 -1.54753,1.479663 -4.05968,1.999037 -6.08808,1.142238 -9.8633,-6.348495 -17.8633,-15.50036 -26.373047,-23.536461 3.605776,5.497954 7.185559,10.91456 10.482791,16.487123 1.265945,1.915283 -0.704211,3.472924 -1.804572,4.77112 -2.31047,2.58965 -6.172804,3.316967 -9.467148,2.177617 -6.79278,-3.891216 -11.722262,-9.953791 -16.908784,-15.451745 -0.139591,0.02599 -0.363418,-0.07798 -0.451023,0.107341 1.492659,4.274368 3.806979,9.122984 1.918171,13.783393 l -1.467148,1.45367 c -6.085199,3.581709 -14.429362,1.009868 -20.17728,-1.762214 l -0.334152,0.204573 c 0.645872,0.50012 0.587437,1.246691 0.898965,1.869554 -0.139494,0.623346 -0.506137,0.983394 -1.239855,1.038749 -4.81627,-1.402166 -9.239808,-3.940313 -13.523947,-6.322503 -1.492948,-1.093622 -3.832924,-2.570397 -4.170445,-4.459206 -0.64905,-3.602406 -0.139543,-7.545607 2.589891,-10.268591 1.045199,-0.545367 2.622383,-0.74994 3.722696,-0.204573 5.296702,3.550421 10.875668,7.078219 16.68178,10.154994 1.577377,0.60361 2.875572,1.794945 4.731649,1.768953 0.619976,-0.159327 0.565102,-0.78219 0.678219,-1.243322 L 53.26835,65.665943 C 44.868928,49.831046 37.995089,33.447845 29.48539,17.662093 l -0.451263,-3.109602 c 0.366835,-4.069651 1.4929,-8.1129725 4.848808,-10.7810543 1.070999,-0.2340938 2.391865,-0.5781853 3.268255,0.3113695 3.719182,8.7108878 8.678364,16.9742808 12.848809,25.5028008 6.059205,10.109603 12.170878,20.109217 20.852466,29.02811 l 0.561252,0.103971 C 67.976894,51.797833 64.202164,45.002069 60.48279,38.186666 57.325149,30.984885 52.619012,24.376895 50.674848,16.727412 50.532369,12.170974 51.070997,7.2698434 54.394222,3.8748495 c 0.847172,-0.6815981 2.0284,-0.8827822 3.158123,-0.6229314 2.674368,2.1002358 3.466185,5.2611503 5.183153,7.8802119 1.976414,4.147821 4.112154,8.214103 6.425992,12.232394 7.071962,11.252082 14.033213,22.727894 24.233935,32.347629 h 0.334537 C 93.252465,54.647411 92.746568,53.560528 92.269071,52.499156 87.618289,44.593116 83.13646,36.608952 79.417086,28.342719 76.515522,21.991383 72.796147,15.82527 74.233933,8.3344402 c 0.337425,-2.6190132 2.70373,-4.2775787 5.069555,-5.4978723 6.286883,-2.17753543 11.411311,2.1809049 16.344644,4.6666329 1.184116,-2.2811552 3.297233,-4.4846257 6.195428,-4.8745895 7.3574,-0.700775 13.84212,3.031557 18.37593,7.8805577 3.26498,-3.4987721 7.01998,-6.0629068 11.60915,-7.0492942 8.84717,-1.6292467 17.3858,1.4214729 24.46113,5.3907146 3.85896,-3.4984355 8.50637,-6.0659156 13.75114,-6.9455064 7.04308,-0.022561 13.61155,1.0614103 18.82359,5.0793693 3.4373,4.6116967 7.72129,8.8894827 7.10132,15.0328757 z"
               id="path16"
               fill="#e51636" />
            <path
               d="m 80.020696,159.26594 c -1.015644,-10.93718 -6.903008,-20.26955 -12.848616,-29.44645 -0.396149,-0.51745 -1.016125,-1.08736 -1.577377,-1.45078 2.281589,11.14657 8.253189,21.20144 14.425993,30.89723 z m 13.413718,-28.30373 c 1.265945,0.9343 2.505415,1.94368 3.832972,2.69507 0.759086,0 1.155235,-0.59687 1.126354,-1.24477 -1.181227,-4.27581 -3.972563,-8.03225 -7.548977,-11.3006 -1.606739,-1.24284 -3.161492,-3.08159 -5.186522,-3.62695 0.447653,5.31456 3.719374,9.82093 7.776173,13.47725 z M 59.058001,94.777856 c 7.919133,-1.711673 13.806498,3.865703 19.27509,7.985554 2.761973,-2.28303 5.491696,-5.13405 9.126353,-5.70541 6.146811,-1.81083 9.697714,3.39639 13.303486,6.84477 2.0544,3.08303 5.7473,6.8154 3.15476,10.3663 -3.01565,0.62431 -4.115526,-2.90156 -6.089052,-4.2503 -2.420698,-1.8142 -4.449579,-5.72804 -8.003369,-5.08063 -1.606258,0.64886 -2.84621,2.20698 -2.813478,3.83635 9.213959,5.67268 18.453909,13.45222 21.079659,23.63802 0.55788,3.78773 0.89868,8.32154 -3.04789,10.67918 -4.98821,2.5935 -10.398556,-0.10204 -14.539591,-2.4876 -11.187485,-7.4917 -17.159085,-18.71336 -16.458243,-31.2053 -2.16799,-1.84308 -4.735018,-4.7947 -7.776173,-3.31985 -2.901564,1.63369 -2.453429,5.31263 -2.141997,7.98219 13.105174,12.23538 20.936702,27.39831 26.038507,43.13068 1.437785,6.71529 4.368712,13.50325 2.252707,20.52804 -2.142479,2.04765 -6.423104,1.47822 -8.902527,0.10205 -7.834416,-6.42744 -12.738387,-14.87894 -17.24669,-23.01372 -6.873646,-13.79013 -14.315764,-27.37232 -15.217809,-43.44067 0.340794,-6.40048 1.015643,-13.892663 8.006257,-16.589654 z"
               id="path18"
               fill="#e51636" />
            <path
               d="m 20.167508,105.3521 c -5.971696,2.82503 -3.803754,10.11119 -3.492178,15.24381 1.324236,9.7444 5.046595,18.58387 8.568183,27.47292 1.012515,1.76269 1.661564,3.65439 3.040915,5.28857 1.525294,-0.51938 3.242166,-1.1923 4.959229,-0.62479 5.608087,3.21829 7.750084,9.33285 14.091841,11.8219 0.872924,0.0501 0.983153,-0.80482 0.902287,-1.45078 -0.168809,-9.72178 -4.283947,-18.19591 -6.766835,-27.16487 -3.436968,-9.69434 -7.101035,-19.30878 -13.523995,-27.89169 -2.002696,-1.99422 -4.705945,-3.49507 -7.779447,-2.69507 z m 33.136462,23.94994 c 2.709988,8.37497 6.030324,16.4852 7.558604,25.29675 0.363417,4.02118 1.262575,8.2195 0.110228,12.02648 -0.564621,2.07557 -3.01805,3.08784 -4.958844,3.63176 0.873164,0.82744 1.940794,1.65825 2.479422,2.7976 0.451504,1.27027 -0.197834,2.38171 -1.239952,3.21299 -5.101805,2.62046 -11.81006,4.14922 -17.807749,2.28304 C 17.379494,168.88086 7.7729962,146.79855 3.8263393,126.40048 1.4863489,118.44284 0.38940264,107.68712 5.8549698,100.58435 10.843321,95.607218 18.70373,93.870996 26.032057,95.295786 42.68462,100.19494 47.64385,116.29073 53.30397,129.30204 Z"
               id="path20"
               fill="#e51636" />
            <path
               d="M 188.8645,6.9844523 C 183.65246,2.9664933 177.08399,1.8825222 170.04091,1.905083 164.79614,2.7846738 160.14873,5.3521539 156.28977,8.8505894 149.21444,4.8813477 140.67581,1.8306281 131.82864,3.4598748 127.23947,4.4462622 123.48447,7.0103969 120.21949,10.509169 115.68568,5.6601683 109.20096,1.9278363 101.84356,2.6286113 98.945365,3.0185751 96.832248,5.2220456 95.648132,7.5032008 90.714799,5.0174728 85.590371,0.65903247 79.303488,2.8365679 76.937663,4.0568615 74.571358,5.715427 74.233933,8.3344402 72.796147,15.82527 76.515522,21.991383 79.417086,28.342719 c 3.719374,8.266233 8.201203,16.250397 12.851985,24.156437 0.477497,1.061372 0.983394,2.148255 1.460891,3.212997 H 93.395425 C 83.194703,46.092418 76.233452,34.616606 69.16149,23.364524 66.847652,19.346233 64.711912,15.279951 62.735498,11.13213 61.01853,8.5130684 60.226713,5.3521539 57.552345,3.2519181 56.422622,2.9920673 55.241394,3.1932514 54.394222,3.8748495 51.070997,7.2698434 50.532369,12.170974 50.674848,16.727412 c 1.944164,7.649483 6.650301,14.257473 9.807942,21.459254 3.719374,6.815403 7.494104,13.611167 10.930927,20.531022 L 70.852465,58.613717 C 62.170877,49.694824 56.059204,39.69521 49.999999,29.585607 45.829554,21.057087 40.870372,12.793694 37.15119,4.0828062 36.2748,3.1932514 34.953934,3.5373429 33.882935,3.7714367 30.527027,6.4395185 29.400962,10.48284 29.034127,14.552491 l 0.451263,3.109602 c 8.509699,15.785752 15.383538,32.168953 23.78296,48.00385 l 3.832491,9.95379 c -0.113117,0.461132 -0.05824,1.083995 -0.678219,1.243322 -1.856077,0.02599 -3.154272,-1.165343 -4.731649,-1.768953 -5.806112,-3.076775 -11.385078,-6.604573 -16.68178,-10.154994 -1.100313,-0.545367 -2.677497,-0.340794 -3.722696,0.204573 -2.729434,2.722984 -3.238941,6.666185 -2.589891,10.268591 0.337521,1.888809 2.677497,3.365584 4.170445,4.459206 4.284139,2.38219 8.707677,4.920337 13.523947,6.322503 0.733718,-0.05535 1.100361,-0.415403 1.239855,-1.038749 -0.311528,-0.622863 -0.253093,-1.369434 -0.898965,-1.869554 l 0.334152,-0.204573 c 5.747918,2.772082 14.092081,5.343923 20.17728,1.762214 l 1.467148,-1.45367 c 1.888808,-4.660409 -0.425512,-9.509025 -1.918171,-13.783393 0.0876,-0.185319 0.311432,-0.08135 0.451023,-0.107341 5.186522,5.497954 10.116004,11.560529 16.908784,15.451745 3.294344,1.13935 7.156678,0.412033 9.467148,-2.177617 1.100361,-1.298196 3.070517,-2.855837 1.804572,-4.77112 C 92.126592,72.42936 88.546809,67.012754 84.941033,61.5148 c 8.509747,8.036101 16.509747,17.187966 26.373047,23.536461 2.0284,0.856799 4.54055,0.337425 6.08808,-1.142238 1.88881,-1.915283 3.63514,-3.884958 3.82961,-6.426474 -0.78845,-4.277256 -4.39086,-7.282791 -6.42215,-10.989169 C 109.48351,56.205534 101.67798,46.952634 96.663776,36.427484 93.083993,29.89752 89.731406,23.28953 88.433211,15.903297 c 0.08424,-0.649483 0.201203,-1.402118 0.788447,-1.765584 1.551384,-0.103971 2.820217,0.466859 4.060169,1.038267 1.522021,2.252563 2.028399,4.894344 3.041155,7.360674 3.972568,9.691071 10.174728,18.91793 19.050778,26.126161 1.4349,1.473886 3.77473,1.525391 5.74778,1.142238 1.04212,-0.233454 2.142,-0.804814 2.7071,-1.661613 0.7302,-4.147292 -3.63514,-6.581901 -5.30012,-10.054344 -4.11216,-5.809482 -8.39615,-11.745463 -11.15764,-18.142478 -0.76294,-1.583779 -0.98677,-3.991817 -0.2272,-5.497521 0.53526,-0.571408 1.58026,-0.675427 2.25848,-0.311384 9.66162,8.190999 16.37016,18.141901 22.9911,27.683706 4.05728,4.946426 6.00096,12.050541 13.07629,14.202166 2.30758,0.38941 4.64404,-0.02888 6.0852,-1.658243 0.3663,-3.709748 -2.5059,-6.740891 -1.46378,-10.573767 1.04212,-7.338146 3.97208,-15.78296 0.11023,-22.809722 -1.55138,-2.982287 -3.49218,-5.728039 -6.19543,-8.090927 1.32082,-0.615981 2.67437,0.519519 3.93983,0.934826 4.93286,3.187051 7.43875,8.191576 10.82407,12.443224 5.83201,9.691071 10.93045,20.141613 19.49892,28.61237 2.19687,1.81757 5.55282,0.960289 7.88929,0 0.8438,-0.623345 1.04163,-1.502767 1.23995,-2.38219 -1.10036,-3.212996 -3.46619,-6.348447 -2.59302,-9.954223 1.85944,-5.806065 3.04404,-13.010878 0.90204,-19.180409 -1.58074,-3.91432 -3.52154,-7.721299 -6.53622,-11.089579 2.11264,-1.402695 4.36823,0.615981 6.1988,1.758797 3.49507,2.48568 4.30999,7.256703 8.2272,9.126209 0.98676,0.05155 2.02839,-0.233887 2.36919,-1.142623 0.61997,-6.143393 -3.66402,-10.421179 -7.10132,-15.0328757 z M 117.74007,54.881346 c -0.93141,1.450783 -0.64597,3.342961 -0.11408,4.874609 1.1586,2.148737 3.52491,3.316968 6.08905,3.212997 2.22623,-0.0775 4.56606,-0.986763 5.40987,-3.005055 0.95403,-2.593501 -0.50638,-5.497954 -2.59302,-7.263537 -1.37906,-0.954032 -3.52106,-0.798556 -5.18267,-0.512636 -1.38003,0.4929 -2.90542,1.372804 -3.60915,2.693622 z m 80.1858,-34.048567 c 0,0.450879 -0.0255,0.905897 -0.0712,1.376173 l -0.0226,0.246884 -0.0876,0.230132 c -0.34368,0.934681 -1.09025,1.609483 -1.81083,1.934392 -0.72732,0.344308 -1.44068,0.441493 -2.11312,0.444862 -0.11311,0 -0.22382,-0.0034 -0.33068,-0.01011 l -0.37353,-0.01978 -0.33406,-0.162262 c -2.50878,-1.200337 -3.90132,-3.25136 -5.05318,-5.003947 -1.13935,-1.775692 -2.10975,-3.314127 -3.4142,-4.251841 -0.17521,-0.110758 -0.34754,-0.22373 -0.51601,-0.337329 1.50566,2.394706 2.66763,4.887557 3.67076,7.373671 l 0.0159,0.03909 0.0164,0.05194 c 0.89868,2.580073 1.25295,5.276583 1.25295,7.951432 -0.003,4.351865 -0.93526,8.645824 -2.11649,12.365391 -0.0842,0.362888 -0.11985,0.720481 -0.12322,1.07716 -0.0621,2.148785 1.56727,4.676775 2.6811,7.743923 l 0.17185,0.505896 -0.1136,0.526113 c -0.18869,0.824068 -0.48713,2.401926 -1.96679,3.498436 l -0.18532,0.139591 -0.22046,0.08761 c -1.47051,0.600722 -3.32659,1.200963 -5.329,1.20722 -1.4864,0.0067 -3.1355,-0.369675 -4.4953,-1.499398 l -0.0712,-0.0515 -0.0587,-0.05824 c -8.82118,-8.743731 -13.9716,-19.324139 -19.72563,-28.885102 -1.91817,-2.460361 -3.51528,-4.971985 -5.29338,-7.208183 1.6,2.921156 2.13237,6.081685 2.129,9.161974 -0.0135,5.205679 -1.45078,10.320577 -2.06739,14.747436 l -0.0159,0.123177 -0.0298,0.110181 c -0.11649,0.428495 -0.16559,0.824693 -0.16559,1.233838 -0.10349,2.057184 1.62262,4.546282 1.72997,8.178051 0,0.272924 -0.009,0.558363 -0.0419,0.850541 l -0.0587,0.609868 -0.40914,0.461131 c -1.57016,1.781468 -3.8195,2.447172 -5.93598,2.440914 -0.63586,0 -1.26499,-0.05824 -1.89507,-0.162214 l -0.11312,-0.02311 -0.12033,-0.03273 c -4.07991,-1.229362 -6.69844,-3.962455 -8.67196,-6.776414 -1.97979,-2.830325 -3.46956,-5.799326 -5.31938,-8.038893 l -0.052,-0.06508 -0.039,-0.05829 c -6.52371,-9.40207 -13.03105,-19.018483 -22.19591,-26.918411 -0.0419,0.224308 -0.065,0.480385 -0.0616,0.753406 -0.007,0.8245 0.2142,1.784741 0.50589,2.382141 l 0.0197,0.03268 0.013,0.03572 c 2.645,6.137184 6.84187,11.98503 10.96654,17.794464 l 0.0939,0.136703 0.0717,0.142912 c 0.56174,1.216895 1.7911,2.531023 3.02816,4.050445 1.20674,1.505704 2.52178,3.381468 2.53767,5.906282 0,0.409145 -0.0356,0.831287 -0.11312,1.2529 l -0.0683,0.386041 -0.21757,0.327797 c -0.24019,0.35716 -0.51263,0.662335 -0.80144,0.92852 0.99591,0.100602 2.03465,0.366306 3.00505,1.025752 l 0.0717,0.0515 0.0746,0.06209 c 1.96005,1.680867 3.5278,4.143923 3.56005,7.00698 0,0.77882 -0.12948,1.576895 -0.41204,2.359085 l -0.0197,0.04236 -0.01,0.03225 c -0.6296,1.506137 -1.81757,2.561251 -3.0864,3.193742 -1.27894,0.6426 -2.66474,0.92852 -4.01155,0.980024 -0.12323,0.0067 -0.25945,0.0067 -0.38652,0.0067 -3.02768,0.013 -5.9615,-1.460409 -7.44453,-4.219494 l -0.0717,-0.136222 -0.0486,-0.136221 c -0.33117,-0.954031 -0.60024,-2.051023 -0.60024,-3.242358 0,-1.041637 0.22334,-2.196872 0.87942,-3.23562 0.49338,-0.869796 1.14223,-1.538388 1.84356,-2.067389 -1.34055,-0.165583 -2.72972,-0.661853 -3.85608,-1.768953 -9.1195,-7.418888 -15.470886,-16.902016 -19.533943,-26.814026 -1.006498,-2.498483 -1.515764,-4.80953 -2.577136,-6.581853 -0.580986,-0.256462 -1.090734,-0.451071 -1.580746,-0.558459 1.294826,6.809193 4.449579,13.066329 7.922503,19.395523 l 0.02599,0.0515 0.02599,0.04568 c 4.855352,10.236341 12.640672,19.472972 18.113112,30.014488 1.69386,3.251504 5.56919,6.360529 6.61083,11.514801 l 0.0457,0.24645 -0.0197,0.246931 c -0.29843,3.388207 -2.48279,5.666426 -4.37497,7.613478 -1.48303,1.407461 -3.39494,2.118411 -5.34536,2.120818 -0.95403,0 -1.91817,-0.173285 -2.83322,-0.562214 l -0.15595,-0.06546 -0.13623,-0.08568 c -5.35162,-3.451745 -10.12274,-7.651023 -14.666657,-12.013478 0.474127,0.775452 0.948255,1.557642 1.412274,2.34994 0.453911,0.688327 0.707581,1.499398 0.704212,2.271962 -0.013,1.349699 -0.639711,2.323465 -1.184597,3.044043 -0.561251,0.733574 -1.145608,1.298195 -1.480144,1.697232 -2.054393,2.29988 -4.94296,3.370397 -7.802166,3.370397 -1.262575,0 -2.528039,-0.208905 -3.738628,-0.626233 l -0.168953,-0.06161 -0.155957,-0.08279 C 78.375453,83.82431 74.516488,80.089051 70.953071,76.297956 c 0.220457,1.07485 0.360048,2.178099 0.366787,3.326595 0.0029,1.46089 -0.243562,2.982912 -0.847172,4.478941 l -0.149218,0.366787 -0.276294,0.275812 -1.635138,1.616847 -0.204573,0.120818 c -2.48953,1.465704 -5.257761,2.01781 -7.984115,2.01781 -3.816607,-0.01011 -7.61059,-1.048857 -10.911191,-2.359567 -0.168953,0.416848 -0.431769,0.837064 -0.827918,1.181228 -0.577329,0.504452 -1.314224,0.72491 -1.95692,0.76438 l -0.340698,0.02551 -0.324524,-0.09531 c -5.1085,-1.488327 -9.652134,-4.115523 -13.919956,-6.490974 l -0.0942,-0.04573 -0.100601,-0.07413 c -0.697762,-0.513116 -1.72645,-1.191335 -2.680722,-2.061612 -0.937858,-0.876053 -1.927798,-1.969194 -2.242551,-3.598556 -0.181854,-1.006498 -0.282455,-2.041396 -0.282455,-3.089771 -0.0064,-3.106137 0.918508,-6.384115 3.407798,-8.85728 l 0.201203,-0.207461 0.259639,-0.129964 c 0.921733,-0.473646 1.966787,-0.733574 3.080096,-0.740313 0.762599,0 1.573959,0.130445 2.362551,0.513117 l 0.107148,0.05872 0.107196,0.0645 c 5.238219,3.514801 10.729531,6.980986 16.415547,10.009145 0.863538,0.344164 1.538388,0.752828 2.116005,1.045006 L 51.532129,66.445245 C 43.106762,50.544884 36.245679,34.20746 27.813814,18.564043 l -0.165439,-0.298388 -0.529146,-3.661083 0.02296,-0.220938 c 0.379447,-4.26426 1.593502,-8.9342479 5.55278,-12.0987339 l 0.347293,-0.272828 0.438315,-0.097208 c 0.512731,-0.1073646 1.233068,-0.3051697 2.129001,-0.311562 0.847076,-0.012972 2.021853,0.2498869 2.888472,1.1428255 l 0.256269,0.2527076 0.142912,0.3373189 c 3.641492,8.5228589 8.561588,16.7465889 12.777377,25.3444709 3.274608,5.471961 6.549217,10.865848 10.213718,16.048616 -1.022383,-1.875764 -2.051023,-3.751673 -3.073406,-5.627437 l -0.04236,-0.07129 -0.03225,-0.07499 C 55.712153,31.984596 50.915041,25.298579 48.831768,17.201058 l -0.05199,-0.201395 -0.0034,-0.20775 c -0.01637,-0.434753 -0.02262,-0.876245 -0.02262,-1.317545 0.0034,-4.3716 0.723947,-9.2687364 4.280626,-12.9299926 l 0.08135,-0.077468 0.09098,-0.078407 c 0.999277,-0.7947869 2.209867,-1.1452707 3.401203,-1.1452707 0.457761,0 0.915042,0.051519 1.366065,0.1588833 l 0.415403,0.090628 0.334537,0.2598556 c 3.264982,2.6387629 4.079422,6.1338049 5.598555,8.3344794 l 0.07124,0.110373 0.05824,0.116389 c 1.947533,4.096318 4.06065,8.107293 6.341757,12.073743 4.491937,7.153261 8.902527,14.312731 14.072683,20.99764 C 82.296,38.711816 79.864712,33.973958 77.680837,29.122117 75.304905,23.867725 72.037035,18.382575 72.011042,11.677015 c 0,-1.181179 0.106859,-2.394705 0.340794,-3.6347531 0.243081,-1.8140553 1.207221,-3.274474 2.336462,-4.3516773 1.148978,-1.0941276 2.479423,-1.8860939 3.745367,-2.5415547 l 0.123225,-0.064491 0.123707,-0.045882 c 1.392058,-0.48021658 2.768231,-0.69494437 4.08568,-0.69156002 4.900601,0.0552799 8.799037,2.73634942 12.19687,4.64443112 1.46041,-2.0284187 3.651023,-3.826705 6.630563,-4.24543907 l 0.0255,-0.005829 h 0.0491 c 0.65559,-0.0648664 1.30782,-0.0913791 1.95331,-0.0913791 6.58195,0.006768 12.29747,3.10939107 16.59109,7.16286387 3.14224,-3.001651 6.81878,-5.27019 11.21974,-6.2084427 l 0.0323,-0.00959 0.0197,-0.00338 c 1.78484,-0.3277305 3.55379,-0.4804092 5.30349,-0.4804092 7.03249,0.00677 13.60482,2.4240385 19.24862,5.4364091 3.87533,-3.2423297 8.49049,-5.64380257 13.68664,-6.52038194 L 169.88543,0 h 0.16174 c 0.0684,0 0.14007,0 0.22094,0 7.13983,0 14.09867,1.1259013 19.75499,5.4781707 l 0.20457,0.1588448 0.15933,0.2113598 c 1.55138,2.0837063 3.37521,4.1997597 4.87124,6.6046207 1.49988,2.388881 2.671,5.150806 2.66763,8.379783 z"
               id="path22"
               fill="#173a79" />
            <path
               d="m 134.34705,19.777569 c -0.60698,0.292755 -1.25584,0.568568 -1.96053,0.77935 1.67846,2.031817 3.31408,4.108784 4.81973,6.257521 -0.6941,-2.418388 -1.68086,-4.738436 -2.8592,-7.036871 z m -5.55957,-0.557882 0.22431,-0.207413 c 2.31047,0.233357 4.08905,-0.675379 5.86089,-1.662142 l 0.56462,0.415932 c 1.94753,3.602407 3.52202,7.33473 4.28111,11.404573 0.0289,1.502286 0.53863,3.524332 -0.45151,4.666618 -2.64452,-5.182575 -6.50686,-9.924428 -10.47942,-14.617568 z"
               id="path24"
               fill="#173a79" />
            <path
               d="m 169.84933,19.106137 c -0.56462,0.210782 -1.14849,0.38657 -1.74873,0.522695 1.8657,2.495307 3.43971,5.082166 4.85776,7.698195 -0.22383,-2.959759 -1.39206,-5.669747 -3.10903,-8.22089 z m -5.4426,-1.028689 c 2.24934,0.07745 4.28063,-0.38941 6.0852,-1.350036 2.42455,3.219206 4.22575,6.841348 4.3976,10.995379 -0.45391,1.681348 0.0813,4.115523 -1.01902,5.595138 -2.56365,-5.309314 -5.35162,-10.52178 -9.46378,-15.240481 z"
               id="path26"
               fill="#173a79" />
            <path
               d="m 89.601442,122.55451 c -0.295066,-0.24019 -0.580987,-0.4852 -0.860169,-0.72347 1.252949,2.79567 3.366065,5.36751 5.900361,7.65921 0.295548,0.21901 0.587244,0.43658 0.869796,0.65415 -1.307822,-2.72346 -3.362215,-5.26113 -5.909988,-7.58989 z m 8.792298,9.858 c 0.02888,0.6479 -0.367268,1.24477 -1.126354,1.24477 -1.327557,-0.75139 -2.567027,-1.76077 -3.832972,-2.69507 -4.056799,-3.65632 -7.32852,-8.16269 -7.776173,-13.47725 2.02503,0.54536 3.579783,2.38411 5.186522,3.62695 3.576414,3.26835 6.36775,7.02479 7.548977,11.3006 z"
               id="path28"
               fill="#173a79" />
            <path
               d="m 26.509121,109.30349 c -1.401926,-1.37136 -3.037786,-2.28207 -4.647461,-2.26715 -0.334344,0 -0.678411,0.0342 -1.035283,0.11504 -1.194368,0.61179 -1.804476,1.33237 -2.245776,2.26234 -0.451263,0.96847 -0.642888,2.23778 -0.63947,3.69001 -0.0098,2.27052 0.464019,4.87124 0.626281,7.29097 1.275572,9.35981 4.881348,17.99952 8.396149,26.85487 0.804958,1.45079 1.353213,2.77016 2.034802,3.86234 0.8245,-0.25848 1.77858,-0.48857 2.856125,-0.49675 0.632924,0 1.307918,0.091 1.986329,0.3148 l 0.181613,0.0582 0.165487,0.0972 c 3.174056,1.82431 5.244814,4.3639 7.23432,6.55789 1.548207,1.71023 3.021564,3.21107 4.871576,4.29699 -0.438315,-8.69459 -4.176991,-16.66089 -6.637159,-25.42383 -3.401396,-9.61107 -6.990806,-18.95162 -13.147533,-27.21299 z m 21.728664,53.80024 c 0.08087,0.64596 -0.02936,1.50084 -0.902287,1.45078 -6.341757,-2.48905 -8.483754,-8.60361 -14.091841,-11.8219 -1.717063,-0.56751 -3.433935,0.10541 -4.959229,0.62479 -1.379351,-1.63418 -2.0284,-3.52588 -3.040915,-5.28857 -3.521588,-8.88905 -7.243947,-17.72852 -8.568183,-27.47292 -0.311576,-5.13262 -2.479518,-12.41878 3.492178,-15.24381 3.073502,-0.8 5.776751,0.70085 7.779447,2.69507 6.42296,8.58291 10.087027,18.19735 13.523995,27.89169 2.482888,8.96896 6.598026,17.44309 6.766835,27.16487 z"
               id="path30"
               fill="#173a79" />
            <path
               d="m 26.032057,95.295786 c -7.328327,-1.42479 -15.188736,0.311432 -20.1770872,5.288564 -5.46556716,7.10277 -4.3686209,17.85849 -2.0286305,25.81613 3.9466569,20.39807 13.5531547,42.48038 35.6193397,52.15018 5.997689,1.86618 12.705944,0.33742 17.807749,-2.28304 1.042118,-0.83128 1.691456,-1.94272 1.239952,-3.21299 -0.538628,-1.13935 -1.606258,-1.97016 -2.479422,-2.7976 1.940794,-0.54392 4.394223,-1.55619 4.958844,-3.63176 1.152347,-3.80698 0.253189,-8.0053 -0.110228,-12.02648 -1.52828,-8.81155 -4.848616,-16.92178 -7.558604,-25.29675 -5.66012,-13.01131 -10.61935,-29.1071 -27.271913,-34.006254 z m 46.072875,14.929004 c -0.697473,-0.62142 -1.372804,-1.23947 -2.021661,-1.71023 -0.873164,-0.6426 -1.612996,-0.94441 -2.139109,-0.93478 -0.243562,0.005 -0.480385,0.0424 -0.788448,0.18484 -0.538628,0.32635 -0.798556,0.67389 -1.025752,1.20144 -0.223826,0.54152 -0.330686,1.29146 -0.330686,2.13671 0,0.65559 0.06161,1.35836 0.13911,2.05439 2.748977,2.60938 5.2645,5.34055 7.575451,8.1805 -0.941516,-3.187 -1.428159,-6.52515 -1.42142,-9.96534 0,-0.37641 0.0029,-0.76149 0.01252,-1.14753 z m -5.835379,44.58339 c 4.508303,8.13478 9.412274,16.58628 17.24669,23.01372 2.479423,1.37617 6.760048,1.9456 8.902527,-0.10205 2.116005,-7.02479 -0.814922,-13.81275 -2.252707,-20.52804 -5.101805,-15.73237 -12.933333,-30.8953 -26.038507,-43.13068 -0.311432,-2.66956 -0.759567,-6.3485 2.141997,-7.98219 3.041155,-1.47485 5.608183,1.47677 7.776173,3.31985 -0.700842,12.49194 5.270758,23.7136 16.458243,31.2053 4.141035,2.38556 9.551381,5.0811 14.539591,2.4876 3.94657,-2.35764 3.60577,-6.89145 3.04789,-10.67918 -2.62575,-10.1858 -11.8657,-17.96534 -21.079659,-23.63802 -0.03273,-1.62937 1.20722,-3.18749 2.813478,-3.83635 3.55379,-0.64741 5.582671,3.26643 8.003369,5.08063 1.973526,1.34874 3.073402,4.87461 6.089052,4.2503 2.59254,-3.5509 -1.10036,-7.28327 -3.15476,-10.3663 -3.605772,-3.44838 -7.156675,-8.6556 -13.303486,-6.84477 -3.634657,0.57136 -6.36438,3.42238 -9.126353,5.70541 -5.468592,-4.119851 -11.355957,-9.697227 -19.27509,-7.985554 -6.990614,2.696991 -7.665463,10.189174 -8.006257,16.589654 0.902045,16.06835 8.344163,29.65054 15.217809,43.44067 z M 45.388254,108.22912 c 1.577184,2.4568 2.940505,5.03201 4.173718,7.63947 -0.184837,-1.44549 -0.32154,-2.90782 -0.405776,-4.39711 l -0.0067,-0.0992 0.0067,-0.10734 c 0.175211,-3.23081 0.412515,-6.86546 1.616366,-10.22479 1.177858,-3.349218 3.537425,-6.494344 7.600962,-8.03562 l 0.136222,-0.05199 0.145848,-0.03225 c 1.129723,-0.242118 2.232973,-0.35716 3.303971,-0.35716 0.0096,0 0.01637,0 0.02311,0 6.838026,0.05487 11.900842,4.382671 16.285439,7.76944 2.336943,-2.015409 4.988207,-4.446216 8.762936,-5.129248 0.99302,-0.281107 1.960048,-0.416847 2.891456,-0.416847 2.95018,0 5.33574,1.361251 7.224548,2.933333 1.908544,1.58219 3.472916,3.427202 4.927066,4.810112 l 0.14922,0.14441 0.11649,0.17521 c 0.70758,1.06618 1.7367,2.34657 2.63875,3.77954 0.88617,1.43297 1.7136,3.07004 1.72997,5.02527 0.01,1.2515 -0.40242,2.58532 -1.25295,3.73767 l -0.4313,0.58724 -0.71768,0.15403 c -0.36342,0.076 -0.72636,0.11215 -1.07389,0.11215 -2.12275,-0.01 -3.521536,-1.33381 -4.394701,-2.34657 -0.898676,-1.06137 -1.612996,-2.02503 -2.080385,-2.31095 l -0.04188,-0.026 -0.02311,-0.0192 c -1.401685,-1.06474 -2.440433,-2.39375 -3.465704,-3.34441 -1.038748,-0.98339 -1.853189,-1.43923 -2.622864,-1.42816 -0.08087,0 -0.168471,0.005 -0.252707,0.013 -0.516005,0.24838 -0.934778,0.67341 -1.187967,1.09699 8.986763,5.72515 17.999518,13.48159 20.764388,24.05873 l 0.0265,0.0958 0.0125,0.10059 c 0.18532,1.25151 0.35716,2.63057 0.35716,4.05873 0,1.50902 -0.1882,3.09266 -0.84043,4.60987 -0.64308,1.51576 -1.79157,2.93092 -3.46281,3.92057 l -0.0457,0.026 -0.0549,0.0294 c -1.72996,0.89916 -3.5379,1.27556 -5.27412,1.27076 -4.274375,-0.0246 -8.081354,-2.0852 -11.093147,-3.79929 l -0.05199,-0.0289 -0.05824,-0.0375 c -1.762696,-1.17641 -3.401203,-2.44525 -4.916967,-3.80024 3.008423,5.90662 5.439229,12.03081 7.448375,18.2219 l 0.02936,0.0939 0.01925,0.0929 c 1.019013,4.85006 3.018532,10.03947 3.037786,15.69964 0,1.88399 -0.230566,3.81997 -0.82118,5.77665 l -0.14296,0.4775 -0.360048,0.34705 c -1.518652,1.43008 -3.482551,1.86137 -5.309747,1.86955 -2.118893,-0.01 -4.183394,-0.57473 -5.834898,-1.47822 l -0.149699,-0.0847 -0.132852,-0.10831 C 74.14007,172.58531 69.128759,163.88255 64.607941,155.72803 l -0.01637,-0.0289 -0.01925,-0.0424 c -0.863538,-1.73285 -1.74296,-3.47099 -2.612756,-5.21058 0.288809,1.26257 0.548737,2.53477 0.775933,3.83152 l 0.0096,0.0761 0.0096,0.0732 c 0.217569,2.45487 0.681588,5.13406 0.684958,7.90951 0,1.58652 -0.155957,3.2207 -0.649339,4.84187 v 0 c -0.460649,1.63274 -1.625992,2.73454 -2.7716,3.44838 -0.201203,0.12659 -0.399037,0.24019 -0.60361,0.34753 0.288809,0.3716 0.561733,0.78989 0.801925,1.27172 l 0.03851,0.091 0.02936,0.0862 c 0.168953,0.46883 0.253189,0.96366 0.253189,1.45078 -0.01637,1.76222 -1.048375,3.04741 -2.103008,3.88352 l -0.149218,0.11841 -0.165583,0.0842 c -3.767991,1.93261 -8.331168,3.3136 -13.021035,3.31841 -2.073935,0 -4.17367,-0.27773 -6.22142,-0.91359 l -0.100602,-0.0308 -0.09439,-0.0424 C 27.245968,175.28568 19.021901,167.02575 13.215644,157.49073 7.4223343,147.96823 3.9822141,137.16919 1.9733381,126.84332 0.85044522,122.99446 0.00338448,118.51697 0,114.00914 0.00338448,108.88616 1.1035283,103.6515 4.3458579,99.427194 l 0.074455,-0.102046 0.091008,-0.0876 c 4.3067294,-4.284 10.3952491,-6.320583 16.5389791,-6.320583 1.785127,0 3.576462,0.168472 5.342046,0.516005 l 0.08443,0.01444 0.08761,0.02262 c 8.843802,2.591576 14.660071,8.26137 18.823874,14.75909 z"
               id="path32"
               fill="#173a79" />
            <path
               d="m 67.17208,129.81949 c 5.945608,9.1769 11.832972,18.50927 12.848616,29.44645 -6.172804,-9.69579 -12.144404,-19.75066 -14.425993,-30.89723 0.561252,0.36342 1.181228,0.93333 1.577377,1.45078"
               id="path34"
               fill="#173a79" />
            <path
               d="m 196.86786,5.1735257 h -0.33405 v 0.9833935 c 0.0814,0.016366 0.18532,0.02219 0.33405,0.02219 0.52275,0 0.71144,-0.2527075 0.71144,-0.5093622 0,-0.3566786 -0.32828,-0.4962214 -0.71144,-0.4962213 z m 0.63009,-0.1882069 v 0.022575 c 0.3148,0.093815 0.56751,0.3279422 0.56751,0.7105655 0,0.2761974 -0.0939,0.4739832 -0.26571,0.603562 -0.17232,0.1299158 -0.46402,0.2209386 -0.90541,0.2209386 -0.34753,0 -0.58099,-0.032154 -0.82455,-0.071288 v -2.914589 h 0.46402 v 1.2530108 h 0.32491 c 0.36967,0 0.55788,-0.1361299 0.62912,-0.5063537 0.0558,-0.383201 0.12371,-0.6494441 0.19495,-0.7466571 h 0.48664 c -0.0453,0.097213 -0.11649,0.2730157 -0.18436,0.7201444 -0.0592,0.4288857 -0.23104,0.6624116 -0.48712,0.7080915 z"
               id="path36"
               fill="#173a79" />
            <path
               d="m 197.03393,2.8625174 c -1.1586,0 -2.10012,0.9734103 -2.10012,2.2132466 0,1.2206979 0.94152,2.2070758 2.09001,2.2070758 h 0.0101 c 1.16149,0 2.08664,-0.9863779 2.08664,-2.2132852 0,-1.2336269 -0.92515,-2.2200144 -2.08664,-2.2070372 z m 0,4.829468 h -0.0101 c -1.43105,0 -2.58965,-1.1620217 -2.58965,-2.6162214 0,-1.473367 1.1586,-2.6190084 2.58965,-2.6190084 1.4349,0 2.57377,1.1456414 2.57377,2.6190084 0,1.4541997 -1.13887,2.6162214 -2.56366,2.6162214 z"
               id="path38"
               fill="#173a79" />
          </g>
        </g>
      </g>
    </g>
  </g>
  <metadata
     id="metadata1">
    <rdf:RDF>
      <cc:Work
         rdf:about="">
        <dc:title>ole-miss</dc:title>
      </cc:Work>
    </rdf:RDF>
  </metadata>
</svg>
