<?xml version="1.0" encoding="UTF-8" standalone="no"?>
<svg
   width="157.22"
   height="89"
   viewBox="0 0 157.22 89"
   version="1.1"
   id="svg8"
   sodipodi:docname="MIZ.svg"
   inkscape:version="1.4 (86a8ad7, 2024-10-11)"
   xmlns:inkscape="http://www.inkscape.org/namespaces/inkscape"
   xmlns:sodipodi="http://sodipodi.sourceforge.net/DTD/sodipodi-0.dtd"
   xmlns="http://www.w3.org/2000/svg"
   xmlns:svg="http://www.w3.org/2000/svg">
  <defs
     id="defs8" />
  <sodipodi:namedview
     id="namedview8"
     pagecolor="#ffffff"
     bordercolor="#000000"
     borderopacity="0.25"
     inkscape:showpageshadow="2"
     inkscape:pageopacity="0.0"
     inkscape:pagecheckerboard="0"
     inkscape:deskcolor="#d1d1d1"
     inkscape:zoom="13.202247"
     inkscape:cx="79.001702"
     inkscape:cy="44.5"
     inkscape:window-width="3440"
     inkscape:window-height="1377"
     inkscape:window-x="-8"
     inkscape:window-y="-8"
     inkscape:window-maximized="1"
     inkscape:current-layer="svg8" />
  <path
     fill="#2a2623"
     d="M 78.6,0 C 35.2,0 0,19.93 0,44.5 0,69.08 35.2,89 78.6,89 c 8.62,0 16.93,-0.79 24.7,-2.24 l -0.11,0.31 a 19.4,19.4 0 0 0 4.93,-1.3 c 2.02,-0.47 4,-0.99 5.94,-1.53 l -0.04,0.17 c 0.17,-0.09 0.32,-0.2 0.47,-0.29 25.37,-7.38 42.73,-22.34 42.73,-39.6 C 157.22,19.92 122.02,0 78.6,0 Z"
     id="path1" />
  <path
     fill="#2a2623"
     d="m 6.11,44.49 c 0,14.75 15.42,27.57 38.12,34.11 3.84,-0.97 7.49,-2.14 7.15,-2.21 -3.1,-0.72 -8.04,-1.99 -9.9,-2.88 1.67,-0.08 11.55,-1.1 14.4,-2.06 -3.4,-0.7 -16.13,-5.05 -21.35,-7.98 2.3,0.09 12.73,0.78 16.46,0 l -1.6,-0.46 C 43.43,61.53 18.17,50.53 6.31,41.68 c -0.13,0.94 -0.2,1.87 -0.2,2.81 z"
     id="path2" />
  <path
     fill="#fdb71a"
     d="m 154.72,44.48 c 0,15.24 -14.5,28.6 -36.24,36.05 a 17.71,17.71 0 0 0 2.78,-4.72 c 18.08,-7.04 29.83,-18.44 29.83,-31.32 0,-18.47 -24.22,-33.93 -56.63,-37.8 A 105.53,105.53 0 0 0 89.94,4.62 c -5.3,-2.27 -6.5,-1.24 -7.82,0 -0.42,0.4 -0.74,0.79 -1,1.17 L 78.6,5.77 C 45.96,5.77 18.36,17.29 9.28,33.12 13.88,37 25.87,46.66 35.4,51.31 l -0.12,-0.3 C 34.93,50.67 26.62,42.32 24.38,31.2 h 0.14 c 0.7,0.87 4.57,7.86 20.95,18.26 1.27,0.81 14.03,8.5 19.46,9.94 l -0.65,-0.72 c -0.53,-0.58 -8.6,-9.92 -12.4,-17.17 0,0 -4.1,-6.74 -6.98,-14.92 0,0 5.47,4.43 5.99,4.6 l 0.06,-0.28 c -0.18,-0.4 -4.76,-10.85 -5.59,-16.6 a 91.67,91.67 0 0 1 9.86,-1.54 c 0,0 1.11,9.1 8.38,13.44 0,1.12 0.4,12.4 3.49,16.59 C 67,41.23 66.15,35.62 70.96,29.7 l 0.25,0.23 c -0.64,2.45 -2.37,12.4 0,20.61 0.62,2.2 4.97,13.03 9.08,15.8 -0.47,-2.6 -6.32,-14.7 -0.15,-27.48 0.03,0.43 0.14,1.42 0.38,2.82 0.7,3.98 2.62,11.47 8.06,19.95 l 0.29,0.42 c 0,0 -4.94,-2.74 -7.54,-7.95 0,0 0,4.52 1.1,6.98 0,0 -1.64,-1.09 -2.6,-3.14 0,0 1.92,10.2 2.88,12.8 0,0 -9.5,-5.17 -15.76,-21.02 0,0 -0.55,1.23 -0.14,4.37 0,0 -6.56,-4.46 -9.03,-8.62 1.07,1.87 7.71,13.28 11.99,17.17 0,0 -17.9,-4.3 -25.02,-8.81 0,0 0.82,1.5 2.88,3.42 0,0 -9.18,-1.23 -13.43,-2.6 0,0 11.38,5.6 22.62,9.03 0,0 -5.07,1.51 -10,2.2 0,0 6.3,3.15 14.25,5.34 0,0 -3.15,2.2 -9.59,3.43 0,0 1.09,0.8 4.11,1.63 l -1.54,0.68 a 2.88,2.88 0 0 0 -0.27,0.12 35.73,35.73 0 0 1 -4.23,1.54 l -2.42,0.8 0.2,0.04 c 2.84,0.78 8.46,1.94 13.67,2.63 h 0.01 a 134.62,134.62 0 0 0 26.52,0.86 l 0.12,0.59 c 1.24,0 2.89,-0.08 4.36,-0.19 -0.12,0.56 -0.77,1.9 -1.23,2.93 -3.96,0.35 -8.02,0.53 -12.17,0.53 C 36.57,86.81 2.48,67.86 2.48,44.49 2.48,21.13 36.56,2.18 78.6,2.18 c 42.05,0 76.13,18.95 76.11,42.3 z M 49.39,63.01 C 43.42,61.54 18.17,50.53 6.29,41.68 6.17,42.61 6.1,43.55 6.1,44.49 c 0,14.76 15.42,27.58 38.12,34.11 3.83,-0.96 7.5,-2.14 7.16,-2.21 -3.1,-0.72 -8.06,-1.99 -9.9,-2.88 1.66,-0.08 11.54,-1.1 14.39,-2.06 -3.4,-0.7 -16.13,-5.06 -21.34,-7.98 2.3,0.08 12.72,0.78 16.45,0 z"
     id="path3" />
  <path
     fill="#fdb71a"
     d="m 123.66,33.59 0.36,0.08 0.43,0.38 c 0.72,-0.4 1.12,-1.18 1.12,-1.18 l 4.37,-0.1 0.78,1.33 c 0.1,-0.13 0.23,-0.24 0.3,-0.34 0.64,-0.66 1.36,-0.85 1.65,-0.98 -0.34,-0.65 -1.1,-1.55 -3,-2.96 l -1.05,-0.77 -1.45,-0.99 0.13,0.05 a 0.25,0.25 0 0 1 -0.05,-0.04 c 0.12,0.08 -3.96,-1.32 -4.9,-1.54 a 28.6,28.6 0 0 1 -3.2,-0.99 c -3.28,-1.66 -2.85,-3.21 -2.85,-3.21 0,0 2.09,-0.3 3.05,0.72 0.21,0.22 0.72,1.34 0.72,1.34 l 0.55,0.15 c 0.2,-1.7 -0.02,-2.44 -0.19,-3.1 -0.34,-1.26 -5.99,-4.82 -7.14,-5.66 a 17.8,17.8 0 0 0 -6.64,-3.16 c -4.03,-0.8 -15.5,-2.42 -19.29,-2.63 -3.8,-0.2 -5.8,-0.1 -6.95,0.1 a 3.33,3.33 0 0 1 -0.36,0.07 c -2.51,0.44 -5.94,1.23 -7.34,1.62 1.75,0.1 4.68,-0.1 7.35,-0.35 2.8,-0.26 5.34,-0.59 5.93,-0.7 l 7.17,2.53 c 0.63,0.23 2.32,-0.53 2.32,-0.53 1.1,0.43 5.33,2.51 6.83,3.27 0.3,0.15 0.68,0.08 0.91,-0.05 0.6,-0.32 0.75,-0.4 1.43,-0.82 1.06,0.53 7.42,5 7.42,5 l -0.67,0.19 c -6.85,-2 -11.92,-3.29 -13.18,-3.4 l -0.38,-0.34 1.85,-0.26 C 95.69,15.47 88,14.74 86.51,14.74 l -0.5,-0.4 C 87.14,14.1 90.52,14 90.52,14 c -1.9,-0.52 -5.27,-0.84 -8.33,-0.84 -0.68,0 -1.4,0 -2.12,-0.02 -6.27,-0.15 -13.59,-0.88 -16.31,-1.45 -2.31,-0.48 -2.74,-0.52 -3.07,-0.6 -0.36,-0.07 -0.57,-0.13 -1.1,-0.27 -1.51,-0.04 -1.7,0.78 -1.7,0.85 -0.22,1.77 2.38,4.13 4.73,5.37 3.6,2.17 8.42,3.33 9.59,3.59 1.11,0.23 2.05,0.3 2.92,0.38 1.84,0.18 3.68,0.69 5.03,1.1 0.75,0.22 1.35,0.41 1.7,0.5 C 81.62,22.4 80.71,21.28 80.14,20.6 A 86.68,86.68 0 0 1 79.7,20.05 h 0.02 c -1,-1.3 -1.03,-2.1 -1.03,-2.1 5.34,2.05 12.25,2.2 12.25,2.2 5.07,0.27 9.04,2.6 9.04,2.6 a 64.37,64.37 0 0 0 7,3.5 c -0.08,-0.02 0.41,0.15 1.48,0.35 v -0.01 c 0.6,0.04 1.08,0.16 1.5,0.22 l 0.3,0.03 c 2.59,0.15 3.47,0.93 3.47,0.93 l -1.14,0.87 c 3.45,-0.25 5.48,0.97 5.48,0.97 l -1.23,0.96 c 3,-0.1 5.42,1.7 6.82,3.02 z"
     id="path4" />
  <g
     id="g7">
    <path
       fill="#ffffff"
       d="m 79.7,20.07 0.44,0.55 v -0.36 l 0.34,0.12 0.01,0.02 -0.01,-0.01 0.12,0.04 c 1.78,0.54 3.75,0.8 5.57,1.35 3.32,0.97 7.3,-0.24 10.46,1.04 3,1.28 6.23,2.51 9.49,3.38 0.28,0.04 0.57,0.05 0.85,0.07 -1.54,-0.67 -5,-2.25 -7,-3.5 0,0 -3.97,-2.33 -9.04,-2.6 0,0 -6.9,-0.15 -12.25,-2.2 0,0 0.02,0.8 1.03,2.1 z m 7.68,-12.9 9.7,2.03 h 0.03 L 96.9,8.9 C 95.44,8.65 89.85,6.65 88.36,6.13 86.58,5.5 85.51,5.38 84.83,5.5 83.39,5.84 83.15,8.34 83.07,9.37 h 0.33 c 0,0 0.13,-3.03 3.98,-2.2 z"
       id="path5" />
    <path
       fill="#ffffff"
       d="m 127.25,51.82 a 10,10 0 0 1 -1.85,-0.97 c -1.19,0.59 -2.7,0.94 -4.02,1.11 -6.2,0.86 -11.11,1.51 -14.63,5.37 -1.02,1.11 -1.9,3.51 -1.83,5.64 -0.58,-0.53 -0.87,-0.81 -1.4,-1.18 -1.42,-0.9 -3.03,-1.77 -4.86,-1.54 0.74,0.55 1.4,1.33 1.46,1.79 -0.67,-0.4 -1.29,-0.6 -2.12,-0.93 -2.16,-0.66 -4.81,0.01 -6.5,1.16 0,0 -0.86,-4.32 1.25,-8.02 1.96,-3.44 6.13,-4.5 9.96,-4.44 2.54,0.13 4.74,0.85 6.55,1.42 1.4,0.45 2.35,0.61 3.38,0.78 3.73,0.25 7.94,-0.64 9.62,-1.73 2.85,-1.86 5,-4.5 4.88,-8.08 A 5.46,5.46 0 0 0 124.29,37 c -0.9,-0.32 -1.78,-0.62 -2.74,-0.78 -1.03,-2.24 -2.23,-2.42 -2.23,-2.42 v -0.42 l 2.12,0.02 c 0.87,0.02 1.44,0.04 2.22,0.17 -1.4,-1.32 -3.81,-3.11 -6.82,-3.02 l 1.23,-0.96 c 0,0 -2.03,-1.21 -5.48,-0.97 l 1.14,-0.87 c 0,0 -0.88,-0.78 -3.47,-0.93 l -0.3,-0.03 c -0.43,-0.06 -0.92,-0.18 -1.5,-0.22 -0.22,0.4 -0.62,0.7 -0.92,1.05 -0.2,0.18 -0.31,0.18 -0.67,0.19 -1.63,0.02 -4.04,0.23 -5.39,0.08 0.57,-0.7 0.73,-1.2 0.73,-1.2 l -2,-0.55 c 0,0 -1.5,1.7 -3.46,2 -0.52,-0.12 -0.75,-0.45 -1,-0.89 -0.2,-0.33 -0.34,-0.82 -0.34,-0.82 0.33,-0.27 1.38,-0.83 1.55,-1.12 l -2.03,-0.25 c -0.13,-0.76 -0.07,-0.99 -0.07,-0.99 -0.59,-0.18 -0.95,-0.28 -1.58,-0.44 0,0 -0.07,0.13 -0.1,0.3 -0.04,0.18 -0.2,1.45 0.52,3.6 A 9.6,9.6 0 0 1 91.41,26.9 c -1.5,-0.52 -2.76,-1.27 -4.14,-1.89 -1.02,-0.26 -2.99,-0.88 -2.99,-0.88 0,0 -0.09,-0.1 -0.3,0.06 1.07,1.47 2.4,2.85 3.7,4.26 a 35.12,35.12 0 0 0 11.47,2.38 c 4.82,0.56 9.75,0.5 14.44,1.93 -1.29,0.54 -1.87,0.8 -3,1.7 -5.86,0.06 -12.58,0.18 -18.47,1.12 a 23.8,23.8 0 0 0 -4.24,1 c 8.6,0.12 17.36,0.97 25.72,2.23 0,0 4.1,0.8 5.95,1.32 l -0.08,0.19 c -4.95,-0.44 -9.92,-0.92 -14.83,-0.8 -3.73,0.04 -7.62,0.15 -11.11,0.7 l 0.03,0.05 c 7.15,0.56 14.26,1.68 20.96,3.44 1.7,0.57 3.5,1 5.14,1.74 -0.07,0.08 -0.2,0.17 -0.28,0.26 -4.9,-1.5 -10.33,-1.62 -15.52,-1.89 -2.11,0.03 -4.17,-0.16 -6.23,0.22 0,0 12.22,2.28 17.3,5 a 0.81,0.81 0 0 1 -0.17,0.2 c -2.02,-0.62 -3.8,-0.9 -6.08,-1.39 -5.66,-1.24 -13.39,-1.03 -17.1,3.88 -1.1,1.5 -3.07,4.8 -2.67,10.26 0,0 -4.93,-2.74 -7.54,-7.94 0,0 0,4.52 1.1,6.98 0,0 -1.66,-1.1 -2.6,-3.15 0,0 1.92,10.2 2.88,12.81 0,0 -9.5,-5.18 -15.77,-21.03 0,0 -0.54,1.23 -0.14,4.38 0,0 -6.56,-4.46 -9.02,-8.63 1.08,1.87 7.71,13.27 11.98,17.18 0,0 -17.89,-4.29 -25.02,-8.82 a 15,15 0 0 0 2.88,3.43 c 0,0 -9.18,-1.23 -13.42,-2.6 0,0 11.38,5.6 22.62,9.03 0,0 -5.08,1.52 -10.01,2.2 0,0 6.3,3.14 14.26,5.34 0,0 -3.16,2.18 -9.6,3.42 0,0 1.1,0.81 4.12,1.64 l -1.55,0.67 -0.26,0.13 a 35.16,35.16 0 0 1 -4.23,1.53 l -2.43,0.8 a 0.98,0.98 0 0 0 0.2,0.05 c 2.83,0.78 8.46,1.94 13.68,2.62 h 0.01 c 5.48,-2.34 12.97,-5.1 19.17,-5.77 l 1.67,-0.15 c -3.12,-1.78 -5.83,-2.41 -8.31,-3.07 -0.51,-0.16 -0.7,-0.17 -1.27,-0.33 0.73,-0.08 0.9,-0.1 1.62,-0.12 1.73,0.03 3.6,0.3 5.31,0.68 1.1,0.32 2.18,0.7 3.22,1.16 1.84,0.8 3.53,1.83 4.89,3.25 a 8.3,8.3 0 0 1 1.46,2.6 c 0.21,0.69 0.32,0.98 0.46,1.58 0,0 2.69,-0.15 4.38,-0.46 -0.14,0.95 -0.66,2.39 -1.18,3.44 2.08,-0.41 4.3,-0.93 6.15,-1.62 0,0 -0.7,1.61 -1.22,2.54 2.14,-0.54 5.5,-1.61 8.2,-3.08 a 21.7,21.7 0 0 1 -0.96,2.74 c 3.64,-0.98 9.15,-4.3 10.54,-5.57 0.07,0.7 0.04,1.01 -0.07,1.9 0.72,-0.6 0.45,-0.37 0.87,-0.7 a 18.1,18.1 0 0 0 3.95,-5.07 c 0.6,-1.27 1.12,-2.4 1.35,-3.62 l -2.84,-0.22 c 1.37,-1.78 2.07,-3.98 1.66,-5.77 a 23.28,23.28 0 0 1 -6.95,4.96 c -0.62,0.18 -2.17,0.53 -3.33,0.28 -0.3,-0.08 -0.68,-0.14 -0.9,-0.39 0.63,-0.62 1.19,-1.35 1.69,-2.07 0.9,-1.32 1.56,-3.05 0.81,-4.6 -0.42,0.42 -0.48,0.57 -0.77,0.81 -2.66,2.61 -6.02,5.85 -10.26,4.78 -1.84,-0.92 -4.33,-2.4 -6.5,-0.94 l -0.35,-0.41 c -0.54,-1.19 -1,-2.57 -1.2,-3.9 l 0.27,-0.15 c 2.45,-1 4.92,-0.52 6.6,0.11 2.22,0.61 3.3,4.02 6.03,3.16 a 8.52,8.52 0 0 0 3.81,-2.79 c -1.18,-0.72 -1.5,-2.55 -1.44,-3.56 0.06,-0.84 0.35,-1.8 0.67,-2.37 1.18,-2.13 3.27,-4.59 6.15,-4.7 0.15,1.82 -0.34,3.8 -0.8,5.56 -0.03,0.2 -0.3,0.62 -0.13,0.53 a 13.78,13.78 0 0 0 3.89,-3.3 c 0.4,-0.47 0.49,-0.66 0.86,-1.27 0.68,-1.26 0.73,-1.69 1.02,-2.54 a 9.45,9.45 0 0 1 5.3,0.07 c 0.47,0.4 0.55,1.15 0.54,1.68 a 8.55,8.55 0 0 1 -1.15,3.32 c -0.15,0.22 -0.9,1.36 -1.07,1.58 a 9.59,9.59 0 0 0 3.24,-1.97 c 1.27,-1.13 3.07,-3.47 2.82,-5.81 a 5.26,5.26 0 0 1 -1.7,-0.62 z"
       id="path6" />
    <path
       fill="#ffffff"
       d="m 131.47,40.41 -0.19,-0.36 c 0,0 3,-1.12 3.88,-1.82 -0.06,-1.13 -0.26,-2.23 -0.42,-3.44 -0.26,-1.76 -0.74,-2.88 -1.27,-3.39 -1.73,-1.48 -3.96,-2.43 -6.16,-3.27 l -0.14,-0.05 c 0.53,0.35 1.01,0.67 1.45,0.99 l 1.06,0.76 c 1.9,1.42 2.66,2.31 3,2.96 0.2,-0.08 0.68,-0.23 0.68,-0.23 0,0 0.18,0.25 0.22,0.52 0,0.05 -1.1,1.35 -1.57,2.93 -0.62,0.4 -2.56,1.57 -3.43,3.47 -0.53,1.47 -1,6.53 -0.82,8.66 0.04,1.3 0.78,3.52 2.46,4.18 a 8.1,8.1 0 0 0 1.99,-1.95 c 0.29,-0.4 0.56,-0.74 0.8,-1.44 -0.46,-0.03 -1.85,-0.09 -2.61,-0.2 -0.07,-0.11 -0.08,-0.17 -0.19,-0.35 0.47,-0.05 0.73,-0.08 1.12,-0.14 a 6.33,6.33 0 0 0 2.12,-0.6 c 0.28,-0.4 0.87,-1.8 0.95,-2.92 l -2.93,0.01 -0.21,-0.48 c 0,0 2.4,-0.47 3.39,-0.79 0.15,-1.04 0.44,-2.34 0.37,-3.46 -1.07,0.27 -3.55,0.41 -3.55,0.41 z M 61.16,18.43 c 2.69,2 6.56,3.56 13.3,4.9 0,0 -2.11,-2.48 -2.25,-2.7 -1.19,-0.25 -6,-1.41 -9.6,-3.58 -2.34,-1.25 -4.94,-3.6 -4.72,-5.38 0,-0.07 0.19,-0.88 1.7,-0.85 -0.32,-0.08 -1.85,-0.45 -2.57,0.19 -0.58,0.53 -0.38,1.72 0.07,2.66 0.22,0.45 1.4,2.75 4.07,4.76 z"
       id="path7" />
  </g>
  <g
     id="g8">
    <path
       fill="#2a2623"
       d="m 145.14,81.57 v -3.3 h -0.02 l -1.34,3.31 h -0.36 l -1.3,-3.32 h -0.02 v 3.32 h -0.6 v -3.91 h 0.98 l 1.13,2.76 1.16,-2.76 h 0.96 v 3.9 z m -5.62,-3.3 v 3.31 h -0.6 v -3.32 h -1.27 v -0.59 h 3.16 v 0.6 z"
       id="path8" />
  </g>
</svg>
