<svg xmlns="http://www.w3.org/2000/svg" height="97" width="133" viewBox="0 0 133 97.000002">
 <g transform="translate(0 -955.36)">
  <g transform="matrix(1.25 0 0 -1.25 .97249 1041.6)">
   <path d="m43.848 0.375s-11.555 0.32781-28.123 20.82c-16.569 20.494-21.583 42.511-5.668 48.832 15.915 6.323 35.753-17.004 38.15-28.994 0 0 0.11-1.744 2.4-1.744l2.016-0.164s1.198 0.273 1.689-1.307c0.49-1.58 4.034-8.666 4.034-8.666s0.219-1.035-1.961-0.654c0 0-22.892 4.143-29.106 9.484-6.213 5.34-1.524 9.047 0.655 8.174l3.378-1.635s3.052-0.98 1.09 2.29c0 0-5.56 12.099-15.879 13.699 0 0-5.522 0.291-4.941-8.358 0 0 3.054-19.183 23.764-36.406 0 0 13.952-11.118 8.285 7.848 0 0-0.547 1.635 5.449 1.635 5.995 0 6.758-2.397 6.977-4.034 0.217-1.635 2.943-20.82-12.209-20.82zm59.962 7.0449c-0.91-0.041-1.89 0.0201-2.89 0.1973-4.027 0.71-6.986 3.0068-6.611 5.1308 0.376 2.124 3.941 3.272 7.971 2.561 4.02-0.709 6.98-3.008 6.6-5.131-0.28-1.5931-2.35-2.6351-5.07-2.7581zm-29.105 6.2561c-0.242 0-0.501 0.012-0.773 0.035-8.72 0.726-8.575 12.935-8.575 12.935l-17.003 32.991c0.508 1.091 1.888-0.073 1.888-0.073l6.031-1.744c2.18-0.653 1.745-1.381 1.745-1.381 0.943-4.432 10.902-22.019 10.902-22.019s2.761-5.231 5.596-4.506c2.833 0.728-2.836 7.268-2.836 7.268-2.979 2.833-6.032 10.173-6.032 10.173-1.525 4.797 0.108 9.156 4.905 9.592 4.796 0.437 7.522-4.251 8.722-5.996 1.199-1.742 1.524-0.107 1.524-0.107s0.219 3.815 4.469 4.795c4.252 0.981 10.793-3.815 13.41-5.45 2.612-1.635 6.762-2.834 6.762-2.834 6.64-0.545 5.34 2.399 5.34 2.399-12.211 3.051-31.616 29.105-15.7 30.086 15.91 0.981 24.2-26.272 24.2-26.272 4.03-0.545 5.56 2.18 5.56 2.18s1.53 4.907-1.2 6.541c-2.72 1.635-5.45-0.654-5.45-0.654-2.18 6.866-7.34 12.246-7.34 12.246 8.72 1.452 14.39-3.199 14.39-3.199 11.92-6.249 5.81-17.768 5.81-17.768-1.8-5.667-9.37-6.594-9.37-6.594-3.38-0.108-3.33-1.58-3.33-1.58-0.76-1.526-2.01-2.017-3.38-2.398-1.36-0.381-3.98 0.273-3.98 0.273-1.74-0.109 0.06-1.418 0.06-1.418l8.66-8.066c4.91-4.795 3.06-7.522 3.06-7.522-1.31-3.652-6.05-2.615-6.05-2.615-2.78-0.055-7.91 1.961-7.91 1.961-1.41 0.381-2.34 2.234-2.34 2.234l-3.76 6.977c-1.2 1.963 0.22 1.527 0.22 1.527 7.52-6.541 8.5-4.906 8.5-4.906 4.03 2.508-0.11 4.469-2.83 7.848-2.73 3.379-13.303 7.849-13.303 7.849-7.304 3.815-5.668-1.744-5.668-1.744 4.689-10.029 12.541-21.42 12.541-21.42 0.98-1.471-0.44-1.254-0.44-1.254l-8.449 0.983c-1.525 0.054-1.582 0.597-1.582 0.597l-0.76 1.473c-4.906 9.919-12.136 20.858-12.136 20.858-2.617 3.341-5.233 3.052-5.088 0.144 0.146-2.907 9.592-15.478 9.592-15.478 5.233-9.665-6.612-6.178-6.612-6.178-1.162 0.291-1.162-0.582-1.162-0.582s6.683-10.229-0.828-10.207zm37.125 41.642c0.38 0.071 0.55 0.459 0.14 1.522 0 0-6.75 14.388-10.46 16.349 0 0-4.033 3.817-5.559-0.544 0 0-0.653-3.707 4.259-8.393 4.9-4.688 9.8-8.285 9.8-8.285s1.2-0.766 1.82-0.649zm-17.551 3.012c-51.74 2.615-93.306 27.902-93.306 27.902-0.00034 0 13.335-0.071 20.529 0.039 7.194 0.109 15.261 1.961 20.166 3.377 4.905 1.418 8.937 6.977 8.937 6.977 14.17-14.387 36.7-21.146 36.7-21.146-0.58-6.977 6.974-17.149 6.974-17.149zm14.101 1.342c-0.35-0.066-1.02 0.365-1.02 0.365s-2.22 2.667-4.98 5.303c-2.926 2.799-4.03 6.541-4.03 6.541 0.858 2.452 4.23-2.156 4.23-2.156 1.77-2.312 5.88-9.198 5.88-9.198 0.23-0.597 0.13-0.815-0.08-0.855z" transform="matrix(.8 0 0 -.8 -.77799 68.987)" fill="#5E001D"/> </g></g></svg>
