<?xml version="1.0" encoding="UTF-8" standalone="no"?>
<svg
   width="45.699738"
   height="52.236229"
   viewBox="0 0 45.699738 52.236229"
   fill="none"
   version="1.1"
   id="svg11"
   sodipodi:docname="MSU.svg"
   inkscape:version="1.4 (86a8ad7, 2024-10-11)"
   xmlns:inkscape="http://www.inkscape.org/namespaces/inkscape"
   xmlns:sodipodi="http://sodipodi.sourceforge.net/DTD/sodipodi-0.dtd"
   xmlns:xlink="http://www.w3.org/1999/xlink"
   xmlns="http://www.w3.org/2000/svg"
   xmlns:svg="http://www.w3.org/2000/svg">
  <defs
     id="defs11" />
  <sodipodi:namedview
     id="namedview11"
     pagecolor="#ffffff"
     bordercolor="#000000"
     borderopacity="0.25"
     inkscape:showpageshadow="2"
     inkscape:pageopacity="0.0"
     inkscape:pagecheckerboard="0"
     inkscape:deskcolor="#d1d1d1"
     inkscape:zoom="17.309385"
     inkscape:cx="23.397712"
     inkscape:cy="28.395001"
     inkscape:window-width="3440"
     inkscape:window-height="1377"
     inkscape:window-x="-8"
     inkscape:window-y="-8"
     inkscape:window-maximized="1"
     inkscape:current-layer="svg11" />
  <g
     id="g12"
     style="fill:#ffffff"
     transform="translate(-1.2074354,1.9926081)">
    <path
       style="fill:#ffffff"
       sodipodi:type="inkscape:offset"
       inkscape:radius="2.264904"
       inkscape:original="M 58.507812 19.335938 C 57.352825 19.373225 56.215928 19.570381 55.142578 19.957031 L 55.140625 19.957031 C 51.975625 21.097031 49.926759 23.367013 48.568359 26.445312 C 46.303459 31.576912 49.505859 35.493575 49.505859 39.671875 C 49.632559 41.190175 48.752306 44.23545 48.878906 44.21875 C 52.985606 43.65045 55.761894 42.340584 59.308594 41.708984 C 61.721894 43.818984 69.977597 48.673828 71.779297 48.923828 C 71.904297 48.940528 69.689513 41.732363 70.132812 33.789062 C 68.041212 34.125763 65.347597 33.238672 63.779297 31.513672 C 65.864297 28.517072 73.424472 28.849456 72.326172 36.847656 C 72.309472 36.971056 76.79875 37.729159 76.71875 37.630859 C 73.89545 34.180859 72.715566 30.925372 71.072266 26.888672 C 69.502266 23.032072 66.279609 20.433828 61.974609 19.673828 C 60.834609 19.421328 59.6628 19.29865 58.507812 19.335938 z "
       xlink:href="#path2"
       id="path23"
       d="m 58.435547,17.072266 c -1.353284,0.04369 -2.715159,0.279584 -4.027344,0.748046 a 2.2651305,2.2651305 0 0 0 -0.03516,0.0059 c -3.773665,1.359235 -6.344984,4.233449 -7.876953,7.705078 -1.377622,3.121286 -1.075998,6.071261 -0.509766,8.416016 0.566233,2.344755 1.253906,4.214094 1.253906,5.724609 a 2.2651305,2.2651305 0 0 0 0.0078,0.1875 c 0.01677,0.200927 -0.100301,1.328894 -0.277344,2.220703 -0.08852,0.445905 -0.178688,0.856074 -0.248047,1.195313 -0.03468,0.169619 -0.06469,0.307921 -0.0918,0.503906 -0.01355,0.09799 -0.0362,0.183938 -0.0293,0.46289 0.0035,0.139477 -0.02749,0.313815 0.154297,0.785157 0.04545,0.117835 0.109801,0.25578 0.214844,0.417968 0.105043,0.162189 0.471909,0.526736 0.472656,0.527344 7.47e-4,6.09e-4 0.825305,0.427494 0.826172,0.427735 8.67e-4,2.41e-4 0.905261,0.06458 0.90625,0.06445 a 2.2651305,2.2651305 0 0 0 0.01367,-0.002 c 4.070963,-0.563355 6.814128,-1.686544 9.722656,-2.31836 1.553579,1.20018 3.486225,2.52496 5.720703,3.826172 1.33075,0.774941 2.643345,1.492677 3.779297,2.050781 1.135953,0.558105 1.850977,0.979189 3.056641,1.146485 a 2.2651305,2.2651305 0 0 0 0.0098,0 c 4.88e-4,6.5e-5 1.089426,-0.120939 1.089843,-0.121094 4.18e-4,-1.55e-4 0.874654,-0.58361 0.875,-0.583984 3.47e-4,-3.75e-4 0.392302,-0.583392 0.392578,-0.583985 2.77e-4,-5.92e-4 0.115353,-0.292054 0.142579,-0.398437 0.108903,-0.425534 0.07263,-0.550178 0.06836,-0.66211 -0.0085,-0.223862 -0.02673,-0.285624 -0.03906,-0.357422 -0.02467,-0.143595 -0.0453,-0.238206 -0.07227,-0.357421 -0.05393,-0.238431 -0.125745,-0.539712 -0.214844,-0.927735 -0.178197,-0.776045 -0.420479,-1.879036 -0.652344,-3.220703 -0.235715,-1.363949 -0.453838,-2.976806 -0.589843,-4.71875 0.02703,0.0057 0.04819,0.01175 0.07617,0.01758 0.460547,0.0959 1.031269,0.201477 1.603516,0.300781 0.572248,0.09931 1.138909,0.189849 1.582031,0.253907 0.221561,0.03203 0.405263,0.05802 0.585938,0.07617 0.09034,0.0091 0.160595,0.01837 0.341797,0.01953 0.0906,5.82e-4 0.154286,0.03343 0.5625,-0.0625 0.102053,-0.02398 0.233567,-0.0559 0.427734,-0.144531 0.09708,-0.04432 0.343379,-0.195057 0.34375,-0.195313 3.71e-4,-2.55e-4 0.448982,-0.407922 0.449219,-0.408203 2.36e-4,-2.81e-4 0.419821,-0.749694 0.419922,-0.75 1.01e-4,-3.06e-4 0.09964,-0.952793 0.09961,-0.953125 -3.6e-5,-3.32e-4 -0.212717,-0.745736 -0.212891,-0.746094 -1.73e-4,-3.58e-4 -0.28289,-0.442975 -0.283203,-0.443359 a 2.2651305,2.2651305 0 0 0 -0.0039,-0.0039 C 75.893795,33.04835 74.830812,30.115066 73.169922,26.035156 71.332168,21.520837 67.378389,18.351841 62.417969,17.458984 61.123368,17.175828 59.78419,17.028726 58.435547,17.072266 Z"
       transform="translate(-32.063531,-0.92435406)"
       inkscape:href="#path2" />
    <path
       d="m 42.0766,3.30369 c 0,0 -3.725,8.02491 -3.7583,8.00661 -6.9617,-3.50331 -15.1399,-3.32998 -21.9765,0.72 -4.5583,2.7866 -7.69831,7.4899 -7.98665,13.1665 -0.22666,4.485 1.18999,7.965 0.98666,11.5416 -0.11166,1.945 -0.47166,3.185 -1.35999,4.83 C 6.8435,43.4684 5.47851,45.115 3.2002,45.2417 3.70686,44.6084 7.22516,42.8734 5.84184,34.9051 5.29351,31.7451 0.950213,23.9102 5.14851,14.0869 8.98015,5.11701 25.56,-5.50958 42.0766,3.30369 Z"
       fill="#18453B"
       id="path1"
       style="fill:#ffffff" />
    <path
       style="fill:#ffffff"
       sodipodi:type="inkscape:offset"
       inkscape:radius="1.9935141"
       inkscape:original="M 29.876953 0.009765625 C 18.066322 -0.29914063 8.0221675 7.35852 5.1484375 14.085938 C 0.9501405 23.909237 5.2934669 31.744297 5.8417969 34.904297 C 7.2251169 42.872597 3.7078319 44.608888 3.2011719 45.242188 C 5.4794819 45.115488 6.8441019 43.468359 7.9824219 41.568359 C 8.8707519 39.923359 9.2301369 38.683281 9.3417969 36.738281 C 9.5451269 33.161681 8.1288087 29.682266 8.3554688 25.197266 C 8.6438088 19.520666 11.783497 14.81785 16.341797 12.03125 C 23.178397 7.98127 31.356659 7.8072369 38.318359 11.310547 C 38.351659 11.328847 42.076172 3.3027344 42.076172 3.3027344 C 37.947022 1.0994169 33.81383 0.11273438 29.876953 0.009765625 z "
       xlink:href="#path1"
       id="path22"
       inkscape:href="#path1"
       d="M 29.929687,-1.9824219 C 17.228719,-2.3146148 6.6326872,5.5347297 3.3144531,13.302734 c -2.2720514,5.316213 -2.2381817,10.193195 -1.5625,14.03711 0.6756818,3.843915 1.9549722,6.926387 2.125,7.90625 0.6387835,3.679567 0.124398,5.600765 -0.421875,6.671875 -0.2731364,0.535555 -0.5651143,0.875894 -0.8378906,1.146484 -0.2727763,0.27059 -0.4206948,0.241716 -0.9726563,0.931641 A 1.9937134,1.9937134 0 0 0 3.3125,47.232422 c 1.5953141,-0.08872 2.9855561,-0.765868 4.0117187,-1.654297 1.0261627,-0.888429 1.7500099,-1.950968 2.3691407,-2.984375 a 1.9937134,1.9937134 0 0 0 0.042969,-0.07813 c 0.9805489,-1.815771 1.4727939,-3.523111 1.5957029,-5.664063 0.237263,-4.173487 -1.189236,-7.537726 -0.986328,-11.552734 0.25375,-4.995624 2.977104,-9.079467 7.025391,-11.558594 6.255598,-3.699868 13.67722,-3.8557801 20.050781,-0.648437 l -0.06445,-0.0332 c 1.3e-4,7.1e-5 2.120851,-0.12678 2.121094,-0.126953 2.42e-4,-1.73e-4 0.302113,-0.262765 0.359375,-0.330078 0.114524,-0.134628 0.138337,-0.180556 0.164062,-0.220704 0.05145,-0.08029 0.06312,-0.107372 0.07813,-0.134765 0.03001,-0.05479 0.04671,-0.08591 0.06641,-0.125 0.03939,-0.07819 0.08368,-0.169209 0.138672,-0.283203 0.109986,-0.227989 0.259356,-0.542408 0.4375,-0.919922 C 41.078944,10.16294 41.547377,9.1596607 42.015625,8.15625 42.95212,6.1494287 43.884766,4.1425781 43.884766,4.1425781 A 1.9937134,1.9937134 0 0 0 43.015625,1.5449219 C 38.617086,-0.80214159 34.162851,-1.8717038 29.929687,-1.9824219 Z" />
    <path
       style="fill:#ffffff"
       sodipodi:type="inkscape:offset"
       inkscape:radius="1.3300141"
       inkscape:original="M 29.324219 10.826172 C 28.164431 10.738259 27.09375 10.762344 26.21875 10.839844 L 26.048828 16.621094 L 26.050781 16.621094 C 26.290781 16.624394 26.655409 16.680997 26.662109 16.654297 C 26.730409 16.377697 26.955878 14.398125 28.642578 12.953125 C 30.520878 11.346425 32.985938 11.505234 32.960938 11.490234 C 31.731787 11.114384 30.484006 10.914084 29.324219 10.826172 z "
       xlink:href="#path3"
       id="path24"
       inkscape:href="#path3"
       d="m 29.423828,9.5 c -1.23956,-0.09396 -2.37641,-0.068151 -3.322266,0.015625 a 1.3301471,1.3301471 0 0 0 -1.21289,1.285156 l -0.169922,5.78125 a 1.3301471,1.3301471 0 0 0 1.330078,1.369141 h -0.01563 c 0.02473,3.4e-4 0.159414,0.0096 0.289063,0.02148 0.06482,0.006 0.125856,0.01367 0.220703,0.01758 0.04742,0.002 0.09461,0.0055 0.220703,-0.0059 0.06305,-0.0057 0.140583,-0.0054 0.320312,-0.06641 0.04493,-0.01525 0.09781,-0.03588 0.160157,-0.06641 0.06234,-0.03052 0.218303,-0.134427 0.21875,-0.134765 4.46e-4,-3.38e-4 0.269253,-0.273061 0.269531,-0.273438 2.77e-4,-3.77e-4 0.218645,-0.464426 0.21875,-0.464843 a 1.3301471,1.3301471 0 0 0 0.002,-0.0059 c 0.06476,-0.262264 0.05887,-0.308119 0.105469,-0.509765 0.0466,-0.201647 0.117282,-0.458817 0.226562,-0.740235 0.21856,-0.562836 0.584956,-1.213446 1.222656,-1.759765 0.704301,-0.60246 1.561623,-0.897411 2.257813,-1.03125 0.348095,-0.06692 0.651551,-0.09355 0.859375,-0.103516 0.103912,-0.005 0.182011,-0.0057 0.238281,-0.0059 0.02814,-9.5e-5 0.04892,9e-5 0.07813,0 0.0146,-4.6e-5 0.02516,5.49e-4 0.07813,-0.002 0.02648,-0.0013 0.192546,-0.02328 0.19336,-0.02344 2.03e-4,-3.9e-5 0.175652,-0.04683 0.175781,-0.04687 1.29e-4,-4.4e-5 0.46479,-0.273389 0.464844,-0.273437 5.3e-5,-4.9e-5 0.337912,-1.490181 0.33789,-1.490235 -2.2e-5,-5.3e-5 -0.546777,-0.63666 -0.546875,-0.636719 A 1.3301471,1.3301471 0 0 0 33.349609,10.21875 C 32.006118,9.8079369 30.663747,9.593986 29.423828,9.5 Z" />
    <path
       d="m 26.05,16.6219 c 0.24,0.0033 0.605,0.06 0.6117,0.0333 0.0683,-0.2766 0.2933,-2.2566 1.98,-3.7016 1.8783,-1.6067 4.3449,-1.4483 4.3199,-1.4633 -2.4583,-0.7517 -4.9933,-0.805 -6.7433,-0.65 l -0.17,5.7816 z"
       fill="#18453B"
       id="path3"
       style="fill:#ffffff" />
    <path
       style="fill:#ffffff"
       sodipodi:type="inkscape:offset"
       inkscape:radius="3.1648374"
       inkscape:original="M 10.408203 23.830078 C 10.034903 26.210078 10.257812 28.072266 10.632812 29.572266 C 10.636112 29.587266 10.56375 27.576894 11.71875 26.433594 C 12.72535 25.435294 14.007891 25.242812 14.462891 25.257812 C 14.462891 25.251113 14.691856 24.478163 14.660156 24.476562 L 10.410156 23.830078 L 10.408203 23.830078 z "
       xlink:href="#path4"
       id="path27"
       inkscape:href="#path4"
       d="M 10.408203,20.666016 A 3.1651538,3.1651538 0 0 0 7.28125,23.339844 c -0.437643,2.790223 -0.1727085,5.129526 0.2714844,6.933593 0.021795,0.0422 0.7382812,1.427735 0.7382812,1.427735 0,0 5.4785074,-1.710873 5.4785154,-1.710938 1.7e-5,-1.28e-4 0.02635,-0.298377 0.02734,-0.335937 0.002,-0.07512 1.6e-5,-0.08035 0,-0.0918 -3.3e-5,-0.02289 1.4e-5,-0.0225 0,-0.02539 -2.7e-5,-0.0058 -7.8e-5,-0.0083 0,-0.01563 1.56e-4,-0.01468 0.0013,-0.04601 0.0039,-0.0918 0.0053,-0.09158 0.02067,-0.237801 0.04883,-0.380859 0.05632,-0.286115 0.20083,-0.469296 0.0957,-0.365234 a 3.1651538,3.1651538 0 0 0 0.002,-0.002 c 0.196673,-0.195052 1.043965,-0.238936 0.412109,-0.259766 a 3.1651538,3.1651538 0 0 0 3.267578,-3.164063 c 0,-5.2e-5 -0.05472,0.593896 -0.05469,0.59375 2.7e-5,-1.45e-4 -0.02169,0.09678 -0.02734,0.121094 -0.01131,0.04864 -0.01586,0.06597 -0.01953,0.08008 -0.0066,0.02522 -0.0065,0.03034 -0.0078,0.03516 0.0045,-0.01589 0.01238,-0.04724 0.02344,-0.08594 0.0221,-0.07741 0.05229,-0.183242 0.08398,-0.298828 0.0317,-0.115586 0.0639,-0.231932 0.09961,-0.384766 0.01785,-0.07642 0.03591,-0.145557 0.06445,-0.333984 0.01427,-0.09421 0.04294,-0.188929 0.03906,-0.535156 -9.68e-4,-0.08656 -0.004,-0.192089 -0.02148,-0.339844 -0.01747,-0.147755 -0.138424,-0.618386 -0.138672,-0.619141 -2.48e-4,-7.54e-4 -0.69299,-1.173432 -0.69336,-1.173828 -1.85e-4,-1.98e-4 -0.919705,-0.681534 -0.919922,-0.68164 -2.16e-4,-1.06e-4 -1.234127,-0.318347 -1.234374,-0.31836 l 0.316406,0.03125 -4.25,-0.646484 a 3.1651538,3.1651538 0 0 0 -0.476563,-0.03516 z" />
    <path
       d="m 10.4083,23.8302 c -0.3733,2.38 -0.15,4.2416 0.225,5.7416 0.0033,0.015 -0.07,-1.995 1.085,-3.1383 1.0066,-0.9983 2.29,-1.1916 2.745,-1.1766 0,-0.0067 0.2283,-0.7784 0.1966,-0.78 L 10.41,23.8302 Z"
       fill="#18453B"
       id="path4"
       style="fill:#ffffff" />
    <path
       d="m 15.1685,23.3885 c 0.1233,-0.3183 0.275,-0.5966 0.4583,-0.9583 l -4.3683,-1.695 c -0.2717,0.545 -0.4767,1.36 -0.5783,1.8033 z"
       fill="#18453B"
       id="path5"
       style="fill:#ffffff" />
    <path
       d="m 16.2219,21.7219 c 0.0117,-0.0133 0.7017,-0.8933 0.715,-0.8833 l -4.0033,-3.01 c -0.4167,0.5266 -0.7567,1.105 -1.0283,1.7166 l 4.3183,2.1767 z"
       fill="#18453B"
       id="path6"
       style="fill:#ffffff" />
    <path
       style="fill:#ffffff"
       sodipodi:type="inkscape:offset"
       inkscape:radius="5.7728786"
       inkscape:original="M 15.134766 15.330078 C 14.353166 16.010078 14.115272 16.314531 13.638672 16.894531 L 17.712891 20.085938 L 17.712891 20.083984 C 17.734491 20.060584 18.603516 19.275391 18.603516 19.275391 L 15.134766 15.330078 z "
       xlink:href="#path7"
       id="path26"
       inkscape:href="#path7"
       d="m 15.519531,9.5703125 a 5.7734559,5.7734559 0 0 0 -4.173828,1.4042965 c -0.987719,0.859326 -1.7222552,1.711494 -2.1679686,2.253907 a 5.7734559,5.7734559 0 0 0 0.9003906,8.210937 l 4.074219,3.191406 a 5.7734559,5.7734559 0 0 0 9.332031,-4.541015 L 21.955078,24 c -0.541621,0.586756 -0.281379,0.284123 -0.292969,0.294922 0.01419,-0.01302 0.04496,-0.04262 0.08398,-0.07813 0.07804,-0.07102 0.186651,-0.169514 0.294922,-0.267578 0.21654,-0.19613 0.433593,-0.390625 0.433593,-0.390625 a 5.7734559,5.7734559 0 0 0 0.464844,-8.095703 l -3.46875,-3.945313 A 5.7734559,5.7734559 0 0 0 15.519531,9.5703125 Z" />
    <path
       d="m 17.7132,20.0836 c 0.0216,-0.0234 0.8899,-0.8084 0.8899,-0.8084 l -3.4683,-3.9449 c -0.7816,0.68 -1.02,0.985 -1.4966,1.565 l 4.075,3.1899 z"
       fill="#18453B"
       id="path7"
       style="fill:#ffffff" />
    <path
       d="m 19.5134,18.7152 c 0.0067,0.0484 0.9967,-0.5533 1.0183,-0.5983 l -2.5766,-4.6916 c -0.9867,0.4766 -1.615,0.9866 -1.9033,1.19 z"
       fill="#18453B"
       id="path8"
       style="fill:#ffffff" />
    <path
       d="m 21.425,17.6769 c 1.23,-0.4183 1.225,-0.43 1.225,-0.4083 L 21.1884,11.997 c -0.815,0.2383 -1.9167,0.71 -2.1767,0.885 l 2.415,4.7949 z"
       fill="#18453B"
       id="path9"
       style="fill:#ffffff" />
    <path
       style="fill:#ffffff"
       sodipodi:type="inkscape:offset"
       inkscape:radius="2.6930735"
       inkscape:original="M 24.857422 11.009766 C 24.812422 11.054766 23.532013 11.247987 22.445312 11.554688 L 23.601562 16.960938 C 23.646563 16.982637 24.709356 16.724256 24.722656 16.722656 L 24.857422 11.009766 z "
       xlink:href="#path10"
       id="path25"
       inkscape:href="#path10"
       d="m 24.878906,8.3164063 a 2.6933428,2.6933428 0 0 0 -1.925781,0.7890625 c -7.03e-4,7.031e-4 0.401866,-0.3337906 0.523437,-0.40625 0.121572,-0.07246 0.203127,-0.112772 0.269532,-0.1425782 0.132808,-0.059612 0.201161,-0.079093 0.251953,-0.095703 0.101584,-0.033221 0.129312,-0.039227 0.144531,-0.042969 0.03044,-0.00748 -0.0093,0.00202 -0.06641,0.013672 -0.114219,0.023294 -0.319462,0.062744 -0.5625,0.1113282 -0.486076,0.097168 -1.133612,0.2316257 -1.800781,0.4199218 A 2.6933428,2.6933428 0 0 0 19.8125,12.117188 l 1.15625,5.406249 a 2.6933428,2.6933428 0 0 0 1.462891,1.863282 c 3.51e-4,1.69e-4 0.315872,0.131004 0.43164,0.164062 0.115768,0.03306 0.208962,0.05106 0.28711,0.06445 0.156295,0.02679 0.258015,0.03349 0.339843,0.03711 0.163657,0.0072 0.246253,7.53e-4 0.314453,-0.0039 0.136402,-0.0093 0.198748,-0.01881 0.25586,-0.02734 0.114224,-0.01707 0.18383,-0.03171 0.259765,-0.04687 0.151871,-0.03032 0.303052,-0.06397 0.451172,-0.09766 0.14812,-0.03369 0.289204,-0.06695 0.394532,-0.0918 0.05266,-0.01242 0.09719,-0.02274 0.125,-0.0293 0.0139,-0.0033 0.0245,-0.0057 0.02539,-0.0059 8.92e-4,-2.06e-4 -0.272315,0.04697 -0.271484,0.04687 a 2.6933428,2.6933428 0 0 0 2.36914,-2.609375 l 0.134766,-5.71289 A 2.6933428,2.6933428 0 0 0 24.878906,8.3164063 Z" />
    <path
       d="m 23.6015,16.9619 c 0.045,0.0217 1.1083,-0.2367 1.1216,-0.2383 l 0.135,-5.7133 c -0.045,0.045 -1.3266,0.2383 -2.4133,0.545 z"
       fill="#18453B"
       id="path10"
       style="fill:#ffffff" />
  </g>
  <g
     id="g21"
     transform="translate(-1.2074354,1.9926081)">
    <path
       d="m 42.0766,3.30369 c 0,0 -3.725,8.02491 -3.7583,8.00661 -6.9617,-3.50331 -15.1399,-3.32998 -21.9765,0.72 -4.5583,2.7866 -7.69831,7.4899 -7.98665,13.1665 -0.22666,4.485 1.18999,7.965 0.98666,11.5416 -0.11166,1.945 -0.47166,3.185 -1.35999,4.83 C 6.8435,43.4684 5.47851,45.115 3.2002,45.2417 3.70686,44.6084 7.22516,42.8734 5.84184,34.9051 5.29351,31.7451 0.950213,23.9102 5.14851,14.0869 8.98015,5.11701 25.56,-5.50958 42.0766,3.30369 Z"
       fill="#18453b"
       id="path12" />
    <path
       d="m 23.0785,19.0319 c 2.1467,-0.7733 4.5533,-0.7883 6.8333,-0.2833 4.305,0.76 7.5266,3.3583 9.0966,7.2149 1.6433,4.0367 2.8233,7.2933 5.6466,10.7433 0.08,0.0983 -4.4083,-0.66 -4.3916,-0.7834 1.0983,-7.9982 -6.4633,-8.3299 -8.5483,-5.3333 1.5683,1.725 4.2617,2.6117 6.3533,2.275 -0.4433,7.9433 1.7717,15.1516 1.6467,15.1349 -1.8017,-0.25 -10.0566,-5.1049 -12.4699,-7.2149 -3.5467,0.6316 -6.3233,1.9416 -10.43,2.5099 -0.1266,0.0167 0.7534,-3.0299 0.6267,-4.5482 0,-4.1783 -3.2016,-8.095 -0.9367,-13.2266 1.3584,-3.0783 3.4067,-5.3483 6.5717,-6.4883 z"
       fill="#18453b"
       id="path13" />
    <path
       d="m 26.05,16.6219 c 0.24,0.0033 0.605,0.06 0.6117,0.0333 0.0683,-0.2766 0.2933,-2.2566 1.98,-3.7016 1.8783,-1.6067 4.3449,-1.4483 4.3199,-1.4633 -2.4583,-0.7517 -4.9933,-0.805 -6.7433,-0.65 l -0.17,5.7816 z"
       fill="#18453b"
       id="path14" />
    <path
       d="m 10.4083,23.8302 c -0.3733,2.38 -0.15,4.2416 0.225,5.7416 0.0033,0.015 -0.07,-1.995 1.085,-3.1383 1.0066,-0.9983 2.29,-1.1916 2.745,-1.1766 0,-0.0067 0.2283,-0.7784 0.1966,-0.78 L 10.41,23.8302 Z"
       fill="#18453b"
       id="path15" />
    <path
       d="m 15.1685,23.3885 c 0.1233,-0.3183 0.275,-0.5966 0.4583,-0.9583 l -4.3683,-1.695 c -0.2717,0.545 -0.4767,1.36 -0.5783,1.8033 z"
       fill="#18453b"
       id="path16" />
    <path
       d="m 16.2219,21.7219 c 0.0117,-0.0133 0.7017,-0.8933 0.715,-0.8833 l -4.0033,-3.01 c -0.4167,0.5266 -0.7567,1.105 -1.0283,1.7166 l 4.3183,2.1767 z"
       fill="#18453b"
       id="path17" />
    <path
       d="m 17.7132,20.0836 c 0.0216,-0.0234 0.8899,-0.8084 0.8899,-0.8084 l -3.4683,-3.9449 c -0.7816,0.68 -1.02,0.985 -1.4966,1.565 l 4.075,3.1899 z"
       fill="#18453b"
       id="path18" />
    <path
       d="m 19.5134,18.7152 c 0.0067,0.0484 0.9967,-0.5533 1.0183,-0.5983 l -2.5766,-4.6916 c -0.9867,0.4766 -1.615,0.9866 -1.9033,1.19 z"
       fill="#18453b"
       id="path19" />
    <path
       d="m 21.425,17.6769 c 1.23,-0.4183 1.225,-0.43 1.225,-0.4083 L 21.1884,11.997 c -0.815,0.2383 -1.9167,0.71 -2.1767,0.885 l 2.415,4.7949 z"
       fill="#18453b"
       id="path20" />
    <path
       d="m 23.6015,16.9619 c 0.045,0.0217 1.1083,-0.2367 1.1216,-0.2383 l 0.135,-5.7133 c -0.045,0.045 -1.3266,0.2383 -2.4133,0.545 z"
       fill="#18453b"
       id="path21" />
  </g>
</svg>
