<?xml version="1.0" encoding="UTF-8" standalone="no"?>
<svg
   height="203.54013"
   viewBox="0 0 223.96562 203.54297"
   width="223.96562"
   id="svg3822"
   version="1.1"
   inkscape:version="1.4 (86a8ad7, 2024-10-11)"
   sodipodi:docname="ND.svg"
   xmlns:inkscape="http://www.inkscape.org/namespaces/inkscape"
   xmlns:sodipodi="http://sodipodi.sourceforge.net/DTD/sodipodi-0.dtd"
   xmlns="http://www.w3.org/2000/svg"
   xmlns:svg="http://www.w3.org/2000/svg"
   xmlns:rdf="http://www.w3.org/1999/02/22-rdf-syntax-ns#"
   xmlns:cc="http://creativecommons.org/ns#"
   xmlns:dc="http://purl.org/dc/elements/1.1/">
  <metadata
     id="metadata3836">
    <rdf:RDF>
      <cc:Work
         rdf:about="">
        <dc:format>image/svg+xml</dc:format>
        <dc:type
           rdf:resource="http://purl.org/dc/dcmitype/StillImage" />
      </cc:Work>
    </rdf:RDF>
  </metadata>
  <defs
     id="defs3834" />
  <sodipodi:namedview
     pagecolor="#ffffff"
     bordercolor="#666666"
     borderopacity="1"
     objecttolerance="10"
     gridtolerance="10"
     guidetolerance="10"
     inkscape:pageopacity="0"
     inkscape:pageshadow="2"
     inkscape:window-width="3440"
     inkscape:window-height="1377"
     id="namedview3832"
     showgrid="false"
     inkscape:zoom="1.6153206"
     inkscape:cx="107.71855"
     inkscape:cy="151.36314"
     inkscape:window-x="-8"
     inkscape:window-y="-8"
     inkscape:window-maximized="1"
     inkscape:current-layer="svg3822"
     inkscape:showpageshadow="2"
     inkscape:pagecheckerboard="0"
     inkscape:deskcolor="#d1d1d1" />
  <path
     id="path1"
     style="fill:#162040;fill-opacity:1"
     sodipodi:type="inkscape:offset"
     inkscape:radius="14.269108"
     inkscape:original="M 38.046875 3.1660156 L 38.046875 27.589844 L 53.371094 27.589844 L 53.371094 40.070312 L 2.5351562 40.070312 L 2.5351562 64.5 L 13.617188 64.5 L 13.617188 116.83594 L 2.5351562 116.83594 L 2.5351562 141.26562 L 53.371094 141.26562 L 53.371094 153.74609 L 38.046875 153.74609 L 38.046875 178.16992 L 93.037109 178.16992 L 93.037109 153.74609 L 77.798828 153.74609 L 77.798828 141.26562 L 117.31055 141.26562 L 136.30078 178.16992 L 158.21875 178.16992 L 158.21875 141.26562 L 179.4375 141.26562 L 197.96484 122.73828 L 197.96484 58.535156 L 179.4375 40.070312 L 158.21875 40.070312 L 158.21875 27.589844 L 173.5 27.589844 L 173.5 3.1660156 L 118.4668 3.1660156 L 118.4668 27.589844 L 133.79492 27.589844 L 133.79492 40.070312 L 94.289062 40.070312 L 75.302734 3.1660156 L 38.046875 3.1660156 z M 38.046875 64.5 L 53.371094 64.5 L 53.371094 116.83594 L 38.046875 116.83594 L 38.046875 64.5 z M 77.798828 64.5 L 104.74023 116.83594 L 77.798828 116.83594 L 77.798828 64.5 z M 106.85742 64.5 L 133.79492 64.5 L 133.79492 116.83594 L 106.85742 64.5 z M 158.21875 64.5 L 169.38477 64.5 L 173.5 68.650391 L 173.5 112.62305 L 169.32227 116.83789 L 158.21875 116.83789 L 158.21875 64.5 z "
     d="M 38.046875,-11.103516 A 14.270535,14.270535 0 0 0 23.777344,3.1660156 V 25.800781 H 2.5351563 A 14.270535,14.270535 0 0 0 -11.734375,40.070312 V 64.5 A 14.270535,14.270535 0 0 0 -0.65234375,77.916016 V 103.41992 A 14.270535,14.270535 0 0 0 -11.734375,116.83594 v 24.42968 A 14.270535,14.270535 0 0 0 2.5351563,155.53516 H 23.777344 v 22.63476 a 14.270535,14.270535 0 0 0 14.269531,14.26953 h 54.990234 a 14.270535,14.270535 0 0 0 14.269531,-14.26953 v -22.63476 h 1.29883 l 15.00781,29.16406 a 14.270535,14.270535 0 0 0 12.6875,7.74023 h 21.91797 a 14.270535,14.270535 0 0 0 14.26953,-14.26953 v -22.63476 h 6.94922 a 14.270535,14.270535 0 0 0 10.08984,-4.17969 l 18.52735,-18.52735 a 14.270535,14.270535 0 0 0 4.17968,-10.08984 V 58.535156 A 14.270535,14.270535 0 0 0 208.03711,48.427734 L 189.50977,29.962891 a 14.270535,14.270535 0 0 0 -2.01563,-1.34375 14.270535,14.270535 0 0 0 0.27539,-1.029297 V 3.1660156 A 14.270535,14.270535 0 0 0 173.5,-11.103516 H 118.4668 A 14.270535,14.270535 0 0 0 104.19727,3.1660156 V 25.800781 h -1.20313 L 87.990234,-3.3613281 a 14.270535,14.270535 0 0 0 -12.6875,-7.7421879 z"
     transform="translate(11.732978,11.103516)" />
  <path
     d="M 49.780239,14.269349 V 38.693428 H 65.103106 V 51.173569 H 14.26724 V 75.60303 h 11.082196 v 52.33713 H 14.26724 v 24.42945 h 50.835866 v 12.48015 H 49.780239 v 24.42407 H 104.77013 V 164.84976 H 89.531212 v -12.48015 h 39.511798 l 18.99074,36.90476 h 21.91767 v -36.90476 h 21.21869 l 18.52825,-18.52825 V 69.639401 L 191.17011,51.174108 H 169.95142 V 38.693966 h 15.28089 V 14.269887 H 130.19936 V 38.693966 H 145.5276 V 51.174108 H 106.02119 L 87.035833,14.269349 h -37.25721 z m 0,61.333949 H 65.103106 V 127.94042 H 49.780239 Z m 39.751251,0 26.94206,52.337122 H 89.53149 Z m 29.05943,0 h 26.93668 v 52.337122 z m 51.3605,0 h 11.1664 l 4.11449,4.151349 v 43.972543 l -4.17746,4.2143 H 169.95142 V 75.604375 Z"
     id="path3830"
     inkscape:connector-curvature="0"
     style="fill:#be9c00;fill-opacity:1" />
</svg>
