<?xml version="1.0" encoding="UTF-8" standalone="no"?>
<svg
   width="105.31836"
   height="88.425781"
   viewBox="0 0 105.31836 88.425781"
   fill="none"
   version="1.1"
   id="svg2"
   sodipodi:docname="ORE.svg"
   inkscape:version="1.4 (86a8ad7, 2024-10-11)"
   xmlns:inkscape="http://www.inkscape.org/namespaces/inkscape"
   xmlns:sodipodi="http://sodipodi.sourceforge.net/DTD/sodipodi-0.dtd"
   xmlns="http://www.w3.org/2000/svg"
   xmlns:svg="http://www.w3.org/2000/svg">
  <defs
     id="defs2" />
  <sodipodi:namedview
     id="namedview2"
     pagecolor="#ffffff"
     bordercolor="#000000"
     borderopacity="0.25"
     inkscape:showpageshadow="2"
     inkscape:pageopacity="0.0"
     inkscape:pagecheckerboard="0"
     inkscape:deskcolor="#d1d1d1"
     inkscape:zoom="3.671875"
     inkscape:cx="20.970213"
     inkscape:cy="57.055319"
     inkscape:window-width="1644"
     inkscape:window-height="1211"
     inkscape:window-x="52"
     inkscape:window-y="52"
     inkscape:window-maximized="0"
     inkscape:current-layer="svg2" />
  <path
     id="path2"
     style="fill:#f9f94f;fill-opacity:1"
     sodipodi:type="inkscape:offset"
     inkscape:radius="4.4096189"
     inkscape:original="M 55.945312 7.6972656 C 36.168813 7.7063556 22.256956 14.197656 16.191406 20.097656 C 7.792297 28.365856 7.6972656 38.0659 7.6972656 47.625 C 7.6972656 57.1841 7.878558 66.711444 16.191406 74.902344 C 22.256956 80.797844 36.168813 87.289134 55.945312 87.302734 C 75.726412 87.293734 89.640272 80.802344 95.701172 74.902344 C 104.10488 66.629644 104.19531 56.932841 104.19531 47.369141 C 104.19531 37.805541 104.01408 28.284056 95.701172 20.097656 L 95.707031 20.097656 C 89.641531 14.197656 75.726412 7.7063565 55.945312 7.6972656 z M 56.007812 13.601562 C 64.629413 13.601562 70.890381 16.815099 74.613281 20.574219 C 79.348481 25.401419 80.701172 28.088716 80.701172 47.666016 C 80.701172 67.243316 79.348481 69.928559 74.613281 74.755859 C 70.890381 78.519459 64.633912 81.738281 56.007812 81.738281 C 47.381712 81.738281 41.126503 78.519459 37.408203 74.755859 C 32.668303 69.928559 31.318359 67.247816 31.318359 47.666016 C 31.318359 28.084216 32.668303 25.401419 37.408203 20.574219 C 41.126503 16.819649 47.386212 13.601564 56.007812 13.601562 z "
     d="M 55.943359,3.2871094 C 35.202889,3.2966425 20.439629,9.8149135 13.117188,16.9375 a 4.4100598,4.4100598 0 0 0 -0.01953,0.01758 C 3.4816624,26.421197 3.2871094,38.036675 3.2871094,47.625 c 0,9.614854 0.3008696,21.049721 9.8085936,30.417969 a 4.4100598,4.4100598 0 0 0 0.02149,0.02148 c 7.321997,7.116723 22.084222,13.634175 42.824218,13.648438 a 4.4100598,4.4100598 0 0 0 0.0059,0 C 76.692135,91.703452 91.45781,85.18772 98.777344,78.0625 a 4.4100598,4.4100598 0 0 0 0.01758,-0.01758 c 9.620098,-9.470125 9.810548,-21.084284 9.810548,-30.675781 0,-9.619308 -0.30252,-21.050729 -9.810548,-30.414063 l -0.0039,0.0078 A 4.4100598,4.4100598 0 0 0 98.78125,16.9375 C 91.458277,9.8143375 76.692112,3.2966432 55.947266,3.2871094 a 4.4100598,4.4100598 0 0 0 -0.0039,0 z m 0.06445,14.7246096 c 7.5212,0 12.598149,2.766522 15.466797,5.660156 2.218238,2.261441 2.940681,3.028637 3.679688,5.986328 0.740407,2.963296 1.136719,8.320723 1.136719,18.007813 0,9.687089 -0.396369,15.045144 -1.136719,18.007812 -0.73923,2.958185 -1.461201,3.722618 -3.681641,5.986328 -2.870808,2.899276 -7.940374,5.667969 -15.464844,5.667969 -7.521348,0 -12.587521,-2.766471 -15.453125,-5.662109 l -0.0059,-0.0059 c -2.224721,-2.265803 -2.946307,-3.028232 -3.685547,-5.986328 -0.74008,-2.961457 -1.134765,-8.318244 -1.134765,-18.007812 0,-9.689569 0.394628,-15.047681 1.134765,-18.009766 0.738177,-2.95424 1.46116,-3.720966 3.677735,-5.978516 l 0.0059,-0.0039 c 2.864445,-2.889903 7.940593,-5.662108 15.460937,-5.662109 z"
     transform="translate(-3.2871094,-3.2871089)" />
  <path
     d="m 92.419257,16.810157 c -6.0655,-5.9 -19.9808,-12.3909094 -39.7619,-12.4000003 -19.7765,0.00909 -33.6872,6.5000003 -39.75275,12.4000003 -8.3991099,8.2682 -8.4944508,17.9682 -8.4944508,27.5273 0,9.5591 0.181602,19.0863 8.4944508,27.2772 6.06555,5.8955 19.97625,12.3864 39.75275,12.4 19.7811,-0.009 33.6964,-6.5 39.7573,-12.4 8.403703,-8.2727 8.494503,-17.9681 8.494503,-27.5318 0,-9.5636 -0.1816,-19.0863 -8.494503,-27.2727 m -21.0885,54.6591 c -3.7229,3.7636 -9.9791,6.9818 -18.6052,6.9818 -8.6261,0 -14.8823,-3.2182 -18.6006,-6.9818 -4.7399,-4.8273 -6.0883,-7.5091 -6.0883,-27.0909 0,-19.5818 1.3484,-22.2637 6.0883,-27.0909 3.7183,-3.75457 9.979,-6.97275 18.6006,-6.97275 8.6216,0 14.8823,3.21363 18.6052,6.97275 4.7352,4.8272 6.0882,7.5136 6.0882,27.0909 0,19.5773 -1.353,22.2636 -6.0882,27.0909 z"
     fill="#008842"
     id="path1" />
  <g
     inkscape:groupmode="layer"
     id="layer1"
     inkscape:label="Layer 1"
     transform="translate(4.4101562,4.4101567)" />
</svg>
