<?xml version="1.0" encoding="UTF-8" standalone="no"?>
<svg
   width="68"
   height="64"
   viewBox="0 0 68 64"
   fill="none"
   version="1.1"
   id="svg14"
   sodipodi:docname="RICE.svg"
   inkscape:version="1.4 (86a8ad7, 2024-10-11)"
   xmlns:inkscape="http://www.inkscape.org/namespaces/inkscape"
   xmlns:sodipodi="http://sodipodi.sourceforge.net/DTD/sodipodi-0.dtd"
   xmlns="http://www.w3.org/2000/svg"
   xmlns:svg="http://www.w3.org/2000/svg">
  <defs
     id="defs14" />
  <sodipodi:namedview
     id="namedview14"
     pagecolor="#ffffff"
     bordercolor="#000000"
     borderopacity="0.25"
     inkscape:showpageshadow="2"
     inkscape:pageopacity="0.0"
     inkscape:pagecheckerboard="0"
     inkscape:deskcolor="#d1d1d1"
     inkscape:zoom="6.4910193"
     inkscape:cx="29.348241"
     inkscape:cy="44.754142"
     inkscape:window-width="1495"
     inkscape:window-height="1211"
     inkscape:window-x="12"
     inkscape:window-y="22"
     inkscape:window-maximized="0"
     inkscape:current-layer="svg14" />
  <mask
     id="mask0_4732_282265"
     style="mask-type:luminance"
     maskUnits="userSpaceOnUse"
     x="0"
     y="0"
     width="68"
     height="64">
    <path
       d="M67.1329 0H0V64H67.1329V0Z"
       fill="white"
       id="path1" />
  </mask>
  <g
     mask="url(#mask0_4732_282265)"
     id="g2"
     style="fill:#13185b;fill-opacity:1">
    <path
       d="M18.9011 14.545C20.2258 8.02545 24.6503 8.23361 25.2755 8.23804C25.7739 8.24247 27.0287 8.39749 27.8507 8.64995C28.5414 8.86254 32.9397 10.7715 35.4537 10.1514C37.0276 9.84137 38.7196 7.91472 38.6846 7.95015C38.6846 7.95015 37.0626 12.5121 35.2744 13.8497C34.5836 14.3546 33.0709 15.6744 30.1241 15.8427C27.9556 15.9668 26.0231 15.112 24.8033 14.6469C24.8208 14.6513 23.1201 13.9028 21.5243 14.3413C20.322 14.6735 18.8836 16.5381 18.748 16.6843V16.2414C18.748 16.2414 18.8005 15.0012 18.9011 14.545ZM31.873 19.4303C31.7899 19.8776 31.7374 21.7378 31.7374 21.3569V31.03V40.7031C31.7374 40.7385 32.0828 43.4048 29.582 45.5219C26.3117 48.2857 24.0076 49.2866 23.9377 49.3663C23.9464 49.3531 25.2668 48.64 25.2668 46.5937V35.5521C25.2668 35.5521 23.7409 35.5432 23.6579 35.5477C20.3438 35.4192 21.0128 37.4433 21.0128 37.4433C21.0128 37.4433 20.2914 37.2218 19.6137 35.7558C18.8836 34.1791 18.9054 31.5128 19.4694 30.1265C20.2389 28.2353 21.7866 28.2441 23.0501 28.2441C23.6054 28.2441 25.293 28.1954 25.293 28.1688C25.2711 22.7787 25.2712 23.0001 25.2712 22.1586C25.2712 19.5676 28.5196 18.4116 28.677 18.354L32.6774 16.6887C32.6468 16.7994 32.1353 17.9067 31.873 19.4303ZM47.691 7.4231C53.366 10.0983 53.2042 16.9456 53.2086 16.9854C53.4447 18.5843 52.9594 22.6414 51.0706 25.7196C50.7427 26.2555 49.0289 28.5542 46.3444 30.6225C46.7379 30.3214 48.2769 31.8671 48.5655 32.1771C50.2268 33.9886 51.3067 37.2263 51.862 39.0688C51.9057 39.2149 53.7026 46.2749 53.8425 46.607C54.4284 47.9889 54.6645 48.4672 55.6045 48.8393C56.457 49.1803 57.174 48.9456 58.5906 48.1838C58.5906 48.1838 56.6319 51.3639 56.0898 52.3825C55.4777 53.5297 54.1486 56.0365 54.1486 56.0365C54.1486 56.0365 51.8882 56.4041 49.4355 54.4066C47.8747 53.1355 47.0833 50.5312 46.6942 49.26C46.6111 48.9899 44.2765 52.0504 44.2765 52.0504L41.1548 56.4086C41.1548 56.4086 37.0189 53.9726 35.1651 53.4632C32.2577 52.573 29.324 52.8875 27.6102 53.3348C25.0307 54.0124 21.568 56.2624 21.568 56.2624C21.568 56.2624 22.0883 55.1596 22.5911 54.5306C24.4929 51.6562 28.4234 47.6877 32.9441 46.5185C34.0284 46.2926 35.082 46.08 36.9139 46.1863C39.629 46.3413 44.5913 48.3609 44.3945 48.2901C44.7224 48.4097 45.0591 48.5204 45.3957 48.6311L46.1084 48.0022C46.0734 47.9668 45.8592 47.2803 45.5968 46.1818C45.4307 45.4821 45.2777 44.2729 45.2689 44.1799C45.2602 44.0869 44.5869 39.9546 44.4863 39.5205C44.3289 38.5461 43.6381 36.0836 42.9211 34.963C42.72 34.5556 42.1079 34.0152 41.7101 33.8159C41.474 33.714 41.2204 33.6564 40.9537 33.6564L40.8881 35.8045L40.8925 39.0068C40.8925 39.3655 40.8094 40.7607 39.7689 41.6155C38.1993 43.3295 35.716 44.4855 35.0908 44.7335C33.9016 45.296 32.3757 45.4378 32.2577 45.5219C34.0502 44.2153 33.9978 42.8025 34.0284 42.364C34.0371 42.2533 34.0896 31.1363 34.0896 31.1363V20.0194C34.0896 19.9839 34.177 17.734 34.8285 16.609C35.3181 15.763 35.7772 15.2714 36.6472 14.6823L42.1648 10.9752L47.691 7.4231ZM40.9493 15.0499L40.8925 23.5449C40.8925 23.5449 40.8925 30.8086 40.9493 31.9778C41.0062 33.1471 46.9478 30.3568 47.6298 22.6945C47.761 21.7821 47.7785 21.9637 47.6954 20.5021C47.6123 19.4436 47.5293 13.5263 44.1147 12.0825C44.1147 12.078 41.4827 13.4112 40.9493 15.0499Z"
       fill="white"
       id="path2"
       style="fill:#13185b;fill-opacity:1" />
  </g>
  <mask
     id="mask1_4732_282265"
     style="mask-type:luminance"
     maskUnits="userSpaceOnUse"
     x="0"
     y="0"
     width="68"
     height="64">
    <path
       d="M67.1329 0H0V64H67.1329V0Z"
       fill="white"
       id="path3" />
  </mask>
  <g
     mask="url(#mask1_4732_282265)"
     id="g4"
     style="fill:#13185b;fill-opacity:1">
    <path
       d="M57.3972 53.6138C58.0573 53.6138 58.5951 54.1541 58.5951 54.8273C58.5951 55.4961 58.0617 56.0409 57.3972 56.0409C56.737 56.0409 56.1992 55.5005 56.1992 54.8273C56.2036 54.1585 56.737 53.6138 57.3972 53.6138ZM57.3972 55.7973C57.9349 55.7973 58.3372 55.3943 58.3372 54.8273C58.3372 54.2604 57.9393 53.8574 57.3972 53.8574C56.8594 53.8574 56.4572 54.2604 56.4572 54.8273C56.4572 55.3943 56.8594 55.7973 57.3972 55.7973ZM56.9468 54.0877H57.4759C57.795 54.0877 57.9568 54.2161 57.9568 54.5084C57.9568 54.7875 57.795 54.8982 57.5983 54.9203L57.9961 55.5005H57.7207L57.3228 54.9292H57.1873V55.5005H56.9512V54.0877H56.9468ZM57.1829 54.7077H57.3491C57.5414 54.7077 57.7163 54.6945 57.7163 54.5084C57.7163 54.3446 57.5589 54.3091 57.4015 54.3091H57.1829V54.7077Z"
       fill="white"
       id="path4"
       style="fill:#13185b;fill-opacity:1" />
  </g>
  <mask
     id="mask2_4732_282265"
     style="mask-type:luminance"
     maskUnits="userSpaceOnUse"
     x="0"
     y="0"
     width="68"
     height="64">
    <path
       d="M67.1329 0H0V64H67.1329V0Z"
       fill="white"
       id="path5" />
  </mask>
  <g
     mask="url(#mask2_4732_282265)"
     id="g6"
     style="fill:#13185b;fill-opacity:1">
    <path
       d="M23.8329 39.9501V39.897H23.8066L23.8329 39.9501Z"
       fill="white"
       id="path6"
       style="fill:#13185b;fill-opacity:1" />
  </g>
  <mask
     id="mask3_4732_282265"
     style="mask-type:luminance"
     maskUnits="userSpaceOnUse"
     x="0"
     y="0"
     width="68"
     height="64">
    <path
       d="M67.1329 0H0V64H67.1329V0Z"
       fill="white"
       id="path7" />
  </mask>
  <g
     mask="url(#mask3_4732_282265)"
     id="g8"
     style="fill:#13185b;fill-opacity:1">
    <path
       d="M23.5741 39.8927H21.8034L20.4437 42.7938L19.2064 44.4015L14.4365 43.3208L13.1643 42.6565L11.5991 40.5216L9.57917 35.1049L5.37763 31.7344L4.58191 30.977L2.65821 28.6739L2.31719 28.3107L6.97342 28.386L9.86335 28.293L13.1511 28.3373L14.5283 28.386L18.1484 28.324L19.8491 26.5834L19.7223 17.7695L17.5757 20.1302L17.6544 25.6887L17.2346 26.1183L15.429 26.1227L14.4977 26.1759L9.84586 26.0829L6.96031 26.1759L0 26.0607V29.0415L1.0318 30.1488L2.99923 32.4962L3.95234 33.4041L7.62049 36.3362L7.74728 36.4425L9.63601 41.5226L11.7171 44.3882L13.6277 45.3848L20.0765 46.8641L22.2756 44.0073L23.1806 42.1072H23.8321V39.9857L23.5741 39.8927Z"
       fill="white"
       id="path8"
       style="fill:#13185b;fill-opacity:1" />
  </g>
  <mask
     id="mask4_4732_282265"
     style="mask-type:luminance"
     maskUnits="userSpaceOnUse"
     x="0"
     y="0"
     width="68"
     height="64">
    <path
       d="M67.1329 0H0V64H67.1329V0Z"
       fill="white"
       id="path9" />
  </mask>
  <g
     mask="url(#mask4_4732_282265)"
     id="g10"
     style="fill:#13185b;fill-opacity:1">
    <path
       d="M19.6875 2.2101H32.5195L32.5107 8.59682C33.1316 8.72969 33.748 8.81384 34.3033 8.81384C34.4388 8.81384 34.5612 8.80498 34.6793 8.79613L34.7099 0H17.5059L17.5102 14.1287C17.7201 13.1322 18.3059 11.0417 19.6919 9.3409L19.6875 2.2101Z"
       fill="white"
       id="path10"
       style="fill:#13185b;fill-opacity:1" />
  </g>
  <mask
     id="mask5_4732_282265"
     style="mask-type:luminance"
     maskUnits="userSpaceOnUse"
     x="0"
     y="0"
     width="68"
     height="64">
    <path
       d="M67.1329 0H0V64H67.1329V0Z"
       fill="white"
       id="path11" />
  </mask>
  <g
     mask="url(#mask5_4732_282265)"
     id="g12"
     style="fill:#13185b;fill-opacity:1">
    <path
       d="M67.0751 32.0001L66.8871 29.4799L64.6443 23.6911L64.5918 18.6021L63.783 17.393L63.595 15.6524L61.6538 13.9649L58.9781 14.1775L56.7614 12.8621L54.5055 13.3935L54.1426 13.4378C54.3656 14.2616 54.4923 15.0102 54.5623 15.6081L54.8815 15.5682L56.4073 15.2139L58.4665 16.4363L60.9236 16.2414L61.527 16.7641L61.68 18.1814L62.4276 19.2931L62.4757 24.0277L64.7448 29.8962L64.9109 32.1019L64.9678 35.2687L64.5306 38.1343L63.372 38.6215L60.3859 41.5403L58.1386 43.6574L56.6609 44.5565L54.9164 45.0304C55.052 45.5397 55.1569 45.9206 55.2006 46.0668C55.4323 46.6115 55.5722 46.9216 55.6859 47.1076L57.4478 46.6293L59.4109 45.46L61.8942 43.1347L64.5087 40.5304L66.498 39.6889L67.1451 35.4104L67.0751 32.0001Z"
       fill="white"
       id="path12"
       style="fill:#13185b;fill-opacity:1" />
  </g>
  <mask
     id="mask6_4732_282265"
     style="mask-type:luminance"
     maskUnits="userSpaceOnUse"
     x="0"
     y="0"
     width="68"
     height="64">
    <path
       d="M67.1329 0H0V64H67.1329V0Z"
       fill="white"
       id="path13" />
  </mask>
  <g
     mask="url(#mask6_4732_282265)"
     id="g14"
     style="fill:#13185b;fill-opacity:1">
    <path
       d="M46.8469 53.4631L46.6283 53.8618L46.6327 58.6141L46.6676 59.1811L47.6688 61.2229L47.3672 61.7543L44.6215 61.7765L42.1382 60.5364L40.3063 59.5398L38.7542 58.2244L38.3913 56.5236C37.1628 55.8637 35.7637 55.1683 34.9199 54.907L36.1397 56.4129L36.7868 59.4335L39.0865 61.3646L41.1414 62.494L44.1231 63.9866L48.6394 63.9467L50.1478 61.2672L48.8274 58.6939L48.8143 55.7485C48.7225 55.6777 48.6307 55.6068 48.5345 55.5315C47.8481 54.9867 47.2928 54.2471 46.8469 53.4631Z"
       fill="white"
       id="path14"
       style="fill:#13185b;fill-opacity:1" />
  </g>
</svg>
