<?xml version="1.0" encoding="utf-8"?>
<!-- Generator: Adobe Illustrator 20.1.0, SVG Export Plug-In . SVG Version: 6.00 Build 0)  -->
<svg version="1.1" id="Layer_1" xmlns="http://www.w3.org/2000/svg" xmlns:xlink="http://www.w3.org/1999/xlink" x="0px" y="0px"
	 viewBox="0 0 91.8 101.4" style="enable-background:new 0 0 91.8 101.4;" xml:space="preserve">
<style type="text/css">
	.st0{fill:#FFFFFF;}
	.st1{fill:#98002E;}
	.st2{fill:#231F20;}
</style>
<title>scar-light</title>
<path class="st0" d="M68.9,59.2c-0.1,0.1-0.3,0.1-0.4,0.2c0,0.1,0.7,0.3,0.7,0.3c0.1,0,0-0.5,0-0.6S69,59.1,68.9,59.2z"/>
<path class="st0" d="M53.6,35c0.2,0.8,0.9,1.4,1.8,1.5c-0.7-0.3-1.6-2.1-1.3-3.5C53.6,33.5,53.4,34.3,53.6,35z"/>
<path class="st0" d="M26.9,39.5c-0.5-1.1-0.7-1-0.7-1c-0.6,1.1-1.1,2.3-1.4,3.5c-0.5,1.7-0.6,3.5-0.3,5.2c0.5,2.2,0.5,3,1.8,5
	c-0.1-1.4-0.7-4.7-0.3-6.8S27.8,40.9,26.9,39.5z"/>
<path class="st0" d="M25.8,25.2c-0.4-0.5-1-0.9-1.6-1c-0.7,0.1-1.4,0.4-1.9,0.8c-0.4,0.4-1,1.1-0.9,1.4s1.5,0,2.5,0s2.1,0.4,2.3,0
	S26.2,25.8,25.8,25.2z"/>
<path class="st0" d="M31.2,35.6c-0.3-1.2-0.8-2.4-1.4-3.4c-0.1-0.1-0.3-0.4-0.5-0.1c-0.3,0.8-0.7,1.6-1.2,2.3
	c-0.1,0.2-0.2,0.3,0,0.5c0.5,0.3,1.7,1.5,2,4.1c0.2,1.7,0.2,3.4-0.2,5.1C31.3,41.4,31.8,38.4,31.2,35.6z"/>
<path class="st0" d="M85.1,62.4c-2.4-0.3-4.8-0.8-7.1-1.5l-1-0.3c0.6-0.3,1.1-0.8,1.4-1.5c0.1-0.1,0.5-1,0.6-1.1s-0.4-0.2-0.3-0.3
	c0.1,0,0.2-0.1,0.3-0.1c0.8-0.4,0.4-0.9,0.6-1.1c0.1-0.1,0.2-0.1,0.2-0.2c0.3-0.7,0.3-1.6-0.1-2.3c-0.2-0.4-0.5-0.8-0.9-1.1l0.4-0.1
	c0.6-0.2,1.2-0.4,1.8-0.7c0.2-0.2,0.4-0.4,0.6-0.7l0.1-0.1c1.4-0.5,2.5-1.8,2.8-3.2l0.4-1.7l-1.7,0.5c-3.5,1.1-7.2,1.6-10.9,1.6
	c-2.7,0-5.5-0.2-8.2-0.6c1-0.7,2-1.3,3.1-1.8c0.8-0.3,1.7-0.5,2.6-0.5c0,0.4,0.1,0.8,0.2,1.2c0.3,0.7,1,1.2,1.8,1.3
	c1.6,0.2,3.2-0.4,4.4-1.5c0.2-0.2,0.3-0.3,0.4-0.3c0.3,0.1,0.6,0.1,0.9,0.1l3.9-0.1L80,44.9l2.9,1.2l-1.5-2.6
	c-0.4-0.8-1-1.5-1.8-1.9c-0.1,0-1-0.3-1-0.5c0-0.3-0.1-0.7-0.2-1c-0.4-1.3-1.4-2.4-2.6-3c-0.8-0.4-1.6-0.6-2.5-0.5
	c-1.6,0.2-1.9,0.8-2.1,1.6c-0.7,0.1-1.4,0-2-0.3c-0.9-0.3-4-5.6-4-5.7s-0.1,0.9-0.4,2.1c-0.2-0.3-1-1.4-1-1.4c0.3-0.5,0.5-1,0.6-1.6
	c0.1-0.7,0.1-1.4-0.2-2.1C64,29.1,64,29,63.9,28.9c0-0.7,0.6-4.3,0.6-4.3l-3,2.6c-0.7-0.2-1.5-0.4-2.3-0.5l0.1-1.1l0.2-1.8l-1.6,0.7
	c-1.6,0.7-2.2,2.6-2.4,3.6c-0.2-0.2-0.3-0.4-0.3-0.4c-0.3-0.3-0.6-0.7-1-0.9c-0.2-0.2-0.4-0.4-0.6-0.7c-0.3-0.9-0.4-1.9-0.4-2.8
	c0-0.6-0.1-1.7-0.1-1.7s-1.9,3.1-1.9,3.1c-0.1,0.3-0.2,0.6-0.3,0.9c-0.4-0.5-0.8-0.9-1.3-1.3c-0.6-0.5-2.9-2-2.9-2l1.7,3.4
	c0.3,0.6,0.5,1.2,0.4,1.9c-0.6-0.5-1.2-1-1.8-1.5L44.1,24l1.2,3.3c0.2,0.6,0.3,1.2,0.3,1.8c-0.5-0.4-1.1-0.7-1.6-1l-1.6-0.6
	c-0.3-0.5-0.7-1-1.2-1.3l-2.8-2.1l1.3,3.3c0.1,0.2,0.1,0.5,0.2,0.8c-0.1,0.2-0.2,0.4-0.4,0.5c-1.5,1.3-1.6,3.6-0.3,5.1
	c0.1,0.1,0.2,0.2,0.3,0.3l0.3,3.2L37,35.7c-0.2-1.3-0.6-2.5-1.1-3.7c-0.9-2.5-2.8-4.5-5.2-5.6c-0.3-1.2-1-2.3-1.9-3.1
	c-1.1-0.9-2.5-1.4-3.9-1.5c-1.2,0.1-2.5,0.3-3.6,0.8c-1.8,0.8-3.4,1.9-4.8,3.4c-1.5,0.2-2.9,0.8-4.1,1.6c-2.7,2.6-5.9,4.6-9.5,5.9
	H2.8L1,34.1c0.5,0.6,1,1.1,1.6,1.5l0.2,0.1c1.8,1.1,4,1.3,5.9,0.6c1.1-0.4,2.1-0.8,3.1-1.4c-1,1.5-1.9,2.7-1.9,2.7s-0.8,1-1.4,1.6
	c0.5,0,1,0,1.5,0c1.1-0.2,2.2-0.5,3.3-1c0.7-0.4,2.7-1.8,2.7-1.9c0.9-1,1.8-2.1,2.6-3.2c0.2-0.3,0.4-0.5,0.4-0.5
	c0.3,0.7,0.8,1.3,1.5,1.8l0.8,0.5c0.3,0.2,0.7,0.4,1,0.7c-0.3,0.9-0.7,2.6-1,3.9c-0.3,1-0.5,1.8-0.5,2c-0.6-0.6-1.4-1.1-2.2-1.4
	c-0.4-0.2-0.9-0.3-1.4-0.4c-2.1-0.3-4.6,0.9-6.5,3.3c-1,1.3-1.7,2.9-2,4.5c0,0.8-0.5,1.5-1.3,1.7c-0.4,0-0.8-0.2-1.1-0.5L5,46.9
	l-0.4,2.2c-0.4,1.8,0.6,3.6,2.3,4.2c0.9,0.3,2.6,0,3.7-2c0.3-0.7,0.5-1.5,0.5-2.3c0-0.2,0-0.3,0.1-0.5c0.1-0.5,0.3-1.1,0.7-1.5
	c0.8-1.1,2.2-1.7,3.6-1.5c1.2,0.4,2.4,1.1,3.2,2.1l0.2,0.3h-0.2c-1.8,0.2-3.4,0.8-4.9,1.8c-2.5,1.5-4.4,4.6-4.3,7.3
	c0,1.4,0.2,2.7,0.5,4c0.3-1.1,0.7-2.3,1.2-3.3c1.2-2.3,3.5-3.8,6.1-3.8c0.4,0,0.9,0,1.3,0.1c0.5,0.1,1,0.2,1.5,0.4
	c-0.5,0.2-1,0.5-1.5,0.8c-0.4,0.3-0.8,0.6-1.2,1c-1.4,1.5-2.1,3.5-2,5.6c0,0.7,0.2,1.3,0.3,2c0.2,0.5,0.4,0.9,0.7,1.3
	c0.3-0.8,0.5-1,0.5-1c0.3,0.3,0.7,0.4,1.1,0.5l0.7,0.1c0.5,0.1,1,0.1,1.5,0.1c-0.4,0.7-0.9,1.2-1.5,1.7c-0.2,0.1-0.4,0.3-0.6,0.4
	c-0.9,0.5-1.8,0.8-2.8,1c0.6,0.5,1.4,0.9,2.2,1c0.3,0,0.8,0.1,1.2,0.1c0.9,0,1.9-0.1,2.7-0.5c0.2-0.1,0.4-0.2,0.6-0.3
	c0,0.5-0.2,0.9-0.6,1.2c-0.1,0.1-0.2,0.2-0.3,0.3h0.3l1,0.1c1.1,0,2.2-0.3,3.1-0.8c-0.1,0.2-0.1,0.4-0.2,0.6
	c-0.1,0.6-0.3,1.3-0.5,1.9c-0.3,1-0.5,1.9-0.6,2.9c1.1-0.2,2.1-0.6,3-1.2c0.5-0.4,1-0.8,1.6-1.1c0.5-0.4,0.9-0.9,1-1.5
	c0.3,0,0.7-0.1,1-0.2c-0.2,0.5-0.5,1.1-0.8,1.6l-2.2,3.3l3.5-1.8c1.2-0.6,2.2-1.5,3-2.6l0.3-0.5c0,0.1-0.3,2.4-0.3,2.4l1.9-1.3
	c0.2-0.1,0.4-0.3,0.5-0.5l0.8,0.1c0.9,0,1.8-0.6,2-1.5c1.2-0.1,3.9,0.3,4.4,0.9c0.5,0.8,1.3,1.5,2.1,1.9c0.6,0.3,1.3,0.4,2,0.5
	c0.4,0,0.8,0.1,1.2,0.2c0.9,0.2,1.7,0.5,2.5,1c-0.2,1.3-0.8,2.4-1.5,3.5c-0.2,0.3-0.3,0.6-1.1,2l0.7-0.1c1-1.3,3.3-5,2.4-6.1
	c-1-0.6-2.1-1.1-3.2-1.3c-0.9-0.1-1.8-0.3-2.6-0.5c-0.8-0.3-1.5-0.9-2-1.7c-1.1-1.4-6.2-1.5-6.1-1.1c-0.1,1.3-1,1.2-1,1.2
	s0.3-2.1-0.9-2.1c0,0,0.1,0.2-0.2,1.1c-0.1,0.6-0.5,1.2-0.9,1.6c0.1-0.6,0-1.3-0.3-1.9c-0.3-0.9-0.2-0.8-0.5-1.3
	c-0.3,1-0.7,2-1.4,2.8c-0.7,1-1.5,1.8-2.6,2.4c0.4-0.7,0.8-1.5,1.1-2.3c0.3-0.8,0.3-1.6,0.1-2.4c-0.2,0.4-0.5,0.8-0.8,1.1
	c-0.3,0.3-0.7,0.5-1.1,0.6c0.4-0.8,0.6-1.7,0.7-2.6c-0.1-0.1-0.3,0-0.4,0c-0.4,0.2-0.8,0.2-1.2,0.8s-0.1,3-1.1,3.5s-2.6,2-2.8,1.8
	s0.7-2.5,0.9-3.5s2.1-1.6,2.5-2.2c0.4-0.6,0.6-1.4,0.6-2.1C29,65.3,27.8,66,26.7,66c-0.5,0-1,1.5-1.5,2c-0.9,0.6-1.9,1-2.9,1
	c1.9-1.6,1.6-2.8,1.6-2.8c-1.1,0.2-1.8,1.2-2.9,1.5c-1.3,0.4-2.7,0.5-4,0.4c0.3-0.2,0.7-0.2,1-0.4c1.3-0.5,2.3-1.5,3-2.7
	c0.8-1.1,1.2-1.7,4-1.6c0.3,0.1,1.9-1.6,1.5-1.9c-0.6-0.3-1.7,0.1-1.9,0c-0.8,0.2-1.9,1.5-2.5,1.8c-1.2,0.5-2.5,0.7-3.8,0.4
	c0.7-0.4,1.2-1,1.5-1.7c0.9-1.5,2.1-2.8,3.6-3.7v-0.1c-0.3-0.2-0.7-0.1-1-0.2c-2.6,0.3-4.9,2-6,4.4c-0.2-0.1-0.1-0.4-0.2-0.6
	c-0.1-1.8,0.5-3.5,1.7-4.8c1.3-1.1,2.9-1.9,4.6-2.2c0.1-0.1,0.1-0.1,0-0.2c-1.7-1-3.6-1.5-5.5-1.6c-2.9,0.1-5.5,1.8-6.8,4.4
	c-0.2,0.1-0.1-0.2-0.1-0.2c0.3-2.6,1.7-5,4-6.5c1.5-1.1,3.3-1.7,5.1-1.7c0.6,0,1.2,0.1,1.8,0.2c0.1,0,0-0.2,0-0.2
	c-1.6-1.7-3.1-3.8-5.5-4.4c-1.7-0.3-3.5,0.4-4.5,1.8c-0.4,0.6-0.7,1.3-0.8,2C10,49.4,9.8,50.2,9.5,51c-0.4,1-1.4,1.6-2.4,1.5
	c-1.2-0.5-1.8-1.7-1.6-3c0.5,0.6,1.3,1,2.1,0.9c1.2-0.3,2.1-1.4,2.2-2.7c0.2-1.4,0.8-2.8,1.7-3.9c1.4-1.8,3.5-3.2,5.5-2.9
	c1.7,0.3,3.2,1.3,4.2,2.8c0.1,0.1,0.2-0.1,0.2-0.2c0.5-2.6,1.9-7.7,2.1-8.1c-0.1-0.4-1.9-1.4-2.4-1.7c-0.5-0.4-1-1-1.2-1.6
	c-0.1-0.6-0.1-1.1,0-1.7c0.5,0.8,1.3,1.4,2.2,1.7c0.8,0.3,1.7,0.5,2.6,0.6l0.9-2.1c0,0,0.4-0.8,0.6-1.2l-0.3-0.2
	c-1.1-0.7-4.6,0.6-6.5,0.8c-1.1,2-2.4,3.9-3.9,5.6c-0.6,0.7-1.4,1.3-2.2,1.8c-0.7,0.5-1.5,0.8-2.3,1.1c-0.2,0-0.8,0.4-1,0.1
	c1.6-1.1,2.9-2,3.1-3.3c0.3-1.2,0.7-2.3,1.3-3.3c-0.1-0.1-0.5,0.5-0.8,0.7c-1.6,1.2-3.3,2.2-5.2,2.8c-1.7,0.6-3.5,0.4-5-0.5
	c0-0.1,0-0.1,0-0.2c3.7-1.3,7-3.3,9.8-6c1.2-0.8,2.5-1.3,3.9-1.5l0.2-0.1c2-2.3,4.8-3.8,7.8-4.1c1.1,0.1,2.2,0.5,3.1,1.2
	c0.9,0.8,1.4,1.8,1.7,2.9c0.3,0.2,0.6,0.3,0.9,0.5c1.9,1.1,3.4,2.8,4.3,4.8c1.1,2.4,1.5,5.1,1.1,7.8c0,2.4-0.7,4.7-2,6.7
	c-3.6,6-1,9.7,0.5,9.7c2.3,0.3,3.6-3.4,4.9-4.7c0.9-1,2-1.8,3.2-2.4c-0.5-0.4-1.6-0.9-2.1-1.5c1.2,0.1,2.5,0,3.7-0.3
	c0,0-3.7-0.3-5.1-1.9c0,0,5,0.5,5-0.1c-2.3,0.1-4.5-1.2-5.5-3.3c0,0,2.2,0.9,2.9,0.5c0,0-3.1-2.7-3.8-5.6c0.7,0.3,5.6,3.6,6.2,3.4
	c0,0-3.4-2.3-3.6-5.3c0,0,3.2,3.4,5.6,3.3c0,0-2.6-2.7-2.5-4.1s0.5-2.2,0.5-3.2c-0.1-0.8-0.2-1.6-0.5-2.3c0.5,0.2,1,0.5,1.4,0.9
	c0.6,0.6,1.1,1.5,1.3,1.7c0.4-1.6,0.4-3.2-0.1-4.8c0.6,0.4,1.1,0.9,1.6,1.4c0.5,0.6,0.9,1.4,1.1,2.2c0.7-1.7,0.8-3.5,0.1-5.2
	c0,0,0.6,0.7,0.9,1c0.9,0.9,1.3,2.1,1.2,3.4c0,1.3-0.7,2.2-0.4,3l0.8-1.3c0.6-0.9,0.8-2.1,0.4-3.1c-0.3-0.6-0.4-1.3-0.4-2
	c0.1-0.5,0.2-1,0.4-1.5c0,0,0,1.5,0.4,2.1c0.5,0.7,0.9,0.8,1.6,1.6c0.4,0.6,0.7,1.3,0.8,2c0.4-0.5,0.8-1,1.3-1.4
	c0.1-1,0.6-2.9,1.9-3.5c-0.1,0.8-0.2,1.6-0.1,2.5c0,0,0.4-0.1,0.8-0.2c0.3,0,0.6,0,0.9,0.1c-0.3,0.2-0.6,0.4-0.8,0.6
	c-0.2,0.2-0.6,0.7-0.6,0.7c0.2,1.2,0.5,2.3,0.9,3.4c0.5,1.3,1.1,2.4,2,3.5c0,0-1-2.4,0.1-2.8c0.2,1.1,0.8,2.1,1.6,2.9
	c-0.1-0.8-0.1-1.5-0.1-2.3c0,0,1.3,2,1.8,1.9c0.3-0.4,0.4-0.8,0.4-1.3c0.3,0.5,1.9,4,3.5,4.5c1,0.3,2,0.4,3,0.3
	c0.3,0.1,0.6,0.1,0.9,0c-0.2-0.2-0.5-0.5-0.4-1c0.1-0.5,0.6-0.7,1.1-0.7c0.7-0.1,1.3,0.1,1.9,0.4c1,0.5,1.7,1.5,2.1,2.5
	c0.2,0.4,0,1,0.2,1.2s0.9,0.4,1.2,0.6c0.8,0.3,1.4,0.9,1.8,1.7c-0.8-0.3-1.7-0.5-2.6-0.4c0.2,0.2,0.4,0.5,0.7,0.6
	c-0.1,0.3-1-0.2-1-0.1c0,0.4,0.6,0.7,1.6,1.1h-1.4c-0.4,0-0.7-0.1-1.1-0.2c-0.4,0.2-0.7,0.4-1,0.7c-0.9,1-2.2,1.5-3.6,1.2
	c-0.8,0-1.5-1.5-0.5-2.7c-1.5,0.2-3,0.5-4.5,0.8c-1.2,0.5-2.3,1.2-3.3,1.9c0,0,0.1-1.2-0.2-1.2s-1.1,0.6-1.2,1.1
	c-0.1,0.5,0,1,0.4,1.4c0.9,0.6,6,1.1,9.8,1.1c3.8,0,7.6-0.5,11.2-1.6c-0.5,2.3-2.3,2.4-2.7,2.8s0,0.4-0.4,0.6
	c-0.6,0.4-2.6,0.8-2.9,1.2S77,53,77,53c0.1,0,0.2,0.1,0.3,0.1c0.5,0.4,0.9,0.9,1.3,1.4c0.1,0.5,0.1,1,0,1.5l-0.3-0.2
	c-0.1,0.1,0,1.1-0.2,1.3c0-0.2-0.2-0.3-0.4-0.3c-0.2,0.1,0.1,0.5-0.3,1.2c0-0.4-0.2-0.8-0.4-1.1c-0.4-0.4-0.8-0.6-1.3-0.8
	c-0.5-0.1-0.9-0.1-1.4,0c0,0-0.9,0.5-1,0.9c0,0.5,0.2,1,0.6,1.3c0.9,0.2,1.8,0.2,2.7,0.1c0.2-0.1,0.5-0.2,0.6-0.4
	c-0.3,0.7-0.5,1.8-1.3,1.8c-1.2,0-2.4-0.1-3.6-0.3c-0.5-0.3-0.9-0.7-1.2-1.2c-0.2-0.1,0,2,0.1,2.1c1.3,0.4,3.8,1.2,5.6,1.7
	c2.5,0.6,5,1.1,7.6,1.5c1.6,0.4-4.6,1.8-4.7,1.9c0.2,0.2,0.5,0.1,0.7,0.3c0.9,2.5-4.6,1.5-5.7,1.8l0,0c0.3,0.2,0.6,0.3,1,0.4
	c-1,1-5,1.2-7.1,1.1c-1.8-0.2-3.6-0.5-5.3-1c0.1,0.2,1,0.9,0.4,0.9c-1.2,0-2.5,0-3.7-0.1c-1.8-0.3-3.6-0.9-5.2-1.8
	c-0.8-0.6-1-0.7-1.3-0.6s-0.6,0.6-1.1,0.9s-1.1,0.3-1.3,0.4s-0.2,0.6-0.3,1.2c-0.2,0.4-0.3,0.9-0.4,1.3c0,0.2,1.1,0.7,1.1,0.7
	l1.2,0.3c0,0,1.6-0.2,2.2,0.3c1.1,0.2,2-0.7,2.8-1c0.6-0.4,1.3-0.7,2-0.9c1.3,0.6,2.5,1.5,3.5,2.5c0.2,0.4,0.7,3.6,0.3,3.5
	c-0.1-0.1-0.2-0.2-0.3-0.2c0,0,0,0.4-0.2,0.5c0-0.1-0.3-0.2-0.3-0.2c-0.1,0.6-0.7,1.1-1.3,1.1c0.3-1.1,0.1-1.4,0.1-1.4
	c-0.4,0.2-0.9,0.2-1.2,0c0.8-0.3,0.5-1.3,0.5-1.3s0-0.7-0.9-0.8c-0.8-0.1-1.5,0-2.2,0.5c-0.3,0.6-0.4,1.4-0.1,2
	c0.1,0.3,0.4,0.6,0.7,0.8c0.3,0.3,0.7,0.4,1.1,0.4c0.4,0,0.8-0.1,1.2-0.3c0.3,0.6-0.7,1.1-0.7,1.1c-1.2,0.5-2.7,0.2-3.5-0.9
	c-0.4-0.9-0.6-2.3-1.2-2.9C55,73.9,54,73.8,54,74c-0.3,2.5-1.8,4.7-4,5.8c0.5-0.1,1-0.2,1.5-0.4c0.4-0.2,0.8-0.4,1.2-0.7
	c1-0.9,1.8-2,2.3-3.2c0-0.2,0.4,1.5,0.7,1.9c0.5,0.8,1.3,1.4,2.3,1.6c0.9,0.3,1.9,0.2,2.7-0.3l0.9-0.8l0.7-0.2
	c0.6-0.2,1.1-0.6,1.3-1.1c0.2,0.1,0.4,0.1,0.6,0.1l0.4-0.5c0.8-1-0.2-4.5-0.2-4.6c-0.5-0.6-1.1-1.2-1.8-1.7c0.6,0,1.3,0,1.5,0
	c0.4-0.1,0.7-0.2,0.9-0.5c1.3,0.3,2.6,0.5,3.9,0.7c1.6,0.1,6.4,0.1,7.9-1.4c0,0,0.1-0.2,0.2-0.2c1.8,0,3.8,0,4.7-1.2
	c0.2-0.4,0.3-0.9,0.3-1.4c3.3-0.9,4.2-1.3,4.2-2.3C86.1,63,85.7,62.5,85.1,62.4z M27,67c0.3,0,0.6-0.1,0.8-0.1
	c0,0.1-0.1,0.1-0.1,0.2c-0.1,0.1-1,0.6-1.2,0.8C26.6,67.7,26.9,67.1,27,67z M18.6,60.9c0.4-0.4,0.8-0.7,1.3-1c-0.4,0.5-0.7,1-1,1.5
	c-0.1,0.2-0.2,0.3-0.3,0.4c-0.2,0.3-0.5,0.6-0.8,0.9c-0.2,0.1-0.4,0.1-0.5,0.1C17.7,62.1,18.1,61.5,18.6,60.9z M39.1,44.7l-2.4-0.2
	l1.8,2c0.1,0.1,0.2,0.2,0.4,0.4h-0.5c0,0,0.8,1.2,1.2,1.6c0.3,0.4,0.7,0.7,1.2,1c-0.7,0.5-1.4,1.1-2,1.7c-0.5,0.6-1,1.2-1.3,1.8
	c-0.8,1.2-1.9,2.7-2.8,2.6c-0.1,0-0.6-0.3-0.9-1s-1.1-3.3,1.2-7.2c1.2-1.9,2-4.1,2.1-6.4l0.9,1.8C38.2,43.5,38.6,44.2,39.1,44.7z
	 M38.8,41.3l-1.7-0.7c0-0.1,0.1-1.6,0.1-2.2C37.5,39.5,38.1,40.4,38.8,41.3L38.8,41.3z M41.5,34.5c-0.6-0.3-1.2-0.7-1.8-1.2
	c-0.6-0.7-0.9-1.6-0.6-2.5c0.3-1,1.2-1.3,1.4-2.1c0.1-0.5,0-1-0.2-1.5c0.7,0.5,1.1,1.3,1.3,2.1c0.3,1.4-1.1,1.9-1.1,2.9
	C40.7,33,41,33.8,41.5,34.5L41.5,34.5z M42.7,33.7c-0.5-0.4-0.7-1-0.7-1.7c0-0.1,0.8-1.3,1-1.7c0.1,0.4,0.2,0.7,0.2,1.1
	C43.1,31.8,42.7,33.3,42.7,33.7z M60,31.5c0.1,0.3,0.2,0.6,0.3,0.9l-0.2,0.2c-0.4-1-0.7-2.1-0.9-3.1c0.3-0.3,0.7-0.6,1.1-0.9
	l-0.1,0.3C60,29.7,59.9,30.6,60,31.5z M62.9,31.3c-0.2,0.8-0.7,0.9-1,1.7c-0.5-0.4-0.8-0.9-0.8-1.5c-0.1-0.8-0.1-1.5,0.2-2.3
	c0.4-0.7,0.9-1.4,1.5-1.9c-0.1,0.6-0.1,1.1-0.1,1.7C62.6,29.8,63.1,29.9,62.9,31.3z M56.5,69.9c-0.5,0.3-0.9,0.8-1.4,0.5
	c-0.7-0.3-1.4-0.4-2.2-0.4c0,0-1.3-0.2-1.3-0.4s0.1-0.4,0.2-0.6s0-0.5,0.1-0.6s0.7-0.2,1.1-0.4c0.3-0.2,0.6-0.4,0.8-0.7
	c0.1-0.1,0,0,0.4,0.3c1.1,0.7,2.2,1.2,3.5,1.5C57.6,69.2,56.7,69.7,56.5,69.9z"/>
<path class="st0" d="M75.7,55.3c-0.4,0-0.8,0.1-1.1,0.3c0.3,0,0.7,0,1.1,0c0.5,0.2,1,0.5,1.4,0.9c0.1,0.1,0.2,0.3,0.3,0.5
	c0.1-0.2,0.1-0.5-0.1-0.7C76.9,55.8,76.3,55.4,75.7,55.3z"/>
<path class="st0" d="M74.7,53.9c0.7-0.1,1.4,0,2.1,0.1c0.3,0.2,1.5,1.1,1.6,1.5c0.1-0.3,0.1-0.6-0.1-0.9c-0.4-0.5-0.8-0.9-1.3-1.3
	c-1.1-0.2-2.2-0.2-3.3,0c-0.4,0.3-1.6,1.5-1.6,1.5c-0.4,0.4-0.9,0.8-1.3,1.2c-0.3,0.1-0.3,0-0.4,0.1c0,0.7,0.1,1.3,0.4,1.9
	c0.1,0,0.5-0.3,0.7-0.2c0.1,0.1,0.3,0.3,0.4,0.4c0,0,0.6,0.6,0.9,0.8c1.1,0.2,2.2,0.4,3.4,0.4c0.2,0,0.6-0.7,0.6-0.7
	c-0.6,0.3-2.8,0-3.1-0.1c-0.5-0.5-0.8-1.1-0.8-1.8c0.1-0.5,1.3-1.3,1.3-1.3c0.3-0.2,0.5-0.3,0.8-0.5c0.2-0.1,0.5-0.1,0.8-0.1
	c0.3,0,0.5,0.1,0.8,0.2c0.4,0.1,1.4,0.9,1.6,1.4c0.1-0.4,0.1-0.8-0.1-0.9c-0.4-0.5-0.9-0.9-1.4-1.3c-0.2-0.1-2-0.1-2.1-0.2
	S74.5,53.9,74.7,53.9z"/>
<path class="st0" d="M69.9,56.2c-0.4,0.1-0.7,0.1-1.1,0.2c-0.3,0-0.6,0.5-0.6,0.7c-0.1,0.2,0.1,0.4,0.3,0.8c0.1,0.4-0.1,1,0.1,1
	s0.4-0.3,0.6-0.4c0.3-0.1,0.8-0.1,1-0.2s0-0.5,0-0.9S70.1,56.2,69.9,56.2z"/>
<path class="st0" d="M69.8,59.8c-0.1,0.2,0.8,0.4,1,0.3s0-1.3-0.1-1.5c-0.1-0.3-0.8,0-1,0.1C69.5,58.8,69.7,59.8,69.8,59.8z"/>
<path class="st0" d="M68,59.1c0.2-0.9,0-1.7-0.3-1.7c-0.8,0-1.7,0.2-2.5,0.5C66,58.5,67,58.9,68,59.1z"/>
<path class="st0" d="M51,71c-0.4-0.2-0.8-0.6-1-0.6c-0.4,0.4-0.8,0.9-1,1.4c0,0.2,0.9,0.3,1.4,0.5c0.5,0.2,0.9,0.4,1.4,0.5
	c0.2,0,0.7-1.3,0.5-1.5S51.4,71.2,51,71z"/>
<path class="st0" d="M53.6,73.9c-0.3,0.1-0.6,0.1-0.9,0c0.4,1.6-1.9,5-1.9,5C51.4,78.7,53.5,76.8,53.6,73.9z"/>
<path class="st0" d="M54.6,73.5c0.5,0,1,0.3,1.2,0.8c0.4,0.8,0.6,2.3,1.1,2.7c0.4,0.4,0.9,0.7,1.5,0.7c1,0.1,1.4,0,1.5-0.3
	c-0.6,0.2-1.3,0.1-1.8-0.3c-0.4-0.2-0.7-0.6-0.9-0.9c-0.2-0.6-0.3-1.2-0.2-1.9c0.1-0.4,0.4-0.8,0.8-1c0.5-0.2,1-0.4,1.5-0.4
	c0.6-0.1,1.2,0.1,1.7,0.5c0.1,0.3,0.2,0.5,0.2,0.8c0.1,0.3,0,0.6-0.2,0.9c0.3,0.1,0.6-0.1,0.6-0.4c0.2,0.5,0.3,1,0.3,1.5
	c0.5-0.4,0.7-1,0.6-1.6c-0.1-0.7-0.4-1.3-0.7-1.9c-0.6-0.6-1.3-1-2.1-1.2c-0.4,0-1.9,0.8-2.1,0.6s1.6-1.2,2.3-1.2
	c0.9,0.3,1.7,0.8,2.3,1.5c0.5,0.8,0.7,1.7,0.8,2.6c0.8,0.1,0.3-2.4-0.1-2.9c-0.3-0.3-2.5-2.2-3.2-2.1c-1.1,0.5-2.2,1-3.3,1.7
	c-0.5,0.1-0.9,0.2-1.4,0.1c-0.1,0.1,0.1,0.4,0,0.9S54.5,73.4,54.6,73.5z"/>
<path class="st0" d="M54.1,73.5c0.2-0.1,0.4-1.3,0.3-1.7s-1.4-0.4-1.6-0.3s-0.2,0.6-0.3,0.9s-0.4,0.7-0.3,0.8
	C52.4,73.6,53.5,73.7,54.1,73.5z"/>
<path class="st0" d="M77.6,43.4c0.4,0,0.8,0,1.2,0.1c0.3,0.1,0.5,0.1,0.8,0.2c0,0-0.1-0.5-1-0.9c-0.4-0.2-0.9-0.5-1.3-0.4
	c-0.5,0.3-0.8,0.8-1,1.3c-0.2,0.5,0,1.1,0.5,1.3c0,0,0,0,0,0c0.4,0.1,0.8,0.1,1.1,0.1c-0.5-0.1-1-0.4-1.3-0.9
	C76.6,43.6,77.4,43.4,77.6,43.4z"/>
<path class="st0" d="M14.2,42.9c1.9-0.3,3.4,0.1,5.4,1.6c0,0-1.3-2.3-3.1-2.4C15.6,42,14.8,42.3,14.2,42.9z"/>
<path class="st0" d="M15.3,51.8c2-0.5,4.9-0.7,6.6,0.2c-0.5-0.8-1.4-1.4-2.5-1.4C18,50.7,16.6,51.1,15.3,51.8z"/>
<path class="st0" d="M32.9,44.6c0.7-1.1,1.3-3,1.3-6.1s-1.1-6.5-3.1-8c1.8,2.8,3,8.2,1.4,12.1c-0.2,0.5-2.4,4.5-1.5,6.3
	C31.3,47.4,32,45.9,32.9,44.6z"/>
<path class="st0" d="M27.4,47c-0.1,3.5,1.5,4,1.5,4c-0.9-3.1-0.8-6.4,0.3-9.4C28,43.2,27.4,45.1,27.4,47z"/>
<path class="st0" d="M19,32.7c0,0-0.2,0.2-0.4,0.5v7c0.8,0.3,1.5,0.8,2.2,1.4c0.1-0.2,0.3-1,0.5-2V35l-0.8-0.5
	C19.9,34,19.4,33.4,19,32.7z"/>
<path class="st0" d="M91.8,19.9L71.3,0H22.7L0,22.1v57.2l22.7,22.1h48.6l20.5-19.9v-9.6H70.5v8.4H21.3V69.9H21
	c0.1-0.1,0.2-0.2,0.3-0.3v-1c-0.9,0.4-1.8,0.5-2.7,0.5v13.9h54.6v-8.4h15.9v5.9L70.2,98.7H23.9L2.7,78.2V35.7l-0.2-0.1
	c-0.6-0.4-1.2-0.9-1.6-1.5l1.8-0.5V23.2L23.9,2.7h46.4L89.1,21v5.9H73.2v-8.5H18.6v5.8c0.8-0.6,1.8-1.1,2.7-1.5v-1.6h49.1v8.4h21.3
	V19.9z"/>
<path class="st1" d="M18.8,48l-0.2-0.3V48L18.8,48z"/>
<path class="st1" d="M20.1,54.5c-0.5-0.2-1-0.3-1.5-0.4v1.2C19.1,55,19.6,54.7,20.1,54.5z"/>
<path class="st1" d="M18.6,66.5c0.6-0.5,1.1-1.1,1.5-1.7c-0.5,0-1,0-1.5-0.1V66.5z"/>
<path class="st1" d="M18.6,60.9v1c0.1-0.1,0.2-0.3,0.3-0.4c0.3-0.6,0.6-1.1,1-1.6C19.4,60.1,19,60.5,18.6,60.9z"/>
<path class="st1" d="M19.8,25.8c-0.6,0.3-1.2,0.7-1.6,1.2c-0.9,0.9-1.6,2-2.1,3.1c-0.1,0.3-2.1,3.4-2.3,4.8
	c-0.1,0.9-0.6,1.7-1.3,2.3c1.4-0.9,2.6-2,3.5-3.4c1.1-1.6,2.1-3.2,3-5c0.6-1.1,1.3-2.2,2.2-3.3C21.4,25.2,20.2,25.6,19.8,25.8z"/>
<path class="st1" d="M27.8,33c0.7-1.1,1.2-2.4,1.3-3.8c0-0.8-0.1-1.7-0.4-2.4c-0.3-0.9-0.9-1.7-1.7-2.3C26.5,24,25,23.6,25,23.8
	s1.7,0.2,2.2,3.2c0.3,1.3-0.1,1.8-0.7,3.1c-0.3,0.5-0.5,1-0.7,1.6c-1.6,3.5-2.8,7.3-3.5,11.1c-0.2,1.3-0.3,2.6-0.1,3.9
	c0.6,2.7,1.7,5.3,3.4,7.6c1,1.6,3.6,3.2,6,3.7c-5-2.9-5.6-4.8-5.6-4.8s-3.8-6-1.3-12.6C25.5,38,26.6,35.4,27.8,33z"/>
<path class="st1" d="M20.9,27.3c-0.3,0.2-0.5,0.5-0.7,0.8c0,0.1-0.6,0.9-0.5,1c1.9,0,4.8-1.5,6.6-0.4c0.2,0,0.2-0.5,0.2-0.7
	s0-0.6-0.2-0.7c-0.8-0.1-1.7-0.2-2.5-0.2C22.8,27.1,21.9,27.2,20.9,27.3z"/>
<path class="st1" d="M15,30c0.3-0.4,0.5-0.9,0.7-1.4c0,0,0.2-0.2-0.2-0.2c-1.1,0.3-2.2,0.8-3.1,1.6c-1.9,1.9-4.1,3.4-6.6,4.5
	c-0.3,0.2-0.7,0.2-1,0.4c1.6,0,3.1-0.4,4.5-1.1C11.5,32.9,13.4,31.6,15,30z"/>
<path class="st1" d="M25.3,55.3c-0.8-1.5-1.6-3-2.6-4.4c-0.8-0.8-3.3-1.2-5.1-0.7c-1.7,0.5-3.3,1.4-4.6,2.6c-0.2,0.3-0.7,0.7-0.8,1
	l0.3-0.1C14.9,52,18.4,50.9,25.3,55.3z M19.4,50.6c1,0,1.9,0.6,2.5,1.4c-1.7-0.9-4.6-0.7-6.6-0.3C16.6,51.1,18,50.7,19.4,50.6z"/>
<path class="st1" d="M61.5,29.4c-0.2,0.7-0.3,1.4-0.2,2.2c0.1,0.8,0.5,1,0.5,1c0.3-0.7,0.9-0.7,0.9-1.6c0-0.6-0.1-1.1-0.3-1.6
	c-0.1-0.4-0.1-0.8,0-1.2C62,28.5,61.7,28.9,61.5,29.4z"/>
<path class="st1" d="M55,31.3c-0.4,0.8-0.6,1.8-0.4,2.7c0.1,0.9,0.6,1.7,1.2,2.2c0.5,0.2,0.8,0,1.5,0.2s1.3,0.4,1.3,0.4
	c-0.5-0.5-2-1.6-2.1-2.2c-0.2-0.8-0.3-1.7-0.2-2.5c0.2-1.6,2-3.8,2-3.8c-0.7,0.3-1.4,0.7-2,1.3C55.8,30.1,55.3,30.7,55,31.3z"/>
<path class="st1" d="M23.7,34.6c0.1-0.4,0.3-0.8,0.5-1.2c0.2-0.2-1.5-0.4-2.5-0.8c-0.6-0.3-1.1-0.6-1.5-1.1c0,0.2,0,0.4,0.1,0.6
	c0.2,0.5,0.5,0.8,1,1.2C22,33.8,22.8,34.3,23.7,34.6z"/>
<path class="st1" d="M56.9,27.5c-0.1,0.4-0.3,0.8-0.3,1.3c0.3-0.2,0.6-0.4,0.9-0.5c0-0.2-0.1-0.5-0.1-0.7c0-0.3,0-0.6,0.1-0.9
	C57.2,26.8,57,27.1,56.9,27.5z"/>
<path class="st1" d="M73.9,38.3c-0.8-0.2-1.6-0.2-1.7,0.4c-0.1,0.6,0.6,1,0.6,1c0.7,0.1,1.4,0.3,2,0.7c0.6,0.4,1.2,0.8,1.7,1.3
	c0-0.4-0.1-0.8-0.2-1.2C75.8,39.4,75,38.7,73.9,38.3z"/>
<path class="st1" d="M75.8,41.6c-0.2-0.3-1.3-1-1.7-1c-0.7,0.3-1.3,0.8-1.8,1.3c-0.1,0.2,0.2,0.6,0.4,0.8c0.2,0.2,0.4,0.4,0.7,0.4
	c0.2-0.1,0.5-0.2,0.6-0.5c0.1-0.1-0.1-0.1-0.2-0.1c-0.5-0.1-0.5-0.9,0.1-1.2c0.6-0.2,1.2,0,1.4,0.6c0.2,0.3,0.6,0.5,0.9,0.7
	c0.1,0,0.3-0.2,0.3-0.3S76.1,41.8,75.8,41.6z"/>
<path class="st1" d="M71.3,46.2c0.3,0.5,0.6,0.5,1.4,0.5c1.3,0,2.6-1.6,3.2-1.8c0.2-0.1,0.2-0.3,0.1-0.5c0,0,0,0,0-0.1
	c-0.7-0.2-1.4-0.2-2.2-0.2c-0.7,0-1.4,0.1-2,0.3C71.6,44.6,71,45.8,71.3,46.2z"/>
<path class="st1" d="M14.4,43.9c3.3,0,5.6,2.6,7.7,4.9v-0.1c-0.2-0.6-1.7-7.1-5.6-7.1c-2,0.2-3.8,1.4-4.7,3.1h0.1
	C12.6,44.2,13.5,43.9,14.4,43.9z M16.5,42c1.8,0.1,3.1,2.4,3.1,2.4c-2-1.5-3.5-1.9-5.4-1.6C14.8,42.3,15.6,42.1,16.5,42L16.5,42z"/>
<path class="st1" d="M74.3,43.8c0.5,0.1,0.9,0.1,1.4,0c0.2-0.1,0.1-0.3,0.4-0.8c0.3-0.5-0.7-0.1-1.5-0.3c-0.1,0-0.6,0.3-0.9,0.6
	c-0.7,0.4-1-0.3-1.1-0.2s-0.5,0.6-0.4,0.7S73.6,43.8,74.3,43.8z"/>
<path class="st1" d="M80.3,50.2c0.8-0.3,0.9-0.6,1-1.1c-2.5,0.6-5.1,1-7.7,1.2c-2.3,0-4.5,0-6.7-0.2c-1.2-0.1-4.5-1-4.2-0.4
	c0.5,0.8,2.1,2.4,2.3,3.6c0.1,1.3,0,2.6-0.2,3.9c0.1,0.3,2-0.3,2.6-0.4c0.6-0.1,0.5-0.7,1.1-1c0.7-0.2,1.5-0.3,2.2-0.4
	c0.1,0.1,1-0.8,1.2-1.1s-1.4,0.1-2,0c-0.4,0,0-0.4,0.2-0.4c0.7,0.1,1.4,0.1,2.1,0.1c0.2-0.1,1-0.8,0.8-0.9s-1.4,0-1.6-0.1
	s0-0.3,0.3-0.3s3.8,0.1,4.3,0.1c0.5-0.1,1-0.4,1.2-0.9c0.1-0.3-2.5-0.1-3.1-0.1c-1.6,0.1-3.3,0.1-4.9,0L69,51.6v-0.1
	C72.8,51.5,76.6,51.1,80.3,50.2z"/>
<path class="st1" d="M39.4,31.3c-0.1,1,0.5,2,1.4,2.5c-0.3-0.5-0.5-1.1-0.4-1.7c0.2-1.2,1.1-1.7,1.2-2.4c-0.1-0.6-0.3-1.3-0.6-1.8
	c0.1,0.4,0,0.8-0.2,1.2C40.4,29.7,39.5,30,39.4,31.3z"/>
<path class="st1" d="M7.4,50.9c-0.5,0-1.1-0.1-1.5-0.4c0,0,0.3,1.4,1.5,1.5s1.9-1.3,2.1-2.3C9,50.4,8.3,50.8,7.4,50.9z"/>
<path class="st1" d="M42.8,65c0.5-0.8-0.2-1.7-1.4-2.8c-0.6-0.7-1.9-1.2-2.3-2.8c-0.7-2.5,2.8-8,4.7-8c-0.4,0.9-0.5,2-0.2,2.9
	c0.2-1.2,0.9-2.4,1.8-3.2c1.5-1.4,3.3-2.5,5.2-3.3c-0.7-0.1-0.8,0-0.9-0.3c-0.2-0.4,0.5-1.9,2.9-2.6c-1,0.5-1.8,0.8-2.1,1.6
	c-0.2,0.6,0.1,0.8,0.1,0.8c0.3-0.3,0.6-0.6,0.9-0.8c0.4-0.2,0.9-0.4,1.4-0.4c0.1,0.2,0,0.4-0.1,0.5c-0.1,0.2-0.4,0.2-0.7,0.6
	C52,47.5,51.9,48,52,48.1s0.8,0,1.1-0.3c0.4-0.7,0.3-0.4,0.5-1.2c0-0.5,0.3-0.9,0.8-1.1c0,0-0.1,1.5,0.1,1.8
	c0.1-0.8,0.6-0.8,0.6-0.8s0,1.5,0.3,1.6c0.1-0.8,0.5-0.8,0.5-0.8s0.1,1.3,0.3,1.4c0.1-0.3,0.2-0.6,0.4-0.9c0.1,0.5,0.3,0.9,0.5,1.3
	c0.2-0.3,0.3-0.5,0.5-0.7c0.1,1,0.6,2,1.4,2.6c-0.5-2.9-0.2-3.1,0.2-3.3c0.3,1.8,1.4,3.3,3,4.1c-0.4-0.7-0.7-1.5-1-2.2
	c-0.3-0.9-0.7-2.8,0.1-3.6c0.2-0.3-1,0.1-0.5-0.2c0.9-0.5,1.8-0.8,2.8-1c0.1,0.2,0,0.7,0,0.9c0.8-0.5,1.6-1,2.5-1.3
	c1-0.3,4.9-0.8,4.9-0.8c0.2,0,1-0.9,1-1.1s-0.5-0.8-0.5-0.9c0.1-0.3,2.3-1.6,1.5-1.6c-2.1-0.3-4.4-0.1-5.8-0.8
	c-1.6-0.9-1.9-2.3-2.5-3.3c0.1,0.3-0.5,0.8-0.5,0.8c-0.6-0.4-1.1-0.8-1.5-1.4c0.1,0.5,0.1,0.9,0,1.4c-1.8-1.1-1.9-1.9-1.9-1.9
	c0.1,0.7,0.3,1.4,0.5,2.1c-1.3-0.8-2.4-2.1-3-3.5c-0.4-1.2-0.8-2.5-1-3.7c-0.3,0.5-0.6,1-0.8,1.5c0,0-0.6,2.1,0.2,3.5
	c0.6,0.9,1.5,1.6,2.4,2.1c0.8,0.6,0.2,0.5,0.2,0.5c-1-0.3-2-0.5-3-0.7c-0.6,0.1-1.3,0-1.9-0.1c-1-0.4-1.6-1.4-1.5-2.4
	c0.1-1.3,0.6-1.4,0.7-1.9c0.6-1.1,0.4-2.4-0.3-3.5c-0.4-0.5-0.8-0.9-1.3-1.2c0.2,0.5,0.3,1.1,0.3,1.7c0,1.2-0.4,2.4-1.2,3.3
	c-1.7,1.7,1.5,4.7,1.5,4.7c-0.9-0.8-1.8-1.7-2.5-2.7c-0.9-1.5,0.1-4.2,0-5.1c-0.1-0.6-0.1-1.1-0.3-1.6c0,0.9-0.2,1.8-0.4,2.7
	c-0.4,0.7-0.6,1.5-0.7,2.3c-0.1,1.1,0,2.1,0.4,3.1c-0.8-0.9-1.3-3.6-1.3-4.8c0-0.9-0.4-1.7-1-2.3c0,0.6,0,1.2,0,1.8
	c-0.1,0.9-0.3,1.1-0.4,2.4s2.7,4.7,2.7,4.7c-1.3-0.9-2.3-2.2-2.9-3.7c-0.6-1.2-1.3-2.3-2.1-3.3c0.2,0.4,0.3,0.9,0.2,1.4
	c-0.1,0.9-0.7,1.8-0.3,2.9c0.6,1.2,2.6,4.7,6.1,5.1c-1.8,1-7.1-1.3-8.2-1.8c0.5,1.1,5,4.1,8.3,4.6c-2.5,1-8.9-2.1-11.5-3.8
	c1.2,1.6,2.7,3.1,4.3,4.4c-0.7,0.5-3.1,0.1-3.1,0.1c1.2,1.7,6.2,1.7,6.2,1.7c-0.4,1.3-4.4,1.2-4.4,1.2c1.3,0.6,2.8,0.9,4.2,0.7
	c-0.2,0.5-0.4,0.9-1.4,1c-1,0.2-2,0.3-3.1,0.2l1.9,0.9c-1.4,0.9-2.8,1.9-4,3.1c-1.4,1.4-3,5.1-4.4,4.7c-0.8,0.4-1.8,0.1-2.4-0.5
	c-0.8-0.9-1.3-2.1-1.6-3.3c0-2.3,0.5-4.5,1.6-6.5c1.2-1.8,2.1-2.9,2.1-8.7c-0.1-4.1-1.8-7.2-3.6-8.7c-0.4-0.4-1-0.8-1.5-1.1
	c-0.2,0,0,0.7-0.1,1.1s-0.3,0.9-0.1,1.1c0.3,0.5,1.2,0.6,2.2,4.7c1.2,6.3-1.7,8.7-1.7,11c-0.3,1.8-0.4,3.7-0.1,5.5
	c-1.5-3.2-0.9-6.7-0.4-9.7s-1-6.2-1.7-6.6c-0.1-0.1-0.3-0.2-0.4,0c-0.4,0.6-0.6,1.3-0.9,2c2.8,3,0.4,6.1,0,8.2c-0.2,2.5,0.1,5,1,7.4
	c0.5,0.9,3.6,4.8,7.2,5c-1,0.6-2.3,0.8-3.4,0.4c-4.3-1.1-6.3-3.1-7.7-3.1c-1.1,0-2.1,0.2-3.1,0.6c-0.8,0.3-1.5,0.7-2.1,1.3
	c-0.6,0.6-1,1.3-1.1,2.1c0.7-0.7,1.4-1.2,2.3-1.6c2.6-1,3.9-0.9,5.7,0.3c1.5,0.6,3.8,3,6,2.5c0.1,0,1.2,0,1.2,0.1s-1.1,0.3-1.2,0.3
	c-1.8,0.3-3.6-0.7-5.3-1.7c-0.5-0.3-1.5-0.9-2-0.7c-1,0.5-1.9,1.1-2.6,1.9C21,61.3,20.5,62.2,20,63c1.4,0.3,1.6,0.1,4.1-2
	c1.5-0.4,3.1-0.3,4.5,0.4c0.1,0.2,0.2,0.4,0,0.6c-0.9,0-1.1-0.2-1.6,0.2s-0.6,1.3-0.4,1.3c0.7-0.2,1.5-0.3,2.2-0.3
	c0.7,0.2-2.2,1-3.1,1.1c-2.1,0-2.7-0.1-3.4,0.6s-1.1,1.6-1.8,2.4c0.9-0.4,1.9-0.9,2.8-1.4c0.4-0.2,2.9,0,4.5-0.3
	c1-0.1,1.9-0.5,2.7-1.1c-0.1,0.9-0.4,1.8-0.8,2.6c1.1-0.8,2-1.8,2.9-2.8c-0.4,1-0.5,2.2-0.1,3.2c0.3,1.1,0.3,2.3,0,3.4
	c1.1-1.1,1.8-2.6,2-4.2c-0.1-1.2,0-2.5,0.1-3.7c0.3-0.8,0.6-1.6,1.1-2.3c-0.4,1-0.7,2.1-0.8,3.2c0,1.4,0.3,2.8,0.9,4
	c0.2,0.1,0.5-0.6,0.4-1.1c-0.1-1.3-0.3-3.3,0-3.5c0.4,0.4,0.7,0.9,0.8,1.4c0.3,0.7,0,1.3,0.5,1.8c0.2-0.5,0.4-1,0.4-1.5
	c0-0.6-0.1-1.2-0.4-1.8c-0.1-0.7-0.1-1.5-0.1-2.2c0.7,0.5,1.4,1,2.1,1.4C40.6,62.9,41.8,63.8,42.8,65z M62.4,42.1
	c-0.6,1.1-1.4,2.2-2.4,3.1c-0.9,0.6-1.9,1.1-2.9,1.5c0.5-0.5,1-1,1.5-1.5c-1-0.5-2.1-0.8-3.3-0.9c1.3-0.1,2.5-0.3,3.7-0.6
	c0.8-0.4,1.6-0.8,2.4-1.3C61.7,42.1,62.4,41.9,62.4,42.1z M62.2,39.4c0,0.8-1.3,1.6-2.5,2.1s-3,1.3-3,1.3c0.2-0.5,0.4-1,0.6-1.5
	c0-0.3-0.2-0.5-0.4-0.7c0.8,0,1.5,0,2.3-0.2C60.3,40.2,61.3,39.9,62.2,39.4L62.2,39.4z M55.1,38.9c1.1-0.3,2.1-0.5,3.3-0.5
	c-0.8,0.2-1.5,0.4-2.2,0.8c-0.6,0.3-1.1,0.7-1.1,1.1s1.8,0.3,1.8,0.3C56,40.8,55.2,41,54.4,41c-1,0-1.5-0.1-1.6-0.4
	S54.2,39.3,55.1,38.9L55.1,38.9z M28.8,50.9c0,0-1.6-0.5-1.5-4c0-2,0.6-3.9,1.7-5.5C28.1,44.5,28,47.9,28.8,50.9L28.8,50.9z
	 M32.4,42.7c1.6-4,0.5-9.3-1.4-12.1c2,1.4,3.2,4.9,3.1,8s-0.5,5-1.3,6.1C32,46,31.3,47.4,31,49C30,47.2,32.2,43.2,32.4,42.7
	L32.4,42.7z"/>
<path class="st1" d="M61.5,61c1.4,0.5,4.5,1.5,6.4,2c2.1,0.6,4.3,1,6.4,1.3c2.1,0.4,4.3,0.5,6.5,0.1c0.3,0,2.1-0.4,1.1-0.6
	c-1-0.2-4.3-0.8-5.5-1.1c-1.2-0.3-4.8-1.2-7.9-2.3C65.7,59.5,63.2,58,61,56c-1.7-1.3-3.4-4.1-5.3-5.5s-2.5-2-3.5-1.9s-1.8,1-2.5,1.5
	c0.2-0.4,0.4-0.8,0.7-1.2c-1.8,0.7-3.4,1.8-4.7,3.2c-0.9,1.2-1.6,2.5-2,3.8c-0.6-1.1-0.8-2.3-0.7-3.5c-0.3-0.1-1.5,1.2-1.6,2
	s0.8,2.1,0.8,2.1c-0.6-0.2-1.2-0.7-1.4-1.3c-0.2,0.4-0.3,0.9-0.2,1.3c0.2,0.5,0.5,1,0.9,1.4c-0.7,0.4-1.4-0.7-1.4-0.7
	c-0.3,0.8-0.3,1.7,0,2.4c1.3,1.1,2.4,2.4,3.4,3.7c0.6,0.8,1.4,1,1.3,2.8c-0.2,3.3,0.7,2.8,0.7,2.8s-0.1-1.2,0.3-1.2
	c0.2,0.7,0.4,1.3,0.8,1.9c0.5,0.7,1.3,1.4,1.9,1.3s0.7-0.5,1-1c0.5-0.8,0.3-3.2,0.3-3.4s0.9-0.4,0.1-0.8c-0.6-0.3-0.9-0.7-0.9-1
	c0,0,1.3,0.7,1.3-0.5c0.2-1-1-1.3-1.3-1.5c-1.4-1.2-2.6-3.3-3-3.3c0,0-0.5,0.1-0.6-0.2s0.5-0.4,1-0.1s1,1.3,1.9,2s1.3,1.1,1.9,1.1
	c0,0-0.8-0.6-0.6-1.1c0.5,0.6,1,1.2,1.6,1.7c0.6,0.3,1.3,0.6,2,0.8c-0.2,0.3-1.3,0-1.3,0c1.6,1.2,3.2,2.3,5,3.3
	c1.6,0.8,3.4,1,5.2,0.8c0.9-0.3-1-0.5-1.6-0.8c-1.4-0.6-2.8-1.2-4.2-2c-1.3-0.8-2.5-1.8-3.5-2.9c0,0,2.2,1.4,3.4,1.3
	c-0.1,0.3-0.8,0.3-0.8,0.3c0.9,0.6,1.9,1,2.9,1.4c2.5,1,5,1.8,7.6,2.4c3,0.8,5.7,0.7,7,0.2c-2.6-0.4-5.1-1-7.6-1.8
	c-2.4-0.8-4.7-1.9-6.9-3.2c-0.3-0.2-0.2-0.5,0.1-0.4s1.1,0.4,2.9,1.2c2.9,1.1,5.9,1.8,9,2.3c2.7,0.4,5.4,0.6,8.1,0.6
	c2,0,1.1-0.8,0.7-0.8s-5-0.6-8.6-1.3c-3.3-0.7-6.5-1.7-9.6-3.1C60.9,61.4,61,60.8,61.5,61z M41.4,60c-0.3-0.2-0.5-0.4-0.6-0.7
	c0.4,0.3,0.9,0.5,1.4,0.6C42.2,59.9,41.8,60.3,41.4,60L41.4,60z M44.1,62.6c-0.2,0-0.4,0-0.5-0.2c-0.1-0.2-0.2-0.5-0.3-0.8
	c0.1,0.2,0.4,0.4,0.6,0.5c0.3,0.1,0.5,0,0.7-0.2C44.7,62,44.3,62.6,44.1,62.6z M47.3,68c0.3,0,0.3-0.7,0.3-0.8s0.6,1.1-0.1,1.2
	s-1.5-1-1.5-1C46.4,67.7,46.9,67.9,47.3,68L47.3,68z M45.7,64.9c0.3,0.1,0.4-0.8,0.4-1c0-0.2,0.4,1.5-0.3,1.4s-1-1.2-1-1.2
	S45.3,64.8,45.7,64.9z M55.7,55.6c-0.5-0.3-0.7-0.5-0.7-0.9s-1-0.9-0.3-0.7c0.3,0.1,0.7,0.3,0.8,0.8S56.2,55.9,55.7,55.6L55.7,55.6z
	 M53.7,51.9c0.2,0.4,0.4,0.7,0.7,1c0.3,0.3,0.7,0.5,1.1,0.6c-0.3,0.1-0.7,0.1-1,0.1c-0.3-0.2-0.6-0.4-0.8-0.8
	C53.6,52.4,53.6,52.1,53.7,51.9L53.7,51.9z M50.3,57.4c0.1,0.3,0.7,1.3-0.3,1.4c-1.1-0.3-2.1-0.8-3-1.4c0.8,0.3,1.7,0.6,2.6,0.7
	c0.6,0,0.4-0.2,0.3-0.5c-0.1-0.2-0.2-0.4-0.3-0.6c0.1-0.4,1.2,0.1,1.2,0.1S50.1,57,50.3,57.4L50.3,57.4z M52,56.6
	c-0.6-0.4-0.9-0.5-0.9-1.1s-1.3-1.2-0.3-0.9c0.4,0.1,1.1,0.3,1,1S52.6,57,52,56.6L52,56.6z M52.4,55.1c-0.2-0.4-0.2-0.9-0.2-1.4
	c0.3,0.6,0.8,1.1,1.3,1.5c0.9,0.7,1,0.8,1.8,0.7c0,0-0.8,0.7-1.2,0.6C53.5,56.1,52.9,55.6,52.4,55.1L52.4,55.1z M53.6,61.3
	c-0.8-0.4-1.1-0.6-1-1.2c0.4,0.4,0.9,0.7,1.4,0.8c0.5,0.2,1,0.3,1.5,0.3C54.7,61.9,54.1,61.5,53.6,61.3L53.6,61.3z M58.6,60.6
	c-1.1-0.2-2.2-0.7-3.2-1.3c-0.3-0.3-0.5-0.6-0.7-1c0.6,0.5,1.3,0.9,2,1.1c1.4,0.5,1.7,0.7,2.6,0.3C59.4,59.6,59.2,60.5,58.6,60.6
	L58.6,60.6z M59.5,57.7c-1.7-0.8-1.7-1.8-1.5-2c0.5,0.6,1.1,1.1,1.8,1.5c0.7,0.4,1.5,0.6,2.3,0.8C62.1,58.3,60.9,58.3,59.5,57.7
	L59.5,57.7z"/>
<path class="st2" d="M70.2,2.7H23.9L2.7,23.2v10.5h0.2c3.6-1.3,6.8-3.3,9.5-5.9c1.2-0.9,2.6-1.4,4.1-1.6c0.6-0.7,1.3-1.3,2.1-1.8
	v-5.8h54.6v8.5h15.9V21L70.2,2.7z"/>
<path class="st2" d="M73.2,82.9H18.6V69.1c-0.5,0-0.9,0-1.2-0.1c-0.8-0.1-1.6-0.5-2.2-1c1-0.2,1.9-0.5,2.8-1
	c0.2-0.2,0.5-0.3,0.6-0.4v-1.9l-0.7-0.1c-0.4-0.1-0.8-0.3-1.1-0.5c0,0-0.1,0.2-0.5,1c-0.3-0.4-0.5-0.9-0.7-1.3
	c-0.2-0.7-0.3-1.3-0.3-2c-0.1-2,0.6-4.1,2-5.6c0.4-0.4,0.8-0.7,1.2-1v-1.1C18.1,54,17.6,54,17.2,54c-2.6,0-5,1.5-6.1,3.8
	c-0.5,1.1-0.9,2.2-1.2,3.3c-0.4-1.3-0.5-2.6-0.5-4c-0.1-2.8,1.8-5.8,4.3-7.3c1.4-1,3.1-1.6,4.9-1.8v-0.3c-0.8-1-1.9-1.7-3.2-2.1
	c-1.4-0.2-2.8,0.3-3.6,1.5c-0.3,0.4-0.5,1-0.7,1.5c0,0.1,0,0.3-0.1,0.5c-0.1,0.8-0.3,1.5-0.5,2.3c-1.1,2-2.8,2.3-3.7,2
	c-1.7-0.6-2.7-2.4-2.3-4.2L5,46.9l1.4,1.8c0.3,0.3,0.7,0.5,1.1,0.5c0.7-0.2,1.3-0.9,1.3-1.7c0.3-1.7,1-3.2,2-4.5
	c1.9-2.4,4.3-3.6,6.5-3.3c0.5,0.1,0.9,0.2,1.4,0.4v-7c-0.8,1.1-1.7,2.2-2.6,3.2c0,0-2,1.4-2.7,1.9c-1,0.5-2.1,0.8-3.3,1
	c-0.5,0-1,0-1.5,0c0.6-0.7,1.4-1.6,1.4-1.6s1-1.2,1.9-2.7c-1,0.6-2,1-3.1,1.4c-2,0.7-4.1,0.5-5.9-0.6v42.5l21.1,20.5h46.4l18.9-18.3
	v-5.9H73.2V82.9z"/>
<path class="st2" d="M18.6,60.9c-0.5,0.6-0.9,1.2-1.3,1.9c0,0,0.3,0,0.5-0.1c0.3-0.2,0.6-0.5,0.8-0.8V60.9z"/>
<path class="st2" d="M56.8,59.3c-0.7-0.2-1.4-0.6-2-1.1c0.1,0.4,0.3,0.7,0.7,1c1,0.6,2.1,1.1,3.2,1.3c0.6,0,0.8-0.9,0.8-0.9
	C58.4,60.1,58.1,59.8,56.8,59.3z"/>
<path class="st2" d="M54.6,53.5c0.3,0,0.7,0,1-0.1c-0.4-0.1-0.8-0.3-1.1-0.6c-0.3-0.3-0.6-0.6-0.7-1c-0.1,0.3-0.1,0.6,0,0.9
	C53.9,53.1,54.2,53.3,54.6,53.5z"/>
<path class="st2" d="M50.7,54.6c-0.9-0.4,0.3,0.2,0.3,0.9s0.3,0.7,0.9,1.1s-0.3-0.3-0.3-1S51,54.7,50.7,54.6z"/>
<path class="st2" d="M54.2,56.4c0.4,0.1,1.2-0.6,1.2-0.6c-0.9,0.1-0.9,0-1.8-0.7c-0.6-0.4-1-0.9-1.3-1.5c0,0.5,0,1,0.2,1.4
	C52.9,55.6,53.5,56.1,54.2,56.4z"/>
<path class="st2" d="M49.5,57c0.2,0.2,0.3,0.3,0.3,0.6c0,0.2,0.2,0.4-0.3,0.5c-0.9-0.2-1.8-0.4-2.6-0.7c0.9,0.6,1.9,1.1,3,1.4
	c1-0.1,0.4-1.1,0.3-1.4s0.6-0.3,0.6-0.3S49.7,56.6,49.5,57z"/>
<path class="st2" d="M41.4,60.1c0.4,0.2,0.8-0.1,0.8-0.1c-0.5-0.1-1-0.3-1.4-0.6C40.9,59.6,41.1,59.9,41.4,60.1z"/>
<path class="st2" d="M58,55.7c-0.2,0.2-0.2,1.2,1.5,2c1.4,0.7,2.7,0.6,2.6,0.3c-0.8-0.2-1.6-0.4-2.3-0.8
	C59.1,56.8,58.5,56.3,58,55.7z"/>
<path class="st2" d="M61.5,42.2c-0.7,0.5-1.5,1-2.4,1.3c-1.2,0.3-2.5,0.5-3.7,0.6c1.1,0.1,2.2,0.5,3.3,0.9c-0.5,0.5-1,1-1.5,1.5
	c1-0.4,2-0.9,2.9-1.5c0.9-0.9,1.7-1.9,2.4-3.1C62.4,41.9,61.7,42.1,61.5,42.2z"/>
<path class="st2" d="M54.4,41c0.8,0,1.6-0.2,2.4-0.5c0,0-1.8,0-1.8-0.3s0.4-0.7,1.1-1.1c0.7-0.3,1.5-0.6,2.2-0.8
	c-1.1,0-2.2,0.2-3.3,0.5c-0.8,0.4-2.3,1.4-2.2,1.7S53.4,41,54.4,41z"/>
<path class="st2" d="M54.7,54c-0.7-0.3,0.2,0.3,0.3,0.7s0.2,0.6,0.7,0.9s-0.1-0.3-0.2-0.8S55,54.2,54.7,54z"/>
<path class="st2" d="M43.9,62.2c-0.3-0.1-0.5-0.3-0.6-0.5c0.1,0.3,0.2,0.5,0.3,0.8c0.1,0.1,0.3,0.2,0.5,0.2c0.2,0,0.6-0.6,0.6-0.6
	C44.5,62.2,44.2,62.3,43.9,62.2z"/>
<path class="st2" d="M52.6,60.1c-0.1,0.6,0.2,0.8,1,1.2c0.5,0.3,1.1,0.6,1.8,0c-0.5-0.1-1-0.2-1.5-0.3C53.5,60.7,53,60.4,52.6,60.1z
	"/>
<path class="st2" d="M47.5,68.4c0.7,0,0.1-1.3,0.1-1.2s0,0.8-0.3,0.8c-0.5-0.1-0.9-0.3-1.3-0.6C46,67.4,46.9,68.4,47.5,68.4z"/>
<path class="st2" d="M35.9,40.3c0.3-2.6,0-5.3-1.1-7.8c-0.8-2.1-2.3-3.8-4.3-4.8c-0.3-0.1-0.6-0.3-0.9-0.5c-0.2-1.1-0.8-2.2-1.7-2.9
	c-0.9-0.8-2-1.2-3.2-1.2c-3,0.3-5.8,1.8-7.8,4.1l-0.2,0.1c-1.4,0.2-2.8,0.7-3.9,1.5c-2.8,2.7-6.1,4.8-9.8,6c0,0.1,0,0.1,0,0.2
	c1.5,0.9,3.3,1.1,5,0.5c1.9-0.6,3.7-1.6,5.2-2.8c0.4-0.3,0.7-0.8,0.8-0.7c-0.6,1-1.1,2.1-1.3,3.3c-0.2,1.3-1.5,2.3-3.1,3.3
	c0.2,0.2,0.8-0.1,1-0.1c0.8-0.3,1.6-0.6,2.3-1.1c0.8-0.5,1.5-1.1,2.2-1.8c1.5-1.7,2.9-3.6,3.9-5.6c1.9-0.2,5.4-1.5,6.5-0.8l0.3,0.2
	c-0.2,0.4-0.6,1.2-0.6,1.2l-0.9,2.1c-0.9-0.1-1.7-0.3-2.5-0.6c-0.9-0.3-1.7-0.9-2.2-1.6c-0.1,0.6-0.1,1.1,0,1.7
	c0.3,0.6,0.7,1.2,1.2,1.6c0.5,0.3,2.3,1.3,2.4,1.7c-0.1,0.4-1.6,5.5-2.1,8.1c0,0.1-0.1,0.3-0.2,0.2c-0.9-1.5-2.4-2.5-4.1-2.8
	c-2-0.3-4.1,1.1-5.5,2.9c-0.9,1.1-1.5,2.5-1.7,3.9c0,1.3-0.9,2.4-2.2,2.7c-0.8,0-1.5-0.3-2.1-0.9c-0.2,1.3,0.4,2.5,1.6,3
	c1,0.1,2-0.5,2.4-1.5c0.3-0.8,0.5-1.6,0.5-2.5c0.1-0.7,0.4-1.4,0.8-2c1.1-1.4,2.9-2.1,4.6-1.8c2.4,0.5,3.9,2.7,5.5,4.4
	c0.1,0,0.1,0.2,0,0.2c-0.6-0.1-1.2-0.2-1.8-0.2c-1.8,0-3.6,0.6-5.1,1.7c-2.2,1.4-3.7,3.8-4,6.5c0,0.1,0,0.3,0.1,0.2
	c1.2-2.6,3.8-4.4,6.8-4.4c1.9,0,3.8,0.6,5.5,1.6c0.1,0.1,0.1,0.1,0,0.2c-1.7,0.3-3.3,1.1-4.6,2.3c-1.2,1.3-1.8,3.1-1.7,4.8
	c0.1,0.2-0.1,0.5,0.2,0.6c1.1-2.4,3.4-4.1,6-4.4c0.3,0,0.8-0.1,1,0.2v0.1c-1.5,0.9-2.7,2.2-3.6,3.7c-0.4,0.7-0.9,1.3-1.5,1.7
	c1.3,0.3,2.6,0.2,3.8-0.4c0.7-0.3,1.8-1.6,2.5-1.8c0.2,0,1.3-0.3,1.9,0c0.4,0.3-1.2,2-1.5,1.9c-2.8,0-3.2,0.5-4,1.6
	c-0.7,1.2-1.7,2.1-3,2.7c-0.3,0.2-0.7,0.2-1,0.4c1.4,0.1,2.7,0,4-0.4c1-0.3,1.8-1.3,2.9-1.5c0,0,0.3,1.1-1.7,2.8c1,0,2-0.4,2.9-1
	c0.5-0.4,1-1.9,1.5-2c1.1,0,2.3-0.7,2.5-0.4c0.1,0.7-0.1,1.5-0.6,2.1c-0.4,0.6-2.4,1.2-2.5,2.2s-1,3.3-0.8,3.4S27,72,28,71.5
	s0.7-2.8,1.1-3.5s0.8-0.6,1.2-0.8c0.1,0,0.3-0.1,0.4,0c0,0.9-0.2,1.8-0.7,2.6c0.4-0.1,0.8-0.3,1.1-0.6c0.4-0.3,0.7-0.7,0.8-1.1
	c0.2,0.8,0.2,1.7-0.1,2.4c-0.3,0.8-0.6,1.5-1.1,2.3c1-0.6,1.9-1.4,2.6-2.3c0.7-0.8,1.1-1.8,1.4-2.8c0.4,0.5,0.2,0.5,0.5,1.3
	c0.2,0.6,0.3,1.3,0.3,1.9c0.5-0.4,0.8-1,0.9-1.6c0.3-0.9,0.2-1.1,0.2-1.1c1.2-0.1,0.9,2.1,0.9,2.1s0.9,0.1,1-1.2
	c-0.1-0.4,5-0.3,6.1,1.1c0.5,0.8,1.2,1.4,2,1.7c0.9,0.2,1.7,0.4,2.6,0.5c1.1,0.3,2.2,0.7,3.2,1.3c0.9,1.1-1.5,4.8-2.4,6.1l-0.1,0.1
	l0.2-0.1c2.2-1.1,3.7-3.3,4-5.8c0-0.2,1-0.1,1.1,0.1c0.6,0.6,0.8,2,1.2,2.9c0.8,1,2.3,1.4,3.5,0.9c0,0,0.9-0.5,0.7-1.1
	c-0.3,0.2-0.7,0.4-1.2,0.3c-0.4,0-0.8-0.1-1.1-0.4c-0.3-0.2-0.6-0.5-0.7-0.8c-0.3-0.6-0.3-1.4,0.1-2c0.6-0.4,1.4-0.6,2.2-0.5
	c0.9,0.1,0.9,0.8,0.9,0.8s0.3,1-0.5,1.3c0.4,0.2,0.9,0.2,1.2,0c0,0,0.2,0.3-0.1,1.4c0.6,0,1.2-0.5,1.3-1.1c0,0,0.3,0.1,0.3,0.2
	c0.2-0.1,0.2-0.5,0.2-0.5c0.1,0,0.3,0,0.3,0.2c0.4,0.1-0.1-3.1-0.3-3.5c-1-1-2.2-1.9-3.5-2.5c-0.7,0.2-1.4,0.5-2,0.9
	c-0.8,0.4-1.7,1.3-2.8,1c-0.7-0.6-2.2-0.3-2.2-0.3l-1.2-0.3c0,0-1.1-0.5-1.1-0.7c0.1-0.5,0.2-0.9,0.3-1.3c0.2-0.6,0.1-1,0.3-1.2
	s0.9-0.2,1.3-0.4s0.8-0.8,1.1-0.9s0.5,0,1.3,0.6c1.6,0.9,3.4,1.5,5.2,1.8c1.2,0.1,2.5,0.2,3.7,0.1c0.5,0-0.4-0.7-0.4-0.9
	c1.7,0.5,3.5,0.8,5.3,1c2.1,0.2,6.1-0.1,7.1-1.1c-0.4-0.1-0.7-0.2-1-0.4l0,0c1.1-0.3,6.6,0.7,5.7-1.8c-0.2-0.3-0.5-0.2-0.7-0.3
	c0.1-0.1,6.3-1.5,4.7-1.9c-2.5-0.4-5-0.9-7.5-1.5c-1.9-0.5-4.4-1.3-5.7-1.7c-0.1-0.1-0.4-2.2-0.1-2.1c0.3,0.5,0.7,0.9,1.2,1.2
	c1.2,0.2,2.4,0.4,3.6,0.3c0.8,0,1.1-1.1,1.3-1.8c-0.2,0.2-0.4,0.3-0.6,0.4c-0.9,0.1-1.8,0.1-2.7-0.1c-0.4-0.3-0.6-0.8-0.6-1.3
	c0.2-0.4,1-0.9,1-0.9c0.5-0.1,0.9-0.1,1.4,0c0.5,0.2,0.9,0.4,1.3,0.8c0.2,0.3,0.4,0.7,0.4,1.1c0.4-0.7,0.1-1.1,0.3-1.2
	c0.2,0,0.3,0.1,0.4,0.3c0.2-0.1,0.1-1.1,0.2-1.3l0.4,0.2c0.1-0.5,0.1-1,0-1.5c-0.4-0.5-0.8-1-1.3-1.4c-0.1-0.1-0.2-0.1-0.3-0.1
	c0,0,0-0.1,0.3-0.5s2.3-0.8,2.9-1.2c0.3-0.3,0-0.2,0.4-0.6c0.4-0.4,2.2-0.5,2.7-2.8c-3.6,1.1-7.4,1.7-11.2,1.7
	c-3.7,0-8.8-0.5-9.8-1.1c-0.4-0.4-0.5-0.9-0.4-1.4c0.1-0.5,0.8-1,1.2-1.1s0.2,1.2,0.2,1.2c1.1-0.7,2.2-1.3,3.3-1.9
	c1.5-0.4,3-0.7,4.5-0.8c-1,1.3-0.3,2.7,0.5,2.7c1.3,0.3,2.7-0.2,3.6-1.2c0.3-0.3,0.6-0.5,1-0.7c0.4,0.1,0.7,0.1,1.1,0.2h1.4
	c-1-0.5-1.6-0.7-1.6-1.1c0,0,0.9,0.4,1,0.1c-0.3-0.2-0.5-0.4-0.7-0.6c0.9,0,1.7,0.1,2.6,0.4c-0.4-0.8-1-1.4-1.8-1.7
	c-0.3-0.2-0.9-0.4-1.2-0.6c-0.3-0.2,0-0.8-0.2-1.2c-0.4-1.1-1.1-2-2.1-2.5c-0.6-0.3-1.3-0.5-1.9-0.4c-0.6,0.1-1.1,0.2-1.2,0.7
	c-0.1,0.5,0.2,0.7,0.4,1c-0.3,0.1-0.6,0.1-0.9,0c-1,0.1-2,0-3-0.3c-1.7-0.5-3.3-4-3.5-4.5c0,0.4-0.1,0.8-0.4,1.2
	c-0.5,0.1-1.8-1.9-1.8-1.9c-0.1,0.8,0,1.6,0.1,2.3c-0.8-0.8-1.4-1.8-1.6-2.9c-1.1,0.4-0.1,2.8-0.1,2.8c-0.9-1-1.5-2.2-2-3.5
	c-0.4-1.1-0.7-2.3-0.9-3.4c0,0,0.4-0.5,0.6-0.7c0.3-0.2,0.5-0.4,0.8-0.6c-0.3-0.1-0.6-0.1-0.9-0.1c-0.4,0.1-0.8,0.2-0.8,0.2
	c0-0.8,0-1.6,0.1-2.5c-1.3,0.6-1.8,2.5-1.9,3.5c-0.5,0.4-0.9,0.9-1.3,1.4c-0.1-0.7-0.3-1.4-0.8-2c-0.7-0.8-1.2-0.9-1.6-1.6
	c-0.5-0.6-0.4-2.1-0.4-2.1c-0.2,0.5-0.4,1-0.4,1.6c0,0.7,0.2,1.4,0.4,2c0.3,1.1,0.1,2.2-0.5,3.1l-0.8,1.3c-0.3-0.7,0.4-1.6,0.4-3
	c0.1-1.2-0.3-2.4-1.2-3.3c-0.3-0.3-0.9-1-0.9-1c0.7,1.7,0.6,3.6-0.2,5.2c-0.2-0.8-0.6-1.6-1.1-2.2c-0.5-0.5-1-0.9-1.6-1.4
	c0.5,1.6,0.5,3.2,0,4.8c-0.3-0.2-0.7-1.2-1.3-1.7c-0.4-0.4-0.9-0.7-1.4-0.9c0.3,0.7,0.4,1.5,0.5,2.3c0,1-0.5,1.7-0.5,3.2
	s2.5,4.1,2.5,4.1c-2.4,0.1-5.6-3.3-5.6-3.3c0.2,3,3.6,5.3,3.6,5.3c-0.6,0.2-5.6-3.1-6.2-3.4c0.7,2.9,3.8,5.6,3.8,5.6
	c-0.8,0.3-2.9-0.5-2.9-0.5c1,2.1,3.1,3.4,5.5,3.3c0,0.5-5,0.1-5,0.1c1.5,1.6,5.1,1.9,5.1,1.9c-1.2,0.3-2.5,0.4-3.7,0.3
	c0.5,0.7,1.6,1.1,2.1,1.5c-1.2,0.6-2.3,1.5-3.2,2.4c-1.3,1.2-2.6,5-4.9,4.7c-1.5,0-4.1-3.7-0.5-9.7C35.2,45.1,35.9,42.7,35.9,40.3z
	 M7.4,52c-1.2-0.1-1.5-1.5-1.5-1.5c0.5,0.3,1,0.4,1.5,0.4c0.8-0.1,1.6-0.5,2.1-1.2C9.3,50.7,8.6,51.9,7.4,52z M29.8,32.1
	c0.6,1.1,1.1,2.2,1.4,3.4c0.6,2.9,0.1,5.8-1.2,8.5c0.3-1.7,0.4-3.4,0.2-5.1c-0.4-2.5-1.6-3.8-2-4.1c-0.2-0.1-0.1-0.3,0-0.5
	c0.4-0.7,0.8-1.5,1.2-2.3C29.5,31.7,29.7,32,29.8,32.1z M22.3,25.1c0.5-0.5,1.2-0.8,1.9-0.8c0.6,0.1,1.2,0.5,1.6,1
	c0.5,0.5,0.6,1.1,0.5,1.3s-1.3,0-2.3,0s-2.3,0.3-2.5,0S21.9,25.5,22.3,25.1L22.3,25.1z M9.5,33.9c-1.4,0.7-3,1.1-4.5,1.1
	c0.3-0.2,0.7-0.2,1-0.4c2.5-1.1,4.7-2.7,6.6-4.5c0.9-0.7,1.9-1.3,3.1-1.6c0.4,0,0.2,0.2,0.2,0.2c-0.2,0.5-0.4,0.9-0.7,1.4
	C13.4,31.6,11.5,32.9,9.5,33.9z M19,28.7c-0.9,1.8-1.9,3.4-3,5c-1,1.3-2.1,2.5-3.5,3.4c0.7-0.5,1.2-1.3,1.3-2.2
	c0.1-1.4,2.1-4.5,2.3-4.8c0.6-1.1,1.3-2.2,2.1-3.1c0.5-0.5,1-0.9,1.6-1.2c0.4-0.2,1.6-0.5,1.4-0.3C20.4,26.5,19.7,27.6,19,28.7
	L19,28.7z M19.6,29.1c-0.1-0.1,0.5-0.9,0.5-1c0.2-0.3,0.4-0.6,0.7-0.8c1-0.1,1.9-0.2,2.9-0.2c0.8,0,1.7,0.1,2.5,0.2
	c0.3,0.1,0.2,0.5,0.2,0.7s0,0.7-0.2,0.7C24.5,27.6,21.6,29.1,19.6,29.1L19.6,29.1z M21.2,33.2c-0.4-0.3-0.7-0.7-1-1.2
	c0-0.2-0.1-0.4-0.1-0.6c0.4,0.4,0.9,0.8,1.5,1.1c0.9,0.4,2.6,0.6,2.5,0.8c-0.2,0.4-0.4,0.8-0.5,1.2C22.8,34.3,22,33.8,21.2,33.2
	L21.2,33.2z M22.2,42.8c0.7-3.8,1.9-7.6,3.5-11.1c0.2-0.5,0.4-1.1,0.7-1.6c0.6-1.3,1-1.7,0.7-3.1c-0.6-3-2.3-2.9-2.2-3.2
	s1.5,0.2,2.1,0.6c0.8,0.6,1.4,1.4,1.7,2.3c0.3,0.8,0.4,1.6,0.4,2.4c-0.1,1.4-0.5,2.7-1.3,3.8c-1.2,2.5-2.3,5-3.3,7.6
	c-2.4,6.6,1.4,12.6,1.4,12.6s0.7,1.9,5.6,4.8c-2.3-0.5-4.9-2-6-3.7c-1.7-2.2-2.8-4.8-3.4-7.6C22,45.4,22,44.1,22.2,42.8L22.2,42.8z
	 M26.2,52.2c-1.3-1.9-1.3-2.8-1.8-5c-0.3-1.7-0.2-3.5,0.3-5.2c0.4-1.2,0.9-2.4,1.4-3.5c0,0,0.2-0.1,0.7,1c0.8,1.5-0.5,3.8-0.9,5.9
	S26.2,50.8,26.2,52.2L26.2,52.2z M14.4,43.9c-0.9,0-1.8,0.3-2.5,0.8h-0.1c0.9-1.8,2.7-3,4.7-3.1c3.9,0,5.4,6.5,5.6,7.1v0.1
	C19.9,46.5,17.7,43.9,14.4,43.9z M12.5,53.7l-0.3,0.1c0.1-0.4,0.5-0.7,0.8-1c1.3-1.3,2.9-2.2,4.6-2.6c1.8-0.5,4.4-0.2,5.1,0.7
	c1,1.4,1.8,2.9,2.6,4.4C18.4,50.9,14.9,52,12.5,53.7L12.5,53.7z M50.8,78.9c0,0,2.3-3.3,1.9-5c0.3,0.1,0.6,0.1,0.9,0
	C53.5,76.8,51.4,78.7,50.8,78.9z M54.7,71.8c0.5,0.1,1,0,1.4-0.1c1.1-0.6,2.2-1.2,3.3-1.7c0.7-0.1,2.9,1.8,3.2,2.1
	c0.4,0.5,0.9,3,0.1,2.9c0-0.9-0.3-1.8-0.8-2.6c-0.6-0.7-1.4-1.2-2.3-1.5c-0.6,0-2.4,1-2.3,1.2s1.6-0.6,2.1-0.6
	c0.8,0.2,1.5,0.6,2.1,1.2c0.4,0.6,0.6,1.2,0.7,1.9c0.1,0.6-0.1,1.2-0.6,1.6c0-0.5-0.1-1-0.3-1.5c-0.1,0.3-0.3,0.5-0.6,0.4
	c0.2-0.3,0.3-0.6,0.2-0.9c0-0.3-0.1-0.6-0.2-0.8c-0.5-0.4-1.1-0.6-1.7-0.5c-0.5,0-1,0.1-1.5,0.3c-0.4,0.2-0.7,0.6-0.8,1
	c-0.1,0.6-0.1,1.3,0.2,1.9c0.2,0.4,0.5,0.7,0.9,0.9c0.5,0.4,1.2,0.5,1.8,0.3c-0.1,0.3-0.5,0.4-1.5,0.3c-0.6,0-1.1-0.3-1.5-0.7
	c-0.4-0.4-0.6-1.9-1.1-2.7c-0.2-0.5-0.6-0.8-1.2-0.8c-0.2-0.1,0-0.3,0.1-0.8S54.6,71.8,54.7,71.8L54.7,71.8z M52.8,71.5
	c0.2-0.1,1.6-0.1,1.6,0.3s-0.1,1.6-0.3,1.7c-0.5,0.2-1.7,0.2-1.9-0.3c-0.1-0.2,0.2-0.4,0.3-0.8S52.6,71.5,52.8,71.5L52.8,71.5z
	 M51,71c0.4,0.2,1.2,0.3,1.3,0.4s-0.4,1.4-0.5,1.4c-0.5-0.1-0.9-0.3-1.4-0.5c-0.5-0.2-1.4-0.4-1.4-0.5c0.2-0.5,0.6-1,1-1.4
	C50.2,70.4,50.5,70.8,51,71L51,71z M76.5,62.7c1.2,0.3,4.5,0.9,5.5,1.1c1,0.2-0.8,0.6-1.1,0.6c-2.2,0.4-4.4,0.3-6.5-0.1
	C72.2,64,70,63.6,67.9,63c-1.9-0.5-5-1.5-6.4-2c-0.5-0.2-0.6,0.4-0.3,0.5c3.1,1.3,6.3,2.4,9.6,3.1c3.6,0.7,8.1,1.2,8.6,1.3
	c0.5,0.1,1.3,0.8-0.7,0.8c-2.7,0-5.4-0.2-8.1-0.6c-3.1-0.5-6.1-1.3-9-2.3c-1.9-0.8-2.6-1.1-2.9-1.2s-0.4,0.2-0.1,0.4
	c2.2,1.3,4.5,2.4,6.9,3.1c2.4,0.8,5,1.5,7.5,1.8c-1.3,0.5-4,0.6-7-0.2c-2.6-0.6-5.2-1.4-7.6-2.4c-1-0.4-2-0.9-2.9-1.4
	c0,0,0.8-0.1,0.8-0.3c-1.2,0.1-3.4-1.3-3.4-1.3c1,1.2,2.2,2.2,3.5,2.9c1.3,0.8,2.7,1.4,4.2,2c0.5,0.3,2.5,0.5,1.6,0.8
	c-1.8,0.2-3.6-0.1-5.2-0.8c-1.8-0.9-3.4-2-5-3.3c0,0,1.1,0.3,1.3,0c-0.7-0.2-1.4-0.4-2-0.8c-0.6-0.5-1.1-1.1-1.6-1.7
	c-0.2,0.5,0.6,1.1,0.6,1.1c-0.6,0-1-0.3-1.9-1.1s-1.4-1.6-1.9-2s-1-0.2-1,0.1s0.6,0.2,0.6,0.2c0.4,0,1.6,2.1,3,3.3
	c0.3,0.3,1.4,0.5,1.3,1.5c0,1.1-1.3,0.5-1.3,0.5c0,0.2,0.3,0.7,0.9,1c0.7,0.4-0.1,0.6-0.1,0.8s0.2,2.6-0.3,3.4c-0.3,0.5-0.4,0.9-1,1
	s-1.4-0.7-1.9-1.4c-0.3-0.6-0.6-1.2-0.8-1.9c-0.3,0.1-0.2,1.3-0.2,1.3s-0.9,0.5-0.7-2.8c0.1-1.8-0.7-2-1.3-2.8
	c-1-1.4-2.1-2.6-3.4-3.7c-0.3-0.8-0.3-1.7,0-2.4c0,0,0.8,1.1,1.4,0.7c-0.4-0.4-0.7-0.9-0.9-1.4c-0.1-0.4,0-0.9,0.2-1.3
	c0.3,0.6,0.8,1.1,1.4,1.3c0,0-1-1.2-0.8-2.1s1.3-2.2,1.6-2c-0.1,1.2,0.1,2.4,0.7,3.5c0.4-1.4,1.1-2.7,2-3.8c1.3-1.4,2.9-2.5,4.7-3.2
	c-0.3,0.4-0.5,0.8-0.7,1.2c0.7-0.5,1.5-1.4,2.5-1.5s1.6,0.5,3.5,1.9s3.7,4.1,5.3,5.5c2.2,2,4.7,3.4,7.5,4.3
	C71.7,61.5,75.3,62.4,76.5,62.7L76.5,62.7z M65.2,57.9c0.8-0.3,1.6-0.5,2.5-0.5c0.3,0,0.5,0.8,0.3,1.7C67,58.9,66,58.5,65.2,57.9z
	 M70.2,58.3c-0.1,0.1-0.7,0.1-1,0.2c-0.3,0.1-0.5,0.4-0.6,0.4s0-0.5-0.1-1s-0.3-0.7-0.3-0.8s0.3-0.6,0.6-0.7
	c0.4-0.1,0.7-0.2,1.1-0.2c0.2,0,0.2,0.9,0.3,1.2C70.2,57.7,70.4,58.2,70.2,58.3L70.2,58.3z M70.7,58.6c0,0.3,0.2,1.5,0.1,1.5
	c-0.1,0.1-1.1-0.1-1-0.3c-0.1,0-0.3-1-0.1-1.1S70.6,58.4,70.7,58.6L70.7,58.6z M69.3,59.7c-0.1,0-0.8-0.2-0.7-0.3
	c0.1-0.1,0.2-0.2,0.4-0.2c0.1,0,0.3-0.2,0.3-0.1C69.2,59.2,69.3,59.6,69.3,59.7z M77.4,57.1c0-0.2-0.1-0.4-0.3-0.5
	c-0.4-0.4-0.9-0.7-1.4-0.9c-0.3,0-0.7,0-1.1,0c0.3-0.2,0.7-0.4,1.1-0.3c0.6,0.2,1.2,0.5,1.6,1.1C77.4,56.6,77.4,56.8,77.4,57.1z
	 M78.2,54.6c0.2,0.3,0.2,0.6,0.1,0.9c-0.1-0.4-1.3-1.3-1.6-1.5c-0.7-0.2-1.4-0.2-2.1-0.1c-0.2,0-0.3,0.2-0.3,0.3
	c0,0.1,1.8,0,2.1,0.2c0.5,0.4,1,0.8,1.4,1.3c0.2,0.1,0.2,0.5,0.1,0.9c-0.1-0.5-1.2-1.3-1.6-1.4c-0.3-0.1-0.5-0.1-0.8-0.2
	c-0.3,0-0.5,0-0.8,0.1c-0.3,0.1-0.5,0.3-0.8,0.5c0,0-1.2,0.8-1.3,1.3c0,0.7,0.3,1.3,0.8,1.8c0.3,0.1,2.5,0.4,3.1,0.1
	c0,0-0.4,0.7-0.6,0.7c-1.1,0-2.3-0.1-3.4-0.4c-0.3-0.3-0.9-0.8-0.9-0.8c-0.1-0.2-0.2-0.3-0.4-0.4c-0.2-0.1-0.6,0.2-0.7,0.2
	c-0.3-0.6-0.4-1.3-0.4-1.9c0.1-0.1,0.1,0,0.4-0.1c0.5-0.3,0.9-0.7,1.3-1.1c0,0,1.2-1.2,1.6-1.5c1.1-0.2,2.2-0.2,3.3,0
	C77.5,53.7,77.9,54.1,78.2,54.6z M66.8,50.1c2.2,0.2,4.5,0.2,6.7,0.2c2.6-0.2,5.2-0.6,7.7-1.2c-0.1,0.5-0.3,0.8-1,1.1
	c-3.7,0.9-7.4,1.4-11.2,1.3c0,0-0.1,0,0,0.1l0.1,0.1c1.6,0.1,3.3,0.1,4.9,0c0.6,0,3.2-0.2,3.1,0.1c-0.2,0.5-0.7,0.9-1.2,0.9
	c-0.6,0.1-4-0.1-4.3-0.1c-0.3,0-0.6,0.2-0.3,0.3c0.3,0.1,1.4,0,1.6,0.1c0.2,0.1-0.6,0.8-0.8,0.9c-0.7,0-1.4,0-2.1,0
	c-0.2,0-0.6,0.3-0.2,0.4c0.6,0.1,2.2-0.2,2,0c-0.1,0.2-1.1,1.2-1.2,1.1c-0.8,0.1-1.5,0.2-2.2,0.4c-0.6,0.3-0.5,0.8-1.1,1
	c-0.6,0.2-2.5,0.7-2.6,0.4c0.2-1.3,0.3-2.6,0.2-3.9c-0.2-1.1-1.8-2.7-2.3-3.6C62.3,49.1,65.6,50,66.8,50.1z M75.8,44.9
	c-0.6,0.3-2,1.8-3.2,1.8c-0.7,0-1.1,0-1.3-0.5s0.3-1.6,0.5-1.7c0.6-0.2,1.3-0.3,2-0.3c0.7,0,1.5,0,2.2,0.2
	C76,44.5,76,44.7,75.8,44.9C75.9,44.9,75.8,44.9,75.8,44.9L75.8,44.9z M76.1,43.1c-0.3,0.5-0.2,0.6-0.4,0.8c-0.5,0.1-0.9,0.1-1.4,0
	c-0.7,0-1.9,0.1-2.1,0c-0.1-0.1,0.3-0.6,0.4-0.7s0.4,0.6,1.1,0.2c0.3-0.3,0.7-0.6,0.9-0.6C75.4,43,76.4,42.6,76.1,43.1L76.1,43.1z
	 M77.4,42.4c0.3-0.1,0.8,0.2,1.3,0.4c0.9,0.4,1,0.9,1,0.9c-0.3-0.1-0.5-0.2-0.8-0.2c-0.4-0.1-0.8-0.1-1.2-0.1c-0.2,0-1,0.2-0.9,0.8
	c0.2,0.5,0.7,0.8,1.3,0.9c-0.4,0-0.8,0-1.1-0.1c-0.5-0.2-0.8-0.8-0.6-1.3c0,0,0,0,0,0C76.5,43.2,76.9,42.7,77.4,42.4L77.4,42.4z
	 M76.3,42.6c-0.4-0.1-0.7-0.4-0.9-0.7c-0.3-0.5-0.9-0.8-1.4-0.6c-0.6,0.3-0.6,1.1-0.1,1.2c0.1,0,0.3,0,0.2,0.1
	c-0.2,0.2-0.4,0.4-0.6,0.5c-0.2,0-0.5-0.2-0.7-0.4c-0.2-0.2-0.4-0.6-0.4-0.8c0.5-0.5,1.1-1,1.8-1.3c0.3-0.1,1.4,0.7,1.6,1
	s0.7,0.5,0.7,0.7S76.4,42.7,76.3,42.6L76.3,42.6z M73.9,38.3c1,0.4,1.9,1.2,2.4,2.2c0.1,0.4,0.2,0.8,0.2,1.2c-0.5-0.5-1.1-1-1.7-1.3
	c-0.6-0.4-1.3-0.6-2-0.7c0,0-0.7-0.4-0.6-1C72.3,38,73.1,38.1,73.9,38.3z M56.9,27.5c0.1-0.3,0.3-0.6,0.6-0.9c0,0.3-0.1,0.6-0.1,0.9
	c0,0.2,0,0.5,0.1,0.7c-0.3,0.1-0.6,0.3-0.9,0.5C56.7,28.3,56.8,27.9,56.9,27.5z M55,31.3c0.3-0.6,0.8-1.2,1.3-1.7
	c0.6-0.5,1.3-1,2-1.3c0,0-1.8,2.2-2,3.8c-0.1,0.8-0.1,1.7,0.2,2.5c0.1,0.6,1.6,1.8,2.1,2.2c0,0-0.7-0.2-1.3-0.4s-1,0-1.5-0.2
	c-0.7-0.6-1.1-1.4-1.2-2.2C54.4,33.1,54.6,32.2,55,31.3L55,31.3z M55.5,36.5c-0.9-0.1-1.6-0.6-1.8-1.5c-0.2-0.7,0-1.5,0.5-2.1
	C53.9,34.4,54.8,36.2,55.5,36.5L55.5,36.5z M31.3,53.5c0.3,1.2,0.8,2.3,1.6,3.3c0.6,0.7,1.6,0.9,2.4,0.5c1.5,0.4,3-3.3,4.4-4.7
	c1.2-1.1,2.6-2.2,4-3.1l-1.9-0.9c1,0.1,2.1,0,3.1-0.2c1-0.2,1.2-0.6,1.4-1c-1.5,0.2-2.9-0.1-4.2-0.7c0,0,4,0.1,4.4-1.2
	c0,0-5-0.1-6.2-1.7c0,0,2.4,0.4,3.1-0.1c-1.6-1.3-3.1-2.8-4.3-4.4c2.5,1.7,8.9,4.9,11.4,3.8c-3.3-0.5-7.8-3.5-8.3-4.6
	c1.1,0.5,6.4,2.8,8.2,1.8c-3.4-0.3-5.5-3.9-6.1-5.1c-0.3-1.2,0.2-2,0.3-2.9c0.1-0.4,0-0.9-0.2-1.3c0.8,1,1.5,2.2,2.1,3.4
	c0.6,1.5,1.6,2.8,2.9,3.7c0,0-2.9-3.4-2.7-4.7s0.3-1.5,0.4-2.4c0-0.6,0-1.2,0-1.8c0.6,0.6,1,1.4,1,2.3c0,1.3,0.4,3.9,1.3,4.8
	c-0.3-1-0.5-2.1-0.4-3.1c0.1-0.8,0.3-1.6,0.7-2.3c0.3-0.9,0.4-1.7,0.4-2.7c0.1,0.5,0.2,1.1,0.3,1.6c0.1,0.9-0.9,3.5,0,5.1
	c0.8,0.9,1.6,1.8,2.6,2.6c0,0-3.2-3.1-1.5-4.7c0.8-0.9,1.2-2.1,1.2-3.3c0-0.6-0.1-1.1-0.3-1.7c0.5,0.3,0.9,0.7,1.3,1.2
	c0.7,1,0.8,2.4,0.3,3.5c-0.1,0.5-0.6,0.6-0.7,1.9c-0.1,1,0.5,2,1.5,2.4c0.6,0.1,1.3,0.2,1.9,0.1c1,0.2,2,0.4,3,0.7
	c0,0,0.7,0.1-0.2-0.5c-0.9-0.5-1.7-1.3-2.4-2.1c-0.8-1.3-0.2-3.5-0.2-3.5c0.2-0.5,0.5-1,0.8-1.5c0.3,1.3,0.6,2.5,1.1,3.7
	c0.6,1.5,1.7,2.7,3,3.5c-0.2-0.7-0.4-1.4-0.5-2.1c0,0,0.1,0.8,1.9,1.9c0.1-0.5,0.1-0.9,0-1.4c0.4,0.5,0.9,1,1.5,1.4
	c0,0,0.6-0.5,0.5-0.8c0.6,1,0.9,2.4,2.5,3.3c1.3,0.7,3.6,0.5,5.8,0.8c0.8,0-1.4,1.3-1.5,1.6c0,0.1,0.4,0.7,0.5,0.9s-0.8,1.1-1,1.1
	c0,0-3.9,0.5-4.9,0.8c-0.9,0.3-1.8,0.7-2.6,1.3c0-0.2,0.2-0.7,0-0.9c-1,0.2-1.9,0.5-2.8,1c-0.5,0.3,0.7-0.1,0.5,0.2
	c-0.8,0.8-0.3,2.8-0.1,3.6c0.3,0.8,0.6,1.5,1,2.2c-1.6-0.8-2.7-2.3-3-4.1c-0.4,0.2-0.7,0.4-0.2,3.3c-0.8-0.6-1.4-1.6-1.4-2.6
	c-0.2,0.2-0.4,0.5-0.5,0.7c-0.2-0.4-0.4-0.8-0.5-1.3c-0.2,0.3-0.3,0.6-0.4,0.9c-0.2-0.1-0.3-1.4-0.3-1.4s-0.5,0-0.5,0.8
	c-0.4-0.2-0.3-1.6-0.3-1.6s-0.4-0.1-0.6,0.8c-0.3-0.3-0.1-1.8-0.1-1.8c-0.5,0.2-0.8,0.6-0.8,1.1c-0.1,0.8,0,0.5-0.5,1.2
	c-0.3,0.3-1,0.5-1.1,0.3s-0.1-0.6,0.1-0.9c0.3-0.4,0.6-0.4,0.7-0.6c0.1-0.2,0.2-0.4,0.1-0.5c-0.5,0.1-1,0.2-1.4,0.4
	c-0.3,0.2-0.6,0.5-0.9,0.8c0,0-0.3-0.2-0.1-0.8c0.3-0.8,1.1-1.2,2.1-1.6c-2.4,0.7-3.1,2.2-2.9,2.6c0.1,0.2,0.3,0.2,0.9,0.3
	c-1.9,0.8-3.7,1.9-5.2,3.3c-0.9,0.8-1.6,2-1.8,3.2c-0.3-1-0.2-2,0.2-2.9c-1.9,0-5.4,5.5-4.7,8c0.4,1.6,1.7,2.1,2.3,2.8
	c1.2,1.1,1.9,2,1.4,2.8c-1-1.1-2.1-2.1-3.4-2.8c-0.7-0.4-1.4-0.9-2.1-1.4c0,0.7,0.1,1.5,0.1,2.2c0.3,0.6,0.4,1.2,0.4,1.8
	c0,0.5-0.1,1-0.4,1.5c-0.5-0.5-0.2-1.1-0.5-1.8c-0.1-0.6-0.4-1.1-0.8-1.4c-0.3,0.2-0.1,2.1,0,3.5c0.1,0.5-0.2,1.2-0.4,1.1
	c-0.6-1.2-0.9-2.6-0.9-4c0.1-1.1,0.4-2.2,0.8-3.2c-0.5,0.7-0.8,1.5-1.1,2.3c-0.2,1.2-0.2,2.5-0.1,3.7c-0.2,1.6-0.9,3.1-2,4.2
	c0.3-1.1,0.2-2.3,0-3.4c-0.3-1-0.3-2.2,0.1-3.2c-0.8,1-1.8,2-2.9,2.8c0.4-0.8,0.7-1.7,0.8-2.6c-0.8,0.6-1.7,1-2.7,1.1
	c-1.6,0.3-4,0.2-4.5,0.3c-0.9,0.5-1.8,1-2.8,1.4c0.7-0.8,1.1-1.7,1.8-2.4c0.8-0.7,1.3-0.7,3.4-0.6c1,0,3.9-0.9,3.1-1.1
	c-0.7,0-1.5,0.1-2.2,0.3c-0.2,0.1-0.1-0.9,0.4-1.3s0.7-0.1,1.6-0.2c0.2-0.2,0.2-0.4,0-0.6c-1.4-0.7-3-0.8-4.5-0.4
	c-2.5,2.1-2.8,2.3-4.1,2c0.4-0.9,1-1.7,1.6-2.4c0.7-0.8,1.6-1.5,2.6-1.9c0.5-0.2,1.5,0.5,2,0.7c1.8,1,3.6,2,5.3,1.7
	c0,0,1.2-0.2,1.2-0.3s-1.1-0.1-1.2-0.1c-2.2,0.5-4.5-1.9-6-2.5c-1.9-1.2-3.2-1.2-5.8-0.2c-0.9,0.4-1.7,1-2.3,1.8
	c0.2-0.8,0.6-1.5,1.1-2.1c0.6-0.6,1.3-1,2.1-1.3c1-0.4,2-0.6,3.1-0.6c1.3,0,3.3,2,7.7,3.1c1.1,0.4,2.4,0.2,3.4-0.4
	c-3.6-0.2-6.6-4.1-7.2-5c-0.9-2.4-1.2-4.9-1-7.4c0.4-2.2,2.7-5.2,0-8.2c0.2-0.7,0.5-1.4,0.9-2c0.1-0.2,0.3-0.1,0.4,0
	c0.6,0.4,2.2,3.6,1.7,6.6S28.6,48.8,30,52c-0.2-1.9-0.2-3.8,0.2-5.7c0.1-2.3,2.9-4.7,1.7-11c-1-4-1.8-4.1-2.2-4.7
	c-0.2-0.2,0.1-0.6,0.1-1.1s-0.1-1.1,0.1-1.1c0.6,0.3,1.1,0.7,1.5,1.1c1.8,1.5,3.5,4.6,3.6,8.7c-0.1,5.8-1,7-2.1,8.7
	C31.9,49,31.3,51.2,31.3,53.5L31.3,53.5z"/>
<path class="st2" d="M56.9,40.7c0.2,0.2,0.4,0.4,0.4,0.7c-0.1,0.5-0.3,1-0.6,1.5c0,0,1.7-0.6,3-1.3s2.5-1.3,2.5-2.1
	c-1,0.4-2,0.8-3,1.1C58.5,40.7,57.7,40.7,56.9,40.7z"/>
<path class="st2" d="M44.8,64.1c0,0,0.4,1,1,1.2s0.3-1.5,0.3-1.4s0,1.1-0.4,1S44.8,64.1,44.8,64.1z"/>
<path class="st2" d="M61.2,29.3c-0.2,0.7-0.3,1.5-0.2,2.3c0.1,0.6,0.4,1.1,0.8,1.5c0.3-0.8,0.8-0.9,1-1.7c0.2-1.4-0.3-1.5-0.3-2.3
	c0-0.6,0-1.1,0.1-1.7C62,27.9,61.5,28.5,61.2,29.3z M62.6,30.9c0,0.9-0.6,1-0.9,1.6c0,0-0.3-0.2-0.5-1c-0.1-0.7-0.1-1.5,0.2-2.2
	c0.3-0.5,0.6-0.9,0.9-1.3c-0.1,0.4-0.1,0.8,0,1.2C62.5,29.9,62.6,30.4,62.6,30.9z"/>
<path class="st2" d="M39.1,30.8c-0.2,0.9,0,1.9,0.6,2.5c0.5,0.5,1.1,0.9,1.8,1.2c-0.6-0.6-0.9-1.4-0.9-2.3c0-1,1.4-1.5,1.1-2.9
	c-0.2-0.8-0.6-1.5-1.3-2.1c0.2,0.5,0.2,1,0.2,1.5C40.3,29.4,39.4,29.7,39.1,30.8z M40.7,29.1c0.2-0.4,0.3-0.8,0.2-1.2
	c0.3,0.5,0.6,1.2,0.6,1.8c0,0.7-0.9,1.2-1.2,2.4c0,0.6,0.1,1.2,0.4,1.7c-0.9-0.5-1.5-1.4-1.4-2.5C39.5,30,40.4,29.7,40.7,29.1z"/>
<polygon class="st2" points="83.1,95.1 84,95.1 84,97.7 84.3,97.7 84.3,95.1 85.2,95.1 85.2,94.8 83.1,94.8 "/>
<polygon class="st2" points="86.9,97.2 86.1,94.8 85.6,94.8 85.6,97.7 85.9,97.7 85.9,95.2 86.7,97.7 87,97.7 87.8,95.2 87.8,97.7 
	88.1,97.7 88.1,94.8 87.6,94.8 "/>
</svg>
