<?xml version="1.0" encoding="UTF-8" standalone="no"?>
<svg
   width="76.786797"
   height="110.75671"
   viewBox="0 0 76.786797 110.75671"
   fill="none"
   version="1.1"
   id="svg4"
   sodipodi:docname="SJU.svg"
   inkscape:version="1.4 (86a8ad7, 2024-10-11)"
   xmlns:inkscape="http://www.inkscape.org/namespaces/inkscape"
   xmlns:sodipodi="http://sodipodi.sourceforge.net/DTD/sodipodi-0.dtd"
   xmlns="http://www.w3.org/2000/svg"
   xmlns:svg="http://www.w3.org/2000/svg">
  <defs
     id="defs4" />
  <sodipodi:namedview
     id="namedview4"
     pagecolor="#ffffff"
     bordercolor="#000000"
     borderopacity="0.25"
     inkscape:showpageshadow="2"
     inkscape:pageopacity="0.0"
     inkscape:pagecheckerboard="0"
     inkscape:deskcolor="#d1d1d1"
     inkscape:zoom="10.39823"
     inkscape:cx="39.045106"
     inkscape:cy="55.345957"
     inkscape:window-width="3440"
     inkscape:window-height="1377"
     inkscape:window-x="-8"
     inkscape:window-y="-8"
     inkscape:window-maximized="1"
     inkscape:current-layer="svg4" />
  <path
     d="m 49.7948,84.032706 c 0,7.6442 -2.9336,8.2795 -5.6828,8.2795 -1.3459,0 -5.7412,-0.6155 -5.7412,-8.5797 v -8.1544 c 5.888,-4.6438 9.6,-12.3464 9.6,-21.1821 0,-6.8377 -2.5901,-13.3224 -7.2969,-17.5793 l -0.0377,-0.0329 h -0.0329 c -4.6428,-3.969 -9.8165,-5.5605 -14.3821,-6.9619 l -0.5487,-0.1836 c -5.1483,-1.6705 -7.0871,-2.8235 -7.0871,-6.3727 0,-3.727 2.5525,-5.0503 4.8866,-5.0503 2.6146,0 4.4649,2.2532 4.5412,5.4955 l 0.0508,3.4711 h 13.3628 v 8.0433 h 8.3671 v 48.8075 z m -4.847,-63.9831 V 1.4538858 H 29.5567 v 0.10447 C 27.2076,0.50912582 24.6602,-0.02212418 22.0875,7.0582182e-4 9.90494,7.0582182e-4 0,10.552206 0,23.520706 c 0,7.3092 2.768,13.6753 7.99812,18.064 4.36328,3.6743 8.66168,5.0635 13.21598,6.5506 l 0.2805,0.0903 c 5.4277,1.7694 7.8005,3.3149 7.8005,7.0476 0,3.7336 -2.1365,6.4847 -5.5746,6.4847 -3.9097,0 -5.6565,-4.0744 -5.6565,-7.552 v -3.5765 H 0.956235 v 28.2362 H 13.6038 v 14.0556 H 20.32 c 2.8386,10.073504 12.8969,17.835504 23.8739,17.835504 8.4066,0 24.3011,-5.241 24.3011,-25.197404 v -50.3341 h 8.2918 v -15.1756 h -31.84 z"
     fill="#041e41"
     id="path1" />
  <path
     d="m 44.9035,23.618606 h 28.401 v 8.0377 h -8.2852 v 15.4823 H 53.2706 v -15.4823 h -8.3671 z m -31.6941,47.04 v 4.5855 H 4.46495 v -21.1295 H 14.5873 c 0,5.7111 3.4503,11.1342 9.1332,11.1342 5.103,0 9.0513,-4.1459 9.0513,-10.0537 0,-6.8772 -5.7732,-8.9995 -10.5186,-10.5449 -4.464,-1.4541 -8.2918,-2.7181 -12.0612,-5.8946 -4.39435,-3.7083 -6.71623,-9.1304 -6.71623,-15.3271 0,-11.4221 8.70583,-19.9501102 18.61173,-19.9501102 4.2231,0 8.3558,1.55294 10.9393,5.33177 v -3.87765 h 8.432 V 23.527306 h -9.9765 c -0.0828,-5.1294 -3.4183,-9.0061 -8.0103,-9.0061 -4.5929,0 -8.3624,3.1963 -8.3624,8.6193 0,6.7793 5.3459,8.417 10.0782,9.969 4.7322,1.5529 9.2546,2.9148 13.1896,6.2945 3.9614,3.5822 6.1177,9.0975 6.1177,14.9064 0,12.4904 -8.2918,22.2692 -19.4796,22.2692 -4.7388,0 -8.879,-1.84 -11.8061,-5.8946"
     fill="#c3002f"
     id="path2" />
  <path
     d="m 17.0804,89.351306 v -9.3129 h 17.809 v 3.6941 c 0,8.848 4.8988,12.1431 9.2235,12.1431 7.4428,0 9.1586,-5.7252 9.1586,-11.8494 v -33.3629 h 11.7487 v 34.897 c 0,18.555404 -15.4729,21.614404 -20.8245,21.614404 -9.8673,0 -19.824,-7.696004 -21.0861,-17.828104 l -6.0282,0.0057 z"
     fill="#c3002f"
     id="path3" />
  <path
     d="m 67.0155,103.92471 h 1.5436 v 4.087 h 0.7153 v -4.087 h 1.5247 v -0.733 h -3.7892 l 0.0056,0.734 z m 8.5534,-0.733 h 1.1549 v 4.814 h -0.7153 v -4.088 l -1.6066,4.088 h -0.4141 l -1.5567,-4.088 v 4.088 h -0.7144 v -4.814 h 1.1671 l 1.3459,3.399 z"
     fill="#041e41"
     id="path4" />
</svg>
