<?xml version="1.0" encoding="UTF-8" standalone="no"?>
<svg
   version="1.1"
   id="Layer_1"
   x="0"
   y="0"
   viewBox="0 0 200 132.13344"
   xml:space="preserve"
   sodipodi:docname="SMC.svg"
   width="200"
   height="132.13344"
   inkscape:version="1.4 (86a8ad7, 2024-10-11)"
   xmlns:inkscape="http://www.inkscape.org/namespaces/inkscape"
   xmlns:sodipodi="http://sodipodi.sourceforge.net/DTD/sodipodi-0.dtd"
   xmlns="http://www.w3.org/2000/svg"
   xmlns:svg="http://www.w3.org/2000/svg"><defs
     id="defs5" /><sodipodi:namedview
     id="namedview5"
     pagecolor="#ffffff"
     bordercolor="#000000"
     borderopacity="0.25"
     inkscape:showpageshadow="2"
     inkscape:pageopacity="0.0"
     inkscape:pagecheckerboard="0"
     inkscape:deskcolor="#d1d1d1"
     inkscape:zoom="8.7037037"
     inkscape:cx="99.957447"
     inkscape:cy="66.121277"
     inkscape:window-width="3440"
     inkscape:window-height="1377"
     inkscape:window-x="-8"
     inkscape:window-y="-8"
     inkscape:window-maximized="1"
     inkscape:current-layer="Layer_1" /><style
     id="style1">.st3{fill:#003057}</style><path
     d="m 78.116,84.417 c 0.125,0.095 0.511,-1.38 0.609,14.768 0.078,12.472 21.729,24.384 23.366,25.193 1.679,-0.797 23.154,-12.232 23.069,-25.516 -0.051,-9.223 0.053,-10.636 0.17,-12.788 l -0.011,-2.099 C 123.483,83.157 112.815,75.015 101.913,68.658 90.329,75.866 78.64,84.197 78.116,84.417"
     fill="#cf3339"
     id="path1" /><path
     d="m 98.89,85.297 c -0.931,0 -3.751,1.533 -6.35,5.227 -0.015,0.015 -0.655,0.738 -0.655,2.913 l 0.015,6.808 c 0.416,6.649 6.9,11.142 8.956,11.142 h 2.447 c 2.125,0 6.195,-4.777 6.195,-5.877 v -6.637 l -0.009,-0.386 c 0,-0.901 0,-3.005 -1.542,-3.005 h -7.858 l -0.054,0.085 c -0.059,0.117 -0.078,0.153 2.36,3.734 l 0.121,0.178 0.14,-0.167 c 0.29,-0.344 0.691,-0.81 2.854,-0.833 l -0.004,7.482 c 0,1.266 -0.872,2.375 -1.866,2.375 -1.889,0 -7.446,-2.071 -7.69,-8.409 v -5.799 c 0,-4.48 0.218,-5.439 2.513,-5.439 h 5.173 c 0.252,0 1.289,0.149 1.715,0.893 l 0.136,0.235 2.888,-4.535 z"
     fill="#ffffff"
     id="path2" /><path
     d="m 182.232,38.263 0.043,0.025 z m -64.653,4.707 c -2.835,2.432 -6.586,5.954 -9.603,8.78 l -2.199,2.061 c -0.753,0.67 -2.277,2.01 -4.041,3.556 -2.057,-1.947 -5.307,-5.027 -5.33,-5.046 A 139.315,139.315 0 0 0 84.751,41.95 V 26.033 c 4.906,6.847 15.071,21.04 15.071,21.04 0.011,0.017 2.025,2.786 2.025,2.786 l 2.036,-2.786 15.067,-21.04 c 0,4.099 0,10.368 0.004,15.76 z M 83.905,87.007 c 2.604,-1.014 8.087,-3.852 17.927,-11.711 0.108,0.091 0.369,0.297 0.369,0.297 9.563,7.642 14.899,10.415 17.452,11.418 0,3.696 -0.004,12.582 -0.004,13.049 0,10.421 -14.161,16.382 -17.836,17.755 -3.685,-1.368 -17.908,-7.332 -17.908,-17.755 V 87.007 Z M 26.279,40.788 c 3.956,-1.893 9.009,-2.752 15.504,-2.752 17.98,0 30.034,11.015 36.298,16.328 0.379,0.335 6.543,5.854 13.174,11.995 -8.068,6.363 -15.285,10.54 -19.032,10.983 -0.004,0.002 -2.156,0.257 -2.156,0.257 v 24.598 c -0.011,0.695 0.04,5.697 3.829,11.821 3.49,5.648 11.024,13.351 27.051,17.952 l 0.286,0.081 c 0.613,0.174 1.075,0.038 1.482,-0.091 15.947,-4.601 23.444,-12.298 26.922,-17.946 3.763,-6.111 3.821,-11.119 3.81,-11.823 V 77.599 l -2.15,-0.256 c -3.715,-0.441 -10.773,-4.535 -18.924,-10.954 a 431.936,431.936 0 0 0 7.663,-6.893 c 0.907,2.97 2.563,6.344 5.583,9.107 l -0.042,-0.038 c 6.52,6.289 18.254,13.79 37.12,13.79 13.43,0 24.727,-3.681 34.548,-11.255 L 200,68.976 182.989,58.107 c 0.31,4.76 -2.653,6.113 -2.653,6.113 l -0.019,0.008 c -5.345,2.763 -11.015,4.05 -17.851,4.05 -12.698,0 -20.559,-4.887 -25.989,-9.147 -1.93,-1.489 -2.746,-3.252 -2.873,-5.218 0,0 -0.004,-0.059 -0.004,-0.091 v -5.483 l 1.247,-0.937 c 5.352,-4.02 14.041,-9.366 27.619,-9.366 6.836,0 12.506,1.289 17.847,4.052 0,0 2.987,1.238 2.676,6.119 L 200,37.341 197.246,35.219 C 187.425,27.643 176.128,23.96 162.698,23.96 c -10.848,0 -20.137,2.411 -29.106,7.567 l -0.009,-11.643 v -0.061 l -0.011,-0.749 c 0,0 -0.456,-11.225 5.197,-15.864 L 142.42,0.021 110.719,0 l 2.046,3.643 c 0,0.006 0.575,1.086 0.575,2.597 0,1.249 -0.392,2.458 -1.172,3.592 0.008,-0.004 -6.969,10.074 -10.317,14.916 L 91.527,9.825 C 90.759,8.699 90.363,7.489 90.363,6.24 c 0,-1.512 0.575,-2.593 0.583,-2.602 l 2.033,-3.636 -31.726,0.006 3.6,3.18 c 5.937,4.737 5.267,16.619 5.267,16.619 v 12.066 c -9.363,-5.318 -18.082,-7.911 -28.573,-7.911 -12.173,0 -22.147,3.06 -30.482,9.342 a 2.78,2.78 0 0 0 -0.354,0.242 c 0.008,-0.004 -0.255,0.208 -0.263,0.216 A 33.074,33.074 0 0 0 8.559,35.344 C 3.706,39.682 2.877,42.457 2.737,43.2 l -0.011,0.064 -0.093,0.488 0.151,0.545 c 1.628,5.861 8.346,10.133 19.984,12.699 5.504,1.219 12.154,2.042 18.722,2.326 l 0.223,0.011 c 4.694,0.248 9.081,0.46 13.339,1.206 2.178,0.38 3.397,0.67 4.491,1.005 0,0 2.578,0.85 0.138,2.544 -8.997,5.744 -20.469,5.456 -20.469,5.456 h -0.051 l -0.051,0.002 c -0.41,0.021 -10.132,0.426 -19.51,-5.962 0,0 -3.863,-2.328 -2.477,-6.567 L 0,67.962 c 0,0 2.144,2.105 2.175,2.133 1.368,1.416 13.74,13.511 36.806,13.525 h 0.038 c 16.797,-0.293 26.268,-5.207 32.063,-9.274 5.93,-4.16 8.795,-8.56 9.23,-9.351 0.023,-0.032 0.732,-1.092 0.732,-1.092 L 80.389,62.574 80.245,62.26 C 79.505,60.655 77.786,56.889 72.241,53.431 62.335,46.726 43.979,46.294 43.979,46.294 42.681,46.241 37.351,46.006 32.582,45.433 29.718,45.087 27.818,44.812 26.31,44.432 20.539,43.195 26.279,40.788 26.279,40.788 M 182.283,68.03 a 0.246,0.246 0 0 0 -0.04,0.019 z"
     fill="#bec1c1"
     id="path3" /><path
     class="st3"
     d="m 127.065,67.028 c 6.259,6.034 17.456,13.188 35.634,13.188 12.934,0 23.809,-3.535 33.244,-10.811 l 0.343,-0.261 -11.67,-7.449 -0.093,0.424 c -0.587,2.693 -3.197,3.997 -3.223,4.01 -5.663,2.926 -11.647,4.287 -18.833,4.287 -13.352,0 -21.61,-5.133 -27.31,-9.603 -1.618,-1.251 -3.492,-3.444 -3.689,-6.84 l -0.004,-0.112 -0.004,-17.976 -0.017,-15.989 c 0,-0.021 -0.011,-0.318 -0.011,-0.823 0,-2.886 0.343,-12.582 4.794,-16.333 l 0.628,-0.534 -22.479,-0.059 0.255,0.452 c 0.051,0.1 0.85,1.558 0.85,3.64 0,1.399 -0.363,3.074 -1.546,4.802 L 101.852,28.508 C 101.375,27.815 89.771,11.041 89.771,11.041 88.584,9.311 88.223,7.638 88.223,6.239 c 0,-2.082 0.797,-3.539 0.854,-3.64 l 0.252,-0.45 -22.48,0.057 0.632,0.534 c 5.226,4.408 4.783,17.015 4.775,17.143 v 13.209 c 2.474,1.552 6.395,4.116 10.354,7.114 0,-3.94 0.008,-19.331 0.008,-20.83 1.033,1.446 18.939,26.453 18.939,26.453 0,0.002 0.293,0.401 0.293,0.401 l 0.291,-0.399 c 0.004,-0.002 15.796,-22.06 18.945,-26.455 l 0.011,32.962 c 0,0 -0.327,8.931 5.968,14.69 M 38.981,81.48 C 15.73,81.47 3.82,68.714 3.687,68.585 l -0.271,-0.265 11.643,-7.434 0.078,0.449 c 0.375,2.309 3.214,3.99 3.257,4.018 10.099,6.878 20.686,6.337 20.819,6.329 A 44.894,44.894 0 0 0 59.818,66.695 C 62.379,65.251 64.712,63.182 64.332,62.13 63.13,58.805 50.847,57.681 41.827,57.196 40.411,57.12 8.57,56.399 4.847,43.726 l -0.023,-0.07 0.015,-0.068 c 0.019,-0.096 0.509,-2.511 5.154,-6.662 0.52,-0.473 1.094,-0.948 1.796,-1.501 l 0.273,-0.223 c 0,0 0.089,-0.068 0.119,-0.068 7.656,-5.825 17.215,-9.033 29.364,-9.033 10.958,0 20.054,2.939 29.795,8.982 0.114,0.066 11.659,6.859 23.58,18.779 l 5.278,4.995 a 875.567,875.567 0 0 1 -7.256,6.149 C 86.074,58.637 79.542,52.802 79.482,52.748 73.032,47.282 60.567,35.9 41.781,35.9 c -8.604,0 -14.456,1.476 -18.803,4.289 l -0.193,0.102 c -0.454,0.301 -0.85,0.591 -1.175,0.859 -0.683,0.604 -1.145,1.247 -1.374,1.908 a 1.123,1.123 0 0 0 -0.015,0.163 c 0,0.305 0.14,0.583 0.361,0.882 2.792,3.745 23.149,4.323 23.362,4.33 30.622,1.59 33.372,12.703 34.525,15.082 l 0.112,0.225 -0.1,0.144 c 0,-0.002 -8.032,17.045 -39.5,17.596"
     id="path4" /><path
     class="st3"
     d="M 195.942,36.91 C 186.509,29.637 175.634,26.101 162.7,26.101 c -10.881,0 -20.228,2.557 -29.141,7.924 v 11.67 c 5.666,-4.258 14.823,-9.798 28.906,-9.798 7.19,0 13.174,1.365 18.828,4.289 0.032,0.017 2.642,1.317 3.231,4.01 l 0.093,0.424 11.67,-7.446 z m -64.634,65.298 V 79.499 l -0.267,-0.03 c -4.919,-0.589 -13.277,-6.077 -20.296,-11.64 -2.288,1.93 -5.275,4.459 -7.209,6.092 11.611,9.283 17.001,11.327 18.258,11.532 -0.004,0.521 -0.008,14.609 -0.008,14.609 0,12.698 -17.548,19.193 -19.973,20.028 -2.432,-0.835 -20.047,-7.328 -20.047,-20.028 0,0 0.004,-12.599 -0.008,-14.613 1.313,-0.227 7.15,-2.371 20.217,-13.016 0.004,0 0.036,-0.025 0.036,-0.025 0.023,-0.017 7.294,-6.179 7.294,-6.179 a 415.728,415.728 0 0 0 10.114,-9.073 c -0.388,-1.711 -0.452,-3.804 -0.452,-3.804 v -8.755 c -3.515,3.017 -8.398,7.669 -11.753,10.797 0,-0.004 -11.509,10.163 -13.375,11.64 -7.478,6.041 -16.265,11.829 -21.366,12.434 l -0.267,0.03 v 22.715 c -0.004,0.191 -0.078,4.877 3.509,10.68 3.293,5.33 10.449,12.607 25.823,17.022 0.011,0 0.274,0.076 0.274,0.076 0.015,0.008 0.295,-0.081 0.295,-0.081 15.296,-4.41 22.424,-11.687 25.705,-17.016 3.574,-5.803 3.504,-10.489 3.496,-10.686"
     id="path5" /></svg>
