<svg width="152" height="82" viewBox="0 0 152 82" fill="none" xmlns="http://www.w3.org/2000/svg">
<g clip-path="url(#clip0_11264_10813)">
<path d="M96.9057 0.275879C95.5587 0.275879 94.3127 0.888181 93.4035 2.01074C92.6626 2.92919 92.3259 4.08576 92.4269 5.24233V5.31037C91.6861 5.14028 90.9789 5.00421 90.3391 5.00421C88.6553 5.00421 87.241 5.82062 86.5675 7.21531C86.1297 8.13376 85.7256 9.86862 87.2746 11.9436C84.3449 12.726 80.4049 13.4064 75.6231 13.4064C72.8954 13.4064 70.0667 13.1682 67.2717 12.726C65.4869 12.4539 63.7359 12.3178 62.0521 12.3178C54.5763 12.3178 49.2893 15.0732 45.0126 17.3183C44.6422 17.5224 44.2717 17.6925 43.935 17.8966C42.79 18.4749 38.7827 20.1077 36.6612 20.3118C36.3918 19.8696 36.1561 19.4273 35.954 19.0191C34.6744 16.672 33.3611 14.2228 28.5792 13.3383C28.1751 13.2703 27.771 13.2363 27.3669 13.2363C26.3903 13.2363 25.4474 13.4404 24.4709 13.6445C23.1575 13.9166 21.6758 14.2228 19.487 14.2228C18.5778 14.2228 17.6012 14.1547 16.5909 14.0527C11.7754 13.5424 8.91305 10.9231 8.60997 10.651C7.33032 9.4264 6.05068 9.15426 5.2088 9.15426C4.06386 9.15426 2.98626 9.6305 2.21173 10.4809C1.23516 11.5354 0.763711 12.9982 0.864736 14.8691C1.16781 20.8901 9.35082 29.6664 21.5411 29.6664C21.9452 29.6664 22.383 29.6664 22.7871 29.6324C23.831 29.5984 24.6392 29.4623 25.2117 29.3943C25.4138 29.3602 25.6832 29.3262 25.8179 29.3262C25.9526 29.4283 26.323 29.6324 26.9965 30.2447C29.8252 32.7279 34.0682 33.6464 37.5367 34.1226C37.8061 35.5513 38.2102 37.1501 40.1634 39.055C40.8369 39.7014 40.9716 40.0755 41.241 40.926C41.9482 42.8649 42.8574 44.8379 46.2586 47.117C47.0331 47.6273 47.7403 48.1035 48.4474 48.5457C52.9599 51.4371 55.4181 53.0359 57.1692 58.3766C57.2366 58.5467 57.2703 58.6827 57.3376 58.8528C58.3142 61.8803 59.4255 64.2955 63.6348 64.9758C63.3654 65.35 63.096 65.7582 62.894 66.2004L62.3889 67.255C61.547 68.9898 61.1092 69.9423 60.8398 70.7927C60.402 72.1534 60.6041 73.6161 61.3786 74.6706C62.1531 75.7251 63.3654 76.3374 64.7798 76.3374C66.1941 76.3374 67.9115 75.6911 70.2014 74.2964C70.6729 73.9903 70.7402 73.9903 71.178 73.9903C72.5587 73.9563 74.1414 73.7862 76.4987 71.8472C76.566 71.9153 76.6334 72.0173 76.7007 72.1194C77.8457 73.5481 79.26 75.2829 82.6948 76.1333C83.3347 76.3034 84.9174 77.6301 85.9276 79.0588C87.0052 81.1678 88.7227 81.61 89.9686 81.61C90.1707 81.61 90.4064 81.61 90.6421 81.576C92.2249 81.3719 94.5484 80.6576 94.7841 80.5555C96.2322 80.0793 97.3098 78.8887 97.6465 77.392C98.0169 75.7251 97.4108 73.8542 96.1311 72.6636C95.8954 72.4595 95.5587 72.1534 95.1883 71.8472C95.2893 70.9628 95.1209 70.0443 94.7168 69.1939C93.5718 66.8127 91.6524 65.9963 90.238 65.384C90.1033 65.316 89.9686 65.282 89.8339 65.2139C89.6656 65.1459 89.3288 64.8057 88.9921 64.4656L88.6216 64.0914C89.2615 63.7172 89.6319 63.6832 89.7666 63.6832H89.8003C93.8076 63.8533 96.9393 64.3295 100.61 65.248C100.677 65.282 100.745 65.282 100.812 65.316C101.25 65.4521 101.89 65.6222 102.664 65.6222C103.91 65.6222 105.055 65.1459 106.032 64.2615C106.772 63.5811 107.345 62.8328 107.783 62.1865C107.951 61.9824 108.119 61.7102 108.22 61.6082C110.174 59.3971 109.365 57.0839 109.029 56.1995C108.894 55.8253 108.726 55.4511 108.524 55.0769C108.018 54.0224 107.379 52.7298 107.48 50.3826C107.48 50.2806 107.513 50.0765 107.547 49.9064C107.85 48.1715 108.018 46.2326 106.402 43.103C107.278 39.1911 108.928 36.912 112.396 34.7689C114.518 33.4423 119.67 31.3332 124.687 29.9725C124.789 30.1426 124.923 30.3127 125.024 30.5168C125.967 32.0476 127.381 34.3267 131.355 35.3472C132.365 35.6193 132.736 35.7554 132.972 35.9595C133.409 36.3337 133.881 36.6739 134.352 36.98C134.992 37.3882 135.598 37.7964 136.002 38.3407C135.969 39.2591 135.935 41.1641 137.417 42.7969C138.966 44.4637 141.761 45.3481 143.714 45.3481C144.286 45.3481 144.791 45.2801 145.263 45.144C147.755 44.3957 148.563 42.6268 149.034 41.6743C149.136 41.4702 149.27 41.3342 149.54 41.062C150.146 40.4837 151.358 39.2591 151.257 37.1841V36.946C151.291 35.9255 151.156 34.973 150.314 33.7824C147.755 30.1086 146.745 26.6389 145.768 23.3053C145.667 22.9311 145.566 22.5909 145.465 22.2507C145.364 21.8765 145.263 21.5024 145.196 21.0942C144.859 19.3933 144.421 17.3183 141.761 14.9371C138.966 12.4199 138.258 10.9912 137.922 9.05221C137.854 8.64401 137.787 8.16778 137.686 7.69154C137.484 6.50095 137.282 5.24233 136.945 4.18781C135.935 0.956215 133.847 0.47998 132.702 0.47998C131.86 0.47998 131.086 0.718097 130.311 1.22835C128.897 2.18082 128.089 3.91568 127.28 7.75957C125.9 7.58949 124.452 7.07924 122.431 5.68455C120.579 4.39191 119.333 3.88166 118.121 3.88166C117.717 3.88166 116.74 3.94969 115.865 4.59601C115.696 4.52798 115.562 4.42593 115.393 4.35789C113.608 3.37141 111.925 2.48697 110.207 2.48697C109.096 2.48697 108.086 2.86116 107.311 3.57551C107.042 3.81363 106.705 4.18781 106.402 4.73208C106.234 4.69806 106.032 4.63003 105.863 4.562C103.91 4.01773 102.496 3.06526 101.25 2.21484C99.8691 1.1263 98.5557 0.275879 96.9057 0.275879Z" fill="white"/>
<path d="M147.62 35.6195C148.125 36.3678 147.923 36.5039 147.991 37.2863C148.058 38.3748 146.846 38.5449 146.071 40.1777C145.633 41.0622 145.33 41.5724 144.354 41.8786C143.377 42.1847 140.885 41.5724 139.875 40.4499C138.865 39.3273 139.639 37.8986 139.134 37.0142C138.023 34.9732 136.036 34.1908 135.194 33.4424C134.352 32.66 133.376 32.3879 132.197 32.0817C128.863 31.2313 128.425 29.4624 127.213 27.7616C126.001 26.0607 125.294 26.3669 124.89 26.4689C119.704 27.7616 113.541 30.1428 110.712 31.9116C105.931 34.8711 103.91 38.2728 102.967 43.6134C105.291 47.4573 104.314 48.6479 104.213 50.1787C104.011 54.2607 105.594 56.2677 105.931 57.2882C106.301 58.3087 106.267 58.7849 105.762 59.3632C105.257 59.9415 104.584 61.03 103.775 61.7784C102.967 62.5268 102.193 62.1866 101.418 61.9825C97.3098 60.928 93.9423 60.4858 89.935 60.3157C87.2073 60.2136 84.7154 62.9009 84.0419 63.6833C83.3684 64.4317 84.3786 64.9079 84.9511 65.2821C86.5338 66.3366 87.1737 67.5953 88.5207 68.2076C89.8677 68.8199 91.08 69.1941 91.7535 70.6228C92.2586 71.6433 91.5851 72.4937 91.1136 72.9019C91.7535 73.2761 93.2352 74.4667 93.9423 75.079C94.6158 75.7253 94.7842 77.0179 93.8413 77.3241C92.8984 77.6302 91.2483 78.0724 90.2718 78.2085C89.0931 78.3446 88.9584 77.5622 88.7227 77.222C87.6788 75.6913 85.4226 73.3101 83.4694 72.8339C79.9672 71.9834 79.7989 70.1125 77.5426 68.0715C76.2293 66.8809 76.0273 67.8674 74.4445 69.1941C71.3464 71.7113 71.2117 69.7043 68.4504 71.4051C63.8706 74.2626 63.7359 72.4937 63.9716 71.7453C64.2074 70.9969 64.7798 69.8744 65.8574 67.6293C67.0697 65.078 68.9892 67.2551 70.5719 65.8264C71.8179 64.7038 72.7271 63.1731 72.7271 63.1731C70.5046 60.7919 69.9321 62.0165 65.5544 61.8124C61.4797 61.6423 61.2776 60.2136 60.3347 57.3222C57.9438 49.9065 53.8691 48.1717 48.1444 44.3278C43.3289 41.1302 45.3831 39.4974 42.487 36.674C41.0053 35.2113 40.9716 34.2928 40.6686 32.728C40.3655 31.1633 40.1298 31.1633 38.7154 30.9592C37.3348 30.7551 31.9468 30.1768 29.2191 27.7616C26.2557 25.1423 26.1883 26.1968 22.6862 26.3669C11.3377 26.9112 4.40066 18.9172 4.19861 14.7332C4.09758 12.454 5.24253 11.9778 6.42116 13.1003C7.59978 14.2229 11.0683 16.8422 16.3216 17.3865C23.3597 18.1688 25.8853 16.2639 28.0741 16.6381C32.3509 17.4205 32.1488 19.3254 34.5397 22.9992C35.9204 25.1423 44.3391 21.4685 45.5178 20.8562C50.8721 18.1008 56.8662 14.461 66.834 16.0598C78.4182 17.8967 87.039 15.7877 91.4167 14.1889C94.8179 12.9643 93.1005 12.6921 92.3259 12.1139C91.5514 11.5356 89.1268 9.7667 89.6319 8.67816C90.3728 7.07937 99.0609 11.8417 100.408 10.1749C101.048 9.39251 94.4475 6.09288 96.0302 4.15393C97.5792 2.24899 99.6671 6.16092 105.021 7.65766C108.052 8.50808 109.13 8.88226 109.534 8.40603C110.342 7.38552 108.759 6.67117 109.567 5.95682C110.611 5.00435 113.541 7.18142 116.1 8.33799C118.794 9.5626 115.932 5.07238 120.647 8.33799C124.149 10.7532 126.506 11.0593 129.099 11.0934C130.783 11.1274 130.177 10.5491 130.412 9.32448C130.648 8.09988 131.355 4.52811 132.231 3.94983C133.982 2.79325 134.251 6.7392 134.79 9.63063C135.329 12.5221 136.541 14.5291 139.673 17.3865C142.097 19.5635 141.794 21.0603 142.434 23.2033C143.377 26.8091 144.455 31.0612 147.62 35.6195ZM81.8867 52.3217C82.0887 53.5123 83.2674 53.6144 84.4123 53.6144C85.9277 51.6414 86.7022 49.8385 87.1063 48.6139C86.8706 48.1036 86.4665 46.777 86.1971 46.0626C85.9277 45.3483 85.1868 45.6544 84.4123 45.7905C79.058 46.743 73.4006 42.831 68.7871 42.0827C67.1034 41.8105 67.4738 42.797 67.6759 43.8856C67.8779 44.9741 69.2923 50.3147 70.4372 53.0701C71.3464 55.2812 73.2322 56.0296 75.4548 56.4378C78.1825 56.914 78.8223 58.6829 80.2366 59.3972C80.8091 59.023 81.5163 58.2066 81.752 57.6283C81.4826 56.7099 80.6407 56.6759 79.6305 56.3017C77.8457 55.6894 77.4079 54.907 76.5997 54.3287C74.1415 52.5258 74.7139 51.1311 76.0609 51.2332C77.4079 51.3352 79.8662 51.3352 80.6407 51.2332C81.2805 51.1651 81.6846 51.1651 81.8867 52.3217ZM95.323 51.0291C94.5485 52.2197 92.831 54.8049 92.528 55.4173C92.2249 55.9955 91.6188 56.948 93.3362 57.1181C95.0536 57.3222 97.3772 57.6283 98.2864 57.4583C99.3303 57.2542 100.071 56.8119 99.364 55.4853C98.8252 54.5328 96.872 51.4713 96.6026 51.0971C96.3332 50.7229 95.8955 50.1787 95.323 51.0291Z" fill="#E31837"/>
</g>
<defs>
<clipPath id="clip0_11264_10813">
<rect width="150.413" height="81.3342" fill="white" transform="translate(0.851318 0.275879)"/>
</clipPath>
</defs>
</svg>