<?xml version="1.0" encoding="UTF-8" standalone="no"?>
<svg
   width="44.06707"
   height="59.760914"
   viewBox="0 0 44.06707 59.760914"
   fill="none"
   version="1.1"
   id="svg2"
   sodipodi:docname="SYR.svg"
   inkscape:version="1.4 (86a8ad7, 2024-10-11)"
   xmlns:inkscape="http://www.inkscape.org/namespaces/inkscape"
   xmlns:sodipodi="http://sodipodi.sourceforge.net/DTD/sodipodi-0.dtd"
   xmlns="http://www.w3.org/2000/svg"
   xmlns:svg="http://www.w3.org/2000/svg">
  <defs
     id="defs2" />
  <sodipodi:namedview
     id="namedview2"
     pagecolor="#ffffff"
     bordercolor="#000000"
     borderopacity="0.25"
     inkscape:showpageshadow="2"
     inkscape:pageopacity="0.0"
     inkscape:pagecheckerboard="0"
     inkscape:deskcolor="#d1d1d1"
     inkscape:zoom="19.583333"
     inkscape:cx="21.957447"
     inkscape:cy="30"
     inkscape:window-width="3440"
     inkscape:window-height="1377"
     inkscape:window-x="-8"
     inkscape:window-y="-8"
     inkscape:window-maximized="1"
     inkscape:current-layer="svg2" />
  <path
     d="M 44.06567,20.562213 V 8.5107731 L 35.19797,0 H 34.87727 8.5923 L 0,8.5180531 V 28.490213 l 8.26665,8.3649 h 19.20892 v 8.6168 h -10.7649 v -6.2749 L 0,39.197413 v 12.0444 l 8.5923,8.5191 h 26.60667 l 8.8677,-8.5121 v -19.9787 l -8.2658,-8.3658 h -19.0889 v -8.6168 h 10.765 v 6.2758 l 16.5901,-0.0019 z"
     fill="#ffffff"
     id="path1"
     style="fill:#000e54;fill-opacity:1" />
  <path
     d="m 28.67327,19.370913 c 0.7337,0 13.465,-0.002 14.1989,-0.002 V 9.0210931 c -0.2335,-0.22407 -7.9296,-7.61185 -8.1521,-7.82468 H 9.08727 c -0.22527,0.22032 -7.66515,7.59576 -7.89098,7.82159 V 27.999613 c 0.21971,0.2234 7.34591,7.436 7.56932,7.6612 h 19.90536 v 11.0057 h -13.1554 v -6.2738 c -0.7351,0 -13.58515,0 -14.31928,0.0011 v 10.3499 c 0.22522,0.2246 7.66538,7.6017 7.88818,7.8227 h 25.6328 c 0.2215,-0.2124 7.9183,-7.6009 8.1525,-7.8271 v -18.9768 c -0.2197,-0.2234 -7.3468,-7.436 -7.5702,-7.6618 h -19.7843 v -11.0058 h 13.1555 v 6.2749 z"
     fill="#000e54"
     id="path2"
     style="fill:#ff431b;fill-opacity:1" />
</svg>
