<?xml version="1.0" encoding="UTF-8"?>
<svg id="Layer_1" data-name="Layer 1" xmlns="http://www.w3.org/2000/svg" xmlns:xlink="http://www.w3.org/1999/xlink" viewBox="0 0 364.85 353.64">
  <defs>
    <style>
      .cls-1 {
        clip-path: url(#clippath);
      }

      .cls-2 {
        fill: none;
      }

      .cls-2, .cls-3, .cls-4 {
        stroke-width: 0px;
      }

      .cls-3 {
        fill: #500000;
      }

      .cls-4 {
        fill: #fff;
      }
    </style>
    <clipPath id="clippath">
      <rect class="cls-2" x="1.42" width="362" height="352.72"/>
    </clipPath>
  </defs>
  <g id="Lone_Star_Logo_ALT_Maroon" data-name="Lone Star Logo ALT Maroon">
    <g class="cls-1">
      <polygon class="cls-3" points="90.71 0 90.71 138.45 1.42 138.45 1.42 164.4 17.48 181.95 22.74 185.82 25 188.1 31.27 197.83 41.83 204.88 45.24 207.36 47.5 212.79 48.69 214.48 50.19 224.09 56.17 235.55 66.05 247.93 68.88 247.93 73.89 253.62 79.14 253.62 84.83 258.96 88.5 258.96 93.85 263.31 115.48 263.31 119.45 256.31 126.63 254.39 129.13 239.83 134.2 239.18 141.15 240.01 153.76 250.74 154.96 254.48 158.85 263.32 167.12 284.38 173.05 284.38 175.53 287.72 178.42 295.22 186.33 299.98 187.18 302.63 189.77 315.54 195.11 320.17 199.36 337.23 223.53 345.29 233.27 350.59 251.21 350.59 280.72 352.72 282.13 352.72 282.13 329.45 272.9 311.02 271.08 305.51 271.08 299.76 273.41 291.43 300.33 263.1 317.34 254.94 326.42 240.13 346.83 227.93 353.51 219.03 362.12 202.97 359.13 191.38 363.05 180.78 363.05 165.7 353.02 149.98 353.02 145.12 346.95 137.35 346.45 82.94 322.06 81.2 310.25 75.29 297.97 69.43 297.97 63.14 194.5 63.14 194.5 0 90.71 0"/>
      <path class="cls-4" d="M159.8,246.28l-15.66-13.33-11.12-1.07-8.12,1-1.73.16-.5,1.17-1.49,8.66-.97,5.66-5.55,1.48-.06.02-.81,1.43-2.58,4.54h-14.76l-2.47-2.01-2.88-2.34h-3.37l-2.59-2.43-3.1-2.91h-4.84l-2.68-3.03-2.33-2.65h-2.61l-2.69-3.37-4.01-5.02-.54-.68-.4-.77-4.01-7.7-.68-1.3-.23-1.45-1.36-8.65-1.15-1.64-.56-.79-.37-.89-2.38-5.7-5.18-3.77-7.87-5.26-1.55-1.03-1.01-1.56-4.85-7.53-3.19-3.24-4.44-3.26-.71-.52-.6-.65-10.7-11.7-2.35-2.57v-15.8h89.29V7.32h89.16v55.83h-8.97V16.28h-71.22v138.45H17.71v3.34l10.7,11.7,5.02,3.68,4.34,4.41,5.35,8.3,8.02,5.35,7.36,5.36,3.35,8.02,2.34,3.34,1.68,10.7,4.01,7.7,4.01,5.02h2.35l5.01,5.68h4.35l5.69,5.34h3.01l5.35,4.36h6.35l2.67-4.69,3.69-.98,1.67-9.7,3.02-7.03,7.02-.67v-3.35l4.01.68,2.34,1.33,17.4,1.68,12,10.21v11.78ZM354.32,165.62l-8.62-13.51v-4.48l-1.9-2.43-4.14-5.3-.38-41.87-.08-8.27-8.25-.59-10.85-.77-13.12-6.56-.08-.04-.08-.04-6.68-3.19-2.18-1.04v9.94l4.99,2.38,14.71,7.36,12.63.9.41,44.91,6.01,7.7v4.01l10.03,15.72v7.42l-4.67,12.65,2.67,10.36-5.02,9.37-4.02,5.35-22.4,13.38v1.33l-7.37,12.03-15.38,7.38-31.76,33.43-4.03,14.37v6.02l-2.33.67v4.34l3.69,3.69,1.66,5.01,5.35,10.7,2.68,5.35v2.02l-14.05-1.01h-14.38l-7.37-4.01-17.06-5.69-3.33-13.37-5.02-4.36-1.67-8.36-3.01-9.36-8.36-5.03-1.68-4.35-8.68-11.7h-3.03l-2.25-5.72h-9.64l3.54,9,2.24,5.69h4.63l5.27,7.1,1.24,3.21,1.11,2.87,2.64,1.59,5.48,3.29,1.82,5.67,1.57,7.86.6,3,2.31,2.01,2.88,2.5,2.65,10.62,1.19,4.78,4.67,1.56,16.31,5.44,6.67,3.63,2,1.09h16.34l13.72.99,9.61.69v-13.77l-.95-1.9-2.68-5.35-5.06-10.11-1.45-4.4-.67-2.02-.24-.24v-8.42l3.09-11.04,29.1-30.62,13.89-6.66,2.39-1.14,1.38-2.26,7.5-12.25,19.21-11.48,1.51-.9,1.06-1.41,4.02-5.35.41-.55.32-.6,5.02-9.37,1.65-3.09-.87-3.39-1.97-7.65,3.7-10.02.56-1.5v-11.64l-1.41-2.21ZM149.2,194.83l-3.48-8.05h-25.21l-3.48,8.05h4.45v15.62h-30.55v-15.62h8.7l20.96-48.47h-4.62v-15.61h33.7v15.61h-4.04l20.96,48.47h8.5v15.62h-30.58v-15.62h4.69ZM139.01,171.17l-5.86-13.55-5.86,13.55h11.72ZM167.09,255.08v-34.07h19.22v-119.68h-36.28v19.22h-34.05v-50.12h174.7v49.9h-34.27v-19h-36.04v119.68h19.22v34.07h-72.48ZM225.25,241.16l7.19,6.87v-20.29l-7.19,7.4v6.03ZM213.26,94.39l-7.19-7.16v148.13l7.19-7.08V94.39ZM283.8,81.24l-7.18,7.4v18.29l7.18,6.87v-32.56ZM270.7,84.62l9.31-7.19H122.72l7.41,7.19h140.57ZM316.35,210.49v-15.61h-6.23v-48.24h6.23v-15.61h-25.68l-.57,1.17-16.2,33.7-16.25-33.7-.55-1.17h-24.91v15.61h5.73v48.24h-6.05v15.61h28.34v-15.61h-6.25v-34.23l18.09,37.32,1.86,3.8,1.86-3.8,18.28-37.42v34.33h-6.05v15.61h28.34Z"/>
    </g>
  </g>
</svg>