<?xml version="1.0" encoding="UTF-8" standalone="no"?>
<svg
   width="133.57445"
   height="71.613129"
   viewBox="0 0 133.57445 71.613129"
   fill="none"
   version="1.1"
   id="svg1"
   sodipodi:docname="TEX.svg"
   inkscape:version="1.4 (86a8ad7, 2024-10-11)"
   xmlns:inkscape="http://www.inkscape.org/namespaces/inkscape"
   xmlns:sodipodi="http://sodipodi.sourceforge.net/DTD/sodipodi-0.dtd"
   xmlns="http://www.w3.org/2000/svg"
   xmlns:svg="http://www.w3.org/2000/svg">
  <defs
     id="defs1" />
  <sodipodi:namedview
     id="namedview1"
     pagecolor="#ffffff"
     bordercolor="#000000"
     borderopacity="0.25"
     inkscape:showpageshadow="2"
     inkscape:pageopacity="0.0"
     inkscape:pagecheckerboard="0"
     inkscape:deskcolor="#d1d1d1"
     inkscape:zoom="3.2455098"
     inkscape:cx="65.166959"
     inkscape:cy="43.29058"
     inkscape:window-width="1147"
     inkscape:window-height="1211"
     inkscape:window-x="52"
     inkscape:window-y="52"
     inkscape:window-maximized="0"
     inkscape:current-layer="svg1" />
  <path
     id="path5"
     style="fill:#ffffff;fill-opacity:1"
     d="M 9.4652425,0.00190818 C 7.3509889,0.06593318 5.174434,0.25990368 3.2028163,1.0507775 0.91179413,2.3748948 -0.62349747,5.2774318 0.24708523,7.8823636 1.0719946,9.8947365 2.8405082,11.788458 5.1236146,11.906192 c 2.2636883,-0.229522 4.5662287,-0.428116 6.8103834,0.08011 3.725244,0.75019 7.214137,2.762669 10.214838,4.857407 4.306468,3.013696 8.332408,6.458105 12.814453,9.199219 -1.686344,1.678529 -2.398004,4.526216 -1.091877,6.63509 1.245508,2.368564 3.831983,3.446577 6.177063,4.40627 2.915693,1.390036 6.339861,1.11889 9.336689,0.134421 1.098797,4.491884 3.892319,8.300747 5.384766,12.640625 0.517967,1.412495 0.719182,2.997093 0.09961,4.414063 -0.752199,2.218459 -1.726654,4.615857 -1.07717,6.977418 0.250244,0.923712 1.091708,1.60341 1.03373,2.617587 0.199219,1.685565 1.24984,3.069235 2.417662,4.229126 1.662557,1.796093 3.917445,3.077067 6.379684,3.300869 2.64928,0.335364 5.389585,0.315636 7.990062,-0.330343 2.55248,-0.680133 4.585073,-2.562484 6.127126,-4.632548 0.726054,-0.993852 0.993749,-2.210414 1.146484,-3.402344 0.414642,-0.810395 0.976996,-1.572778 1.056641,-2.519531 0.400705,-2.735902 -1.164884,-5.204295 -1.621982,-7.820134 -0.102877,-1.435239 0.501756,-2.815381 0.965676,-4.147029 1.550569,-3.809987 3.937421,-7.284924 4.898493,-11.327759 3.23838,1.094194 6.944152,1.210972 10.029542,-0.419211 2.005772,-0.852375 4.365021,-1.942573 5.448015,-4.05688 1.365507,-2.11052 0.645937,-5.008809 -1.051776,-6.705549 6.039463,-3.636346 11.137423,-8.670735 17.375673,-11.994598 3.52597,-1.851264 7.60407,-2.846424 11.57783,-2.190852 2.2755,0.381653 4.37718,-1.225812 5.37091,-3.1691098 1.3654,-2.2220368 0.38874,-5.2257895 -1.49776,-6.8338499 -1.00704,-0.99891682 -2.40683,-1.31260872 -3.76006,-1.51620052 -5.51773,-0.9082742 -11.16944,0.1809317 -16.39227,1.99572702 -8.03404,2.9144505 -14.868367,8.1938032 -22.373364,12.1484552 -2.970983,1.127032 -6.485198,1.540438 -9.414191,0.08278 -1.320766,-0.808801 -2.870163,-1.252212 -4.419972,-1.075089 -1.345537,-0.466772 -2.872189,-0.327267 -4.160156,0.263672 -1.369608,-0.243564 -2.78377,-0.601047 -4.169922,-0.259766 -1.360474,-0.3267 -2.762593,-0.02991 -4.074219,0.273438 -1.309052,-0.659262 -2.863405,-0.689211 -4.25,-0.28711 -1.689724,-0.163104 -3.348207,0.424184 -4.766915,1.298253 -2.84206,1.164132 -6.122603,0.816505 -8.921525,-0.295969 C 40.973717,12.622071 37.499139,10.248178 33.883459,8.1319682 28.26975,4.7374838 22.288049,1.6855766 15.759867,0.57074608 13.685519,0.18702808 11.576005,-0.02242642 9.4652425,0.00190818 Z" />
  <path
     d="m 128.43216,4.573825 c -4.516,-1.22746 -9.984,-0.316625 -14.381,1.0303401 -8.399,2.69442 -15.569296,8.3993999 -23.373996,12.4797999 -4.1209,1.7431 -9.7868,2.0997 -13.5896,-0.2776 -0.9109,-0.6466 -2.5616,-0.1847 -2.5616,-0.1847 -0.528,-0.3957 -1.1199,-0.5466 -1.836,-0.2909 -1.9016,1.3874 -3.8828,-0.7523 -5.9021,0.3571 -2.0197,-1.1094 -4.0004,1.0303 -5.9021,-0.3571 -0.7165,-0.2557 -1.3079,-0.1048 -1.8359,0.2909 0,0 -1.6517,-0.4619 -2.5625,0.1847 -3.8024,2.3773 -9.4678,2.0207 -13.5883,0.2776 -7.8056,-4.0804 -14.9752,-9.7853799 -23.3741,-12.4797999 C 15.127464,4.2572 9.6595944,3.346365 5.1435144,4.573825 c -0.594209,0.39614 -1.268404,1.1098501 -1.1098531,1.9811701 0.3171021,0.51517 0.6346691,1.22842 1.3079131,1.34745 16.1645896,-2.41683 24.8795896,13.6282199 38.4292896,17.8672199 0.0262,0.1719 -0.7661,0.8318 -1.625,1.2941 -1.9145,1.057 -4.7541,0.6471 -4.9517,3.262 0.5147,1.625 2.4954,2.2192 3.9218,2.8525 3.3677,1.903 7.4095,0.318 10.4592,-1.2275 0.3561,-0.3571 0.9508,-0.159 1.2274,0.1981 -0.2376,7.33 5.3488,12.2031 6.3787,19.017 0.5947,3.1696 -1.3865,5.506 -1.6241,8.478 -0.0262,1.0965 0.8318,0.3704 1.2942,4.0014 0.1985,0.6603 1.8492,2.5096 3.3414,3.2881 1.3775,0.5428 2.9739,0.7009 4.5951,0.6585 1.6208,0.0424 3.2172,-0.1157 4.5947,-0.6585 1.4922,-0.7785 3.1434,-2.6278 3.34,-3.2881 0.4638,-3.631 1.3218,-2.9049 1.2956,-4.0014 -0.2381,-2.972 -2.2188,-5.3084 -1.6246,-8.478 1.0304,-6.8139 6.6163,-11.687 6.3782,-19.017 0.2781,-0.3571 0.8728,-0.5552 1.2289,-0.1981 3.0496,1.5455 7.0905,3.1305 10.4592,1.2275 1.426,-0.6333 3.4067,-1.2275 3.9218,-2.8525 -0.1985,-2.6149 -3.0381,-2.205 -4.9517,-3.262 -0.8594,-0.4623 -1.6517,-1.1222 -1.626,-1.2941 13.550196,-4.239 22.266196,-20.2840499 38.430196,-17.8672199 0.673,-0.11903 0.99,-0.83228 1.307,-1.34745 0.153,-0.87036 -0.519,-1.5840801 -1.114,-1.9802191"
     fill="#c15d26"
     id="path1"
     style="fill:#c15d26;fill-opacity:1" />
</svg>
