<svg width="55" height="64" viewBox="0 0 55 64" fill="none" xmlns="http://www.w3.org/2000/svg">
<g clip-path="url(#clip0_4325_287668)">
<path d="M19.9021 58.6168V57.1745L16.5355 60.6574L15.8005 61.4183H39.1985V48.2936L38.8366 48.6334L35.3056 51.9372V50.8477H35.3019L35.2982 50.8513H35.3038V58.6168H19.9021Z" fill="#231F20"/>
<path d="M27.494 54.6611L28.5559 53.6196L30.1367 52.072H30.1182V27.1431H39.06L41.8061 24.663H27.494V54.6611Z" fill="#231F20"/>
<path d="M39.06 29.7267H44.3269V22.1237L41.8061 24.663V27.1431L39.06 29.7267Z" fill="#231F20"/>
<path d="M31.4091 28.3084V50.8513L33.9834 48.2622V28.3084H31.4091Z" fill="#231F20"/>
<path d="M24.9363 27.1431L27.494 24.663H13.4404V27.1431L10.7294 29.7267H16.024V27.1431H24.9363Z" fill="#231F20"/>
<path d="M27.6454 7.82825H27.6251V20.9123H33.9834V13.3961H41.6159H41.614H41.6159L46.9363 7.82825H27.6454Z" fill="#231F20"/>
<path d="M46.9363 7.82826V13.1283L41.6159 18.1699H52.2032V2.74608L46.9363 7.82826Z" fill="#231F20"/>
<path d="M27.6251 7.82825H7.9243V13.2207L2.95477 18.1699H13.2983V13.422L21.1358 13.4238L27.6251 7.82825Z" fill="#231F20"/>
<path d="M27.494 54.6611H23.6602L21.1671 57.3315H33.9797V52.0776L31.4977 54.6611H27.494Z" fill="#231F20"/>
<path d="M54.7018 0H0V20.9363H7.87442V32.3841H18.373L18.362 45.6898H13.1745V64H41.6971V45.7082H36.5189V32.3823H46.9344L46.9234 20.9344H54.7018V0ZM53.4534 1.37396V19.542H40.4377V14.6925H35.2521V20.9123H45.5309V30.988H37.819V28.3084H35.2521V47.084H40.4488V62.6279H14.5762V47.0656H19.8523V28.3084H17.3093V30.988H9.54201V20.9123H19.8874V14.6925H14.5503V19.542H1.47738V1.37396H53.4534Z" fill="#231F20"/>
<path d="M44.3269 22.1237H10.7295V29.7267L13.4405 27.1431V24.663H27.494H41.8061L44.3269 22.1237Z" fill="#DA291C"/>
<path d="M30.1385 52.072H30.1367L28.5559 53.6196L27.494 54.6611V24.663L24.9363 27.1431V52.0923H21.1672V57.3315L23.6602 54.6611H27.494H31.4977L33.9797 52.0776V52.072H30.1385Z" fill="#DA291C"/>
<path d="M39.0601 27.1431V29.7267L41.8061 27.1431V24.663L39.0601 27.1431Z" fill="#DA291C"/>
<path d="M27.6454 7.82826H46.9363L52.2013 2.74608H2.95477V18.1699L7.9243 13.2207V7.82826H27.6251H27.6454Z" fill="#DA291C"/>
<path d="M41.6159 18.1699L46.9363 13.1284V7.82826L41.6159 13.3961V18.1699Z" fill="#DA291C"/>
<path d="M21.1357 13.4238V20.9123H27.6251V7.82826L21.1357 13.4238Z" fill="#DA291C"/>
<path d="M31.4091 50.8513H31.4183L31.4238 50.8476H35.3038H35.3019H35.3056V51.9372L38.8366 48.6334L39.1985 48.2936V48.2622H33.9834L31.4091 50.8513Z" fill="#DA291C"/>
<path d="M23.7083 28.3084H21.1358V48.2419H15.8006V61.4183L16.5356 60.6574L19.9022 57.1745V50.8513H23.7083V28.3084Z" fill="#DA291C"/>
<path d="M17.3094 28.3084H19.8523H21.1358H23.7082L24.9363 27.1431H16.024V29.7267H10.7295L9.58821 30.94L9.54388 30.988H17.3094V28.3084Z" fill="#B1B1B1"/>
<path d="M14.5503 14.6925H19.8873L21.1357 13.4238L13.2982 13.422V18.1699H2.95473L1.47736 19.542H14.5503V14.6925Z" fill="#B1B1B1"/>
<path d="M52.2031 2.74608V18.1699H41.6159L40.4395 19.542H40.4377H53.4534V1.37396L52.2031 2.74608Z" fill="#B1B1B1"/>
<path d="M35.2521 20.9123V14.6925H40.4377L41.6141 13.3961H41.6159H33.9834V20.9123H35.2521Z" fill="#B1B1B1"/>
<path d="M20.1957 58.3176L19.9021 58.6168H35.3038V50.8513H35.2982L33.987 52.072H33.9797V52.0776V57.3315H21.1671L20.1957 58.3176Z" fill="#B1B1B1"/>
<path d="M35.2521 47.084V28.3084H37.819L39.06 27.1431H30.1182V52.072H30.1367H30.1385L31.4183 50.8513H31.409V28.3084H33.9834V48.2622H39.1985V48.2936V61.4183H15.8005L15.4404 61.7747L14.5762 62.6279H40.4487V47.084H35.2521Z" fill="#B1B1B1"/>
<path d="M44.3269 22.1237V29.7267H39.06L37.8264 30.9806L37.819 30.988H45.5309V20.9123L44.9677 21.4774L44.3269 22.1237Z" fill="#B1B1B1"/>
<path d="M41.6158 18.1699V13.3961L40.4395 14.6925H40.4376V19.542H40.4395L41.6158 18.1699Z" fill="white"/>
<path d="M53.4534 1.37396H1.47736V19.542L2.95473 18.1699V2.74608H52.2013H52.2031L53.4534 1.37396Z" fill="white"/>
<path d="M33.9833 20.9123H27.6251H21.1357V13.4238L19.8873 14.6925V20.9123H9.54382V30.988L9.58814 30.94L10.7294 29.7248V22.1237H44.3268L44.9677 21.4774L45.5309 20.9123H35.252H33.9833Z" fill="white"/>
<path d="M21.1357 48.2419V28.3084H19.8523V47.0656H14.5762V62.6279L15.4404 61.7747L15.8005 61.4183V48.2419H21.1357Z" fill="white"/>
<path d="M37.819 28.3084V30.988L37.8264 30.9806L39.06 29.7267V27.1431L37.819 28.3084Z" fill="white"/>
<path d="M31.4238 50.8476L31.4183 50.8513L30.1385 52.072H33.9797H33.9871L35.2982 50.8513L35.3019 50.8476H35.3038H31.4238Z" fill="white"/>
<path d="M24.9363 27.1431L23.7082 28.3084V50.8513H19.9021V57.1745V58.6168L20.1957 58.3176L21.1671 57.3315V52.0923H24.9363V27.1431Z" fill="white"/>
<path d="M43.9261 61.5974C43.2632 61.5974 42.7054 62.1053 42.7054 62.7978C42.7054 63.4903 43.2632 64 43.9261 64C44.5891 64 45.1376 63.4903 45.1376 62.7978C45.1376 62.1053 44.5817 61.5974 43.9261 61.5974ZM43.9261 63.8024C43.3758 63.8024 42.9474 63.374 42.9474 62.7978C42.9474 62.2216 43.3758 61.7969 43.9261 61.7969C44.4765 61.7969 44.8975 62.2253 44.8975 62.7978C44.8975 63.3703 44.4691 63.8024 43.9261 63.8024Z" fill="#231F20"/>
<path d="M44.4783 62.5023C44.4783 62.2253 44.3139 62.1053 43.9871 62.1053H43.4608V63.4903H43.6676V62.8883H43.9132L44.2789 63.4903H44.5134L44.1182 62.8809C44.3195 62.855 44.4783 62.7461 44.4783 62.5005V62.5023ZM43.6676 62.7165V62.2807H43.9557C44.1016 62.2807 44.2567 62.3176 44.2567 62.4875C44.2567 62.6999 44.0997 62.7165 43.9206 62.7165H43.6676Z" fill="#231F20"/>
</g>
<defs>
<clipPath id="clip0_4325_287668">
<rect width="54.7018" height="64" fill="white"/>
</clipPath>
</defs>
</svg>
