<?xml version="1.0" encoding="UTF-8" standalone="no"?>
<svg
   width="81.824951"
   height="64.007797"
   viewBox="0 0 81.824951 64.007797"
   fill="none"
   version="1.1"
   id="svg6"
   sodipodi:docname="UNC_2.svg"
   inkscape:version="1.4 (86a8ad7, 2024-10-11)"
   xmlns:inkscape="http://www.inkscape.org/namespaces/inkscape"
   xmlns:sodipodi="http://sodipodi.sourceforge.net/DTD/sodipodi-0.dtd"
   xmlns="http://www.w3.org/2000/svg"
   xmlns:svg="http://www.w3.org/2000/svg">
  <sodipodi:namedview
     id="namedview6"
     pagecolor="#ffffff"
     bordercolor="#000000"
     borderopacity="0.25"
     inkscape:showpageshadow="2"
     inkscape:pageopacity="0.0"
     inkscape:pagecheckerboard="0"
     inkscape:deskcolor="#d1d1d1"
     inkscape:zoom="18.359375"
     inkscape:cx="42.975319"
     inkscape:cy="32"
     inkscape:window-width="3440"
     inkscape:window-height="1377"
     inkscape:window-x="-8"
     inkscape:window-y="-8"
     inkscape:window-maximized="1"
     inkscape:current-layer="g6" />
  <g
     clip-path="url(#clip0_4307_255140)"
     id="g6">
    <path
       d="m 17.7249,39.4235 c -1.9599,-1.8355 -3.7253,-4.3398 -3.7253,-7.4196 0,-3.0798 1.7577,-5.5842 3.7253,-7.4196 0.3189,2.4265 0.4745,4.9153 0.4745,7.4196 0,2.5043 -0.1634,4.9931 -0.4745,7.4196 z m -5.1175,-7.4196 c 0,3.772 2.2788,7.2563 6.1364,10.0639 0.5599,-3.1965 0.8633,-6.5719 0.8633,-10.0639 0,-3.492 -0.3034,-6.8674 -0.8633,-10.0639 -3.8498,2.8076 -6.1364,6.2841 -6.1364,10.0639 z"
       fill="#16284c"
       id="path1" />
    <path
       d="m 47.5661,47.2398 c -1.3844,0.1088 -2.7765,0.1633 -4.1687,0.1633 -4.3631,0 -8.6951,-0.5211 -12.6227,-1.5166 0.9411,-4.4953 1.4233,-9.1617 1.4233,-13.8826 0,-0.7 -0.0078,-1.4077 -0.0311,-2.1077 l 15.407,17.3436 z M 30.7981,32.0039 c 0,5.203 -0.5911,10.2039 -1.6799,14.8859 4.2697,1.221 9.1228,1.9132 14.2792,1.9132 2.4188,0 4.7753,-0.1555 7.0308,-0.4433 L 30.5259,25.9453 c 0.1788,1.9832 0.2722,4.0054 0.2722,6.0586 z"
       fill="#16284c"
       id="path2" />
    <path
       d="M 54.6284,34.1116 39.2214,16.7602 c 1.3766,-0.1011 2.7766,-0.1555 4.1765,-0.1555 4.3631,0 8.6951,0.5211 12.6227,1.5166 -0.9411,4.4953 -1.4233,9.1617 -1.4233,13.8826 0,0.6999 0.0156,1.3999 0.0311,2.1077 z M 43.3979,15.2048 c -2.4188,0 -4.7753,0.1555 -7.0385,0.4433 l 19.9023,22.4144 c -0.1789,-1.9833 -0.2722,-4.0054 -0.2722,-6.0586 0,-5.2031 0.591,-10.2039 1.6799,-14.8859 -4.2698,-1.2211 -9.1229,-1.9132 -14.2793,-1.9132"
       fill="#16284c"
       id="path3" />
    <path
       d="m 71.2718,52.9328 c 0.7545,1.7499 1.6022,3.3754 2.5355,4.8764 l 0.0155,0.0233 c -3.2431,1.9055 -6.8518,3.5154 -10.7483,4.7676 l -4.0831,-4.5964 c -4.822,1.2832 -10.0873,1.9987 -15.6014,1.9987 -6.3541,0 -12.3738,-0.941 -17.7713,-2.6287 -0.7778,1.7499 -1.6411,3.422 -2.5666,5.0086 -3.6398,-1.2133 -7.0229,-2.7454 -10.0872,-4.542 0.9333,-1.5088 1.7888,-3.1498 2.5432,-4.8997 C 6.85964,47.8075 1.39993,40.3335 1.39993,32.0039 1.39993,23.6743 6.85964,16.1925 15.5236,11.0672 14.7692,9.32507 13.9215,7.69182 12.9882,6.19079 L 12.9727,6.16746 C 16.2158,4.262 19.8323,2.65208 23.721,1.4077 l 4.0831,4.59643 c 4.822,-1.28326 10.0873,-1.99878 15.5936,-1.99878 6.3542,0 12.3738,0.94106 17.7713,2.62875 0.7778,-1.74991 1.6333,-3.42204 2.5666,-5.00863 3.6398,1.21327 7.0307,2.74541 10.0872,4.54199 -0.9333,1.50881 -1.7888,3.14983 -2.5432,4.89974 3.6865,2.1854 6.7975,4.7909 9.1462,7.7152 l -7.8396,7.8395 c -1.0499,-1.6954 -2.5898,-3.2664 -4.5186,-4.6742 -0.5678,3.1965 -0.8711,6.5719 -0.8711,10.0562 0,3.4843 0.3033,6.8596 0.8711,10.0561 1.9288,-1.4077 3.4609,-2.9787 4.5186,-4.6742 l 7.8396,7.8396 c -2.3565,2.9243 -5.4597,5.5297 -9.1462,7.7152 m 2.2943,-16.5425 c -0.2644,-0.2644 -0.6221,-0.4122 -0.9877,-0.4122 -0.0544,0 -0.1089,0 -0.1633,0.0078 -0.4278,0.0466 -0.8011,0.2877 -1.0266,0.6533 -0.5911,0.9566 -1.3688,1.8821 -2.3177,2.7687 -0.3188,-2.4265 -0.4744,-4.9153 -0.4744,-7.4196 0,-2.5043 0.1633,-4.9931 0.4744,-7.4196 0.9489,0.8866 1.7188,1.8121 2.3177,2.7687 0.2255,0.3656 0.6066,0.6067 1.0266,0.6533 0.0544,0.0078 0.1089,0.0078 0.1633,0.0078 0.3656,0 0.7233,-0.1477 0.9877,-0.4044 l 7.8396,-7.8396 c 0.5056,-0.5055 0.5522,-1.3066 0.1011,-1.8666 C 79.2981,15.1425 76.4594,12.6616 73.0606,10.515 73.6595,9.23174 74.3128,8.01847 75.0128,6.89853 75.215,6.57966 75.2694,6.19079 75.1839,5.82525 75.0905,5.45972 74.8572,5.14084 74.5306,4.95419 71.3652,3.09539 67.8809,1.52437 64.1789,0.287763 64.0311,0.241099 63.8833,0.217766 63.7356,0.217766 c -0.4822,0 -0.9489,0.256654 -1.2055,0.692187 C 61.7757,2.19322 61.0679,3.54648 60.4069,4.93863 55.0249,3.39093 49.3085,2.60542 43.4055,2.60542 c -5.203,0 -10.2894,0.61441 -15.1192,1.82768 L 24.7632,0.47442 C 24.4909,0.171102 24.1099,0 23.7132,0 23.5732,0 23.4254,0.0233321 23.2855,0.0699964 19.3268,1.33771 15.617,2.98651 12.2571,4.96196 11.8994,5.17195 11.6505,5.53749 11.5883,5.94969 11.5261,6.323 11.6272,6.69632 11.8449,6.99964 12.5216,8.09625 13.1515,9.27063 13.7348,10.5228 4.9853,16.0525 0,23.8299 0,32.0039 c 0,8.174 4.9853,15.9436 13.7348,21.4889 -0.5988,1.2832 -1.2521,2.4887 -1.9521,3.6165 -0.1944,0.3188 -0.2566,0.7077 -0.1711,1.0732 0.0933,0.3656 0.3267,0.6844 0.6533,0.8711 3.1654,1.8588 6.6497,3.4298 10.3517,4.6664 0.1478,0.0467 0.2955,0.07 0.4433,0.07 0.4822,0 0.9489,-0.2566 1.2055,-0.6922 0.7544,-1.2832 1.4622,-2.6365 2.1232,-4.0287 5.382,1.5477 11.0906,2.3333 17.0091,2.3333 5.2109,0 10.2895,-0.6145 15.1193,-1.8277 l 3.5153,3.9587 c 0.2722,0.3033 0.6533,0.4744 1.05,0.4744 0.14,0 0.2877,-0.0234 0.4277,-0.07 3.9587,-1.2677 7.6685,-2.9165 11.0283,-4.892 0.3578,-0.21 0.6067,-0.5755 0.6767,-0.9877 0.0544,-0.3733 -0.0311,-0.7466 -0.2567,-1.05 -0.6766,-1.0966 -1.3144,-2.2709 -1.8977,-3.5153 3.3988,-2.1466 6.2375,-4.6276 8.454,-7.3808 0.4511,-0.5599 0.4045,-1.361 -0.1011,-1.8665 l -7.8396,-7.8396 z"
       fill="#16284c"
       id="path4" />
    <path
       d="M 56.2698,38.0625 36.3675,15.6481 c 2.2632,-0.2878 4.6119,-0.4433 7.0385,-0.4433 5.1486,0 10.0095,0.6921 14.2792,1.9132 -1.0888,4.682 -1.6799,9.6828 -1.6799,14.8859 0,2.0532 0.0934,4.0753 0.2722,6.0586 M 43.406,48.803 c -5.1564,0 -10.0095,-0.6922 -14.2793,-1.9132 1.0889,-4.682 1.6799,-9.6906 1.6799,-14.8859 0,-2.0532 -0.0933,-4.0754 -0.2722,-6.0586 l 19.9023,22.4144 c -2.2632,0.2878 -4.612,0.4433 -7.0307,0.4433 z M 18.7362,42.0678 c -3.8498,-2.8076 -6.1286,-6.2841 -6.1286,-10.0639 0,-3.7798 2.2788,-7.2563 6.1286,-10.0639 0.5677,3.1965 0.8632,6.5718 0.8632,10.0639 0,3.492 -0.3033,6.8674 -0.8632,10.0639 z m 49.3318,0 c -0.5677,-3.1965 -0.871,-6.5719 -0.871,-10.0561 0,-3.4843 0.3033,-6.8597 0.871,-10.0562 1.9288,1.4077 3.461,2.9788 4.5187,4.6742 l 7.8396,-7.8396 C 78.0697,15.8658 74.9666,13.2604 71.2801,11.075 72.0423,9.32507 72.89,7.68404 73.8233,6.17523 70.7668,4.37866 67.3758,2.84652 63.736,1.63325 62.8027,3.21983 61.9472,4.89197 61.1695,6.64188 55.772,4.96196 49.7523,4.01312 43.3982,4.01312 c -5.5142,0 -10.7794,0.70774 -15.6014,1.99879 L 23.7137,1.41548 C 19.825,2.66764 16.2163,4.26978 12.9653,6.17523 l 0.0156,0.02334 C 13.9064,7.6996 14.7541,9.33285 15.5163,11.075 6.86011,16.1925 1.40039,23.6665 1.40039,32.0039 c 0,8.3373 5.45972,15.8114 14.12371,20.9367 -0.7622,1.7577 -1.6099,3.3909 -2.5432,4.8997 3.0565,1.7966 6.4474,3.3287 10.0873,4.542 0.9255,-1.5866 1.7887,-3.2587 2.5665,-5.0086 5.3975,1.6799 11.4172,2.6287 17.7713,2.6287 5.5141,0 10.7794,-0.7077 15.6014,-1.9988 l 4.0831,4.5965 c 3.8887,-1.2522 7.5052,-2.8543 10.7483,-4.7676 l -0.0155,-0.0233 c -0.9333,-1.501 -1.781,-3.1343 -2.5354,-4.8764 3.6864,-2.1854 6.7974,-4.7909 9.1462,-7.7152 l -7.8396,-7.8395 c -1.05,1.6954 -2.5899,3.2742 -4.5187,4.6742"
       fill="#7eaed3"
       id="path5" />
  </g>
  <defs
     id="defs6">
    <clipPath
       id="clip0_4307_255140">
      <rect
         width="84.983398"
         height="64"
         fill="#ffffff"
         id="rect6"
         x="0"
         y="0" />
    </clipPath>
  </defs>
</svg>
