<svg width="161" height="92" viewBox="0 0 161 92" xmlns="http://www.w3.org/2000/svg" xmlns:xlink="http://www.w3.org/1999/xlink"><defs><path id="a" d="M0 .062h161v91.87H0z"/></defs><g fill="none" fill-rule="evenodd"><g><mask id="b" fill="white"><use xlink:href="#a"/></mask><path d="M138.164 45.891c-.332-1.651-2.579-16.703-3.021-18.796l.074-.44c1.584.33 3.02 1.064 4.42 1.762.554.477 1.363.515 1.694 1.249.111 2.459-2.797 14.683-3.167 16.225zM90.685 30.986c-.294 7.637-.111 14.318-.552 22.101v.294c-1.363-.11-2.984-.184-4.494-.294-.332-1.212-.111-3.01-.184-4.038.184-11.71.37-22.1.7-33.738l.11-.11c1.437.331 3.095.11 4.492.55.443 5.25-.146 10.023-.072 15.235zM72.49 18.394c.037 2.093-.147 4.039-.184 6.058-.259-.55-.626-1.211-.7-1.91-.92-2.422-1.842-4.772-2.578-7.231.994-.33 2.247-.11 3.352-.184.441 1.248-.074 2.02.11 3.267zm-12.56 35.942c.258-5.287.148-9.877.442-15.053.478.441 4.015 10.831 5.12 14.355-1.18.513-5.268 1.138-5.563.698zm-13.701-1.688s-.186 3.707-.37 5.468c-.404.66-1.289.552-1.841 1.065-1.143.294-2.211.809-3.278 1.25.368-1.728.552-17.88.958-25.48.072-4.883.22-10.168.441-15.491.442-.662 1.547-.551 2.321-.809.737-.257 1.51-.367 2.284-.513l.184.256c-.368 11.052-.332 22.579-.7 34.254zM27.293 51.25c-.109 2.056-.22 4.222-.33 6.535-.258 1.616-.516 3.927-1.18 5.727-.736 2.496-2.466 4.919-4.676 6.497-.59.076-1.069 0-1.217-.622.11-5.105.075-9.582.332-14.98.074-9.068.552-17.437.626-26.432.221-.734-.036-1.907.959-2.092 1.914-.992 3.94-1.542 5.93-2.312l.184.732c-.074 9.252-.553 17.367-.628 26.947zm133.672-29.442l-5.121-2.79c-2.504-1.138-7.489-3.758-8.693-4.405-1.952-.66-3.537-1.982-5.634-2.497-1.88-.99-3.943-1.578-5.932-2.349-1.583-.771-3.461-.918-5.046-1.762-5.415-1.47-10.793-3.084-16.242-4.405-.332.037-.443-.515-.737-.11-.223 4.662-.223 10.499-.333 15.418 0 0 2.899.942 3.867 1.248 1.18.367 1.29 1.799 1.437 2.717.296 1.322.443 2.643.886 3.891.515 4.221 1.435 8.92 1.95 13.106.148.734.443 1.616.075 2.313-1.29-.22-2.321-.955-3.537-1.323-1.214-.403-2.542-.953-3.608-1.248-.406 5.14.146 10.906-.884 15.86-.443 1.027-.222 2.277-.884 3.195-1.953.183-3.427-.955-5.306-1.433-.441-.146-.994-.036-1.326-.44-.109-13.583.48-25.404.515-38.51l.184-.771c1.954.146 3.87.734 5.749.88.294-4.809.146-10.094.44-14.904l-.256-.513a15.097 15.097 0 0 1-3.463-.515c-2.8-.073-4.57-.991-7.441-.88C98.42.883 95.105.883 91.9.404L86.89.15c-6.52-.256-13.076.148-19.558 0l-.258.184L67 4.041c.036 1.615-.037 3.156-.258 4.662-.147.038-.183-.11-.295-.183-.368-2.35-1.657-4.442-2.283-6.792-.185-.367-.222-.844-.442-1.212-9.54.882-18.306 1.91-27.331 4.039-.516.33-1.289.11-1.769.551-6.518 1.43-12.596 3.928-18.71 6.313-.774.184-1.363.736-2.137.881-3.868 1.468-7.44 3.745-11.307 5.214-.626.55-1.548.55-2.026 1.137C.295 24.378 0 31.17 0 37.155c1.548-.881 3.131-1.652 4.678-2.645h.515c0 3.856 0 8.188-.257 12.154 0 4.845-.295 10.681-.441 15.345-.296 6.314-.627 13.177.257 19.125.515 3.965 2.1 8.333 6.005 10.023 1.841 1.172 4.42.771 6.482.366 6.262-2.276 11.493-7.232 15.727-12.52 2.468-3.596 4.827-7.23 5.82-11.453.442-.77.516-1.946.995-2.826.331 3.56-.257 8.26-.185 11.821 2.8-1.029 5.526-2.202 8.4-3.083 5.634-2.168 11.602-3.526 17.568-4.846 0-4.59.369-8.481.369-13.327l.184-.256.185.184c1.215 3.854 2.799 7.526 4.051 11.38.331.514-.037 1.616.958 1.578 4.347-.586 8.84 0 13.371-.184 1.106.039 2.173.222 3.167.515 3.205.403 6.188 1.321 9.281 1.945.738.405 1.696.257 2.396.808 3.352.623 6.262 2.24 9.54 2.972 4.971 2.132 9.944 4.223 14.77 6.72.699 0 1.14.66 1.843.697-.038-1.69.035-3.414.256-5.213.368 1.468.44 2.974.627 4.588.48 3.305.773 7.086 1.51 10.5 5.008.038 9.393.258 14.327.183.148-.587.406-1.136.442-1.76.258-.956 3.648-14.135 3.795-15.272.625-2.46 8.214-36.713 8.839-37.152 1.843.808 3.426 2.202 5.303 2.9.297-5.874.223-12.703.187-18.613z" fill="#1A1919" mask="url(#b)"/></g><path d="M87.223 3.417l.184.257-.074 6.792c-1.62.073-3.72-.367-4.788 1.064-1.14 5.065-.478 9.912-.771 15.676-.26 10.755-.628 24.633-.739 36.196l-.258.184c-2.1-.256-5.046.148-7.33 0-4.715-13.252-9.687-26.395-14.217-39.721l-.185-.184a52.957 52.957 0 0 0-2.394-6.534c-.369 5.8-.11 10.829-.443 16.3-.404 3.415.184 6.424-.258 9.508.074 2.239-.737 13.436.775 15.53 1.694.549 3.13-.37 4.861-.552l.184.366c-.074 2.24-.258 4.626-.184 6.682-.478.44-1.215.295-1.768.55-5.451 1.396-10.902 3.085-15.985 5.103-.406-.77 0-2.128 0-3.156-.074-1.396.11-2.79.184-4.331 1.768-1.138 4.199-1.138 5.487-3.084 1.326-5.14.369-10.206.774-15.42.111-10.757.515-19.346.369-29.7-.222-.366-.295-.77-.553-1.137-1.437-.99-3.351 0-4.936.184l-.184-.44.184-7.123c1.142-.513 2.469-.477 3.72-.734 3.978-.66 7.736-1.101 11.75-1.652.48 1.945 1.474 3.708 1.842 5.727 3.978 10.83 13.004 36.123 13.004 36.123.404-1.175.809-24.511.44-34.105-1.104-1.908-3.535-1.138-5.487-1.32-.11-2.387.074-4.627 0-6.976 5.267-.55 10.977-.037 16.796-.073M99.526 4.48c2.763.442 6.04.882 8.913 1.323 0 2.35.073 4.991-.074 7.38-1.878-.075-4.457-1.506-5.561.55-.958 7.194-.406 13.986-.812 21.732-.11 8.187-.514 15.715-.367 23.9 4.272.807 8.102 3.45 12.672 2.828 3.13-1.838 2.689-5.73 3.423-8.812.149-2.717.444-5.58.444-8.48 1.325.77 3.02.917 4.163 1.944-.075 4.7-.187 9.18-.258 13.732-.223 4.919.071 9.911-.259 14.537-1.4-.368-4.605-2.056-4.863-2.02A131.27 131.27 0 0 0 88.548 64.1v-7.12c1.438-.073 4.016 1.028 5.12-.624.922-6.057.48-12.445.738-19.017a502.13 502.13 0 0 0 .332-23.46c-.074-.953-.407-1.98-1.326-2.459-1.142-.625-2.578-.587-3.98-.697.075-2.386-.147-4.736.185-7.121 3.352.145 6.447.696 9.909.88M43.022 6.758a4.643 4.643 0 0 1 0 2.019l-.074 5.726c-.846.22-1.693.44-2.468.698-1.288.44-2.577 1.468-2.651 2.937-.516 9.214-.663 16.74-.7 25.697-.222 2.094-.11 5.581-.11 5.581-.038 3.708-.184 7.306-.627 10.647-.479 1.467-.442 3.413-1.032 4.918-2.356 9.433-9.098 17.695-17.605 22.468-1.916.589-3.61 1.175-5.378.182-3.684-3.082-3.462-7.928-3.906-12.407.184-14.977.37-29.039.517-44.238-.037-.732-.11-1.835-.959-2.202-1.656-.074-2.762 1.101-4.16 1.69-.075-3.048.11-5.949.183-9.253 6.004-3.156 12.376-5.837 18.638-8.48l.184.258c.074 2.972-.11 5.433-.184 8.112-2.063 1.102-5.047 1.653-5.746 4.406-.626 6.388-.589 12.885-.7 19.934-.074 7.453-.552 15.676-.258 23.422.074 2.314.295 5.434 2.836 6.351.737.183 1.178-.33 1.842-.257C32.414 70.01 31.2 56.428 31.273 45.524c.036-8.553.662-16.85.367-25.55-.257-.405-.22-1.028-.81-1.248-1.584-.551-3.131.586-4.677.88.257-2.644 0-5.434.257-8.076 5.49-2.02 10.977-3.157 16.612-4.772M136.286 13.806l.184.366c.071 2.865-.111 5.397-.184 8.078-1.548-.332-3.059-1.652-4.862-1.396-1.142 1.029-.737 2.864-.7 4.148.368 2.827.7 5.507 1.067 8.445.333.33.038.88.258 1.247 1.143 7.784 2.322 15.565 3.353 23.092.553 3.34 1.068 6.681 1.584 10.022.515-.66.479-1.577.736-2.387 2.616-11.048 5.342-22.1 7.661-33.296.148-1.909.7-4.149-.958-5.543-1.287-1.285-2.947-1.725-4.419-2.645.036-2.531-.075-5.8.075-8.443.624-.11 1.213.441 1.767.698 2.577.882 4.863 2.424 7.366 3.415 2.652 1.431 5.341 2.826 7.956 4.33.184 3.305 0 6.463-.184 9.62-1.068-.772-2.247-1.47-3.646-1.175-2.247 2.863-2.1 6.901-3.17 10.316-3.423 14.317-6.48 28.489-10.347 42.657-.26.77-.296 1.835-.774 2.388-2.508-.222-5.268.072-7.7-.294-.257-.551-.257-1.578-.367-2.202-1.732-16.963-3.426-34.253-6.374-51.104-.918-5.506-1.103-11.343-3.24-16.373-.958-1.43-2.506-1.835-3.979-2.202-.073-2.643.11-5.397.147-7.746 6.263 1.725 12.6 3.818 18.75 5.984" fill="#CF0000"/><path d="M147.202 88.624a1.23 1.23 0 0 0-.426-.059h-.18v.816h.286c.173 0 .306-.035.402-.104.096-.068.145-.18.145-.333 0-.154-.076-.26-.227-.32zm-1.345 2.254v-2.807a176.312 176.312 0 0 1 1.366.007c.223.016.409.063.556.144.25.138.376.361.376.67 0 .237-.067.407-.2.513a.925.925 0 0 1-.488.189c.178.036.312.09.402.16.166.133.249.343.249.629v.25a.43.43 0 0 0 .026.165l.025.08h-.706a2.055 2.055 0 0 1-.046-.389 1.257 1.257 0 0 0-.046-.343.34.34 0 0 0-.206-.206.81.81 0 0 0-.251-.045l-.162-.011h-.155v.994h-.74zm-.381-2.876a2.023 2.023 0 0 0-.607 1.467c0 .587.206 1.085.618 1.495.408.41.902.615 1.481.615.577 0 1.07-.206 1.478-.618.41-.415.614-.912.614-1.492 0-.563-.203-1.052-.61-1.467a1.996 1.996 0 0 0-1.482-.632c-.583 0-1.08.21-1.492.632zm3.272 3.283a2.47 2.47 0 0 1-1.78.715c-.714 0-1.316-.244-1.805-.732-.49-.488-.735-1.088-.735-1.8 0-.741.264-1.356.794-1.845a2.488 2.488 0 0 1 1.747-.688c.701 0 1.3.247 1.797.742.497.495.745 1.091.745 1.79a2.43 2.43 0 0 1-.763 1.818z" fill="#0A0B09"/></g></svg>