<?xml version="1.0" encoding="UTF-8" standalone="no"?>
<svg
   width="73.34375"
   height="52.714844"
   fill="none"
   version="1.1"
   id="svg1"
   sodipodi:docname="WAKE.svg"
   inkscape:version="1.4 (86a8ad7, 2024-10-11)"
   xmlns:inkscape="http://www.inkscape.org/namespaces/inkscape"
   xmlns:sodipodi="http://sodipodi.sourceforge.net/DTD/sodipodi-0.dtd"
   xmlns:xlink="http://www.w3.org/1999/xlink"
   xmlns="http://www.w3.org/2000/svg"
   xmlns:svg="http://www.w3.org/2000/svg">
  <defs
     id="defs1" />
  <sodipodi:namedview
     id="namedview1"
     pagecolor="#ffffff"
     bordercolor="#000000"
     borderopacity="0.25"
     inkscape:showpageshadow="2"
     inkscape:pageopacity="0.0"
     inkscape:pagecheckerboard="0"
     inkscape:deskcolor="#d1d1d1"
     inkscape:zoom="12.239583"
     inkscape:cx="53.514894"
     inkscape:cy="36.153191"
     inkscape:window-width="3440"
     inkscape:window-height="1377"
     inkscape:window-x="-8"
     inkscape:window-y="-8"
     inkscape:window-maximized="1"
     inkscape:current-layer="svg1" />
  <path
     style="fill:#000000"
     sodipodi:type="inkscape:offset"
     inkscape:radius="2.3566496"
     inkscape:original="M 0 0 L 0 2.9707031 L 1.0292969 2.9707031 C 1.7712969 2.9707031 2.3999062 3.429875 2.6289062 4.171875 L 12.228516 37.199219 L 15.429688 37.199219 L 22.34375 15.429688 L 28.685547 37.199219 L 31.886719 37.199219 L 39.199219 14.113281 C 40.685219 14.628281 41.943359 15.771484 41.943359 17.771484 L 41.943359 43.257812 C 41.943359 44.229813 41.143875 45.029297 40.171875 45.029297 L 36.457031 45.029297 L 36.457031 48 L 56.400391 48 L 56.400391 45.029297 L 52.570312 45.029297 C 51.624675 45.025997 50.860165 44.260093 50.857422 43.314453 L 50.857422 30.857422 L 54.857422 30.857422 C 55.943422 30.857422 57.199219 33.314422 57.199219 34.857422 L 57.199219 35.486328 L 60.171875 35.486328 L 60.171875 22.685547 L 57.199219 22.685547 L 57.199219 23.314453 C 57.199219 24.857453 55.943422 27.314453 54.857422 27.314453 L 50.857422 27.314453 L 50.857422 19.029297 C 50.857422 16.400297 52.742703 13.714844 56.970703 13.714844 L 57.486328 13.714844 C 62.571328 13.714844 65.65625 16.630562 65.65625 21.601562 L 65.65625 22.6875 L 68.628906 22.6875 L 68.628906 10.800781 L 40.228516 10.800781 L 42.228516 4.5136719 C 42.513516 3.5996719 43.370156 2.9707031 44.285156 2.9707031 L 44.914062 2.9707031 L 44.914062 0 L 32.857422 0 L 32.857422 2.9707031 L 34.228516 2.9707031 C 35.199516 2.9707031 36.113547 3.4285156 36.685547 4.2285156 C 37.256547 5.0285156 37.428578 6.0000625 37.142578 6.9140625 L 32.228516 22.457031 L 27.257812 5.3144531 C 27.086812 4.7434531 27.199969 4.17025 27.542969 3.65625 C 27.897547 3.1930744 28.446009 2.9198199 29.029297 2.9140625 L 29.65625 2.9140625 L 29.65625 0 L 16.457031 0 L 16.457031 2.9707031 L 17.486328 2.9707031 C 18.229328 2.9707031 18.856937 3.429875 19.085938 4.171875 L 20.285156 8.2851562 L 15.771484 22.513672 L 10.800781 5.3710938 C 10.629781 4.8000937 10.742938 4.2298437 11.085938 3.7148438 C 11.4403 3.2519432 11.987378 2.9767671 12.570312 2.9707031 L 13.199219 2.9707031 L 13.199219 0 L 0 0 z "
     xlink:href="#path4"
     id="path5"
     d="M 0,-2.3574219 A 2.3568853,2.3568853 0 0 0 -2.3574219,0 V 2.9707031 A 2.3568853,2.3568853 0 0 0 0,5.328125 H 0.50976562 L 9.9648438,37.857422 a 2.3568853,2.3568853 0 0 0 2.2636722,1.699219 h 3.201172 a 2.3568853,2.3568853 0 0 0 2.246093,-1.644532 l 4.570313,-14.392578 4.177734,14.337891 a 2.3568853,2.3568853 0 0 0 2.261719,1.699219 h 3.201172 a 2.3568853,2.3568853 0 0 0 2.246093,-1.646485 l 5.453125,-17.214844 v 21.976563 h -3.128906 a 2.3568853,2.3568853 0 0 0 -2.357422,2.357422 V 48 a 2.3568853,2.3568853 0 0 0 2.357422,2.357422 h 19.94336 A 2.3568853,2.3568853 0 0 0 58.757812,48 v -2.970703 a 2.3568853,2.3568853 0 0 0 -2.357421,-2.357422 h -3.185547 v -9.457031 h 1.013672 c 0.05658,0.07685 0.08319,0.09383 0.148437,0.210937 0.273862,0.491531 0.464844,1.299474 0.464844,1.431641 v 0.628906 a 2.3568853,2.3568853 0 0 0 2.357422,2.357422 h 2.972656 a 2.3568853,2.3568853 0 0 0 2.357422,-2.357422 V 22.685547 a 2.3568853,2.3568853 0 0 0 -2.357422,-2.357422 h -2.972656 a 2.3568853,2.3568853 0 0 0 -2.357422,2.357422 v 0.628906 c 0,0.132167 -0.190982,0.94011 -0.464844,1.431641 -0.06525,0.117107 -0.09186,0.134086 -0.148437,0.210937 h -1.013672 v -5.927734 c 0,-0.751175 0.255596,-1.452774 0.779297,-1.976563 0.5237,-0.523788 1.361511,-0.980468 2.976562,-0.980468 h 0.515625 c 2.092069,0 3.468941,0.567233 4.359375,1.421875 0.890434,0.854641 1.453125,2.109421 1.453125,4.107421 V 22.6875 a 2.3568853,2.3568853 0 0 0 2.357422,2.357422 h 2.972656 A 2.3568853,2.3568853 0 0 0 70.986328,22.6875 V 10.800781 A 2.3568853,2.3568853 0 0 0 68.628906,8.4433594 H 43.451172 L 44.443359,5.328125 h 0.470703 A 2.3568853,2.3568853 0 0 0 47.271484,2.9707031 V 0 a 2.3568853,2.3568853 0 0 0 -2.357422,-2.3574219 h -12.05664 a 2.3568853,2.3568853 0 0 0 -1.59961,1.5996094 2.3568853,2.3568853 0 0 0 -1.601562,-1.5996094 H 16.457031 a 2.3568853,2.3568853 0 0 0 -1.628906,1.62890628 2.3568853,2.3568853 0 0 0 -1.628906,-1.62890628 z m 14.828125,6.0566407 a 2.3568853,2.3568853 0 0 0 1.628906,1.6289062 h 0.511719 l 0.853516,2.9277344 -1.949219,6.1445316 -2.640625,-9.1054691 a 2.3568853,2.3568853 0 0 0 1.595703,-1.5957031 z m 16.400391,0 a 2.3568853,2.3568853 0 0 0 1.628906,1.6289062 h 1.371094 c 0.230249,0 0.410506,0.091685 0.539062,0.2714844 0.17535,0.2465542 0.188236,0.4092391 0.125,0.6113281 l 0.0039,-0.00781 -2.570312,8.128906 -2.636719,-9.0937498 a 2.3568853,2.3568853 0 0 0 1.539063,-1.5390624 z"
     transform="translate(2.3574219,2.3574219)" />
  <path
     d="m 42.586422,13.157422 2,-6.2860001 c 0.285,-0.914 1.142,-1.543 2.057,-1.543 h 0.628 v -2.971 h -12.057 v 2.971 h 1.372 c 0.971,0 1.885,0.458 2.457,1.258 0.571,0.8 0.743,1.771 0.457,2.685 l -4.914,15.5430001 -4.972,-17.1430001 c -0.171,-0.571 -0.057,-1.143 0.286,-1.657 0.354578,-0.4631756 0.902712,-0.7372426 1.486,-0.743 h 0.628 v -2.914 h -13.2 v 2.971 h 1.029 c 0.743,0 1.371,0.458 1.6,1.2 l 1.2,4.1150001 -4.515,14.228 -4.971,-17.1430001 c -0.171,-0.571 -0.057,-1.142 0.286,-1.657 0.354363,-0.4629006 0.902065,-0.736936 1.485,-0.743 h 0.629 v -2.971 H 2.3574219 v 2.971 h 1.029 c 0.742,0 1.371,0.458 1.6,1.2 L 14.586422,39.557422 h 3.2 l 6.914,-21.771 6.343,21.771 h 3.2 l 7.314,-23.086 c 1.486,0.515 2.743,1.657 2.743,3.657 v 25.486 c 0,0.972 -0.8,1.772 -1.772,1.772 h -3.714 v 2.971 h 19.943 v -2.971 h -3.829 c -0.945638,-0.0033 -1.711257,-0.76936 -1.714,-1.715 v -12.457 h 4 c 1.086,0 2.343,2.457 2.343,4 v 0.629 h 2.971 v -12.8 h -2.971 v 0.628 c 0,1.543 -1.257,4 -2.343,4 h -4 v -8.284 c 0,-2.629 1.886,-5.315 6.114,-5.315 h 0.515 c 5.085,0 8.171,2.915 8.171,7.886 v 1.086 h 2.972 v -11.887 z"
     fill="#d1ba93"
     id="path1"
     sodipodi:nodetypes="ccsccccsccccccccccsccccccccccscccccccssscccccccssccccsscsssscccc" />
</svg>
