<svg width="200" height="140" viewBox="0 0 200 140" fill="none" xmlns="http://www.w3.org/2000/svg">
<g clip-path="url(#clip0_9723_19585)">
<path d="M138.952 0V33.5759H153.766C151.824 40.8783 146.895 59.3726 142.289 76.6374C136.388 52.6976 123.392 0.0250941 123.392 0.0250941H91.9965C91.9965 0.0250941 77.9545 52.7227 71.5808 76.6123C67.3234 59.2974 62.7921 40.7779 61.0244 33.5759H76.6349V0H-1.6665V33.5759H14.5664C16.3341 40.7277 40.9574 140 40.9574 140H85.3738C85.3738 140 93.7642 107.905 98.8432 88.3814C103.698 107.905 111.64 140 111.64 140H156.057C156.057 140 182 40.6023 183.842 33.5759H199.975V0H138.928H138.952ZM194.971 28.5069H179.983C179.983 28.5069 152.546 133.676 152.198 134.931H115.574C115.25 133.676 98.9677 67.9548 98.9677 67.9548C98.9677 67.9548 81.8135 133.676 81.4899 134.931H44.8662C44.5426 133.651 18.4753 28.5069 18.4753 28.5069H3.36271V5.06901H71.5808V28.4818H54.5761L71.3567 96.8883C71.3567 96.8883 95.507 6.32371 95.8555 5.06901H119.458C119.782 6.34881 142.089 96.8883 142.089 96.8883L160.314 28.5069H143.982V5.06901H194.971V28.4818V28.5069Z" fill="#E8D3A2"/>
<path d="M143.982 5.06885V28.4816H160.314L142.09 96.8631C142.09 96.8631 119.757 6.34865 119.458 5.06885H95.8556C95.5319 6.32355 71.3817 96.8882 71.3817 96.8882L54.6011 28.4816H71.6058V5.06885H3.36279V28.4816H18.4753C18.4753 28.4816 44.5675 133.626 44.8663 134.906H81.49C81.8136 133.651 98.9677 67.9296 98.9677 67.9296C98.9677 67.9296 115.275 133.626 115.574 134.906H152.198C152.521 133.651 179.983 28.4816 179.983 28.4816H194.971V5.06885H143.982Z" fill="#33006F"/>
</g>
<defs>
<clipPath id="clip0_9723_19585">
<rect width="201.667" height="140" fill="white" transform="translate(-1.6665)"/>
</clipPath>
</defs>
</svg>
