<svg width="95" height="104" viewBox="0 0 95 104" fill="none" xmlns="http://www.w3.org/2000/svg">
<g clip-path="url(#clip0_2349_17202)">
<path fill-rule="evenodd" clip-rule="evenodd" d="M80.0782 40.7423C80.5356 40.8746 80.9148 41.1037 81.2116 41.4282C81.1425 40.8582 81.0523 40.3145 80.9312 39.8076C80.6982 40.1947 80.3652 40.4902 80.0782 40.7423ZM79.9459 45.136C80.4626 45.1511 80.9655 45.2005 81.4473 45.2828L81.4374 44.9412C81.4177 44.3316 81.3946 43.73 81.3604 43.1435C81.0754 44.4653 80.4764 44.9662 79.9459 45.136ZM42.0142 41.5111C42.4394 41.6197 42.8685 41.7237 43.2918 41.8264C44.8445 42.2029 46.45 42.5919 47.8421 43.2173L48.4207 43.4773L48.316 44.1032C47.5413 48.7464 48.607 54.3025 51.6809 55.1825C52.0693 55.2944 52.4484 55.3504 52.8065 55.3504C55.388 55.3504 57.0132 52.4232 58.4468 49.841C58.7924 49.219 59.1189 48.6305 59.446 48.1105L59.4974 48.0296C55.4966 44.3955 50.8858 41.525 45.7529 39.4759C44.526 39.9327 43.0943 40.664 42.0142 41.5111ZM75.8398 54.0003C75.3751 54.0003 74.9453 54.2353 74.7959 54.571C74.686 54.8179 74.7327 55.0232 74.8327 55.3951C74.8624 55.5044 74.8946 55.6242 74.9203 55.7525L75.2843 55.4767C75.3863 55.3991 75.4903 55.3234 75.595 55.249C76.1189 54.8725 76.4178 54.6388 76.5086 54.207C76.2802 54.0313 76.0051 54.0003 75.8398 54.0003ZM84.0947 46.1806L84.2125 46.3629C85.3861 48.1691 85.6599 49.7943 85.0991 51.632C84.7707 52.7115 84.0124 53.7015 83.2785 54.6592C82.6584 55.4682 82.0173 56.3055 81.9725 56.8327C81.987 56.9235 82.1516 57.4593 82.2602 57.8141C82.3754 58.19 82.4965 58.5869 82.5834 58.9338L82.7183 59.488C83.1119 61.1178 83.5569 62.9654 84.6621 63.23C84.8668 63.2787 85.0721 63.3037 85.2742 63.3037C88.0796 63.3037 90.5354 58.5336 90.7586 55.4405C90.9764 52.4318 89.5428 49.244 88.0315 47.8999C86.8355 46.8369 85.4875 46.4083 83.8768 46.0674C83.8847 46.072 84.0947 46.1806 84.0947 46.1806ZM10.7457 62.8232C10.8221 63.4959 11.113 63.9527 11.4842 64.4484C12.0503 63.9593 12.5677 63.365 13.0462 62.6567C12.8211 62.631 12.5795 62.6179 12.3301 62.6179C11.6778 62.6179 11.1268 62.7061 10.7457 62.8232ZM75.2705 68.6749C75.7062 69.1297 75.6792 69.78 75.6562 70.304C76.1453 70.0762 76.477 69.6339 76.9239 68.9994C77.0609 68.8046 77.1984 68.6097 77.3439 68.4234L78.0864 67.4657C77.8692 67.4137 77.6618 67.388 77.4584 67.388C76.8272 67.388 76.2999 67.6382 75.6898 67.9291L75.335 68.0963L74.9802 68.2582L74.7768 68.1588L75.2705 68.6749ZM78.5537 70.7035C78.6004 70.7088 78.6472 70.7101 78.6939 70.7101C79.7497 70.7101 80.6594 69.3614 81.2603 68.4675L82.694 69.264C82.6433 69.3772 82.6163 69.52 82.6091 69.6431C84.0216 69.4068 84.3672 68.1312 84.6943 65.5582C84.5897 65.5253 84.4751 65.5088 84.3494 65.5088C83.7445 65.5088 83.0402 65.882 82.642 66.2302L82.1957 66.6192L81.6849 66.3197C81.498 66.2105 81.3242 66.1565 81.1524 66.1565C80.7041 66.1565 80.1993 66.5231 79.7115 66.8766C79.437 67.0767 79.152 67.2827 78.8558 67.4414L78.609 67.5737L78.8065 68.796C78.9296 69.5628 78.7624 70.0651 78.6281 70.4686C78.5998 70.5535 78.5741 70.6298 78.5537 70.7035ZM64.7217 71.0109C64.725 71.0142 64.7237 71.055 64.7395 71.1314C64.7461 71.165 64.754 71.1919 64.7605 71.2143C64.9613 71.1617 65.2746 70.9537 65.5478 70.7108C65.2147 70.795 64.8191 70.9076 64.7217 71.0109ZM67.4856 70.0881C67.6837 70.4231 67.7305 70.795 67.7719 71.1235C67.7759 71.1538 67.7798 71.1867 67.7838 71.2216C68.2702 71.0939 68.65 70.718 69.1285 70.1993C69.4787 69.8202 69.8092 69.4621 70.2469 69.2765L70.5602 69.1435L70.3298 69.0158C70.2238 68.9579 70.1165 68.9309 69.9921 68.9309C69.5373 68.9309 68.9153 69.285 68.3137 69.628C68.0425 69.7827 67.7647 69.9407 67.481 70.0802L67.4856 70.0881ZM71.3909 70.0065C71.3994 70.2526 71.3948 70.512 71.3896 70.7707C71.3849 71.0274 71.3797 71.3019 71.3915 71.5415C72.186 71.3894 72.5803 70.8326 73.1398 69.9538C73.4156 69.5214 73.7006 69.0731 74.0817 68.6749L74.6392 68.091L74.6307 68.0871C74.3726 67.9607 74.1166 67.8995 73.8454 67.8995C73.1418 67.8995 72.4078 68.3069 71.6305 68.7387C71.5383 68.7901 71.4462 68.8414 71.354 68.8921L71.3909 70.0065ZM49.776 27.5343C51.8014 27.5343 54.4297 27.6442 56.7901 28.5026C60.2668 29.767 62.2724 33.436 64.2129 36.9838C64.465 37.4453 64.7158 37.904 64.9672 38.351C65.1581 38.6913 65.3628 39.0454 65.5735 39.4107C66.8689 41.654 68.336 44.196 68.39 46.3162C68.4749 49.7087 65.2246 52.8076 63.0735 54.858L62.6095 55.3017C62.1342 55.7604 61.6517 56.214 61.1653 56.6708C59.7027 58.0458 58.1908 59.4669 56.821 61.0862C53.283 65.2699 49.6002 70.3448 49.1145 76.2616C48.8867 79.0374 49.5535 81.4945 50.9443 83.0038C51.9258 84.0695 53.2152 84.6099 54.7759 84.6099C55.0951 84.6099 55.4288 84.5869 55.7678 84.5408C57.5398 84.3032 58.6673 83.0644 59.9726 81.6295C61.1824 80.3018 62.5529 78.7964 64.619 78.1C65.2647 77.8822 65.8697 77.7768 66.4667 77.7768C67.6126 77.7768 68.5144 78.1777 69.3102 78.5312C70.027 78.8504 70.7037 79.1512 71.5291 79.1631H71.5304C72.9864 79.1631 73.8125 78.2705 74.8591 77.1397C76.0478 75.8542 77.3952 74.3975 79.8458 74.2672C79.9432 74.2619 80.042 74.2593 80.14 74.2593C80.8654 74.2593 81.5881 74.3916 82.2885 74.5206C82.9309 74.6384 83.5385 74.7497 84.0907 74.7497C84.7081 74.7497 85.1498 74.6108 85.523 74.2994C85.8824 73.9993 86.1016 73.1482 86.0812 72.1325C86.0661 71.3348 85.914 70.5897 85.706 70.0117C83.4957 73.268 77.1583 74.1829 73.7144 74.1829C73.4959 74.1829 73.282 74.1796 73.0726 74.1731C72.3499 74.1526 71.6061 74.0368 70.8182 73.9144C69.9507 73.7801 69.0542 73.6405 68.2018 73.6405C67.899 73.6405 67.6232 73.657 67.3599 73.6926C64.7447 74.0401 63.3447 76.1049 61.863 78.2909C60.3096 80.5822 58.7035 82.9505 55.6211 83.1763C55.4966 83.1855 55.367 83.1895 55.234 83.1895C54.2098 83.1895 52.8539 82.911 52.1186 82.1291C51.3972 81.3622 51.0793 80.4901 51.1727 79.5376C51.4209 77.0146 54.61 74.7378 56.3234 73.5142C56.5097 73.3812 56.6742 73.264 56.8105 73.1633C61.2509 69.8801 65.3668 67.7191 69.3932 66.5574C70.8241 66.1446 72.267 65.9663 73.6618 65.7945C74.9907 65.6306 76.2453 65.4752 77.4538 65.1343C78.9585 64.7091 80.0801 63.7724 80.6133 62.4961C81.1814 61.1342 81.0293 59.5137 80.1855 57.9194C79.4173 57.3073 77.9422 57.1664 76.5132 57.0308C76.2387 57.0052 75.9649 56.9788 75.6937 56.9499L74.8367 56.8577C74.815 56.9077 74.79 56.9578 74.7617 57.0084L74.4042 57.645L73.7302 57.3659C72.2564 56.7563 70.2423 55.6716 69.7618 53.2928C69.4346 51.6682 69.85 50.0905 70.9643 48.7299C72.6139 46.7138 75.7661 45.317 78.9592 45.1485C78.4181 45.003 77.8711 44.616 77.3544 44.0084C76.5033 43.0093 75.6904 41.2933 75.9175 39.8873C76.1229 38.6149 77.3248 37.5433 78.4866 36.5079C79.3883 35.7036 80.5113 34.7024 80.4889 34.0435C80.4738 33.6144 79.7648 32.9535 79.3028 32.9292C79.1185 33.0707 78.7202 33.5091 78.3418 34.0264C77.5762 35.077 77.1043 35.8807 76.6468 36.658C76.1676 37.4736 75.6713 38.3168 74.8624 39.4035L74.1173 40.4053L73.4906 39.3252C70.1455 33.5538 66.6865 27.5863 58.3415 26.9367C57.572 26.8768 56.7848 26.8465 56.0015 26.8465C53.8287 26.8465 51.6131 27.0709 49.2573 27.537C49.4304 27.535 49.6035 27.5343 49.776 27.5343ZM7.86728 64.2529C6.75224 65.6128 3.79088 69.2258 3.77837 70.358C3.77245 70.8707 4.07852 72.255 6.1888 75.7706C11.9437 85.3616 20.9529 92.3816 34.5426 97.8633C35.06 98.0726 35.5741 98.2945 36.0842 98.5156C37.6889 99.2094 39.2048 99.865 40.6424 100.02C42.0885 100.176 43.5728 100.255 45.0545 100.255C51.0102 100.255 57.1837 98.9422 62.1619 96.6726C61.6991 96.4277 61.322 96.067 61.0534 95.601C60.4794 94.6071 60.5143 93.263 61.1416 92.1762C61.7867 91.0579 62.9155 90.4161 64.2373 90.4161C64.4393 90.4161 64.6454 90.4313 64.8547 90.4609C64.8336 89.494 64.7217 88.5724 64.3722 87.9807C62.7457 88.2618 61.1574 88.8871 59.4849 89.546C58.458 89.9501 57.397 90.3681 56.2845 90.7222C55.9311 90.8348 55.5677 90.9533 55.1965 91.075C52.815 91.8563 50.115 92.7417 47.4248 92.7417C46.9265 92.7417 46.4388 92.7107 45.9747 92.6495C42.7178 92.2184 39.0271 90.1818 35.7715 88.3848C35.2153 88.0775 34.6762 87.7799 34.1609 87.5028C22.1581 81.0515 13.557 73.42 7.90941 64.2016C7.89559 64.218 7.8811 64.2358 7.86728 64.2529ZM43.8506 103.177C42.889 103.177 41.9207 103.145 40.9728 103.081C38.4011 102.909 36.3705 101.97 34.2207 100.976C33.758 100.762 33.2861 100.544 32.7963 100.328C18.391 93.9614 9.63397 86.9183 3.51508 76.777C2.03933 74.331 0.0179154 70.982 1.6207 68.3431C1.68126 68.2424 1.7767 68.1174 1.88992 67.9752C2.04789 67.7764 2.26445 67.5045 2.31645 67.3012C2.45994 66.743 2.46916 66.2401 2.47837 65.7523C2.49483 64.846 2.51392 63.8191 3.57893 63.0477C4.15554 62.6304 5.09417 62.4322 5.81295 62.4132C6.04662 62.1742 6.225 61.8675 6.42576 61.5232C6.82926 60.8308 7.33148 59.9678 8.48009 59.4814C9.26602 59.1483 10.2277 58.9858 11.4197 58.9858C12.5052 58.9858 13.6327 59.1161 14.724 59.2418C15.2072 59.2978 15.6811 59.3524 16.1373 59.3932C16.5927 59.0529 17.0765 58.7205 17.584 58.3723C19.8279 56.834 22.1475 55.2437 22.5194 52.5437C22.7492 50.8751 22.5477 49.0808 22.3345 47.1805C22.1693 45.706 21.9975 44.1809 22.0383 42.6815C22.2166 36.0459 23.4192 30.0797 24.7423 24.0444C25.4262 20.9264 26.2766 17.0455 27.8452 14.4718C30.0417 10.868 33.7073 7.97442 36.9412 5.42116L37.6179 4.88536C38.6579 4.0527 39.9513 3.01797 41.5606 3.01797L42.4611 3.04693L42.4822 3.81969C42.5388 5.9122 41.5791 7.8928 40.651 9.80891C39.8433 11.4749 39.0087 13.1981 38.8455 14.9753C38.5196 18.5284 39.4964 21.8821 40.441 25.1252C40.6286 25.7676 40.8129 26.4028 40.986 27.0308C41.9615 26.7991 42.9291 26.549 43.871 26.3054L44.8577 26.0513C45.4152 24.7645 45.9346 23.4099 46.4388 22.0967C46.8903 20.9198 47.357 19.7027 47.852 18.5298L48.1804 17.7471C49.1237 15.492 50.1926 12.9368 51.5868 11.0872C52.561 9.79574 54.0275 8.64582 55.4453 7.53473C56.0107 7.09108 56.5689 6.65402 57.0817 6.21761C57.5187 5.8444 57.9439 5.47184 58.3626 5.10587C59.8317 3.81837 61.2206 2.60329 62.7253 1.71205L62.8069 1.66268C63.0287 1.52708 63.3644 1.32172 63.8074 1.32172C64.1991 1.32172 64.5828 1.48232 64.9475 1.79893L65.1798 2.00101L65.2233 2.30577C65.4444 3.87959 64.4453 4.99068 63.5639 5.97144C63.2473 6.32425 62.9478 6.65665 62.7161 6.99432C60.6289 10.0294 59.7718 15.109 60.2905 21.3305C61.6675 22.0421 63.0663 22.6944 64.54 23.3816C67.4909 24.7579 70.5431 26.181 73.4011 28.1215C73.8441 28.4223 74.2469 28.7356 74.6366 29.0377C75.7819 29.9276 76.6863 30.63 78.014 30.63C78.4688 30.63 78.9513 30.5503 79.4904 30.3851L79.7728 30.2989L80.0459 30.4114C82.247 31.3237 82.3214 33.3096 82.3885 35.0612C82.4017 35.4205 82.4155 35.7878 82.4465 36.1578C82.5261 37.0984 82.7723 38.1028 83.033 39.1672C83.3627 40.5126 83.7024 41.8975 83.7294 43.2798C86.8842 43.9176 89.5514 45.5684 91.2931 47.9769C93.1137 50.4946 93.766 53.6357 93.1802 57.0604C92.6766 60.0047 90.8428 62.5777 89.2934 64.0041C89.0064 64.268 88.6917 64.4978 88.3883 64.7196C87.5695 65.3179 86.9093 65.7997 86.7447 66.8128C88.1033 68.8282 89.0656 72.203 88.3922 74.6575C88.0296 75.9766 87.2219 76.935 86.0536 77.4267C85.6382 77.6018 85.1965 77.6827 84.6608 77.6827C84.3652 77.6827 84.0657 77.6577 83.7629 77.6307C83.5029 77.6077 83.2403 77.5833 82.9757 77.5833C82.7677 77.5833 82.5867 77.5991 82.4228 77.6327C81.8231 77.7545 80.6851 78.6128 79.8537 79.2401C79.4713 79.5297 79.1046 79.8062 78.7755 80.0319C75.6009 82.2113 72.1584 84.0991 68.8284 85.925C68.2998 86.2147 67.7739 86.5036 67.2526 86.7906C67.3105 86.8459 67.377 86.9065 67.454 86.9756C67.8634 87.3422 68.4236 87.8444 68.5414 88.7232C68.6507 89.5427 68.3031 90.1825 67.9964 90.7466C67.82 91.0711 67.6528 91.3785 67.5797 91.7003C67.479 92.142 67.5185 92.8911 67.5574 93.6145C67.6238 94.8829 67.6936 96.1934 67.1835 97.1255C66.412 98.5354 64.1477 99.2035 62.3271 99.7399C61.965 99.8466 61.6313 99.9453 61.3522 100.038C55.0609 102.15 49.3363 103.177 43.8506 103.177Z" fill="black"/>
<path fill-rule="evenodd" clip-rule="evenodd" d="M63.1832 77.8196C64.376 76.1194 65.5575 74.7622 67.4683 74.5081C67.6961 74.4778 67.9356 74.4627 68.2022 74.4627C68.9901 74.4627 69.855 74.5976 70.6916 74.7273C71.4697 74.8484 72.274 74.9735 73.0481 74.9958C73.266 75.0024 73.4878 75.0057 73.7142 75.0057C74.4047 75.0057 75.1768 74.9735 75.9924 74.9011C75.3183 75.4309 74.7608 76.0332 74.254 76.5809C73.1837 77.7374 72.5788 78.341 71.5789 78.341H71.5401C70.8839 78.3311 70.3369 78.0875 69.6444 77.7795C68.8164 77.4115 67.7869 76.9541 66.4671 76.9541C65.7786 76.9541 65.0882 77.0739 64.3562 77.3207C63.9389 77.4609 63.5492 77.6294 63.1832 77.8196ZM81.9388 73.6215C83.1842 73.1502 84.3282 72.538 85.2378 71.7534C85.2424 71.8028 85.2457 71.8535 85.249 71.9042C85.3109 72.9428 85.0917 73.5583 84.9824 73.6794C84.8416 73.7966 84.6145 73.9275 84.0905 73.9275C83.6133 73.9275 83.042 73.8222 82.4364 73.711C82.2718 73.6807 82.106 73.6504 81.9388 73.6215ZM72.1931 69.3673C72.3701 69.2699 72.5472 69.1732 72.721 69.0863C72.6242 69.2317 72.5334 69.3746 72.4458 69.5122C72.3603 69.6464 72.2819 69.7669 72.2095 69.8755L72.1931 69.3673ZM82.2903 67.6283L83.1828 66.8496C83.3257 66.7252 83.5218 66.5988 83.7272 66.5021C83.3961 68.5077 83.0143 68.8487 82.1244 68.8612L80.5782 68.0081C80.3636 68.326 80.0293 68.823 79.6705 69.2258C79.6666 69.0514 79.6501 68.8651 79.6179 68.665L79.5126 68.0114C79.7528 67.8633 79.9766 67.7014 80.1945 67.5427C80.4848 67.3321 80.9712 66.9793 81.1515 66.9793C81.1647 66.9793 81.2062 66.9925 81.2681 67.0293L82.2903 67.6283ZM4.60096 70.3889C4.70431 69.7511 5.78709 68.1457 7.82299 65.6122C13.5502 74.52 22.0631 81.9349 33.7716 88.2282C34.2844 88.5033 34.8202 88.7995 35.3738 89.105C38.6932 90.9375 42.4563 93.0142 45.8672 93.4651C46.3662 93.5309 46.8908 93.5645 47.4246 93.5645C50.2458 93.5645 53.0123 92.6574 55.453 91.857C55.8216 91.7359 56.1823 91.6181 56.5338 91.5062C57.6726 91.1441 58.7474 90.7209 59.7861 90.3115C61.1908 89.7579 62.5336 89.2294 63.8658 88.922C63.9172 89.1287 63.9534 89.361 63.979 89.6C61.3705 89.7349 59.8217 91.911 59.8217 94.0167C59.8217 95.0145 60.1324 95.8248 60.6293 96.4396C55.9822 98.3438 50.4307 99.4326 45.0543 99.4326C43.6023 99.4326 42.1469 99.3549 40.7298 99.2022C39.4166 99.0607 37.9567 98.4288 36.4111 97.76C35.8944 97.5369 35.3738 97.3117 34.8505 97.1005C21.4351 91.6892 12.5517 84.7771 6.89423 75.3473C4.77144 71.8107 4.60755 70.6344 4.60096 70.3889ZM82.8202 56.8024C82.9584 56.4305 83.537 55.6749 83.9319 55.1595C84.6737 54.1912 85.5143 53.094 85.8862 51.8716C86.3535 50.338 86.3009 48.8978 85.7085 47.4372C86.3555 47.6939 86.9393 48.0309 87.4844 48.5153C88.8179 49.7002 90.135 52.6622 89.9376 55.3807C89.8349 56.8044 89.1576 58.7185 88.2512 60.1443C87.3079 61.6292 86.2225 62.481 85.274 62.481C85.1365 62.481 84.9949 62.4638 84.8534 62.4303C84.2386 62.2828 83.77 60.3391 83.5179 59.2945C83.4718 59.1036 83.427 58.916 83.381 58.7337C83.2875 58.3591 83.1651 57.9589 83.0466 57.5726C82.9742 57.3356 82.8722 57.0038 82.8202 56.8024ZM44.0433 41.1629C44.6054 40.8529 45.1912 40.5804 45.7455 40.3599C50.4525 42.2767 54.7072 44.901 58.4374 48.1862C58.2044 48.5825 57.9707 49.0037 57.7272 49.4415C56.4042 51.8256 54.9041 54.5276 52.8063 54.5276C52.5246 54.5276 52.2218 54.4815 51.9071 54.3913C49.3901 53.6712 48.4225 48.4627 49.1274 44.2388L49.3368 42.9862L48.1783 42.4662C46.8882 41.887 45.4552 41.5085 44.0433 41.1629ZM78.2402 35.6233C78.462 35.2817 78.7108 34.9177 79.0077 34.5102C79.167 34.291 79.3362 34.0817 79.4816 33.9145C79.5488 33.9744 79.6093 34.0409 79.6468 34.1002C79.5027 34.4563 78.805 35.1145 78.2402 35.6233ZM50.3675 80.365C49.9713 79.196 49.8133 77.8006 49.9344 76.3288C50.4011 70.6436 53.995 65.7017 57.4494 61.6174C58.7883 60.035 60.2824 58.6303 61.7279 57.2711C62.217 56.8116 62.7027 56.3548 63.1806 55.8941C63.3254 55.7545 63.4794 55.6077 63.6407 55.4537C65.8971 53.3033 69.3067 50.053 69.2126 46.2958C69.1534 43.9663 67.6302 41.3275 66.2861 38.9993C66.0768 38.6373 65.8741 38.2858 65.6845 37.9488C65.4344 37.5032 65.1856 37.0484 64.9348 36.5889C63.0147 33.0786 60.8393 29.1003 57.0716 27.7292C57.0301 27.714 56.988 27.6989 56.9459 27.6844C57.3928 27.6989 57.8384 27.7232 58.2775 27.7568C66.192 28.3729 69.5404 34.1502 72.7782 39.7372L74.0308 41.8988L75.0583 40.5185C75.1031 41.989 75.8745 43.5405 76.7269 44.5416C76.7447 44.5627 76.7625 44.5831 76.7796 44.6028C74.1401 45.1557 71.7652 46.4518 70.327 48.2086C69.052 49.7666 68.5774 51.5807 68.9552 53.4553C69.3252 55.2892 70.4422 56.4457 71.6336 57.2158L71.4907 57.3237L71.8738 57.3652C72.4011 57.6818 72.9342 57.9273 73.4154 58.1261L74.7641 58.6836L75.2973 57.7345L75.6053 57.768C75.8798 57.7977 76.1576 57.824 76.4353 57.8503C77.603 57.9616 78.9116 58.0853 79.5442 58.473C80.1945 59.7888 80.3057 61.0947 79.8535 62.1795C79.4197 63.2188 78.4877 63.987 77.2298 64.3424C76.0819 64.6669 74.8576 64.8177 73.5609 64.9776C72.1338 65.154 70.6587 65.3357 69.1646 65.7668C65.0421 66.9563 60.8413 69.1587 56.3206 72.5018C56.1876 72.5999 56.0263 72.7151 55.8453 72.8448C54.0253 74.1434 50.6387 76.5624 50.3537 79.4567C50.3234 79.7647 50.3287 80.0681 50.3675 80.365ZM63.8079 0.498932C63.1326 0.498932 62.6409 0.799742 62.3776 0.961008L62.3065 1.00379C60.7359 1.93387 59.3194 3.17397 57.8207 4.48648C57.4053 4.85048 56.9821 5.2204 56.547 5.59164C56.0527 6.01291 55.5109 6.43746 54.9376 6.88703C53.4777 8.03103 51.9684 9.21453 50.9297 10.5922C49.4737 12.5241 48.383 15.13 47.4213 17.4299L47.0942 18.2099C46.5939 19.3953 46.1246 20.619 45.6704 21.8018C45.2176 22.9814 44.7529 24.1938 44.2612 25.3543C44.0617 25.4056 43.8623 25.4576 43.6628 25.509C42.9737 25.6873 42.2713 25.869 41.5631 26.0441C41.4532 25.6584 41.3413 25.274 41.2307 24.8948C40.3078 21.7255 39.3528 18.4481 39.6648 15.0504C39.8142 13.4219 40.5804 11.8415 41.3913 10.1676C42.3622 8.16334 43.3666 6.09058 43.3048 3.79731L43.2626 2.25179L41.7171 2.19782C41.6645 2.19584 41.6125 2.19519 41.5605 2.19519C39.6621 2.19519 38.1838 3.37868 37.1036 4.24293L36.8475 4.44698L36.4309 4.77544C33.1424 7.37149 29.4155 10.3138 27.142 14.0439C25.5023 16.7348 24.6354 20.6907 23.9384 23.8687C22.6068 29.9434 21.3956 35.9517 21.2153 42.6591C21.1738 44.2158 21.3483 45.7699 21.5168 47.2719C21.7241 49.1196 21.9196 50.8646 21.7044 52.4318C21.3818 54.7718 19.2143 56.2574 17.1185 57.6937C16.6972 57.9826 16.2917 58.2604 15.9021 58.5441C15.5545 58.5092 15.1925 58.4671 14.8173 58.4243C13.7036 58.2959 12.5524 58.163 11.4195 58.163C10.1149 58.163 9.04795 58.3466 8.15803 58.7245C6.75798 59.3175 6.15504 60.3529 5.71468 61.1092C5.60279 61.3014 5.50274 61.4732 5.404 61.6147C4.6556 61.6865 3.74395 61.9129 3.09691 62.3809C1.69818 63.3933 1.67382 64.7479 1.65539 65.7379C1.64684 66.1973 1.63894 66.6317 1.5198 67.0965C1.49281 67.1531 1.3322 67.3545 1.24598 67.4631C1.13408 67.604 1.01757 67.7494 0.916862 67.9159C-0.943948 70.98 1.22623 74.5766 2.81058 77.2022C9.0236 87.4989 17.8919 94.64 32.4637 101.08C32.9489 101.294 33.4169 101.511 33.875 101.723C36.0959 102.749 38.1936 103.72 40.9174 103.903C41.883 103.967 42.8703 104 43.8504 104C49.4263 104 55.2371 102.959 61.614 100.819C61.8846 100.728 62.2084 100.633 62.5599 100.529C64.5254 99.9499 66.9707 99.2285 67.9054 97.5211C68.5274 96.3837 68.4517 94.954 68.3786 93.571C68.3444 92.9345 68.3062 92.2131 68.3819 91.884C68.43 91.6714 68.5643 91.4252 68.7189 91.1395C69.0494 90.532 69.5016 89.7 69.3568 88.6146C69.2613 87.9004 68.9493 87.3725 68.6182 86.9782C68.8196 86.8676 69.0211 86.7577 69.2231 86.6465C72.5709 84.8113 76.0325 82.913 79.2414 80.7099C79.5909 80.4697 79.9595 80.1919 80.3492 79.897C80.9824 79.4198 82.16 78.5305 82.5858 78.439C82.6951 78.4167 82.8228 78.4061 82.9755 78.4061C83.1914 78.4061 83.4336 78.4272 83.6903 78.4502C83.9977 78.4779 84.3156 78.5062 84.6606 78.5062C85.3004 78.5062 85.8605 78.4009 86.3733 78.185C87.7819 77.5912 88.7541 76.4466 89.1852 74.8747C89.8876 72.3175 88.9825 68.8697 87.6272 66.6653C87.7957 66.1901 88.188 65.8847 88.8732 65.3837C89.1957 65.1488 89.5288 64.9052 89.85 64.6097C91.4995 63.0911 93.4525 60.347 93.9909 57.1993C94.6149 53.5514 93.9126 50.1958 91.9596 47.4951C90.2127 45.0787 87.6048 43.3772 84.5197 42.6143C84.4203 41.3716 84.1228 40.1565 83.8318 38.971C83.5791 37.9396 83.3402 36.9654 83.2664 36.088C83.2375 35.7444 83.2236 35.3811 83.2105 35.0302C83.142 33.2306 83.0486 30.7656 80.361 29.6518L79.8147 29.4254L79.2493 29.5985C78.7898 29.7387 78.3857 29.8072 78.0138 29.8072C77.0166 29.8072 76.3076 29.2944 75.1413 28.3881C74.7417 28.078 74.3284 27.7568 73.863 27.4409C70.9503 25.4629 67.8679 24.026 64.8874 22.6358C63.5676 22.0203 62.3078 21.4326 61.0749 20.8072C60.6484 14.9839 61.4633 10.2677 63.3939 7.46035C63.5953 7.16744 63.877 6.85346 64.1758 6.52172C65.077 5.51858 66.3118 4.1442 66.0373 2.19124L65.9517 1.58172L65.487 1.17756C64.9677 0.727337 64.4029 0.498932 63.8079 0.498932ZM61.8799 94.5189C62.2347 93.0313 63.6769 92.6304 65.0401 92.1499C64.8031 92.0841 64.5556 92.0525 64.3068 92.0525C62.8772 92.0525 61.4179 93.0853 61.8799 94.5189ZM82.1007 65.6095C81.767 65.414 81.4517 65.3337 81.1522 65.3337C80.1155 65.3337 79.2644 66.2895 78.4673 66.716C78.1013 66.61 77.7682 66.5653 77.4582 66.5653C76.4972 66.5653 75.7633 66.9951 74.9925 67.3479C74.6002 67.1557 74.2184 67.0767 73.8452 67.0767C72.742 67.0767 71.7165 67.7711 70.7265 68.2957C70.4876 68.1634 70.2421 68.1081 69.992 68.1081C68.9085 68.1081 67.7395 69.1508 66.6192 69.5589C65.2731 70.0512 63.6605 69.9716 63.9336 71.2973C64.0462 71.8436 64.3286 72.0496 64.6754 72.0496C65.4252 72.0496 66.4777 71.086 66.7772 70.5074C67.0319 70.9372 66.8785 71.7751 67.2511 72.0871C67.3024 72.0904 67.3538 72.0917 67.4031 72.0917C69.0869 72.0917 69.778 70.3692 70.5686 70.0335C70.5955 70.849 70.4711 71.8159 70.7265 72.4031C70.7884 72.4057 70.8483 72.407 70.9069 72.407C73.2179 72.407 73.5464 70.4251 74.6759 69.2436C75.0623 69.6471 74.6061 70.8938 74.9925 71.2973C76.6716 71.186 77.2114 69.9361 77.9934 68.9276C78.1658 69.9953 77.5932 70.3178 77.6774 71.2973C78.0362 71.4618 78.3751 71.5336 78.6937 71.5336C80.1833 71.5336 81.243 69.9663 81.9427 68.9276C81.7281 69.4062 81.688 70.2303 82.1007 70.5074C85.0338 70.4909 85.2464 67.7547 85.5762 65.1363C85.2148 64.8131 84.7869 64.686 84.3492 64.686C83.5001 64.686 82.6128 65.1632 82.1007 65.6095ZM45.0543 101.078C52.9669 101.078 60.3417 98.9007 65.3554 95.9413C64.7604 96.1361 64.2377 96.2224 63.7855 96.2224C60.3443 96.2224 60.9334 91.2389 64.2371 91.2389C64.6695 91.2389 65.1487 91.3245 65.6713 91.518C65.7194 89.6796 65.6141 87.9945 64.7235 87.0947C61.7977 87.4772 59.0976 88.9641 56.0349 89.9376C53.4632 90.7558 50.3939 91.9189 47.4246 91.9189C46.9744 91.9189 46.5261 91.8926 46.0825 91.8333C42.426 91.3502 37.9711 88.6179 34.5503 86.7788C23.3302 80.7481 14.1045 73.2397 8.01058 62.7666C6.91398 64.1772 2.97448 68.6334 2.95539 70.3494C2.94025 71.7626 4.46537 74.4982 5.48365 76.1945C11.9711 87.0072 22.1737 93.7613 34.2344 98.6269C36.4026 99.5017 38.5109 100.618 40.5534 100.839C42.064 101.001 43.5694 101.078 45.0543 101.078ZM11.3287 65.6095C12.603 64.7262 13.5568 63.521 14.3296 62.1347C13.826 61.9057 13.0835 61.7944 12.3299 61.7944C11.3945 61.7944 10.4421 61.9656 9.90628 62.292C9.84507 63.9337 10.6698 64.6887 11.3287 65.6095ZM52.8063 56.1732C56.576 56.1732 58.4539 51.2325 60.1422 48.5489C60.7629 48.8234 61.4554 49.0261 62.0379 49.3388C57.5903 44.7819 52.2363 41.1313 45.7665 38.5965C44.0848 39.179 41.671 40.3981 40.3954 41.914C42.7301 42.6334 45.3966 43.0211 47.5043 43.9676C46.69 48.8471 47.8255 54.935 51.4536 55.9737C51.9302 56.11 52.3804 56.1732 52.8063 56.1732ZM43.4167 28.4934C45.5065 28.4934 47.6688 28.3571 49.7751 28.3571C52.1553 28.3571 54.4624 28.5315 56.5095 29.276C60.1317 30.5938 62.1604 35.0348 64.2496 38.7545C65.5542 41.0774 67.5104 44.096 67.567 46.3373C67.6493 49.6106 64.0001 52.8169 62.0379 54.7099C60.1113 56.5681 58.0471 58.3631 56.1929 60.555C52.7615 64.6123 48.8102 69.9077 48.2941 76.1945C47.8979 81.0219 50.0707 85.4327 54.7757 85.4327C55.1292 85.4327 55.4958 85.4077 55.8776 85.3564C59.7934 84.8304 60.9295 80.211 64.8815 78.8801C65.4745 78.6799 65.9952 78.5996 66.4671 78.5996C68.4043 78.5996 69.5253 79.9563 71.5164 79.9859C71.5375 79.9865 71.5579 79.9865 71.5789 79.9865C75.1893 79.9865 75.7462 75.3092 79.8891 75.0887C79.972 75.0841 80.0556 75.0821 80.1398 75.0821C81.4326 75.0821 82.8294 75.5731 84.0905 75.5731C84.8008 75.5731 85.4682 75.4171 86.0501 74.9307C87.4837 73.7307 86.9703 69.3719 85.5762 68.2957C84.7501 71.9377 78.3258 73.3602 73.7142 73.3602C73.5036 73.3602 73.2982 73.3569 73.0962 73.3509C71.6276 73.3082 69.8879 72.8171 68.2022 72.8171C67.8823 72.8171 67.5644 72.8349 67.2511 72.877C61.3501 73.6623 60.9854 81.9586 55.561 82.3555C55.4557 82.3627 55.3464 82.3667 55.2338 82.3667C54.3274 82.3667 53.2341 82.1152 52.7174 81.5656C49.9726 78.6464 55.6518 75.0432 57.2993 73.8249C61.0032 71.086 65.0967 68.6532 69.6207 67.3479C72.3076 66.5725 75.0899 66.6568 77.6774 65.9261C81.3503 64.8888 82.9321 61.1869 80.8376 57.3955C79.7423 56.3838 77.6833 56.3371 75.7817 56.1317C76.5005 55.586 77.347 55.1694 77.3615 53.9201C77.0008 53.4112 76.4209 53.1776 75.839 53.1776C75.0945 53.1776 74.3461 53.5593 74.044 54.236C73.6017 55.2273 74.4212 55.9336 74.044 56.6056C72.3089 55.8881 70.9266 54.9054 70.5686 53.1302C69.7142 48.8899 74.9346 45.9542 79.6067 45.9542C81.0245 45.9542 82.3916 46.2247 83.5231 46.8112C84.5131 48.335 84.8231 49.7153 84.3124 51.3925C83.7226 53.3276 81.2786 55.2753 81.1529 56.7636C81.1265 57.0795 81.5695 58.2709 81.7848 59.1332C82.2679 61.0664 82.7135 63.6092 84.4703 64.0304C84.7428 64.0956 85.0114 64.1265 85.274 64.1265C88.7449 64.1265 91.3455 58.7363 91.5792 55.4998C91.8208 52.1639 90.2417 48.7642 88.5777 47.2851C86.7899 45.6962 84.7415 45.3888 82.2593 44.9155C82.1547 41.544 81.9283 38.2957 80.2057 36.5428C79.6403 37.0451 80.2972 38.2378 80.363 39.0704C80.0971 40.0407 78.5423 40.4804 78.7832 41.44C78.8741 41.4341 78.9623 41.4315 79.0472 41.4315C79.8048 41.4315 80.3459 41.648 80.6789 42.0719C80.5552 43.759 80.0503 44.3909 79.4395 44.3909C78.1764 44.3909 76.4604 41.6849 76.7296 40.0183C77.0607 37.9666 81.3806 36.0222 81.3108 34.0152C81.2799 33.1161 80.1701 32.1051 79.2769 32.1051C79.2164 32.1051 79.1571 32.1103 79.0992 32.1195C78.7082 32.184 77.9124 33.2188 77.6774 33.5413C76.0779 35.7372 75.7468 36.8371 74.202 38.9125C70.82 33.0766 67.1708 26.7984 58.4045 26.1165C57.5942 26.0533 56.7925 26.0237 56.0013 26.0237C51.1081 26.0237 46.5913 27.1532 42.607 28.4861C42.8756 28.4914 43.1461 28.4934 43.4167 28.4934ZM63.8079 2.1445C63.9797 2.1445 64.1739 2.21691 64.4082 2.4203C64.6432 4.09417 62.9529 5.19802 62.0379 6.52764C59.5544 10.14 58.96 15.941 59.5103 21.8512C63.8671 24.1477 68.6281 25.8756 72.9388 28.8021C74.6746 29.981 75.887 31.4528 78.0138 31.4528C78.5265 31.4528 79.0919 31.3672 79.7311 31.1717C81.8203 32.0379 81.4471 34.1008 81.6268 36.2269C81.8328 38.6689 83.067 41.417 82.8912 43.9676C88.891 44.8694 93.6 49.7258 92.3691 56.9216C91.9274 59.5038 90.3207 61.9392 88.7363 63.3985C87.6845 64.3661 86.0356 64.9421 85.8921 67.032C87.7062 69.4878 89.1181 75.242 85.7341 76.6684C85.3839 76.8158 85.0252 76.8606 84.6606 76.8606C84.1116 76.8606 83.5481 76.7606 82.9755 76.7606C82.7379 76.7606 82.4989 76.7777 82.2593 76.8264C81.1864 77.0436 79.4928 78.5417 78.31 79.3533C74.437 82.0126 70.1229 84.2532 66.1453 86.4628C66.2789 87.4936 67.5743 87.7016 67.7257 88.8325C67.8521 89.781 67.0141 90.4793 66.7772 91.518C66.4731 92.8516 67.1412 95.4884 66.4619 96.7312C65.7122 98.101 62.6126 98.7473 61.0907 99.2588C55.9618 100.98 50.1339 102.354 43.8504 102.354C42.919 102.354 41.9778 102.324 41.0273 102.26C38.0765 102.062 35.8688 100.785 33.1292 99.5747C21.0132 94.22 11.0332 87.6443 4.21985 76.3525C2.76846 73.9473 0.992559 70.9616 2.3235 68.7697C2.48279 68.5077 2.97777 68.0357 3.11337 67.5052C3.55965 65.7675 2.89023 64.5623 4.06122 63.7138C4.50223 63.3952 5.34081 63.234 5.92729 63.234C5.99377 63.234 6.0563 63.2366 6.11555 63.2406C7.22466 62.4033 7.25033 60.896 8.80112 60.239C9.55874 59.9178 10.4605 59.8086 11.4195 59.8086C13.046 59.8086 14.839 60.1219 16.3839 60.239C18.8845 58.2966 22.8049 56.501 23.3341 52.6563C23.7653 49.5251 22.7713 46.0233 22.8602 42.7038C23.0366 36.167 24.1905 30.4035 25.5464 24.2208C26.2751 20.8935 27.0966 17.2811 28.5473 14.9003C30.7609 11.2682 34.6076 8.31539 37.8678 5.73777C38.8815 4.9367 40.117 3.84075 41.5605 3.84075C41.5934 3.84075 41.6263 3.84075 41.6592 3.84207C41.7586 7.47681 38.3944 10.8825 38.0258 14.9003C37.5927 19.627 39.3541 23.9667 40.3954 28.0122C42.1153 27.6252 43.7708 27.1749 45.4506 26.7484C46.5834 24.1932 47.5148 21.4457 48.6101 18.8497C49.6336 16.4254 50.7539 13.5588 52.2435 11.5828C53.5316 9.87407 55.8466 8.35093 57.6146 6.84359C59.5689 5.17696 61.2862 3.5202 63.1444 2.4203C63.357 2.29392 63.5597 2.1445 63.8079 2.1445Z" fill="#FFFFFE"/>
<path fill-rule="evenodd" clip-rule="evenodd" d="M70.5689 47.759C71.2344 47.0758 71.9703 46.6065 72.9392 46.1793C73.8798 45.7639 75.0344 45.7751 75.7821 45.0735C73.4566 43.9584 69.9258 45.9002 70.5689 47.759ZM74.2024 38.9124C75.7472 36.8371 76.0783 35.7372 77.6778 33.5413C77.9128 33.2188 78.7086 32.184 79.0996 32.1195C80.0158 31.9688 81.2777 33.0549 81.3112 34.0152C81.381 36.0222 77.061 37.9666 76.73 40.0183C76.3311 42.4899 80.2989 47.2496 80.6793 42.0719C80.3087 41.6 79.6808 41.3854 78.7836 41.44C78.5427 40.4803 80.0974 40.0406 80.3634 39.0704C80.2975 38.2378 79.6406 37.0451 80.2061 36.5428C81.9286 38.2957 82.1551 41.544 82.2597 44.9155C84.7419 45.3888 86.7903 45.6961 88.5781 47.2851C90.2421 48.7641 91.8211 52.1639 91.5796 55.4998C91.3281 58.9812 88.3365 64.9565 84.4707 64.0304C82.7139 63.6092 82.2683 61.0664 81.7851 59.1332C81.5699 58.2709 81.1269 57.0795 81.1532 56.7636C81.279 55.2753 83.723 53.3276 84.3127 51.3924C84.8235 49.7153 84.5135 48.335 83.5235 46.8112C78.6645 44.2921 69.4552 47.603 70.5689 53.1302C70.927 54.9054 72.3093 55.8881 74.0444 56.6056C74.4215 55.9336 73.6021 55.2273 74.0444 54.236C74.5822 53.0314 76.5384 52.7596 77.3618 53.92C77.3474 55.1694 76.5009 55.586 75.7821 56.1317C77.6837 56.3371 79.7427 56.3838 80.838 57.3955C82.9324 61.1869 81.3507 64.8888 77.6778 65.9261C75.0903 66.6568 72.308 66.5725 69.6211 67.3479C65.0971 68.6532 61.0036 71.086 57.2997 73.8249C55.6522 75.0432 49.973 78.6464 52.7178 81.5656C53.299 82.183 54.6076 82.4246 55.5613 82.3555C60.9858 81.9586 61.3505 73.6623 67.2515 72.877C69.2189 72.615 71.3496 73.3002 73.0965 73.3509C77.7298 73.4845 84.7129 72.1036 85.5765 68.2957C86.9707 69.3719 87.4841 73.7307 86.0505 74.9307C84.3687 76.3373 81.9708 74.9781 79.8894 75.0886C75.7229 75.3105 75.1838 80.0398 71.5168 79.9859C69.0412 79.949 67.9097 77.8598 64.8819 78.88C60.9299 80.211 59.7938 84.8304 55.878 85.3563C50.4107 86.0922 47.8686 81.3839 48.2945 76.1945C48.8106 69.9077 52.7619 64.6123 56.1932 60.555C58.0475 58.3631 60.1117 56.5681 62.0383 54.7099C64.0005 52.8169 67.6497 49.6106 67.5674 46.3373C67.5108 44.096 65.5546 41.0774 64.25 38.7545C62.1607 35.0348 60.1321 30.5938 56.5099 29.276C52.417 27.7877 47.2815 28.577 42.6074 28.4861C47.2361 26.938 52.5842 25.6636 58.4049 26.1165C67.1712 26.7984 70.8204 33.0766 74.2024 38.9124Z" fill="#FFFFFE"/>
<path fill-rule="evenodd" clip-rule="evenodd" d="M51.9277 45.2314C50.8442 45.4177 49.9418 47.2423 49.874 48.8648C49.7094 52.8109 54.3749 54.4637 56.193 51.0765C55.7697 50.1306 54.4539 50.0773 53.9813 49.1808C54.9364 48.6937 56.0719 48.955 56.9828 48.7069C57.2633 48.408 57.098 47.6636 57.1415 47.1271C55.2794 46.8605 53.487 44.9635 51.9277 45.2314ZM62.038 49.3388C61.4555 49.0261 60.763 48.8234 60.1423 48.5489C58.2638 51.5353 56.1495 57.3185 51.4537 55.9737C47.8256 54.935 46.6901 48.8471 47.5044 43.9676C45.3967 43.0211 42.7302 42.6334 40.3955 41.914C41.6712 40.3981 44.0849 39.179 45.7666 38.5965C52.2364 41.1313 57.5904 44.7819 62.038 49.3388Z" fill="#FFFFFE"/>
<path fill-rule="evenodd" clip-rule="evenodd" d="M75.7823 45.0735C75.0346 45.7751 73.8801 45.7639 72.9394 46.1793C71.9705 46.6065 71.2346 47.0758 70.5692 47.759C69.9261 45.9002 73.4568 43.9584 75.7823 45.0735Z" fill="black"/>
<path fill-rule="evenodd" clip-rule="evenodd" d="M14.3298 62.1347C13.5571 63.521 12.6033 64.7262 11.3283 65.6095C10.6701 64.6887 9.84532 63.9337 9.90654 62.2921C10.8735 61.7023 13.1997 61.6207 14.3298 62.1347Z" fill="#7E6748"/>
<path fill-rule="evenodd" clip-rule="evenodd" d="M49.5577 97.2045C50.1903 100.091 56.2763 99.5708 55.8774 95.9413C55.7451 94.7427 54.7873 93.9271 53.1918 93.887C50.9321 93.8317 49.0035 94.6762 49.5577 97.2045ZM35.9719 95.9413C36.1108 99.5899 42.0651 100.005 42.2909 96.7312C42.4554 94.3484 40.1049 93.078 37.8676 93.5717C36.1174 93.9581 35.935 94.9606 35.9719 95.9413ZM23.4919 88.6745C22.9238 91.7004 27.3544 94.1819 29.4956 91.3601C30.7522 86.971 24.1192 85.336 23.4919 88.6745ZM13.5395 79.512C12.3474 82.8887 18.5835 86.3384 19.5425 82.5135C20.2435 79.718 17.5376 77.5511 15.1192 78.2482C14.305 78.4825 13.7067 79.04 13.5395 79.512ZM4.85154 71.7712C4.91737 74.9636 10.0509 76.6592 10.696 73.3509C11.2015 70.7634 8.87134 68.4544 6.43063 69.2436C5.06744 69.6846 4.83377 70.9208 4.85154 71.7712ZM64.7233 87.0947C65.6139 87.9945 65.7192 89.6796 65.6711 91.518C60.6311 89.6546 59.6437 97.814 65.3552 95.9413C59.4002 99.4556 50.1133 101.868 40.5532 100.839C38.5107 100.618 36.4024 99.5017 34.2342 98.6269C22.1735 93.7613 11.9709 87.0072 5.48344 76.1945C4.46516 74.4982 2.94005 71.7626 2.95519 70.3494C2.97428 68.6334 6.91377 64.1772 8.01038 62.7666C14.1043 73.2397 23.33 80.7481 34.5501 86.7788C37.9709 88.6179 42.4258 91.3502 46.0823 91.8333C49.4517 92.2796 53.0727 90.8802 56.0347 89.9376C59.0974 88.9641 61.7975 87.4772 64.7233 87.0947Z" fill="#7E6748"/>
<path fill-rule="evenodd" clip-rule="evenodd" d="M85.5764 65.1362C85.2466 67.7547 85.034 70.4909 82.101 70.5074C81.6883 70.2303 81.7284 69.4062 81.943 68.9276C81.0932 70.1888 79.7129 72.2286 77.6777 71.2972C77.5934 70.3178 78.1661 69.9953 77.9936 68.9276C77.2116 69.936 76.6719 71.186 74.9928 71.2972C74.6064 70.8938 75.0625 69.6471 74.6761 69.2436C73.5177 70.4554 73.2017 72.5084 70.7268 72.4031C70.4714 71.8159 70.5958 70.849 70.5688 70.0334C69.7552 70.3797 69.0457 72.1951 67.2513 72.0871C66.8788 71.7751 67.0321 70.9372 66.7774 70.5074C66.339 71.3532 64.2906 73.0238 63.9339 71.2972C63.6607 69.9716 65.2734 70.0512 66.6194 69.5589C67.9984 69.0566 69.4518 67.5927 70.7268 68.2957C72.0511 67.5934 73.44 66.5876 74.9928 67.3479C76.0117 66.8812 76.9668 66.2802 78.4675 66.716C79.495 66.1657 80.6134 64.7367 82.101 65.6095C82.877 64.9328 84.5147 64.1858 85.5764 65.1362Z" fill="#FFFFFE"/>
<path fill-rule="evenodd" clip-rule="evenodd" d="M9.43276 73.8249C11.0388 72.4347 9.08126 69.8301 7.22045 69.8755C8.16501 70.9846 9.65261 71.5514 9.43276 73.8249ZM6.43058 69.2436C8.87129 68.4544 11.2014 70.7635 10.6959 73.3509C10.0508 76.6592 4.91732 74.9636 4.85149 71.7712C4.83372 70.9208 5.06739 69.6846 6.43058 69.2436Z" fill="black"/>
<path fill-rule="evenodd" clip-rule="evenodd" d="M7.2207 69.8755C9.08151 69.8301 11.0391 72.4347 9.43301 73.8249C9.65285 71.5513 8.16526 70.9846 7.2207 69.8755Z" fill="#FFFFFE"/>
<path fill-rule="evenodd" clip-rule="evenodd" d="M15.7511 79.196C17.1545 79.7937 18.4907 80.4585 18.4367 82.5135C19.9493 80.9785 17.0972 78.3785 15.7511 79.196ZM15.1192 78.2482C17.5376 77.5511 20.2435 79.718 19.5425 82.5135C18.5835 86.3384 12.3474 82.8887 13.5395 79.512C13.7067 79.04 14.305 78.4825 15.1192 78.2482Z" fill="black"/>
<path fill-rule="evenodd" clip-rule="evenodd" d="M18.4375 82.5135C18.4915 80.4585 17.1553 79.7937 15.752 79.196C17.098 78.3785 19.9501 80.9785 18.4375 82.5135Z" fill="#FFFFFE"/>
<path fill-rule="evenodd" clip-rule="evenodd" d="M25.2306 88.0426C27.3363 87.9899 28.1492 89.2307 28.864 90.5695C29.4512 88.71 26.8176 87.2007 25.2306 88.0426ZM29.4959 91.36C27.3547 94.1819 22.9242 91.7003 23.4922 88.6745C24.1195 85.3359 30.7525 86.971 29.4959 91.36Z" fill="black"/>
<path fill-rule="evenodd" clip-rule="evenodd" d="M28.8639 90.5695C28.1491 89.2307 27.3361 87.9899 25.2305 88.0426C26.8175 87.2007 29.451 88.71 28.8639 90.5695Z" fill="#FFFFFE"/>
<path fill-rule="evenodd" clip-rule="evenodd" d="M65.0402 92.1499C63.677 92.6304 62.2348 93.0313 61.88 94.5189C61.3377 92.8365 63.4433 91.7056 65.0402 92.1499Z" fill="#FFFFFE"/>
<path fill-rule="evenodd" clip-rule="evenodd" d="M37.7102 94.2036C38.6956 94.378 40.8256 94.7723 41.3436 95.9413C41.1014 94.484 39.3518 93.7395 37.7102 94.2036ZM37.8675 93.5717C40.1048 93.078 42.4554 94.3484 42.2908 96.7312C42.065 100.005 36.1107 99.5899 35.9718 95.9413C35.935 94.9606 36.1173 93.9581 37.8675 93.5717Z" fill="black"/>
<path fill-rule="evenodd" clip-rule="evenodd" d="M49.8739 96.2573C50.8724 95.0665 53.7522 94.4287 55.087 95.7827C54.4038 93.7481 50.1977 94.1318 49.8739 96.2573ZM53.192 93.887C54.7876 93.9271 55.7453 94.7427 55.8776 95.9413C56.2765 99.5708 50.1905 100.091 49.5579 97.2045C49.0037 94.6762 50.9323 93.8317 53.192 93.887Z" fill="black"/>
<path fill-rule="evenodd" clip-rule="evenodd" d="M41.3444 95.9413C40.8263 94.7723 38.6963 94.378 37.7109 94.2036C39.3526 93.7395 41.1021 94.484 41.3444 95.9413Z" fill="#FFFFFE"/>
<path fill-rule="evenodd" clip-rule="evenodd" d="M55.0872 95.7827C53.7523 94.4287 50.8726 95.0665 49.874 96.2573C50.1979 94.1318 54.4039 93.7481 55.0872 95.7827Z" fill="#FFFFFE"/>
<path fill-rule="evenodd" clip-rule="evenodd" d="M57.1419 47.1271C57.0984 47.6636 57.2636 48.408 56.9832 48.7069C56.0722 48.955 54.9368 48.6937 53.9817 49.1808C54.4543 50.0773 55.7701 50.1306 56.1933 51.0765C54.3753 54.4637 49.7098 52.8109 49.8744 48.8649C49.9422 47.2423 50.8446 45.4177 51.928 45.2314C53.4874 44.9635 55.2797 46.8606 57.1419 47.1271Z" fill="black"/>
</g>
<defs>
<clipPath id="clip0_2349_17202">
<rect width="94.4667" height="104" fill="white" transform="translate(0.200195)"/>
</clipPath>
</defs>
</svg>
