<?xml version="1.0" encoding="UTF-8" standalone="no"?>
<svg
   width="105.90624"
   height="101.55679"
   viewBox="0 0 105.90624 101.55679"
   version="1.1"
   id="svg1"
   sodipodi:docname="WSU.svg"
   inkscape:version="1.4 (86a8ad7, 2024-10-11)"
   xmlns:inkscape="http://www.inkscape.org/namespaces/inkscape"
   xmlns:sodipodi="http://sodipodi.sourceforge.net/DTD/sodipodi-0.dtd"
   xmlns="http://www.w3.org/2000/svg"
   xmlns:svg="http://www.w3.org/2000/svg"
   xmlns:rdf="http://www.w3.org/1999/02/22-rdf-syntax-ns#"
   xmlns:cc="http://creativecommons.org/ns#"
   xmlns:dc="http://purl.org/dc/elements/1.1/">
  <defs
     id="defs1" />
  <sodipodi:namedview
     id="namedview1"
     pagecolor="#ffffff"
     bordercolor="#000000"
     borderopacity="0.25"
     inkscape:showpageshadow="2"
     inkscape:pageopacity="0.0"
     inkscape:pagecheckerboard="0"
     inkscape:deskcolor="#d1d1d1"
     inkscape:zoom="11.407767"
     inkscape:cx="53.034043"
     inkscape:cy="50.974043"
     inkscape:window-width="3440"
     inkscape:window-height="1377"
     inkscape:window-x="-8"
     inkscape:window-y="-8"
     inkscape:window-maximized="1"
     inkscape:current-layer="svg1" />
  <!-- Generator: Sketch 63.1 (92452) - https://sketch.com -->
  <title
     id="title1">crimson white outline cougar head</title>
  <desc
     id="desc1">Created with Sketch.</desc>
  <path
     d="m 86.518083,82.751683 c -14.49008,2.0064 -16.98576,-28.401121 -16.98576,-28.401121 0,0 4.87344,15.558401 15.21696,15.019841 10.71488,-0.56496 7.68416,-17.057921 7.68416,-17.057921 0,0 10.420957,28.188161 -5.91536,30.439201 z m -13.05392,6.1688 c 2.39536,5.00192 1.76528,10.144641 1.76528,10.144641 -2.19296,0.498076 -9.445921,0.18128 -9.445921,0.18128 0,0 4.966721,-2.11552 7.680641,-10.325921 z m -14.977601,9.655361 c -0.03696,0.007 -0.07392,0.01056 -0.11088,0.01408 -1.15808,0.14784 -2.38832,0.20592 -3.69248,0.176 -0.044,-0.0035 -0.088,-0.0035 -0.13024,-0.007 -0.1408,-0.0035 -0.28512,-0.01584 -0.42768,-0.0176 -0.55264,-0.03696 -1.10176,-0.088 -1.6456,-0.16544 -5.55104,-0.76208 -17.992481,-3.018401 -30.836961,-3.33696 7.55568,-4.407041 13.46752,-12.047201 16.764,-17.460961 0.19536,1.49776 0.35376,3.33168 0.35376,5.34512 0,1.00848 -0.04048,2.0592 -0.13376,3.13808 l -0.12848,1.47664 1.47312,0.12848 c 5.913601,0.51392 10.111201,-0.61424 12.837441,-3.44256 3.35632,-3.48656 4.3912,-9.3104 3.25952,-18.330401 -0.49632,-3.96 -1.92368,-10.09712 -3.1856,-15.51088 -0.63008,-2.70864 -1.22672,-5.26944 -1.58224,-7.05232 -2.12608,-10.656801 0.4136,-17.130081 2.91632,-20.680001 1.9624,-2.78432 4.66576,-4.81888 7.63136,-5.79744 0.05104,-0.0088 0.10384,-0.01936 0.1584,-0.03168 l 4.8752,-14.9828809 h 1.53296 l -3.28416,14.4020809 c 0.76384,-0.132 1.53472,-0.25696 2.32496,-0.37488 L 71.661923,2.7825601 h 1.52416 l -2.75264,12.8656009 c 4.34896,-0.56496 9.08864,-1.00144 14.32816,-1.38864 0.85536,0.35024 1.77232,1.32704 2.5784,2.70336 l 13.763197,-4.24512 0.5104,1.48368 -13.152477,5.1128 c 0.1056,0.26928 0.20064,0.54736 0.29744,0.83248 l 14.384477,-1.78992 0.23936,1.5488 -13.963837,2.78784 c 0.04752,0.25872 0.09328,0.5192 0.132,0.7832 l 14.525277,0.45936 -0.0106,1.5664 -14.303517,0.60544 c 0.01232,1.68432 -0.21472,3.38976 -0.76384,5.00016 1.33936,5.83968 0.41712,9.011201 0.41712,9.011201 -2.39712,-5.566881 -4.22224,-7.113921 -4.22224,-7.113921 -13.13664,-5.8432 -20.507521,7.360321 -19.726081,15.873441 0.64592,7.00128 3.183841,16.28176 5.165601,30.845761 1.66848,12.2584 -4.533761,17.557761 -11.681121,18.777441 -0.15488,0.02464 -0.30624,0.05456 -0.46464,0.07392 z M 13.717441,95.319843 c -0.0088,0 -0.01408,0 -0.0264,0 6.05968,-9.29808 6.19872,-19.49904 6.19872,-19.49904 -4.984321,1.67728 -13.9462408,3.29472 -13.9462408,3.29472 0,0 8.2825608,-6.27264 14.4777608,-25.627361 l 5.95408,5.39088 -1.12112,3.68896 c 0,0 2.83184,4.05856 3.54464,6.809441 0,0 3.9248,-7.531041 -0.37312,-15.588321 l -0.77792,2.24752 -2.33552,-2.11552 -4.00752,-3.65376 c 0,0 1.83216,-6.3448 7.4712,-14.092321 l 0.53328,0.59312 4.59008,5.327521 -1.3904,2.32496 c 0,0 3.168,3.31056 5.84144,7.39376 0,0 1.409761,-6.7584 -0.55264,-14.090561 l -2.08032,1.94656 -5.09168,-5.91008 c 7.23888,-7.22832 14.252481,-11.60544 22.616001,-14.41968 -0.51216,0.56848 -0.99616,1.16688 -1.44672,1.80224 -2.83712,4.02512 -5.73056,11.27808 -3.39856,22.968001 0.36608,1.82864 0.96624,4.41056 1.6016,7.14384 1.24432,5.34336 2.65584,11.39952 3.13104,15.20816 0.99792,7.949921 0.19712,13.152481 -2.4552,15.905121 -1.85328,1.92544 -4.82592,2.76848 -8.998881,2.61184 0.02992,-0.64592 0.04752,-1.28128 0.04752,-1.89904 0,-5.59328 -1.12112,-9.82432 -1.18096,-10.03552 l -1.03664,-3.84384 -1.72656,3.58864 c -2.72096,5.66368 -11.97504,19.77888 -24.06096,22.52976 z m 76.903202,-47.907201 0.11792,0.64592 c 0.45056,2.4816 0.61072,13.48336 -2.00288,16.78688 -1.04016,1.31648 -2.49744,2.060961 -4.21344,2.150721 -8.46384,0.44176 -13.95328,-14.326401 -14.893121,-19.467361 -0.3872,-2.12432 -0.41008,-8.3424 4.090241,-11.570241 3.0448,-2.18416 5.96288,-2.36896 10.0584,-0.64064 1.64912,1.41504 5.2712,8.587041 6.0192,10.769441 2.60128,-4.479201 2.57664,-10.007361 1.56992,-14.893121 0.30096,-1.01024 0.5016,-2.06096 0.60544,-3.12928 0.30096,-0.01056 13.933917,-0.51568 13.933917,-0.51568 l -0.0862,-5.14272 c 0,0 -3.81392,-0.14784 -5.864316,-0.22704 1.957116,-0.33792 5.420796,-0.93984 5.420796,-0.93984 l -0.66352,-4.77488 c 0,0 -4.35248,0.47696 -6.203996,0.68112 1.659676,-0.6424 5.211356,-2.0152 5.211356,-2.0152 l -1.67552,-4.628801 -0.16544,0.05104 c -0.11616,0.03168 -11.332637,3.296481 -13.703357,4.019841 -0.72336,-0.94512 -1.7688,-2.1912 -2.83184,-2.62592 l -0.044,-0.0176 -0.044,0.0035 c -0.08448,0.007 -8.54128,0.69168 -12.05952,1.0824 0.10032,-0.48048 2.67872,-12.974721 2.67872,-12.974721 L 70.878763,0.02286 69.261322,5.0230202 70.363083,0.01934 65.408682,-2e-5 l -0.044,0.12496 c 0,0 -5.07936,14.518241 -5.14448,14.706561 -20.349121,4.52672 -28.591201,13.94976 -31.697601,17.50144 l -0.18128,0.20592 c -4.60768,5.26064 -7.65952,11.994401 -9.41072,16.716481 C 11.20064,70.104323 9.4617604,72.036803 1.09648,81.329603 L 0,82.545763 0.53504002,82.447203 c 0.11792,-0.02112 11.65999998,-2.14896 16.74112098,-3.50944 -0.5192,3.93184 -1.64736,9.68352 -5.288801,15.271521 l -2.7438397,4.20992 0.44176,-0.10032 c 5.2131197,-1.13872 11.8430407,-1.04544 11.9081607,-1.04368 10.36288,0.2552 20.29984,1.76352 26.876961,2.764956 19.641601,2.61888 29.059361,1.05424 29.152641,1.04016 l 0.13024,-0.0229 0.02112,-0.132 c 0.16192,-1.03312 0.25872,-2.207036 0.25872,-3.465436 0,-4.039201 -0.9856,-8.923201 -3.83856,-12.726561 -0.10736,-2.36368 -0.35552,-4.66224 -1.18272,-8.5712 1.3112,2.948 2.77024,4.5584 5.01776,6.43104 2.42176,2.01872 5.45776,2.84416 8.78064,2.38304 4.0832,-0.5632 7.937601,-3.16976 9.36496,-6.336 4.926237,-10.92608 -0.714559,-25.819201 -5.11808,-30.740161 l -0.43648,-0.48752 z"
     id="Fill-1"
     fill="#fffffe"
     style="fill-rule:evenodd;stroke:none;stroke-width:1;fill:#ffffff" />
  <path
     d="m 70.545845,25.023899 c 1.17216,0.09152 2.16128,-0.21648 0.90288,-0.88 -3.44608,-1.81984 -11.471681,-1.20384 -14.312321,0.7392 -4.54256,3.10288 -3.78048,8.624 -3.66608,8.76304 0.90464,-1.58752 2.4464,-3.82096 4.68864,-5.3944 2.88816,-2.024 7.789761,-3.57808 12.386881,-3.22784"
     id="Fill-3"
     fill="#fffffe"
     style="fill-rule:evenodd;stroke:none;stroke-width:1" />
  <path
     d="m 75.229443,99.065124 c 0,0 0.63008,-5.142721 -1.76528,-10.144641 -2.71392,8.210401 -7.680641,10.325921 -7.680641,10.325921 0,0 7.252961,0.316796 9.445921,-0.18128 z"
     id="Fill-4"
     fill="#981e32"
     style="fill-rule:evenodd;stroke:none;stroke-width:1" />
  <path
     d="m 84.749283,69.370403 c -10.34352,0.53856 -15.21696,-15.019841 -15.21696,-15.019841 0,0 2.49568,30.407521 16.98576,28.401121 16.336317,-2.25104 5.91536,-30.439201 5.91536,-30.439201 0,0 3.03072,16.492961 -7.68416,17.057921"
     id="Fill-5"
     fill="#981e32"
     style="fill-rule:evenodd;stroke:none;stroke-width:1" />
  <path
     d="m 37.778401,72.790083 1.72656,-3.58864 1.03664,3.84384 c 0.05984,0.2112 1.18096,4.44224 1.18096,10.03552 0,0.61776 -0.0176,1.25312 -0.04752,1.89904 4.172961,0.15664 7.145601,-0.6864 8.998881,-2.61184 2.65232,-2.75264 3.45312,-7.9552 2.4552,-15.905121 -0.4752,-3.80864 -1.88672,-9.8648 -3.13104,-15.20816 -0.63536,-2.73328 -1.23552,-5.3152 -1.6016,-7.14384 -2.332,-11.689921 0.56144,-18.942881 3.39856,-22.968001 0.45056,-0.63536 0.93456,-1.23376 1.44672,-1.80224 -8.36352,2.81424 -15.377121,7.19136 -22.616001,14.41968 l 5.09168,5.91008 2.08032,-1.94656 c 1.962401,7.332161 0.55264,14.090561 0.55264,14.090561 -2.67344,-4.0832 -5.84144,-7.39376 -5.84144,-7.39376 l 1.3904,-2.32496 -4.59008,-5.327521 -0.53328,-0.59312 c -5.63904,7.747521 -7.4712,14.092321 -7.4712,14.092321 l 4.00752,3.65376 2.33552,2.11552 0.77792,-2.24752 c 4.29792,8.05728 0.37312,15.588321 0.37312,15.588321 -0.7128,-2.750881 -3.54464,-6.809441 -3.54464,-6.809441 l 1.12112,-3.68896 -5.95408,-5.39088 c -6.1952,19.354721 -14.4777608,25.627361 -14.4777608,25.627361 0,0 8.9619198,-1.61744 13.9462408,-3.29472 0,0 -0.13904,10.20096 -6.19872,19.49904 0.01232,0 0.0176,0 0.0264,0 12.08592,-2.75088 21.34,-16.86608 24.06096,-22.52976"
     id="Fill-6"
     fill="#981e32"
     style="fill-rule:evenodd;stroke:none;stroke-width:1" />
  <path
     d="m 75.016483,28.705601 c -4.59712,-0.35024 -9.498721,1.20384 -12.386881,3.22784 -2.24224,1.57344 -3.784,3.80688 -4.68864,5.3944 -0.1144,-0.13904 -0.87648,-5.66016 3.66608,-8.76304 2.84064,-1.94304 10.866241,-2.55904 14.312321,-0.7392 1.2584,0.66352 0.26928,0.97152 -0.90288,0.88 z m 14.53408,-5.22896 c -0.03872,-0.264 -0.08448,-0.52448 -0.132,-0.7832 l 13.963837,-2.78784 -0.23936,-1.5488 -14.384477,1.78992 c -0.0968,-0.28512 -0.19184,-0.5632 -0.29744,-0.83248 l 13.152477,-5.1128 -0.5104,-1.48368 -13.763197,4.24512 c -0.80608,-1.37632 -1.72304,-2.35312 -2.5784,-2.70336 -5.23952,0.3872 -9.9792,0.82368 -14.32816,1.38864 l 2.75264,-12.8656009 h -1.52416 L 67.455522,16.065281 c -0.79024,0.11792 -1.56112,0.24288 -2.32496,0.37488 l 3.28416,-14.4020809 h -1.53296 l -4.8752,14.9828809 c -0.05456,0.01232 -0.10736,0.02288 -0.1584,0.03168 -2.9656,0.97856 -5.66896,3.01312 -7.63136,5.79744 -2.50272,3.54992 -5.0424,10.0232 -2.91632,20.680001 0.35552,1.78288 0.95216,4.34368 1.58224,7.05232 1.26192,5.41376 2.68928,11.55088 3.1856,15.51088 1.13168,9.020001 0.0968,14.843841 -3.25952,18.330401 -2.72624,2.82832 -6.92384,3.95648 -12.837441,3.44256 l -1.47312,-0.12848 0.12848,-1.47664 c 0.09328,-1.07888 0.13376,-2.1296 0.13376,-3.13808 0,-2.01344 -0.1584,-3.84736 -0.35376,-5.34512 -3.29648,5.41376 -9.20832,13.05392 -16.764,17.460961 12.84448,0.318559 25.285921,2.57488 30.836961,3.33696 0.54384,0.07744 1.09296,0.12848 1.6456,0.16544 0.14256,0.0018 0.28688,0.01408 0.42768,0.0176 0.04224,0.0035 0.08624,0.0035 0.13024,0.007 1.30416,0.02992 2.5344,-0.02816 3.69248,-0.176 0.03696,-0.0035 0.07392,-0.007 0.11088,-0.01408 0.1584,-0.01936 0.30976,-0.04928 0.46464,-0.07392 7.14736,-1.21968 13.349601,-6.519041 11.681121,-18.777441 -1.98176,-14.564001 -4.519681,-23.844481 -5.165601,-30.845761 -0.78144,-8.51312 6.589441,-21.716641 19.726081,-15.873441 0,0 1.82512,1.54704 4.22224,7.113921 0,0 0.92224,-3.171521 -0.41712,-9.011201 0.54912,-1.6104 0.77616,-3.31584 0.76384,-5.00016 l 14.303517,-0.60544 0.0106,-1.5664 -14.525277,-0.45936 z"
     id="Fill-7"
     fill="#981e32"
     style="fill-rule:evenodd;stroke:none;stroke-width:1" />
  <metadata
     id="metadata1">
    <rdf:RDF>
      <cc:Work
         rdf:about="">
        <dc:title>crimson white outline cougar head</dc:title>
      </cc:Work>
    </rdf:RDF>
  </metadata>
</svg>
