<svg xmlns="http://www.w3.org/2000/svg" viewBox="0 0 200 200" width="200" height="200">
	<style>
		tspan { white-space:pre }
		.shp0 { fill: #040707 } 
		.shp1 { fill: #ffffff } 
		.shp2 { fill: #1a85c8 } 
	</style>
	<g>
		<path class="shp0" d="M96.1 0.14C95.25 0.19 93.69 0.3 92.63 0.37C91.58 0.44 89.96 0.59 89.04 0.69C88.12 0.79 86.39 1.02 85.2 1.19C84.01 1.36 82.17 1.67 81.11 1.88C80.06 2.08 78.28 2.46 77.15 2.72C76.03 2.98 74.11 3.48 72.88 3.82C71.65 4.17 69.48 4.85 68.05 5.33C66.62 5.81 64.42 6.62 63.16 7.12C61.9 7.62 59.92 8.46 58.76 8.98C57.6 9.51 56.04 10.24 55.29 10.62C54.54 11 53.1 11.76 52.07 12.32C51.05 12.89 49.44 13.82 48.48 14.39C47.53 14.97 46.11 15.85 45.33 16.36C44.54 16.87 43.09 17.87 42.11 18.57C41.12 19.28 39.7 20.33 38.95 20.91C38.2 21.5 36.94 22.5 36.16 23.15C35.38 23.8 34.24 24.77 33.62 25.32C33.01 25.86 31.46 27.34 30.17 28.6C28.88 29.86 27.16 31.62 26.35 32.51C25.53 33.39 24.21 34.9 23.41 35.85C22.62 36.8 21.49 38.2 20.91 38.95C20.33 39.7 19.28 41.12 18.57 42.11C17.87 43.09 16.87 44.54 16.36 45.33C15.85 46.11 14.97 47.53 14.39 48.48C13.82 49.44 12.89 51.05 12.32 52.07C11.76 53.1 11 54.54 10.62 55.29C10.24 56.04 9.51 57.6 8.98 58.76C8.46 59.92 7.62 61.9 7.12 63.16C6.62 64.42 5.81 66.62 5.33 68.05C4.85 69.48 4.17 71.65 3.82 72.88C3.48 74.11 2.98 76.03 2.72 77.15C2.46 78.28 2.08 80.06 1.88 81.11C1.67 82.17 1.36 84.01 1.19 85.2C1.02 86.39 0.79 88.12 0.69 89.04C0.59 89.96 0.45 91.46 0.38 92.38C0.31 93.3 0.19 95.42 0.1 97.09C-0.02 99.49 -0.02 100.73 0.11 103.03C0.19 104.63 0.31 106.7 0.38 107.62C0.45 108.54 0.59 110.04 0.69 110.96C0.79 111.88 1.02 113.61 1.19 114.8C1.36 115.99 1.67 117.83 1.88 118.89C2.08 119.94 2.46 121.72 2.72 122.85C2.98 123.97 3.48 125.89 3.82 127.12C4.17 128.35 4.85 130.52 5.33 131.95C5.81 133.38 6.62 135.58 7.12 136.84C7.62 138.1 8.46 140.08 8.98 141.24C9.51 142.4 10.24 143.96 10.62 144.71C11 145.46 11.76 146.9 12.32 147.93C12.89 148.95 13.82 150.56 14.39 151.52C14.97 152.47 15.85 153.89 16.36 154.67C16.87 155.46 17.87 156.91 18.57 157.89C19.28 158.88 20.33 160.3 20.91 161.05C21.49 161.8 22.62 163.2 23.41 164.15C24.21 165.1 25.53 166.61 26.35 167.49C27.16 168.38 28.88 170.14 30.17 171.4C31.46 172.66 33.01 174.14 33.62 174.68C34.24 175.23 35.38 176.2 36.16 176.85C36.94 177.5 38.2 178.5 38.95 179.09C39.7 179.67 41.12 180.72 42.11 181.43C43.09 182.13 44.54 183.13 45.33 183.64C46.11 184.15 47.53 185.03 48.48 185.61C49.44 186.18 51.05 187.11 52.07 187.68C53.1 188.24 54.54 189 55.29 189.38C56.04 189.76 57.6 190.49 58.76 191.02C59.92 191.54 61.9 192.38 63.16 192.88C64.42 193.38 66.62 194.19 68.05 194.67C69.48 195.15 71.65 195.83 72.88 196.18C74.11 196.52 76.03 197.02 77.15 197.28C78.28 197.54 79.93 197.9 80.84 198.07C81.74 198.25 83.16 198.5 83.99 198.63C84.83 198.76 86.4 198.99 87.49 199.12C88.58 199.26 90.11 199.43 90.9 199.5C91.68 199.57 93.72 199.71 95.42 199.81C97.12 199.92 99.18 200 100 200C100.82 200 102.88 199.92 104.58 199.81C106.28 199.71 108.32 199.57 109.1 199.5C109.89 199.43 111.42 199.26 112.51 199.12C113.6 198.99 115.17 198.76 116.01 198.63C116.84 198.5 118.26 198.25 119.16 198.07C120.07 197.9 121.72 197.54 122.85 197.28C123.97 197.02 125.89 196.52 127.12 196.18C128.35 195.83 130.52 195.15 131.95 194.67C133.38 194.19 135.58 193.38 136.84 192.88C138.1 192.38 140.08 191.54 141.24 191.02C142.4 190.49 143.96 189.76 144.71 189.38C145.46 189 146.9 188.24 147.93 187.68C148.95 187.11 150.56 186.18 151.52 185.61C152.47 185.03 153.89 184.15 154.67 183.64C155.46 183.13 156.91 182.13 157.89 181.43C158.88 180.72 160.3 179.67 161.05 179.09C161.8 178.5 163.06 177.5 163.84 176.85C164.62 176.2 165.76 175.23 166.38 174.68C166.99 174.14 168.54 172.66 169.83 171.4C171.12 170.14 172.84 168.38 173.65 167.49C174.47 166.61 175.79 165.1 176.59 164.15C177.38 163.2 178.51 161.8 179.09 161.05C179.67 160.3 180.72 158.88 181.43 157.89C182.13 156.91 183.13 155.46 183.64 154.67C184.15 153.89 185.03 152.47 185.61 151.52C186.18 150.56 187.11 148.95 187.68 147.93C188.24 146.9 189 145.46 189.38 144.71C189.76 143.96 190.49 142.4 191.02 141.24C191.54 140.08 192.38 138.1 192.88 136.84C193.38 135.58 194.19 133.38 194.67 131.95C195.15 130.52 195.83 128.35 196.18 127.12C196.52 125.89 197.02 123.97 197.28 122.85C197.54 121.72 197.92 119.94 198.12 118.89C198.33 117.83 198.64 115.99 198.81 114.8C198.98 113.61 199.21 111.88 199.31 110.96C199.41 110.04 199.55 108.54 199.62 107.62C199.69 106.7 199.81 104.58 199.9 102.91C200.02 100.51 200.02 99.27 199.89 96.97C199.81 95.37 199.69 93.3 199.62 92.38C199.55 91.46 199.41 89.96 199.31 89.04C199.21 88.12 198.98 86.39 198.81 85.2C198.64 84.01 198.33 82.17 198.12 81.11C197.92 80.06 197.54 78.28 197.28 77.15C197.02 76.03 196.52 74.11 196.18 72.88C195.83 71.65 195.15 69.48 194.67 68.05C194.19 66.62 193.38 64.42 192.88 63.16C192.38 61.9 191.54 59.92 191.02 58.76C190.49 57.6 189.76 56.04 189.38 55.29C189 54.54 188.24 53.1 187.68 52.07C187.11 51.05 186.18 49.44 185.61 48.48C185.03 47.53 184.15 46.11 183.64 45.33C183.13 44.54 182.13 43.09 181.43 42.11C180.72 41.12 179.67 39.7 179.09 38.95C178.5 38.2 177.5 36.94 176.85 36.16C176.2 35.38 175.23 34.24 174.68 33.62C174.14 33.01 172.66 31.46 171.4 30.17C170.14 28.88 168.38 27.16 167.49 26.35C166.61 25.53 165.1 24.21 164.15 23.41C163.2 22.62 161.8 21.49 161.05 20.91C160.3 20.33 158.88 19.28 157.89 18.57C156.91 17.87 155.46 16.87 154.67 16.36C153.89 15.85 152.47 14.97 151.52 14.39C150.56 13.82 148.95 12.89 147.93 12.32C146.9 11.76 145.46 11 144.71 10.62C143.96 10.24 142.4 9.51 141.24 8.98C140.08 8.46 138.1 7.62 136.84 7.12C135.58 6.62 133.38 5.81 131.95 5.33C130.52 4.85 128.35 4.17 127.12 3.82C125.89 3.48 123.97 2.98 122.85 2.72C121.72 2.46 120.07 2.1 119.16 1.93C118.26 1.75 116.84 1.5 116.01 1.37C115.17 1.24 113.6 1.01 112.51 0.88C111.42 0.74 109.89 0.57 109.1 0.5C108.32 0.43 106.28 0.29 104.58 0.19C102.88 0.08 100.62 0.01 99.57 0.02C98.51 0.03 96.95 0.08 96.1 0.14Z"/>
		<path class="shp1" d="M95.17 6.21C94.08 6.26 92.27 6.4 91.15 6.5C90.02 6.61 87.93 6.87 86.5 7.07C85.07 7.27 82.81 7.66 81.49 7.93C80.16 8.19 78.1 8.66 76.9 8.96C75.71 9.27 73.79 9.8 72.63 10.16C71.47 10.51 69.44 11.19 68.11 11.67C66.78 12.15 64.72 12.96 63.53 13.46C62.34 13.97 60.39 14.86 59.2 15.43C58 16.01 56.25 16.91 55.29 17.43C54.34 17.95 52.86 18.79 52.01 19.3C51.16 19.8 49.6 20.78 48.54 21.48C47.49 22.17 45.9 23.26 45.02 23.9C44.13 24.55 42.46 25.83 41.3 26.76C40.14 27.69 38.39 29.18 37.4 30.06C36.41 30.95 34.56 32.72 33.29 34.01C32.02 35.3 30.41 36.99 29.72 37.77C29.02 38.55 27.69 40.14 26.76 41.3C25.83 42.46 24.55 44.13 23.9 45.02C23.26 45.9 22.17 47.49 21.48 48.54C20.78 49.6 19.8 51.16 19.3 52.01C18.79 52.86 17.95 54.34 17.43 55.29C16.91 56.25 16.01 58 15.43 59.2C14.86 60.39 13.97 62.34 13.46 63.53C12.96 64.72 12.15 66.78 11.67 68.11C11.19 69.44 10.51 71.47 10.16 72.63C9.8 73.79 9.27 75.71 8.96 76.9C8.66 78.1 8.19 80.16 7.93 81.49C7.66 82.81 7.27 85.07 7.07 86.5C6.87 87.93 6.61 90.02 6.51 91.15C6.4 92.27 6.26 94.28 6.19 95.6C6.13 96.93 6.07 98.91 6.07 100C6.07 101.09 6.13 103.07 6.19 104.4C6.26 105.72 6.4 107.73 6.51 108.85C6.61 109.98 6.87 112.07 7.07 113.5C7.27 114.93 7.66 117.19 7.93 118.51C8.19 119.84 8.66 121.9 8.96 123.1C9.27 124.29 9.8 126.21 10.16 127.37C10.51 128.53 11.19 130.56 11.67 131.89C12.15 133.22 12.96 135.28 13.46 136.47C13.97 137.66 14.86 139.61 15.43 140.8C16.01 142 16.91 143.75 17.43 144.71C17.95 145.66 18.93 147.36 19.61 148.48C20.29 149.61 21.29 151.2 21.84 152.01C22.38 152.83 23.33 154.2 23.95 155.05C24.57 155.9 25.83 157.54 26.76 158.7C27.69 159.86 29.02 161.45 29.72 162.23C30.41 163.01 32.02 164.7 33.29 165.99C34.56 167.27 36.41 169.05 37.4 169.93C38.39 170.82 40.14 172.31 41.3 173.24C42.46 174.17 44.1 175.43 44.95 176.05C45.8 176.67 47.17 177.62 47.99 178.16C48.8 178.71 50.28 179.65 51.27 180.25C52.26 180.85 53.79 181.74 54.67 182.23C55.56 182.72 57.09 183.53 58.08 184.02C59.07 184.52 60.68 185.29 61.67 185.73C62.66 186.17 64.28 186.85 65.26 187.25C66.25 187.64 67.84 188.24 68.79 188.58C69.75 188.92 71.47 189.49 72.63 189.84C73.79 190.2 75.71 190.73 76.9 191.04C78.1 191.34 80.16 191.81 81.49 192.07C82.81 192.34 85.07 192.73 86.5 192.93C87.93 193.13 90.02 193.39 91.15 193.49C92.27 193.6 94.28 193.74 95.6 193.81C96.93 193.87 98.91 193.93 100 193.93C101.09 193.93 103.07 193.87 104.4 193.81C105.72 193.74 107.73 193.6 108.85 193.49C109.98 193.39 112.07 193.13 113.5 192.93C114.93 192.73 117.19 192.34 118.51 192.07C119.84 191.81 121.9 191.34 123.1 191.04C124.29 190.73 126.21 190.2 127.37 189.84C128.53 189.49 130.25 188.92 131.21 188.58C132.16 188.24 133.75 187.64 134.74 187.25C135.72 186.85 137.34 186.17 138.33 185.73C139.32 185.29 140.93 184.52 141.92 184.02C142.91 183.53 144.44 182.72 145.33 182.23C146.21 181.74 147.74 180.85 148.73 180.25C149.72 179.65 151.2 178.71 152.01 178.16C152.83 177.62 154.2 176.67 155.05 176.05C155.9 175.43 157.54 174.17 158.7 173.24C159.86 172.31 161.61 170.82 162.6 169.93C163.59 169.05 165.44 167.27 166.71 165.99C167.98 164.7 169.59 163.01 170.28 162.23C170.98 161.45 172.31 159.86 173.24 158.7C174.17 157.54 175.43 155.9 176.05 155.05C176.67 154.2 177.62 152.83 178.16 152.01C178.71 151.2 179.65 149.72 180.25 148.73C180.85 147.74 181.74 146.21 182.23 145.33C182.72 144.44 183.53 142.91 184.02 141.92C184.52 140.93 185.29 139.32 185.73 138.33C186.17 137.34 186.85 135.72 187.25 134.74C187.64 133.75 188.24 132.16 188.58 131.21C188.92 130.25 189.49 128.53 189.84 127.37C190.2 126.21 190.73 124.29 191.04 123.1C191.34 121.9 191.81 119.84 192.07 118.51C192.34 117.19 192.73 114.93 192.93 113.5C193.13 112.07 193.39 109.98 193.49 108.85C193.6 107.73 193.74 105.72 193.81 104.4C193.87 103.07 193.93 101.09 193.93 100C193.93 98.91 193.87 96.93 193.81 95.6C193.74 94.28 193.6 92.27 193.49 91.15C193.39 90.02 193.13 87.93 192.93 86.5C192.73 85.07 192.34 82.81 192.07 81.49C191.81 80.16 191.34 78.1 191.04 76.9C190.73 75.71 190.2 73.79 189.84 72.63C189.49 71.47 188.81 69.44 188.33 68.11C187.85 66.78 187.04 64.72 186.54 63.53C186.03 62.34 185.14 60.39 184.57 59.2C183.99 58 183.09 56.25 182.57 55.29C182.05 54.34 181.21 52.86 180.7 52.01C180.2 51.16 179.22 49.6 178.52 48.54C177.83 47.49 176.74 45.9 176.1 45.02C175.45 44.13 174.17 42.46 173.24 41.3C172.31 40.14 170.98 38.55 170.28 37.77C169.59 36.99 167.98 35.3 166.71 34.01C165.44 32.72 163.59 30.95 162.6 30.06C161.61 29.18 159.86 27.69 158.7 26.76C157.54 25.83 155.87 24.55 154.98 23.9C154.1 23.26 152.51 22.17 151.46 21.48C150.4 20.78 148.84 19.8 147.99 19.3C147.14 18.79 145.66 17.95 144.71 17.43C143.75 16.91 142 16.01 140.8 15.43C139.61 14.86 137.66 13.97 136.47 13.46C135.28 12.96 133.22 12.15 131.89 11.67C130.56 11.19 128.53 10.51 127.37 10.16C126.21 9.8 124.29 9.27 123.1 8.96C121.9 8.66 119.84 8.19 118.51 7.93C117.19 7.66 114.93 7.27 113.5 7.07C112.07 6.87 109.98 6.61 108.85 6.51C107.73 6.4 105.72 6.26 104.4 6.19C103.07 6.13 100.89 6.08 99.57 6.09C98.24 6.1 96.26 6.15 95.17 6.21Z"/>
		<path class="shp0" d="M95.85 8.19C94.52 8.25 92.32 8.4 90.96 8.54C89.6 8.68 87.7 8.91 86.75 9.05C85.8 9.19 84.26 9.44 83.34 9.61C82.42 9.78 80.78 10.12 79.69 10.36C78.6 10.6 76.65 11.1 75.36 11.46C74.06 11.82 72.06 12.43 70.9 12.82C69.74 13.21 67.87 13.89 66.75 14.32C65.63 14.76 63.93 15.47 62.97 15.88C62.02 16.3 60.07 17.24 58.64 17.96C57.21 18.68 55.28 19.71 54.37 20.24C53.45 20.77 51.86 21.74 50.84 22.39C49.81 23.03 47.98 24.28 46.75 25.15C45.52 26.03 43.87 27.26 43.08 27.89C42.29 28.52 40.95 29.63 40.11 30.36C39.26 31.08 37.78 32.42 36.81 33.33C35.85 34.24 34.29 35.79 33.36 36.78C32.43 37.77 31.08 39.26 30.36 40.11C29.63 40.95 28.52 42.29 27.89 43.08C27.26 43.87 26.03 45.52 25.15 46.75C24.28 47.98 23.03 49.81 22.38 50.84C21.73 51.86 20.69 53.59 20.07 54.67C19.45 55.76 18.33 57.88 17.59 59.38C16.85 60.88 15.93 62.86 15.54 63.78C15.15 64.7 14.53 66.2 14.18 67.12C13.82 68.04 13.21 69.74 12.82 70.9C12.43 72.06 11.82 74.06 11.46 75.36C11.1 76.65 10.6 78.6 10.36 79.69C10.12 80.78 9.78 82.42 9.61 83.34C9.44 84.26 9.19 85.8 9.05 86.75C8.91 87.7 8.69 89.57 8.55 90.9C8.42 92.23 8.24 94.76 8.17 96.53C8.09 98.3 8.07 100.76 8.11 101.98C8.15 103.21 8.24 105.07 8.31 106.13C8.38 107.19 8.54 109.05 8.68 110.28C8.81 111.5 9.06 113.37 9.23 114.43C9.4 115.48 9.68 117.07 9.86 117.96C10.03 118.84 10.37 120.37 10.6 121.36C10.84 122.35 11.28 124.04 11.58 125.11C11.89 126.18 12.45 127.99 12.83 129.13C13.21 130.27 13.82 131.96 14.18 132.88C14.53 133.8 15.15 135.3 15.54 136.22C15.93 137.14 16.85 139.12 17.59 140.62C18.33 142.12 19.45 144.24 20.07 145.33C20.69 146.41 21.74 148.14 22.39 149.16C23.04 150.19 24.1 151.77 24.75 152.69C25.39 153.61 26.37 154.95 26.91 155.67C27.46 156.38 28.56 157.75 29.35 158.7C30.14 159.65 31.4 161.1 32.15 161.92C32.89 162.73 34.2 164.1 35.05 164.95C35.9 165.8 37.27 167.11 38.08 167.85C38.9 168.6 40.35 169.86 41.3 170.65C42.25 171.44 43.62 172.54 44.33 173.09C45.05 173.63 46.39 174.61 47.31 175.25C48.23 175.9 49.81 176.96 50.84 177.61C51.86 178.26 53.59 179.31 54.67 179.93C55.76 180.55 57.88 181.67 59.38 182.41C60.88 183.15 62.86 184.07 63.78 184.46C64.7 184.85 66.2 185.47 67.12 185.82C68.04 186.18 69.73 186.79 70.87 187.17C72.01 187.55 73.82 188.11 74.89 188.42C75.96 188.72 77.65 189.16 78.64 189.4C79.63 189.63 81.16 189.97 82.04 190.14C82.93 190.32 84.52 190.6 85.57 190.77C86.63 190.94 88.5 191.19 89.72 191.32C90.95 191.46 92.84 191.63 93.93 191.72C95.02 191.8 97.75 191.86 100 191.86C102.25 191.86 104.98 191.8 106.07 191.72C107.16 191.63 109.05 191.46 110.28 191.32C111.5 191.19 113.37 190.94 114.43 190.77C115.48 190.6 117.07 190.32 117.96 190.14C118.84 189.97 120.37 189.63 121.36 189.4C122.35 189.16 124.04 188.72 125.11 188.42C126.18 188.11 127.99 187.55 129.13 187.17C130.27 186.79 131.96 186.18 132.88 185.82C133.8 185.47 135.3 184.85 136.22 184.46C137.14 184.07 139.12 183.15 140.62 182.41C142.12 181.67 144.24 180.55 145.33 179.93C146.41 179.31 148.14 178.26 149.16 177.61C150.19 176.96 151.77 175.9 152.69 175.25C153.61 174.61 154.95 173.63 155.67 173.09C156.38 172.54 157.75 171.44 158.7 170.65C159.65 169.86 161.1 168.6 161.92 167.85C162.73 167.11 164.1 165.8 164.95 164.95C165.8 164.1 167.11 162.73 167.85 161.92C168.6 161.1 169.86 159.65 170.65 158.7C171.44 157.75 172.54 156.38 173.09 155.67C173.63 154.95 174.61 153.61 175.25 152.69C175.9 151.77 176.96 150.19 177.61 149.16C178.26 148.14 179.31 146.41 179.93 145.33C180.55 144.24 181.67 142.12 182.41 140.62C183.15 139.12 184.07 137.14 184.46 136.22C184.85 135.3 185.47 133.8 185.82 132.88C186.18 131.96 186.79 130.26 187.18 129.1C187.57 127.94 188.18 125.94 188.54 124.64C188.9 123.35 189.4 121.4 189.64 120.31C189.88 119.22 190.22 117.58 190.39 116.66C190.56 115.74 190.81 114.2 190.95 113.25C191.09 112.3 191.31 110.43 191.45 109.1C191.58 107.77 191.76 105.18 191.83 103.34C191.93 100.9 191.93 99.1 191.83 96.66C191.76 94.82 191.58 92.23 191.45 90.9C191.31 89.57 191.09 87.7 190.95 86.75C190.81 85.8 190.56 84.26 190.39 83.34C190.22 82.42 189.88 80.78 189.64 79.69C189.4 78.6 188.9 76.65 188.54 75.36C188.18 74.06 187.57 72.06 187.18 70.9C186.79 69.74 186.18 68.04 185.82 67.12C185.47 66.2 184.85 64.7 184.46 63.78C184.07 62.86 183.15 60.88 182.41 59.38C181.67 57.88 180.55 55.76 179.93 54.67C179.31 53.59 178.27 51.86 177.62 50.84C176.97 49.81 175.72 47.98 174.85 46.75C173.97 45.52 172.74 43.87 172.11 43.08C171.48 42.29 170.37 40.95 169.64 40.11C168.92 39.26 167.57 37.77 166.64 36.78C165.71 35.79 164.15 34.24 163.19 33.33C162.22 32.42 160.74 31.08 159.89 30.36C159.05 29.63 157.71 28.52 156.92 27.89C156.13 27.26 154.48 26.03 153.25 25.15C152.02 24.28 150.19 23.03 149.16 22.38C148.14 21.73 146.41 20.69 145.33 20.07C144.24 19.45 142.12 18.33 140.62 17.59C139.12 16.85 137.14 15.93 136.22 15.54C135.3 15.15 133.8 14.53 132.88 14.18C131.96 13.82 130.26 13.21 129.1 12.82C127.94 12.43 125.94 11.82 124.64 11.46C123.35 11.1 121.4 10.6 120.31 10.36C119.22 10.12 117.58 9.78 116.66 9.61C115.74 9.44 114.2 9.19 113.25 9.05C112.3 8.91 110.43 8.69 109.1 8.55C107.77 8.42 105.32 8.25 103.65 8.18C101.98 8.11 100.09 8.06 99.44 8.07C98.8 8.08 97.18 8.13 95.85 8.19Z"/>
		<path class="shp1" d="M99.09 13.57C99.08 13.63 99.16 13.99 99.27 14.37C99.37 14.74 99.49 15.8 99.52 16.72C99.56 17.64 99.5 20.4 99.39 22.85C99.25 26.08 99.13 27.61 98.96 28.42C98.83 29.03 98.65 29.74 98.56 29.98L98.39 30.43C100.21 30.55 101.97 30.61 103.47 30.65C104.97 30.69 106.41 30.75 106.69 30.78L107.18 30.85C108.48 28.01 108.84 27.17 108.82 27.16C108.81 27.14 108.37 27.26 107.86 27.43C107.35 27.59 106.35 27.84 105.63 27.99C104.92 28.13 103.87 28.29 103.31 28.34L102.29 28.42C102.29 27.65 102.38 25.26 102.48 22.6C102.58 19.94 102.75 17.21 102.84 16.53C102.94 15.85 103.13 14.93 103.28 14.49C103.42 14.05 103.52 13.67 103.5 13.66C103.48 13.65 102.49 13.6 101.29 13.55C100.03 13.5 99.1 13.51 99.09 13.57ZM84.27 15.06C84.07 15.09 82.85 15.29 81.56 15.51C80.28 15.73 79.18 15.94 79.12 15.98C79.06 16.01 79.2 16.46 79.43 16.97C79.66 17.48 79.97 18.31 80.11 18.82C80.25 19.33 80.74 21.79 81.19 24.27C81.99 28.61 82.02 28.88 82.03 30.8C82.04 32.74 82.05 32.8 82.29 32.75C82.43 32.72 83.37 32.5 84.4 32.26C85.42 32.02 86.27 31.8 86.28 31.76C86.3 31.73 86.15 31.35 85.96 30.93C85.76 30.5 85.48 29.76 85.34 29.29C85.19 28.81 84.91 27.59 84.72 26.56C84.53 25.54 84.39 24.68 84.41 24.64C84.43 24.61 85.36 25.47 86.48 26.56C87.59 27.65 88.89 28.86 89.36 29.25C89.83 29.63 90.55 30.15 90.96 30.4L91.7 30.86C93.72 30.73 94.45 30.66 94.64 30.61C94.96 30.53 94.96 30.52 94.14 29.79C93.68 29.38 92.54 28.3 91.6 27.37C90.66 26.45 89.56 25.32 89.15 24.86L88.42 24.02C89.59 22.83 90.08 22.17 90.26 21.8C90.55 21.19 90.59 20.97 90.59 19.81C90.59 18.65 90.55 18.44 90.25 17.8C90.06 17.41 89.64 16.83 89.32 16.52C89 16.21 88.45 15.82 88.11 15.66C87.77 15.5 87.24 15.32 86.93 15.25C86.63 15.18 85.99 15.1 85.51 15.07C85.03 15.04 84.48 15.03 84.27 15.06ZM119.26 16.73C118.75 16.87 117.99 17.14 117.59 17.33C117.18 17.53 116.51 17.94 116.1 18.26C115.69 18.57 115.06 19.17 114.7 19.6C114.35 20.02 113.89 20.68 113.69 21.05C113.5 21.43 113.2 22.12 113.04 22.6C112.8 23.34 112.76 23.72 112.76 25.14C112.76 26.66 112.79 26.91 113.12 27.93C113.34 28.59 113.72 29.39 114.07 29.91C114.38 30.38 115.03 31.13 115.5 31.56C116.11 32.13 116.7 32.52 117.59 32.94C118.27 33.27 119.19 33.63 119.63 33.74C120.07 33.84 120.88 33.97 121.42 34.01C121.99 34.05 122.81 34.02 123.34 33.94C123.85 33.86 124.66 33.66 125.14 33.49C125.62 33.32 126.31 33.01 126.68 32.79C127.05 32.56 127.75 31.99 128.24 31.52C128.73 31.04 129.35 30.26 129.63 29.78C129.91 29.31 130.29 28.47 130.48 27.93C130.73 27.17 130.82 26.62 130.87 25.57C130.9 24.76 130.86 23.91 130.78 23.47C130.69 23.06 130.51 22.45 130.37 22.11C130.23 21.76 129.92 21.18 129.69 20.8C129.45 20.43 128.95 19.8 128.56 19.4C128.18 19 127.53 18.45 127.12 18.17C126.71 17.89 126.03 17.51 125.6 17.31C125.18 17.12 124.37 16.85 123.81 16.72C123.11 16.55 122.38 16.47 121.49 16.48C120.6 16.48 119.89 16.56 119.26 16.73Z"/>
		<path class="shp0" d="M83.09 17.31C83.09 17.43 83.35 18.97 83.67 20.74C83.99 22.51 84.27 23.99 84.3 24.02C84.33 24.06 84.66 23.92 85.05 23.72C85.43 23.51 86.02 23.09 86.36 22.79C86.69 22.48 87.1 21.96 87.26 21.64C87.47 21.22 87.55 20.84 87.55 20.31C87.55 19.9 87.47 19.37 87.37 19.13C87.27 18.89 86.95 18.45 86.66 18.13C86.31 17.77 85.9 17.49 85.48 17.33C85.07 17.18 84.51 17.09 83.96 17.09C83.22 17.09 83.1 17.12 83.09 17.31ZM120.12 18.93C119.75 19.05 119.19 19.32 118.89 19.52C118.58 19.73 118.09 20.17 117.79 20.51C117.5 20.84 117.1 21.45 116.91 21.86C116.72 22.27 116.47 23 116.36 23.5C116.25 23.99 116.16 24.8 116.16 25.29C116.16 25.79 116.25 26.54 116.35 26.97C116.45 27.39 116.71 28.09 116.92 28.51C117.14 28.94 117.6 29.59 117.96 29.97C118.32 30.34 118.88 30.8 119.21 30.98C119.54 31.16 120.15 31.41 120.56 31.52C121.07 31.67 121.58 31.72 122.23 31.68C122.94 31.64 123.35 31.53 123.99 31.23C124.49 31 125.1 30.57 125.49 30.19C125.88 29.8 126.33 29.18 126.59 28.67C126.83 28.19 127.12 27.4 127.23 26.9C127.34 26.41 127.43 25.69 127.43 25.29C127.43 24.9 127.35 24.22 127.26 23.78C127.17 23.33 126.92 22.6 126.7 22.14C126.48 21.66 126.03 21 125.65 20.59C125.28 20.2 124.68 19.7 124.32 19.48C123.95 19.26 123.32 19 122.91 18.89C122.5 18.78 121.86 18.7 121.49 18.71C121.11 18.71 120.5 18.81 120.12 18.93Z"/>
		<path class="shp1" d="M64.18 21.43L63.16 21.92C63.26 22.83 63.32 26.24 63.36 30.09C63.41 34.84 63.39 37.57 63.29 38.58C63.22 39.39 63.1 40.26 63.03 40.5C62.97 40.73 62.96 40.96 63.01 41.01C63.06 41.05 64 40.56 65.11 39.92L67.12 38.76C66.74 37.99 66.56 37.33 66.47 36.79C66.39 36.25 66.34 35.77 66.38 35.74C66.41 35.7 67.97 34.97 69.85 34.12L73.25 32.56C74.16 33.48 74.58 34.02 74.76 34.37C74.94 34.71 75.1 35.01 75.13 35.05C75.16 35.08 76.15 34.75 77.34 34.3C78.53 33.86 79.51 33.47 79.51 33.44C79.5 33.4 79.18 33.2 78.79 32.99C78.4 32.77 77.66 32.27 77.15 31.86C76.64 31.45 74.16 29.2 71.64 26.85C69.12 24.51 66.72 22.22 66.32 21.76C65.91 21.31 65.49 20.94 65.39 20.94C65.28 20.95 64.74 21.17 64.18 21.43ZM135.97 23.08C134.93 24.11 134.72 24.38 134.89 24.44C135.01 24.49 135.29 24.52 135.51 24.52C135.73 24.52 136.39 24.64 136.97 24.78C137.54 24.92 138.48 25.25 139.04 25.52L140.06 26.01C139.7 26.63 138.47 28.79 137.09 31.21C135.72 33.63 134.36 35.91 134.08 36.28C133.8 36.66 133.28 37.29 132.92 37.68L132.26 38.39C135.14 40.02 136.02 40.5 136.07 40.5C136.12 40.5 136.26 40.09 136.38 39.6C136.5 39.1 136.86 38.17 137.16 37.52C137.47 36.88 138.84 34.38 140.19 31.98C141.55 29.58 142.73 27.62 142.82 27.62C142.9 27.62 143.31 27.87 143.72 28.16C144.12 28.46 144.68 28.94 144.95 29.24C145.23 29.54 145.59 29.98 145.77 30.22L146.09 30.65C148.23 29.02 148.85 28.5 148.85 28.45C148.85 28.4 146.28 26.9 143.14 25.11C139.99 23.32 137.38 21.84 137.34 21.83C137.3 21.81 136.68 22.37 135.97 23.08Z"/>
		<path class="shp0" d="M66.26 28.92C66.26 30.62 66.31 32.21 66.35 32.46L66.44 32.91L71.27 30.69C69.06 28.55 67.93 27.45 67.34 26.87L66.25 25.82L66.26 28.92Z"/>
		<path class="shp1" d="M48.42 30.48C47.5 31.23 46.77 31.9 46.78 31.96C46.8 32.02 46.96 32.17 47.15 32.28C47.34 32.39 47.88 32.79 48.35 33.18C48.81 33.56 49.76 34.53 50.45 35.34C51.14 36.15 51.74 36.88 51.8 36.98C51.86 37.1 51.17 37.75 49.35 39.26C47.95 40.41 46.77 41.36 46.72 41.37C46.67 41.37 46.15 40.8 45.57 40.1C44.99 39.4 44.31 38.54 44.06 38.2C43.81 37.86 43.37 37.1 43.07 36.51L42.54 35.43C40 37.53 39.25 38.18 39.25 38.24C39.25 38.29 39.56 38.54 39.93 38.79C40.31 39.05 41.03 39.66 41.52 40.15C42.02 40.65 43.71 42.58 45.27 44.46C46.83 46.33 48.41 48.31 48.78 48.85C49.15 49.4 49.61 50.19 49.8 50.62L50.15 51.39C52.65 49.14 53.38 48.46 53.38 48.42C53.38 48.39 53.11 48.19 52.79 47.99C52.46 47.79 51.67 47.09 51.02 46.44C50.37 45.79 49.49 44.85 49.07 44.33L48.31 43.41L53.5 39.01C55 40.78 55.7 41.66 56.03 42.11C56.35 42.55 56.84 43.37 57.1 43.93C57.43 44.63 57.63 44.93 57.74 44.87C57.83 44.82 58.63 44.23 59.54 43.57L61.18 42.35C59.88 41.41 59.08 40.7 58.56 40.17C58.04 39.63 56.33 37.65 54.75 35.76C53.18 33.87 51.64 31.95 51.34 31.49C51.04 31.03 50.64 30.3 50.44 29.88L50.09 29.11L48.42 30.48ZM151.33 32.53L149.78 33.48C151.61 34.12 152.53 34.55 153 34.85C153.48 35.15 154.08 35.58 154.34 35.81L154.8 36.22C149.27 42.37 147.33 44.46 146.93 44.83C146.52 45.2 145.84 45.73 145.42 46.01C145 46.28 144.65 46.54 144.65 46.59C144.65 46.65 145.37 47.34 146.26 48.14C147.15 48.94 147.89 49.57 147.91 49.54C147.93 49.5 148.17 49.06 148.43 48.55C148.7 48.04 149.22 47.23 149.6 46.74C149.97 46.26 151.81 44.15 153.68 42.06L157.09 38.26C158.46 39.67 158.86 40.25 159.2 40.93C159.46 41.47 159.68 41.94 159.68 41.95C159.69 41.97 160.43 41.64 161.34 41.21L163 40.43C155.38 33.62 153.11 31.63 153.03 31.61C152.94 31.6 152.18 32.01 151.33 32.53ZM96.1 36.17C95.18 36.23 93.65 36.37 92.69 36.48C91.74 36.59 90.18 36.81 89.23 36.98C88.27 37.14 86.85 37.42 86.07 37.59C85.28 37.76 83.95 38.1 83.1 38.33C82.24 38.56 80.63 39.07 79.5 39.45C78.38 39.83 76.76 40.42 75.91 40.77C75.06 41.11 73.53 41.8 72.51 42.28C71.49 42.77 69.87 43.61 68.92 44.15C67.96 44.68 66.57 45.51 65.82 45.98C65.07 46.46 63.93 47.22 63.28 47.68C62.63 48.14 61.55 48.94 60.87 49.47C60.19 50 59.16 50.83 58.58 51.32C58 51.8 56.59 53.12 55.43 54.24C54.28 55.37 52.75 56.96 52.03 57.78C51.3 58.6 50.26 59.86 49.71 60.57C49.15 61.28 48.32 62.39 47.85 63.03C47.39 63.68 46.58 64.88 46.07 65.7C45.55 66.51 44.68 67.96 44.15 68.92C43.61 69.87 42.77 71.49 42.28 72.51C41.8 73.53 41.11 75.06 40.77 75.91C40.42 76.76 39.86 78.3 39.51 79.32C39.16 80.34 38.68 81.87 38.43 82.72C38.19 83.58 37.84 84.97 37.65 85.82C37.46 86.67 37.16 88.2 36.98 89.23C36.81 90.25 36.58 91.81 36.47 92.69C36.37 93.58 36.22 95.59 36.14 97.15C36.02 99.35 36.02 100.65 36.14 102.85C36.22 104.41 36.37 106.42 36.47 107.31C36.58 108.19 36.81 109.75 36.98 110.77C37.16 111.8 37.46 113.33 37.65 114.18C37.84 115.03 38.19 116.42 38.43 117.28C38.68 118.13 39.16 119.66 39.51 120.68C39.86 121.7 40.42 123.24 40.77 124.09C41.11 124.94 41.8 126.47 42.28 127.49C42.77 128.51 43.61 130.13 44.15 131.08C44.68 132.04 45.51 133.43 45.98 134.18C46.46 134.93 47.22 136.07 47.68 136.72C48.14 137.37 48.94 138.45 49.47 139.13C50 139.81 50.83 140.84 51.32 141.42C51.8 142 53.12 143.41 54.24 144.57C55.37 145.72 56.96 147.25 57.78 147.97C58.6 148.7 59.86 149.74 60.57 150.29C61.28 150.85 62.39 151.68 63.03 152.15C63.68 152.61 64.88 153.42 65.7 153.93C66.51 154.45 67.96 155.32 68.92 155.85C69.87 156.39 71.49 157.23 72.51 157.72C73.53 158.2 75.06 158.89 75.91 159.23C76.76 159.58 78.3 160.14 79.32 160.49C80.34 160.84 81.87 161.32 82.72 161.57C83.58 161.81 84.97 162.16 85.82 162.35C86.67 162.54 88.2 162.84 89.23 163.02C90.25 163.19 91.81 163.42 92.69 163.53C93.58 163.63 95.59 163.78 97.15 163.86C99.35 163.98 100.65 163.98 102.85 163.86C104.41 163.78 106.42 163.63 107.31 163.53C108.19 163.42 109.75 163.19 110.77 163.02C111.8 162.84 113.33 162.54 114.18 162.35C115.03 162.16 116.42 161.81 117.28 161.57C118.13 161.32 119.66 160.84 120.68 160.49C121.7 160.14 123.24 159.58 124.09 159.23C124.94 158.89 126.47 158.2 127.49 157.72C128.51 157.23 130.13 156.39 131.08 155.85C132.04 155.32 133.49 154.45 134.3 153.93C135.12 153.42 136.32 152.61 136.97 152.15C137.61 151.68 138.72 150.85 139.43 150.29C140.14 149.74 141.4 148.7 142.22 147.97C143.04 147.25 144.63 145.72 145.76 144.57C146.88 143.41 148.2 142 148.68 141.42C149.17 140.84 150 139.81 150.53 139.13C151.06 138.45 151.86 137.37 152.32 136.72C152.78 136.07 153.54 134.93 154.02 134.18C154.49 133.43 155.32 132.04 155.85 131.08C156.39 130.13 157.23 128.51 157.72 127.49C158.2 126.47 158.89 124.94 159.23 124.09C159.58 123.24 160.14 121.7 160.49 120.68C160.84 119.66 161.32 118.13 161.57 117.28C161.81 116.42 162.16 115.03 162.35 114.18C162.54 113.33 162.84 111.8 163.02 110.77C163.19 109.75 163.42 108.19 163.53 107.31C163.63 106.42 163.78 104.41 163.86 102.85C163.98 100.65 163.98 99.35 163.86 97.15C163.78 95.59 163.63 93.58 163.53 92.69C163.42 91.81 163.19 90.25 163.02 89.23C162.84 88.2 162.54 86.67 162.35 85.82C162.16 84.97 161.81 83.58 161.57 82.72C161.32 81.87 160.84 80.34 160.49 79.32C160.14 78.3 159.58 76.76 159.23 75.91C158.89 75.06 158.2 73.53 157.72 72.51C157.23 71.49 156.39 69.87 155.85 68.92C155.32 67.96 154.45 66.51 153.93 65.7C153.42 64.88 152.61 63.68 152.15 63.03C151.68 62.39 150.85 61.28 150.29 60.57C149.74 59.86 148.7 58.6 147.97 57.78C147.25 56.96 145.72 55.37 144.57 54.24C143.41 53.12 142 51.8 141.42 51.32C140.84 50.83 139.81 50 139.13 49.47C138.45 48.94 137.37 48.14 136.72 47.68C136.07 47.22 134.93 46.46 134.18 45.98C133.43 45.51 132.04 44.68 131.08 44.15C130.13 43.61 128.51 42.77 127.49 42.28C126.47 41.8 124.94 41.11 124.09 40.77C123.24 40.42 121.7 39.86 120.68 39.51C119.66 39.16 118.13 38.68 117.28 38.43C116.42 38.19 115.03 37.84 114.18 37.65C113.33 37.46 111.8 37.16 110.77 36.98C109.75 36.81 108.19 36.58 107.31 36.48C106.42 36.38 104.75 36.24 103.59 36.17C102.43 36.1 100.65 36.05 99.63 36.06C98.61 36.07 97.02 36.12 96.1 36.17Z"/>
		<path class="shp0" d="M96.84 38.14C95.79 38.2 94.34 38.31 93.62 38.39C92.91 38.47 91.57 38.64 90.65 38.78C89.73 38.91 88.09 39.21 87 39.45C85.91 39.68 84.15 40.12 83.1 40.42C82.04 40.73 80.42 41.24 79.5 41.56C78.59 41.88 77.11 42.44 76.22 42.81C75.34 43.19 73.78 43.9 72.76 44.4C71.73 44.9 70.2 45.71 69.35 46.2C68.5 46.69 67.08 47.56 66.19 48.14C65.31 48.72 63.94 49.67 63.16 50.25C62.37 50.83 61.09 51.84 60.31 52.5C59.53 53.15 57.97 54.57 56.86 55.66C55.74 56.75 54.26 58.29 53.57 59.07C52.88 59.85 51.93 60.99 51.45 61.59C50.98 62.19 50.11 63.34 49.54 64.15C48.96 64.96 48 66.39 47.42 67.33C46.83 68.27 45.96 69.76 45.48 70.65C44.99 71.54 44.24 73.04 43.8 73.99C43.36 74.95 42.7 76.51 42.32 77.46C41.94 78.41 41.38 80 41.06 80.99C40.74 81.98 40.24 83.73 39.94 84.89C39.65 86.05 39.26 87.8 39.09 88.79C38.91 89.78 38.68 91.23 38.58 92.01C38.48 92.8 38.34 94.16 38.26 95.05C38.18 95.93 38.11 98.16 38.11 100C38.11 101.84 38.18 104.07 38.26 104.95C38.34 105.84 38.48 107.2 38.58 107.99C38.68 108.77 38.91 110.22 39.09 111.21C39.26 112.2 39.65 113.95 39.94 115.11C40.24 116.27 40.74 118.02 41.06 119.01C41.38 120 41.94 121.59 42.32 122.54C42.7 123.49 43.36 125.05 43.8 126.01C44.24 126.96 44.99 128.46 45.48 129.35C45.96 130.24 46.78 131.66 47.31 132.51C47.84 133.36 48.7 134.67 49.23 135.42C49.75 136.17 50.64 137.36 51.19 138.07C51.74 138.78 52.79 140.03 53.51 140.86C54.23 141.68 55.74 143.25 56.85 144.34C57.97 145.43 59.53 146.85 60.31 147.5C61.09 148.16 62.37 149.17 63.16 149.75C63.94 150.33 65.31 151.28 66.19 151.86C67.08 152.44 68.5 153.31 69.35 153.8C70.2 154.29 71.73 155.1 72.76 155.6C73.78 156.1 75.37 156.83 76.28 157.21C77.2 157.6 79.02 158.27 80.31 158.71C81.6 159.14 83.64 159.74 84.83 160.04C86.02 160.34 87.8 160.74 88.79 160.91C89.78 161.09 91.23 161.32 92.01 161.42C92.8 161.52 94.16 161.66 95.05 161.74C95.93 161.82 98.16 161.89 100 161.89C101.84 161.89 104.07 161.82 104.95 161.74C105.84 161.66 107.2 161.52 107.99 161.42C108.77 161.32 110.22 161.09 111.21 160.91C112.2 160.74 113.95 160.35 115.11 160.06C116.27 159.76 118.02 159.26 119.01 158.94C120 158.62 121.59 158.06 122.54 157.68C123.49 157.3 125.05 156.64 126.01 156.2C126.96 155.76 128.46 155.01 129.35 154.52C130.24 154.04 131.73 153.17 132.67 152.58C133.61 152 135.04 151.04 135.85 150.46C136.66 149.89 137.81 149.02 138.41 148.55C139.01 148.07 140.15 147.12 140.93 146.43C141.71 145.74 143.25 144.26 144.34 143.14C145.43 142.03 146.85 140.47 147.5 139.69C148.16 138.91 149.17 137.63 149.75 136.84C150.33 136.06 151.28 134.69 151.86 133.81C152.44 132.92 153.31 131.5 153.8 130.65C154.29 129.8 155.1 128.27 155.6 127.24C156.1 126.22 156.81 124.66 157.19 123.78C157.56 122.89 158.12 121.41 158.44 120.5C158.76 119.58 159.27 117.96 159.58 116.9C159.88 115.85 160.32 114.09 160.55 113C160.79 111.91 161.12 110.05 161.29 108.85C161.46 107.66 161.66 105.91 161.75 104.95C161.83 104 161.89 101.77 161.89 100C161.89 98.23 161.83 96 161.75 95.05C161.66 94.09 161.46 92.34 161.29 91.15C161.12 89.95 160.79 88.09 160.55 87C160.32 85.91 159.88 84.15 159.58 83.1C159.27 82.04 158.76 80.42 158.44 79.5C158.12 78.59 157.56 77.11 157.19 76.22C156.81 75.34 156.1 73.78 155.6 72.76C155.1 71.73 154.29 70.2 153.8 69.35C153.31 68.5 152.44 67.08 151.86 66.19C151.28 65.31 150.33 63.94 149.75 63.16C149.17 62.37 148.16 61.09 147.51 60.31C146.86 59.53 145.16 57.71 143.72 56.28C142.29 54.84 140.47 53.14 139.69 52.49C138.91 51.84 137.63 50.83 136.84 50.25C136.06 49.67 134.69 48.72 133.81 48.14C132.92 47.56 131.5 46.69 130.65 46.2C129.8 45.71 128.27 44.9 127.24 44.4C126.22 43.9 124.63 43.17 123.72 42.79C122.8 42.4 120.9 41.7 119.5 41.24C118.11 40.78 116.05 40.17 114.92 39.89C113.8 39.61 112.13 39.25 111.21 39.08C110.29 38.92 108.84 38.69 107.99 38.59C107.14 38.48 105.8 38.34 105.02 38.27C104.23 38.21 102.5 38.13 101.18 38.1C99.85 38.07 97.9 38.09 96.84 38.14Z"/>
		<path class="shp1" d="M33.92 44.44C33.48 44.76 32.77 45.39 32.34 45.83C31.91 46.27 31.24 47.1 30.85 47.68C30.45 48.28 29.98 49.18 29.76 49.78C29.55 50.36 29.31 51.25 29.23 51.76C29.13 52.32 29.1 53.08 29.15 53.65C29.19 54.18 29.36 55.04 29.53 55.57C29.7 56.1 30.05 56.89 30.31 57.32C30.56 57.75 31.08 58.44 31.46 58.86C31.83 59.27 32.47 59.84 32.88 60.13C33.29 60.42 33.96 60.82 34.37 61.03C34.77 61.23 35.44 61.49 35.85 61.59C36.26 61.7 36.96 61.82 37.4 61.86C37.91 61.91 38.59 61.87 39.26 61.75C39.99 61.61 40.66 61.38 41.49 60.98C42.46 60.49 42.85 60.21 43.72 59.33C44.3 58.74 45.04 57.85 45.36 57.34C45.67 56.83 46.08 56.06 46.25 55.63C46.42 55.21 46.62 54.64 46.69 54.37L46.81 53.87L44.52 51.75C44.38 52.96 44.23 53.67 44.1 54.12C43.96 54.56 43.64 55.27 43.38 55.7C43.12 56.13 42.62 56.77 42.27 57.12C41.92 57.48 41.34 57.92 40.97 58.1C40.61 58.28 40.06 58.49 39.75 58.56C39.45 58.64 38.92 58.7 38.58 58.7C38.24 58.7 37.62 58.62 37.21 58.51C36.8 58.41 36.11 58.14 35.67 57.92C35.12 57.65 34.54 57.21 33.87 56.53C33.18 55.85 32.75 55.29 32.48 54.74C32.27 54.29 32.03 53.68 31.96 53.37C31.89 53.07 31.83 52.48 31.83 52.07C31.82 51.67 31.93 50.97 32.07 50.53C32.2 50.08 32.49 49.45 32.72 49.11C32.94 48.78 33.49 48.17 33.93 47.77C34.4 47.35 35.15 46.83 35.73 46.55C36.27 46.28 36.79 46.06 36.87 46.06C36.96 46.07 37.01 46.01 37 45.93C36.98 45.86 36.46 45.36 35.84 44.83L34.7 43.86L33.92 44.44Z"/>
		<path class="shp2" d="M95.54 44.22C94.86 44.28 93.61 44.41 92.76 44.52C91.9 44.64 90.48 44.86 89.6 45.03C88.71 45.2 87.21 45.53 86.25 45.77C85.3 46.01 83.52 46.54 82.29 46.94C81.07 47.35 79.25 48.03 78.27 48.45C77.28 48.87 75.69 49.61 74.74 50.1C73.78 50.58 72.36 51.36 71.58 51.83C70.8 52.29 69.65 53.01 69.04 53.42C68.43 53.83 67.31 54.62 66.56 55.18C65.81 55.74 64.64 56.66 63.96 57.23C63.28 57.79 61.72 59.26 60.49 60.49C59.26 61.72 57.79 63.28 57.23 63.96C56.66 64.64 55.74 65.81 55.18 66.56C54.62 67.31 53.83 68.43 53.42 69.04C53.01 69.65 52.29 70.8 51.83 71.58C51.36 72.36 50.58 73.78 50.1 74.74C49.61 75.69 48.87 77.28 48.45 78.27C48.03 79.25 47.35 81.07 46.95 82.29C46.54 83.52 46.03 85.19 45.83 86.01C45.62 86.82 45.32 88.16 45.15 88.98C44.98 89.8 44.73 91.3 44.59 92.32C44.45 93.34 44.28 94.9 44.21 95.79C44.14 96.67 44.09 98.57 44.09 100C44.09 101.43 44.14 103.33 44.21 104.21C44.28 105.1 44.45 106.66 44.59 107.68C44.73 108.7 44.98 110.2 45.15 111.02C45.32 111.84 45.62 113.18 45.83 113.99C46.03 114.81 46.53 116.46 46.92 117.65C47.32 118.84 47.94 120.51 48.29 121.36C48.65 122.21 49.29 123.63 49.72 124.52C50.15 125.41 50.91 126.83 51.4 127.68C51.88 128.53 52.71 129.87 53.22 130.65C53.73 131.43 54.61 132.69 55.18 133.44C55.74 134.19 56.66 135.36 57.23 136.04C57.79 136.72 59.26 138.28 60.49 139.51C61.72 140.74 63.28 142.21 63.96 142.77C64.64 143.34 65.81 144.26 66.56 144.82C67.31 145.39 68.57 146.27 69.35 146.78C70.13 147.29 71.47 148.12 72.32 148.6C73.17 149.09 74.59 149.85 75.48 150.28C76.37 150.71 77.79 151.35 78.64 151.71C79.49 152.06 81.16 152.68 82.35 153.08C83.54 153.47 85.19 153.97 86.01 154.17C86.82 154.38 88.16 154.68 88.98 154.85C89.8 155.02 91.3 155.27 92.32 155.41C93.34 155.55 94.9 155.72 95.79 155.79C96.67 155.86 98.57 155.91 100 155.91C101.43 155.91 103.33 155.86 104.21 155.79C105.1 155.72 106.66 155.55 107.68 155.41C108.7 155.27 110.2 155.02 111.02 154.85C111.84 154.68 113.18 154.38 113.99 154.17C114.81 153.97 116.46 153.47 117.65 153.08C118.84 152.68 120.51 152.06 121.36 151.71C122.21 151.35 123.63 150.71 124.52 150.28C125.41 149.85 126.83 149.09 127.68 148.6C128.53 148.12 129.87 147.29 130.65 146.78C131.43 146.27 132.69 145.39 133.44 144.82C134.19 144.26 135.36 143.34 136.04 142.77C136.72 142.21 138.28 140.74 139.51 139.51C140.74 138.28 142.21 136.72 142.77 136.04C143.34 135.36 144.26 134.19 144.82 133.44C145.38 132.69 146.17 131.57 146.58 130.96C146.99 130.35 147.71 129.2 148.17 128.42C148.64 127.64 149.42 126.22 149.9 125.26C150.39 124.31 151.13 122.72 151.55 121.73C151.97 120.75 152.65 118.93 153.05 117.71C153.46 116.48 153.97 114.81 154.17 113.99C154.38 113.18 154.68 111.84 154.85 111.02C155.02 110.2 155.27 108.7 155.41 107.68C155.55 106.66 155.72 105.1 155.79 104.21C155.86 103.33 155.91 101.43 155.91 100C155.91 98.57 155.86 96.67 155.79 95.79C155.72 94.9 155.55 93.34 155.41 92.32C155.27 91.3 155.04 89.91 154.91 89.23C154.77 88.54 154.47 87.21 154.23 86.25C153.99 85.3 153.46 83.52 153.06 82.29C152.65 81.07 151.97 79.25 151.55 78.27C151.13 77.28 150.39 75.69 149.9 74.74C149.42 73.78 148.64 72.36 148.17 71.58C147.71 70.8 146.99 69.65 146.58 69.04C146.17 68.43 145.38 67.31 144.82 66.56C144.26 65.81 143.34 64.64 142.77 63.96C142.21 63.28 140.74 61.72 139.51 60.49C138.28 59.26 136.72 57.79 136.04 57.23C135.36 56.66 134.19 55.74 133.44 55.18C132.69 54.62 131.57 53.83 130.96 53.42C130.35 53.01 129.2 52.29 128.42 51.83C127.64 51.36 126.22 50.58 125.26 50.1C124.31 49.61 122.72 48.87 121.73 48.45C120.75 48.03 118.93 47.35 117.71 46.95C116.48 46.54 114.81 46.03 113.99 45.83C113.18 45.62 111.84 45.32 111.02 45.15C110.2 44.98 108.7 44.73 107.68 44.59C106.66 44.45 105.1 44.28 104.21 44.21C103.33 44.14 101.29 44.09 99.69 44.1C98.09 44.11 96.22 44.17 95.54 44.22Z"/>
		<path class="shp1" d="M165.67 44.79C165.43 45.12 164.79 45.8 164.25 46.32C163.72 46.83 161.57 48.53 159.49 50.09C157.41 51.66 155.35 53.14 154.91 53.38C154.47 53.62 153.78 53.95 153.37 54.11C152.97 54.27 152.62 54.43 152.6 54.45C152.58 54.47 154.08 56.54 155.93 59.04C157.77 61.54 159.34 63.65 159.4 63.72C159.47 63.8 159.9 63.74 160.65 63.56C161.28 63.4 162.12 63.18 162.52 63.06L163.24 62.85C161.83 61.89 160.81 61 160.05 60.25C159.29 59.5 158.26 58.33 157.75 57.65C157.24 56.97 156.79 56.34 156.74 56.25C156.69 56.15 157.36 55.56 158.73 54.53L160.8 52.97C161.35 53.62 161.8 54.25 162.17 54.8C162.53 55.34 163.06 56.24 163.33 56.78C163.61 57.33 163.83 57.87 163.84 57.99C163.84 58.11 163.88 58.22 163.93 58.24C163.98 58.27 164.74 58.2 165.61 58.09C166.48 57.98 167.19 57.84 167.18 57.77C167.18 57.7 166.14 56.3 164.89 54.64C163.63 52.99 162.61 51.62 162.63 51.6C162.65 51.58 163.57 50.87 164.68 50.02C165.78 49.17 166.71 48.51 166.73 48.54C166.76 48.58 167.1 49.02 167.49 49.54C167.88 50.05 168.43 50.91 168.7 51.46C168.97 52 169.3 52.72 169.41 53.07C169.53 53.41 169.66 53.95 169.71 54.27C169.75 54.62 169.85 54.86 169.94 54.86C170.02 54.86 170.76 54.72 171.58 54.54C172.4 54.36 173.11 54.18 173.16 54.13C173.22 54.09 171.69 51.88 169.77 49.23C167.86 46.57 166.25 44.35 166.2 44.3C166.16 44.24 165.92 44.46 165.67 44.79ZM82.98 67.39C82.82 67.48 82.57 67.71 82.43 67.9C82.18 68.23 82.17 68.42 82.15 70.75C82.15 72.13 82.07 73.67 81.99 74.18C81.91 74.69 81.73 75.53 81.61 76.04C81.48 76.55 81.2 77.38 80.99 77.89C80.77 78.41 80.49 79.09 80.36 79.41C80.17 79.88 80.15 80.09 80.24 80.46C80.32 80.77 80.63 81.21 81.14 81.74C81.57 82.19 82.15 82.86 82.44 83.23C82.72 83.6 83.15 84.24 83.4 84.64C83.71 85.17 83.84 85.53 83.84 85.88C83.84 86.15 83.75 87.05 83.65 87.86C83.54 88.68 83.35 89.91 83.21 90.59C83.08 91.27 82.81 92.38 82.61 93.07C82.41 93.75 82.08 94.67 81.89 95.11C81.69 95.55 81.31 96.25 81.03 96.66C80.76 97.07 80.29 97.61 79.99 97.86C79.69 98.11 79.14 98.44 78.76 98.59C78.34 98.75 77.68 98.88 77.03 98.91C76.31 98.96 75.62 98.91 74.86 98.76C74.25 98.65 73.36 98.41 72.88 98.24C72.4 98.07 71.37 97.6 70.59 97.21C69.8 96.81 69.03 96.39 68.87 96.26C68.6 96.05 68.57 95.94 68.52 94.49C68.48 93.64 68.52 92.41 68.6 91.76C68.68 91.12 68.78 90.25 68.82 89.85C68.87 89.29 68.84 89 68.69 88.7C68.55 88.44 68.23 88.16 67.77 87.9C67.38 87.69 66.72 87.29 66.32 87.01C65.91 86.74 65.11 86.06 64.54 85.52C63.97 84.97 63.19 84.13 62.8 83.65C62.42 83.18 61.73 82.22 61.27 81.52C60.81 80.82 60.31 80.16 60.15 80.06C60 79.96 59.65 79.87 59.38 79.87C59.05 79.87 58.77 79.96 58.53 80.15C58.33 80.31 58.12 80.53 58.06 80.65C57.99 80.81 59.95 86.63 65.02 101.33C68.9 112.59 72.16 121.92 72.26 122.07C72.36 122.23 72.6 122.43 72.79 122.53C72.97 122.62 73.8 122.9 74.61 123.14C75.43 123.38 76.91 123.78 77.89 124.03C78.88 124.27 80.78 124.69 82.11 124.95C83.43 125.22 85.5 125.57 86.69 125.75C87.88 125.92 89.69 126.14 90.71 126.25C91.73 126.35 93.42 126.49 94.46 126.56C95.5 126.63 98 126.69 100.03 126.69C102.06 126.69 104.61 126.63 105.7 126.56C106.79 126.49 108.29 126.38 109.04 126.31C109.79 126.24 111.27 126.07 112.32 125.94C113.38 125.81 114.94 125.58 115.79 125.45C116.64 125.31 118.2 125.03 119.26 124.82C120.31 124.61 121.96 124.25 122.91 124.01C123.86 123.78 125.06 123.47 125.57 123.33C126.08 123.18 126.7 122.99 126.93 122.9C127.17 122.81 127.47 122.58 127.6 122.39C127.73 122.2 131.04 112.78 134.94 101.46C140.04 86.67 142.01 80.81 141.94 80.65C141.88 80.53 141.67 80.31 141.47 80.15C141.23 79.96 140.95 79.87 140.62 79.87C140.35 79.87 140 79.96 139.85 80.06C139.69 80.16 139.19 80.82 138.73 81.52C138.27 82.22 137.58 83.18 137.2 83.65C136.81 84.13 136.03 84.97 135.46 85.52C134.89 86.06 134.09 86.74 133.68 87.01C133.28 87.29 132.62 87.69 132.23 87.9C131.77 88.16 131.45 88.44 131.31 88.7C131.16 89 131.13 89.29 131.18 89.85C131.22 90.25 131.32 91.12 131.4 91.76C131.48 92.41 131.52 93.64 131.48 94.49C131.43 95.94 131.4 96.05 131.13 96.26C130.97 96.39 130.2 96.81 129.41 97.21C128.63 97.6 127.6 98.07 127.12 98.24C126.64 98.41 125.75 98.65 125.14 98.76C124.38 98.91 123.69 98.96 122.97 98.91C122.32 98.88 121.66 98.75 121.24 98.59C120.86 98.44 120.31 98.11 120.01 97.86C119.71 97.61 119.24 97.07 118.97 96.66C118.69 96.25 118.32 95.58 118.14 95.17C117.95 94.76 117.65 93.95 117.47 93.37C117.29 92.8 117 91.65 116.84 90.84C116.68 90.02 116.46 88.68 116.35 87.86C116.25 87.05 116.16 86.15 116.16 85.88C116.16 85.53 116.29 85.17 116.6 84.64C116.85 84.24 117.28 83.6 117.56 83.23C117.85 82.86 118.43 82.19 118.86 81.74C119.37 81.21 119.68 80.77 119.76 80.46C119.85 80.09 119.83 79.88 119.64 79.41C119.51 79.09 119.23 78.41 119.01 77.89C118.8 77.38 118.52 76.55 118.39 76.04C118.27 75.53 118.09 74.69 118.01 74.18C117.93 73.67 117.85 72.13 117.85 70.75C117.83 68.42 117.82 68.23 117.57 67.9C117.43 67.71 117.18 67.48 117.02 67.39C116.84 67.3 116.51 67.26 116.22 67.3C115.9 67.34 115.62 67.48 115.4 67.7C115.19 67.93 114.87 68.66 114.5 69.78C114.17 70.74 113.65 72.05 113.32 72.69C113 73.34 112.58 74.12 112.38 74.43C112.19 74.73 111.78 75.32 111.47 75.73C111.15 76.13 110.61 76.75 110.26 77.09C109.91 77.43 109.53 77.93 109.41 78.2C109.28 78.52 109.24 78.83 109.29 79.07C109.34 79.28 109.53 79.75 109.72 80.12C109.91 80.5 110.23 81.33 110.44 81.98C110.64 82.63 110.88 83.58 110.97 84.09L111.12 85.02C109.81 87.32 109.09 88.52 108.66 89.16C108.24 89.81 107.54 90.79 107.11 91.33C106.68 91.88 105.99 92.65 105.58 93.05C105.17 93.46 104.44 94.04 103.96 94.36C103.49 94.67 102.68 95.07 102.17 95.24C101.43 95.48 100.98 95.54 100 95.54C99.02 95.54 98.57 95.48 97.83 95.24C97.32 95.07 96.51 94.67 96.04 94.36C95.56 94.04 94.83 93.46 94.42 93.05C94.01 92.65 93.32 91.88 92.89 91.33C92.46 90.79 91.76 89.81 91.34 89.16C90.91 88.52 90.19 87.32 89.72 86.5L88.88 85.02C89.12 83.58 89.36 82.63 89.56 81.98C89.77 81.33 90.09 80.5 90.28 80.12C90.47 79.75 90.66 79.28 90.71 79.07C90.76 78.83 90.72 78.52 90.59 78.2C90.47 77.93 90.09 77.43 89.74 77.09C89.39 76.75 88.85 76.13 88.53 75.73C88.22 75.32 87.81 74.73 87.62 74.43C87.42 74.12 87 73.34 86.68 72.69C86.35 72.05 85.83 70.74 85.5 69.78C85.13 68.66 84.81 67.93 84.6 67.7C84.38 67.48 84.1 67.34 83.78 67.3C83.49 67.26 83.16 67.3 82.98 67.39Z"/>
		<path class="shp2" d="M23.59 74.98C23.32 75.08 22.89 75.31 22.63 75.48C22.38 75.65 21.96 76.11 21.7 76.5C21.39 76.98 21.08 77.73 20.77 78.76C20.52 79.61 20.31 80.37 20.31 80.43C20.31 80.5 21.98 81.03 24.02 81.61L27.74 82.66C28.22 81.13 28.45 80.24 28.57 79.69C28.73 78.86 28.74 78.58 28.62 77.96C28.54 77.55 28.38 77.02 28.26 76.79C28.14 76.56 27.83 76.17 27.55 75.92C27.28 75.67 26.72 75.34 26.32 75.18C25.91 75.03 25.24 74.88 24.83 74.85C24.34 74.81 23.92 74.86 23.59 74.98ZM173.34 75.39C173.15 75.51 172.92 75.78 172.82 76.01C172.71 76.23 172.63 76.53 172.63 76.69C172.63 76.84 172.75 77.16 172.91 77.4C173.07 77.64 173.34 77.9 173.5 77.99C173.67 78.07 173.98 78.14 174.18 78.14C174.38 78.15 174.75 78.02 174.98 77.86C175.24 77.69 175.48 77.4 175.57 77.15C175.67 76.85 175.68 76.57 175.6 76.25C175.53 75.99 175.32 75.66 175.11 75.48C174.84 75.25 174.59 75.17 174.21 75.17C173.92 75.18 173.53 75.27 173.34 75.39Z"/>
		<path class="shp0" d="M23.66 76.93C23.43 77.09 23.14 77.35 23.01 77.52C22.88 77.69 22.67 78.14 22.55 78.51C22.42 78.89 22.33 79.21 22.34 79.22C22.35 79.24 23.33 79.53 24.52 79.87C25.71 80.21 26.69 80.48 26.7 80.46C26.7 80.45 26.77 80.21 26.85 79.94C26.93 79.67 26.99 79.14 26.99 78.76C26.99 78.27 26.91 77.96 26.71 77.65C26.54 77.39 26.2 77.12 25.82 76.94C25.46 76.78 24.96 76.66 24.64 76.66C24.25 76.66 23.94 76.75 23.66 76.93Z"/>
		<path class="shp2" d="M177.18 81.61C176.94 81.7 176.86 81.8 176.91 81.95C176.95 82.07 177.1 82.48 177.25 82.86L177.52 83.56C178.45 83.44 178.55 83.48 178.8 83.79C178.98 84.02 179.08 84.31 179.08 84.61C179.07 84.97 178.99 85.14 178.73 85.34C178.47 85.53 178.29 85.58 177.96 85.52C177.72 85.48 177.36 85.32 177.15 85.17C176.95 85.02 176.03 84.32 175.11 83.61L173.44 82.32C172.5 82.45 172.26 82.54 172.26 82.63C172.26 82.72 172.48 83.93 172.76 85.33C173.03 86.72 173.28 87.99 173.32 88.14C173.35 88.3 173.46 88.42 173.56 88.42C173.66 88.42 174.01 88.36 174.33 88.29L174.92 88.16C174.49 85.92 174.4 85.24 174.43 85.2C174.46 85.17 174.92 85.48 175.45 85.89C175.98 86.31 176.66 86.79 176.97 86.97C177.27 87.15 177.77 87.34 178.08 87.38C178.43 87.43 178.82 87.4 179.13 87.3C179.41 87.21 179.79 86.99 179.98 86.82C180.17 86.64 180.41 86.28 180.52 86.01C180.64 85.67 180.69 85.23 180.66 84.64C180.62 84.01 180.51 83.58 180.24 83.04C180.03 82.61 179.68 82.14 179.4 81.92C179.01 81.62 178.79 81.54 178.22 81.52C177.84 81.5 177.37 81.55 177.18 81.61ZM19.53 84.04C19.49 84.17 19.27 85.4 19.05 86.77C18.82 88.15 18.67 89.3 18.7 89.33C18.73 89.37 20.46 89.68 22.54 90.02C24.62 90.37 26.32 90.64 26.33 90.62C26.34 90.6 26.53 89.47 26.75 88.11C26.96 86.75 27.18 85.49 27.22 85.3C27.3 84.98 27.29 84.97 26.59 84.9C26.2 84.86 25.84 84.83 25.79 84.82C25.74 84.82 25.55 85.64 25.38 86.65L25.06 88.48C23.92 88.43 23.55 88.37 23.5 88.32C23.45 88.27 23.54 87.47 23.69 86.54L23.96 84.84C23.48 84.74 23.15 84.68 22.91 84.64L22.48 84.56L21.86 88.07C20.9 87.94 20.59 87.87 20.56 87.84C20.52 87.81 20.63 86.96 20.8 85.94C20.98 84.93 21.09 84.08 21.05 84.04C21.02 84.01 20.68 83.95 20.3 83.9C19.69 83.82 19.6 83.84 19.53 84.04ZM176.82 91.25C176.63 91.31 176.3 91.45 176.07 91.57C175.85 91.69 175.45 91.99 175.19 92.24C174.93 92.49 174.6 92.92 174.45 93.19C174.22 93.61 174.18 93.88 174.18 95.05C174.18 96.33 174.2 96.45 174.55 97.08C174.76 97.44 175.15 97.93 175.42 98.17C175.73 98.43 176.24 98.69 176.78 98.85C177.44 99.04 177.83 99.09 178.39 99.03C178.8 98.99 179.38 98.87 179.69 98.77C180 98.67 180.52 98.35 180.85 98.05C181.19 97.76 181.6 97.24 181.78 96.9C182.06 96.37 182.1 96.13 182.1 95.11C182.1 94.19 182.04 93.81 181.85 93.37C181.71 93.07 181.4 92.6 181.17 92.34C180.93 92.07 180.46 91.71 180.12 91.54C179.61 91.28 179.3 91.22 178.33 91.19C177.68 91.17 177 91.2 176.82 91.25ZM18.28 92.79C18.24 93.01 18.19 93.91 18.15 94.8C18.11 95.68 18.04 96.95 17.99 97.62L17.89 98.83L19.57 98.82C19.56 97.72 19.61 97.21 19.66 96.98L19.75 96.56C21.86 96.68 23.24 96.76 24.17 96.81L25.86 96.9L25.94 95.12C24.89 95.02 23.89 94.96 23.03 94.92C22.18 94.89 21.11 94.83 20.65 94.8L19.81 94.74L19.81 92.38C18.34 92.38 18.34 92.38 18.28 92.79Z"/>
		<path class="shp0" d="M176.85 93.4C176.55 93.56 176.2 93.82 176.07 93.99C175.94 94.16 175.8 94.55 175.77 94.86C175.71 95.27 175.76 95.55 175.93 95.9C176.06 96.18 176.38 96.53 176.65 96.71C177.06 96.98 177.27 97.03 178.01 97.02C178.65 97.02 179.02 96.95 179.38 96.77C179.65 96.63 180 96.32 180.16 96.09C180.36 95.79 180.44 95.49 180.44 95.05C180.43 94.65 180.34 94.28 180.19 94.02C180.05 93.8 179.72 93.51 179.44 93.37C179.11 93.21 178.7 93.13 178.17 93.13C177.61 93.13 177.25 93.2 176.85 93.4Z"/>
		<path class="shp2" d="M21.73 101.56C19.96 101.68 18.39 101.78 18.24 101.79C18 101.79 17.96 101.86 17.96 102.26C17.95 102.52 18 102.91 18.05 103.14L18.14 103.56C20.06 103.44 21.15 103.36 21.8 103.32L22.97 103.25L18.27 106.72C18.34 108.04 18.38 108.45 18.41 108.48C18.44 108.52 20.2 108.43 22.31 108.3L26.16 108.05C26.09 106.77 26.04 106.38 26.01 106.34C25.97 106.31 24.92 106.35 23.67 106.42C22.42 106.5 21.38 106.54 21.36 106.5C21.33 106.47 22.34 105.69 23.6 104.77C25.49 103.39 25.88 103.05 25.83 102.85C25.79 102.71 25.76 102.31 25.76 101.95L25.76 101.3C25.13 101.33 23.5 101.43 21.73 101.56ZM174.23 102.45C174.23 102.46 174.13 103.8 174.02 105.42C173.85 107.75 173.84 108.37 173.96 108.42C174.05 108.45 174.38 108.48 174.71 108.49C175.27 108.49 175.3 108.47 175.39 108.08C175.44 107.86 175.48 107.46 175.48 107.18C175.48 106.91 175.52 106.41 175.56 106.07L175.65 105.45C176.69 106.79 177.28 107.48 177.63 107.84C178.13 108.35 178.41 108.53 178.95 108.68C179.35 108.8 179.78 108.84 180 108.79C180.2 108.74 180.54 108.6 180.74 108.48C180.95 108.36 181.28 107.96 181.48 107.6C181.77 107.06 181.85 106.75 181.89 105.94C181.93 105.24 181.89 104.81 181.75 104.46C181.65 104.19 181.43 103.8 181.27 103.6C181.12 103.4 180.77 103.14 180.5 103.01C180.22 102.89 179.82 102.79 179.6 102.79C179.38 102.79 179.13 102.82 179.04 102.85C178.93 102.9 178.91 103.11 178.97 103.62C179.01 104.01 179.06 104.45 179.06 104.58C179.07 104.77 179.14 104.82 179.35 104.78C179.5 104.75 179.77 104.81 179.94 104.91C180.11 105.01 180.29 105.26 180.35 105.46C180.4 105.66 180.39 105.99 180.31 106.22C180.24 106.44 180.07 106.68 179.94 106.75C179.8 106.82 179.58 106.87 179.44 106.87C179.31 106.87 179.03 106.78 178.82 106.66C178.62 106.54 177.77 105.53 176.93 104.43L175.42 102.42C174.51 102.42 174.24 102.43 174.23 102.45ZM22.91 111.4C21.11 111.7 19.46 111.97 19.26 112.01L18.89 112.08C19.08 113.31 19.16 113.7 19.2 113.74C19.23 113.78 20.93 113.56 22.97 113.24C25.02 112.92 26.72 112.63 26.77 112.58C26.81 112.54 26.8 112.13 26.75 111.67C26.67 110.96 26.63 110.84 26.43 110.85C26.3 110.86 24.72 111.11 22.91 111.4ZM172.71 114.83C172.4 116.41 172.14 117.75 172.14 117.8C172.14 117.85 172.46 117.95 172.85 118.03C173.24 118.1 173.59 118.11 173.64 118.06C173.68 118 173.81 117.43 173.93 116.78C174.06 116.13 174.19 115.49 174.24 115.36C174.3 115.16 174.47 115.37 175.07 116.41C175.48 117.12 175.95 117.88 176.12 118.08C176.29 118.28 176.67 118.58 176.98 118.73C177.32 118.9 177.76 119.01 178.14 119.01C178.64 119.02 178.87 118.94 179.29 118.64C179.63 118.4 179.93 118.04 180.13 117.62C180.35 117.16 180.46 116.67 180.51 115.98C180.58 115.05 180.56 114.94 180.22 114.3C179.97 113.83 179.71 113.54 179.37 113.35C179.08 113.18 178.67 113.07 178.36 113.07L177.83 113.07L177.83 115.05C178.36 115.04 178.61 115.14 178.73 115.26C178.85 115.39 178.94 115.68 178.95 115.98C178.95 116.29 178.87 116.58 178.72 116.78C178.54 117.01 178.36 117.09 178.04 117.09C177.75 117.09 177.5 116.99 177.28 116.78C177.09 116.61 176.41 115.53 175.75 114.38C175.09 113.23 174.47 112.25 174.37 112.2C174.26 112.15 173.98 112.07 173.74 112.03L173.29 111.95L172.71 114.83ZM79.1 112.7C78.85 112.76 78.48 112.9 78.3 112.99C78.11 113.09 77.74 113.38 77.49 113.64C77.23 113.9 76.9 114.37 76.75 114.67C76.56 115.07 76.49 115.46 76.5 116.04C76.5 116.48 76.6 117.05 76.71 117.31C76.81 117.56 77.11 118 77.37 118.29C77.62 118.57 78.11 118.93 78.45 119.09C78.9 119.3 79.29 119.38 79.88 119.38C80.47 119.38 80.85 119.3 81.3 119.09C81.64 118.92 82.1 118.6 82.31 118.37C82.53 118.14 82.82 117.71 82.96 117.4C83.13 117.04 83.21 116.58 83.22 116.1C83.22 115.69 83.15 115.14 83.06 114.87C82.98 114.6 82.68 114.13 82.41 113.82C82.13 113.5 81.66 113.13 81.35 112.98C81.05 112.83 80.53 112.68 80.19 112.64C79.85 112.61 79.36 112.64 79.1 112.7ZM119.32 112.71C119.05 112.77 118.63 112.95 118.4 113.1C118.17 113.25 117.77 113.6 117.53 113.88C117.29 114.16 117.02 114.6 116.94 114.87C116.85 115.14 116.78 115.69 116.78 116.1C116.79 116.58 116.87 117.04 117.04 117.4C117.18 117.71 117.47 118.14 117.69 118.37C117.9 118.6 118.36 118.92 118.7 119.09C119.15 119.3 119.53 119.38 120.12 119.38C120.71 119.38 121.1 119.3 121.55 119.09C121.89 118.93 122.38 118.57 122.63 118.29C122.89 118 123.19 117.56 123.29 117.31C123.4 117.05 123.5 116.48 123.5 116.04C123.51 115.46 123.44 115.07 123.25 114.67C123.1 114.37 122.77 113.9 122.51 113.64C122.26 113.37 121.82 113.06 121.55 112.93C121.28 112.81 120.77 112.68 120.43 112.65C120.09 112.61 119.59 112.64 119.32 112.71ZM92.26 114.36C91.95 114.45 91.42 114.78 91.08 115.08C90.68 115.43 90.36 115.86 90.17 116.29C89.93 116.84 89.89 117.12 89.93 117.77C89.96 118.21 90.09 118.8 90.22 119.07C90.35 119.34 90.68 119.79 90.96 120.06C91.24 120.34 91.73 120.65 92.08 120.78C92.42 120.9 93 120.99 93.37 120.99C93.82 120.99 94.27 120.89 94.67 120.7C95.02 120.54 95.53 120.15 95.82 119.83C96.18 119.44 96.41 119.04 96.55 118.54C96.67 118.12 96.72 117.61 96.69 117.28C96.65 116.97 96.48 116.44 96.31 116.1C96.14 115.76 95.84 115.33 95.65 115.15C95.45 114.97 95.04 114.7 94.74 114.55C94.43 114.4 93.87 114.25 93.5 114.23C93.12 114.2 92.57 114.26 92.26 114.36ZM105.88 114.29C105.71 114.35 105.34 114.5 105.07 114.64C104.8 114.78 104.43 115.06 104.26 115.25C104.08 115.45 103.8 115.85 103.65 116.16C103.5 116.47 103.35 116.97 103.31 117.28C103.28 117.61 103.33 118.12 103.45 118.54C103.59 119.04 103.82 119.44 104.18 119.83C104.47 120.15 104.98 120.54 105.33 120.7C105.73 120.89 106.18 120.99 106.63 120.99C107 120.99 107.58 120.9 107.92 120.78C108.27 120.65 108.76 120.34 109.04 120.06C109.32 119.79 109.65 119.34 109.78 119.07C109.91 118.8 110.04 118.21 110.07 117.77C110.11 117.12 110.07 116.84 109.83 116.29C109.64 115.86 109.32 115.43 108.92 115.08C108.53 114.74 108.06 114.47 107.68 114.36C107.34 114.26 106.86 114.18 106.63 114.19C106.39 114.2 106.05 114.24 105.88 114.29ZM23.41 116.37C21.53 116.88 19.94 117.35 19.88 117.41C19.79 117.48 19.83 117.81 19.99 118.36C20.12 118.82 20.23 119.21 20.23 119.22C20.24 119.24 21.59 119.42 23.22 119.63C24.85 119.83 26.2 120.01 26.22 120.03C26.23 120.05 25.16 120.88 23.83 121.89L21.42 123.72C21.83 125.11 21.96 125.53 21.96 125.55C21.97 125.57 23.65 125.13 25.7 124.57C27.74 124.02 29.43 123.56 29.44 123.55C29.46 123.54 29.38 123.15 29.26 122.69C29.07 121.95 29.01 121.85 28.79 121.91C28.66 121.95 27.83 122.17 26.97 122.41C26.1 122.65 25.39 122.81 25.39 122.76C25.39 122.7 25.5 122.59 25.63 122.51C25.77 122.42 26.5 121.88 27.24 121.3L28.61 120.25C28.3 119.14 28.18 118.78 28.13 118.73C28.09 118.68 27.21 118.53 26.19 118.39C25.17 118.25 24.28 118.14 24.21 118.14C24.14 118.14 24.17 118.09 24.27 118.03C24.37 117.97 25.02 117.77 25.7 117.59C26.38 117.41 27.12 117.21 27.34 117.15L27.74 117.03C27.35 115.66 27.25 115.47 27.06 115.46C26.92 115.44 25.28 115.85 23.41 116.37ZM173.28 122.48C173.06 122.61 172.79 122.93 172.68 123.19C172.52 123.56 172.51 123.74 172.62 124.12C172.69 124.37 172.92 124.72 173.13 124.89C173.4 125.12 173.64 125.2 174.06 125.2C174.47 125.2 174.71 125.12 174.98 124.89C175.19 124.72 175.42 124.37 175.49 124.12C175.6 123.74 175.59 123.56 175.43 123.19C175.32 122.93 175.05 122.61 174.83 122.48C174.61 122.34 174.26 122.23 174.06 122.23C173.85 122.23 173.5 122.34 173.28 122.48Z"/>
		<path class="shp1" d="M74.31 127.68C74.21 127.87 74.32 128.34 74.87 129.88C75.24 130.95 75.62 131.91 75.7 132C75.78 132.1 76.16 132.31 76.53 132.48C76.91 132.64 77.97 133 78.89 133.26C79.8 133.53 81.42 133.94 82.48 134.18C83.53 134.41 85.26 134.75 86.32 134.92C87.37 135.09 89.24 135.34 90.46 135.47C91.69 135.61 93.78 135.78 95.11 135.86C96.65 135.96 99.29 135.98 102.41 135.94C105.11 135.9 107.95 135.81 108.73 135.73C109.51 135.66 111.07 135.48 112.2 135.34C113.32 135.21 114.99 134.95 115.91 134.78C116.83 134.62 118.25 134.31 119.07 134.11C119.89 133.91 121.25 133.51 122.11 133.22C123.08 132.9 123.79 132.58 124.02 132.37C124.32 132.11 124.54 131.61 125.08 130.06C125.69 128.28 125.74 128.06 125.57 127.87C125.47 127.76 125.3 127.67 125.2 127.67C125.1 127.68 124.04 127.9 122.85 128.18C121.66 128.46 119.59 128.88 118.27 129.11C116.94 129.35 114.79 129.68 113.5 129.84C112.2 130.01 110.14 130.23 108.92 130.34C107.69 130.45 105.18 130.58 103.34 130.64C101.5 130.69 98.58 130.69 96.84 130.64C95.11 130.59 92.96 130.48 92.07 130.41C91.19 130.33 89.71 130.19 88.79 130.08C87.87 129.98 86.2 129.76 85.08 129.59C83.95 129.42 82.06 129.08 80.87 128.84C79.67 128.61 77.84 128.19 76.78 127.92C75.72 127.65 74.76 127.43 74.65 127.43C74.53 127.43 74.38 127.54 74.31 127.68ZM38.44 138.79C38.09 139.19 37.15 139.98 36.33 140.56C35.52 141.13 33.94 142.22 32.82 142.98C31.62 143.78 30.44 144.47 29.97 144.64C29.53 144.8 29.15 144.95 29.13 144.97C29.12 145 29.49 145.6 29.97 146.32L30.84 147.62C31.96 146.42 32.87 145.66 33.58 145.15C34.79 144.29 34.87 144.25 35.03 144.47C35.12 144.6 35.39 145.1 35.62 145.57C35.85 146.05 36.04 146.57 36.04 146.72C36.04 146.95 36.09 146.99 36.38 146.94C36.57 146.91 37 146.85 37.34 146.81C37.68 146.76 38.05 146.71 38.17 146.68C38.35 146.63 38.19 146.32 37.28 144.98C36.66 144.08 36.18 143.34 36.19 143.33C36.21 143.32 36.92 142.83 37.77 142.25C38.62 141.66 39.35 141.2 39.38 141.22C39.41 141.25 39.61 141.54 39.81 141.87C40.01 142.2 40.3 142.84 40.45 143.28L40.74 144.09C42.04 144.03 42.56 143.98 42.73 143.93C43.05 143.84 43.03 143.8 41.21 141.18C40.2 139.71 39.3 138.42 39.22 138.3C39.09 138.11 39.01 138.16 38.44 138.79ZM160.99 139.85C160.68 139.94 160.24 140.13 160 140.27C159.76 140.42 159.36 140.75 159.11 141.01C158.86 141.27 158.1 142.24 157.41 143.16C156.72 144.08 156.15 144.86 156.16 144.89C156.16 144.93 156.6 145.15 157.12 145.4C157.76 145.69 159.07 146.58 161.08 148.09C162.74 149.33 164.33 150.58 164.62 150.87C164.91 151.16 165.3 151.59 165.48 151.83C165.66 152.07 165.83 152.23 165.86 152.2C165.88 152.16 166.51 151.33 167.25 150.34C167.99 149.35 168.75 148.24 168.94 147.86C169.13 147.49 169.34 146.88 169.41 146.5C169.48 146.13 169.51 145.57 169.46 145.26C169.42 144.96 169.24 144.43 169.06 144.1C168.88 143.77 168.51 143.34 168.24 143.14C167.96 142.95 167.46 142.72 167.12 142.65C166.64 142.55 166.34 142.56 165.76 142.7C165.35 142.8 164.93 142.91 164.83 142.96C164.68 143.02 164.62 142.9 164.55 142.36C164.5 141.98 164.35 141.45 164.21 141.18C164.07 140.9 163.78 140.55 163.56 140.39C163.34 140.23 163.05 140.04 162.91 139.97C162.77 139.9 162.41 139.81 162.11 139.77C161.8 139.73 161.3 139.77 160.99 139.85Z"/>
		<path class="shp0" d="M160.19 142.02C159.91 142.15 159.48 142.51 159.23 142.83C158.97 143.14 158.78 143.46 158.79 143.52C158.81 143.59 159.46 144.12 160.25 144.7C161.03 145.29 161.73 145.74 161.8 145.72C161.86 145.7 162.09 145.35 162.29 144.94C162.5 144.52 162.68 143.95 162.71 143.59C162.74 143.18 162.69 142.84 162.55 142.57C162.43 142.33 162.18 142.09 161.92 141.98C161.68 141.88 161.3 141.8 161.08 141.8C160.86 141.8 160.46 141.9 160.19 142.02ZM165.08 144.69C164.77 144.77 164.35 144.95 164.15 145.1C163.94 145.25 163.53 145.62 163.22 145.93C162.87 146.29 162.71 146.54 162.79 146.61C162.85 146.67 163.7 147.31 164.67 148.03L166.44 149.35C167.04 148.53 167.33 148.05 167.46 147.74C167.64 147.33 167.7 146.99 167.66 146.48C167.63 146.02 167.53 145.66 167.36 145.43C167.21 145.24 166.93 144.99 166.74 144.88C166.54 144.76 166.21 144.65 166.01 144.61C165.8 144.58 165.38 144.61 165.08 144.69Z"/>
		<path class="shp1" d="M42.35 148.17C42.05 148.25 41.49 148.48 41.11 148.67C40.74 148.86 40.14 149.3 39.77 149.65C39.41 149.99 38.95 150.53 38.76 150.84C38.56 151.14 38.29 151.73 38.15 152.14C38.01 152.54 37.86 153.21 37.82 153.62C37.78 154.08 37.82 154.7 37.93 155.23C38.03 155.71 38.29 156.46 38.52 156.9C38.74 157.35 39.23 158.04 39.62 158.44C40 158.84 40.64 159.39 41.05 159.65C41.46 159.92 42.16 160.25 42.6 160.38C43.11 160.54 43.77 160.63 44.4 160.63C44.94 160.64 45.64 160.57 45.94 160.49C46.25 160.41 46.86 160.16 47.31 159.93C47.75 159.7 48.41 159.22 48.78 158.86C49.15 158.5 49.61 157.95 49.81 157.65C50.01 157.34 50.28 156.7 50.43 156.22C50.63 155.53 50.67 155.14 50.62 154.3C50.59 153.68 50.46 152.95 50.3 152.51C50.15 152.1 49.77 151.38 49.44 150.91C49.12 150.44 48.63 149.86 48.36 149.63C48.09 149.39 47.59 149.04 47.24 148.84C46.9 148.64 46.26 148.37 45.82 148.23C45.26 148.06 44.7 147.99 43.96 148C43.38 148 42.66 148.08 42.35 148.17ZM152.48 149.08L151.34 150.15C152.79 151.08 153.83 152.02 155.23 153.44C156.67 154.89 157.46 155.79 157.63 156.16C157.77 156.47 157.89 156.94 157.89 157.21C157.9 157.52 157.76 157.97 157.56 158.39C157.31 158.87 157.06 159.16 156.66 159.41C156.28 159.64 155.94 159.75 155.6 159.75C155.33 159.75 154.86 159.63 154.55 159.49C154.16 159.32 153.42 158.66 152.1 157.3C151.06 156.23 149.97 155.05 149.67 154.67C149.38 154.3 149.02 153.76 148.87 153.47L148.61 152.94C147.7 153.69 147.16 154.18 146.84 154.51L146.24 155.11C147.52 155.9 148.65 156.92 150.15 158.45C151.45 159.75 152.76 160.99 153.07 161.2C153.37 161.41 153.85 161.68 154.12 161.79C154.39 161.91 154.95 162.01 155.36 162.02C155.89 162.03 156.27 161.95 156.69 161.76C157.01 161.61 157.53 161.24 157.83 160.93C158.14 160.62 158.53 160.09 158.7 159.75C158.87 159.41 159.11 158.79 159.23 158.38L159.44 157.62L160.19 158.5L162.13 156.72C161.2 156.12 160.67 155.73 160.35 155.47C160.03 155.2 158.66 153.84 157.31 152.44C155.96 151.04 154.64 149.56 154.37 149.14C154.09 148.72 153.81 148.29 153.75 148.19C153.64 148.04 153.42 148.2 152.48 149.08Z"/>
		<path class="shp0" d="M43.7 149.88C43.39 149.96 42.81 150.25 42.41 150.53C42.02 150.8 41.48 151.3 41.23 151.64C40.97 151.98 40.65 152.51 40.51 152.82C40.37 153.12 40.21 153.71 40.14 154.12C40.08 154.53 40.07 155.14 40.12 155.48C40.17 155.82 40.36 156.38 40.53 156.72C40.7 157.06 41.08 157.56 41.38 157.84C41.68 158.12 42.17 158.44 42.48 158.56C42.89 158.72 43.28 158.77 43.96 158.74C44.59 158.71 45.07 158.61 45.45 158.42C45.76 158.27 46.25 157.94 46.56 157.68C46.86 157.43 47.28 156.93 47.5 156.59C47.71 156.25 47.99 155.67 48.11 155.29C48.23 154.92 48.33 154.25 48.33 153.81C48.33 153.37 48.24 152.72 48.13 152.38C48.02 152.04 47.71 151.49 47.45 151.15C47.15 150.74 46.75 150.41 46.31 150.18C45.91 149.97 45.36 149.81 44.95 149.78C44.58 149.75 44.02 149.79 43.7 149.88Z"/>
		<path class="shp1" d="M55.36 158.53C54.98 158.6 54.27 158.84 53.78 159.08C53.19 159.36 52.63 159.75 52.17 160.22C51.78 160.61 51.28 161.27 51.06 161.67C50.84 162.08 50.58 162.78 50.47 163.22C50.37 163.66 50.28 164.29 50.28 164.61C50.28 164.94 50.34 165.49 50.42 165.85C50.49 166.21 50.72 166.86 50.93 167.31C51.19 167.87 51.57 168.37 52.19 168.98C52.73 169.51 53.37 170 53.87 170.25C54.31 170.47 54.98 170.74 55.36 170.84C55.73 170.94 56.46 171.02 56.97 171.02C57.48 171.02 58.15 170.96 58.45 170.89C58.76 170.81 59.29 170.62 59.63 170.46C59.97 170.3 60.53 169.95 60.87 169.69C61.21 169.42 61.75 168.82 62.07 168.35C62.4 167.88 62.77 167.19 62.9 166.81C63.03 166.44 63.18 165.8 63.22 165.39C63.28 164.88 63.24 164.34 63.1 163.72C62.99 163.2 62.72 162.45 62.5 162.04C62.28 161.63 61.74 160.93 61.3 160.49C60.71 159.89 60.22 159.54 59.44 159.16C58.8 158.84 58.07 158.59 57.59 158.52C57.14 158.45 56.61 158.4 56.41 158.41C56.2 158.41 55.73 158.47 55.36 158.53ZM140.1 159.55L138.86 160.43C140.31 161.84 141.33 163.14 142.48 164.77C143.49 166.2 144.55 167.73 144.82 168.17C145.1 168.62 145.43 169.3 145.57 169.69L145.82 170.4C149.76 167.6 150.89 166.76 150.88 166.71C150.88 166.66 150.74 166.03 150.57 165.29C150.41 164.56 150.25 163.96 150.22 163.96C150.18 163.96 149.99 164.23 149.78 164.55C149.58 164.87 148.91 165.65 148.3 166.29C147.68 166.92 147.15 167.44 147.12 167.44C147.09 167.44 146.02 165.97 144.75 164.18C143.48 162.39 142.24 160.51 141.99 160C141.75 159.49 141.55 159 141.56 158.92C141.57 158.84 141.52 158.75 141.46 158.72C141.39 158.69 140.78 159.06 140.1 159.55Z"/>
		<path class="shp0" d="M55.85 160.3C55.61 160.38 55.17 160.62 54.86 160.83C54.55 161.03 54.08 161.5 53.81 161.87C53.54 162.24 53.21 162.82 53.09 163.16C52.96 163.5 52.81 164.08 52.75 164.46C52.68 164.88 52.68 165.42 52.76 165.88C52.83 166.29 52.99 166.85 53.12 167.12C53.25 167.39 53.6 167.86 53.89 168.16C54.19 168.46 54.73 168.85 55.11 169.01C55.68 169.27 55.93 169.31 56.66 169.27C57.25 169.24 57.72 169.12 58.14 168.91C58.48 168.74 59 168.36 59.3 168.05C59.6 167.74 60 167.19 60.19 166.81C60.37 166.44 60.59 165.82 60.68 165.45C60.78 165.02 60.81 164.47 60.76 163.96C60.71 163.5 60.53 162.85 60.34 162.43C60.13 161.98 59.76 161.47 59.38 161.12C59.02 160.79 58.5 160.46 58.14 160.34C57.8 160.22 57.24 160.13 56.9 160.13C56.56 160.14 56.09 160.21 55.85 160.3Z"/>
		<path class="shp1" d="M135.17 162.78C134.83 162.88 134.24 163.07 133.87 163.22C133.5 163.37 132.85 163.69 132.45 163.94C132.04 164.19 131.4 164.7 131.02 165.08C130.64 165.45 130.16 166.07 129.95 166.44C129.74 166.81 129.47 167.43 129.34 167.8C129.2 168.23 129.12 168.85 129.12 169.47C129.12 170.13 129.21 170.75 129.38 171.33C129.53 171.81 129.86 172.53 130.13 172.94C130.39 173.35 130.9 173.95 131.25 174.27C131.6 174.6 132.26 175.04 132.72 175.26C133.41 175.58 133.75 175.66 134.61 175.71C135.19 175.73 135.97 175.69 136.35 175.62C136.72 175.54 137.42 175.29 137.89 175.06C138.37 174.83 139.1 174.39 139.5 174.09C139.91 173.78 140.43 173.3 140.65 173.02L141.05 172.51C140.43 171.09 140.22 170.64 140.19 170.6C140.15 170.55 139.95 170.81 139.74 171.17C139.53 171.53 139.08 172.07 138.75 172.37C138.42 172.67 137.78 173.09 137.34 173.3C136.67 173.62 136.39 173.68 135.67 173.68C134.99 173.67 134.64 173.6 134.09 173.34C133.7 173.15 133.12 172.75 132.82 172.45C132.51 172.14 132.09 171.54 131.89 171.11C131.69 170.69 131.46 170.01 131.39 169.6C131.31 169.19 131.28 168.66 131.33 168.42C131.37 168.18 131.48 167.74 131.58 167.43C131.68 167.11 132 166.59 132.35 166.21C132.68 165.84 133.21 165.42 133.56 165.25C133.9 165.09 134.57 164.87 135.05 164.77C135.52 164.67 136.12 164.59 136.38 164.58C136.63 164.58 136.84 164.57 136.85 164.55C136.85 164.53 136.65 164.09 136.41 163.56C136.17 163.03 135.93 162.6 135.88 162.61C135.83 162.61 135.51 162.69 135.17 162.78ZM66.73 165.17L65.92 166.13C67.38 166.28 68.14 166.41 68.54 166.52C68.95 166.63 69.4 166.77 69.54 166.84C69.77 166.95 69.72 167.1 68.51 169.95C67.8 171.59 66.99 173.44 66.69 174.06C66.4 174.67 65.94 175.45 65.66 175.79L65.17 176.41L68.09 177.65C68.31 176.4 68.51 175.67 68.66 175.23C68.82 174.79 69.52 173.12 70.22 171.52C70.92 169.92 71.56 168.43 71.66 168.2L71.83 167.8C72.83 168.33 73.41 168.76 73.77 169.1L74.41 169.72L76.31 167.99C69.81 165.17 67.84 164.32 67.73 164.28C67.6 164.22 67.3 164.49 66.73 165.17ZM78.93 168.98C78.97 169.08 78.95 169.65 78.89 170.25C78.82 170.86 78.37 172.77 77.84 174.67C77.34 176.51 76.83 178.27 76.72 178.58C76.61 178.88 76.35 179.43 76.15 179.78C75.89 180.25 75.83 180.45 75.94 180.49C76.03 180.52 77.05 180.81 78.2 181.14C79.94 181.62 80.49 181.73 81.36 181.73C82.05 181.73 82.63 181.66 83.03 181.52C83.37 181.4 83.87 181.12 84.14 180.9C84.41 180.68 84.76 180.22 84.91 179.88C85.09 179.49 85.2 179.02 85.2 178.64C85.2 178.25 85.09 177.79 84.91 177.4C84.75 177.06 84.45 176.57 84.23 176.32L83.84 175.85C84.46 175.66 84.84 175.45 85.08 175.26C85.32 175.06 85.64 174.66 85.79 174.36C85.97 173.99 86.06 173.59 86.06 173.13C86.06 172.73 85.97 172.24 85.84 171.95C85.71 171.68 85.34 171.21 85 170.9C84.67 170.6 84.17 170.26 83.9 170.14C83.63 170.02 82.47 169.67 81.33 169.36C80.19 169.05 79.16 168.79 79.05 168.79C78.92 168.79 78.87 168.86 78.93 168.98ZM114.3 170.37C113.52 170.55 112.87 170.71 112.85 170.73C112.83 170.76 112.98 171.09 113.18 171.49C113.37 171.88 113.65 172.59 113.79 173.07C113.93 173.54 114.36 175.33 114.75 177.03C115.32 179.55 115.45 180.35 115.46 181.33C115.48 182.32 115.51 182.54 115.67 182.53C115.77 182.53 117.13 182.23 118.7 181.87L121.55 181.22C121.87 179.41 121.97 178.76 121.98 178.61C121.98 178.34 121.94 178.35 121.08 178.86C120.59 179.15 119.8 179.57 119.32 179.79C118.84 180.01 118.29 180.2 118.08 180.22L117.72 180.25C116.18 173.59 116.02 172.68 115.96 171.49C115.92 170.69 115.85 170.04 115.81 170.04C115.76 170.05 115.09 170.2 114.3 170.37Z"/>
		<path class="shp0" d="M81.19 170.8C81.15 170.89 80.92 171.71 80.68 172.63C80.44 173.55 80.27 174.33 80.32 174.37C80.36 174.4 80.82 174.45 81.34 174.47C81.86 174.5 82.5 174.45 82.76 174.38C83.01 174.3 83.36 174.07 83.53 173.87C83.76 173.59 83.84 173.35 83.84 172.91C83.85 172.46 83.76 172.2 83.5 171.83C83.3 171.54 82.91 171.22 82.6 171.06C82.29 170.92 81.87 170.76 81.65 170.71C81.38 170.66 81.24 170.68 81.19 170.8Z"/>
		<path class="shp1" d="M93.27 172.22C93.11 172.62 92.44 173.92 91.77 175.11C91.11 176.3 90.04 178.21 89.4 179.36C88.76 180.5 87.94 181.83 87.59 182.3C87.05 183.01 86.97 183.17 87.15 183.21C87.27 183.24 87.98 183.3 88.73 183.35L90.09 183.43C90.24 182.64 90.43 182.08 90.62 181.67C90.93 180.99 90.99 180.92 91.33 180.93C91.54 180.93 92.68 181.02 93.87 181.11C95.06 181.21 96.08 181.3 96.13 181.3C96.18 181.3 96.32 181.59 96.43 181.95C96.55 182.31 96.64 182.89 96.65 183.25C96.65 183.72 96.71 183.92 96.84 183.96C96.94 183.98 97.7 184.05 98.51 184.1L100 184.19C99.53 183.44 99.25 182.94 99.09 182.6C98.93 182.26 98.16 180.09 97.38 177.77C96.6 175.46 95.85 173.14 95.72 172.63C95.58 172.12 95.46 171.69 95.44 171.68C95.43 171.67 95 171.63 94.49 171.58L93.56 171.5L93.27 172.22ZM104.3 171.69C103.14 171.8 102.91 171.86 102.96 172.01C102.99 172.11 103.14 172.59 103.28 173.07C103.46 173.66 103.63 175 103.84 177.4C104.01 179.31 104.15 181.23 104.15 181.67C104.15 182.11 104.1 182.78 104.03 183.16C103.96 183.53 103.92 183.86 103.93 183.88C103.95 183.9 105.13 183.82 106.56 183.71C107.99 183.6 109.38 183.47 109.65 183.43L110.13 183.34C110.76 181.33 110.92 180.73 110.89 180.71C110.86 180.7 110.35 180.87 109.75 181.11C109.16 181.35 108.22 181.65 107.68 181.79C107.13 181.93 106.63 182.05 106.56 182.05C106.49 182.05 106.3 180.33 106.09 177.86C105.8 174.36 105.76 173.53 105.87 172.72C105.95 172.2 106.01 171.71 106.01 171.64C106.01 171.57 105.94 171.53 105.85 171.54C105.77 171.55 105.07 171.62 104.3 171.69Z"/>
		<path class="shp0" d="M93.03 177.09C92.47 178.18 92.03 179.1 92.04 179.13C92.06 179.16 92.85 179.24 93.81 179.32C94.76 179.39 95.56 179.44 95.58 179.42C95.6 179.4 95.34 178.42 95.01 177.24C94.59 175.79 94.34 175.11 94.23 175.11C94.13 175.11 93.61 175.97 93.03 177.09ZM79.88 175.54C79.88 175.58 79.63 176.51 79.32 177.62C79.01 178.72 78.76 179.71 78.76 179.81C78.76 179.94 78.97 180.05 79.38 180.15C79.72 180.24 80.29 180.31 80.65 180.31C81.08 180.31 81.49 180.22 81.85 180.03C82.15 179.88 82.5 179.61 82.63 179.44C82.75 179.27 82.89 178.94 82.93 178.7C82.97 178.46 82.97 178.06 82.93 177.8C82.88 177.51 82.67 177.14 82.38 176.82C82.11 176.52 81.57 176.14 81.05 175.89C80.58 175.67 80.12 175.48 80.03 175.48C79.95 175.48 79.88 175.51 79.88 175.54Z"/>
	</g>
</svg>