<svg version="1.2" baseProfile="tiny-ps" xmlns="http://www.w3.org/2000/svg" viewBox="0 0 200 200" width="200" height="200">
	<title>NE_Revolution_Logos_Crest_Primary_RGB-6183c8994364</title>
	<style>
		tspan { white-space:pre }
		.shp0 { fill: #0a2240 } 
		.shp1 { fill: #ffffff } 
		.shp2 { fill: #ce0e2d } 
	</style>
	<g>
		<path class="shp0" d="M99.81 0.01C101.74 0 103.74 0.03 104.27 0.07C104.8 0.1 105.76 0.17 106.41 0.2C107.06 0.24 108.13 0.32 108.78 0.38C109.43 0.43 110.63 0.55 111.44 0.64C112.26 0.74 113.66 0.92 114.55 1.05C115.44 1.17 116.87 1.4 117.72 1.55C118.58 1.71 119.93 1.97 120.73 2.13C121.53 2.3 123.09 2.66 124.21 2.94C125.32 3.21 126.82 3.61 127.55 3.82C128.27 4.02 129.55 4.41 130.38 4.67C131.22 4.94 132.48 5.36 133.19 5.61C133.89 5.86 134.83 6.2 135.28 6.36C135.73 6.53 136.62 6.88 137.27 7.14C137.92 7.4 139.02 7.86 139.7 8.15C140.39 8.45 141.5 8.94 142.17 9.25C142.84 9.56 144.14 10.2 145.07 10.67C146 11.14 147.25 11.79 147.84 12.12C148.43 12.44 149.5 13.05 150.2 13.45C150.91 13.86 152.05 14.55 152.73 14.98C153.42 15.41 154.53 16.12 155.2 16.57C155.87 17.01 156.87 17.69 157.43 18.08C157.98 18.47 159.05 19.25 159.79 19.81C160.53 20.36 161.72 21.28 162.42 21.85C163.13 22.41 164.16 23.26 164.72 23.74C165.28 24.21 166.02 24.86 166.37 25.18C166.73 25.49 167.58 26.27 168.26 26.91C168.95 27.55 170.29 28.86 171.24 29.82C172.19 30.78 173.43 32.08 174.01 32.72C174.58 33.35 175.4 34.28 175.83 34.78C176.26 35.28 177.04 36.2 177.56 36.83C178.07 37.46 178.89 38.5 179.38 39.13C179.86 39.76 180.64 40.79 181.1 41.42C181.56 42.06 182.45 43.35 183.09 44.29C183.73 45.24 184.6 46.58 185.02 47.27C185.45 47.95 186.14 49.09 186.55 49.8C186.96 50.5 187.62 51.67 188.01 52.4C188.41 53.12 189.15 54.56 189.67 55.6C190.18 56.64 190.88 58.1 191.21 58.85C191.54 59.59 192.05 60.76 192.34 61.44C192.63 62.13 193.09 63.29 193.37 64.01C193.65 64.73 194.1 65.97 194.37 66.75C194.65 67.53 195.08 68.83 195.34 69.65C195.6 70.47 195.98 71.73 196.19 72.45C196.39 73.18 196.79 74.68 197.06 75.79C197.34 76.91 197.7 78.47 197.87 79.27C198.03 80.07 198.29 81.42 198.45 82.28C198.6 83.13 198.83 84.56 198.95 85.45C199.08 86.34 199.26 87.74 199.36 88.56C199.45 89.37 199.57 90.57 199.62 91.22C199.68 91.87 199.76 92.94 199.8 93.59C199.84 94.24 199.9 95.22 199.93 95.76C199.97 96.31 200 98.19 200 99.95C200 101.7 199.97 103.61 199.93 104.19C199.9 104.76 199.84 105.76 199.8 106.41C199.76 107.06 199.68 108.13 199.62 108.78C199.57 109.43 199.45 110.63 199.36 111.44C199.26 112.26 199.08 113.66 198.95 114.55C198.83 115.44 198.6 116.87 198.45 117.72C198.29 118.58 198.03 119.93 197.87 120.73C197.7 121.53 197.34 123.09 197.06 124.21C196.79 125.32 196.39 126.82 196.18 127.55C195.98 128.27 195.59 129.55 195.33 130.38C195.06 131.22 194.64 132.48 194.39 133.19C194.14 133.89 193.8 134.83 193.64 135.28C193.47 135.73 193.12 136.62 192.86 137.27C192.6 137.92 192.14 139.02 191.85 139.7C191.55 140.39 191.06 141.5 190.75 142.17C190.44 142.84 189.8 144.14 189.33 145.07C188.86 146 188.21 147.25 187.88 147.84C187.56 148.43 186.95 149.5 186.55 150.2C186.14 150.91 185.45 152.05 185.02 152.73C184.59 153.42 183.88 154.53 183.43 155.2C182.99 155.87 182.31 156.87 181.92 157.43C181.53 157.98 180.75 159.05 180.19 159.79C179.64 160.53 178.72 161.72 178.15 162.42C177.59 163.13 176.74 164.16 176.26 164.72C175.79 165.28 175.14 166.02 174.82 166.37C174.51 166.73 173.73 167.58 173.09 168.26C172.45 168.95 171.14 170.29 170.18 171.24C169.22 172.19 167.92 173.43 167.28 174.01C166.65 174.58 165.72 175.4 165.22 175.83C164.72 176.26 163.8 177.04 163.17 177.56C162.54 178.07 161.5 178.89 160.87 179.38C160.24 179.86 159.22 180.63 158.61 181.07C158 181.52 156.8 182.36 155.94 182.93C155.09 183.51 153.89 184.3 153.27 184.69C152.66 185.07 151.67 185.68 151.08 186.03C150.49 186.39 149.3 187.07 148.45 187.54C147.59 188.02 146.01 188.85 144.94 189.4C143.86 189.94 142.26 190.71 141.39 191.1C140.52 191.5 139.24 192.05 138.56 192.34C137.87 192.63 136.71 193.09 135.99 193.37C135.27 193.65 134.03 194.1 133.25 194.37C132.47 194.65 131.17 195.08 130.35 195.34C129.53 195.6 128.27 195.98 127.55 196.19C126.82 196.39 125.32 196.79 124.21 197.06C123.09 197.34 121.53 197.7 120.73 197.87C119.93 198.03 118.58 198.29 117.72 198.45C116.87 198.6 115.44 198.83 114.55 198.95C113.66 199.08 112.26 199.26 111.44 199.36C110.63 199.45 109.43 199.57 108.78 199.62C108.13 199.68 107.11 199.75 106.52 199.79C105.92 199.83 104.86 199.89 104.15 199.94C103.32 199.99 101.61 200 99.26 199.98C97.27 199.96 95.16 199.91 94.56 199.87C93.97 199.83 92.86 199.75 92.1 199.69C91.34 199.64 90 199.51 89.13 199.42C88.26 199.33 86.89 199.16 86.09 199.05C85.29 198.94 84 198.74 83.22 198.61C82.44 198.48 81.26 198.27 80.59 198.14C79.92 198 78.83 197.78 78.16 197.63C77.49 197.48 76.06 197.14 74.98 196.86C73.91 196.59 72.45 196.19 71.74 195.98C71.04 195.78 69.84 195.41 69.07 195.16C68.31 194.92 66.98 194.46 66.1 194.15C65.23 193.83 63.88 193.32 63.1 193.01C62.32 192.71 61.13 192.22 60.47 191.93C59.8 191.64 58.63 191.12 57.87 190.77C57.1 190.41 55.97 189.87 55.33 189.55C54.7 189.24 53.7 188.72 53.11 188.4C52.51 188.09 51.43 187.49 50.71 187.08C49.98 186.67 48.77 185.96 48.01 185.49C47.25 185.03 45.93 184.19 45.07 183.63C44.22 183.07 42.86 182.14 42.07 181.57C41.27 181 40.17 180.2 39.64 179.79C39.1 179.38 38.2 178.68 37.64 178.23C37.09 177.79 36.17 177.04 35.62 176.57C35.06 176.1 34.13 175.29 33.56 174.78C32.98 174.27 31.82 173.2 30.97 172.39C30.12 171.59 28.81 170.29 28.06 169.51C27.32 168.73 26.29 167.64 25.79 167.08C25.29 166.52 24.5 165.63 24.03 165.09C23.57 164.55 22.86 163.7 22.45 163.2C22.04 162.7 21.31 161.78 20.81 161.14C20.32 160.51 19.5 159.42 18.98 158.71C18.47 158 17.61 156.77 17.07 155.98C16.53 155.18 15.85 154.14 15.55 153.68C15.25 153.22 14.7 152.32 14.32 151.69C13.93 151.06 13.31 149.99 12.93 149.32C12.55 148.66 11.95 147.56 11.59 146.89C11.24 146.23 10.55 144.87 10.07 143.89C9.59 142.91 8.89 141.42 8.52 140.58C8.15 139.75 7.55 138.3 7.17 137.37C6.8 136.44 6.24 134.97 5.92 134.1C5.61 133.23 5.15 131.89 4.9 131.13C4.65 130.37 4.25 129.07 4.02 128.26C3.78 127.44 3.45 126.24 3.28 125.59C3.11 124.94 2.82 123.77 2.63 122.99C2.45 122.21 2.17 120.9 2 120.09C1.83 119.27 1.58 117.87 1.43 116.98C1.28 116.09 1.06 114.71 0.95 113.91C0.84 113.11 0.67 111.74 0.58 110.87C0.49 110 0.36 108.68 0.31 107.93C0.25 107.19 0.17 106.07 0.13 105.44C0.08 104.8 0.04 102.71 0.02 100.78C0 98.56 0.01 96.77 0.06 95.91C0.11 95.17 0.17 94.08 0.21 93.48C0.25 92.89 0.32 91.87 0.38 91.22C0.43 90.57 0.55 89.37 0.64 88.56C0.74 87.74 0.92 86.33 1.05 85.42C1.18 84.51 1.41 83.08 1.56 82.24C1.71 81.41 1.97 80.07 2.13 79.27C2.3 78.47 2.65 76.97 2.9 75.93C3.16 74.89 3.59 73.25 3.87 72.28C4.15 71.32 4.53 70.06 4.71 69.48C4.9 68.9 5.24 67.89 5.47 67.22C5.7 66.55 6.07 65.52 6.29 64.92C6.51 64.33 6.94 63.23 7.24 62.49C7.54 61.75 8.06 60.52 8.39 59.76C8.73 59 9.32 57.7 9.7 56.89C10.09 56.07 10.78 54.7 11.22 53.85C11.67 52.99 12.33 51.78 12.68 51.15C13.04 50.52 13.69 49.39 14.14 48.65C14.58 47.91 15.22 46.87 15.55 46.35C15.89 45.83 16.46 44.95 16.84 44.4C17.21 43.84 17.85 42.91 18.26 42.34C18.66 41.76 19.41 40.74 19.91 40.07C20.41 39.41 21.28 38.28 21.85 37.58C22.41 36.87 23.26 35.84 23.74 35.28C24.21 34.72 24.86 33.98 25.18 33.63C25.49 33.27 26.27 32.42 26.91 31.74C27.55 31.05 28.86 29.71 29.82 28.76C30.78 27.81 32.05 26.6 32.65 26.06C33.24 25.52 33.97 24.87 34.27 24.6C34.56 24.34 35.39 23.64 36.1 23.05C36.8 22.46 37.97 21.52 38.69 20.96C39.42 20.4 40.6 19.5 41.32 18.97C42.05 18.45 43.57 17.4 44.7 16.65C45.83 15.89 47.23 14.99 47.81 14.64C48.38 14.28 49.46 13.65 50.2 13.22C50.95 12.79 52.07 12.16 52.7 11.82C53.33 11.48 54.67 10.79 55.67 10.3C56.67 9.8 58.01 9.16 58.64 8.88C59.27 8.59 60.46 8.08 61.28 7.73C62.09 7.39 63.45 6.85 64.28 6.53C65.12 6.21 66.38 5.75 67.08 5.5C67.79 5.26 69.19 4.8 70.19 4.49C71.19 4.18 72.51 3.79 73.13 3.62C73.74 3.45 74.79 3.18 75.46 3.01C76.12 2.85 77.28 2.57 78.02 2.4C78.76 2.24 80.01 1.98 80.79 1.83C81.57 1.68 82.75 1.47 83.42 1.36C84.09 1.24 85.31 1.06 86.12 0.95C86.94 0.84 88.16 0.68 88.83 0.61C89.49 0.54 90.57 0.43 91.22 0.38C91.87 0.32 92.97 0.24 93.65 0.2C94.34 0.16 95.22 0.1 95.61 0.07C96 0.04 97.89 0.01 99.81 0.01Z"/>
		<path class="shp1" d="M100.24 4.37C100.38 4.38 101.46 4.4 102.63 4.42C103.8 4.44 105.44 4.5 106.28 4.56C107.12 4.61 108.3 4.71 108.91 4.76C109.53 4.82 110.56 4.93 111.21 5C111.86 5.08 112.92 5.21 113.57 5.31C114.22 5.4 115.45 5.59 116.31 5.74C117.16 5.88 118.33 6.1 118.91 6.21C119.48 6.33 120.56 6.56 121.3 6.72C122.05 6.89 123.25 7.18 123.97 7.37C124.69 7.55 125.97 7.9 126.81 8.14C127.64 8.39 129.02 8.81 129.88 9.1C130.73 9.38 131.92 9.78 132.51 10C133.11 10.21 134.06 10.57 134.64 10.79C135.21 11.01 136.23 11.42 136.9 11.7C137.57 11.98 138.78 12.51 139.6 12.88C140.42 13.25 141.82 13.92 142.72 14.37C143.63 14.82 144.99 15.54 145.76 15.96C146.53 16.38 147.62 16.99 148.18 17.32C148.73 17.64 149.75 18.26 150.44 18.69C151.13 19.12 152.42 19.96 153.31 20.56C154.2 21.15 155.45 22.02 156.08 22.48C156.71 22.94 157.82 23.77 158.54 24.33C159.26 24.9 160.49 25.89 161.27 26.54C162.05 27.2 163.04 28.05 163.47 28.43C163.9 28.81 164.85 29.68 165.59 30.38C166.33 31.07 167.53 32.24 168.26 32.99C168.99 33.73 170.05 34.86 170.63 35.49C171.2 36.12 172.13 37.17 172.69 37.81C173.24 38.46 174.13 39.53 174.65 40.18C175.17 40.83 175.93 41.8 176.34 42.34C176.75 42.87 177.48 43.86 177.96 44.53C178.43 45.2 179.35 46.54 179.99 47.5C180.62 48.47 181.56 49.94 182.06 50.78C182.56 51.61 183.32 52.93 183.76 53.71C184.19 54.49 185.04 56.12 185.64 57.33C186.25 58.53 187.06 60.25 187.46 61.14C187.85 62.03 188.43 63.41 188.76 64.21C189.08 65.01 189.58 66.32 189.87 67.12C190.16 67.92 190.63 69.27 190.91 70.12C191.19 70.98 191.61 72.36 191.86 73.19C192.1 74.03 192.45 75.31 192.64 76.03C192.82 76.75 193.14 78.09 193.34 79C193.54 79.91 193.8 81.14 193.91 81.74C194.03 82.33 194.21 83.36 194.32 84.03C194.43 84.7 194.6 85.78 194.7 86.43C194.79 87.08 194.94 88.29 195.03 89.13C195.13 89.96 195.25 91.2 195.3 91.86C195.36 92.53 195.44 93.63 195.48 94.29C195.52 94.96 195.58 96.52 195.6 97.75C195.63 98.99 195.63 101.01 195.6 102.25C195.58 103.48 195.52 105.04 195.48 105.71C195.44 106.37 195.36 107.47 195.3 108.14C195.25 108.8 195.13 110.04 195.03 110.87C194.94 111.71 194.79 112.92 194.7 113.57C194.6 114.22 194.41 115.45 194.26 116.31C194.12 117.16 193.9 118.33 193.79 118.91C193.67 119.48 193.44 120.56 193.28 121.3C193.11 122.05 192.82 123.25 192.63 123.97C192.45 124.69 192.1 125.97 191.86 126.81C191.61 127.64 191.19 129.02 190.9 129.88C190.62 130.73 190.22 131.92 190 132.51C189.79 133.11 189.43 134.06 189.21 134.64C188.99 135.21 188.58 136.23 188.3 136.9C188.02 137.57 187.49 138.78 187.12 139.6C186.75 140.42 186.08 141.82 185.63 142.72C185.18 143.63 184.46 144.99 184.04 145.76C183.62 146.53 183.01 147.62 182.68 148.18C182.36 148.73 181.74 149.75 181.31 150.44C180.88 151.13 180.04 152.42 179.44 153.31C178.85 154.2 177.93 155.51 177.42 156.21C176.9 156.92 176.14 157.94 175.72 158.47C175.3 159.01 174.64 159.85 174.24 160.33C173.85 160.81 173.12 161.68 172.63 162.26C172.13 162.83 171.25 163.83 170.66 164.48C170.07 165.13 168.7 166.55 167.63 167.63C166.55 168.7 165.15 170.06 164.52 170.63C163.88 171.2 162.83 172.13 162.19 172.69C161.54 173.24 160.47 174.13 159.82 174.65C159.17 175.17 158.2 175.93 157.66 176.34C157.13 176.75 156.14 177.48 155.47 177.96C154.8 178.43 153.46 179.35 152.5 179.99C151.53 180.62 150.06 181.56 149.22 182.06C148.39 182.56 147.07 183.32 146.29 183.76C145.51 184.19 143.88 185.04 142.67 185.64C141.47 186.25 139.75 187.06 138.86 187.46C137.97 187.85 136.6 188.43 135.82 188.74C135.04 189.06 133.73 189.56 132.92 189.86C132.1 190.15 130.73 190.63 129.88 190.91C129.02 191.19 127.64 191.61 126.81 191.86C125.97 192.1 124.69 192.45 123.97 192.64C123.25 192.82 121.89 193.14 120.97 193.35C120.04 193.56 118.55 193.86 117.66 194.02C116.77 194.19 115.34 194.43 114.48 194.56C113.63 194.69 112.28 194.87 111.48 194.96C110.68 195.06 109.53 195.18 108.91 195.24C108.3 195.29 107.08 195.39 106.21 195.45C105.34 195.51 103.59 195.57 102.32 195.6C101.05 195.62 99 195.63 97.76 195.6C96.52 195.58 94.96 195.52 94.29 195.48C93.63 195.44 92.53 195.36 91.86 195.3C91.2 195.25 89.96 195.13 89.13 195.03C88.29 194.94 87.08 194.79 86.43 194.7C85.78 194.6 84.61 194.42 83.83 194.29C83.05 194.16 81.73 193.92 80.89 193.75C80.06 193.58 78.72 193.29 77.92 193.1C77.12 192.91 75.85 192.59 75.08 192.39C74.32 192.19 73.05 191.82 72.25 191.58C71.45 191.34 70.22 190.95 69.51 190.72C68.81 190.48 67.58 190.05 66.78 189.75C65.98 189.46 64.69 188.95 63.91 188.64C63.13 188.32 61.96 187.83 61.31 187.54C60.66 187.25 59.48 186.71 58.68 186.33C57.88 185.95 56.62 185.32 55.87 184.93C55.13 184.54 54.07 183.97 53.51 183.66C52.95 183.35 51.94 182.76 51.25 182.35C50.56 181.94 49.5 181.29 48.89 180.91C48.27 180.52 47.16 179.79 46.42 179.29C45.68 178.78 44.51 177.96 43.82 177.46C43.13 176.96 42.03 176.12 41.36 175.6C40.69 175.08 39.53 174.15 38.79 173.53C38.05 172.91 37.11 172.11 36.7 171.74C36.29 171.38 35.44 170.6 34.81 170.02C34.18 169.43 32.88 168.17 31.93 167.21C30.99 166.25 29.75 164.96 29.2 164.35C28.64 163.74 27.82 162.81 27.38 162.29C26.93 161.77 26.23 160.93 25.82 160.43C25.41 159.93 24.68 159.02 24.21 158.41C23.73 157.79 22.95 156.75 22.46 156.08C21.98 155.41 21.15 154.22 20.62 153.44C20.1 152.66 19.44 151.68 19.17 151.25C18.9 150.82 18.33 149.9 17.91 149.19C17.48 148.48 16.76 147.24 16.31 146.42C15.85 145.6 15.21 144.4 14.87 143.75C14.53 143.1 13.95 141.92 13.57 141.12C13.19 140.32 12.63 139.08 12.31 138.35C11.99 137.63 11.47 136.37 11.14 135.55C10.81 134.73 10.34 133.5 10.09 132.82C9.84 132.13 9.43 130.93 9.17 130.15C8.91 129.37 8.51 128.06 8.26 127.25C8.02 126.43 7.63 125 7.39 124.07C7.15 123.14 6.82 121.76 6.65 121C6.48 120.24 6.19 118.83 6.01 117.86C5.83 116.89 5.57 115.39 5.44 114.52C5.31 113.64 5.13 112.28 5.04 111.48C4.94 110.68 4.82 109.53 4.76 108.91C4.71 108.3 4.61 107.08 4.55 106.21C4.49 105.34 4.43 103.59 4.4 102.32C4.38 101.05 4.37 99 4.4 97.76C4.42 96.52 4.48 94.96 4.52 94.29C4.56 93.63 4.64 92.53 4.7 91.86C4.75 91.2 4.87 89.96 4.97 89.13C5.06 88.29 5.21 87.08 5.3 86.43C5.4 85.78 5.59 84.54 5.74 83.68C5.89 82.81 6.12 81.57 6.25 80.91C6.38 80.25 6.66 78.98 6.87 78.09C7.07 77.2 7.45 75.71 7.7 74.78C7.95 73.85 8.34 72.5 8.57 71.78C8.79 71.05 9.19 69.82 9.46 69.04C9.72 68.26 10.11 67.15 10.33 66.58C10.54 66 10.93 65 11.19 64.35C11.45 63.7 11.86 62.73 12.09 62.19C12.32 61.65 12.77 60.65 13.08 59.96C13.4 59.27 13.98 58.07 14.37 57.29C14.76 56.51 15.39 55.28 15.79 54.56C16.18 53.83 16.86 52.62 17.31 51.86C17.75 51.1 18.45 49.94 18.86 49.29C19.27 48.64 19.94 47.61 20.35 47C20.76 46.38 21.38 45.47 21.73 44.97C22.08 44.47 22.78 43.51 23.28 42.84C23.79 42.17 24.55 41.19 24.97 40.65C25.4 40.11 26.2 39.14 26.74 38.49C27.29 37.84 28.05 36.96 28.43 36.53C28.81 36.1 29.67 35.16 30.35 34.44C31.03 33.71 32.2 32.51 32.96 31.77C33.72 31.03 34.86 29.95 35.49 29.37C36.12 28.8 37.17 27.87 37.81 27.31C38.46 26.75 39.53 25.87 40.18 25.35C40.83 24.83 41.8 24.07 42.34 23.66C42.87 23.25 43.85 22.53 44.5 22.07C45.15 21.6 46.27 20.83 47 20.34C47.72 19.86 48.72 19.21 49.22 18.89C49.72 18.58 50.64 18.02 51.25 17.66C51.86 17.29 52.96 16.66 53.68 16.26C54.4 15.86 55.86 15.09 56.92 14.56C57.98 14.02 59.42 13.32 60.13 13C60.83 12.67 62.08 12.13 62.9 11.78C63.71 11.44 65.08 10.89 65.94 10.57C66.79 10.24 68.48 9.65 69.68 9.24C70.89 8.84 72.58 8.32 73.43 8.07C74.28 7.83 75.64 7.46 76.43 7.26C77.23 7.06 78.39 6.79 79 6.65C79.61 6.52 80.63 6.3 81.26 6.18C81.89 6.05 83.05 5.84 83.83 5.71C84.61 5.58 85.78 5.4 86.43 5.3C87.08 5.21 88.29 5.06 89.13 4.97C89.96 4.87 91.2 4.75 91.86 4.7C92.53 4.64 93.63 4.56 94.29 4.52C94.96 4.48 96.51 4.42 97.74 4.4C98.96 4.37 100.09 4.36 100.24 4.37Z"/>
		<path class="shp0" d="M102.16 12.96L102.19 13.32C102.21 13.51 102.32 16.36 102.43 19.65C102.54 22.94 102.63 25.63 102.62 25.63C102.61 25.64 102.01 25.67 99.97 25.74L97.01 21.44C95.39 19.08 94.03 17.15 93.99 17.15C93.95 17.15 93.94 17.42 93.96 17.91C93.98 18.33 94.06 20.28 94.13 22.25C94.2 24.22 94.24 25.85 94.21 25.87C94.18 25.89 93.62 25.93 91.76 26L91.73 25.64C91.71 25.45 91.61 22.61 91.49 19.35C91.38 16.08 91.31 13.38 91.34 13.36C91.37 13.34 92.07 13.3 94.43 13.23L97.13 17.22C98.62 19.42 99.85 21.23 99.88 21.24C99.91 21.26 99.95 21.26 99.96 21.25C99.98 21.24 99.92 19.41 99.83 17.18C99.74 14.96 99.66 13.11 99.66 13.08C99.66 13.05 99.76 13.02 99.88 13.01C100 13 100.56 12.98 102.16 12.96ZM112.93 13.6C113.52 13.62 113.99 13.68 114.35 13.77C114.65 13.85 115.09 13.99 115.33 14.08C115.57 14.17 115.99 14.38 116.27 14.54C116.55 14.71 116.97 15.02 117.21 15.24C117.45 15.45 117.77 15.81 117.93 16.04C118.09 16.26 118.33 16.67 118.46 16.95C118.59 17.23 118.76 17.68 118.83 17.96C118.9 18.24 118.96 18.47 118.95 18.48C118.94 18.49 118.44 18.59 117.83 18.7C117.21 18.82 116.67 18.92 116.62 18.93C116.56 18.94 116.49 18.8 116.41 18.53C116.35 18.31 116.21 17.96 116.11 17.76C116 17.55 115.74 17.22 115.54 17.01C115.33 16.8 114.97 16.53 114.72 16.41C114.48 16.29 114.05 16.13 113.77 16.06C113.5 15.99 113.06 15.93 112.8 15.93C112.54 15.93 112.08 16 111.78 16.07C111.49 16.15 111.09 16.29 110.9 16.39C110.72 16.49 110.34 16.8 110.05 17.08C109.65 17.49 109.48 17.71 109.27 18.16C109.12 18.48 108.94 18.95 108.87 19.21C108.79 19.53 108.75 19.93 108.75 20.46C108.75 21.08 108.78 21.34 108.9 21.74C108.99 22.02 109.17 22.45 109.3 22.69C109.44 22.93 109.72 23.29 109.93 23.5C110.14 23.7 110.47 23.97 110.67 24.09C110.87 24.21 111.22 24.37 111.44 24.45C111.74 24.56 112.05 24.61 112.59 24.63C113.16 24.65 113.43 24.64 113.74 24.55C113.96 24.48 114.3 24.35 114.48 24.26C114.67 24.16 114.99 23.91 115.19 23.71C115.4 23.5 115.62 23.2 115.7 23.04C115.77 22.88 115.82 22.74 115.8 22.73C115.78 22.72 114.9 22.55 113.84 22.35C112.78 22.16 111.91 22 111.9 21.99C111.9 21.98 111.95 21.58 112.02 21.1C112.1 20.62 112.17 20.15 112.23 19.89L115.35 20.41C117.06 20.7 118.47 20.94 118.48 20.95C118.48 20.96 118.26 22.41 117.97 24.18C117.69 25.95 117.44 27.42 117.42 27.43C117.4 27.45 117.05 27.41 116.64 27.34C116.24 27.27 115.8 27.2 115.43 27.13L115.46 26.49C115.48 26.14 115.49 25.84 115.48 25.82C115.47 25.81 115.32 25.9 115.14 26.02C114.97 26.15 114.65 26.33 114.45 26.43C114.25 26.52 113.9 26.64 113.67 26.7C113.43 26.77 112.98 26.81 112.56 26.81C112.13 26.8 111.61 26.75 111.24 26.68C110.91 26.61 110.41 26.46 110.13 26.36C109.85 26.25 109.38 26.01 109.08 25.83C108.78 25.64 108.31 25.27 108.03 24.99C107.75 24.71 107.38 24.25 107.21 23.97C107.04 23.69 106.8 23.24 106.69 22.96C106.58 22.68 106.44 22.21 106.38 21.91C106.3 21.57 106.26 21.06 106.26 20.53C106.25 20.06 106.29 19.45 106.34 19.18C106.39 18.9 106.51 18.43 106.6 18.13C106.69 17.83 106.88 17.38 107.01 17.12C107.14 16.86 107.37 16.46 107.52 16.24C107.67 16.02 108 15.62 108.27 15.36C108.53 15.1 109 14.73 109.32 14.53C109.63 14.34 110.15 14.09 110.47 13.97C110.78 13.86 111.27 13.72 111.55 13.67C111.89 13.61 112.34 13.58 112.93 13.6ZM85.68 14.17C85.71 14.23 85.83 14.74 85.96 15.31C86.09 15.87 86.18 16.35 86.16 16.36C86.14 16.38 84.94 16.64 83.49 16.95C82.04 17.25 80.84 17.51 80.82 17.53C80.81 17.55 80.94 18.18 81.11 18.93C81.29 19.68 81.44 20.3 81.45 20.31C81.46 20.32 82.51 20.11 83.79 19.85C85.08 19.59 86.16 19.38 86.21 19.38C86.26 19.38 86.38 19.77 86.53 20.44C86.67 21.03 86.76 21.51 86.75 21.52C86.74 21.53 85.67 21.76 84.37 22.02C83.07 22.28 81.99 22.52 81.96 22.54C81.94 22.57 82.05 23.21 82.2 23.97C82.4 24.95 82.52 25.36 82.58 25.37C82.64 25.38 83.85 25.15 85.28 24.85C86.71 24.55 87.9 24.33 87.91 24.35C87.93 24.37 88.04 24.88 88.16 25.48C88.28 26.08 88.36 26.59 88.33 26.61C88.31 26.63 86.6 27 84.54 27.44C82.48 27.87 80.74 28.23 80.69 28.23C80.63 28.23 80.57 28.14 80.54 28.04C80.52 27.94 79.91 25.18 79.21 21.91C78.5 18.64 77.91 15.93 77.9 15.88C77.89 15.81 78.85 15.57 81.76 14.93C85.13 14.18 85.64 14.08 85.68 14.17ZM125.35 16.75C125.39 16.75 125.93 16.93 127.68 17.56L127.48 18.11C127.37 18.42 126.6 20.61 125.77 22.99C124.93 25.37 124.27 27.33 124.29 27.35C124.31 27.36 125.48 27.8 126.9 28.31C128.31 28.82 129.48 29.25 129.49 29.26C129.5 29.26 129.35 29.76 129.15 30.37C128.96 30.97 128.77 31.47 128.73 31.46C128.69 31.46 126.98 30.85 124.92 30.11C122.85 29.36 121.16 28.74 121.15 28.74C121.14 28.73 122.07 26.03 123.2 22.74C124.34 19.44 125.3 16.75 125.35 16.75ZM66.74 19.2C66.77 19.2 67.43 22.07 68.21 25.56C68.98 29.05 69.61 31.92 69.62 31.94C69.62 31.96 69.12 32.24 67.42 33.17L66.58 32.33C66.11 31.86 64.6 30.38 63.2 29.03C61.81 27.68 60.67 26.6 60.65 26.64C60.64 26.67 60.99 28.72 61.44 31.18C61.89 33.64 62.26 35.7 62.26 35.77C62.25 35.85 61.92 36.07 61.15 36.5C60.53 36.83 60.01 37.09 59.98 37.08C59.95 37.07 57.93 34.96 55.49 32.39C53.04 29.82 51.04 27.7 51.04 27.68C51.04 27.67 51.4 27.39 51.84 27.08C52.28 26.77 52.72 26.44 53.04 26.2L56.14 29.47C57.85 31.27 59.27 32.72 59.3 32.69C59.32 32.67 58.98 30.67 58.54 28.26C58.1 25.84 57.76 23.85 57.78 23.83C57.81 23.8 58.3 23.52 58.88 23.2C59.45 22.88 59.95 22.62 59.98 22.62C60 22.62 61.49 24.04 63.28 25.79C65.08 27.53 66.55 28.92 66.56 28.88C66.57 28.83 66.11 26.85 65.53 24.48C64.95 22.1 64.49 20.15 64.5 20.14C64.51 20.13 65 19.92 65.6 19.66C66.19 19.4 66.7 19.19 66.74 19.2ZM140.87 23.3L141.08 23.43C141.2 23.49 141.65 23.75 142.1 24C142.55 24.25 143 24.51 143.32 24.71L142.36 31.41C141.61 36.7 141.39 38.11 141.31 38.09C141.26 38.08 140.74 37.8 140.16 37.47C139.57 37.14 139.1 36.83 139.1 36.78C139.1 36.74 139.19 36.06 139.29 35.28C139.4 34.5 139.47 33.84 139.44 33.81C139.42 33.79 138.42 33.22 137.22 32.55C136.02 31.88 135.03 31.33 135.01 31.33C134.99 31.33 134.46 31.77 132.68 33.29L131.54 32.66C130.64 32.18 130.41 32.02 130.47 31.96C130.52 31.91 132.88 29.95 135.71 27.59L140.87 23.3Z"/>
		<path class="shp1" d="M140.66 26.54C140.68 26.54 140.69 26.62 140.68 26.72C140.66 26.82 140.48 27.91 140.27 29.14C140.07 30.36 139.88 31.37 139.87 31.38C139.85 31.39 139.18 31.05 138.39 30.62C137.59 30.19 136.93 29.82 136.92 29.78C136.92 29.74 137.74 29 138.76 28.13C139.78 27.25 140.63 26.54 140.66 26.54Z"/>
		<path class="shp0" d="M151.82 29.97C151.86 29.99 152.35 30.38 152.9 30.85C153.46 31.31 153.97 31.74 154.03 31.8C154.14 31.9 154.11 32.16 153.48 36.7C153.1 39.33 152.81 41.53 152.82 41.57C152.83 41.62 153.74 40.58 154.84 39.28C155.94 37.97 157.14 36.55 158.17 35.33L159.13 36.12C159.97 36.8 160.08 36.92 160.01 37.02C159.96 37.08 158.13 39.27 155.94 41.89C153.75 44.51 151.94 46.65 151.91 46.65C151.88 46.66 151.42 46.28 149.93 44.98L150.02 44.22C150.07 43.8 150.36 41.42 150.66 38.94C150.97 36.46 151.2 34.42 151.18 34.41C151.16 34.4 149.89 35.93 148.35 37.82C146.8 39.7 145.53 41.25 145.51 41.25C145.49 41.25 145.07 40.92 144.56 40.5C144.06 40.09 143.65 39.72 143.66 39.68C143.66 39.64 145.48 37.42 147.7 34.76C149.95 32.08 151.78 29.94 151.82 29.97ZM47.31 30.59C47.32 30.59 47.67 30.99 48.08 31.48C48.81 32.35 48.82 32.38 48.69 32.48C48.62 32.53 47.66 33.31 46.56 34.2C45.47 35.09 44.57 35.84 44.57 35.85C44.56 35.87 44.98 36.39 45.48 37C45.99 37.61 46.42 38.12 46.45 38.12C46.48 38.12 47.33 37.42 48.34 36.56C49.35 35.71 50.22 35 50.26 35C50.3 34.99 50.63 35.35 50.99 35.81C51.35 36.26 51.63 36.65 51.62 36.66C51.61 36.68 50.76 37.4 49.74 38.25C48.71 39.11 47.87 39.82 47.87 39.84C47.87 39.86 48.29 40.38 49.73 42.13L53.98 38.63L54.19 38.88C54.3 39.01 54.64 39.41 54.94 39.77C55.36 40.25 55.48 40.43 55.41 40.49C55.37 40.53 53.99 41.64 52.35 42.97C50.7 44.29 49.33 45.37 49.29 45.37C49.25 45.37 47.43 43.22 45.24 40.58C43.05 37.94 41.24 35.75 41.23 35.7C41.21 35.65 42.49 34.55 44.24 33.1C45.92 31.72 47.3 30.59 47.31 30.59ZM100.64 32.19C101.27 32.2 102.2 32.24 102.7 32.28C103.2 32.32 104.08 32.41 104.66 32.48C105.23 32.56 106.24 32.72 106.89 32.85C107.54 32.98 108.48 33.2 108.98 33.33C109.48 33.46 110.32 33.71 110.84 33.88C111.36 34.04 112.28 34.38 112.9 34.62C113.51 34.86 114.59 35.34 115.29 35.68C116 36.02 116.94 36.51 117.39 36.76C117.83 37.02 118.64 37.51 119.18 37.87C119.71 38.22 120.49 38.75 120.9 39.05C121.31 39.36 122.01 39.9 122.45 40.27C122.9 40.64 123.65 41.31 124.13 41.76C124.61 42.21 125.4 43.01 125.89 43.54C126.37 44.07 127.11 44.93 127.52 45.44C127.92 45.95 128.54 46.78 128.89 47.27C129.23 47.77 129.82 48.69 130.2 49.32C130.58 49.96 130.88 50.48 130.89 50.49C130.89 50.5 131.21 50.43 131.6 50.34C131.99 50.25 132.61 50.12 132.98 50.07C133.36 50.02 134.04 49.95 134.5 49.93C134.99 49.9 135.74 49.92 136.26 49.96C136.76 50 137.55 50.12 138.01 50.21C138.48 50.3 139.27 50.51 139.77 50.68C140.27 50.85 141.03 51.15 141.46 51.36C141.89 51.56 142.46 51.87 142.74 52.04C143.02 52.21 143.52 52.56 143.86 52.8C144.19 53.05 144.72 53.48 145.03 53.75C145.34 54.03 145.88 54.59 146.24 55C146.59 55.41 147.12 56.1 147.41 56.55C147.71 57 148.14 57.74 148.36 58.2C148.59 58.67 148.92 59.5 149.1 60.04C149.28 60.59 149.5 61.46 149.6 61.97C149.73 62.66 149.79 63.21 149.81 64.15C149.84 64.95 149.82 65.67 149.77 66.17C149.72 66.6 149.6 67.3 149.51 67.72C149.42 68.15 149.33 68.58 149.31 68.67C149.28 68.82 149.33 68.87 149.74 69.1C150 69.25 150.52 69.56 150.91 69.8C151.3 70.05 152.02 70.52 152.5 70.86C152.98 71.19 153.82 71.82 154.36 72.26C154.89 72.69 155.76 73.44 156.28 73.92C156.8 74.4 157.62 75.21 158.09 75.73C158.57 76.25 159.3 77.1 159.72 77.62C160.14 78.14 160.74 78.93 161.05 79.37C161.37 79.82 161.87 80.56 162.16 81.03C162.45 81.49 162.93 82.31 163.22 82.85C163.52 83.39 163.96 84.27 164.21 84.81C164.46 85.35 164.84 86.21 165.04 86.73C165.25 87.25 165.55 88.09 165.72 88.59C165.89 89.09 166.13 89.9 166.26 90.38C166.39 90.86 166.58 91.62 166.68 92.07C166.78 92.51 166.93 93.3 167.02 93.82C167.1 94.34 167.22 95.18 167.28 95.68C167.34 96.18 167.42 97.17 167.46 97.87C167.51 98.63 167.52 99.72 167.49 100.54C167.47 101.3 167.4 102.4 167.35 102.97C167.29 103.55 167.19 104.43 167.11 104.93C167.04 105.43 166.9 106.22 166.81 106.68C166.72 107.15 166.52 108 166.37 108.58C166.22 109.15 165.91 110.17 165.69 110.84C165.47 111.51 165.12 112.46 164.91 112.96C164.71 113.47 164.23 114.51 163.84 115.29C163.46 116.07 162.89 117.12 162.59 117.62C162.29 118.12 161.83 118.85 161.57 119.24C161.3 119.63 160.79 120.35 160.43 120.83C160.07 121.31 159.39 122.15 158.93 122.69C158.47 123.23 157.56 124.18 156.91 124.81C156.27 125.45 155.39 126.25 154.96 126.61C154.54 126.97 153.85 127.51 153.44 127.82C153.04 128.13 152.23 128.69 151.65 129.07C151.08 129.45 150.3 129.93 149.93 130.15C149.56 130.36 149.25 130.54 149.25 130.54C149.24 130.55 149.31 130.84 149.4 131.2C149.49 131.55 149.61 132.16 149.68 132.55C149.77 133.1 149.8 133.62 149.79 134.91C149.79 136.41 149.77 136.65 149.61 137.49C149.51 138 149.28 138.87 149.1 139.42C148.92 139.96 148.59 140.79 148.36 141.26C148.14 141.72 147.71 142.46 147.41 142.91C147.12 143.36 146.59 144.05 146.24 144.46C145.88 144.87 145.37 145.41 145.1 145.65C144.82 145.89 144.34 146.29 144.02 146.54C143.71 146.78 143.19 147.14 142.88 147.33C142.56 147.53 141.94 147.87 141.49 148.08C141.05 148.3 140.27 148.61 139.77 148.78C139.27 148.95 138.48 149.16 138.01 149.25C137.55 149.34 136.76 149.46 136.26 149.5C135.72 149.54 134.99 149.56 134.47 149.53C133.99 149.5 133.3 149.44 132.95 149.39C132.6 149.33 131.98 149.21 131.57 149.11C130.96 148.97 130.82 148.95 130.79 149.03C130.78 149.08 130.48 149.59 130.13 150.17C129.78 150.74 129.25 151.57 128.95 152C128.64 152.44 128.1 153.17 127.75 153.62C127.4 154.08 126.79 154.81 126.39 155.26C126 155.71 125.16 156.58 124.54 157.19C123.91 157.8 123.09 158.56 122.72 158.87C122.35 159.18 121.59 159.78 121.03 160.2C120.48 160.61 119.67 161.18 119.24 161.46C118.82 161.74 118.06 162.2 117.56 162.49C117.05 162.79 116.04 163.32 115.29 163.68C114.55 164.04 113.52 164.5 113 164.7C112.48 164.91 111.69 165.2 111.24 165.35C110.8 165.5 110.11 165.71 109.72 165.82C109.33 165.94 108.63 166.12 108.17 166.23C107.71 166.34 106.92 166.51 106.41 166.6C105.91 166.69 105 166.83 104.39 166.91C103.78 166.98 102.81 167.08 102.25 167.11C101.68 167.15 100.67 167.18 100 167.18C99.33 167.18 98.32 167.15 97.75 167.11C97.19 167.08 96.22 166.98 95.61 166.91C95 166.83 94.09 166.69 93.59 166.6C93.08 166.51 92.29 166.34 91.83 166.23C91.37 166.12 90.67 165.94 90.28 165.82C89.89 165.71 89.2 165.5 88.76 165.35C88.31 165.2 87.52 164.91 87 164.7C86.48 164.5 85.45 164.04 84.71 163.68C83.96 163.32 82.95 162.79 82.44 162.49C81.94 162.2 81.18 161.74 80.76 161.46C80.33 161.18 79.58 160.66 79.1 160.3C78.62 159.94 77.84 159.33 77.38 158.95C76.92 158.56 76.04 157.76 75.43 157.16C74.82 156.56 74 155.71 73.61 155.26C73.21 154.81 72.6 154.08 72.25 153.62C71.9 153.17 71.36 152.44 71.05 152C70.75 151.57 70.22 150.74 69.87 150.17C69.52 149.59 69.22 149.08 69.21 149.04C69.18 148.97 69.02 148.99 68.47 149.12C68.08 149.21 67.45 149.34 67.08 149.39C66.71 149.44 66.03 149.51 65.56 149.53C65.08 149.56 64.33 149.54 63.81 149.5C63.31 149.46 62.52 149.34 62.05 149.25C61.59 149.16 60.8 148.95 60.3 148.78C59.8 148.61 59.04 148.31 58.61 148.1C58.18 147.9 57.6 147.59 57.33 147.42C57.05 147.25 56.47 146.85 56.04 146.53C55.62 146.21 54.97 145.64 54.59 145.27C54.22 144.9 53.72 144.35 53.48 144.06C53.24 143.76 52.84 143.2 52.59 142.81C52.33 142.42 51.94 141.74 51.72 141.29C51.5 140.84 51.17 140.02 50.99 139.47C50.8 138.91 50.59 138.13 50.52 137.74C50.44 137.35 50.34 136.72 50.3 136.33C50.25 135.89 50.23 135.14 50.25 134.37C50.28 133.55 50.34 132.85 50.43 132.34C50.51 131.92 50.63 131.35 50.84 130.59L49.85 130C49.3 129.68 48.58 129.24 48.24 129.01C47.91 128.79 47.36 128.41 47.03 128.16C46.69 127.92 46.12 127.48 45.75 127.18C45.37 126.89 44.74 126.35 44.33 125.99C43.92 125.63 43.1 124.84 42.51 124.23C41.91 123.62 41.11 122.75 40.72 122.28C40.33 121.82 39.77 121.1 39.46 120.7C39.16 120.29 38.7 119.63 38.44 119.24C38.17 118.85 37.71 118.12 37.41 117.62C37.11 117.12 36.53 116.04 36.13 115.23C35.72 114.41 35.22 113.3 35.01 112.76C34.79 112.22 34.44 111.24 34.22 110.57C34 109.9 33.69 108.8 33.52 108.14C33.36 107.47 33.13 106.39 33.02 105.74C32.91 105.09 32.77 104.15 32.72 103.65C32.66 103.14 32.58 102.05 32.53 101.22C32.47 100.05 32.47 99.33 32.53 98.14C32.58 97.29 32.66 96.18 32.72 95.68C32.78 95.18 32.9 94.34 32.98 93.82C33.07 93.3 33.22 92.51 33.32 92.07C33.42 91.62 33.61 90.86 33.74 90.38C33.87 89.9 34.13 89.04 34.32 88.49C34.5 87.93 34.82 87.08 35.01 86.6C35.21 86.11 35.55 85.32 35.77 84.84C36 84.36 36.38 83.6 36.62 83.15C36.86 82.71 37.21 82.07 37.41 81.74C37.61 81.4 38.04 80.72 38.38 80.22C38.71 79.71 39.23 78.97 39.54 78.56C39.85 78.15 40.35 77.52 40.66 77.15C40.97 76.78 41.57 76.09 42.01 75.63C42.44 75.16 43.14 74.46 43.56 74.07C43.98 73.67 44.65 73.08 45.04 72.76C45.43 72.43 46.11 71.88 46.56 71.55C47 71.21 47.84 70.63 48.41 70.25C48.99 69.88 49.76 69.39 50.14 69.18C50.51 68.97 50.83 68.77 50.86 68.75C50.88 68.72 50.83 68.35 50.75 67.93C50.66 67.5 50.55 66.74 50.5 66.24C50.45 65.68 50.44 64.96 50.46 64.38C50.49 63.86 50.55 63.12 50.61 62.73C50.67 62.34 50.81 61.68 50.91 61.28C51.02 60.87 51.21 60.23 51.35 59.86C51.49 59.49 51.77 58.83 51.98 58.41C52.19 57.98 52.6 57.28 52.88 56.85C53.16 56.43 53.64 55.79 53.93 55.44C54.23 55.08 54.68 54.6 54.94 54.36C55.19 54.11 55.63 53.73 55.91 53.5C56.19 53.28 56.69 52.91 57.02 52.68C57.36 52.46 57.95 52.11 58.34 51.9C58.73 51.7 59.4 51.39 59.82 51.22C60.25 51.06 60.95 50.83 61.38 50.72C61.8 50.61 62.44 50.47 62.8 50.41C63.17 50.34 63.97 50.28 64.72 50.25C65.52 50.23 66.27 50.25 66.71 50.3C67.1 50.34 67.74 50.44 68.13 50.52C68.52 50.59 68.87 50.67 68.91 50.68C68.94 50.7 69.23 50.28 69.54 49.75C69.85 49.22 70.37 48.39 70.69 47.91C71.01 47.42 71.54 46.68 71.86 46.25C72.18 45.83 72.69 45.17 73 44.8C73.31 44.43 73.91 43.75 74.34 43.29C74.77 42.83 75.5 42.1 75.96 41.67C76.43 41.24 77.16 40.6 77.58 40.25C78.01 39.89 78.69 39.36 79.1 39.06C79.51 38.76 80.13 38.32 80.49 38.08C80.84 37.84 81.55 37.39 82.07 37.08C82.59 36.77 83.69 36.19 84.5 35.78C85.32 35.38 86.49 34.86 87.1 34.62C87.72 34.38 88.64 34.04 89.16 33.88C89.68 33.71 90.52 33.46 91.02 33.33C91.52 33.2 92.46 32.98 93.11 32.85C93.76 32.72 94.75 32.56 95.31 32.49C95.86 32.41 96.79 32.32 97.37 32.28C97.94 32.24 98.66 32.19 98.95 32.18C99.25 32.17 100.01 32.17 100.64 32.19Z"/>
		<path class="shp2" d="M99.86 36.88C100.89 36.87 102.12 36.9 102.6 36.94C103.08 36.97 103.95 37.07 104.52 37.14C105.1 37.22 106.03 37.37 106.58 37.48C107.14 37.59 108.01 37.79 108.51 37.92C109.01 38.05 109.84 38.3 110.36 38.47C110.88 38.64 111.72 38.93 112.22 39.13C112.72 39.33 113.53 39.67 114.01 39.89C114.49 40.11 115.3 40.51 115.8 40.78C116.3 41.05 117.09 41.51 117.56 41.8C118.02 42.09 118.75 42.57 119.18 42.88C119.6 43.18 120.24 43.66 120.59 43.94C120.95 44.22 121.6 44.78 122.05 45.17C122.49 45.57 123.22 46.27 123.66 46.73C124.1 47.19 124.74 47.9 125.08 48.31C125.42 48.72 125.88 49.3 126.11 49.59C126.33 49.89 126.71 50.42 126.95 50.78C127.2 51.13 127.62 51.8 127.9 52.26C128.18 52.73 128.65 53.59 128.95 54.19C129.25 54.78 129.65 55.63 129.83 56.08C130.02 56.52 130.29 57.24 130.44 57.66C130.59 58.09 130.84 58.85 130.98 59.35C131.13 59.85 131.34 60.7 131.45 61.24C131.57 61.78 131.72 62.63 131.79 63.13C131.87 63.63 132 64.82 132.08 65.77C132.16 66.71 132.23 67.49 132.23 67.5C132.24 67.51 132.93 67.58 133.76 67.65C134.6 67.73 135.74 67.86 136.29 67.93C136.85 68.01 137.69 68.15 138.15 68.24C138.61 68.34 139.34 68.5 139.77 68.61C140.2 68.72 140.93 68.94 141.39 69.09C141.86 69.24 142.58 69.5 143.01 69.67C143.44 69.84 144.18 70.15 144.67 70.37C145.15 70.59 145.91 70.97 146.35 71.22C146.8 71.46 147.54 71.9 148.01 72.18C148.47 72.47 149.22 72.97 149.66 73.3C150.11 73.62 150.7 74.07 150.98 74.3C151.26 74.52 151.87 75.05 152.33 75.46C152.79 75.88 153.46 76.51 153.81 76.88C154.16 77.25 154.74 77.88 155.08 78.29C155.43 78.7 155.99 79.38 156.31 79.81C156.64 80.24 157.19 81.03 157.54 81.57C157.9 82.1 158.38 82.9 158.63 83.32C158.87 83.75 159.25 84.47 159.48 84.93C159.71 85.38 160.08 86.19 160.3 86.72C160.53 87.24 160.92 88.3 161.18 89.06C161.43 89.82 161.77 90.93 161.91 91.53C162.06 92.12 162.26 93.03 162.36 93.55C162.45 94.07 162.59 94.97 162.66 95.54C162.73 96.12 162.82 97.05 162.86 97.62C162.9 98.19 162.93 99.14 162.93 99.73C162.93 100.32 162.9 101.27 162.86 101.84C162.82 102.41 162.73 103.36 162.66 103.95C162.58 104.54 162.45 105.44 162.35 105.94C162.26 106.44 162.06 107.34 161.91 107.93C161.77 108.53 161.44 109.64 161.18 110.4C160.92 111.16 160.53 112.22 160.3 112.76C160.07 113.3 159.64 114.21 159.35 114.79C159.06 115.36 158.61 116.18 158.36 116.61C158.1 117.04 157.59 117.84 157.21 118.4C156.83 118.96 156.24 119.77 155.89 120.2C155.55 120.63 154.96 121.33 154.58 121.75C154.21 122.17 153.57 122.84 153.16 123.23C152.76 123.62 152.08 124.24 151.65 124.6C151.23 124.97 150.54 125.52 150.14 125.82C149.73 126.13 149 126.64 148.51 126.96C148.03 127.27 147.27 127.74 146.83 127.99C146.38 128.24 145.59 128.65 145.07 128.9C144.55 129.15 143.81 129.48 143.42 129.64C143.03 129.8 142.27 130.08 141.73 130.26C141.19 130.45 140.35 130.7 139.87 130.83C139.39 130.95 138.63 131.13 138.18 131.22C137.74 131.31 136.9 131.45 136.33 131.53C135.75 131.61 135.23 131.67 135.16 131.66C135.07 131.64 135.15 131.52 135.52 131.09C135.78 130.8 136.36 130.11 136.79 129.57C137.23 129.04 137.85 128.25 138.16 127.82C138.48 127.39 139.04 126.59 139.41 126.03C139.78 125.47 140.36 124.56 140.7 124C141.03 123.45 141.56 122.51 141.88 121.91C142.2 121.32 142.72 120.27 143.03 119.58C143.35 118.89 143.79 117.88 144.01 117.32C144.23 116.76 144.55 115.91 144.72 115.43C144.89 114.95 145.12 114.26 145.23 113.91C145.34 113.56 145.54 112.89 145.67 112.42C145.8 111.96 146.03 111.05 146.18 110.4C146.33 109.75 146.52 108.81 146.62 108.31C146.71 107.8 146.85 106.95 146.92 106.41C147 105.88 147.11 104.98 147.16 104.42C147.22 103.87 147.29 102.82 147.33 102.09C147.37 101.37 147.4 100.29 147.4 99.7C147.4 99.1 147.37 98.04 147.33 97.33C147.29 96.63 147.22 95.59 147.16 95.04C147.11 94.48 146.98 93.49 146.89 92.84C146.8 92.19 146.63 91.19 146.51 90.61C146.4 90.04 146.23 89.25 146.14 88.86C146.05 88.47 145.84 87.66 145.68 87.07C145.51 86.48 145.19 85.43 144.96 84.74C144.73 84.05 144.3 82.88 144.01 82.14C143.71 81.4 143.22 80.27 142.93 79.64C142.63 79.01 142.14 78.04 141.84 77.48C141.55 76.92 141.08 76.09 140.8 75.62C140.53 75.16 139.95 74.24 139.51 73.58C139.08 72.92 138.69 72.39 138.66 72.39C138.62 72.39 131.93 77.78 109.01 96.35L104.1 96.35C100.89 96.35 99.2 96.33 99.21 96.29C99.22 96.25 103.25 91.31 108.18 85.3C113.11 79.29 118.39 72.84 119.93 70.97C121.47 69.09 123.86 66.18 125.24 64.5C126.62 62.82 127.75 61.42 127.75 61.39C127.76 61.37 127.43 61.11 127.03 60.83C126.63 60.55 126.07 60.18 125.79 59.99C125.51 59.81 124.88 59.42 124.38 59.12C123.87 58.81 123.01 58.32 122.45 58.02C121.89 57.72 120.99 57.25 120.44 56.99C119.89 56.73 119.04 56.35 118.55 56.14C118.06 55.93 117.23 55.6 116.71 55.4C116.19 55.21 115.3 54.89 114.72 54.7C114.14 54.52 113.23 54.24 112.69 54.09C112.16 53.94 111.11 53.68 110.36 53.51C109.62 53.35 108.45 53.12 107.77 53.01C107.08 52.89 105.98 52.74 105.33 52.67C104.68 52.6 103.67 52.51 103.07 52.47C102.48 52.43 101.1 52.4 100.02 52.4C98.93 52.4 97.58 52.43 97.01 52.47C96.45 52.5 95.54 52.58 95 52.64C94.46 52.69 93.52 52.82 92.91 52.91C92.3 53 91.26 53.18 90.61 53.31C89.96 53.44 89.07 53.64 88.62 53.75C88.18 53.87 87.4 54.08 86.9 54.22C86.4 54.37 85.46 54.67 84.81 54.89C84.16 55.11 83.2 55.45 82.68 55.66C82.16 55.86 81.28 56.23 80.72 56.48C80.17 56.73 79.13 57.23 78.43 57.59C77.72 57.95 76.69 58.52 76.13 58.84C75.57 59.17 74.6 59.78 73.97 60.2C73.34 60.61 72.34 61.32 71.74 61.76C71.15 62.2 70.2 62.96 69.63 63.44C69.06 63.92 68.49 64.41 68.36 64.52C68.23 64.63 68.12 64.7 68.1 64.69C68.09 64.67 68.13 64.2 68.21 63.64C68.28 63.08 68.43 62.17 68.54 61.61C68.65 61.06 68.85 60.22 68.97 59.76C69.1 59.29 69.36 58.46 69.55 57.9C69.74 57.34 70.05 56.52 70.23 56.08C70.42 55.63 70.84 54.73 71.17 54.09C71.5 53.44 72.02 52.49 72.33 51.99C72.64 51.49 73.14 50.73 73.45 50.3C73.75 49.88 74.23 49.24 74.51 48.89C74.8 48.53 75.35 47.88 75.75 47.44C76.14 47 76.82 46.3 77.25 45.9C77.67 45.49 78.43 44.82 78.92 44.4C79.42 43.99 80.2 43.38 80.66 43.05C81.12 42.71 81.91 42.18 82.42 41.86C82.94 41.54 83.77 41.05 84.27 40.78C84.77 40.51 85.57 40.11 86.06 39.89C86.54 39.67 87.34 39.33 87.85 39.13C88.35 38.93 89.18 38.64 89.7 38.47C90.22 38.3 91.06 38.05 91.56 37.92C92.06 37.79 92.93 37.59 93.48 37.48C94.04 37.37 94.97 37.21 95.54 37.14C96.12 37.06 96.91 36.98 97.3 36.94C97.69 36.91 98.84 36.88 99.86 36.88Z"/>
		<path class="shp0" d="M36.75 39.93C36.78 39.93 38.97 41.76 41.63 43.99C44.29 46.22 46.46 48.06 46.46 48.09C46.46 48.12 46.09 48.58 45.64 49.12C45.03 49.86 44.8 50.1 44.68 50.1C44.6 50.1 42.25 49.8 39.47 49.43C36.68 49.07 34.38 48.79 34.35 48.81C34.33 48.83 35.81 50.11 37.65 51.65C39.49 53.2 40.99 54.47 40.99 54.49C40.99 54.51 40.65 54.93 40.24 55.44C39.83 55.94 39.47 56.35 39.44 56.35C39.41 56.35 37.22 54.52 34.58 52.3C31.94 50.07 29.78 48.22 29.79 48.2C29.79 48.18 30.22 47.64 30.73 47.02C31.25 46.39 31.71 45.87 31.75 45.86C31.8 45.85 33.9 46.13 36.43 46.49C38.95 46.84 41.12 47.14 41.24 47.16C41.36 47.18 41.46 47.18 41.46 47.15C41.46 47.12 40.05 45.91 38.32 44.46C36.59 43.01 35.19 41.81 35.2 41.78C35.21 41.75 35.55 41.32 35.96 40.82C36.36 40.32 36.72 39.92 36.75 39.93ZM164.49 41.38C164.51 41.4 165.15 42.18 165.91 43.11C166.66 44.04 167.44 45.03 167.64 45.31C167.85 45.59 168.11 46.01 168.23 46.25C168.35 46.49 168.53 46.94 168.63 47.25C168.73 47.55 168.84 48.09 168.87 48.43C168.92 48.86 168.92 49.23 168.87 49.63C168.83 49.94 168.71 50.48 168.6 50.81C168.49 51.14 168.24 51.68 168.05 51.99C167.85 52.31 167.44 52.83 167.12 53.16C166.8 53.49 166.35 53.91 166.1 54.09C165.86 54.27 165.42 54.55 165.12 54.7C164.83 54.86 164.39 55.05 164.15 55.13C163.9 55.22 163.46 55.32 163.17 55.37C162.83 55.42 162.37 55.44 161.95 55.42C161.58 55.39 161.06 55.31 160.8 55.24C160.54 55.16 160.13 55 159.89 54.89C159.65 54.77 159.24 54.53 158.98 54.35C158.72 54.17 158.31 53.82 158.06 53.56C157.81 53.31 156.92 52.26 156.08 51.23C155.24 50.2 154.58 49.34 154.6 49.31C154.62 49.28 156.84 47.47 159.54 45.3C162.24 43.12 164.46 41.35 164.49 41.38ZM99.83 41.74C100.39 41.73 101.35 41.76 101.96 41.8C102.57 41.84 103.47 41.91 103.95 41.97C104.43 42.02 105.28 42.15 105.84 42.24C106.4 42.34 107.4 42.55 108.07 42.72C108.74 42.88 109.86 43.21 110.57 43.45C111.27 43.68 112.26 44.05 112.76 44.26C113.26 44.47 114.1 44.86 114.62 45.12C115.14 45.38 115.88 45.78 116.27 46C116.66 46.23 117.32 46.63 117.72 46.9C118.13 47.16 118.8 47.64 119.21 47.94C119.62 48.25 120.23 48.73 120.56 49.01C120.89 49.29 121.64 49.99 122.22 50.57C122.8 51.15 123.54 51.95 123.87 52.35C124.21 52.75 124.73 53.44 125.04 53.87C125.35 54.3 125.83 55.04 126.11 55.5C126.39 55.97 126.84 56.8 127.11 57.36C127.38 57.92 127.75 58.74 127.92 59.18C128.09 59.63 128.25 60.08 128.3 60.4L128.18 60.23C128.11 60.14 127.8 59.74 127.49 59.35C127.19 58.96 126.62 58.29 126.23 57.87C125.85 57.44 125.22 56.8 124.84 56.44C124.45 56.09 123.84 55.55 123.48 55.25C123.12 54.94 122.54 54.48 122.2 54.23C121.85 53.97 121.21 53.52 120.76 53.23C120.32 52.93 119.54 52.45 119.04 52.16C118.54 51.87 117.55 51.35 116.85 51.01C116.14 50.66 115.06 50.19 114.45 49.94C113.84 49.7 112.85 49.35 112.26 49.16C111.66 48.97 110.72 48.69 110.16 48.55C109.6 48.4 108.62 48.18 107.97 48.05C107.32 47.92 106.36 47.75 105.84 47.67C105.32 47.6 104.42 47.49 103.85 47.43C103.27 47.38 101.95 47.31 100.91 47.29C99.74 47.26 98.54 47.28 97.74 47.33C97.03 47.37 96.04 47.45 95.54 47.51C95.04 47.56 94.24 47.67 93.75 47.75C93.27 47.82 92.44 47.97 91.9 48.08C91.36 48.19 90.45 48.41 89.87 48.56C89.3 48.71 88.29 49 87.64 49.22C86.99 49.43 86.02 49.79 85.48 50C84.94 50.21 83.99 50.64 83.36 50.94C82.72 51.24 81.89 51.67 81.5 51.89C81.11 52.11 80.47 52.48 80.08 52.72C79.69 52.97 78.98 53.44 78.49 53.78C78.01 54.12 77.33 54.64 76.98 54.92C76.62 55.21 75.94 55.8 75.47 56.23C74.99 56.67 74.27 57.39 73.87 57.83C73.46 58.28 72.88 58.96 72.57 59.35C72.26 59.74 71.96 60.14 71.77 60.4L71.8 60.2C71.82 60.08 71.97 59.63 72.15 59.18C72.32 58.74 72.69 57.92 72.96 57.36C73.23 56.8 73.69 55.95 73.98 55.47C74.27 54.99 74.78 54.23 75.1 53.78C75.42 53.34 75.93 52.67 76.24 52.3C76.55 51.92 77.27 51.15 77.85 50.57C78.43 49.99 79.17 49.29 79.51 49.01C79.84 48.73 80.45 48.25 80.86 47.94C81.27 47.64 81.93 47.16 82.34 46.9C82.75 46.63 83.4 46.23 83.79 46C84.18 45.78 84.93 45.38 85.45 45.12C85.97 44.86 86.8 44.47 87.31 44.26C87.81 44.05 88.79 43.68 89.5 43.45C90.21 43.21 91.33 42.88 92 42.72C92.67 42.55 93.67 42.34 94.23 42.24C94.78 42.15 95.65 42.02 96.15 41.96C96.65 41.91 97.46 41.83 97.94 41.8C98.42 41.77 99.27 41.74 99.83 41.74Z"/>
		<path class="shp1" d="M164.28 44.76C164.31 44.78 164.63 45.17 165 45.61C165.37 46.06 165.76 46.57 165.87 46.76C165.98 46.94 166.14 47.29 166.22 47.52C166.31 47.75 166.39 48.15 166.42 48.4C166.44 48.65 166.42 49.03 166.38 49.26C166.34 49.48 166.19 49.91 166.04 50.22C165.85 50.6 165.62 50.93 165.31 51.26C165.06 51.52 164.67 51.87 164.45 52.03C164.23 52.18 163.89 52.39 163.71 52.48C163.52 52.58 163.19 52.7 162.96 52.76C162.74 52.82 162.36 52.87 162.12 52.87C161.88 52.87 161.51 52.82 161.31 52.77C161.11 52.71 160.76 52.58 160.53 52.47C160.31 52.35 159.96 52.12 159.76 51.94C159.56 51.76 159.05 51.23 158.63 50.74C158.21 50.26 157.89 49.84 157.91 49.82C157.94 49.79 159.38 48.63 161.1 47.24C162.83 45.85 164.26 44.73 164.28 44.76Z"/>
		<path class="shp2" d="M135.03 54.36C135.56 54.36 136.22 54.39 136.51 54.43C136.8 54.47 137.34 54.58 137.71 54.67C138.08 54.77 138.67 54.97 139.03 55.11C139.38 55.25 139.91 55.51 140.21 55.68C140.51 55.85 140.98 56.16 141.26 56.36C141.53 56.57 142.08 57.06 142.47 57.45C142.88 57.87 143.36 58.44 143.61 58.81C143.85 59.16 144.18 59.73 144.34 60.06C144.51 60.4 144.77 61.02 144.91 61.44C145.05 61.87 145.22 62.51 145.28 62.86C145.36 63.29 145.4 63.86 145.4 64.58C145.41 65.18 145.37 65.91 145.32 66.21C145.27 66.5 145.21 66.78 145.18 66.83C145.15 66.88 144.91 66.82 144.33 66.61C143.88 66.45 143.05 66.17 141.42 65.68L141.45 64.83C141.47 64.22 141.44 63.82 141.36 63.4C141.3 63.09 141.15 62.59 141.03 62.29C140.91 61.99 140.64 61.49 140.44 61.17C140.23 60.86 139.87 60.41 139.63 60.17C139.39 59.94 139.01 59.61 138.79 59.45C138.57 59.29 138.13 59.04 137.81 58.89C137.5 58.74 136.98 58.55 136.66 58.46C136.18 58.33 135.92 58.31 135.03 58.31C134.22 58.31 133.96 58.28 133.96 58.22C133.96 58.17 133.83 57.69 133.66 57.14C133.5 56.59 133.24 55.81 133.09 55.4C132.94 54.99 132.81 54.64 132.81 54.62C132.81 54.6 133.04 54.54 133.33 54.49C133.62 54.45 133.91 54.4 133.96 54.39C134.02 54.38 134.5 54.37 135.03 54.36ZM65.06 54.63C65.39 54.63 65.94 54.66 66.27 54.7C66.61 54.73 66.93 54.78 66.98 54.8C67.07 54.83 67.02 55.04 66.7 55.99C66.49 56.63 66.23 57.48 65.94 58.6L65.12 58.6C64.48 58.6 64.18 58.64 63.64 58.78C63.27 58.87 62.72 59.07 62.42 59.21C62.13 59.35 61.64 59.65 61.34 59.87C61.05 60.1 60.65 60.46 60.46 60.68C60.27 60.89 60 61.24 59.86 61.44C59.73 61.65 59.53 62.01 59.42 62.24C59.31 62.47 59.14 62.93 59.04 63.25C58.91 63.69 58.86 64.07 58.78 65.64L58.41 65.74C58.2 65.79 57.36 66.06 56.54 66.33C55.05 66.81 55.04 66.81 55 66.66C54.98 66.58 54.93 66.15 54.9 65.72C54.85 65.2 54.85 64.66 54.9 64.16C54.93 63.74 55.01 63.17 55.07 62.88C55.13 62.59 55.28 62.05 55.4 61.68C55.52 61.31 55.76 60.73 55.93 60.4C56.09 60.06 56.42 59.5 56.66 59.15C56.9 58.8 57.36 58.22 57.7 57.87C58.03 57.53 58.55 57.05 58.85 56.82C59.14 56.58 59.64 56.24 59.96 56.06C60.28 55.87 60.84 55.59 61.21 55.43C61.58 55.27 62.23 55.06 62.66 54.95C63.09 54.84 63.66 54.73 63.94 54.7C64.22 54.67 64.72 54.64 65.06 54.63Z"/>
		<path class="shp1" d="M104.42 61.39C104.65 61.38 105.44 61.41 106.18 61.45C106.92 61.48 107.92 61.56 108.41 61.61C108.89 61.67 109.76 61.79 110.33 61.89C110.91 61.99 111.91 62.2 112.56 62.36C113.21 62.52 114.14 62.78 114.62 62.93C115.1 63.09 116 63.41 116.61 63.65C117.22 63.89 118.2 64.32 118.77 64.61C119.35 64.9 120.18 65.35 120.63 65.62C121.07 65.89 121.78 66.35 122.2 66.65C122.62 66.94 122.95 67.21 122.94 67.25C122.93 67.28 121.66 68.85 117.32 74.14L116.68 73.51C116.33 73.17 115.84 72.73 115.6 72.54C115.36 72.35 114.82 71.98 114.42 71.71C114.01 71.44 113.25 71.02 112.73 70.76C112.21 70.51 111.44 70.18 111.02 70.03C110.61 69.87 109.86 69.64 109.37 69.51C108.88 69.39 108.03 69.21 107.49 69.11C106.96 69.02 106.13 68.92 105.65 68.88C105.18 68.84 104.07 68.8 103.19 68.8C102.27 68.8 101.13 68.85 100.51 68.91C99.91 68.96 98.97 69.09 98.41 69.18C97.86 69.27 96.98 69.45 96.46 69.58C95.94 69.7 95.05 69.95 94.5 70.12C93.94 70.29 92.94 70.65 92.27 70.92C91.6 71.18 90.34 71.76 89.47 72.19C88.59 72.63 87.44 73.24 85.92 74.12L85.89 96.29L95.7 96.33C101.09 96.35 106.67 96.35 108.1 96.34C110.14 96.31 110.84 96.28 111.34 96.19C111.7 96.13 112.29 96 112.66 95.91C113.03 95.81 113.59 95.64 113.91 95.51C114.23 95.39 114.71 95.18 114.99 95.04C115.27 94.9 115.71 94.65 115.97 94.48C116.23 94.31 116.67 93.99 116.94 93.76C117.22 93.53 117.65 93.12 117.89 92.85C118.13 92.57 118.39 92.28 118.47 92.21C118.54 92.13 121.31 90.66 124.61 88.94C127.92 87.23 130.66 85.82 130.71 85.82C130.77 85.82 130.78 85.9 130.75 86.11C130.73 86.27 130.62 86.85 130.51 87.41C130.4 87.96 130.22 88.75 130.1 89.16C129.99 89.57 129.79 90.21 129.66 90.58C129.53 90.95 129.3 91.54 129.15 91.9C129.01 92.25 128.76 92.78 128.61 93.08C128.46 93.38 128.2 93.86 128.03 94.16C127.86 94.46 127.52 95 127.28 95.37C127.03 95.75 126.58 96.35 126.29 96.73C125.99 97.1 125.51 97.66 125.21 97.97C124.92 98.28 124.39 98.79 124.04 99.11C123.69 99.42 123.06 99.93 122.65 100.24C122.25 100.54 121.58 101 121.17 101.25C120.76 101.5 120.06 101.89 119.62 102.1C119.17 102.31 118.47 102.6 118.06 102.74C117.65 102.87 116.95 103.07 116.51 103.18C116.06 103.29 115.24 103.45 114.69 103.55C114.13 103.64 113.26 103.76 112.76 103.81C112.26 103.87 111.26 103.94 110.53 103.98C109.81 104.02 108.84 104.06 107.56 104.09L108.11 104.83C108.41 105.24 109.08 106.19 109.58 106.95C110.09 107.72 110.81 108.86 111.19 109.49C111.56 110.12 112.14 111.11 112.46 111.68C112.78 112.26 113.57 113.79 114.21 115.09C114.85 116.39 115.61 117.88 115.9 118.4C116.19 118.92 116.62 119.65 116.86 120.02C117.1 120.39 117.51 120.95 117.76 121.27C118.01 121.59 118.44 122.06 118.71 122.32C118.99 122.58 119.41 122.93 119.65 123.09C119.89 123.25 120.3 123.49 120.56 123.61C120.82 123.73 121.22 123.87 121.44 123.93C121.66 123.99 122.16 124.06 122.55 124.08C123.05 124.11 123.44 124.09 123.87 124.02C124.2 123.96 124.77 123.82 125.12 123.7C125.47 123.58 126.19 123.28 126.7 123.03C127.22 122.77 128.06 122.29 128.56 121.96C129.06 121.63 129.78 121.12 130.16 120.83C130.53 120.53 131.1 120.05 131.42 119.77C131.74 119.48 132.03 119.25 132.07 119.26C132.11 119.27 132.89 119.95 133.81 120.77C134.73 121.59 135.52 122.31 135.57 122.36C135.64 122.43 134.54 123.56 122.94 135.08L122.33 134.92C121.99 134.84 121.42 134.66 121.07 134.53C120.71 134.39 120.11 134.12 119.72 133.93C119.33 133.73 118.7 133.36 118.33 133.12C117.96 132.87 117.37 132.44 117.02 132.15C116.67 131.87 116.02 131.27 115.58 130.82C115.13 130.38 114.46 129.65 114.09 129.2C113.71 128.76 113.09 127.97 112.71 127.45C112.32 126.93 111.66 125.99 111.25 125.35C110.83 124.72 110.15 123.66 109.74 122.99C109.34 122.32 108.29 120.56 107.43 119.07C106.57 117.59 105.48 115.74 105.01 114.96C104.54 114.18 103.83 113.02 103.42 112.39C103.02 111.76 102.39 110.82 102.03 110.3C101.66 109.78 101.12 109.03 100.82 108.64C100.52 108.25 99.96 107.62 99.58 107.23C99.2 106.85 98.64 106.34 98.35 106.1C98.05 105.86 97.5 105.46 97.13 105.21C96.76 104.97 96.14 104.61 95.04 104.05L85.89 104.05L85.85 107.59L81.53 111.15C79.16 113.1 77.2 114.7 77.19 114.7C77.18 114.69 77.2 114.35 77.25 113.94C77.29 113.53 77.35 112.46 77.38 111.55C77.42 110.64 77.44 108.58 77.45 104.05L75.54 104.07C73.76 104.09 73.61 104.1 73.26 104.24C73.06 104.32 72.76 104.5 72.59 104.64C72.43 104.78 72.23 105.02 72.14 105.17C72.06 105.31 71.94 105.59 71.87 105.77C71.76 106.07 71.74 106.42 71.67 111.92L67.05 111.95L67.08 102.92C67.1 97.95 67.13 92.64 67.18 88.32L71.78 88.32L71.78 90.78C71.78 92.21 71.81 93.47 71.85 93.77C71.89 94.06 71.98 94.45 72.05 94.63C72.12 94.82 72.26 95.09 72.37 95.24C72.48 95.39 72.72 95.61 72.9 95.73C73.08 95.85 73.38 96 73.57 96.06C73.83 96.15 74.29 96.18 77.45 96.22L77.45 87.05C77.45 82.01 77.44 77.87 77.42 77.85C77.4 77.83 77.15 77.86 76.86 77.9C76.57 77.95 75.91 78.02 75.39 78.06C74.76 78.1 74.13 78.1 73.53 78.06C73.03 78.03 72.33 77.95 71.98 77.89C71.63 77.82 71.06 77.7 70.73 77.62C70.4 77.53 69.83 77.35 69.48 77.22C69.13 77.09 68.69 76.93 68.52 76.85C68.22 76.72 68.2 76.69 68.24 76.52C68.26 76.42 68.56 74.97 68.9 73.3C69.39 70.87 69.54 70.26 69.62 70.28C69.67 70.29 69.94 70.36 70.22 70.43C70.5 70.49 70.97 70.59 71.27 70.64C71.59 70.69 72.36 70.73 73.16 70.72C74.1 70.72 74.73 70.69 75.25 70.61C75.66 70.54 76.35 70.4 76.79 70.29C77.23 70.18 77.92 69.96 78.34 69.81C78.76 69.65 79.38 69.4 79.71 69.25C80.04 69.09 80.93 68.62 81.67 68.2C82.41 67.77 83.66 67.11 84.44 66.71C85.22 66.32 86.25 65.82 86.73 65.6C87.21 65.39 88.1 65.01 88.69 64.77C89.28 64.53 90.21 64.17 90.75 63.98C91.29 63.78 92.18 63.48 92.74 63.31C93.3 63.14 94.29 62.86 94.94 62.7C95.59 62.53 96.56 62.3 97.1 62.19C97.64 62.09 98.59 61.92 99.22 61.83C99.85 61.73 100.72 61.62 101.15 61.58C101.57 61.54 102.4 61.48 102.97 61.45C103.55 61.42 104.2 61.39 104.42 61.39Z"/>
		<path class="shp2" d="M64.77 67.8C64.99 67.79 65.01 67.8 64.93 67.91C64.88 67.98 64.62 68.29 64.34 68.6C64.06 68.92 63.47 69.63 63.03 70.19C62.58 70.75 61.96 71.57 61.64 72.01C61.32 72.46 60.82 73.19 60.52 73.63C60.22 74.08 59.71 74.9 59.37 75.46C59.04 76.01 58.5 76.95 58.19 77.55C57.87 78.14 57.4 79.1 57.13 79.68C56.86 80.25 56.41 81.27 56.14 81.94C55.87 82.61 55.5 83.59 55.31 84.13C55.13 84.67 54.85 85.52 54.69 86.02C54.54 86.52 54.26 87.54 54.08 88.28C53.89 89.03 53.64 90.18 53.51 90.85C53.39 91.52 53.21 92.63 53.11 93.32C53.02 94 52.9 95.12 52.84 95.8C52.78 96.47 52.72 97.8 52.69 98.73C52.67 99.72 52.68 101.05 52.73 101.89C52.77 102.69 52.85 103.81 52.9 104.39C52.96 104.96 53.08 105.97 53.18 106.62C53.27 107.27 53.45 108.33 53.58 108.98C53.71 109.63 53.98 110.8 54.18 111.58C54.38 112.36 54.74 113.58 54.97 114.28C55.2 114.99 55.58 116.08 55.82 116.71C56.07 117.34 56.46 118.3 56.7 118.84C56.94 119.38 57.45 120.44 57.84 121.2C58.22 121.96 58.89 123.18 59.32 123.9C59.76 124.63 60.43 125.69 60.82 126.27C61.21 126.84 61.56 127.35 61.6 127.4C61.66 127.47 63.35 126.11 69.45 121.1C73.72 117.58 79.15 113.11 81.52 111.15C83.89 109.2 85.94 107.51 86.33 107.22L90.07 107.66C92.93 108 93.86 108.13 93.99 108.22C94.08 108.28 94.31 108.47 94.49 108.64C94.67 108.81 94.98 109.16 95.18 109.42C95.38 109.68 95.54 109.91 95.54 109.94C95.54 109.97 90.42 116.18 84.15 123.75C77.88 131.32 72.65 137.64 72.28 138.09L72.45 138.22C72.54 138.29 73.14 138.7 73.77 139.12C74.4 139.54 75.33 140.13 75.83 140.43C76.33 140.73 77.29 141.26 77.95 141.62C78.62 141.98 79.7 142.51 80.35 142.8C81 143.1 82 143.53 82.58 143.76C83.15 143.99 84.11 144.34 84.71 144.54C85.3 144.74 86.35 145.07 87.04 145.27C87.72 145.47 88.91 145.77 89.67 145.94C90.43 146.11 91.62 146.34 92.3 146.45C92.99 146.57 94.08 146.72 94.73 146.79C95.38 146.86 96.4 146.95 97 146.99C97.59 147.03 98.96 147.06 100.05 147.06C101.14 147.06 102.49 147.03 103.06 146.99C103.62 146.96 104.53 146.88 105.06 146.82C105.6 146.77 106.54 146.64 107.16 146.55C107.77 146.46 108.8 146.28 109.45 146.15C110.1 146.02 111 145.82 111.44 145.71C111.89 145.59 112.68 145.38 113.2 145.23C113.72 145.08 114.66 144.78 115.29 144.57C115.93 144.35 116.87 144.01 117.39 143.8C117.91 143.6 118.79 143.23 119.35 142.98C119.9 142.73 120.94 142.23 121.64 141.87C122.35 141.51 123.38 140.94 123.94 140.62C124.49 140.29 125.47 139.68 126.1 139.27C126.73 138.85 127.73 138.14 128.33 137.7C128.92 137.26 129.77 136.59 130.22 136.22C130.66 135.84 131.22 135.37 131.47 135.16C131.71 134.95 131.93 134.77 131.95 134.77C131.98 134.77 131.99 134.9 131.97 135.06C131.95 135.22 131.88 135.68 131.83 136.09C131.77 136.5 131.62 137.35 131.5 137.98C131.37 138.61 131.14 139.55 130.99 140.07C130.84 140.59 130.59 141.37 130.44 141.8C130.29 142.22 130.02 142.94 129.83 143.38C129.65 143.83 129.25 144.68 128.95 145.27C128.65 145.87 128.18 146.73 127.9 147.2C127.62 147.66 127.2 148.33 126.95 148.68C126.71 149.04 126.33 149.57 126.11 149.86C125.88 150.16 125.42 150.74 125.08 151.15C124.74 151.56 124.1 152.27 123.66 152.73C123.22 153.19 122.49 153.89 122.05 154.28C121.6 154.68 120.95 155.24 120.59 155.52C120.24 155.8 119.6 156.28 119.18 156.58C118.75 156.89 118.02 157.37 117.56 157.66C117.09 157.95 116.3 158.41 115.8 158.68C115.3 158.95 114.49 159.35 114.01 159.57C113.53 159.79 112.77 160.12 112.32 160.3C111.88 160.47 111.04 160.77 110.47 160.96C109.89 161.15 109.01 161.41 108.51 161.54C108.01 161.67 107.14 161.87 106.58 161.98C106.03 162.09 105.1 162.24 104.52 162.32C103.95 162.39 103.08 162.49 102.6 162.52C102.12 162.56 100.96 162.59 100.03 162.59C99.11 162.59 97.95 162.56 97.47 162.52C96.99 162.49 96.12 162.39 95.54 162.32C94.97 162.24 94.04 162.09 93.48 161.98C92.93 161.87 92.06 161.67 91.56 161.54C91.06 161.41 90.18 161.15 89.6 160.96C89.03 160.77 88.19 160.47 87.74 160.3C87.3 160.12 86.55 159.8 86.09 159.59C85.63 159.38 84.99 159.07 84.67 158.9C84.36 158.73 83.78 158.4 83.39 158.18C83 157.96 82.3 157.53 81.84 157.22C81.37 156.92 80.66 156.42 80.25 156.11C79.84 155.8 79.25 155.34 78.93 155.07C78.62 154.81 78.01 154.27 77.59 153.88C77.16 153.49 76.45 152.78 76.01 152.3C75.56 151.81 74.88 151.02 74.5 150.54C74.11 150.06 73.45 149.15 73.03 148.51C72.6 147.88 72.09 147.06 71.87 146.69C71.66 146.32 71.3 145.64 71.07 145.17C70.83 144.71 70.48 143.93 70.27 143.45C70.07 142.97 69.76 142.16 69.59 141.66C69.41 141.16 69.15 140.32 69.01 139.8C68.87 139.28 68.68 138.48 68.58 138.01C68.48 137.55 68.35 136.75 68.27 136.23C68.2 135.71 68.09 134.54 68.02 133.63C67.96 132.72 67.91 131.97 67.9 131.96C67.9 131.96 67.18 131.89 66.31 131.81C65.43 131.73 64.26 131.6 63.71 131.53C63.15 131.45 62.33 131.31 61.88 131.22C61.44 131.13 60.68 130.95 60.2 130.83C59.71 130.7 58.83 130.43 58.24 130.23C57.64 130.02 56.72 129.67 56.18 129.44C55.64 129.21 54.93 128.88 54.59 128.71C54.26 128.55 53.63 128.21 53.21 127.97C52.78 127.73 52.04 127.27 51.55 126.96C51.07 126.64 50.37 126.15 50 125.88C49.63 125.6 48.98 125.08 48.55 124.72C48.12 124.36 47.28 123.59 46.69 122.99C46.09 122.4 45.33 121.59 45 121.2C44.66 120.81 44.11 120.11 43.76 119.65C43.41 119.18 42.84 118.38 42.5 117.86C42.16 117.34 41.7 116.6 41.48 116.21C41.25 115.82 40.87 115.09 40.62 114.6C40.38 114.11 39.99 113.27 39.76 112.74C39.54 112.22 39.14 111.16 38.89 110.4C38.63 109.64 38.3 108.53 38.16 107.93C38.01 107.34 37.81 106.43 37.71 105.91C37.62 105.39 37.48 104.49 37.41 103.92C37.33 103.34 37.24 102.41 37.21 101.84C37.17 101.27 37.14 100.32 37.14 99.73C37.14 99.14 37.17 98.19 37.21 97.62C37.24 97.05 37.33 96.12 37.41 95.54C37.48 94.97 37.62 94.07 37.71 93.55C37.81 93.03 38.01 92.12 38.16 91.53C38.3 90.93 38.63 89.82 38.89 89.06C39.14 88.3 39.54 87.24 39.76 86.72C39.99 86.19 40.38 85.35 40.62 84.86C40.87 84.37 41.25 83.64 41.48 83.25C41.7 82.86 42.16 82.12 42.5 81.6C42.84 81.08 43.41 80.28 43.76 79.81C44.11 79.35 44.66 78.65 45 78.26C45.33 77.87 46.09 77.06 46.69 76.47C47.28 75.87 48.12 75.1 48.55 74.74C48.98 74.38 49.63 73.86 50 73.58C50.37 73.31 51.07 72.82 51.55 72.5C52.04 72.19 52.78 71.73 53.21 71.49C53.63 71.25 54.26 70.91 54.59 70.75C54.93 70.58 55.64 70.25 56.18 70.02C56.72 69.79 57.64 69.44 58.24 69.23C58.83 69.03 59.71 68.76 60.2 68.63C60.68 68.51 61.38 68.34 61.75 68.26C62.12 68.18 62.9 68.05 63.47 67.96C64.05 67.87 64.63 67.8 64.77 67.8Z"/>
		<path class="shp0" d="M103.06 68.81C104.01 68.81 105.18 68.84 105.65 68.88C106.13 68.92 106.96 69.02 107.49 69.11C108.03 69.21 108.88 69.39 109.37 69.51C109.86 69.64 110.61 69.87 111.02 70.03C111.44 70.18 112.21 70.51 112.73 70.76C113.25 71.02 114.01 71.44 114.42 71.71C114.82 71.98 115.36 72.35 115.6 72.54C115.84 72.73 116.32 73.16 116.66 73.49C117.01 73.83 117.29 74.13 117.29 74.16C117.29 74.18 113.24 79.14 108.3 85.16C103.35 91.19 99.27 96.17 99.23 96.23C99.16 96.33 98.65 96.34 85.89 96.25L85.92 74.12L86.9 73.55C87.44 73.24 88.59 72.63 89.47 72.19C90.34 71.76 91.6 71.18 92.27 70.92C92.94 70.65 93.94 70.29 94.5 70.12C95.05 69.95 95.94 69.7 96.46 69.58C96.98 69.45 97.86 69.27 98.41 69.18C98.97 69.09 99.85 68.97 100.37 68.91C100.89 68.86 102.1 68.82 103.06 68.81ZM60.58 71.44C60.61 71.44 60.63 71.46 60.63 71.49C60.63 71.52 60.44 71.68 60.21 71.84C59.98 72.01 59.5 72.39 59.15 72.68C58.8 72.98 58.23 73.48 57.88 73.8C57.54 74.12 56.91 74.76 56.48 75.22C56.06 75.68 55.49 76.35 55.2 76.7C54.92 77.06 54.45 77.68 54.16 78.09C53.86 78.5 53.37 79.24 53.05 79.74C52.74 80.24 52.27 81.05 52.01 81.53C51.74 82.02 51.33 82.85 51.08 83.39C50.83 83.93 50.43 84.85 50.2 85.45C49.97 86.04 49.63 87 49.44 87.58C49.26 88.15 48.97 89.17 48.8 89.84C48.63 90.51 48.39 91.54 48.28 92.13C48.16 92.73 48 93.79 47.91 94.5C47.82 95.2 47.71 96.25 47.67 96.83C47.62 97.4 47.58 98.71 47.58 99.73C47.58 100.75 47.62 102.06 47.67 102.63C47.71 103.21 47.82 104.26 47.91 104.96C48 105.67 48.16 106.73 48.28 107.33C48.39 107.92 48.63 108.95 48.8 109.62C48.97 110.29 49.26 111.31 49.44 111.88C49.63 112.46 49.97 113.42 50.2 114.01C50.43 114.6 50.83 115.53 51.08 116.07C51.33 116.61 51.74 117.44 52.01 117.93C52.27 118.41 52.74 119.22 53.05 119.72C53.37 120.22 53.86 120.96 54.16 121.37C54.45 121.78 54.92 122.4 55.2 122.75C55.49 123.11 56.06 123.77 56.47 124.23C56.89 124.69 57.51 125.33 57.87 125.65C58.22 125.98 58.8 126.48 59.15 126.78C59.5 127.07 59.98 127.45 60.21 127.62C60.44 127.78 60.63 127.94 60.63 127.97C60.63 128 60.57 128 60.48 127.98C60.4 127.96 59.91 127.77 59.39 127.57C58.87 127.36 58 126.97 57.46 126.71C56.92 126.44 56.19 126.04 55.84 125.83C55.49 125.61 54.9 125.23 54.52 124.98C54.15 124.73 53.45 124.2 52.97 123.82C52.49 123.43 51.72 122.75 51.26 122.31C50.79 121.87 50.08 121.13 49.68 120.66C49.27 120.2 48.64 119.42 48.28 118.94C47.91 118.46 47.39 117.71 47.11 117.29C46.83 116.86 46.39 116.11 46.11 115.63C45.84 115.15 45.43 114.36 45.2 113.88C44.97 113.39 44.6 112.54 44.38 111.99C44.15 111.43 43.83 110.55 43.67 110.03C43.5 109.51 43.27 108.73 43.15 108.31C43.04 107.88 42.89 107.25 42.81 106.9C42.74 106.56 42.6 105.83 42.51 105.28C42.42 104.74 42.29 103.83 42.22 103.27C42.13 102.48 42.1 101.72 42.1 99.73C42.1 97.74 42.13 96.98 42.22 96.19C42.29 95.63 42.42 94.72 42.51 94.18C42.6 93.63 42.74 92.9 42.81 92.56C42.89 92.21 43.04 91.58 43.15 91.15C43.27 90.73 43.5 89.95 43.67 89.43C43.83 88.91 44.15 88.03 44.38 87.47C44.6 86.92 44.97 86.07 45.2 85.58C45.43 85.1 45.84 84.31 46.11 83.83C46.39 83.35 46.83 82.6 47.11 82.17C47.39 81.75 47.91 81 48.28 80.52C48.64 80.04 49.27 79.26 49.68 78.8C50.08 78.33 50.79 77.59 51.26 77.15C51.72 76.71 52.49 76.03 52.97 75.64C53.45 75.26 54.2 74.7 54.63 74.41C55.05 74.13 55.69 73.72 56.04 73.51C56.4 73.31 57.16 72.91 57.73 72.63C58.31 72.35 59.17 71.96 59.66 71.78C60.14 71.59 60.56 71.44 60.58 71.44ZM139.76 71.54C139.82 71.56 140.16 71.69 140.51 71.82C140.87 71.95 141.76 72.36 142.51 72.72C143.25 73.09 144.27 73.65 144.77 73.97C145.27 74.29 146.01 74.81 146.42 75.12C146.83 75.42 147.54 76.01 148.01 76.42C148.47 76.82 149.17 77.49 149.56 77.89C149.94 78.3 150.54 78.96 150.88 79.37C151.22 79.78 151.76 80.46 152.07 80.89C152.38 81.32 152.87 82.03 153.15 82.48C153.43 82.92 153.89 83.71 154.18 84.23C154.46 84.75 154.87 85.57 155.09 86.06C155.3 86.54 155.62 87.28 155.79 87.71C155.96 88.14 156.23 88.91 156.4 89.43C156.57 89.95 156.82 90.79 156.95 91.29C157.08 91.79 157.26 92.58 157.36 93.05C157.45 93.51 157.59 94.3 157.66 94.8C157.73 95.3 157.83 96.06 157.88 96.49C157.93 96.98 157.97 98.18 157.97 99.73C157.97 101.28 157.93 102.48 157.88 102.97C157.83 103.4 157.73 104.16 157.66 104.66C157.59 105.16 157.45 105.95 157.36 106.41C157.26 106.88 157.08 107.67 156.95 108.17C156.82 108.67 156.57 109.51 156.4 110.03C156.23 110.55 155.96 111.32 155.79 111.75C155.62 112.18 155.29 112.95 155.05 113.47C154.82 113.99 154.41 114.81 154.14 115.29C153.88 115.78 153.42 116.56 153.11 117.04C152.81 117.51 152.24 118.33 151.85 118.86C151.46 119.39 150.8 120.2 150.39 120.66C149.98 121.13 149.27 121.87 148.81 122.31C148.35 122.75 147.58 123.43 147.1 123.82C146.61 124.2 145.91 124.73 145.54 124.98C145.17 125.23 144.58 125.61 144.23 125.83C143.87 126.04 143.14 126.44 142.61 126.71C142.07 126.98 141.2 127.36 140.68 127.57C140.16 127.77 139.67 127.96 139.58 127.98C139.5 128 139.43 128 139.43 127.97C139.44 127.94 139.63 127.78 139.86 127.62C140.09 127.45 140.57 127.07 140.92 126.78C141.27 126.48 141.85 125.98 142.2 125.65C142.55 125.33 143.19 124.67 143.62 124.2C144.05 123.73 144.62 123.07 144.89 122.73C145.16 122.39 145.62 121.78 145.91 121.37C146.21 120.96 146.7 120.22 147.02 119.72C147.33 119.22 147.82 118.38 148.1 117.86C148.38 117.34 148.8 116.5 149.02 116C149.25 115.5 149.59 114.71 149.78 114.25C149.96 113.78 150.26 112.98 150.44 112.46C150.61 111.94 150.88 111.07 151.03 110.53C151.18 109.99 151.38 109.22 151.48 108.81C151.57 108.4 151.72 107.67 151.81 107.19C151.91 106.71 152.03 105.98 152.09 105.57C152.15 105.16 152.24 104.39 152.3 103.85C152.35 103.31 152.43 102.16 152.47 101.28C152.51 100.18 152.51 99.21 152.46 98.11C152.42 97.24 152.35 96.1 152.29 95.58C152.24 95.06 152.14 94.3 152.09 93.89C152.03 93.48 151.89 92.68 151.78 92.1C151.67 91.52 151.44 90.51 151.27 89.84C151.1 89.17 150.81 88.15 150.63 87.58C150.44 87 150.1 86.04 149.87 85.45C149.63 84.85 149.23 83.91 148.97 83.36C148.72 82.8 148.25 81.89 147.94 81.33C147.64 80.77 147.15 79.95 146.87 79.51C146.59 79.06 146.1 78.34 145.78 77.91C145.46 77.48 144.88 76.73 144.49 76.25C144.09 75.78 143.38 74.99 142.9 74.51C142.42 74.03 141.71 73.36 141.32 73.02C140.93 72.69 140.38 72.23 140.09 72.01C139.8 71.79 139.59 71.58 139.61 71.55C139.64 71.52 139.7 71.52 139.76 71.54ZM22.99 93.79C23.34 93.79 23.77 93.83 24 93.89C24.23 93.95 24.61 94.09 24.85 94.2C25.15 94.34 25.44 94.56 25.77 94.89C26.14 95.26 26.32 95.51 26.53 95.95C26.7 96.3 26.86 96.77 26.94 97.16C27.03 97.61 27.08 98.08 27.08 98.68C27.08 99.17 27.03 99.82 26.98 100.14C26.92 100.45 26.8 100.94 26.7 101.22C26.61 101.49 26.42 101.92 26.29 102.16C26.15 102.41 25.82 102.82 25.53 103.11C25.16 103.47 24.87 103.69 24.51 103.86C24.23 104 23.76 104.18 23.46 104.27C23 104.4 22.77 104.42 21.81 104.42C20.94 104.42 20.6 104.39 20.26 104.3C20.02 104.23 19.73 104.13 19.62 104.07C19.5 104.01 19.4 103.96 19.39 103.96C19.38 103.95 19.48 103.57 19.62 103.11C19.76 102.64 19.88 102.24 19.89 102.21C19.91 102.18 20.06 102.22 20.24 102.3C20.42 102.37 20.8 102.48 21.1 102.54C21.45 102.61 21.79 102.64 22.08 102.61C22.32 102.59 22.72 102.51 22.97 102.43C23.28 102.34 23.57 102.19 23.85 101.98C24.13 101.76 24.34 101.51 24.52 101.22C24.66 100.97 24.82 100.59 24.87 100.37C24.92 100.15 24.95 99.94 24.94 99.92C24.93 99.89 24.79 99.98 24.63 100.11C24.47 100.25 24.14 100.46 23.9 100.57C23.53 100.74 23.37 100.78 22.79 100.8C22.4 100.81 21.96 100.79 21.74 100.74C21.54 100.7 21.17 100.57 20.93 100.45C20.65 100.32 20.35 100.1 20.08 99.84C19.82 99.57 19.6 99.27 19.46 98.99C19.35 98.75 19.22 98.39 19.18 98.19C19.14 98 19.11 97.63 19.11 97.38C19.11 97.13 19.15 96.75 19.21 96.52C19.27 96.3 19.4 95.95 19.49 95.75C19.6 95.52 19.86 95.19 20.15 94.9C20.48 94.57 20.77 94.35 21.1 94.2C21.36 94.07 21.76 93.93 21.98 93.88C22.2 93.84 22.66 93.8 22.99 93.79ZM175.39 93.8C175.73 93.79 176.19 93.84 176.43 93.89C176.68 93.95 177.09 94.11 177.35 94.25C177.61 94.38 177.99 94.66 178.19 94.87C178.4 95.07 178.69 95.45 178.83 95.71C178.98 95.97 179.17 96.41 179.25 96.69C179.33 96.97 179.43 97.51 179.47 97.89C179.52 98.37 179.52 98.82 179.47 99.34C179.44 99.76 179.34 100.36 179.27 100.68C179.19 100.99 178.99 101.54 178.82 101.89C178.56 102.42 178.41 102.63 177.96 103.07C177.63 103.4 177.25 103.7 177.01 103.82C176.79 103.94 176.41 104.1 176.16 104.17C175.92 104.25 175.54 104.35 175.32 104.39C175.1 104.43 174.61 104.46 174.24 104.46C173.87 104.45 173.37 104.41 173.13 104.36C172.88 104.31 172.52 104.2 172.32 104.12C172.11 104.05 171.91 103.96 171.86 103.93C171.8 103.89 171.84 103.69 172.01 103.11C172.14 102.68 172.27 102.29 172.28 102.25C172.31 102.18 172.41 102.19 172.7 102.3C172.92 102.38 173.34 102.47 173.63 102.52C174.03 102.57 174.32 102.57 174.75 102.51C175.11 102.46 175.48 102.35 175.76 102.22C176 102.11 176.35 101.88 176.52 101.7C176.7 101.53 176.92 101.24 177.01 101.06C177.1 100.89 177.22 100.57 177.28 100.35C177.33 100.14 177.36 99.94 177.34 99.92C177.33 99.89 177.21 99.96 177.08 100.07C176.95 100.18 176.7 100.34 176.52 100.43C176.34 100.52 176.05 100.63 175.86 100.67C175.68 100.72 175.28 100.75 174.98 100.75C174.69 100.75 174.29 100.72 174.11 100.67C173.92 100.63 173.57 100.5 173.33 100.38C173.08 100.26 172.73 100.01 172.51 99.8C172.29 99.58 172.04 99.24 171.91 98.99C171.79 98.75 171.65 98.35 171.6 98.11C171.55 97.87 171.51 97.52 171.51 97.33C171.51 97.15 171.55 96.8 171.61 96.56C171.67 96.31 171.8 95.95 171.9 95.75C172 95.54 172.27 95.18 172.52 94.93C172.78 94.66 173.12 94.4 173.36 94.28C173.59 94.17 173.93 94.03 174.12 93.98C174.31 93.92 174.54 93.86 174.63 93.84C174.71 93.82 175.05 93.8 175.39 93.8ZM187.81 93.82C188.55 93.83 188.85 93.87 189.2 93.98C189.44 94.06 189.68 94.15 189.73 94.18C189.8 94.22 189.76 94.4 189.53 95.1C189.37 95.59 189.24 95.99 189.24 96C189.23 96 188.99 95.94 188.71 95.84C188.42 95.75 187.98 95.66 187.73 95.64C187.43 95.61 187.1 95.63 186.77 95.71C186.49 95.76 186.06 95.91 185.82 96.03C185.57 96.15 185.23 96.4 185.04 96.59C184.86 96.78 184.61 97.13 184.49 97.37C184.37 97.61 184.25 97.96 184.18 98.48L184.48 98.2C184.64 98.05 184.88 97.87 185.01 97.79C185.14 97.71 185.41 97.6 185.62 97.54C185.84 97.48 186.24 97.43 186.6 97.43C186.93 97.43 187.39 97.48 187.61 97.54C187.83 97.6 188.18 97.73 188.38 97.83C188.59 97.93 188.91 98.16 189.1 98.35C189.29 98.53 189.54 98.87 189.66 99.11C189.78 99.34 189.92 99.72 189.97 99.95C190.03 100.18 190.07 100.57 190.07 100.81C190.07 101.05 190.03 101.45 189.97 101.69C189.91 101.93 189.77 102.31 189.65 102.53C189.53 102.75 189.24 103.13 189.01 103.36C188.72 103.65 188.43 103.86 188.1 104.01C187.83 104.14 187.41 104.29 187.17 104.35C186.93 104.41 186.46 104.46 186.12 104.46C185.79 104.46 185.33 104.41 185.11 104.35C184.89 104.3 184.48 104.14 184.2 104C183.85 103.83 183.56 103.62 183.25 103.31C182.99 103.04 182.72 102.68 182.57 102.4C182.43 102.14 182.26 101.71 182.17 101.45C182.06 101.09 182.01 100.75 181.99 100.03C181.97 99.45 181.99 98.9 182.04 98.58C182.08 98.3 182.2 97.83 182.29 97.54C182.38 97.24 182.56 96.8 182.7 96.56C182.83 96.31 183.06 95.95 183.21 95.75C183.37 95.55 183.69 95.22 183.93 95.02C184.17 94.82 184.57 94.56 184.81 94.43C185.05 94.31 185.46 94.14 185.72 94.06C185.98 93.98 186.34 93.89 186.53 93.86C186.72 93.82 187.29 93.81 187.81 93.82ZM15.53 94.06L15.53 104.25L13.37 104.25L13.37 97.43L10.94 97.43L10.94 95.98L11.39 95.91C11.64 95.87 12.04 95.75 12.28 95.64C12.57 95.51 12.82 95.32 13.04 95.09C13.22 94.89 13.41 94.63 13.46 94.51C13.51 94.39 13.57 94.24 13.59 94.18C13.63 94.07 13.74 94.06 15.53 94.06Z"/>
		<path class="shp1" d="M23.08 95.64C23.27 95.66 23.56 95.74 23.72 95.82C23.87 95.9 24.09 96.04 24.2 96.14C24.3 96.24 24.45 96.44 24.53 96.59C24.6 96.74 24.68 97.04 24.7 97.27C24.72 97.62 24.7 97.72 24.53 98.04C24.39 98.3 24.24 98.48 24 98.64C23.82 98.76 23.54 98.89 23.4 98.93C23.25 98.97 22.96 98.99 22.75 98.97C22.55 98.95 22.23 98.86 22.03 98.76C21.83 98.66 21.6 98.48 21.51 98.36C21.41 98.24 21.29 97.99 21.23 97.81C21.16 97.58 21.14 97.36 21.17 97.16C21.19 97 21.29 96.71 21.39 96.53C21.49 96.35 21.68 96.12 21.81 96.02C21.93 95.93 22.19 95.79 22.38 95.73C22.62 95.65 22.83 95.62 23.08 95.64ZM175.51 95.64C175.72 95.66 176.04 95.75 176.21 95.83C176.38 95.91 176.63 96.1 176.75 96.25C176.88 96.4 177.01 96.63 177.04 96.76C177.08 96.89 177.11 97.13 177.11 97.3C177.11 97.47 177.07 97.72 177.02 97.87C176.98 98.01 176.82 98.27 176.67 98.43C176.49 98.63 176.28 98.77 176.05 98.86C175.85 98.93 175.55 98.99 175.37 98.99C175.19 98.99 174.9 98.94 174.71 98.87C174.51 98.8 174.27 98.65 174.1 98.48C173.95 98.33 173.8 98.09 173.75 97.94C173.71 97.79 173.67 97.49 173.67 97.27C173.67 97.01 173.72 96.76 173.79 96.59C173.86 96.44 174.02 96.22 174.15 96.1C174.27 95.98 174.54 95.82 174.75 95.74C175.02 95.64 175.22 95.62 175.51 95.64ZM186.09 99.19C186.26 99.19 186.5 99.22 186.63 99.26C186.76 99.29 187 99.41 187.17 99.51C187.38 99.64 187.54 99.82 187.67 100.07C187.84 100.38 187.87 100.51 187.87 100.91C187.87 101.25 187.83 101.46 187.73 101.65C187.66 101.8 187.47 102.04 187.31 102.18C187.14 102.33 186.9 102.47 186.68 102.53C186.49 102.59 186.24 102.63 186.12 102.63C186.01 102.63 185.75 102.58 185.55 102.52C185.29 102.45 185.08 102.32 184.86 102.1C184.63 101.89 184.5 101.69 184.42 101.45C184.35 101.23 184.33 100.98 184.35 100.74C184.37 100.54 184.45 100.25 184.52 100.1C184.59 99.95 184.77 99.73 184.92 99.61C185.06 99.49 185.32 99.35 185.48 99.29C185.65 99.24 185.92 99.2 186.09 99.19ZM86.07 125.47C86.08 125.48 86.15 125.84 86.23 126.27C86.3 126.69 86.45 127.42 86.57 127.89C86.68 128.35 86.85 128.99 86.95 129.3C87.04 129.62 87.28 130.3 87.49 130.82C87.69 131.34 88.03 132.13 88.25 132.58C88.47 133.02 88.84 133.71 89.08 134.1C89.31 134.49 89.67 135.04 90.25 135.82L89.01 137.34C88.32 138.18 87.73 138.86 87.69 138.85C87.64 138.85 86.23 137.71 84.55 136.31C82.87 134.91 81.5 133.73 81.5 133.69C81.51 133.64 82.47 131.87 83.64 129.75C84.81 127.63 85.83 125.79 85.91 125.67C85.98 125.55 86.06 125.46 86.07 125.47Z"/>
		<path class="shp2" d="M145.09 132.48C145.14 132.48 145.2 132.62 145.24 132.83C145.28 133.03 145.35 133.49 145.39 133.86C145.43 134.23 145.44 134.87 145.42 135.28C145.4 135.69 145.33 136.3 145.27 136.63C145.21 136.96 145.05 137.59 144.91 138.01C144.77 138.44 144.51 139.06 144.34 139.4C144.18 139.73 143.85 140.3 143.61 140.65C143.36 141.02 142.88 141.59 142.47 142.01C142.08 142.4 141.53 142.89 141.26 143.1C140.98 143.3 140.51 143.61 140.21 143.78C139.91 143.95 139.38 144.21 139.03 144.35C138.67 144.49 138.08 144.69 137.71 144.79C137.34 144.88 136.78 145 136.46 145.04C136.09 145.1 135.49 145.11 134.74 145.08C134.11 145.06 133.41 145 133.19 144.95C132.9 144.88 132.79 144.83 132.8 144.76C132.82 144.71 132.96 144.29 133.13 143.82C133.3 143.36 133.56 142.57 133.98 141.15L135.04 141.15C135.93 141.15 136.18 141.13 136.66 141C136.98 140.91 137.5 140.72 137.81 140.57C138.13 140.42 138.57 140.17 138.79 140.01C139.01 139.85 139.39 139.53 139.63 139.29C139.87 139.05 140.23 138.6 140.44 138.28C140.64 137.97 140.91 137.47 141.03 137.17C141.15 136.87 141.3 136.39 141.36 136.09C141.44 135.7 141.46 135.29 141.42 133.67L142.57 133.32C143.2 133.13 144.01 132.86 144.36 132.73C144.71 132.6 145.04 132.49 145.09 132.48ZM55.2 132.61C55.22 132.61 55.79 132.79 56.47 133.02C57.14 133.24 57.91 133.48 58.64 133.69L58.62 134.59C58.6 135.24 58.62 135.64 58.71 136.06C58.77 136.37 58.93 136.89 59.06 137.2C59.18 137.52 59.45 138.02 59.65 138.32C59.85 138.62 60.21 139.05 60.44 139.29C60.68 139.52 61.05 139.85 61.28 140.01C61.5 140.17 61.94 140.42 62.26 140.57C62.57 140.72 63.09 140.91 63.4 141C63.88 141.12 64.15 141.15 66.03 141.15L66.21 141.8C66.31 142.15 66.55 142.89 66.74 143.45C66.94 144.01 67.16 144.62 67.24 144.82C67.38 145.15 67.38 145.17 67.27 145.2C67.2 145.22 66.91 145.27 66.61 145.31C66.31 145.36 65.64 145.4 65.12 145.39C64.56 145.39 63.92 145.35 63.54 145.28C63.19 145.22 62.64 145.1 62.32 145.01C62.01 144.92 61.49 144.73 61.17 144.6C60.86 144.47 60.36 144.22 60.06 144.05C59.76 143.87 59.29 143.57 59.01 143.36C58.74 143.16 58.2 142.69 57.83 142.31C57.4 141.87 56.97 141.35 56.64 140.85C56.35 140.42 56 139.82 55.85 139.5C55.7 139.18 55.5 138.68 55.4 138.39C55.3 138.09 55.16 137.58 55.09 137.26C55.02 136.93 54.93 136.31 54.9 135.89C54.85 135.38 54.85 134.85 54.89 134.35C54.93 133.93 54.99 133.43 55.03 133.22C55.07 133.02 55.12 132.8 55.14 132.73C55.16 132.67 55.19 132.61 55.2 132.61Z"/>
		<path class="shp0" d="M71.77 139.06L71.89 139.23C71.96 139.32 72.26 139.72 72.57 140.11C72.88 140.5 73.46 141.18 73.87 141.63C74.27 142.07 74.99 142.79 75.47 143.23C75.94 143.66 76.62 144.25 76.98 144.54C77.33 144.82 78.01 145.34 78.49 145.68C78.98 146.02 79.69 146.49 80.08 146.74C80.47 146.98 81.11 147.35 81.5 147.57C81.89 147.79 82.72 148.22 83.36 148.52C83.99 148.82 84.93 149.24 85.45 149.45C85.97 149.65 86.76 149.95 87.2 150.1C87.65 150.25 88.49 150.52 89.06 150.68C89.64 150.85 90.59 151.09 91.19 151.22C91.78 151.36 92.79 151.55 93.42 151.65C94.05 151.76 95.01 151.89 95.54 151.95C96.08 152.01 97.01 152.09 97.6 152.13C98.2 152.16 99.29 152.19 100.03 152.19C100.78 152.19 101.87 152.16 102.46 152.13C103.06 152.09 103.97 152.01 104.49 151.95C105.01 151.9 105.83 151.79 106.31 151.71C106.8 151.64 107.63 151.49 108.17 151.38C108.71 151.27 109.6 151.06 110.16 150.91C110.72 150.77 111.66 150.49 112.26 150.3C112.85 150.11 113.84 149.76 114.45 149.52C115.06 149.27 116.14 148.8 116.85 148.45C117.55 148.11 118.54 147.59 119.04 147.3C119.54 147.01 120.32 146.53 120.76 146.23C121.21 145.94 121.85 145.49 122.2 145.23C122.54 144.98 123.12 144.52 123.48 144.21C123.84 143.91 124.45 143.37 124.84 143.02C125.22 142.66 125.85 142.02 126.23 141.59C126.62 141.17 127.19 140.5 127.49 140.11C127.8 139.72 128.11 139.32 128.3 139.06L128.27 139.26C128.25 139.38 128.09 139.83 127.92 140.28C127.75 140.72 127.38 141.54 127.11 142.1C126.84 142.66 126.39 143.49 126.11 143.96C125.83 144.42 125.35 145.16 125.04 145.59C124.73 146.02 124.21 146.71 123.87 147.11C123.54 147.51 122.8 148.31 122.22 148.89C121.64 149.47 120.89 150.17 120.56 150.45C120.23 150.73 119.62 151.21 119.21 151.52C118.8 151.82 118.13 152.3 117.72 152.56C117.32 152.83 116.66 153.23 116.27 153.46C115.88 153.68 115.14 154.08 114.62 154.34C114.1 154.6 113.26 154.99 112.76 155.2C112.26 155.41 111.27 155.78 110.57 156.01C109.86 156.25 108.74 156.58 108.07 156.74C107.4 156.91 106.4 157.12 105.84 157.22C105.28 157.31 104.43 157.44 103.95 157.49C103.47 157.55 102.39 157.63 101.55 157.68C100.38 157.74 99.69 157.74 98.51 157.68C97.68 157.63 96.6 157.55 96.12 157.49C95.63 157.44 94.78 157.31 94.23 157.22C93.67 157.12 92.67 156.91 92 156.74C91.33 156.58 90.21 156.25 89.5 156.01C88.79 155.78 87.81 155.41 87.31 155.2C86.8 154.99 85.97 154.6 85.45 154.34C84.93 154.08 84.18 153.68 83.79 153.46C83.4 153.23 82.75 152.83 82.34 152.56C81.93 152.3 81.27 151.82 80.86 151.52C80.45 151.21 79.84 150.73 79.51 150.45C79.17 150.17 78.43 149.47 77.85 148.89C77.27 148.31 76.55 147.54 76.24 147.16C75.93 146.79 75.42 146.12 75.1 145.68C74.78 145.23 74.27 144.47 73.98 143.99C73.69 143.51 73.23 142.66 72.96 142.1C72.69 141.54 72.32 140.72 72.15 140.28C71.97 139.83 71.82 139.38 71.8 139.26L71.77 139.06ZM46.97 151.05C46.99 151.05 47.82 151.8 48.84 152.72C49.85 153.64 50.84 154.58 51.03 154.8C51.23 155.02 51.49 155.4 51.62 155.64C51.74 155.88 51.9 156.26 51.95 156.48C52.01 156.7 52.06 157.12 52.06 157.39C52.06 157.67 52.01 158.07 51.96 158.29C51.9 158.5 51.78 158.84 51.68 159.03C51.58 159.23 51.38 159.54 51.23 159.72C51.09 159.91 50.81 160.19 50.62 160.35C50.43 160.5 50.09 160.72 49.86 160.83C49.64 160.94 49.25 161.08 48.99 161.14C48.66 161.22 48.34 161.25 47.94 161.22C47.61 161.2 47.19 161.13 46.96 161.05C46.74 160.97 46.54 160.93 46.51 160.96C46.49 160.98 46.14 162.23 45.74 163.72C45.33 165.22 44.98 166.43 44.96 166.43C44.93 166.42 44.54 166.07 44.09 165.67C43.64 165.26 43.19 164.86 42.94 164.65L43.65 162.07C44.04 160.65 44.36 159.45 44.36 159.4C44.36 159.36 44.17 159.13 43.94 158.9C43.71 158.66 43.5 158.47 43.47 158.47C43.44 158.47 42.69 159.28 40.18 162.05L39.72 161.63C39.47 161.4 39.06 161.02 38.81 160.79C38.5 160.5 38.37 160.34 38.4 160.27C38.43 160.22 40.37 158.13 42.7 155.62C45.04 153.1 46.96 151.05 46.97 151.05ZM153.34 151.25C153.36 151.25 155.26 153.37 157.56 155.95C159.86 158.54 161.76 160.68 161.77 160.71C161.77 160.74 161.34 161.15 159.82 162.46L154.74 161.04C151.95 160.25 149.65 159.63 149.63 159.65C149.61 159.67 149.64 159.74 149.7 159.81C149.76 159.87 151.09 161.36 152.66 163.12C154.22 164.87 155.5 166.33 155.5 166.36C155.49 166.39 155.3 166.57 155.07 166.78C154.84 166.98 154.43 167.34 153.68 167.99L149.64 163.45C147.42 160.96 145.5 158.8 145.17 158.41L147.54 156.38L152.25 157.73C154.84 158.48 156.96 159.07 156.97 159.05C156.98 159.03 155.75 157.65 154.24 155.97C152.72 154.3 151.48 152.91 151.47 152.88C151.47 152.86 151.88 152.48 152.38 152.05C152.89 151.61 153.32 151.25 153.34 151.25Z"/>
		<path class="shp1" d="M47.46 154.42C47.52 154.45 47.97 154.87 48.46 155.35C49.21 156.08 49.36 156.26 49.45 156.55C49.51 156.74 49.56 157.02 49.56 157.19C49.56 157.38 49.5 157.63 49.4 157.83C49.31 158.02 49.12 158.27 48.98 158.4C48.83 158.53 48.6 158.69 48.45 158.75C48.3 158.82 48.01 158.88 47.81 158.88C47.53 158.88 47.34 158.83 47.06 158.69C46.86 158.59 46.32 158.17 45.85 157.74C45.38 157.32 45 156.95 44.99 156.91C44.98 156.88 45.5 156.29 46.16 155.61C47.12 154.6 47.36 154.37 47.46 154.42Z"/>
		<path class="shp0" d="M56 158.86C56.04 158.88 57.51 159.86 59.25 161.02C61 162.19 62.45 163.17 62.49 163.21C62.53 163.24 62.32 163.63 61.24 165.23L60.79 164.93C60.54 164.77 59.5 164.09 56.62 162.2L55.86 163.34C55.44 163.97 55.1 164.51 55.1 164.55C55.1 164.59 56 165.2 57.1 165.92C58.2 166.63 59.11 167.24 59.12 167.27C59.14 167.3 58.9 167.71 58.59 168.2C58.29 168.68 58 169.07 57.97 169.07C57.93 169.07 56.97 168.48 55.84 167.75C54.71 167.03 53.76 166.46 53.74 166.49C53.72 166.52 53.36 167.05 52.19 168.8L54.46 170.34C55.88 171.31 56.71 171.91 56.69 171.96C56.67 172.01 56.38 172.44 55.44 173.8L55.25 173.69C55.15 173.63 53.68 172.65 51.99 171.51C50.3 170.38 48.9 169.42 48.88 169.39C48.87 169.36 50.44 166.97 52.39 164.08C54.39 161.11 55.96 158.84 56 158.86ZM140.85 162.29C141.41 162.3 141.87 162.36 142.23 162.45C142.53 162.53 143.05 162.73 143.38 162.89C143.72 163.06 144.19 163.34 144.43 163.52C144.67 163.71 145.07 164.07 145.31 164.32C145.55 164.58 145.9 165.02 146.08 165.29C146.27 165.57 146.54 166.07 146.68 166.41C146.82 166.74 147 167.27 147.08 167.59C147.2 168.04 147.23 168.36 147.22 169.11C147.22 169.87 147.19 170.16 147.07 170.63C146.99 170.94 146.81 171.43 146.68 171.71C146.55 171.99 146.31 172.41 146.15 172.65C145.99 172.9 145.65 173.31 145.4 173.57C145.14 173.83 144.74 174.18 144.5 174.35C144.26 174.53 143.8 174.79 143.48 174.94C143.17 175.1 142.61 175.3 142.23 175.4C141.66 175.55 141.41 175.58 140.61 175.58C139.85 175.58 139.55 175.55 139.06 175.43C138.73 175.35 138.24 175.18 137.98 175.06C137.72 174.94 137.33 174.72 137.1 174.57C136.88 174.43 136.47 174.09 136.19 173.83C135.91 173.56 135.53 173.12 135.34 172.85C135.15 172.57 134.88 172.12 134.74 171.84C134.6 171.56 134.41 171.12 134.32 170.86C134.23 170.6 134.12 170.13 134.06 169.82C134.01 169.5 133.96 169.02 133.96 168.74C133.96 168.46 134 168.03 134.03 167.79C134.07 167.55 134.18 167.11 134.28 166.81C134.37 166.52 134.55 166.08 134.68 165.83C134.81 165.59 135.06 165.2 135.24 164.96C135.42 164.71 135.76 164.33 136 164.11C136.24 163.89 136.61 163.59 136.83 163.44C137.06 163.29 137.44 163.07 137.68 162.96C137.92 162.84 138.31 162.68 138.54 162.6C138.77 162.52 139.2 162.41 139.48 162.36C139.84 162.29 140.28 162.27 140.85 162.29ZM64.71 164.32C64.79 164.35 65.35 164.61 67.05 165.43L67.01 165.75C67 165.93 66.78 168.09 66.54 170.56C66.3 173.03 66.11 175.12 66.12 175.21C66.13 175.35 66.54 174.95 68.66 172.75C70.05 171.3 71.61 169.69 73.06 168.2L75.41 169.24L74.94 169.75C74.69 170.03 72.54 172.22 65.85 178.97L63.57 177.84L63.59 177.49C63.59 177.3 63.8 174.35 64.04 170.93C64.29 167.52 64.51 164.62 64.53 164.5C64.56 164.31 64.59 164.28 64.71 164.32Z"/>
		<path class="shp1" d="M140.68 164.72C140.98 164.73 141.42 164.81 141.66 164.88C141.91 164.96 142.34 165.17 142.64 165.37C142.97 165.59 143.31 165.9 143.54 166.17C143.74 166.41 144.03 166.88 144.2 167.22C144.36 167.55 144.54 168.01 144.6 168.23C144.65 168.45 144.7 168.89 144.7 169.21C144.7 169.53 144.65 169.97 144.59 170.19C144.54 170.41 144.39 170.78 144.27 171C144.15 171.22 143.86 171.62 143.61 171.88C143.36 172.14 142.98 172.46 142.76 172.59C142.55 172.72 142.13 172.89 141.83 172.98C141.47 173.08 141.11 173.13 140.77 173.13C140.48 173.13 140.08 173.09 139.89 173.05C139.69 173.01 139.32 172.88 139.06 172.75C138.8 172.63 138.41 172.37 138.19 172.17C137.97 171.97 137.66 171.63 137.51 171.4C137.35 171.18 137.13 170.82 137.02 170.59C136.91 170.37 136.75 169.99 136.68 169.75C136.6 169.51 136.52 169.11 136.5 168.87C136.47 168.63 136.48 168.22 136.53 167.96C136.57 167.67 136.7 167.27 136.87 166.93C137.06 166.54 137.26 166.25 137.56 165.95C137.79 165.72 138.13 165.43 138.32 165.31C138.5 165.19 138.85 165.02 139.1 164.95C139.34 164.87 139.67 164.78 139.84 164.75C140.01 164.72 140.38 164.7 140.68 164.72Z"/>
		<path class="shp0" d="M129.05 167.65C129.07 167.67 130.15 170.3 131.43 173.5C132.71 176.69 133.76 179.33 133.76 179.37C133.76 179.41 133.25 179.64 132.63 179.89C132.01 180.14 131.49 180.34 131.49 180.33C131.48 180.32 130.43 177.7 129.15 174.51C127.87 171.32 126.81 168.66 126.79 168.61C126.78 168.54 127.12 168.38 127.88 168.06C128.5 167.81 129.02 167.63 129.05 167.65ZM124.13 169.64C124.24 169.65 124.3 169.78 124.45 170.32C124.56 170.7 124.71 171.2 124.92 171.91L122.94 172.39C121.85 172.66 120.96 172.88 120.95 172.88C120.95 172.89 121.54 175.14 122.28 177.89C123.02 180.63 123.61 182.9 123.59 182.92C123.57 182.94 123.05 183.09 122.43 183.26C121.65 183.48 121.29 183.55 121.26 183.5C121.24 183.46 120.62 181.21 119.89 178.49C119.16 175.78 118.55 173.56 118.55 173.56C118.54 173.55 117.67 173.79 116.61 174.08C115.55 174.36 114.67 174.57 114.65 174.54C114.63 174.51 114.5 174.02 114.35 173.44C114.2 172.86 114.09 172.38 114.11 172.36C114.13 172.35 116.36 171.72 119.07 170.98C121.79 170.24 124.06 169.63 124.13 169.64ZM81.06 170.84C81.25 170.83 81.64 170.86 81.94 170.9C82.23 170.93 82.65 171.01 82.87 171.07C83.08 171.12 83.49 171.26 83.78 171.37C84.07 171.48 84.54 171.72 84.84 171.92C85.14 172.11 85.59 172.47 85.84 172.71C86.1 172.96 86.44 173.34 86.6 173.57C86.76 173.79 87.01 174.23 87.16 174.54C87.32 174.86 87.51 175.36 87.59 175.66C87.71 176.1 87.73 176.38 87.73 177.25C87.73 178.19 87.71 178.37 87.53 179.07C87.42 179.5 87.24 180.04 87.13 180.28C87.03 180.52 86.82 180.94 86.67 181.2C86.49 181.49 86.15 181.92 85.72 182.34C85.22 182.85 84.9 183.1 84.47 183.34C84.15 183.52 83.62 183.75 83.29 183.86C82.95 183.97 82.41 184.09 82.07 184.14C81.72 184.18 81.21 184.2 80.86 184.18C80.52 184.15 79.96 184.06 79.61 183.97C79.26 183.88 78.74 183.72 78.46 183.6C78.18 183.48 77.73 183.24 77.45 183.07C77.17 182.9 76.7 182.51 76.4 182.21C76.1 181.91 75.71 181.42 75.52 181.13C75.34 180.83 75.11 180.37 75.01 180.11C74.91 179.85 74.77 179.38 74.71 179.07C74.62 178.63 74.6 178.28 74.63 177.58C74.66 176.87 74.71 176.5 74.86 175.89C74.98 175.47 75.18 174.88 75.32 174.58C75.45 174.28 75.7 173.84 75.86 173.6C76.02 173.36 76.39 172.93 76.68 172.65C76.97 172.36 77.39 172.02 77.62 171.87C77.84 171.73 78.21 171.53 78.44 171.43C78.68 171.32 79.09 171.17 79.36 171.1C79.62 171.02 80.04 170.94 80.28 170.91C80.52 170.87 80.87 170.84 81.06 170.84ZM111.29 172.8C111.51 172.79 111.55 172.81 111.58 172.94C111.59 173.02 111.79 174.9 112.02 177.11C112.37 180.42 112.43 181.26 112.41 181.9C112.38 182.54 112.34 182.78 112.17 183.22C112.07 183.52 111.87 183.93 111.73 184.13C111.6 184.34 111.29 184.69 111.05 184.93C110.73 185.22 110.42 185.44 109.98 185.65C109.63 185.82 109.15 186.01 108.91 186.07C108.58 186.16 108.21 186.19 107.36 186.19C106.31 186.19 106.21 186.18 105.71 186C105.41 185.9 104.98 185.7 104.76 185.56C104.54 185.43 104.2 185.16 104 184.96C103.81 184.76 103.53 184.4 103.38 184.15C103.24 183.9 103.05 183.5 102.97 183.25C102.89 183.01 102.8 182.59 102.76 182.31C102.72 182.03 102.51 179.99 102.3 177.79C102.09 175.58 101.91 173.76 101.92 173.76C101.92 173.75 102.47 173.7 103.14 173.65C103.81 173.59 104.37 173.57 104.4 173.59C104.42 173.61 104.58 175.36 104.75 177.48C104.93 179.6 105.1 181.51 105.14 181.74C105.18 181.96 105.27 182.28 105.35 182.44C105.42 182.61 105.58 182.88 105.71 183.04C105.87 183.23 106.09 183.39 106.4 183.54C106.74 183.7 106.97 183.76 107.33 183.78C107.63 183.8 107.96 183.77 108.24 183.7C108.49 183.64 108.83 183.48 109.05 183.34C109.34 183.14 109.47 182.99 109.64 182.65C109.82 182.31 109.88 182.1 109.9 181.74C109.92 181.42 109.8 179.87 109.53 177.18C109.3 174.93 109.12 173.09 109.13 173.08C109.14 173.08 109.57 173.01 110.09 172.94C110.61 172.87 111.15 172.8 111.29 172.8ZM91.8 173.02L93.05 173.12C93.73 173.17 94.3 173.21 94.31 173.22C94.32 173.22 94.17 175.55 93.99 178.39C93.81 181.23 93.67 183.56 93.68 183.57C93.68 183.58 95.01 183.65 96.63 183.74C98.26 183.83 99.6 183.91 99.63 183.93C99.65 183.95 99.64 184.5 99.6 185.15C99.56 185.8 99.52 186.33 99.51 186.34C99.5 186.35 97.59 186.22 95.27 186.06C92.95 185.89 91.05 185.75 91.04 185.74C91.03 185.73 91.19 182.98 91.39 179.64C91.6 176.3 91.77 173.44 91.78 173.29L91.8 173.02Z"/>
		<path class="shp1" d="M81.13 173.33C81.51 173.33 81.99 173.38 82.24 173.43C82.48 173.49 82.88 173.63 83.12 173.75C83.41 173.89 83.73 174.13 84.07 174.47C84.35 174.75 84.66 175.12 84.74 175.29C84.83 175.45 84.95 175.76 85.02 175.96C85.1 176.17 85.17 176.61 85.19 176.98C85.22 177.44 85.2 177.77 85.12 178.19C85.05 178.51 84.91 178.98 84.8 179.24C84.69 179.5 84.47 179.89 84.31 180.11C84.15 180.34 83.87 180.65 83.69 180.81C83.5 180.97 83.14 181.2 82.88 181.33C82.62 181.46 82.2 181.61 81.94 181.67C81.68 181.72 81.3 181.77 81.09 181.77C80.89 181.77 80.51 181.72 80.25 181.67C79.99 181.61 79.55 181.45 79.27 181.31C78.93 181.15 78.62 180.91 78.32 180.62C78.07 180.38 77.79 180.05 77.7 179.88C77.6 179.71 77.46 179.4 77.38 179.19C77.31 178.97 77.21 178.57 77.18 178.29C77.13 177.95 77.13 177.61 77.18 177.23C77.22 176.92 77.34 176.41 77.45 176.1C77.56 175.78 77.75 175.36 77.87 175.17C77.99 174.97 78.23 174.66 78.41 174.47C78.59 174.29 78.89 174.03 79.09 173.9C79.28 173.77 79.67 173.59 79.95 173.5C80.34 173.37 80.6 173.33 81.13 173.33Z"/>
	</g>
</svg>