<svg xmlns="http://www.w3.org/2000/svg" width="238.34387" height="310.285" viewBox="0 0 238.34387 310.285">
  <g>
    <path d="M221.32107,41.45079c-1.17938-.12589-2.42739-.25938-3.78816-.44728-20.61916-2.84749-31.79665-11.29211-43.63-20.233C161.01789,11.03465,146.41312,0,119.17237,0,91.92883,0,77.326,11.03465,64.44194,20.77054c-11.83439,8.94086-23.01275,17.38734-43.63383,20.233-1.35892.1879-2.605.32139-3.791.44728C12.36343,41.947,0,43.26453,0,56.29142V183.86335c0,32.43851,10.20106,59.7328,30.32126,81.1254,19.7894,21.03927,48.95753,36.113,86.69251,44.79822l2.1586.498,2.15865-.498c37.73591-8.68711,66.90311-23.75895,86.69159-44.79822,20.11921-21.39074,30.32126-48.685,30.32126-81.1254V56.29142C238.34387,43.26453,225.97945,41.947,221.32107,41.45079Z" style="fill: #fff"/>
    <path d="M119.15136,12.53464c-23.05489,0-34.78442,8.86365-47.202,18.248-12.59522,9.51409-25.61812,19.3534-49.46914,22.647-1.50014.20679-2.87622.3553-4.17992.49441-5.83892.62224-5.83892,1.03581-5.83892,2.40813V183.92926c0,29.157,9.0601,53.57292,26.93027,72.57291,17.95665,19.09209,44.78823,32.89608,79.7597,41.03973,34.97147-8.14365,61.80305-21.94952,79.75876-41.03973,17.87017-18.99811,26.93027-43.414,26.93027-72.57291V56.33217c0-1.37232,0-1.78589-5.84174-2.40813-1.30182-.13911-2.67789-.28762-4.179-.49441-23.851-3.29356-36.873-13.13287-49.46537-22.647C153.93485,21.39829,142.20437,12.53464,119.15136,12.53464Z" style="fill: #dd004a"/>
    <path d="M155.62763,23.08649V285.74293a213.35615,213.35615,0,0,1-36.47981,11.80314c-34.97107-8.144-61.7984-21.95518-79.75811-41.04614-17.86763-18.99914-26.92911-43.4108-26.92911-72.57218V56.33517c0-1.376,0-1.79393,5.84041-2.41567,1.3047-.13251,2.68082-.28543,4.17912-.48923C46.331,50.138,59.35736,40.29182,71.94548,30.782,84.37035,21.39446,96.092,12.537,119.14782,12.537,135.63983,12.537,146.332,17.06255,155.62763,23.08649Z" style="fill: #001837"/>
    <g>
      <path d="M147.40847,59.00809c-8.15418-5.96285-16.89937-9.092-25.818-9.092H121.04c-17.88829,0-34.99172,12.5065-48.19125,35.23621-8.65362,14.88148-33.157,62.06367-56.84487,107.70674q-1.37587,2.66028-2.77239,5.341a106.5866,106.5866,0,0,0,6.564,27.31644C47.69317,172.63661,82.124,107.68857,91.08344,91.686c9.90755-17.69469,19.77405-26.19539,30.2522-26.02207,10.40674-.19373,20.263,8.32738,30.17033,26.02207,1.26389,2.25255,3.02721,5.47336,5.20859,9.48936V67.33547A67.26473,67.26473,0,0,0,147.40847,59.00809Z" style="fill: #dd004a"/>
      <path d="M32.48545,133.65963l8.25621-14.93238a252.50405,252.50405,0,0,0-28.28482,7.69556v13.63788q9.75464-3.486,19.86562-6.11564Z" style="fill: #dd004a"/>
      <path d="M25.40155,147.80714q-6.55908,2.0946-12.94471,4.57653v13.88249c1.17206-.48923,2.34438-.95806,3.52664-1.427Z" style="fill: #dd004a"/>
      <path d="M87.353,128.99128q3.14964-.09163,6.32965-.09158a241.32688,241.32688,0,0,1,63.03192,8.19487V123.77273a254.1288,254.1288,0,0,0-62.54269-7.77718Z" style="fill: #dd004a"/>
      <path d="M122.55872,146.56353a233.4549,233.4549,0,0,0-27.653-1.83461c-.82543-.02041-1.64089-.02041-2.47677-.02041q-6.81888.0153-13.56658.40773L71.8703,158.44841l-.25482.48923L28.07217,241.91656a94.63681,94.63681,0,0,0,9.28544,12.34351l50.57644-96.28061c1.4983-.03048,3.017-.05089,4.52551-.05089,3.97506,0,7.90957.0917,11.83362.28531.14085.00734.28095.018.42154.02575l-.39068.72862L47.80515,264.50369a119.23645,119.23645,0,0,0,11.28342,8.5211l60.38172-112.62965.44145-.82344a218.91747,218.91747,0,0,1,36.80282,7.71373V153.50484a233.3869,233.3869,0,0,0-30.34377-6.42147C125.0967,146.9,123.83281,146.737,122.55872,146.56353Z" style="fill: #dd004a"/>
    </g>
    <path d="M220.61474,48.19274c-1.12279-.11894-2.5213-.26676-3.99746-.47131-22.34338-3.0842-34.74785-12.45623-46.75018-21.52517-12.63441-9.54524-25.69882-19.415-50.6949-19.415-25.00005,0-38.06347,9.87122-50.70584,19.42491C56.471,35.26769,44.06652,44.63773,21.72513,47.72143c-1.48909.20654-2.88064.35336-3.99845.47131-4.9162.52507-11.03483,1.178-11.03483,8.187V183.95163c0,30.67922,9.59053,56.4308,28.50481,76.54053,18.8655,20.058,46.8985,34.4791,83.31959,42.86222l.645.14831.011.003.65895-.1513c36.42109-8.38611,64.45308-22.80723,83.3166-42.86222,18.91428-20.10774,28.50381-45.85981,28.50381-76.54053V56.37977C231.65156,49.37078,225.53293,48.71731,220.61474,48.19274Zm5.175,8.187V183.95163c0,29.13937-9.054,53.5402-26.91119,72.52416-17.9408,19.07454-44.75842,32.87454-79.70635,41.01379-34.94692-8.13925-61.76455-21.93925-79.70734-41.01379-17.85619-18.98694-26.9102-43.38728-26.9102-72.52416V56.37977c0-1.3363,0-1.73993,5.79115-2.35706,1.42638-.1518,2.72536-.29414,4.1816-.49471,23.85636-3.29372,36.882-13.13359,49.48351-22.65195C84.41838,21.499,96.137,12.64162,119.1722,12.64162c23.03119,0,34.75283,8.85692,47.16327,18.23443,12.59559,9.51687,25.62019,19.35773,49.47953,22.652,1.44431.19908,2.74726.34191,4.17962.49471C225.78974,54.63984,225.78974,55.04347,225.78974,56.37977Z" style="fill: #001837"/>
    <g>
      <g>
        <g>
          <path d="M164.0499,94.69772c0-15.9661,3.58415-22.06376,15.82661-22.06376h1.86182c12.24246,0,15.82661,6.09766,15.82661,22.06376v4.65477c0,14.756-3.11906,20.947-12.89418,21.97093V107.07966c3.07241-.88449,3.67746-2.69965,3.67746-9.86794V96.839c0-8.75115-1.86181-9.96125-7.02881-9.96125h-1.07063c-5.12035,0-6.98216,1.2101-6.98216,9.96125v.37275c0,7.16829.60505,8.98345,3.67746,9.86794v14.24376c-9.77512-1.024-12.89418-7.21494-12.89418-21.97093Z" style="fill: #fff"/>
          <path d="M164.51547,125.29379h32.5839v13.96432h-32.5839Z" style="fill: #fff"/>
          <path d="M164.51547,156.48339h22.66881v-14.011h9.91509v41.98626h-9.91509v-14.011H164.51547Z" style="fill: #fff"/>
          <path d="M164.51547,204.526H178.5731l18.52627-18.43344v17.08338l-9.589,9.03058v.46558l9.589,8.983v15.2687L178.5731,218.49032H164.51547Z" style="fill: #fff"/>
        </g>
        <g>
          <path d="M209.257,102.65522c-1.31238,0-1.9149,1.06479-1.9149,5.10782,0,3.35179.37211,4.36219,1.34673,4.36219,1.03044,0,1.20647-.70986,1.40254-4.73572.24759-5.40837,1.09913-7.55368,3.88275-7.55368,2.73066,0,3.59937,2.78361,3.59937,7.4306,0,4.68134-1.17069,7.5179-4.23767,7.5179v-3.19149c1.36533,0,1.70165-1.36533,1.70165-4.68134,0-3.13854-.30054-3.88418-1.22221-3.88418-.95888,0-1.13635.74564-1.34816,4.36219-.2662,4.89458-.53239,7.92722-3.67094,7.92722-3.316,0-3.99008-3.13855-3.99008-7.73115,0-5.08922.86872-8.12185,4.45092-8.12185Z" style="fill: #fff"/>
          <path d="M214.71978,131.37079v-6.0295h-9.73621V122.1498h9.73621v-6.0295h2.67628v15.25049Z" style="fill: #fff"/>
          <path d="M207.66128,154.07985h-2.67771V141.31244h12.41249v3.19149h-9.73478Z" style="fill: #fff"/>
          <path d="M211.20771,155.37569c4.11316,0,6.36581,2.34,6.36581,7.80271,0,5.44415-2.26982,7.8027-6.36581,7.8027-4.11317,0-6.4016-2.35855-6.4016-7.8027C204.80611,157.71565,207.07594,155.37569,211.20771,155.37569Zm0,12.41249c2.51884,0,3.68954-1.2766,3.68954-4.60978,0-3.33461-1.15352-4.61121-3.68954-4.61121-2.5532,0-3.72389,1.2952-3.72389,4.61121S208.67168,167.78818,211.20771,167.78818Z" style="fill: #fff"/>
          <path d="M204.80611,180.46543c0-5.46276,2.07519-7.80271,6.4016-7.80271h6.18835v3.1915h-6.18835c-1.73744,0-3.72389.47944-3.72389,4.61121s2.00363,4.60977,3.72389,4.60977h6.18835v3.19293h-6.18835C206.89847,188.26813,204.80611,185.90957,204.80611,180.46543Z" style="fill: #fff"/>
          <path d="M204.98357,193.23v-3.1915h12.41249V193.23Z" style="fill: #fff"/>
          <path d="M209.257,198.02863c-1.31238,0-1.9149,1.06478-1.9149,5.10782,0,3.35178.37211,4.36219,1.34673,4.36219,1.03044,0,1.20647-.70986,1.40254-4.73429.24759-5.4098,1.09913-7.55512,3.88275-7.55512,2.73066,0,3.59937,2.78362,3.59937,7.43061,0,4.68133-1.17069,7.5179-4.23767,7.5179v-3.1915c1.36533,0,1.70165-1.36533,1.70165-4.68133,0-3.13855-.30054-3.88418-1.22221-3.88418-.95888,0-1.13635.74563-1.34816,4.36362-.2662,4.89315-.53239,7.92578-3.67094,7.92578-3.316,0-3.99008-3.13854-3.99008-7.73115,0-5.08921.86872-8.12185,4.45092-8.12185Z" style="fill: #fff"/>
        </g>
      </g>
      <path d="M103.54515,264.63c0,1.47851,1.19932,2.157,5.75493,2.157,3.77658,0,4.91586-.41878,4.91586-1.51753,0-1.15879-.7993-1.35993-5.3354-1.57908-6.09491-.27919-8.51231-1.23835-8.51231-4.37549,0-3.0786,3.13714-4.05727,8.37272-4.05727,5.27535,0,8.47253,1.3194,8.47253,4.77626h-3.5972c0-1.53855-1.53855-1.91831-5.27535-1.91831-3.53642,0-4.37624.33923-4.37624,1.37794,0,1.07924.83982,1.27888,4.91585,1.519,5.51552.30021,8.93185.59891,8.93185,4.13683,0,3.736-3.53641,4.49557-8.71195,4.49557-5.73541,0-9.15175-.97867-9.15175-5.01493Z" style="fill: #fff"/>
      <path d="M129.01989,255.25764c5.57481,0,8.37272,2.11795,8.73221,6.1542h-3.65724c-.33924-2.25754-2.07817-3.13714-5.075-3.13714-3.65725,0-5.1958,1.29989-5.1958,4.15634,0,2.87746,1.55882,4.19687,5.1958,4.19687,2.97728,0,4.73573-.89912,5.075-3.17767h3.65724c-.35949,4.05727-3.1574,6.19473-8.73221,6.19473-6.15495,0-8.79225-2.55775-8.79225-7.21393C120.22764,257.79587,122.86494,255.25764,129.01989,255.25764Z" style="fill: #fff"/>
    </g>
  </g>
</svg>